%TF.GenerationSoftware,KiCad,Pcbnew,7.0.5-0*%
%TF.CreationDate,2023-09-20T16:50:09-04:00*%
%TF.ProjectId,patchpanel,70617463-6870-4616-9e65-6c2e6b696361,2.0*%
%TF.SameCoordinates,Original*%
%TF.FileFunction,Copper,L1,Top*%
%TF.FilePolarity,Positive*%
%FSLAX46Y46*%
G04 Gerber Fmt 4.6, Leading zero omitted, Abs format (unit mm)*
G04 Created by KiCad (PCBNEW 7.0.5-0) date 2023-09-20 16:50:09*
%MOMM*%
%LPD*%
G01*
G04 APERTURE LIST*
%TA.AperFunction,ComponentPad*%
%ADD10R,1.397000X1.397000*%
%TD*%
%TA.AperFunction,ComponentPad*%
%ADD11C,1.397000*%
%TD*%
%TA.AperFunction,ComponentPad*%
%ADD12C,3.962400*%
%TD*%
%TA.AperFunction,ComponentPad*%
%ADD13C,1.320800*%
%TD*%
%TA.AperFunction,Conductor*%
%ADD14C,0.068580*%
%TD*%
G04 APERTURE END LIST*
D10*
%TO.P,U1,1,1*%
%TO.N,Net-(J1-Pad29)*%
X64287400Y-101396800D03*
D11*
%TO.P,U1,2,2*%
%TO.N,Net-(J1-Pad31)*%
X61747400Y-101396800D03*
%TO.P,U1,3,3*%
%TO.N,Net-(J1-Pad25)*%
X64287400Y-98856800D03*
%TO.P,U1,4,4*%
%TO.N,Net-(J1-Pad27)*%
X61747400Y-98856800D03*
%TO.P,U1,5,5*%
%TO.N,Net-(J1-Pad21)*%
X64287400Y-96316800D03*
%TO.P,U1,6,6*%
%TO.N,Net-(J1-Pad23)*%
X61747400Y-96316800D03*
%TO.P,U1,7,7*%
%TO.N,Net-(J1-Pad17)*%
X64287400Y-93776800D03*
%TO.P,U1,8,8*%
%TO.N,Net-(J1-Pad19)*%
X61747400Y-93776800D03*
%TO.P,U1,9,9*%
%TO.N,Net-(J1-Pad13)*%
X64287400Y-91236800D03*
%TO.P,U1,10,10*%
%TO.N,Net-(J1-Pad15)*%
X61747400Y-91236800D03*
%TO.P,U1,11,11*%
%TO.N,Net-(J1-Pad9)*%
X64287400Y-88696800D03*
%TO.P,U1,12,12*%
%TO.N,Net-(J1-Pad11)*%
X61747400Y-88696800D03*
%TO.P,U1,13,13*%
%TO.N,Net-(J1-Pad5)*%
X64287400Y-86156800D03*
%TO.P,U1,14,14*%
%TO.N,Net-(J1-Pad7)*%
X61747400Y-86156800D03*
%TO.P,U1,15,15*%
%TO.N,Net-(J1-Pad1)*%
X64287400Y-83616800D03*
%TO.P,U1,16,16*%
%TO.N,Net-(J1-Pad3)*%
X61747400Y-83616800D03*
D12*
%TO.P,U1,17*%
%TO.N,N/C*%
X62484000Y-107289600D03*
%TO.P,U1,18*%
X62484000Y-77724000D03*
%TD*%
D10*
%TO.P,U3,1,1*%
%TO.N,Net-(J1-Pad62)*%
X130352800Y-116052600D03*
D11*
%TO.P,U3,2,2*%
%TO.N,Net-(J1-Pad64)*%
X130352800Y-118592600D03*
%TO.P,U3,3,3*%
%TO.N,Net-(J1-Pad58)*%
X127812800Y-116052600D03*
%TO.P,U3,4,4*%
%TO.N,Net-(J1-Pad60)*%
X127812800Y-118592600D03*
%TO.P,U3,5,5*%
%TO.N,Net-(J1-Pad54)*%
X125272800Y-116052600D03*
%TO.P,U3,6,6*%
%TO.N,Net-(J1-Pad56)*%
X125272800Y-118592600D03*
%TO.P,U3,7,7*%
%TO.N,Net-(J1-Pad50)*%
X122732800Y-116052600D03*
%TO.P,U3,8,8*%
%TO.N,Net-(J1-Pad52)*%
X122732800Y-118592600D03*
%TO.P,U3,9,9*%
%TO.N,Net-(J1-Pad46)*%
X120192800Y-116052600D03*
%TO.P,U3,10,10*%
%TO.N,Net-(J1-Pad48)*%
X120192800Y-118592600D03*
%TO.P,U3,11,11*%
%TO.N,Net-(J1-Pad42)*%
X117652800Y-116052600D03*
%TO.P,U3,12,12*%
%TO.N,Net-(J1-Pad44)*%
X117652800Y-118592600D03*
%TO.P,U3,13,13*%
%TO.N,Net-(J1-Pad38)*%
X115112800Y-116052600D03*
%TO.P,U3,14,14*%
%TO.N,Net-(J1-Pad40)*%
X115112800Y-118592600D03*
%TO.P,U3,15,15*%
%TO.N,Net-(J1-Pad34)*%
X112572800Y-116052600D03*
%TO.P,U3,16,16*%
%TO.N,Net-(J1-Pad36)*%
X112572800Y-118592600D03*
D12*
%TO.P,U3,17*%
%TO.N,N/C*%
X136245600Y-117856000D03*
%TO.P,U3,18*%
X106680000Y-117856000D03*
%TD*%
D10*
%TO.P,U4,1,1*%
%TO.N,Net-(J1-Pad61)*%
X135864600Y-83616800D03*
D11*
%TO.P,U4,2,2*%
%TO.N,Net-(J1-Pad63)*%
X138404600Y-83616800D03*
%TO.P,U4,3,3*%
%TO.N,Net-(J1-Pad57)*%
X135864600Y-86156800D03*
%TO.P,U4,4,4*%
%TO.N,Net-(J1-Pad59)*%
X138404600Y-86156800D03*
%TO.P,U4,5,5*%
%TO.N,Net-(J1-Pad53)*%
X135864600Y-88696800D03*
%TO.P,U4,6,6*%
%TO.N,Net-(J1-Pad55)*%
X138404600Y-88696800D03*
%TO.P,U4,7,7*%
%TO.N,Net-(J1-Pad49)*%
X135864600Y-91236800D03*
%TO.P,U4,8,8*%
%TO.N,Net-(J1-Pad51)*%
X138404600Y-91236800D03*
%TO.P,U4,9,9*%
%TO.N,Net-(J1-Pad45)*%
X135864600Y-93776800D03*
%TO.P,U4,10,10*%
%TO.N,Net-(J1-Pad47)*%
X138404600Y-93776800D03*
%TO.P,U4,11,11*%
%TO.N,Net-(J1-Pad41)*%
X135864600Y-96316800D03*
%TO.P,U4,12,12*%
%TO.N,Net-(J1-Pad43)*%
X138404600Y-96316800D03*
%TO.P,U4,13,13*%
%TO.N,Net-(J1-Pad37)*%
X135864600Y-98856800D03*
%TO.P,U4,14,14*%
%TO.N,Net-(J1-Pad39)*%
X138404600Y-98856800D03*
%TO.P,U4,15,15*%
%TO.N,Net-(J1-Pad33)*%
X135864600Y-101396800D03*
%TO.P,U4,16,16*%
%TO.N,Net-(J1-Pad35)*%
X138404600Y-101396800D03*
D12*
%TO.P,U4,17*%
%TO.N,N/C*%
X137668000Y-77724000D03*
%TO.P,U4,18*%
X137668000Y-107289600D03*
%TD*%
D13*
%TO.P,J1,1,1*%
%TO.N,Net-(J1-Pad1)*%
X78867000Y-67437000D03*
%TO.P,J1,2,2*%
%TO.N,Net-(J1-Pad2)*%
X78867000Y-63627000D03*
%TO.P,J1,3,3*%
%TO.N,Net-(J1-Pad3)*%
X80137000Y-65532000D03*
%TO.P,J1,4,4*%
%TO.N,Net-(J1-Pad4)*%
X80137000Y-61722000D03*
%TO.P,J1,5,5*%
%TO.N,Net-(J1-Pad5)*%
X81407000Y-67437000D03*
%TO.P,J1,6,6*%
%TO.N,Net-(J1-Pad6)*%
X81407000Y-63627000D03*
%TO.P,J1,7,7*%
%TO.N,Net-(J1-Pad7)*%
X82677000Y-65532000D03*
%TO.P,J1,8,8*%
%TO.N,Net-(J1-Pad8)*%
X82677000Y-61722000D03*
%TO.P,J1,9,9*%
%TO.N,Net-(J1-Pad9)*%
X83947000Y-67437000D03*
%TO.P,J1,10,10*%
%TO.N,Net-(J1-Pad10)*%
X83947000Y-63627000D03*
%TO.P,J1,11,11*%
%TO.N,Net-(J1-Pad11)*%
X85217000Y-65532000D03*
%TO.P,J1,12,12*%
%TO.N,Net-(J1-Pad12)*%
X85217000Y-61722000D03*
%TO.P,J1,13,13*%
%TO.N,Net-(J1-Pad13)*%
X86487000Y-67437000D03*
%TO.P,J1,14,14*%
%TO.N,Net-(J1-Pad14)*%
X86487000Y-63627000D03*
%TO.P,J1,15,15*%
%TO.N,Net-(J1-Pad15)*%
X87757000Y-65532000D03*
%TO.P,J1,16,16*%
%TO.N,Net-(J1-Pad16)*%
X87757000Y-61722000D03*
%TO.P,J1,17,17*%
%TO.N,Net-(J1-Pad17)*%
X89027000Y-67437000D03*
%TO.P,J1,18,18*%
%TO.N,Net-(J1-Pad18)*%
X89027000Y-63627000D03*
%TO.P,J1,19,19*%
%TO.N,Net-(J1-Pad19)*%
X90297000Y-65532000D03*
%TO.P,J1,20,20*%
%TO.N,Net-(J1-Pad20)*%
X90297000Y-61722000D03*
%TO.P,J1,21,21*%
%TO.N,Net-(J1-Pad21)*%
X91567000Y-67437000D03*
%TO.P,J1,22,22*%
%TO.N,Net-(J1-Pad22)*%
X91567000Y-63627000D03*
%TO.P,J1,23,23*%
%TO.N,Net-(J1-Pad23)*%
X92837000Y-65532000D03*
%TO.P,J1,24,24*%
%TO.N,Net-(J1-Pad24)*%
X92837000Y-61722000D03*
%TO.P,J1,25,25*%
%TO.N,Net-(J1-Pad25)*%
X94107000Y-67437000D03*
%TO.P,J1,26,26*%
%TO.N,Net-(J1-Pad26)*%
X94107000Y-63627000D03*
%TO.P,J1,27,27*%
%TO.N,Net-(J1-Pad27)*%
X95377000Y-65532000D03*
%TO.P,J1,28,28*%
%TO.N,Net-(J1-Pad28)*%
X95377000Y-61722000D03*
%TO.P,J1,29,29*%
%TO.N,Net-(J1-Pad29)*%
X96647000Y-67437000D03*
%TO.P,J1,30,30*%
%TO.N,Net-(J1-Pad30)*%
X96647000Y-63627000D03*
%TO.P,J1,31,31*%
%TO.N,Net-(J1-Pad31)*%
X97917000Y-65532000D03*
%TO.P,J1,32,32*%
%TO.N,Net-(J1-Pad32)*%
X97917000Y-61722000D03*
%TO.P,J1,33,33*%
%TO.N,Net-(J1-Pad33)*%
X99187000Y-67437000D03*
%TO.P,J1,34,34*%
%TO.N,Net-(J1-Pad34)*%
X99187000Y-63627000D03*
%TO.P,J1,35,35*%
%TO.N,Net-(J1-Pad35)*%
X100457000Y-65532000D03*
%TO.P,J1,36,36*%
%TO.N,Net-(J1-Pad36)*%
X100457000Y-61722000D03*
%TO.P,J1,37,37*%
%TO.N,Net-(J1-Pad37)*%
X101727000Y-67437000D03*
%TO.P,J1,38,38*%
%TO.N,Net-(J1-Pad38)*%
X101727000Y-63627000D03*
%TO.P,J1,39,39*%
%TO.N,Net-(J1-Pad39)*%
X102997000Y-65532000D03*
%TO.P,J1,40,40*%
%TO.N,Net-(J1-Pad40)*%
X102997000Y-61722000D03*
%TO.P,J1,41,41*%
%TO.N,Net-(J1-Pad41)*%
X104267000Y-67437000D03*
%TO.P,J1,42,42*%
%TO.N,Net-(J1-Pad42)*%
X104267000Y-63627000D03*
%TO.P,J1,43,43*%
%TO.N,Net-(J1-Pad43)*%
X105537000Y-65532000D03*
%TO.P,J1,44,44*%
%TO.N,Net-(J1-Pad44)*%
X105537000Y-61722000D03*
%TO.P,J1,45,45*%
%TO.N,Net-(J1-Pad45)*%
X106807000Y-67437000D03*
%TO.P,J1,46,46*%
%TO.N,Net-(J1-Pad46)*%
X106807000Y-63627000D03*
%TO.P,J1,47,47*%
%TO.N,Net-(J1-Pad47)*%
X108077000Y-65532000D03*
%TO.P,J1,48,48*%
%TO.N,Net-(J1-Pad48)*%
X108077000Y-61722000D03*
%TO.P,J1,49,49*%
%TO.N,Net-(J1-Pad49)*%
X109347000Y-67437000D03*
%TO.P,J1,50,50*%
%TO.N,Net-(J1-Pad50)*%
X109347000Y-63627000D03*
%TO.P,J1,51,51*%
%TO.N,Net-(J1-Pad51)*%
X110617000Y-65532000D03*
%TO.P,J1,52,52*%
%TO.N,Net-(J1-Pad52)*%
X110617000Y-61722000D03*
%TO.P,J1,53,53*%
%TO.N,Net-(J1-Pad53)*%
X111887000Y-67437000D03*
%TO.P,J1,54,54*%
%TO.N,Net-(J1-Pad54)*%
X111887000Y-63627000D03*
%TO.P,J1,55,55*%
%TO.N,Net-(J1-Pad55)*%
X113157000Y-65532000D03*
%TO.P,J1,56,56*%
%TO.N,Net-(J1-Pad56)*%
X113157000Y-61722000D03*
%TO.P,J1,57,57*%
%TO.N,Net-(J1-Pad57)*%
X114427000Y-67437000D03*
%TO.P,J1,58,58*%
%TO.N,Net-(J1-Pad58)*%
X114427000Y-63627000D03*
%TO.P,J1,59,59*%
%TO.N,Net-(J1-Pad59)*%
X115697000Y-65532000D03*
%TO.P,J1,60,60*%
%TO.N,Net-(J1-Pad60)*%
X115697000Y-61722000D03*
%TO.P,J1,61,61*%
%TO.N,Net-(J1-Pad61)*%
X116967000Y-67437000D03*
%TO.P,J1,62,62*%
%TO.N,Net-(J1-Pad62)*%
X116967000Y-63627000D03*
%TO.P,J1,63,63*%
%TO.N,Net-(J1-Pad63)*%
X118237000Y-65532000D03*
%TO.P,J1,64,64*%
%TO.N,Net-(J1-Pad64)*%
X118237000Y-61722000D03*
%TO.P,J1,65,65*%
%TO.N,unconnected-(J1-Pad65)*%
X119507000Y-67437000D03*
%TO.P,J1,66,66*%
%TO.N,unconnected-(J1-Pad66)*%
X119507000Y-63627000D03*
%TO.P,J1,67,67*%
%TO.N,unconnected-(J1-Pad67)*%
X120777000Y-65532000D03*
%TO.P,J1,68,68*%
%TO.N,unconnected-(J1-Pad68)*%
X120777000Y-61722000D03*
%TD*%
D10*
%TO.P,U2,1,1*%
%TO.N,Net-(J1-Pad30)*%
X87579200Y-116052600D03*
D11*
%TO.P,U2,2,2*%
%TO.N,Net-(J1-Pad32)*%
X87579200Y-118592600D03*
%TO.P,U2,3,3*%
%TO.N,Net-(J1-Pad26)*%
X85039200Y-116052600D03*
%TO.P,U2,4,4*%
%TO.N,Net-(J1-Pad28)*%
X85039200Y-118592600D03*
%TO.P,U2,5,5*%
%TO.N,Net-(J1-Pad22)*%
X82499200Y-116052600D03*
%TO.P,U2,6,6*%
%TO.N,Net-(J1-Pad24)*%
X82499200Y-118592600D03*
%TO.P,U2,7,7*%
%TO.N,Net-(J1-Pad18)*%
X79959200Y-116052600D03*
%TO.P,U2,8,8*%
%TO.N,Net-(J1-Pad20)*%
X79959200Y-118592600D03*
%TO.P,U2,9,9*%
%TO.N,Net-(J1-Pad14)*%
X77419200Y-116052600D03*
%TO.P,U2,10,10*%
%TO.N,Net-(J1-Pad16)*%
X77419200Y-118592600D03*
%TO.P,U2,11,11*%
%TO.N,Net-(J1-Pad10)*%
X74879200Y-116052600D03*
%TO.P,U2,12,12*%
%TO.N,Net-(J1-Pad12)*%
X74879200Y-118592600D03*
%TO.P,U2,13,13*%
%TO.N,Net-(J1-Pad6)*%
X72339200Y-116052600D03*
%TO.P,U2,14,14*%
%TO.N,Net-(J1-Pad8)*%
X72339200Y-118592600D03*
%TO.P,U2,15,15*%
%TO.N,Net-(J1-Pad2)*%
X69799200Y-116052600D03*
%TO.P,U2,16,16*%
%TO.N,Net-(J1-Pad4)*%
X69799200Y-118592600D03*
D12*
%TO.P,U2,17*%
%TO.N,N/C*%
X93472000Y-117856000D03*
%TO.P,U2,18*%
X63906400Y-117856000D03*
%TD*%
D14*
%TO.N,Net-(J1-Pad3)*%
X62814200Y-82550000D02*
X65786000Y-82550000D01*
X65786000Y-82550000D02*
X80137000Y-68199000D01*
X80137000Y-68199000D02*
X80137000Y-65532000D01*
X61747400Y-83616800D02*
X62814200Y-82550000D01*
%TO.N,Net-(J1-Pad7)*%
X62770900Y-85133300D02*
X65866267Y-85133300D01*
X61747400Y-86156800D02*
X62770900Y-85133300D01*
X65866267Y-85133300D02*
X82677000Y-68322567D01*
X82677000Y-68322567D02*
X82677000Y-65532000D01*
%TO.N,Net-(J1-Pad11)*%
X66235699Y-87180300D02*
X85217000Y-68198999D01*
X85217000Y-68198999D02*
X85217000Y-65532000D01*
X61747400Y-88696800D02*
X63263900Y-87180300D01*
X63263900Y-87180300D02*
X66235699Y-87180300D01*
%TO.N,Net-(J1-Pad15)*%
X61747400Y-91236800D02*
X63263900Y-89720300D01*
X87757000Y-67691000D02*
X87757000Y-65532000D01*
X65727700Y-89720300D02*
X87757000Y-67691000D01*
X63263900Y-89720300D02*
X65727700Y-89720300D01*
%TO.N,Net-(J1-Pad19)*%
X62770900Y-92753300D02*
X65138300Y-92753300D01*
X65138300Y-92753300D02*
X90297000Y-67594600D01*
X90297000Y-67594600D02*
X90297000Y-65532000D01*
X61747400Y-93776800D02*
X62770900Y-92753300D01*
%TO.N,Net-(J1-Pad23)*%
X65278000Y-95250000D02*
X92964000Y-67564000D01*
X92837000Y-67437000D02*
X92837000Y-65532000D01*
X62814200Y-95250000D02*
X65278000Y-95250000D01*
X61747400Y-96316800D02*
X62814200Y-95250000D01*
X92964000Y-67564000D02*
X92837000Y-67437000D01*
%TO.N,Net-(J1-Pad27)*%
X95377000Y-67691000D02*
X95377000Y-65532000D01*
X65234700Y-97833300D02*
X95377000Y-67691000D01*
X62770900Y-97833300D02*
X65234700Y-97833300D01*
X61747400Y-98856800D02*
X62770900Y-97833300D01*
%TO.N,Net-(J1-Pad31)*%
X97917000Y-67560567D02*
X97917000Y-65532000D01*
X61747400Y-101396800D02*
X63263900Y-99880300D01*
X65219700Y-99880300D02*
X65278000Y-99822000D01*
X63263900Y-99880300D02*
X65219700Y-99880300D01*
X65278000Y-99822000D02*
X65655567Y-99822000D01*
X65655567Y-99822000D02*
X97917000Y-67560567D01*
%TO.N,Net-(J1-Pad35)*%
X137337448Y-100329648D02*
X133226081Y-100329648D01*
X100457000Y-67560567D02*
X100457000Y-65532000D01*
X133226081Y-100329648D02*
X100457000Y-67560567D01*
X138404600Y-101396800D02*
X137337448Y-100329648D01*
%TO.N,Net-(J1-Pad39)*%
X137381100Y-97833300D02*
X133139300Y-97833300D01*
X133139300Y-97833300D02*
X102997000Y-67691000D01*
X102997000Y-67691000D02*
X102997000Y-65532000D01*
X138404600Y-98856800D02*
X137381100Y-97833300D01*
%TO.N,Net-(J1-Pad43)*%
X138404600Y-96316800D02*
X137381100Y-95293300D01*
X137381100Y-95293300D02*
X133269733Y-95293300D01*
X133269733Y-95293300D02*
X105537000Y-67560567D01*
X105537000Y-67560567D02*
X105537000Y-65532000D01*
%TO.N,Net-(J1-Pad47)*%
X137083448Y-92455648D02*
X132841648Y-92455648D01*
X132841648Y-92455648D02*
X108077000Y-67691000D01*
X108077000Y-67691000D02*
X108077000Y-65532000D01*
X138404600Y-93776800D02*
X137083448Y-92455648D01*
%TO.N,Net-(J1-Pad51)*%
X138404600Y-91236800D02*
X137381100Y-90213300D01*
X133269733Y-90213300D02*
X110617000Y-67560567D01*
X110617000Y-67560567D02*
X110617000Y-65532000D01*
X137381100Y-90213300D02*
X133269733Y-90213300D01*
%TO.N,Net-(J1-Pad55)*%
X133408300Y-87180300D02*
X133350000Y-87122000D01*
X136888100Y-87180300D02*
X133408300Y-87180300D01*
X138404600Y-88696800D02*
X136888100Y-87180300D01*
X113157000Y-67560567D02*
X113157000Y-65532000D01*
X133350000Y-87122000D02*
X132718433Y-87122000D01*
X132718433Y-87122000D02*
X113157000Y-67560567D01*
%TO.N,Net-(J1-Pad59)*%
X138404600Y-86156800D02*
X137381100Y-85133300D01*
X137381100Y-85133300D02*
X133269733Y-85133300D01*
X133269733Y-85133300D02*
X115697000Y-67560567D01*
X115697000Y-67560567D02*
X115697000Y-65532000D01*
%TO.N,Net-(J1-Pad63)*%
X118237000Y-67560567D02*
X118237000Y-65532000D01*
X132972433Y-82296000D02*
X118237000Y-67560567D01*
X137083800Y-82296000D02*
X132972433Y-82296000D01*
X138404600Y-83616800D02*
X137083800Y-82296000D01*
%TD*%
M02*
