M48
; DRILL file {KiCad 7.0.5-0} date 2024 May 08, Wednesday 17:08:14
; FORMAT={-:-/ absolute / inch / decimal}
; #@! TF.CreationDate,2024-05-08T17:08:14-04:00
; #@! TF.GenerationSoftware,Kicad,Pcbnew,7.0.5-0
; #@! TF.FileFunction,Plated,1,2,PTH
FMAT,2
INCH
; #@! TA.AperFunction,Plated,PTH,ViaDrill
T1C0.0157
; #@! TA.AperFunction,Plated,PTH,ComponentDrill
T2C0.0394
; #@! TA.AperFunction,Plated,PTH,ComponentDrill
T3C0.2520
; #@! TA.AperFunction,Plated,PTH,ComponentDrill
T4C0.4724
%
G90
G05
T1
X2.5Y-5.13
X2.58Y-3.0
X2.68Y-4.91
X2.76Y-3.07
X2.86Y-4.96
X2.8939Y-2.85
X4.68Y-5.12
X4.74Y-3.02
X4.85Y-4.92
X4.98Y-3.08
X5.0Y-4.97
X5.13Y-2.85
T2
X2.3982Y-2.4
X2.3982Y-2.5
X2.3982Y-2.6
X2.3982Y-2.7
X2.3982Y-2.8
X2.3982Y-2.9
X2.3982Y-3.0
X2.3982Y-3.1
X2.3982Y-3.2
X2.3982Y-3.3
X2.3982Y-4.58
X2.3982Y-4.68
X2.3982Y-4.78
X2.3982Y-4.88
X2.3982Y-4.98
X2.3982Y-5.08
X2.3982Y-5.18
X2.3982Y-5.28
X2.3982Y-5.38
X2.3982Y-5.48
X2.725Y-2.225
X2.725Y-5.65
X2.825Y-2.225
X2.825Y-5.65
X2.925Y-2.225
X2.925Y-5.65
X3.2982Y-2.4
X3.2982Y-2.5
X3.2982Y-2.6
X3.2982Y-2.7
X3.2982Y-2.8
X3.2982Y-2.9
X3.2982Y-3.0
X3.2982Y-3.1
X3.2982Y-3.2
X3.2982Y-3.3
X3.2982Y-4.58
X3.2982Y-4.68
X3.2982Y-4.78
X3.2982Y-4.88
X3.2982Y-4.98
X3.2982Y-5.08
X3.2982Y-5.18
X3.2982Y-5.28
X3.2982Y-5.38
X3.2982Y-5.48
X4.5782Y-2.4
X4.5782Y-2.5
X4.5782Y-2.6
X4.5782Y-2.7
X4.5782Y-2.8
X4.5782Y-2.9
X4.5782Y-3.0
X4.5782Y-3.1
X4.5782Y-3.2
X4.5782Y-3.3
X4.5782Y-4.58
X4.5782Y-4.68
X4.5782Y-4.78
X4.5782Y-4.88
X4.5782Y-4.98
X4.5782Y-5.08
X4.5782Y-5.18
X4.5782Y-5.28
X4.5782Y-5.38
X4.5782Y-5.48
X4.9482Y-2.2268
X4.9482Y-5.6518
X5.0482Y-2.2268
X5.0482Y-5.6518
X5.1482Y-2.2268
X5.1482Y-5.6518
X5.4782Y-2.4
X5.4782Y-2.5
X5.4782Y-2.6
X5.4782Y-2.7
X5.4782Y-2.8
X5.4782Y-2.9
X5.4782Y-3.0
X5.4782Y-3.1
X5.4782Y-3.2
X5.4782Y-3.3
X5.4782Y-4.58
X5.4782Y-4.68
X5.4782Y-4.78
X5.4782Y-4.88
X5.4782Y-4.98
X5.4782Y-5.08
X5.4782Y-5.18
X5.4782Y-5.28
X5.4782Y-5.38
X5.4782Y-5.48
T3
X2.4803Y-3.937
X3.937Y-2.4803
X3.937Y-5.3937
X5.3937Y-3.937
T4
X3.937Y-3.937
T0
M30
