%TF.GenerationSoftware,KiCad,Pcbnew,7.0.5-0*%
%TF.CreationDate,2024-05-08T17:08:20-04:00*%
%TF.ProjectId,quad_sipm,71756164-5f73-4697-906d-2e6b69636164,8.1*%
%TF.SameCoordinates,Original*%
%TF.FileFunction,Copper,L1,Top*%
%TF.FilePolarity,Positive*%
%FSLAX46Y46*%
G04 Gerber Fmt 4.6, Leading zero omitted, Abs format (unit mm)*
G04 Created by KiCad (PCBNEW 7.0.5-0) date 2024-05-08 17:08:20*
%MOMM*%
%LPD*%
G01*
G04 APERTURE LIST*
G04 Aperture macros list*
%AMFreePoly0*
4,1,5,0.508000,-1.498600,-0.508000,-1.498600,-0.508000,1.498600,0.508000,1.498600,0.508000,-1.498600,0.508000,-1.498600,$1*%
G04 Aperture macros list end*
%TA.AperFunction,ComponentPad*%
%ADD10C,16.800000*%
%TD*%
%TA.AperFunction,ComponentPad*%
%ADD11C,12.000000*%
%TD*%
%TA.AperFunction,ComponentPad*%
%ADD12R,1.700000X1.700000*%
%TD*%
%TA.AperFunction,ComponentPad*%
%ADD13O,1.700000X1.700000*%
%TD*%
%TA.AperFunction,SMDPad,CuDef*%
%ADD14R,1.625600X1.108800*%
%TD*%
%TA.AperFunction,SMDPad,CuDef*%
%ADD15R,1.727200X1.117600*%
%TD*%
%TA.AperFunction,SMDPad,CuDef*%
%ADD16R,5.207000X1.143000*%
%TD*%
%TA.AperFunction,SMDPad,CuDef*%
%ADD17FreePoly0,0.000000*%
%TD*%
%TA.AperFunction,ViaPad*%
%ADD18C,0.800000*%
%TD*%
%TA.AperFunction,Conductor*%
%ADD19C,0.635000*%
%TD*%
G04 APERTURE END LIST*
D10*
%TO.P,H2,1*%
%TO.N,N/C*%
X100000000Y-100000000D03*
%TD*%
D11*
%TO.P,H3,1*%
%TO.N,N/C*%
X100000000Y-137000000D03*
%TD*%
%TO.P,H4,1*%
%TO.N,N/C*%
X137000000Y-100000000D03*
%TD*%
%TO.P,H5,1*%
%TO.N,N/C*%
X63000000Y-100000000D03*
%TD*%
%TO.P,H1,1*%
%TO.N,N/C*%
X100000000Y-63000000D03*
%TD*%
D12*
%TO.P,J7,1,Pin_1*%
%TO.N,unconnected-(J7-Pin_1-Pad1)*%
X139146000Y-83820000D03*
D13*
%TO.P,J7,2,Pin_2*%
%TO.N,unconnected-(J7-Pin_2-Pad2)*%
X139146000Y-81280000D03*
%TO.P,J7,3,Pin_3*%
%TO.N,unconnected-(J7-Pin_3-Pad3)*%
X139146000Y-78740000D03*
%TO.P,J7,4,Pin_4*%
%TO.N,unconnected-(J7-Pin_4-Pad4)*%
X139146000Y-76200000D03*
%TO.P,J7,5,Pin_5*%
%TO.N,Net-(J3-Pin_3)*%
X139146000Y-73660000D03*
%TO.P,J7,6,Pin_6*%
%TO.N,unconnected-(J7-Pin_6-Pad6)*%
X139146000Y-71120000D03*
%TO.P,J7,7,Pin_7*%
%TO.N,unconnected-(J7-Pin_7-Pad7)*%
X139146000Y-68580000D03*
%TO.P,J7,8,Pin_8*%
%TO.N,unconnected-(J7-Pin_8-Pad8)*%
X139146000Y-66040000D03*
%TO.P,J7,9,Pin_9*%
%TO.N,unconnected-(J7-Pin_9-Pad9)*%
X139146000Y-63500000D03*
%TO.P,J7,10,Pin_10*%
%TO.N,unconnected-(J7-Pin_10-Pad10)*%
X139146000Y-60960000D03*
D12*
%TO.P,J7,11,Pin_1*%
%TO.N,unconnected-(J7-Pin_1-Pad11)*%
X116286000Y-83820000D03*
D13*
%TO.P,J7,12,Pin_2*%
%TO.N,unconnected-(J7-Pin_2-Pad12)*%
X116286000Y-81280000D03*
%TO.P,J7,13,Pin_3*%
%TO.N,unconnected-(J7-Pin_3-Pad13)*%
X116286000Y-78740000D03*
%TO.P,J7,14,Pin_4*%
%TO.N,unconnected-(J7-Pin_4-Pad14)*%
X116286000Y-76200000D03*
%TO.P,J7,15,Pin_5*%
%TO.N,Net-(J7-Pin_5-Pad15)*%
X116286000Y-73660000D03*
%TO.P,J7,16,Pin_6*%
%TO.N,unconnected-(J7-Pin_6-Pad16)*%
X116286000Y-71120000D03*
%TO.P,J7,17,Pin_7*%
%TO.N,Net-(J3-Pin_1)*%
X116286000Y-68580000D03*
%TO.P,J7,18,Pin_8*%
%TO.N,unconnected-(J7-Pin_8-Pad18)*%
X116286000Y-66040000D03*
%TO.P,J7,19,Pin_9*%
%TO.N,unconnected-(J7-Pin_9-Pad19)*%
X116286000Y-63500000D03*
%TO.P,J7,20,Pin_10*%
%TO.N,unconnected-(J7-Pin_10-Pad20)*%
X116286000Y-60960000D03*
%TD*%
D12*
%TO.P,J8,1,Pin_1*%
%TO.N,unconnected-(J8-Pin_1-Pad1)*%
X83774000Y-83820000D03*
D13*
%TO.P,J8,2,Pin_2*%
%TO.N,unconnected-(J8-Pin_2-Pad2)*%
X83774000Y-81280000D03*
%TO.P,J8,3,Pin_3*%
%TO.N,unconnected-(J8-Pin_3-Pad3)*%
X83774000Y-78740000D03*
%TO.P,J8,4,Pin_4*%
%TO.N,unconnected-(J8-Pin_4-Pad4)*%
X83774000Y-76200000D03*
%TO.P,J8,5,Pin_5*%
%TO.N,Net-(J4-Pin_3)*%
X83774000Y-73660000D03*
%TO.P,J8,6,Pin_6*%
%TO.N,unconnected-(J8-Pin_6-Pad6)*%
X83774000Y-71120000D03*
%TO.P,J8,7,Pin_7*%
%TO.N,unconnected-(J8-Pin_7-Pad7)*%
X83774000Y-68580000D03*
%TO.P,J8,8,Pin_8*%
%TO.N,unconnected-(J8-Pin_8-Pad8)*%
X83774000Y-66040000D03*
%TO.P,J8,9,Pin_9*%
%TO.N,unconnected-(J8-Pin_9-Pad9)*%
X83774000Y-63500000D03*
%TO.P,J8,10,Pin_10*%
%TO.N,unconnected-(J8-Pin_10-Pad10)*%
X83774000Y-60960000D03*
D12*
%TO.P,J8,11,Pin_1*%
%TO.N,unconnected-(J8-Pin_1-Pad11)*%
X60914000Y-83820000D03*
D13*
%TO.P,J8,12,Pin_2*%
%TO.N,unconnected-(J8-Pin_2-Pad12)*%
X60914000Y-81280000D03*
%TO.P,J8,13,Pin_3*%
%TO.N,unconnected-(J8-Pin_3-Pad13)*%
X60914000Y-78740000D03*
%TO.P,J8,14,Pin_4*%
%TO.N,unconnected-(J8-Pin_4-Pad14)*%
X60914000Y-76200000D03*
%TO.P,J8,15,Pin_5*%
%TO.N,Net-(J8-Pin_5-Pad15)*%
X60914000Y-73660000D03*
%TO.P,J8,16,Pin_6*%
%TO.N,unconnected-(J8-Pin_6-Pad16)*%
X60914000Y-71120000D03*
%TO.P,J8,17,Pin_7*%
%TO.N,Net-(J4-Pin_1)*%
X60914000Y-68580000D03*
%TO.P,J8,18,Pin_8*%
%TO.N,unconnected-(J8-Pin_8-Pad18)*%
X60914000Y-66040000D03*
%TO.P,J8,19,Pin_9*%
%TO.N,unconnected-(J8-Pin_9-Pad19)*%
X60914000Y-63500000D03*
%TO.P,J8,20,Pin_10*%
%TO.N,unconnected-(J8-Pin_10-Pad20)*%
X60914000Y-60960000D03*
%TD*%
D12*
%TO.P,J6,1,Pin_1*%
%TO.N,unconnected-(J6-Pin_1-Pad1)*%
X83774000Y-139192000D03*
D13*
%TO.P,J6,2,Pin_2*%
%TO.N,unconnected-(J6-Pin_2-Pad2)*%
X83774000Y-136652000D03*
%TO.P,J6,3,Pin_3*%
%TO.N,unconnected-(J6-Pin_3-Pad3)*%
X83774000Y-134112000D03*
%TO.P,J6,4,Pin_4*%
%TO.N,unconnected-(J6-Pin_4-Pad4)*%
X83774000Y-131572000D03*
%TO.P,J6,5,Pin_5*%
%TO.N,Net-(J2-Pin_3)*%
X83774000Y-129032000D03*
%TO.P,J6,6,Pin_6*%
%TO.N,unconnected-(J6-Pin_6-Pad6)*%
X83774000Y-126492000D03*
%TO.P,J6,7,Pin_7*%
%TO.N,unconnected-(J6-Pin_7-Pad7)*%
X83774000Y-123952000D03*
%TO.P,J6,8,Pin_8*%
%TO.N,unconnected-(J6-Pin_8-Pad8)*%
X83774000Y-121412000D03*
%TO.P,J6,9,Pin_9*%
%TO.N,unconnected-(J6-Pin_9-Pad9)*%
X83774000Y-118872000D03*
%TO.P,J6,10,Pin_10*%
%TO.N,unconnected-(J6-Pin_10-Pad10)*%
X83774000Y-116332000D03*
D12*
%TO.P,J6,11,Pin_1*%
%TO.N,unconnected-(J6-Pin_1-Pad11)*%
X60914000Y-139192000D03*
D13*
%TO.P,J6,12,Pin_2*%
%TO.N,unconnected-(J6-Pin_2-Pad12)*%
X60914000Y-136652000D03*
%TO.P,J6,13,Pin_3*%
%TO.N,unconnected-(J6-Pin_3-Pad13)*%
X60914000Y-134112000D03*
%TO.P,J6,14,Pin_4*%
%TO.N,unconnected-(J6-Pin_4-Pad14)*%
X60914000Y-131572000D03*
%TO.P,J6,15,Pin_5*%
%TO.N,Net-(J6-Pin_5-Pad15)*%
X60914000Y-129032000D03*
%TO.P,J6,16,Pin_6*%
%TO.N,unconnected-(J6-Pin_6-Pad16)*%
X60914000Y-126492000D03*
%TO.P,J6,17,Pin_7*%
%TO.N,Net-(J2-Pin_1)*%
X60914000Y-123952000D03*
%TO.P,J6,18,Pin_8*%
%TO.N,unconnected-(J6-Pin_8-Pad18)*%
X60914000Y-121412000D03*
%TO.P,J6,19,Pin_9*%
%TO.N,unconnected-(J6-Pin_9-Pad19)*%
X60914000Y-118872000D03*
%TO.P,J6,20,Pin_10*%
%TO.N,unconnected-(J6-Pin_10-Pad20)*%
X60914000Y-116332000D03*
%TD*%
D12*
%TO.P,J5,1,Pin_1*%
%TO.N,unconnected-(J5-Pin_1-Pad1)*%
X139146000Y-139192000D03*
D13*
%TO.P,J5,2,Pin_2*%
%TO.N,unconnected-(J5-Pin_2-Pad2)*%
X139146000Y-136652000D03*
%TO.P,J5,3,Pin_3*%
%TO.N,unconnected-(J5-Pin_3-Pad3)*%
X139146000Y-134112000D03*
%TO.P,J5,4,Pin_4*%
%TO.N,unconnected-(J5-Pin_4-Pad4)*%
X139146000Y-131572000D03*
%TO.P,J5,5,Pin_5*%
%TO.N,Net-(J1-Pin_3)*%
X139146000Y-129032000D03*
%TO.P,J5,6,Pin_6*%
%TO.N,unconnected-(J5-Pin_6-Pad6)*%
X139146000Y-126492000D03*
%TO.P,J5,7,Pin_7*%
%TO.N,unconnected-(J5-Pin_7-Pad7)*%
X139146000Y-123952000D03*
%TO.P,J5,8,Pin_8*%
%TO.N,unconnected-(J5-Pin_8-Pad8)*%
X139146000Y-121412000D03*
%TO.P,J5,9,Pin_9*%
%TO.N,unconnected-(J5-Pin_9-Pad9)*%
X139146000Y-118872000D03*
%TO.P,J5,10,Pin_10*%
%TO.N,unconnected-(J5-Pin_10-Pad10)*%
X139146000Y-116332000D03*
D12*
%TO.P,J5,11,Pin_1*%
%TO.N,unconnected-(J5-Pin_1-Pad11)*%
X116286000Y-139192000D03*
D13*
%TO.P,J5,12,Pin_2*%
%TO.N,unconnected-(J5-Pin_2-Pad12)*%
X116286000Y-136652000D03*
%TO.P,J5,13,Pin_3*%
%TO.N,unconnected-(J5-Pin_3-Pad13)*%
X116286000Y-134112000D03*
%TO.P,J5,14,Pin_4*%
%TO.N,unconnected-(J5-Pin_4-Pad14)*%
X116286000Y-131572000D03*
%TO.P,J5,15,Pin_5*%
%TO.N,Net-(J5-Pin_5-Pad15)*%
X116286000Y-129032000D03*
%TO.P,J5,16,Pin_6*%
%TO.N,unconnected-(J5-Pin_6-Pad16)*%
X116286000Y-126492000D03*
%TO.P,J5,17,Pin_7*%
%TO.N,Net-(J1-Pin_1)*%
X116286000Y-123952000D03*
%TO.P,J5,18,Pin_8*%
%TO.N,unconnected-(J5-Pin_8-Pad18)*%
X116286000Y-121412000D03*
%TO.P,J5,19,Pin_9*%
%TO.N,unconnected-(J5-Pin_9-Pad19)*%
X116286000Y-118872000D03*
%TO.P,J5,20,Pin_10*%
%TO.N,unconnected-(J5-Pin_10-Pad20)*%
X116286000Y-116332000D03*
%TD*%
D12*
%TO.P,J1,1,Pin_1*%
%TO.N,Net-(J1-Pin_1)*%
X125685000Y-143555000D03*
D13*
%TO.P,J1,2,Pin_2*%
%TO.N,Net-(J1-Pin_2)*%
X128225000Y-143555000D03*
%TO.P,J1,3,Pin_3*%
%TO.N,Net-(J1-Pin_3)*%
X130765000Y-143555000D03*
%TD*%
D12*
%TO.P,J3,1,Pin_1*%
%TO.N,Net-(J3-Pin_1)*%
X125685000Y-56560000D03*
D13*
%TO.P,J3,2,Pin_2*%
%TO.N,Net-(J3-Pin_2)*%
X128225000Y-56560000D03*
%TO.P,J3,3,Pin_3*%
%TO.N,Net-(J3-Pin_3)*%
X130765000Y-56560000D03*
%TD*%
D12*
%TO.P,J4,1,Pin_1*%
%TO.N,Net-(J4-Pin_1)*%
X69215000Y-56515000D03*
D13*
%TO.P,J4,2,Pin_2*%
%TO.N,Net-(J4-Pin_2)*%
X71755000Y-56515000D03*
%TO.P,J4,3,Pin_3*%
%TO.N,Net-(J4-Pin_3)*%
X74295000Y-56515000D03*
%TD*%
D12*
%TO.P,J2,1,Pin_1*%
%TO.N,Net-(J2-Pin_1)*%
X69215000Y-143510000D03*
D13*
%TO.P,J2,2,Pin_2*%
%TO.N,Net-(J2-Pin_2)*%
X71755000Y-143510000D03*
%TO.P,J2,3,Pin_3*%
%TO.N,Net-(J2-Pin_3)*%
X74295000Y-143510000D03*
%TD*%
D14*
%TO.P,U4,1*%
%TO.N,Net-(SW2-C)*%
X67818000Y-80513600D03*
D15*
%TO.P,U4,2*%
%TO.N,Net-(SW2-0)*%
X72390000Y-80518000D03*
D16*
%TO.P,U4,3,G*%
%TO.N,Net-(J4-Pin_1)*%
X70091300Y-82410300D03*
D17*
X70104000Y-81457800D03*
%TD*%
D14*
%TO.P,U1,1*%
%TO.N,Net-(SW1-C)*%
X65798700Y-121039300D03*
D15*
%TO.P,U1,2*%
%TO.N,Net-(SW1-0)*%
X70370700Y-121043700D03*
D16*
%TO.P,U1,3,G*%
%TO.N,Net-(J2-Pin_1)*%
X68072000Y-122936000D03*
D17*
X68084700Y-121983500D03*
%TD*%
D14*
%TO.P,U2,1*%
%TO.N,Net-(SW3-C)*%
X120904000Y-121412000D03*
D15*
%TO.P,U2,2*%
%TO.N,Net-(SW3-0)*%
X125476000Y-121416400D03*
D16*
%TO.P,U2,3,G*%
%TO.N,Net-(J1-Pin_1)*%
X123177300Y-123308700D03*
D17*
X123190000Y-122356200D03*
%TD*%
D14*
%TO.P,U3,1*%
%TO.N,Net-(SW4-C)*%
X124201200Y-80716800D03*
D15*
%TO.P,U3,2*%
%TO.N,Net-(SW4-0)*%
X128773200Y-80721200D03*
D16*
%TO.P,U3,3,G*%
%TO.N,Net-(J3-Pin_1)*%
X126474500Y-82613500D03*
D17*
X126487200Y-81661000D03*
%TD*%
D18*
%TO.N,Net-(J1-Pin_1)*%
X123190000Y-124968000D03*
%TO.N,Net-(SW3-C)*%
X118872000Y-130048000D03*
%TO.N,Net-(SW3-0)*%
X127000000Y-126238000D03*
%TO.N,Net-(J2-Pin_1)*%
X68072000Y-124714000D03*
%TO.N,Net-(SW1-C)*%
X63500000Y-130302000D03*
%TO.N,Net-(SW1-0)*%
X72644000Y-125984000D03*
%TO.N,Net-(J4-Pin_1)*%
X70104000Y-77978000D03*
%TO.N,Net-(SW2-C)*%
X65532000Y-76200000D03*
%TO.N,Net-(SW2-0)*%
X73505000Y-72390000D03*
%TO.N,Net-(J3-Pin_1)*%
X126492000Y-78232000D03*
%TO.N,Net-(SW4-0)*%
X130302000Y-72390000D03*
%TO.N,Net-(SW4-C)*%
X120396000Y-76708000D03*
%TD*%
D19*
%TO.N,Net-(SW4-0)*%
X130302000Y-72390000D02*
X130810000Y-72390000D01*
X130810000Y-72390000D02*
X132080000Y-73660000D01*
%TO.N,Net-(SW3-0)*%
X125476000Y-121416400D02*
X127000000Y-122940400D01*
%TO.N,Net-(J1-Pin_1)*%
X123177300Y-124955300D02*
X123190000Y-124968000D01*
X123177300Y-123308700D02*
X123177300Y-124955300D01*
%TO.N,Net-(SW3-C)*%
X118872000Y-123444000D02*
X118872000Y-130048000D01*
X120904000Y-121412000D02*
X118872000Y-123444000D01*
%TO.N,Net-(SW3-0)*%
X127000000Y-122940400D02*
X127000000Y-126238000D01*
%TO.N,Net-(J2-Pin_1)*%
X68072000Y-122936000D02*
X68072000Y-124714000D01*
%TO.N,Net-(SW1-C)*%
X63500000Y-123338000D02*
X63500000Y-130302000D01*
X65798700Y-121039300D02*
X63500000Y-123338000D01*
%TO.N,Net-(SW1-0)*%
X70370700Y-121043700D02*
X72644000Y-123317000D01*
X72644000Y-123317000D02*
X72644000Y-125984000D01*
%TO.N,Net-(J4-Pin_1)*%
X70104000Y-81457800D02*
X70104000Y-77978000D01*
%TO.N,Net-(SW2-C)*%
X67051600Y-80513600D02*
X65532000Y-78994000D01*
X67818000Y-80513600D02*
X67051600Y-80513600D01*
X65532000Y-78994000D02*
X65532000Y-76200000D01*
%TO.N,Net-(SW2-0)*%
X76200000Y-74930000D02*
X73660000Y-72390000D01*
X76200000Y-78486000D02*
X76200000Y-74930000D01*
X72390000Y-80518000D02*
X74168000Y-80518000D01*
X73660000Y-72390000D02*
X73505000Y-72390000D01*
X74168000Y-80518000D02*
X76200000Y-78486000D01*
%TO.N,Net-(J3-Pin_1)*%
X126487200Y-78236800D02*
X126492000Y-78232000D01*
X126487200Y-81661000D02*
X126487200Y-78236800D01*
%TO.N,Net-(SW4-0)*%
X132080000Y-73660000D02*
X132080000Y-79248000D01*
X132080000Y-79248000D02*
X130606800Y-80721200D01*
X130606800Y-80721200D02*
X128773200Y-80721200D01*
%TO.N,Net-(SW4-C)*%
X120396000Y-76708000D02*
X120396000Y-79502000D01*
X120396000Y-79502000D02*
X121610800Y-80716800D01*
X121610800Y-80716800D02*
X124201200Y-80716800D01*
%TD*%
M02*
