%TF.GenerationSoftware,KiCad,Pcbnew,7.0.5-0*%
%TF.CreationDate,2023-08-22T15:56:52-04:00*%
%TF.ProjectId,SiPM chip carrier,5369504d-2063-4686-9970-206361727269,rev?*%
%TF.SameCoordinates,Original*%
%TF.FileFunction,Legend,Top*%
%TF.FilePolarity,Positive*%
%FSLAX46Y46*%
G04 Gerber Fmt 4.6, Leading zero omitted, Abs format (unit mm)*
G04 Created by KiCad (PCBNEW 7.0.5-0) date 2023-08-22 15:56:52*
%MOMM*%
%LPD*%
G01*
G04 APERTURE LIST*
%ADD10C,0.150000*%
%ADD11C,0.100000*%
G04 APERTURE END LIST*
D10*
X44612112Y-57086009D02*
X44754969Y-57133628D01*
X44754969Y-57133628D02*
X44802588Y-57181247D01*
X44802588Y-57181247D02*
X44850207Y-57276485D01*
X44850207Y-57276485D02*
X44850207Y-57419342D01*
X44850207Y-57419342D02*
X44802588Y-57514580D01*
X44802588Y-57514580D02*
X44754969Y-57562200D01*
X44754969Y-57562200D02*
X44659731Y-57609819D01*
X44659731Y-57609819D02*
X44278779Y-57609819D01*
X44278779Y-57609819D02*
X44278779Y-56609819D01*
X44278779Y-56609819D02*
X44612112Y-56609819D01*
X44612112Y-56609819D02*
X44707350Y-56657438D01*
X44707350Y-56657438D02*
X44754969Y-56705057D01*
X44754969Y-56705057D02*
X44802588Y-56800295D01*
X44802588Y-56800295D02*
X44802588Y-56895533D01*
X44802588Y-56895533D02*
X44754969Y-56990771D01*
X44754969Y-56990771D02*
X44707350Y-57038390D01*
X44707350Y-57038390D02*
X44612112Y-57086009D01*
X44612112Y-57086009D02*
X44278779Y-57086009D01*
X45278779Y-56609819D02*
X45278779Y-57419342D01*
X45278779Y-57419342D02*
X45326398Y-57514580D01*
X45326398Y-57514580D02*
X45374017Y-57562200D01*
X45374017Y-57562200D02*
X45469255Y-57609819D01*
X45469255Y-57609819D02*
X45659731Y-57609819D01*
X45659731Y-57609819D02*
X45754969Y-57562200D01*
X45754969Y-57562200D02*
X45802588Y-57514580D01*
X45802588Y-57514580D02*
X45850207Y-57419342D01*
X45850207Y-57419342D02*
X45850207Y-56609819D01*
X47088303Y-57609819D02*
X47088303Y-56609819D01*
X47088303Y-56609819D02*
X47326398Y-56609819D01*
X47326398Y-56609819D02*
X47469255Y-56657438D01*
X47469255Y-56657438D02*
X47564493Y-56752676D01*
X47564493Y-56752676D02*
X47612112Y-56847914D01*
X47612112Y-56847914D02*
X47659731Y-57038390D01*
X47659731Y-57038390D02*
X47659731Y-57181247D01*
X47659731Y-57181247D02*
X47612112Y-57371723D01*
X47612112Y-57371723D02*
X47564493Y-57466961D01*
X47564493Y-57466961D02*
X47469255Y-57562200D01*
X47469255Y-57562200D02*
X47326398Y-57609819D01*
X47326398Y-57609819D02*
X47088303Y-57609819D01*
X48516874Y-57609819D02*
X48516874Y-57086009D01*
X48516874Y-57086009D02*
X48469255Y-56990771D01*
X48469255Y-56990771D02*
X48374017Y-56943152D01*
X48374017Y-56943152D02*
X48183541Y-56943152D01*
X48183541Y-56943152D02*
X48088303Y-56990771D01*
X48516874Y-57562200D02*
X48421636Y-57609819D01*
X48421636Y-57609819D02*
X48183541Y-57609819D01*
X48183541Y-57609819D02*
X48088303Y-57562200D01*
X48088303Y-57562200D02*
X48040684Y-57466961D01*
X48040684Y-57466961D02*
X48040684Y-57371723D01*
X48040684Y-57371723D02*
X48088303Y-57276485D01*
X48088303Y-57276485D02*
X48183541Y-57228866D01*
X48183541Y-57228866D02*
X48421636Y-57228866D01*
X48421636Y-57228866D02*
X48516874Y-57181247D01*
X48993065Y-57609819D02*
X48993065Y-56943152D01*
X48993065Y-57133628D02*
X49040684Y-57038390D01*
X49040684Y-57038390D02*
X49088303Y-56990771D01*
X49088303Y-56990771D02*
X49183541Y-56943152D01*
X49183541Y-56943152D02*
X49278779Y-56943152D01*
X49612113Y-57609819D02*
X49612113Y-56609819D01*
X49707351Y-57228866D02*
X49993065Y-57609819D01*
X49993065Y-56943152D02*
X49612113Y-57324104D01*
X51088303Y-57705057D02*
X50993065Y-57657438D01*
X50993065Y-57657438D02*
X50897827Y-57562200D01*
X50897827Y-57562200D02*
X50754970Y-57419342D01*
X50754970Y-57419342D02*
X50659732Y-57371723D01*
X50659732Y-57371723D02*
X50564494Y-57371723D01*
X50612113Y-57609819D02*
X50516875Y-57562200D01*
X50516875Y-57562200D02*
X50421637Y-57466961D01*
X50421637Y-57466961D02*
X50374018Y-57276485D01*
X50374018Y-57276485D02*
X50374018Y-56943152D01*
X50374018Y-56943152D02*
X50421637Y-56752676D01*
X50421637Y-56752676D02*
X50516875Y-56657438D01*
X50516875Y-56657438D02*
X50612113Y-56609819D01*
X50612113Y-56609819D02*
X50802589Y-56609819D01*
X50802589Y-56609819D02*
X50897827Y-56657438D01*
X50897827Y-56657438D02*
X50993065Y-56752676D01*
X50993065Y-56752676D02*
X51040684Y-56943152D01*
X51040684Y-56943152D02*
X51040684Y-57276485D01*
X51040684Y-57276485D02*
X50993065Y-57466961D01*
X50993065Y-57466961D02*
X50897827Y-57562200D01*
X50897827Y-57562200D02*
X50802589Y-57609819D01*
X50802589Y-57609819D02*
X50612113Y-57609819D01*
X51897827Y-56943152D02*
X51897827Y-57609819D01*
X51469256Y-56943152D02*
X51469256Y-57466961D01*
X51469256Y-57466961D02*
X51516875Y-57562200D01*
X51516875Y-57562200D02*
X51612113Y-57609819D01*
X51612113Y-57609819D02*
X51754970Y-57609819D01*
X51754970Y-57609819D02*
X51850208Y-57562200D01*
X51850208Y-57562200D02*
X51897827Y-57514580D01*
X52754970Y-57562200D02*
X52659732Y-57609819D01*
X52659732Y-57609819D02*
X52469256Y-57609819D01*
X52469256Y-57609819D02*
X52374018Y-57562200D01*
X52374018Y-57562200D02*
X52326399Y-57466961D01*
X52326399Y-57466961D02*
X52326399Y-57086009D01*
X52326399Y-57086009D02*
X52374018Y-56990771D01*
X52374018Y-56990771D02*
X52469256Y-56943152D01*
X52469256Y-56943152D02*
X52659732Y-56943152D01*
X52659732Y-56943152D02*
X52754970Y-56990771D01*
X52754970Y-56990771D02*
X52802589Y-57086009D01*
X52802589Y-57086009D02*
X52802589Y-57181247D01*
X52802589Y-57181247D02*
X52326399Y-57276485D01*
X53183542Y-57562200D02*
X53278780Y-57609819D01*
X53278780Y-57609819D02*
X53469256Y-57609819D01*
X53469256Y-57609819D02*
X53564494Y-57562200D01*
X53564494Y-57562200D02*
X53612113Y-57466961D01*
X53612113Y-57466961D02*
X53612113Y-57419342D01*
X53612113Y-57419342D02*
X53564494Y-57324104D01*
X53564494Y-57324104D02*
X53469256Y-57276485D01*
X53469256Y-57276485D02*
X53326399Y-57276485D01*
X53326399Y-57276485D02*
X53231161Y-57228866D01*
X53231161Y-57228866D02*
X53183542Y-57133628D01*
X53183542Y-57133628D02*
X53183542Y-57086009D01*
X53183542Y-57086009D02*
X53231161Y-56990771D01*
X53231161Y-56990771D02*
X53326399Y-56943152D01*
X53326399Y-56943152D02*
X53469256Y-56943152D01*
X53469256Y-56943152D02*
X53564494Y-56990771D01*
X53897828Y-56943152D02*
X54278780Y-56943152D01*
X54040685Y-56609819D02*
X54040685Y-57466961D01*
X54040685Y-57466961D02*
X54088304Y-57562200D01*
X54088304Y-57562200D02*
X54183542Y-57609819D01*
X54183542Y-57609819D02*
X54278780Y-57609819D01*
X44231160Y-59172200D02*
X44374017Y-59219819D01*
X44374017Y-59219819D02*
X44612112Y-59219819D01*
X44612112Y-59219819D02*
X44707350Y-59172200D01*
X44707350Y-59172200D02*
X44754969Y-59124580D01*
X44754969Y-59124580D02*
X44802588Y-59029342D01*
X44802588Y-59029342D02*
X44802588Y-58934104D01*
X44802588Y-58934104D02*
X44754969Y-58838866D01*
X44754969Y-58838866D02*
X44707350Y-58791247D01*
X44707350Y-58791247D02*
X44612112Y-58743628D01*
X44612112Y-58743628D02*
X44421636Y-58696009D01*
X44421636Y-58696009D02*
X44326398Y-58648390D01*
X44326398Y-58648390D02*
X44278779Y-58600771D01*
X44278779Y-58600771D02*
X44231160Y-58505533D01*
X44231160Y-58505533D02*
X44231160Y-58410295D01*
X44231160Y-58410295D02*
X44278779Y-58315057D01*
X44278779Y-58315057D02*
X44326398Y-58267438D01*
X44326398Y-58267438D02*
X44421636Y-58219819D01*
X44421636Y-58219819D02*
X44659731Y-58219819D01*
X44659731Y-58219819D02*
X44802588Y-58267438D01*
X45231160Y-59219819D02*
X45231160Y-58553152D01*
X45231160Y-58219819D02*
X45183541Y-58267438D01*
X45183541Y-58267438D02*
X45231160Y-58315057D01*
X45231160Y-58315057D02*
X45278779Y-58267438D01*
X45278779Y-58267438D02*
X45231160Y-58219819D01*
X45231160Y-58219819D02*
X45231160Y-58315057D01*
X45707350Y-59219819D02*
X45707350Y-58219819D01*
X45707350Y-58219819D02*
X46088302Y-58219819D01*
X46088302Y-58219819D02*
X46183540Y-58267438D01*
X46183540Y-58267438D02*
X46231159Y-58315057D01*
X46231159Y-58315057D02*
X46278778Y-58410295D01*
X46278778Y-58410295D02*
X46278778Y-58553152D01*
X46278778Y-58553152D02*
X46231159Y-58648390D01*
X46231159Y-58648390D02*
X46183540Y-58696009D01*
X46183540Y-58696009D02*
X46088302Y-58743628D01*
X46088302Y-58743628D02*
X45707350Y-58743628D01*
X46707350Y-59219819D02*
X46707350Y-58219819D01*
X46707350Y-58219819D02*
X47040683Y-58934104D01*
X47040683Y-58934104D02*
X47374016Y-58219819D01*
X47374016Y-58219819D02*
X47374016Y-59219819D01*
X49183540Y-59124580D02*
X49135921Y-59172200D01*
X49135921Y-59172200D02*
X48993064Y-59219819D01*
X48993064Y-59219819D02*
X48897826Y-59219819D01*
X48897826Y-59219819D02*
X48754969Y-59172200D01*
X48754969Y-59172200D02*
X48659731Y-59076961D01*
X48659731Y-59076961D02*
X48612112Y-58981723D01*
X48612112Y-58981723D02*
X48564493Y-58791247D01*
X48564493Y-58791247D02*
X48564493Y-58648390D01*
X48564493Y-58648390D02*
X48612112Y-58457914D01*
X48612112Y-58457914D02*
X48659731Y-58362676D01*
X48659731Y-58362676D02*
X48754969Y-58267438D01*
X48754969Y-58267438D02*
X48897826Y-58219819D01*
X48897826Y-58219819D02*
X48993064Y-58219819D01*
X48993064Y-58219819D02*
X49135921Y-58267438D01*
X49135921Y-58267438D02*
X49183540Y-58315057D01*
X49612112Y-59219819D02*
X49612112Y-58219819D01*
X50040683Y-59219819D02*
X50040683Y-58696009D01*
X50040683Y-58696009D02*
X49993064Y-58600771D01*
X49993064Y-58600771D02*
X49897826Y-58553152D01*
X49897826Y-58553152D02*
X49754969Y-58553152D01*
X49754969Y-58553152D02*
X49659731Y-58600771D01*
X49659731Y-58600771D02*
X49612112Y-58648390D01*
X50516874Y-59219819D02*
X50516874Y-58553152D01*
X50516874Y-58219819D02*
X50469255Y-58267438D01*
X50469255Y-58267438D02*
X50516874Y-58315057D01*
X50516874Y-58315057D02*
X50564493Y-58267438D01*
X50564493Y-58267438D02*
X50516874Y-58219819D01*
X50516874Y-58219819D02*
X50516874Y-58315057D01*
X50993064Y-58553152D02*
X50993064Y-59553152D01*
X50993064Y-58600771D02*
X51088302Y-58553152D01*
X51088302Y-58553152D02*
X51278778Y-58553152D01*
X51278778Y-58553152D02*
X51374016Y-58600771D01*
X51374016Y-58600771D02*
X51421635Y-58648390D01*
X51421635Y-58648390D02*
X51469254Y-58743628D01*
X51469254Y-58743628D02*
X51469254Y-59029342D01*
X51469254Y-59029342D02*
X51421635Y-59124580D01*
X51421635Y-59124580D02*
X51374016Y-59172200D01*
X51374016Y-59172200D02*
X51278778Y-59219819D01*
X51278778Y-59219819D02*
X51088302Y-59219819D01*
X51088302Y-59219819D02*
X50993064Y-59172200D01*
X53231159Y-59124580D02*
X53183540Y-59172200D01*
X53183540Y-59172200D02*
X53040683Y-59219819D01*
X53040683Y-59219819D02*
X52945445Y-59219819D01*
X52945445Y-59219819D02*
X52802588Y-59172200D01*
X52802588Y-59172200D02*
X52707350Y-59076961D01*
X52707350Y-59076961D02*
X52659731Y-58981723D01*
X52659731Y-58981723D02*
X52612112Y-58791247D01*
X52612112Y-58791247D02*
X52612112Y-58648390D01*
X52612112Y-58648390D02*
X52659731Y-58457914D01*
X52659731Y-58457914D02*
X52707350Y-58362676D01*
X52707350Y-58362676D02*
X52802588Y-58267438D01*
X52802588Y-58267438D02*
X52945445Y-58219819D01*
X52945445Y-58219819D02*
X53040683Y-58219819D01*
X53040683Y-58219819D02*
X53183540Y-58267438D01*
X53183540Y-58267438D02*
X53231159Y-58315057D01*
X54088302Y-59219819D02*
X54088302Y-58696009D01*
X54088302Y-58696009D02*
X54040683Y-58600771D01*
X54040683Y-58600771D02*
X53945445Y-58553152D01*
X53945445Y-58553152D02*
X53754969Y-58553152D01*
X53754969Y-58553152D02*
X53659731Y-58600771D01*
X54088302Y-59172200D02*
X53993064Y-59219819D01*
X53993064Y-59219819D02*
X53754969Y-59219819D01*
X53754969Y-59219819D02*
X53659731Y-59172200D01*
X53659731Y-59172200D02*
X53612112Y-59076961D01*
X53612112Y-59076961D02*
X53612112Y-58981723D01*
X53612112Y-58981723D02*
X53659731Y-58886485D01*
X53659731Y-58886485D02*
X53754969Y-58838866D01*
X53754969Y-58838866D02*
X53993064Y-58838866D01*
X53993064Y-58838866D02*
X54088302Y-58791247D01*
X54564493Y-59219819D02*
X54564493Y-58553152D01*
X54564493Y-58743628D02*
X54612112Y-58648390D01*
X54612112Y-58648390D02*
X54659731Y-58600771D01*
X54659731Y-58600771D02*
X54754969Y-58553152D01*
X54754969Y-58553152D02*
X54850207Y-58553152D01*
X55183541Y-59219819D02*
X55183541Y-58553152D01*
X55183541Y-58743628D02*
X55231160Y-58648390D01*
X55231160Y-58648390D02*
X55278779Y-58600771D01*
X55278779Y-58600771D02*
X55374017Y-58553152D01*
X55374017Y-58553152D02*
X55469255Y-58553152D01*
X55802589Y-59219819D02*
X55802589Y-58553152D01*
X55802589Y-58219819D02*
X55754970Y-58267438D01*
X55754970Y-58267438D02*
X55802589Y-58315057D01*
X55802589Y-58315057D02*
X55850208Y-58267438D01*
X55850208Y-58267438D02*
X55802589Y-58219819D01*
X55802589Y-58219819D02*
X55802589Y-58315057D01*
X56659731Y-59172200D02*
X56564493Y-59219819D01*
X56564493Y-59219819D02*
X56374017Y-59219819D01*
X56374017Y-59219819D02*
X56278779Y-59172200D01*
X56278779Y-59172200D02*
X56231160Y-59076961D01*
X56231160Y-59076961D02*
X56231160Y-58696009D01*
X56231160Y-58696009D02*
X56278779Y-58600771D01*
X56278779Y-58600771D02*
X56374017Y-58553152D01*
X56374017Y-58553152D02*
X56564493Y-58553152D01*
X56564493Y-58553152D02*
X56659731Y-58600771D01*
X56659731Y-58600771D02*
X56707350Y-58696009D01*
X56707350Y-58696009D02*
X56707350Y-58791247D01*
X56707350Y-58791247D02*
X56231160Y-58886485D01*
X57135922Y-59219819D02*
X57135922Y-58553152D01*
X57135922Y-58743628D02*
X57183541Y-58648390D01*
X57183541Y-58648390D02*
X57231160Y-58600771D01*
X57231160Y-58600771D02*
X57326398Y-58553152D01*
X57326398Y-58553152D02*
X57421636Y-58553152D01*
X44850207Y-60829819D02*
X44516874Y-60353628D01*
X44278779Y-60829819D02*
X44278779Y-59829819D01*
X44278779Y-59829819D02*
X44659731Y-59829819D01*
X44659731Y-59829819D02*
X44754969Y-59877438D01*
X44754969Y-59877438D02*
X44802588Y-59925057D01*
X44802588Y-59925057D02*
X44850207Y-60020295D01*
X44850207Y-60020295D02*
X44850207Y-60163152D01*
X44850207Y-60163152D02*
X44802588Y-60258390D01*
X44802588Y-60258390D02*
X44754969Y-60306009D01*
X44754969Y-60306009D02*
X44659731Y-60353628D01*
X44659731Y-60353628D02*
X44278779Y-60353628D01*
X45659731Y-60782200D02*
X45564493Y-60829819D01*
X45564493Y-60829819D02*
X45374017Y-60829819D01*
X45374017Y-60829819D02*
X45278779Y-60782200D01*
X45278779Y-60782200D02*
X45231160Y-60686961D01*
X45231160Y-60686961D02*
X45231160Y-60306009D01*
X45231160Y-60306009D02*
X45278779Y-60210771D01*
X45278779Y-60210771D02*
X45374017Y-60163152D01*
X45374017Y-60163152D02*
X45564493Y-60163152D01*
X45564493Y-60163152D02*
X45659731Y-60210771D01*
X45659731Y-60210771D02*
X45707350Y-60306009D01*
X45707350Y-60306009D02*
X45707350Y-60401247D01*
X45707350Y-60401247D02*
X45231160Y-60496485D01*
X46040684Y-60163152D02*
X46278779Y-60829819D01*
X46278779Y-60829819D02*
X46516874Y-60163152D01*
X48183541Y-60829819D02*
X47612113Y-60829819D01*
X47897827Y-60829819D02*
X47897827Y-59829819D01*
X47897827Y-59829819D02*
X47802589Y-59972676D01*
X47802589Y-59972676D02*
X47707351Y-60067914D01*
X47707351Y-60067914D02*
X47612113Y-60115533D01*
X48612113Y-60734580D02*
X48659732Y-60782200D01*
X48659732Y-60782200D02*
X48612113Y-60829819D01*
X48612113Y-60829819D02*
X48564494Y-60782200D01*
X48564494Y-60782200D02*
X48612113Y-60734580D01*
X48612113Y-60734580D02*
X48612113Y-60829819D01*
X49278779Y-59829819D02*
X49374017Y-59829819D01*
X49374017Y-59829819D02*
X49469255Y-59877438D01*
X49469255Y-59877438D02*
X49516874Y-59925057D01*
X49516874Y-59925057D02*
X49564493Y-60020295D01*
X49564493Y-60020295D02*
X49612112Y-60210771D01*
X49612112Y-60210771D02*
X49612112Y-60448866D01*
X49612112Y-60448866D02*
X49564493Y-60639342D01*
X49564493Y-60639342D02*
X49516874Y-60734580D01*
X49516874Y-60734580D02*
X49469255Y-60782200D01*
X49469255Y-60782200D02*
X49374017Y-60829819D01*
X49374017Y-60829819D02*
X49278779Y-60829819D01*
X49278779Y-60829819D02*
X49183541Y-60782200D01*
X49183541Y-60782200D02*
X49135922Y-60734580D01*
X49135922Y-60734580D02*
X49088303Y-60639342D01*
X49088303Y-60639342D02*
X49040684Y-60448866D01*
X49040684Y-60448866D02*
X49040684Y-60210771D01*
X49040684Y-60210771D02*
X49088303Y-60020295D01*
X49088303Y-60020295D02*
X49135922Y-59925057D01*
X49135922Y-59925057D02*
X49183541Y-59877438D01*
X49183541Y-59877438D02*
X49278779Y-59829819D01*
X50754970Y-59925057D02*
X50802589Y-59877438D01*
X50802589Y-59877438D02*
X50897827Y-59829819D01*
X50897827Y-59829819D02*
X51135922Y-59829819D01*
X51135922Y-59829819D02*
X51231160Y-59877438D01*
X51231160Y-59877438D02*
X51278779Y-59925057D01*
X51278779Y-59925057D02*
X51326398Y-60020295D01*
X51326398Y-60020295D02*
X51326398Y-60115533D01*
X51326398Y-60115533D02*
X51278779Y-60258390D01*
X51278779Y-60258390D02*
X50707351Y-60829819D01*
X50707351Y-60829819D02*
X51326398Y-60829819D01*
X51945446Y-59829819D02*
X52040684Y-59829819D01*
X52040684Y-59829819D02*
X52135922Y-59877438D01*
X52135922Y-59877438D02*
X52183541Y-59925057D01*
X52183541Y-59925057D02*
X52231160Y-60020295D01*
X52231160Y-60020295D02*
X52278779Y-60210771D01*
X52278779Y-60210771D02*
X52278779Y-60448866D01*
X52278779Y-60448866D02*
X52231160Y-60639342D01*
X52231160Y-60639342D02*
X52183541Y-60734580D01*
X52183541Y-60734580D02*
X52135922Y-60782200D01*
X52135922Y-60782200D02*
X52040684Y-60829819D01*
X52040684Y-60829819D02*
X51945446Y-60829819D01*
X51945446Y-60829819D02*
X51850208Y-60782200D01*
X51850208Y-60782200D02*
X51802589Y-60734580D01*
X51802589Y-60734580D02*
X51754970Y-60639342D01*
X51754970Y-60639342D02*
X51707351Y-60448866D01*
X51707351Y-60448866D02*
X51707351Y-60210771D01*
X51707351Y-60210771D02*
X51754970Y-60020295D01*
X51754970Y-60020295D02*
X51802589Y-59925057D01*
X51802589Y-59925057D02*
X51850208Y-59877438D01*
X51850208Y-59877438D02*
X51945446Y-59829819D01*
X52659732Y-59925057D02*
X52707351Y-59877438D01*
X52707351Y-59877438D02*
X52802589Y-59829819D01*
X52802589Y-59829819D02*
X53040684Y-59829819D01*
X53040684Y-59829819D02*
X53135922Y-59877438D01*
X53135922Y-59877438D02*
X53183541Y-59925057D01*
X53183541Y-59925057D02*
X53231160Y-60020295D01*
X53231160Y-60020295D02*
X53231160Y-60115533D01*
X53231160Y-60115533D02*
X53183541Y-60258390D01*
X53183541Y-60258390D02*
X52612113Y-60829819D01*
X52612113Y-60829819D02*
X53231160Y-60829819D01*
X53564494Y-59829819D02*
X54183541Y-59829819D01*
X54183541Y-59829819D02*
X53850208Y-60210771D01*
X53850208Y-60210771D02*
X53993065Y-60210771D01*
X53993065Y-60210771D02*
X54088303Y-60258390D01*
X54088303Y-60258390D02*
X54135922Y-60306009D01*
X54135922Y-60306009D02*
X54183541Y-60401247D01*
X54183541Y-60401247D02*
X54183541Y-60639342D01*
X54183541Y-60639342D02*
X54135922Y-60734580D01*
X54135922Y-60734580D02*
X54088303Y-60782200D01*
X54088303Y-60782200D02*
X53993065Y-60829819D01*
X53993065Y-60829819D02*
X53707351Y-60829819D01*
X53707351Y-60829819D02*
X53612113Y-60782200D01*
X53612113Y-60782200D02*
X53564494Y-60734580D01*
X54612113Y-60448866D02*
X55374018Y-60448866D01*
X56040684Y-59829819D02*
X56135922Y-59829819D01*
X56135922Y-59829819D02*
X56231160Y-59877438D01*
X56231160Y-59877438D02*
X56278779Y-59925057D01*
X56278779Y-59925057D02*
X56326398Y-60020295D01*
X56326398Y-60020295D02*
X56374017Y-60210771D01*
X56374017Y-60210771D02*
X56374017Y-60448866D01*
X56374017Y-60448866D02*
X56326398Y-60639342D01*
X56326398Y-60639342D02*
X56278779Y-60734580D01*
X56278779Y-60734580D02*
X56231160Y-60782200D01*
X56231160Y-60782200D02*
X56135922Y-60829819D01*
X56135922Y-60829819D02*
X56040684Y-60829819D01*
X56040684Y-60829819D02*
X55945446Y-60782200D01*
X55945446Y-60782200D02*
X55897827Y-60734580D01*
X55897827Y-60734580D02*
X55850208Y-60639342D01*
X55850208Y-60639342D02*
X55802589Y-60448866D01*
X55802589Y-60448866D02*
X55802589Y-60210771D01*
X55802589Y-60210771D02*
X55850208Y-60020295D01*
X55850208Y-60020295D02*
X55897827Y-59925057D01*
X55897827Y-59925057D02*
X55945446Y-59877438D01*
X55945446Y-59877438D02*
X56040684Y-59829819D01*
X56945446Y-60258390D02*
X56850208Y-60210771D01*
X56850208Y-60210771D02*
X56802589Y-60163152D01*
X56802589Y-60163152D02*
X56754970Y-60067914D01*
X56754970Y-60067914D02*
X56754970Y-60020295D01*
X56754970Y-60020295D02*
X56802589Y-59925057D01*
X56802589Y-59925057D02*
X56850208Y-59877438D01*
X56850208Y-59877438D02*
X56945446Y-59829819D01*
X56945446Y-59829819D02*
X57135922Y-59829819D01*
X57135922Y-59829819D02*
X57231160Y-59877438D01*
X57231160Y-59877438D02*
X57278779Y-59925057D01*
X57278779Y-59925057D02*
X57326398Y-60020295D01*
X57326398Y-60020295D02*
X57326398Y-60067914D01*
X57326398Y-60067914D02*
X57278779Y-60163152D01*
X57278779Y-60163152D02*
X57231160Y-60210771D01*
X57231160Y-60210771D02*
X57135922Y-60258390D01*
X57135922Y-60258390D02*
X56945446Y-60258390D01*
X56945446Y-60258390D02*
X56850208Y-60306009D01*
X56850208Y-60306009D02*
X56802589Y-60353628D01*
X56802589Y-60353628D02*
X56754970Y-60448866D01*
X56754970Y-60448866D02*
X56754970Y-60639342D01*
X56754970Y-60639342D02*
X56802589Y-60734580D01*
X56802589Y-60734580D02*
X56850208Y-60782200D01*
X56850208Y-60782200D02*
X56945446Y-60829819D01*
X56945446Y-60829819D02*
X57135922Y-60829819D01*
X57135922Y-60829819D02*
X57231160Y-60782200D01*
X57231160Y-60782200D02*
X57278779Y-60734580D01*
X57278779Y-60734580D02*
X57326398Y-60639342D01*
X57326398Y-60639342D02*
X57326398Y-60448866D01*
X57326398Y-60448866D02*
X57278779Y-60353628D01*
X57278779Y-60353628D02*
X57231160Y-60306009D01*
X57231160Y-60306009D02*
X57135922Y-60258390D01*
X51588001Y-49038000D02*
G75*
G03*
X51588001Y-49038000I-1J0D01*
G01*
D11*
%TO.C,D1*%
X55495419Y-50776094D02*
X54495419Y-50776094D01*
X54495419Y-50776094D02*
X54495419Y-50537999D01*
X54495419Y-50537999D02*
X54543038Y-50395142D01*
X54543038Y-50395142D02*
X54638276Y-50299904D01*
X54638276Y-50299904D02*
X54733514Y-50252285D01*
X54733514Y-50252285D02*
X54923990Y-50204666D01*
X54923990Y-50204666D02*
X55066847Y-50204666D01*
X55066847Y-50204666D02*
X55257323Y-50252285D01*
X55257323Y-50252285D02*
X55352561Y-50299904D01*
X55352561Y-50299904D02*
X55447800Y-50395142D01*
X55447800Y-50395142D02*
X55495419Y-50537999D01*
X55495419Y-50537999D02*
X55495419Y-50776094D01*
X55495419Y-49252285D02*
X55495419Y-49823713D01*
X55495419Y-49537999D02*
X54495419Y-49537999D01*
X54495419Y-49537999D02*
X54638276Y-49633237D01*
X54638276Y-49633237D02*
X54733514Y-49728475D01*
X54733514Y-49728475D02*
X54781133Y-49823713D01*
X46538000Y-53738000D02*
X53538000Y-53738000D01*
X53538000Y-53738000D02*
X53538000Y-46338000D01*
X49738000Y-48238000D02*
X49738000Y-47338000D01*
X46538000Y-46338000D02*
X46538000Y-53738000D01*
X53538000Y-46338000D02*
X46538000Y-46338000D01*
X51588000Y-49038000D02*
G75*
G03*
X51588000Y-49038000I0J0D01*
G01*
X50338000Y-48188000D02*
X49738000Y-47788000D01*
X50338000Y-47388000D01*
X50338000Y-48188000D01*
G36*
X50338000Y-48188000D02*
G01*
X49738000Y-47788000D01*
X50338000Y-47388000D01*
X50338000Y-48188000D01*
G37*
%TD*%
M02*
