M48
; DRILL file {KiCad 7.0.5-0} date 2023 August 22, Tuesday 15:56:47
; FORMAT={-:-/ absolute / inch / decimal}
; #@! TF.CreationDate,2023-08-22T15:56:47-04:00
; #@! TF.GenerationSoftware,Kicad,Pcbnew,7.0.5-0
; #@! TF.FileFunction,Plated,1,2,PTH
FMAT,2
INCH
; #@! TA.AperFunction,Plated,PTH,ComponentDrill
T1C0.0394
%
G90
G05
T1
X1.52Y-1.52
X1.52Y-1.62
X1.52Y-1.72
X1.52Y-1.82
X1.52Y-1.92
X1.52Y-2.02
X1.52Y-2.12
X1.52Y-2.22
X1.52Y-2.32
X1.52Y-2.42
X2.42Y-1.52
X2.42Y-1.62
X2.42Y-1.72
X2.42Y-1.82
X2.42Y-1.92
X2.42Y-2.02
X2.42Y-2.12
X2.42Y-2.22
X2.42Y-2.32
X2.42Y-2.42
T0
M30
