%TF.GenerationSoftware,KiCad,Pcbnew,7.0.5-0*%
%TF.CreationDate,2024-01-09T15:12:01-05:00*%
%TF.ProjectId,SiPM chip carrier,5369504d-2063-4686-9970-206361727269,2.0*%
%TF.SameCoordinates,Original*%
%TF.FileFunction,Other,ECO1*%
%FSLAX46Y46*%
G04 Gerber Fmt 4.6, Leading zero omitted, Abs format (unit mm)*
G04 Created by KiCad (PCBNEW 7.0.5-0) date 2024-01-09 15:12:01*
%MOMM*%
%LPD*%
G01*
G04 APERTURE LIST*
%ADD10C,0.150000*%
G04 APERTURE END LIST*
D10*
X72044112Y-32108009D02*
X72186969Y-32155628D01*
X72186969Y-32155628D02*
X72234588Y-32203247D01*
X72234588Y-32203247D02*
X72282207Y-32298485D01*
X72282207Y-32298485D02*
X72282207Y-32441342D01*
X72282207Y-32441342D02*
X72234588Y-32536580D01*
X72234588Y-32536580D02*
X72186969Y-32584200D01*
X72186969Y-32584200D02*
X72091731Y-32631819D01*
X72091731Y-32631819D02*
X71710779Y-32631819D01*
X71710779Y-32631819D02*
X71710779Y-31631819D01*
X71710779Y-31631819D02*
X72044112Y-31631819D01*
X72044112Y-31631819D02*
X72139350Y-31679438D01*
X72139350Y-31679438D02*
X72186969Y-31727057D01*
X72186969Y-31727057D02*
X72234588Y-31822295D01*
X72234588Y-31822295D02*
X72234588Y-31917533D01*
X72234588Y-31917533D02*
X72186969Y-32012771D01*
X72186969Y-32012771D02*
X72139350Y-32060390D01*
X72139350Y-32060390D02*
X72044112Y-32108009D01*
X72044112Y-32108009D02*
X71710779Y-32108009D01*
X72710779Y-31631819D02*
X72710779Y-32441342D01*
X72710779Y-32441342D02*
X72758398Y-32536580D01*
X72758398Y-32536580D02*
X72806017Y-32584200D01*
X72806017Y-32584200D02*
X72901255Y-32631819D01*
X72901255Y-32631819D02*
X73091731Y-32631819D01*
X73091731Y-32631819D02*
X73186969Y-32584200D01*
X73186969Y-32584200D02*
X73234588Y-32536580D01*
X73234588Y-32536580D02*
X73282207Y-32441342D01*
X73282207Y-32441342D02*
X73282207Y-31631819D01*
X74520303Y-32631819D02*
X74520303Y-31631819D01*
X74520303Y-31631819D02*
X74758398Y-31631819D01*
X74758398Y-31631819D02*
X74901255Y-31679438D01*
X74901255Y-31679438D02*
X74996493Y-31774676D01*
X74996493Y-31774676D02*
X75044112Y-31869914D01*
X75044112Y-31869914D02*
X75091731Y-32060390D01*
X75091731Y-32060390D02*
X75091731Y-32203247D01*
X75091731Y-32203247D02*
X75044112Y-32393723D01*
X75044112Y-32393723D02*
X74996493Y-32488961D01*
X74996493Y-32488961D02*
X74901255Y-32584200D01*
X74901255Y-32584200D02*
X74758398Y-32631819D01*
X74758398Y-32631819D02*
X74520303Y-32631819D01*
X75948874Y-32631819D02*
X75948874Y-32108009D01*
X75948874Y-32108009D02*
X75901255Y-32012771D01*
X75901255Y-32012771D02*
X75806017Y-31965152D01*
X75806017Y-31965152D02*
X75615541Y-31965152D01*
X75615541Y-31965152D02*
X75520303Y-32012771D01*
X75948874Y-32584200D02*
X75853636Y-32631819D01*
X75853636Y-32631819D02*
X75615541Y-32631819D01*
X75615541Y-32631819D02*
X75520303Y-32584200D01*
X75520303Y-32584200D02*
X75472684Y-32488961D01*
X75472684Y-32488961D02*
X75472684Y-32393723D01*
X75472684Y-32393723D02*
X75520303Y-32298485D01*
X75520303Y-32298485D02*
X75615541Y-32250866D01*
X75615541Y-32250866D02*
X75853636Y-32250866D01*
X75853636Y-32250866D02*
X75948874Y-32203247D01*
X76425065Y-32631819D02*
X76425065Y-31965152D01*
X76425065Y-32155628D02*
X76472684Y-32060390D01*
X76472684Y-32060390D02*
X76520303Y-32012771D01*
X76520303Y-32012771D02*
X76615541Y-31965152D01*
X76615541Y-31965152D02*
X76710779Y-31965152D01*
X77044113Y-32631819D02*
X77044113Y-31631819D01*
X77139351Y-32250866D02*
X77425065Y-32631819D01*
X77425065Y-31965152D02*
X77044113Y-32346104D01*
X78520303Y-32727057D02*
X78425065Y-32679438D01*
X78425065Y-32679438D02*
X78329827Y-32584200D01*
X78329827Y-32584200D02*
X78186970Y-32441342D01*
X78186970Y-32441342D02*
X78091732Y-32393723D01*
X78091732Y-32393723D02*
X77996494Y-32393723D01*
X78044113Y-32631819D02*
X77948875Y-32584200D01*
X77948875Y-32584200D02*
X77853637Y-32488961D01*
X77853637Y-32488961D02*
X77806018Y-32298485D01*
X77806018Y-32298485D02*
X77806018Y-31965152D01*
X77806018Y-31965152D02*
X77853637Y-31774676D01*
X77853637Y-31774676D02*
X77948875Y-31679438D01*
X77948875Y-31679438D02*
X78044113Y-31631819D01*
X78044113Y-31631819D02*
X78234589Y-31631819D01*
X78234589Y-31631819D02*
X78329827Y-31679438D01*
X78329827Y-31679438D02*
X78425065Y-31774676D01*
X78425065Y-31774676D02*
X78472684Y-31965152D01*
X78472684Y-31965152D02*
X78472684Y-32298485D01*
X78472684Y-32298485D02*
X78425065Y-32488961D01*
X78425065Y-32488961D02*
X78329827Y-32584200D01*
X78329827Y-32584200D02*
X78234589Y-32631819D01*
X78234589Y-32631819D02*
X78044113Y-32631819D01*
X79329827Y-31965152D02*
X79329827Y-32631819D01*
X78901256Y-31965152D02*
X78901256Y-32488961D01*
X78901256Y-32488961D02*
X78948875Y-32584200D01*
X78948875Y-32584200D02*
X79044113Y-32631819D01*
X79044113Y-32631819D02*
X79186970Y-32631819D01*
X79186970Y-32631819D02*
X79282208Y-32584200D01*
X79282208Y-32584200D02*
X79329827Y-32536580D01*
X80186970Y-32584200D02*
X80091732Y-32631819D01*
X80091732Y-32631819D02*
X79901256Y-32631819D01*
X79901256Y-32631819D02*
X79806018Y-32584200D01*
X79806018Y-32584200D02*
X79758399Y-32488961D01*
X79758399Y-32488961D02*
X79758399Y-32108009D01*
X79758399Y-32108009D02*
X79806018Y-32012771D01*
X79806018Y-32012771D02*
X79901256Y-31965152D01*
X79901256Y-31965152D02*
X80091732Y-31965152D01*
X80091732Y-31965152D02*
X80186970Y-32012771D01*
X80186970Y-32012771D02*
X80234589Y-32108009D01*
X80234589Y-32108009D02*
X80234589Y-32203247D01*
X80234589Y-32203247D02*
X79758399Y-32298485D01*
X80615542Y-32584200D02*
X80710780Y-32631819D01*
X80710780Y-32631819D02*
X80901256Y-32631819D01*
X80901256Y-32631819D02*
X80996494Y-32584200D01*
X80996494Y-32584200D02*
X81044113Y-32488961D01*
X81044113Y-32488961D02*
X81044113Y-32441342D01*
X81044113Y-32441342D02*
X80996494Y-32346104D01*
X80996494Y-32346104D02*
X80901256Y-32298485D01*
X80901256Y-32298485D02*
X80758399Y-32298485D01*
X80758399Y-32298485D02*
X80663161Y-32250866D01*
X80663161Y-32250866D02*
X80615542Y-32155628D01*
X80615542Y-32155628D02*
X80615542Y-32108009D01*
X80615542Y-32108009D02*
X80663161Y-32012771D01*
X80663161Y-32012771D02*
X80758399Y-31965152D01*
X80758399Y-31965152D02*
X80901256Y-31965152D01*
X80901256Y-31965152D02*
X80996494Y-32012771D01*
X81329828Y-31965152D02*
X81710780Y-31965152D01*
X81472685Y-31631819D02*
X81472685Y-32488961D01*
X81472685Y-32488961D02*
X81520304Y-32584200D01*
X81520304Y-32584200D02*
X81615542Y-32631819D01*
X81615542Y-32631819D02*
X81710780Y-32631819D01*
X82806019Y-32108009D02*
X83139352Y-32108009D01*
X83282209Y-32631819D02*
X82806019Y-32631819D01*
X82806019Y-32631819D02*
X82806019Y-31631819D01*
X82806019Y-31631819D02*
X83282209Y-31631819D01*
X83710781Y-32631819D02*
X83710781Y-31631819D01*
X83710781Y-31631819D02*
X84044114Y-32346104D01*
X84044114Y-32346104D02*
X84377447Y-31631819D01*
X84377447Y-31631819D02*
X84377447Y-32631819D01*
X85425066Y-32536580D02*
X85377447Y-32584200D01*
X85377447Y-32584200D02*
X85234590Y-32631819D01*
X85234590Y-32631819D02*
X85139352Y-32631819D01*
X85139352Y-32631819D02*
X84996495Y-32584200D01*
X84996495Y-32584200D02*
X84901257Y-32488961D01*
X84901257Y-32488961D02*
X84853638Y-32393723D01*
X84853638Y-32393723D02*
X84806019Y-32203247D01*
X84806019Y-32203247D02*
X84806019Y-32060390D01*
X84806019Y-32060390D02*
X84853638Y-31869914D01*
X84853638Y-31869914D02*
X84901257Y-31774676D01*
X84901257Y-31774676D02*
X84996495Y-31679438D01*
X84996495Y-31679438D02*
X85139352Y-31631819D01*
X85139352Y-31631819D02*
X85234590Y-31631819D01*
X85234590Y-31631819D02*
X85377447Y-31679438D01*
X85377447Y-31679438D02*
X85425066Y-31727057D01*
X86282209Y-32631819D02*
X86282209Y-32108009D01*
X86282209Y-32108009D02*
X86234590Y-32012771D01*
X86234590Y-32012771D02*
X86139352Y-31965152D01*
X86139352Y-31965152D02*
X85948876Y-31965152D01*
X85948876Y-31965152D02*
X85853638Y-32012771D01*
X86282209Y-32584200D02*
X86186971Y-32631819D01*
X86186971Y-32631819D02*
X85948876Y-32631819D01*
X85948876Y-32631819D02*
X85853638Y-32584200D01*
X85853638Y-32584200D02*
X85806019Y-32488961D01*
X85806019Y-32488961D02*
X85806019Y-32393723D01*
X85806019Y-32393723D02*
X85853638Y-32298485D01*
X85853638Y-32298485D02*
X85948876Y-32250866D01*
X85948876Y-32250866D02*
X86186971Y-32250866D01*
X86186971Y-32250866D02*
X86282209Y-32203247D01*
X86901257Y-32631819D02*
X86806019Y-32584200D01*
X86806019Y-32584200D02*
X86758400Y-32488961D01*
X86758400Y-32488961D02*
X86758400Y-31631819D01*
X87901258Y-31631819D02*
X88472686Y-31631819D01*
X88186972Y-32631819D02*
X88186972Y-31631819D01*
X89186972Y-32584200D02*
X89091734Y-32631819D01*
X89091734Y-32631819D02*
X88901258Y-32631819D01*
X88901258Y-32631819D02*
X88806020Y-32584200D01*
X88806020Y-32584200D02*
X88758401Y-32488961D01*
X88758401Y-32488961D02*
X88758401Y-32108009D01*
X88758401Y-32108009D02*
X88806020Y-32012771D01*
X88806020Y-32012771D02*
X88901258Y-31965152D01*
X88901258Y-31965152D02*
X89091734Y-31965152D01*
X89091734Y-31965152D02*
X89186972Y-32012771D01*
X89186972Y-32012771D02*
X89234591Y-32108009D01*
X89234591Y-32108009D02*
X89234591Y-32203247D01*
X89234591Y-32203247D02*
X88758401Y-32298485D01*
X89615544Y-32584200D02*
X89710782Y-32631819D01*
X89710782Y-32631819D02*
X89901258Y-32631819D01*
X89901258Y-32631819D02*
X89996496Y-32584200D01*
X89996496Y-32584200D02*
X90044115Y-32488961D01*
X90044115Y-32488961D02*
X90044115Y-32441342D01*
X90044115Y-32441342D02*
X89996496Y-32346104D01*
X89996496Y-32346104D02*
X89901258Y-32298485D01*
X89901258Y-32298485D02*
X89758401Y-32298485D01*
X89758401Y-32298485D02*
X89663163Y-32250866D01*
X89663163Y-32250866D02*
X89615544Y-32155628D01*
X89615544Y-32155628D02*
X89615544Y-32108009D01*
X89615544Y-32108009D02*
X89663163Y-32012771D01*
X89663163Y-32012771D02*
X89758401Y-31965152D01*
X89758401Y-31965152D02*
X89901258Y-31965152D01*
X89901258Y-31965152D02*
X89996496Y-32012771D01*
X90329830Y-31965152D02*
X90710782Y-31965152D01*
X90472687Y-31631819D02*
X90472687Y-32488961D01*
X90472687Y-32488961D02*
X90520306Y-32584200D01*
X90520306Y-32584200D02*
X90615544Y-32631819D01*
X90615544Y-32631819D02*
X90710782Y-32631819D01*
X91758402Y-32584200D02*
X91901259Y-32631819D01*
X91901259Y-32631819D02*
X92139354Y-32631819D01*
X92139354Y-32631819D02*
X92234592Y-32584200D01*
X92234592Y-32584200D02*
X92282211Y-32536580D01*
X92282211Y-32536580D02*
X92329830Y-32441342D01*
X92329830Y-32441342D02*
X92329830Y-32346104D01*
X92329830Y-32346104D02*
X92282211Y-32250866D01*
X92282211Y-32250866D02*
X92234592Y-32203247D01*
X92234592Y-32203247D02*
X92139354Y-32155628D01*
X92139354Y-32155628D02*
X91948878Y-32108009D01*
X91948878Y-32108009D02*
X91853640Y-32060390D01*
X91853640Y-32060390D02*
X91806021Y-32012771D01*
X91806021Y-32012771D02*
X91758402Y-31917533D01*
X91758402Y-31917533D02*
X91758402Y-31822295D01*
X91758402Y-31822295D02*
X91806021Y-31727057D01*
X91806021Y-31727057D02*
X91853640Y-31679438D01*
X91853640Y-31679438D02*
X91948878Y-31631819D01*
X91948878Y-31631819D02*
X92186973Y-31631819D01*
X92186973Y-31631819D02*
X92329830Y-31679438D01*
X92615545Y-31965152D02*
X92996497Y-31965152D01*
X92758402Y-31631819D02*
X92758402Y-32488961D01*
X92758402Y-32488961D02*
X92806021Y-32584200D01*
X92806021Y-32584200D02*
X92901259Y-32631819D01*
X92901259Y-32631819D02*
X92996497Y-32631819D01*
X93758402Y-32631819D02*
X93758402Y-32108009D01*
X93758402Y-32108009D02*
X93710783Y-32012771D01*
X93710783Y-32012771D02*
X93615545Y-31965152D01*
X93615545Y-31965152D02*
X93425069Y-31965152D01*
X93425069Y-31965152D02*
X93329831Y-32012771D01*
X93758402Y-32584200D02*
X93663164Y-32631819D01*
X93663164Y-32631819D02*
X93425069Y-32631819D01*
X93425069Y-32631819D02*
X93329831Y-32584200D01*
X93329831Y-32584200D02*
X93282212Y-32488961D01*
X93282212Y-32488961D02*
X93282212Y-32393723D01*
X93282212Y-32393723D02*
X93329831Y-32298485D01*
X93329831Y-32298485D02*
X93425069Y-32250866D01*
X93425069Y-32250866D02*
X93663164Y-32250866D01*
X93663164Y-32250866D02*
X93758402Y-32203247D01*
X94234593Y-31965152D02*
X94234593Y-32631819D01*
X94234593Y-32060390D02*
X94282212Y-32012771D01*
X94282212Y-32012771D02*
X94377450Y-31965152D01*
X94377450Y-31965152D02*
X94520307Y-31965152D01*
X94520307Y-31965152D02*
X94615545Y-32012771D01*
X94615545Y-32012771D02*
X94663164Y-32108009D01*
X94663164Y-32108009D02*
X94663164Y-32631819D01*
X95567926Y-32631819D02*
X95567926Y-31631819D01*
X95567926Y-32584200D02*
X95472688Y-32631819D01*
X95472688Y-32631819D02*
X95282212Y-32631819D01*
X95282212Y-32631819D02*
X95186974Y-32584200D01*
X95186974Y-32584200D02*
X95139355Y-32536580D01*
X95139355Y-32536580D02*
X95091736Y-32441342D01*
X95091736Y-32441342D02*
X95091736Y-32155628D01*
X95091736Y-32155628D02*
X95139355Y-32060390D01*
X95139355Y-32060390D02*
X95186974Y-32012771D01*
X95186974Y-32012771D02*
X95282212Y-31965152D01*
X95282212Y-31965152D02*
X95472688Y-31965152D01*
X95472688Y-31965152D02*
X95567926Y-32012771D01*
X72282207Y-34146580D02*
X72234588Y-34194200D01*
X72234588Y-34194200D02*
X72091731Y-34241819D01*
X72091731Y-34241819D02*
X71996493Y-34241819D01*
X71996493Y-34241819D02*
X71853636Y-34194200D01*
X71853636Y-34194200D02*
X71758398Y-34098961D01*
X71758398Y-34098961D02*
X71710779Y-34003723D01*
X71710779Y-34003723D02*
X71663160Y-33813247D01*
X71663160Y-33813247D02*
X71663160Y-33670390D01*
X71663160Y-33670390D02*
X71710779Y-33479914D01*
X71710779Y-33479914D02*
X71758398Y-33384676D01*
X71758398Y-33384676D02*
X71853636Y-33289438D01*
X71853636Y-33289438D02*
X71996493Y-33241819D01*
X71996493Y-33241819D02*
X72091731Y-33241819D01*
X72091731Y-33241819D02*
X72234588Y-33289438D01*
X72234588Y-33289438D02*
X72282207Y-33337057D01*
X72710779Y-34241819D02*
X72710779Y-33241819D01*
X73139350Y-34241819D02*
X73139350Y-33718009D01*
X73139350Y-33718009D02*
X73091731Y-33622771D01*
X73091731Y-33622771D02*
X72996493Y-33575152D01*
X72996493Y-33575152D02*
X72853636Y-33575152D01*
X72853636Y-33575152D02*
X72758398Y-33622771D01*
X72758398Y-33622771D02*
X72710779Y-33670390D01*
X73615541Y-34241819D02*
X73615541Y-33575152D01*
X73615541Y-33241819D02*
X73567922Y-33289438D01*
X73567922Y-33289438D02*
X73615541Y-33337057D01*
X73615541Y-33337057D02*
X73663160Y-33289438D01*
X73663160Y-33289438D02*
X73615541Y-33241819D01*
X73615541Y-33241819D02*
X73615541Y-33337057D01*
X74091731Y-33575152D02*
X74091731Y-34575152D01*
X74091731Y-33622771D02*
X74186969Y-33575152D01*
X74186969Y-33575152D02*
X74377445Y-33575152D01*
X74377445Y-33575152D02*
X74472683Y-33622771D01*
X74472683Y-33622771D02*
X74520302Y-33670390D01*
X74520302Y-33670390D02*
X74567921Y-33765628D01*
X74567921Y-33765628D02*
X74567921Y-34051342D01*
X74567921Y-34051342D02*
X74520302Y-34146580D01*
X74520302Y-34146580D02*
X74472683Y-34194200D01*
X74472683Y-34194200D02*
X74377445Y-34241819D01*
X74377445Y-34241819D02*
X74186969Y-34241819D01*
X74186969Y-34241819D02*
X74091731Y-34194200D01*
X76186969Y-34194200D02*
X76091731Y-34241819D01*
X76091731Y-34241819D02*
X75901255Y-34241819D01*
X75901255Y-34241819D02*
X75806017Y-34194200D01*
X75806017Y-34194200D02*
X75758398Y-34146580D01*
X75758398Y-34146580D02*
X75710779Y-34051342D01*
X75710779Y-34051342D02*
X75710779Y-33765628D01*
X75710779Y-33765628D02*
X75758398Y-33670390D01*
X75758398Y-33670390D02*
X75806017Y-33622771D01*
X75806017Y-33622771D02*
X75901255Y-33575152D01*
X75901255Y-33575152D02*
X76091731Y-33575152D01*
X76091731Y-33575152D02*
X76186969Y-33622771D01*
X77044112Y-34241819D02*
X77044112Y-33718009D01*
X77044112Y-33718009D02*
X76996493Y-33622771D01*
X76996493Y-33622771D02*
X76901255Y-33575152D01*
X76901255Y-33575152D02*
X76710779Y-33575152D01*
X76710779Y-33575152D02*
X76615541Y-33622771D01*
X77044112Y-34194200D02*
X76948874Y-34241819D01*
X76948874Y-34241819D02*
X76710779Y-34241819D01*
X76710779Y-34241819D02*
X76615541Y-34194200D01*
X76615541Y-34194200D02*
X76567922Y-34098961D01*
X76567922Y-34098961D02*
X76567922Y-34003723D01*
X76567922Y-34003723D02*
X76615541Y-33908485D01*
X76615541Y-33908485D02*
X76710779Y-33860866D01*
X76710779Y-33860866D02*
X76948874Y-33860866D01*
X76948874Y-33860866D02*
X77044112Y-33813247D01*
X77520303Y-34241819D02*
X77520303Y-33575152D01*
X77520303Y-33765628D02*
X77567922Y-33670390D01*
X77567922Y-33670390D02*
X77615541Y-33622771D01*
X77615541Y-33622771D02*
X77710779Y-33575152D01*
X77710779Y-33575152D02*
X77806017Y-33575152D01*
X78139351Y-34241819D02*
X78139351Y-33575152D01*
X78139351Y-33765628D02*
X78186970Y-33670390D01*
X78186970Y-33670390D02*
X78234589Y-33622771D01*
X78234589Y-33622771D02*
X78329827Y-33575152D01*
X78329827Y-33575152D02*
X78425065Y-33575152D01*
X78758399Y-34241819D02*
X78758399Y-33575152D01*
X78758399Y-33241819D02*
X78710780Y-33289438D01*
X78710780Y-33289438D02*
X78758399Y-33337057D01*
X78758399Y-33337057D02*
X78806018Y-33289438D01*
X78806018Y-33289438D02*
X78758399Y-33241819D01*
X78758399Y-33241819D02*
X78758399Y-33337057D01*
X79615541Y-34194200D02*
X79520303Y-34241819D01*
X79520303Y-34241819D02*
X79329827Y-34241819D01*
X79329827Y-34241819D02*
X79234589Y-34194200D01*
X79234589Y-34194200D02*
X79186970Y-34098961D01*
X79186970Y-34098961D02*
X79186970Y-33718009D01*
X79186970Y-33718009D02*
X79234589Y-33622771D01*
X79234589Y-33622771D02*
X79329827Y-33575152D01*
X79329827Y-33575152D02*
X79520303Y-33575152D01*
X79520303Y-33575152D02*
X79615541Y-33622771D01*
X79615541Y-33622771D02*
X79663160Y-33718009D01*
X79663160Y-33718009D02*
X79663160Y-33813247D01*
X79663160Y-33813247D02*
X79186970Y-33908485D01*
X80091732Y-34241819D02*
X80091732Y-33575152D01*
X80091732Y-33765628D02*
X80139351Y-33670390D01*
X80139351Y-33670390D02*
X80186970Y-33622771D01*
X80186970Y-33622771D02*
X80282208Y-33575152D01*
X80282208Y-33575152D02*
X80377446Y-33575152D01*
X81329828Y-33575152D02*
X81710780Y-33575152D01*
X81472685Y-34241819D02*
X81472685Y-33384676D01*
X81472685Y-33384676D02*
X81520304Y-33289438D01*
X81520304Y-33289438D02*
X81615542Y-33241819D01*
X81615542Y-33241819D02*
X81710780Y-33241819D01*
X82186971Y-34241819D02*
X82091733Y-34194200D01*
X82091733Y-34194200D02*
X82044114Y-34146580D01*
X82044114Y-34146580D02*
X81996495Y-34051342D01*
X81996495Y-34051342D02*
X81996495Y-33765628D01*
X81996495Y-33765628D02*
X82044114Y-33670390D01*
X82044114Y-33670390D02*
X82091733Y-33622771D01*
X82091733Y-33622771D02*
X82186971Y-33575152D01*
X82186971Y-33575152D02*
X82329828Y-33575152D01*
X82329828Y-33575152D02*
X82425066Y-33622771D01*
X82425066Y-33622771D02*
X82472685Y-33670390D01*
X82472685Y-33670390D02*
X82520304Y-33765628D01*
X82520304Y-33765628D02*
X82520304Y-34051342D01*
X82520304Y-34051342D02*
X82472685Y-34146580D01*
X82472685Y-34146580D02*
X82425066Y-34194200D01*
X82425066Y-34194200D02*
X82329828Y-34241819D01*
X82329828Y-34241819D02*
X82186971Y-34241819D01*
X82948876Y-34241819D02*
X82948876Y-33575152D01*
X82948876Y-33765628D02*
X82996495Y-33670390D01*
X82996495Y-33670390D02*
X83044114Y-33622771D01*
X83044114Y-33622771D02*
X83139352Y-33575152D01*
X83139352Y-33575152D02*
X83234590Y-33575152D01*
X84329829Y-34241819D02*
X84329829Y-33241819D01*
X84329829Y-33718009D02*
X84901257Y-33718009D01*
X84901257Y-34241819D02*
X84901257Y-33241819D01*
X85806019Y-34241819D02*
X85806019Y-33718009D01*
X85806019Y-33718009D02*
X85758400Y-33622771D01*
X85758400Y-33622771D02*
X85663162Y-33575152D01*
X85663162Y-33575152D02*
X85472686Y-33575152D01*
X85472686Y-33575152D02*
X85377448Y-33622771D01*
X85806019Y-34194200D02*
X85710781Y-34241819D01*
X85710781Y-34241819D02*
X85472686Y-34241819D01*
X85472686Y-34241819D02*
X85377448Y-34194200D01*
X85377448Y-34194200D02*
X85329829Y-34098961D01*
X85329829Y-34098961D02*
X85329829Y-34003723D01*
X85329829Y-34003723D02*
X85377448Y-33908485D01*
X85377448Y-33908485D02*
X85472686Y-33860866D01*
X85472686Y-33860866D02*
X85710781Y-33860866D01*
X85710781Y-33860866D02*
X85806019Y-33813247D01*
X86282210Y-34241819D02*
X86282210Y-33575152D01*
X86282210Y-33670390D02*
X86329829Y-33622771D01*
X86329829Y-33622771D02*
X86425067Y-33575152D01*
X86425067Y-33575152D02*
X86567924Y-33575152D01*
X86567924Y-33575152D02*
X86663162Y-33622771D01*
X86663162Y-33622771D02*
X86710781Y-33718009D01*
X86710781Y-33718009D02*
X86710781Y-34241819D01*
X86710781Y-33718009D02*
X86758400Y-33622771D01*
X86758400Y-33622771D02*
X86853638Y-33575152D01*
X86853638Y-33575152D02*
X86996495Y-33575152D01*
X86996495Y-33575152D02*
X87091734Y-33622771D01*
X87091734Y-33622771D02*
X87139353Y-33718009D01*
X87139353Y-33718009D02*
X87139353Y-34241819D01*
X88044114Y-34241819D02*
X88044114Y-33718009D01*
X88044114Y-33718009D02*
X87996495Y-33622771D01*
X87996495Y-33622771D02*
X87901257Y-33575152D01*
X87901257Y-33575152D02*
X87710781Y-33575152D01*
X87710781Y-33575152D02*
X87615543Y-33622771D01*
X88044114Y-34194200D02*
X87948876Y-34241819D01*
X87948876Y-34241819D02*
X87710781Y-34241819D01*
X87710781Y-34241819D02*
X87615543Y-34194200D01*
X87615543Y-34194200D02*
X87567924Y-34098961D01*
X87567924Y-34098961D02*
X87567924Y-34003723D01*
X87567924Y-34003723D02*
X87615543Y-33908485D01*
X87615543Y-33908485D02*
X87710781Y-33860866D01*
X87710781Y-33860866D02*
X87948876Y-33860866D01*
X87948876Y-33860866D02*
X88044114Y-33813247D01*
X88520305Y-34241819D02*
X88520305Y-33575152D01*
X88520305Y-33670390D02*
X88567924Y-33622771D01*
X88567924Y-33622771D02*
X88663162Y-33575152D01*
X88663162Y-33575152D02*
X88806019Y-33575152D01*
X88806019Y-33575152D02*
X88901257Y-33622771D01*
X88901257Y-33622771D02*
X88948876Y-33718009D01*
X88948876Y-33718009D02*
X88948876Y-34241819D01*
X88948876Y-33718009D02*
X88996495Y-33622771D01*
X88996495Y-33622771D02*
X89091733Y-33575152D01*
X89091733Y-33575152D02*
X89234590Y-33575152D01*
X89234590Y-33575152D02*
X89329829Y-33622771D01*
X89329829Y-33622771D02*
X89377448Y-33718009D01*
X89377448Y-33718009D02*
X89377448Y-34241819D01*
X90282209Y-34241819D02*
X90282209Y-33718009D01*
X90282209Y-33718009D02*
X90234590Y-33622771D01*
X90234590Y-33622771D02*
X90139352Y-33575152D01*
X90139352Y-33575152D02*
X89948876Y-33575152D01*
X89948876Y-33575152D02*
X89853638Y-33622771D01*
X90282209Y-34194200D02*
X90186971Y-34241819D01*
X90186971Y-34241819D02*
X89948876Y-34241819D01*
X89948876Y-34241819D02*
X89853638Y-34194200D01*
X89853638Y-34194200D02*
X89806019Y-34098961D01*
X89806019Y-34098961D02*
X89806019Y-34003723D01*
X89806019Y-34003723D02*
X89853638Y-33908485D01*
X89853638Y-33908485D02*
X89948876Y-33860866D01*
X89948876Y-33860866D02*
X90186971Y-33860866D01*
X90186971Y-33860866D02*
X90282209Y-33813247D01*
X90615543Y-33575152D02*
X90996495Y-33575152D01*
X90758400Y-33241819D02*
X90758400Y-34098961D01*
X90758400Y-34098961D02*
X90806019Y-34194200D01*
X90806019Y-34194200D02*
X90901257Y-34241819D01*
X90901257Y-34241819D02*
X90996495Y-34241819D01*
X91282210Y-34194200D02*
X91377448Y-34241819D01*
X91377448Y-34241819D02*
X91567924Y-34241819D01*
X91567924Y-34241819D02*
X91663162Y-34194200D01*
X91663162Y-34194200D02*
X91710781Y-34098961D01*
X91710781Y-34098961D02*
X91710781Y-34051342D01*
X91710781Y-34051342D02*
X91663162Y-33956104D01*
X91663162Y-33956104D02*
X91567924Y-33908485D01*
X91567924Y-33908485D02*
X91425067Y-33908485D01*
X91425067Y-33908485D02*
X91329829Y-33860866D01*
X91329829Y-33860866D02*
X91282210Y-33765628D01*
X91282210Y-33765628D02*
X91282210Y-33718009D01*
X91282210Y-33718009D02*
X91329829Y-33622771D01*
X91329829Y-33622771D02*
X91425067Y-33575152D01*
X91425067Y-33575152D02*
X91567924Y-33575152D01*
X91567924Y-33575152D02*
X91663162Y-33622771D01*
X92567924Y-33575152D02*
X92567924Y-34241819D01*
X92139353Y-33575152D02*
X92139353Y-34098961D01*
X92139353Y-34098961D02*
X92186972Y-34194200D01*
X92186972Y-34194200D02*
X92282210Y-34241819D01*
X92282210Y-34241819D02*
X92425067Y-34241819D01*
X92425067Y-34241819D02*
X92520305Y-34194200D01*
X92520305Y-34194200D02*
X92567924Y-34146580D01*
X93758401Y-34194200D02*
X93901258Y-34241819D01*
X93901258Y-34241819D02*
X94139353Y-34241819D01*
X94139353Y-34241819D02*
X94234591Y-34194200D01*
X94234591Y-34194200D02*
X94282210Y-34146580D01*
X94282210Y-34146580D02*
X94329829Y-34051342D01*
X94329829Y-34051342D02*
X94329829Y-33956104D01*
X94329829Y-33956104D02*
X94282210Y-33860866D01*
X94282210Y-33860866D02*
X94234591Y-33813247D01*
X94234591Y-33813247D02*
X94139353Y-33765628D01*
X94139353Y-33765628D02*
X93948877Y-33718009D01*
X93948877Y-33718009D02*
X93853639Y-33670390D01*
X93853639Y-33670390D02*
X93806020Y-33622771D01*
X93806020Y-33622771D02*
X93758401Y-33527533D01*
X93758401Y-33527533D02*
X93758401Y-33432295D01*
X93758401Y-33432295D02*
X93806020Y-33337057D01*
X93806020Y-33337057D02*
X93853639Y-33289438D01*
X93853639Y-33289438D02*
X93948877Y-33241819D01*
X93948877Y-33241819D02*
X94186972Y-33241819D01*
X94186972Y-33241819D02*
X94329829Y-33289438D01*
X95282210Y-34241819D02*
X94710782Y-34241819D01*
X94996496Y-34241819D02*
X94996496Y-33241819D01*
X94996496Y-33241819D02*
X94901258Y-33384676D01*
X94901258Y-33384676D02*
X94806020Y-33479914D01*
X94806020Y-33479914D02*
X94710782Y-33527533D01*
X96234591Y-34241819D02*
X95663163Y-34241819D01*
X95948877Y-34241819D02*
X95948877Y-33241819D01*
X95948877Y-33241819D02*
X95853639Y-33384676D01*
X95853639Y-33384676D02*
X95758401Y-33479914D01*
X95758401Y-33479914D02*
X95663163Y-33527533D01*
X97091734Y-33575152D02*
X97091734Y-34241819D01*
X96853639Y-33194200D02*
X96615544Y-33908485D01*
X96615544Y-33908485D02*
X97234591Y-33908485D01*
X98139353Y-34241819D02*
X97567925Y-34241819D01*
X97853639Y-34241819D02*
X97853639Y-33241819D01*
X97853639Y-33241819D02*
X97758401Y-33384676D01*
X97758401Y-33384676D02*
X97663163Y-33479914D01*
X97663163Y-33479914D02*
X97567925Y-33527533D01*
X98996496Y-33241819D02*
X98806020Y-33241819D01*
X98806020Y-33241819D02*
X98710782Y-33289438D01*
X98710782Y-33289438D02*
X98663163Y-33337057D01*
X98663163Y-33337057D02*
X98567925Y-33479914D01*
X98567925Y-33479914D02*
X98520306Y-33670390D01*
X98520306Y-33670390D02*
X98520306Y-34051342D01*
X98520306Y-34051342D02*
X98567925Y-34146580D01*
X98567925Y-34146580D02*
X98615544Y-34194200D01*
X98615544Y-34194200D02*
X98710782Y-34241819D01*
X98710782Y-34241819D02*
X98901258Y-34241819D01*
X98901258Y-34241819D02*
X98996496Y-34194200D01*
X98996496Y-34194200D02*
X99044115Y-34146580D01*
X99044115Y-34146580D02*
X99091734Y-34051342D01*
X99091734Y-34051342D02*
X99091734Y-33813247D01*
X99091734Y-33813247D02*
X99044115Y-33718009D01*
X99044115Y-33718009D02*
X98996496Y-33670390D01*
X98996496Y-33670390D02*
X98901258Y-33622771D01*
X98901258Y-33622771D02*
X98710782Y-33622771D01*
X98710782Y-33622771D02*
X98615544Y-33670390D01*
X98615544Y-33670390D02*
X98567925Y-33718009D01*
X98567925Y-33718009D02*
X98520306Y-33813247D01*
X99710782Y-33241819D02*
X99806020Y-33241819D01*
X99806020Y-33241819D02*
X99901258Y-33289438D01*
X99901258Y-33289438D02*
X99948877Y-33337057D01*
X99948877Y-33337057D02*
X99996496Y-33432295D01*
X99996496Y-33432295D02*
X100044115Y-33622771D01*
X100044115Y-33622771D02*
X100044115Y-33860866D01*
X100044115Y-33860866D02*
X99996496Y-34051342D01*
X99996496Y-34051342D02*
X99948877Y-34146580D01*
X99948877Y-34146580D02*
X99901258Y-34194200D01*
X99901258Y-34194200D02*
X99806020Y-34241819D01*
X99806020Y-34241819D02*
X99710782Y-34241819D01*
X99710782Y-34241819D02*
X99615544Y-34194200D01*
X99615544Y-34194200D02*
X99567925Y-34146580D01*
X99567925Y-34146580D02*
X99520306Y-34051342D01*
X99520306Y-34051342D02*
X99472687Y-33860866D01*
X99472687Y-33860866D02*
X99472687Y-33622771D01*
X99472687Y-33622771D02*
X99520306Y-33432295D01*
X99520306Y-33432295D02*
X99567925Y-33337057D01*
X99567925Y-33337057D02*
X99615544Y-33289438D01*
X99615544Y-33289438D02*
X99710782Y-33241819D01*
X100472687Y-33860866D02*
X101234592Y-33860866D01*
X102139353Y-33241819D02*
X101948877Y-33241819D01*
X101948877Y-33241819D02*
X101853639Y-33289438D01*
X101853639Y-33289438D02*
X101806020Y-33337057D01*
X101806020Y-33337057D02*
X101710782Y-33479914D01*
X101710782Y-33479914D02*
X101663163Y-33670390D01*
X101663163Y-33670390D02*
X101663163Y-34051342D01*
X101663163Y-34051342D02*
X101710782Y-34146580D01*
X101710782Y-34146580D02*
X101758401Y-34194200D01*
X101758401Y-34194200D02*
X101853639Y-34241819D01*
X101853639Y-34241819D02*
X102044115Y-34241819D01*
X102044115Y-34241819D02*
X102139353Y-34194200D01*
X102139353Y-34194200D02*
X102186972Y-34146580D01*
X102186972Y-34146580D02*
X102234591Y-34051342D01*
X102234591Y-34051342D02*
X102234591Y-33813247D01*
X102234591Y-33813247D02*
X102186972Y-33718009D01*
X102186972Y-33718009D02*
X102139353Y-33670390D01*
X102139353Y-33670390D02*
X102044115Y-33622771D01*
X102044115Y-33622771D02*
X101853639Y-33622771D01*
X101853639Y-33622771D02*
X101758401Y-33670390D01*
X101758401Y-33670390D02*
X101710782Y-33718009D01*
X101710782Y-33718009D02*
X101663163Y-33813247D01*
X102853639Y-33241819D02*
X102948877Y-33241819D01*
X102948877Y-33241819D02*
X103044115Y-33289438D01*
X103044115Y-33289438D02*
X103091734Y-33337057D01*
X103091734Y-33337057D02*
X103139353Y-33432295D01*
X103139353Y-33432295D02*
X103186972Y-33622771D01*
X103186972Y-33622771D02*
X103186972Y-33860866D01*
X103186972Y-33860866D02*
X103139353Y-34051342D01*
X103139353Y-34051342D02*
X103091734Y-34146580D01*
X103091734Y-34146580D02*
X103044115Y-34194200D01*
X103044115Y-34194200D02*
X102948877Y-34241819D01*
X102948877Y-34241819D02*
X102853639Y-34241819D01*
X102853639Y-34241819D02*
X102758401Y-34194200D01*
X102758401Y-34194200D02*
X102710782Y-34146580D01*
X102710782Y-34146580D02*
X102663163Y-34051342D01*
X102663163Y-34051342D02*
X102615544Y-33860866D01*
X102615544Y-33860866D02*
X102615544Y-33622771D01*
X102615544Y-33622771D02*
X102663163Y-33432295D01*
X102663163Y-33432295D02*
X102710782Y-33337057D01*
X102710782Y-33337057D02*
X102758401Y-33289438D01*
X102758401Y-33289438D02*
X102853639Y-33241819D01*
X104139353Y-34241819D02*
X103567925Y-34241819D01*
X103853639Y-34241819D02*
X103853639Y-33241819D01*
X103853639Y-33241819D02*
X103758401Y-33384676D01*
X103758401Y-33384676D02*
X103663163Y-33479914D01*
X103663163Y-33479914D02*
X103567925Y-33527533D01*
X104758401Y-33241819D02*
X104853639Y-33241819D01*
X104853639Y-33241819D02*
X104948877Y-33289438D01*
X104948877Y-33289438D02*
X104996496Y-33337057D01*
X104996496Y-33337057D02*
X105044115Y-33432295D01*
X105044115Y-33432295D02*
X105091734Y-33622771D01*
X105091734Y-33622771D02*
X105091734Y-33860866D01*
X105091734Y-33860866D02*
X105044115Y-34051342D01*
X105044115Y-34051342D02*
X104996496Y-34146580D01*
X104996496Y-34146580D02*
X104948877Y-34194200D01*
X104948877Y-34194200D02*
X104853639Y-34241819D01*
X104853639Y-34241819D02*
X104758401Y-34241819D01*
X104758401Y-34241819D02*
X104663163Y-34194200D01*
X104663163Y-34194200D02*
X104615544Y-34146580D01*
X104615544Y-34146580D02*
X104567925Y-34051342D01*
X104567925Y-34051342D02*
X104520306Y-33860866D01*
X104520306Y-33860866D02*
X104520306Y-33622771D01*
X104520306Y-33622771D02*
X104567925Y-33432295D01*
X104567925Y-33432295D02*
X104615544Y-33337057D01*
X104615544Y-33337057D02*
X104663163Y-33289438D01*
X104663163Y-33289438D02*
X104758401Y-33241819D01*
X105520306Y-34241819D02*
X105520306Y-33241819D01*
X105520306Y-33241819D02*
X105901258Y-33241819D01*
X105901258Y-33241819D02*
X105996496Y-33289438D01*
X105996496Y-33289438D02*
X106044115Y-33337057D01*
X106044115Y-33337057D02*
X106091734Y-33432295D01*
X106091734Y-33432295D02*
X106091734Y-33575152D01*
X106091734Y-33575152D02*
X106044115Y-33670390D01*
X106044115Y-33670390D02*
X105996496Y-33718009D01*
X105996496Y-33718009D02*
X105901258Y-33765628D01*
X105901258Y-33765628D02*
X105520306Y-33765628D01*
X106472687Y-34194200D02*
X106615544Y-34241819D01*
X106615544Y-34241819D02*
X106853639Y-34241819D01*
X106853639Y-34241819D02*
X106948877Y-34194200D01*
X106948877Y-34194200D02*
X106996496Y-34146580D01*
X106996496Y-34146580D02*
X107044115Y-34051342D01*
X107044115Y-34051342D02*
X107044115Y-33956104D01*
X107044115Y-33956104D02*
X106996496Y-33860866D01*
X106996496Y-33860866D02*
X106948877Y-33813247D01*
X106948877Y-33813247D02*
X106853639Y-33765628D01*
X106853639Y-33765628D02*
X106663163Y-33718009D01*
X106663163Y-33718009D02*
X106567925Y-33670390D01*
X106567925Y-33670390D02*
X106520306Y-33622771D01*
X106520306Y-33622771D02*
X106472687Y-33527533D01*
X106472687Y-33527533D02*
X106472687Y-33432295D01*
X106472687Y-33432295D02*
X106520306Y-33337057D01*
X106520306Y-33337057D02*
X106567925Y-33289438D01*
X106567925Y-33289438D02*
X106663163Y-33241819D01*
X106663163Y-33241819D02*
X106901258Y-33241819D01*
X106901258Y-33241819D02*
X107044115Y-33289438D01*
X71663160Y-34947057D02*
X71710779Y-34899438D01*
X71710779Y-34899438D02*
X71806017Y-34851819D01*
X71806017Y-34851819D02*
X72044112Y-34851819D01*
X72044112Y-34851819D02*
X72139350Y-34899438D01*
X72139350Y-34899438D02*
X72186969Y-34947057D01*
X72186969Y-34947057D02*
X72234588Y-35042295D01*
X72234588Y-35042295D02*
X72234588Y-35137533D01*
X72234588Y-35137533D02*
X72186969Y-35280390D01*
X72186969Y-35280390D02*
X71615541Y-35851819D01*
X71615541Y-35851819D02*
X72234588Y-35851819D01*
X72853636Y-34851819D02*
X72948874Y-34851819D01*
X72948874Y-34851819D02*
X73044112Y-34899438D01*
X73044112Y-34899438D02*
X73091731Y-34947057D01*
X73091731Y-34947057D02*
X73139350Y-35042295D01*
X73139350Y-35042295D02*
X73186969Y-35232771D01*
X73186969Y-35232771D02*
X73186969Y-35470866D01*
X73186969Y-35470866D02*
X73139350Y-35661342D01*
X73139350Y-35661342D02*
X73091731Y-35756580D01*
X73091731Y-35756580D02*
X73044112Y-35804200D01*
X73044112Y-35804200D02*
X72948874Y-35851819D01*
X72948874Y-35851819D02*
X72853636Y-35851819D01*
X72853636Y-35851819D02*
X72758398Y-35804200D01*
X72758398Y-35804200D02*
X72710779Y-35756580D01*
X72710779Y-35756580D02*
X72663160Y-35661342D01*
X72663160Y-35661342D02*
X72615541Y-35470866D01*
X72615541Y-35470866D02*
X72615541Y-35232771D01*
X72615541Y-35232771D02*
X72663160Y-35042295D01*
X72663160Y-35042295D02*
X72710779Y-34947057D01*
X72710779Y-34947057D02*
X72758398Y-34899438D01*
X72758398Y-34899438D02*
X72853636Y-34851819D01*
X73567922Y-34947057D02*
X73615541Y-34899438D01*
X73615541Y-34899438D02*
X73710779Y-34851819D01*
X73710779Y-34851819D02*
X73948874Y-34851819D01*
X73948874Y-34851819D02*
X74044112Y-34899438D01*
X74044112Y-34899438D02*
X74091731Y-34947057D01*
X74091731Y-34947057D02*
X74139350Y-35042295D01*
X74139350Y-35042295D02*
X74139350Y-35137533D01*
X74139350Y-35137533D02*
X74091731Y-35280390D01*
X74091731Y-35280390D02*
X73520303Y-35851819D01*
X73520303Y-35851819D02*
X74139350Y-35851819D01*
X74996493Y-35185152D02*
X74996493Y-35851819D01*
X74758398Y-34804200D02*
X74520303Y-35518485D01*
X74520303Y-35518485D02*
X75139350Y-35518485D01*
X75520303Y-35470866D02*
X76282208Y-35470866D01*
X76948874Y-34851819D02*
X77044112Y-34851819D01*
X77044112Y-34851819D02*
X77139350Y-34899438D01*
X77139350Y-34899438D02*
X77186969Y-34947057D01*
X77186969Y-34947057D02*
X77234588Y-35042295D01*
X77234588Y-35042295D02*
X77282207Y-35232771D01*
X77282207Y-35232771D02*
X77282207Y-35470866D01*
X77282207Y-35470866D02*
X77234588Y-35661342D01*
X77234588Y-35661342D02*
X77186969Y-35756580D01*
X77186969Y-35756580D02*
X77139350Y-35804200D01*
X77139350Y-35804200D02*
X77044112Y-35851819D01*
X77044112Y-35851819D02*
X76948874Y-35851819D01*
X76948874Y-35851819D02*
X76853636Y-35804200D01*
X76853636Y-35804200D02*
X76806017Y-35756580D01*
X76806017Y-35756580D02*
X76758398Y-35661342D01*
X76758398Y-35661342D02*
X76710779Y-35470866D01*
X76710779Y-35470866D02*
X76710779Y-35232771D01*
X76710779Y-35232771D02*
X76758398Y-35042295D01*
X76758398Y-35042295D02*
X76806017Y-34947057D01*
X76806017Y-34947057D02*
X76853636Y-34899438D01*
X76853636Y-34899438D02*
X76948874Y-34851819D01*
X78234588Y-35851819D02*
X77663160Y-35851819D01*
X77948874Y-35851819D02*
X77948874Y-34851819D01*
X77948874Y-34851819D02*
X77853636Y-34994676D01*
X77853636Y-34994676D02*
X77758398Y-35089914D01*
X77758398Y-35089914D02*
X77663160Y-35137533D01*
X71710779Y-36938009D02*
X72044112Y-36938009D01*
X72186969Y-37461819D02*
X71710779Y-37461819D01*
X71710779Y-37461819D02*
X71710779Y-36461819D01*
X71710779Y-36461819D02*
X72186969Y-36461819D01*
X72615541Y-37461819D02*
X72615541Y-36461819D01*
X72615541Y-36461819D02*
X73186969Y-37461819D01*
X73186969Y-37461819D02*
X73186969Y-36461819D01*
X73663160Y-37461819D02*
X73663160Y-36461819D01*
X74663159Y-36509438D02*
X74567921Y-36461819D01*
X74567921Y-36461819D02*
X74425064Y-36461819D01*
X74425064Y-36461819D02*
X74282207Y-36509438D01*
X74282207Y-36509438D02*
X74186969Y-36604676D01*
X74186969Y-36604676D02*
X74139350Y-36699914D01*
X74139350Y-36699914D02*
X74091731Y-36890390D01*
X74091731Y-36890390D02*
X74091731Y-37033247D01*
X74091731Y-37033247D02*
X74139350Y-37223723D01*
X74139350Y-37223723D02*
X74186969Y-37318961D01*
X74186969Y-37318961D02*
X74282207Y-37414200D01*
X74282207Y-37414200D02*
X74425064Y-37461819D01*
X74425064Y-37461819D02*
X74520302Y-37461819D01*
X74520302Y-37461819D02*
X74663159Y-37414200D01*
X74663159Y-37414200D02*
X74710778Y-37366580D01*
X74710778Y-37366580D02*
X74710778Y-37033247D01*
X74710778Y-37033247D02*
X74520302Y-37033247D01*
X75758398Y-36795152D02*
X76139350Y-36795152D01*
X75901255Y-37461819D02*
X75901255Y-36604676D01*
X75901255Y-36604676D02*
X75948874Y-36509438D01*
X75948874Y-36509438D02*
X76044112Y-36461819D01*
X76044112Y-36461819D02*
X76139350Y-36461819D01*
X76472684Y-37461819D02*
X76472684Y-36795152D01*
X76472684Y-36461819D02*
X76425065Y-36509438D01*
X76425065Y-36509438D02*
X76472684Y-36557057D01*
X76472684Y-36557057D02*
X76520303Y-36509438D01*
X76520303Y-36509438D02*
X76472684Y-36461819D01*
X76472684Y-36461819D02*
X76472684Y-36557057D01*
X76948874Y-36795152D02*
X76948874Y-37461819D01*
X76948874Y-36890390D02*
X76996493Y-36842771D01*
X76996493Y-36842771D02*
X77091731Y-36795152D01*
X77091731Y-36795152D02*
X77234588Y-36795152D01*
X77234588Y-36795152D02*
X77329826Y-36842771D01*
X77329826Y-36842771D02*
X77377445Y-36938009D01*
X77377445Y-36938009D02*
X77377445Y-37461819D01*
X77853636Y-37461819D02*
X77853636Y-36795152D01*
X77853636Y-36461819D02*
X77806017Y-36509438D01*
X77806017Y-36509438D02*
X77853636Y-36557057D01*
X77853636Y-36557057D02*
X77901255Y-36509438D01*
X77901255Y-36509438D02*
X77853636Y-36461819D01*
X77853636Y-36461819D02*
X77853636Y-36557057D01*
X78282207Y-37414200D02*
X78377445Y-37461819D01*
X78377445Y-37461819D02*
X78567921Y-37461819D01*
X78567921Y-37461819D02*
X78663159Y-37414200D01*
X78663159Y-37414200D02*
X78710778Y-37318961D01*
X78710778Y-37318961D02*
X78710778Y-37271342D01*
X78710778Y-37271342D02*
X78663159Y-37176104D01*
X78663159Y-37176104D02*
X78567921Y-37128485D01*
X78567921Y-37128485D02*
X78425064Y-37128485D01*
X78425064Y-37128485D02*
X78329826Y-37080866D01*
X78329826Y-37080866D02*
X78282207Y-36985628D01*
X78282207Y-36985628D02*
X78282207Y-36938009D01*
X78282207Y-36938009D02*
X78329826Y-36842771D01*
X78329826Y-36842771D02*
X78425064Y-36795152D01*
X78425064Y-36795152D02*
X78567921Y-36795152D01*
X78567921Y-36795152D02*
X78663159Y-36842771D01*
X79139350Y-37461819D02*
X79139350Y-36461819D01*
X79567921Y-37461819D02*
X79567921Y-36938009D01*
X79567921Y-36938009D02*
X79520302Y-36842771D01*
X79520302Y-36842771D02*
X79425064Y-36795152D01*
X79425064Y-36795152D02*
X79282207Y-36795152D01*
X79282207Y-36795152D02*
X79186969Y-36842771D01*
X79186969Y-36842771D02*
X79139350Y-36890390D01*
M02*
