%TF.GenerationSoftware,KiCad,Pcbnew,7.0.5-0*%
%TF.CreationDate,2024-01-09T15:12:00-05:00*%
%TF.ProjectId,SiPM chip carrier,5369504d-2063-4686-9970-206361727269,2.0*%
%TF.SameCoordinates,Original*%
%TF.FileFunction,Copper,L1,Top*%
%TF.FilePolarity,Positive*%
%FSLAX46Y46*%
G04 Gerber Fmt 4.6, Leading zero omitted, Abs format (unit mm)*
G04 Created by KiCad (PCBNEW 7.0.5-0) date 2024-01-09 15:12:00*
%MOMM*%
%LPD*%
G01*
G04 APERTURE LIST*
G04 Aperture macros list*
%AMRotRect*
0 Rectangle, with rotation*
0 The origin of the aperture is its center*
0 $1 length*
0 $2 width*
0 $3 Rotation angle, in degrees counterclockwise*
0 Add horizontal line*
21,1,$1,$2,0,0,$3*%
G04 Aperture macros list end*
%TA.AperFunction,EtchedComponent*%
%ADD10C,0.100000*%
%TD*%
%TA.AperFunction,SMDPad,CuDef*%
%ADD11C,1.000000*%
%TD*%
%TA.AperFunction,SMDPad,CuDef*%
%ADD12RotRect,3.500000X3.500000X225.000000*%
%TD*%
%TA.AperFunction,ComponentPad*%
%ADD13R,1.700000X1.700000*%
%TD*%
%TA.AperFunction,ComponentPad*%
%ADD14O,1.700000X1.700000*%
%TD*%
%TA.AperFunction,ViaPad*%
%ADD15C,0.800000*%
%TD*%
%TA.AperFunction,Conductor*%
%ADD16C,0.250000*%
%TD*%
G04 APERTURE END LIST*
D10*
%TO.C,D1*%
X50106000Y-48302000D02*
X50106000Y-48302000D01*
X50106000Y-48302000D02*
X50106000Y-48302000D01*
X50106000Y-48302000D02*
X50106000Y-48302000D01*
X50106000Y-48302000D02*
X50106000Y-48302000D01*
%TD*%
D11*
%TO.P,D1,1*%
%TO.N,N/C*%
X48006000Y-52352000D03*
%TO.P,D1,2*%
X52206000Y-52352000D03*
%TO.P,D1,3,A*%
%TO.N,Net-(D1-A)*%
X52206000Y-47752000D03*
%TO.P,D1,4,K*%
%TO.N,Net-(D1-K)*%
X48006000Y-47752000D03*
D12*
%TO.P,D1,5,G*%
%TO.N,Net-(D1-G)*%
X50106000Y-50052000D03*
%TD*%
D13*
%TO.P,J2,1,Pin_1*%
%TO.N,unconnected-(J2-Pin_1-Pad1)*%
X61468000Y-38608000D03*
D14*
%TO.P,J2,2,Pin_2*%
%TO.N,unconnected-(J2-Pin_2-Pad2)*%
X61468000Y-41148000D03*
%TO.P,J2,3,Pin_3*%
%TO.N,unconnected-(J2-Pin_3-Pad3)*%
X61468000Y-43688000D03*
%TO.P,J2,4,Pin_4*%
%TO.N,unconnected-(J2-Pin_4-Pad4)*%
X61468000Y-46228000D03*
%TO.P,J2,5,Pin_5*%
%TO.N,Net-(D1-A)*%
X61468000Y-48768000D03*
%TO.P,J2,6,Pin_6*%
%TO.N,unconnected-(J2-Pin_6-Pad6)*%
X61468000Y-51308000D03*
%TO.P,J2,7,Pin_7*%
%TO.N,Net-(D1-G)*%
X61468000Y-53848000D03*
%TO.P,J2,8,Pin_8*%
%TO.N,unconnected-(J2-Pin_8-Pad8)*%
X61468000Y-56388000D03*
%TO.P,J2,9,Pin_9*%
%TO.N,unconnected-(J2-Pin_9-Pad9)*%
X61468000Y-58928000D03*
%TO.P,J2,10,Pin_10*%
%TO.N,unconnected-(J2-Pin_10-Pad10)*%
X61468000Y-61468000D03*
%TD*%
D13*
%TO.P,J1,1,Pin_1*%
%TO.N,unconnected-(J1-Pin_1-Pad1)*%
X38608000Y-38608000D03*
D14*
%TO.P,J1,2,Pin_2*%
%TO.N,unconnected-(J1-Pin_2-Pad2)*%
X38608000Y-41148000D03*
%TO.P,J1,3,Pin_3*%
%TO.N,unconnected-(J1-Pin_3-Pad3)*%
X38608000Y-43688000D03*
%TO.P,J1,4,Pin_4*%
%TO.N,unconnected-(J1-Pin_4-Pad4)*%
X38608000Y-46228000D03*
%TO.P,J1,5,Pin_5*%
%TO.N,Net-(D1-K)*%
X38608000Y-48768000D03*
%TO.P,J1,6,Pin_6*%
%TO.N,unconnected-(J1-Pin_6-Pad6)*%
X38608000Y-51308000D03*
%TO.P,J1,7,Pin_7*%
%TO.N,unconnected-(J1-Pin_7-Pad7)*%
X38608000Y-53848000D03*
%TO.P,J1,8,Pin_8*%
%TO.N,unconnected-(J1-Pin_8-Pad8)*%
X38608000Y-56388000D03*
%TO.P,J1,9,Pin_9*%
%TO.N,unconnected-(J1-Pin_9-Pad9)*%
X38608000Y-58928000D03*
%TO.P,J1,10,Pin_10*%
%TO.N,unconnected-(J1-Pin_10-Pad10)*%
X38608000Y-61468000D03*
%TD*%
D15*
%TO.N,Net-(D1-G)*%
X54610000Y-50038000D03*
%TD*%
D16*
%TO.N,Net-(D1-K)*%
X46832000Y-48768000D02*
X47900000Y-47700000D01*
X38608000Y-48768000D02*
X46832000Y-48768000D01*
%TO.N,Net-(D1-A)*%
X53168000Y-48768000D02*
X52100000Y-47700000D01*
X61468000Y-48768000D02*
X53168000Y-48768000D01*
%TO.N,Net-(D1-G)*%
X54596000Y-50052000D02*
X54610000Y-50038000D01*
X50106000Y-50052000D02*
X54596000Y-50052000D01*
%TD*%
M02*
