%TF.GenerationSoftware,KiCad,Pcbnew,7.0.5-0*%
%TF.CreationDate,2023-06-12T12:21:11-04:00*%
%TF.ProjectId,quad_sipm,71756164-5f73-4697-906d-2e6b69636164,rev?*%
%TF.SameCoordinates,Original*%
%TF.FileFunction,Copper,L2,Bot*%
%TF.FilePolarity,Positive*%
%FSLAX46Y46*%
G04 Gerber Fmt 4.6, Leading zero omitted, Abs format (unit mm)*
G04 Created by KiCad (PCBNEW 7.0.5-0) date 2023-06-12 12:21:11*
%MOMM*%
%LPD*%
G01*
G04 APERTURE LIST*
G04 Aperture macros list*
%AMRoundRect*
0 Rectangle with rounded corners*
0 $1 Rounding radius*
0 $2 $3 $4 $5 $6 $7 $8 $9 X,Y pos of 4 corners*
0 Add a 4 corners polygon primitive as box body*
4,1,4,$2,$3,$4,$5,$6,$7,$8,$9,$2,$3,0*
0 Add four circle primitives for the rounded corners*
1,1,$1+$1,$2,$3*
1,1,$1+$1,$4,$5*
1,1,$1+$1,$6,$7*
1,1,$1+$1,$8,$9*
0 Add four rect primitives between the rounded corners*
20,1,$1+$1,$2,$3,$4,$5,0*
20,1,$1+$1,$4,$5,$6,$7,0*
20,1,$1+$1,$6,$7,$8,$9,0*
20,1,$1+$1,$8,$9,$2,$3,0*%
G04 Aperture macros list end*
%TA.AperFunction,ComponentPad*%
%ADD10C,16.800000*%
%TD*%
%TA.AperFunction,ComponentPad*%
%ADD11C,12.000000*%
%TD*%
%TA.AperFunction,ComponentPad*%
%ADD12R,1.700000X1.700000*%
%TD*%
%TA.AperFunction,ComponentPad*%
%ADD13O,1.700000X1.700000*%
%TD*%
%TA.AperFunction,SMDPad,CuDef*%
%ADD14RoundRect,0.250000X0.650000X-0.412500X0.650000X0.412500X-0.650000X0.412500X-0.650000X-0.412500X0*%
%TD*%
%TA.AperFunction,SMDPad,CuDef*%
%ADD15R,1.699200X0.701600*%
%TD*%
%TA.AperFunction,SMDPad,CuDef*%
%ADD16RoundRect,0.150000X0.825000X0.150000X-0.825000X0.150000X-0.825000X-0.150000X0.825000X-0.150000X0*%
%TD*%
%TA.AperFunction,SMDPad,CuDef*%
%ADD17RoundRect,0.250000X-0.412500X-0.650000X0.412500X-0.650000X0.412500X0.650000X-0.412500X0.650000X0*%
%TD*%
%TA.AperFunction,ViaPad*%
%ADD18C,0.800000*%
%TD*%
%TA.AperFunction,Conductor*%
%ADD19C,0.635000*%
%TD*%
%TA.AperFunction,Conductor*%
%ADD20C,0.250000*%
%TD*%
G04 APERTURE END LIST*
D10*
%TO.P,H2,1*%
%TO.N,N/C*%
X100000000Y-100000000D03*
%TD*%
D11*
%TO.P,H3,1*%
%TO.N,N/C*%
X100000000Y-137000000D03*
%TD*%
%TO.P,H4,1*%
%TO.N,N/C*%
X137000000Y-100000000D03*
%TD*%
%TO.P,H5,1*%
%TO.N,N/C*%
X63000000Y-100000000D03*
%TD*%
%TO.P,H1,1*%
%TO.N,N/C*%
X100000000Y-63000000D03*
%TD*%
D12*
%TO.P,J5,1,Pin_1*%
%TO.N,Net-(J5-Pin_1)*%
X114300000Y-113665000D03*
D13*
%TO.P,J5,2,Pin_2*%
%TO.N,Net-(J5-Pin_2)*%
X116840000Y-113665000D03*
%TO.P,J5,3,Pin_3*%
%TO.N,Net-(J5-Pin_3)*%
X119380000Y-113665000D03*
%TD*%
D12*
%TO.P,J1,1,Pin_1*%
%TO.N,Net-(J1-Pin_1)*%
X125685000Y-143555000D03*
D13*
%TO.P,J1,2,Pin_2*%
%TO.N,Net-(J1-Pin_2)*%
X128225000Y-143555000D03*
%TO.P,J1,3,Pin_3*%
%TO.N,Net-(J1-Pin_3)*%
X130765000Y-143555000D03*
%TD*%
D14*
%TO.P,C4,1*%
%TO.N,Net-(J4-Pin_1)*%
X76835000Y-65355000D03*
%TO.P,C4,2*%
%TO.N,Net-(J4-Pin_3)*%
X76835000Y-62230000D03*
%TD*%
D12*
%TO.P,J3,1,Pin_1*%
%TO.N,Net-(J3-Pin_1)*%
X125685000Y-56560000D03*
D13*
%TO.P,J3,2,Pin_2*%
%TO.N,Net-(J3-Pin_2)*%
X128225000Y-56560000D03*
%TO.P,J3,3,Pin_3*%
%TO.N,Net-(J3-Pin_3)*%
X130765000Y-56560000D03*
%TD*%
D12*
%TO.P,J4,1,Pin_1*%
%TO.N,Net-(J4-Pin_1)*%
X69215000Y-56515000D03*
D13*
%TO.P,J4,2,Pin_2*%
%TO.N,Net-(J4-Pin_2)*%
X71755000Y-56515000D03*
%TO.P,J4,3,Pin_3*%
%TO.N,Net-(J4-Pin_3)*%
X74295000Y-56515000D03*
%TD*%
D14*
%TO.P,C3,1*%
%TO.N,Net-(J3-Pin_1)*%
X133985000Y-65062500D03*
%TO.P,C3,2*%
%TO.N,Net-(J3-Pin_3)*%
X133985000Y-61937500D03*
%TD*%
D12*
%TO.P,J2,1,Pin_1*%
%TO.N,Net-(J2-Pin_1)*%
X69215000Y-143510000D03*
D13*
%TO.P,J2,2,Pin_2*%
%TO.N,Net-(J2-Pin_2)*%
X71755000Y-143510000D03*
%TO.P,J2,3,Pin_3*%
%TO.N,Net-(J2-Pin_3)*%
X74295000Y-143510000D03*
%TD*%
D14*
%TO.P,C1,1*%
%TO.N,Net-(J1-Pin_1)*%
X133985000Y-137452500D03*
%TO.P,C1,2*%
%TO.N,Net-(J1-Pin_3)*%
X133985000Y-134327500D03*
%TD*%
%TO.P,C2,1*%
%TO.N,Net-(J2-Pin_1)*%
X78105000Y-138087500D03*
%TO.P,C2,2*%
%TO.N,Net-(J2-Pin_3)*%
X78105000Y-134962500D03*
%TD*%
D15*
%TO.P,R3,1*%
%TO.N,Net-(J3-Pin_2)*%
X123825000Y-62099200D03*
%TO.P,R3,2*%
%TO.N,Net-(D3-A-PadB2)*%
X123825000Y-64900800D03*
%TD*%
D16*
%TO.P,U1,1,Vout*%
%TO.N,Net-(J5-Pin_3)*%
X120575000Y-125395000D03*
%TO.P,U1,2*%
%TO.N,N/C*%
X120575000Y-126665000D03*
%TO.P,U1,3*%
X120575000Y-127935000D03*
%TO.P,U1,4,GND*%
%TO.N,Net-(J5-Pin_1)*%
X120575000Y-129205000D03*
%TO.P,U1,5,~{SHUTDOWN}*%
%TO.N,Net-(J5-Pin_2)*%
X115625000Y-129205000D03*
%TO.P,U1,6*%
%TO.N,N/C*%
X115625000Y-127935000D03*
%TO.P,U1,7*%
X115625000Y-126665000D03*
%TO.P,U1,8,+Vs*%
%TO.N,Net-(J5-Pin_2)*%
X115625000Y-125395000D03*
%TD*%
D17*
%TO.P,C5,1*%
%TO.N,Net-(J5-Pin_2)*%
X115737500Y-121900000D03*
%TO.P,C5,2*%
%TO.N,Net-(J5-Pin_1)*%
X118862500Y-121900000D03*
%TD*%
D15*
%TO.P,R4,1*%
%TO.N,Net-(D4-A-PadB2)*%
X67310000Y-64719200D03*
%TO.P,R4,2*%
%TO.N,Net-(J4-Pin_2)*%
X67310000Y-61917600D03*
%TD*%
%TO.P,R2,1*%
%TO.N,Net-(D2-A-PadB2)*%
X67310000Y-135124200D03*
%TO.P,R2,2*%
%TO.N,Net-(J2-Pin_2)*%
X67310000Y-137925800D03*
%TD*%
%TO.P,R1,1*%
%TO.N,Net-(D1-A-PadB2)*%
X124460000Y-134489200D03*
%TO.P,R1,2*%
%TO.N,Net-(J1-Pin_2)*%
X124460000Y-137290800D03*
%TD*%
D18*
%TO.N,Net-(J1-Pin_3)*%
X130810000Y-134620000D03*
%TO.N,Net-(J2-Pin_3)*%
X74295000Y-134620000D03*
%TO.N,Net-(J3-Pin_3)*%
X130810000Y-62230000D03*
%TO.N,Net-(J4-Pin_3)*%
X74295000Y-62230000D03*
%TO.N,Net-(D1-A-PadB2)*%
X127000000Y-133350000D03*
%TO.N,Net-(J2-Pin_2)*%
X71755000Y-139700000D03*
%TO.N,Net-(J3-Pin_2)*%
X128270000Y-60325000D03*
%TO.N,Net-(J4-Pin_2)*%
X71755000Y-60325000D03*
%TO.N,Net-(J1-Pin_2)*%
X128270000Y-139065000D03*
%TO.N,Net-(D2-A-PadB2)*%
X70485000Y-133350000D03*
%TO.N,Net-(D3-A-PadB2)*%
X127000000Y-67310000D03*
%TO.N,Net-(D4-A-PadB2)*%
X70485000Y-66675000D03*
%TD*%
D19*
%TO.N,Net-(J1-Pin_3)*%
X130810000Y-134620000D02*
X133692500Y-134620000D01*
X133692500Y-134620000D02*
X133985000Y-134327500D01*
%TO.N,Net-(J2-Pin_3)*%
X77762500Y-134620000D02*
X78105000Y-134962500D01*
X74295000Y-134620000D02*
X77762500Y-134620000D01*
%TO.N,Net-(J3-Pin_3)*%
X130810000Y-62230000D02*
X133692500Y-62230000D01*
X133692500Y-62230000D02*
X133985000Y-61937500D01*
%TO.N,Net-(J4-Pin_3)*%
X74295000Y-62230000D02*
X76835000Y-62230000D01*
D20*
%TO.N,Net-(J5-Pin_2)*%
X113100000Y-124537500D02*
X113468750Y-124168750D01*
X115248928Y-129205000D02*
X115243928Y-129200000D01*
X110800000Y-110200000D02*
X115700000Y-110200000D01*
X115625000Y-125395000D02*
X114695000Y-125395000D01*
X116915000Y-111415000D02*
X116915000Y-113700000D01*
X113100000Y-129200000D02*
X113100000Y-124537500D01*
X115737500Y-121900000D02*
X110800000Y-116962500D01*
X114695000Y-125395000D02*
X113468750Y-124168750D01*
X115700000Y-110200000D02*
X116915000Y-111415000D01*
X110800000Y-116962500D02*
X110800000Y-110200000D01*
X113468750Y-124168750D02*
X115737500Y-121900000D01*
X115625000Y-129205000D02*
X115248928Y-129205000D01*
X115243928Y-129200000D02*
X113100000Y-129200000D01*
%TO.N,Net-(J5-Pin_1)*%
X119395000Y-129205000D02*
X118000000Y-127810000D01*
X114375000Y-117412500D02*
X114375000Y-113700000D01*
X120575000Y-129205000D02*
X119395000Y-129205000D01*
X118000000Y-122762500D02*
X118862500Y-121900000D01*
X118000000Y-127810000D02*
X118000000Y-122762500D01*
X118862500Y-121900000D02*
X114375000Y-117412500D01*
D19*
%TO.N,Net-(D1-A-PadB2)*%
X125730000Y-134620000D02*
X125599200Y-134489200D01*
X125599200Y-134489200D02*
X124460000Y-134489200D01*
X127000000Y-133350000D02*
X125730000Y-134620000D01*
%TO.N,Net-(J2-Pin_2)*%
X69896700Y-137841700D02*
X67945000Y-137841700D01*
X71755000Y-139700000D02*
X69896700Y-137841700D01*
%TO.N,Net-(J3-Pin_2)*%
X123825000Y-62099200D02*
X126495800Y-62099200D01*
X126495800Y-62099200D02*
X128270000Y-60325000D01*
%TO.N,Net-(J4-Pin_2)*%
X70162400Y-61917600D02*
X71755000Y-60325000D01*
X67310000Y-61917600D02*
X70162400Y-61917600D01*
%TO.N,Net-(J1-Pin_2)*%
X126365000Y-137160000D02*
X126234200Y-137290800D01*
X126234200Y-137290800D02*
X124460000Y-137290800D01*
X128270000Y-139065000D02*
X126365000Y-137160000D01*
D20*
%TO.N,Net-(J5-Pin_3)*%
X120575000Y-125395000D02*
X120575000Y-114820000D01*
X120575000Y-114820000D02*
X119455000Y-113700000D01*
D19*
%TO.N,Net-(D2-A-PadB2)*%
X70485000Y-133350000D02*
X68710800Y-135124200D01*
X68710800Y-135124200D02*
X67310000Y-135124200D01*
%TO.N,Net-(D3-A-PadB2)*%
X127000000Y-67310000D02*
X124506700Y-64816700D01*
X124506700Y-64816700D02*
X123825000Y-64816700D01*
%TO.N,Net-(D4-A-PadB2)*%
X70485000Y-66040000D02*
X69164200Y-64719200D01*
X70485000Y-66675000D02*
X70485000Y-66040000D01*
X69164200Y-64719200D02*
X67310000Y-64719200D01*
%TD*%
%TA.AperFunction,Conductor*%
%TO.N,Net-(J3-Pin_1)*%
G36*
X148942121Y-51020002D02*
G01*
X148988614Y-51073658D01*
X149000000Y-51126000D01*
X149000000Y-98874000D01*
X148979998Y-98942121D01*
X148926342Y-98988614D01*
X148874000Y-99000000D01*
X144056178Y-99000000D01*
X143988057Y-98979998D01*
X143941564Y-98926342D01*
X143932375Y-98897425D01*
X143897659Y-98713953D01*
X143845369Y-98437589D01*
X143709468Y-97930403D01*
X143580392Y-97561525D01*
X143536049Y-97434799D01*
X143536048Y-97434798D01*
X143536046Y-97434791D01*
X143326072Y-96953524D01*
X143326069Y-96953519D01*
X143326062Y-96953503D01*
X143171250Y-96660588D01*
X143080719Y-96489295D01*
X143080709Y-96489279D01*
X142801366Y-96044706D01*
X142801354Y-96044689D01*
X142489561Y-95622224D01*
X142489548Y-95622208D01*
X142147067Y-95224239D01*
X142147058Y-95224228D01*
X142147045Y-95224215D01*
X142147034Y-95224203D01*
X141775796Y-94852965D01*
X141775784Y-94852954D01*
X141775772Y-94852942D01*
X141674361Y-94765671D01*
X141377791Y-94510451D01*
X141377775Y-94510438D01*
X140955310Y-94198645D01*
X140955293Y-94198633D01*
X140510720Y-93919290D01*
X140510712Y-93919285D01*
X140510705Y-93919281D01*
X140465089Y-93895172D01*
X140046496Y-93673937D01*
X140046470Y-93673925D01*
X139862513Y-93593666D01*
X139565209Y-93463954D01*
X139565202Y-93463951D01*
X139565200Y-93463950D01*
X139069605Y-93290534D01*
X138562412Y-93154631D01*
X138046487Y-93057013D01*
X137524711Y-92998222D01*
X137000000Y-92978590D01*
X136475288Y-92998222D01*
X135953512Y-93057013D01*
X135437587Y-93154631D01*
X134930394Y-93290534D01*
X134434799Y-93463950D01*
X134434796Y-93463952D01*
X133953529Y-93673925D01*
X133953503Y-93673937D01*
X133489300Y-93919278D01*
X133489279Y-93919290D01*
X133044706Y-94198633D01*
X133044689Y-94198645D01*
X132622224Y-94510438D01*
X132622208Y-94510451D01*
X132224239Y-94852932D01*
X132224203Y-94852965D01*
X131852965Y-95224203D01*
X131852932Y-95224239D01*
X131510451Y-95622208D01*
X131510438Y-95622224D01*
X131198645Y-96044689D01*
X131198633Y-96044706D01*
X130919290Y-96489279D01*
X130919278Y-96489300D01*
X130673937Y-96953503D01*
X130673925Y-96953529D01*
X130463952Y-97434796D01*
X130463950Y-97434799D01*
X130290534Y-97930394D01*
X130154631Y-98437587D01*
X130067625Y-98897425D01*
X130035308Y-98960639D01*
X129973944Y-98996347D01*
X129943822Y-99000000D01*
X109477770Y-99000000D01*
X109409649Y-98979998D01*
X109363156Y-98926342D01*
X109352377Y-98886350D01*
X109340942Y-98770251D01*
X109340941Y-98770249D01*
X109340941Y-98770242D01*
X109240512Y-98161948D01*
X109186523Y-97930403D01*
X109100512Y-97561520D01*
X108921547Y-96971555D01*
X108921545Y-96971547D01*
X108740040Y-96489300D01*
X108704372Y-96394531D01*
X108449926Y-95832958D01*
X108159296Y-95289228D01*
X107833728Y-94765671D01*
X107474613Y-94264527D01*
X107083492Y-93787944D01*
X106662038Y-93337962D01*
X106212056Y-92916508D01*
X105735473Y-92525387D01*
X105234329Y-92166272D01*
X104710772Y-91840704D01*
X104710771Y-91840703D01*
X104167054Y-91550080D01*
X104167037Y-91550071D01*
X103754548Y-91363174D01*
X103605469Y-91295628D01*
X103605464Y-91295626D01*
X103028452Y-91078454D01*
X103028444Y-91078452D01*
X102438479Y-90899487D01*
X101838066Y-90759490D01*
X101229760Y-90659059D01*
X101113649Y-90647622D01*
X101047817Y-90621039D01*
X101006807Y-90563084D01*
X101000000Y-90522229D01*
X101000000Y-70056178D01*
X101020002Y-69988057D01*
X101073658Y-69941564D01*
X101102575Y-69932375D01*
X101257671Y-69903028D01*
X101562411Y-69845369D01*
X102069597Y-69709468D01*
X102565209Y-69536046D01*
X103046476Y-69326072D01*
X103046487Y-69326065D01*
X103046496Y-69326062D01*
X103198527Y-69245710D01*
X103510705Y-69080719D01*
X103955301Y-68801361D01*
X104377778Y-68489559D01*
X104775772Y-68147058D01*
X105147058Y-67775772D01*
X105489559Y-67377778D01*
X105801361Y-66955301D01*
X106080719Y-66510705D01*
X106287166Y-66120090D01*
X106326062Y-66046496D01*
X106326065Y-66046487D01*
X106326072Y-66046476D01*
X106536046Y-65565209D01*
X106628307Y-65301542D01*
X121958900Y-65301542D01*
X121973606Y-65450860D01*
X121973606Y-65450863D01*
X122031732Y-65642477D01*
X122031734Y-65642483D01*
X122112670Y-65793902D01*
X122126122Y-65819069D01*
X122253148Y-65973852D01*
X122407931Y-66100878D01*
X122584520Y-66195267D01*
X122776131Y-66253392D01*
X122776136Y-66253392D01*
X122776138Y-66253393D01*
X122885469Y-66264160D01*
X122925466Y-66268100D01*
X124019349Y-66268100D01*
X124087470Y-66288102D01*
X124108444Y-66305005D01*
X125701953Y-67898514D01*
X125728245Y-67936995D01*
X125749955Y-67986489D01*
X125854865Y-68147067D01*
X125878351Y-68183014D01*
X126037342Y-68355725D01*
X126222592Y-68499910D01*
X126222593Y-68499911D01*
X126429048Y-68611639D01*
X126429050Y-68611640D01*
X126545622Y-68651659D01*
X126651078Y-68687862D01*
X126882625Y-68726500D01*
X126882629Y-68726500D01*
X127117371Y-68726500D01*
X127117375Y-68726500D01*
X127348922Y-68687862D01*
X127570952Y-68611639D01*
X127777407Y-68499911D01*
X127962658Y-68355725D01*
X128121649Y-68183014D01*
X128250044Y-67986490D01*
X128344342Y-67771513D01*
X128401970Y-67543947D01*
X128421355Y-67310000D01*
X128401970Y-67076053D01*
X128401969Y-67076049D01*
X128401968Y-67076043D01*
X128344342Y-66848487D01*
X128344340Y-66848483D01*
X128250044Y-66633510D01*
X128121651Y-66436989D01*
X128121650Y-66436988D01*
X128121649Y-66436986D01*
X127962658Y-66264275D01*
X127873994Y-66195265D01*
X127777409Y-66120090D01*
X127641371Y-66046470D01*
X127617539Y-66033572D01*
X127588416Y-66011855D01*
X126893061Y-65316500D01*
X132450000Y-65316500D01*
X132450000Y-65536938D01*
X132456082Y-65614210D01*
X132504230Y-65793902D01*
X132588687Y-65959658D01*
X132588688Y-65959661D01*
X132705763Y-66104236D01*
X132850338Y-66221311D01*
X132850341Y-66221312D01*
X133016097Y-66305769D01*
X133195789Y-66353917D01*
X133273061Y-66360000D01*
X133731000Y-66360000D01*
X133731000Y-65316500D01*
X134239000Y-65316500D01*
X134239000Y-66360000D01*
X134696939Y-66360000D01*
X134774210Y-66353917D01*
X134953902Y-66305769D01*
X135119658Y-66221312D01*
X135119661Y-66221311D01*
X135264236Y-66104236D01*
X135381311Y-65959661D01*
X135381312Y-65959658D01*
X135465769Y-65793902D01*
X135513917Y-65614210D01*
X135520000Y-65536938D01*
X135520000Y-65316500D01*
X134239000Y-65316500D01*
X133731000Y-65316500D01*
X132450000Y-65316500D01*
X126893061Y-65316500D01*
X126646158Y-65069597D01*
X125408794Y-63832233D01*
X125408793Y-63832232D01*
X125388125Y-63811564D01*
X125367458Y-63790896D01*
X125367456Y-63790894D01*
X125321813Y-63758935D01*
X125317450Y-63755587D01*
X125274780Y-63719782D01*
X125274779Y-63719781D01*
X125274774Y-63719777D01*
X125266603Y-63715059D01*
X125245741Y-63703013D01*
X125242264Y-63700851D01*
X125242077Y-63700726D01*
X125238941Y-63699050D01*
X125237170Y-63698066D01*
X125226510Y-63691911D01*
X125221881Y-63688961D01*
X125183966Y-63662413D01*
X125139638Y-63606956D01*
X125132329Y-63536336D01*
X125164360Y-63472976D01*
X125225561Y-63436991D01*
X125256237Y-63433200D01*
X126612507Y-63433200D01*
X126612510Y-63433200D01*
X126667382Y-63423524D01*
X126672814Y-63422809D01*
X126728332Y-63417952D01*
X126782174Y-63403524D01*
X126787492Y-63402345D01*
X126836860Y-63393640D01*
X126842378Y-63392668D01*
X126842379Y-63392668D01*
X126842380Y-63392667D01*
X126842383Y-63392667D01*
X126894735Y-63373611D01*
X126899975Y-63371960D01*
X126953798Y-63357539D01*
X127004291Y-63333992D01*
X127009352Y-63331895D01*
X127061727Y-63312834D01*
X127110008Y-63284957D01*
X127114842Y-63282441D01*
X127165348Y-63258891D01*
X127210997Y-63226925D01*
X127215594Y-63223997D01*
X127263874Y-63196123D01*
X127306568Y-63160296D01*
X127310911Y-63156965D01*
X127356554Y-63125007D01*
X127539327Y-62942234D01*
X127539329Y-62942231D01*
X128251560Y-62229999D01*
X129388645Y-62229999D01*
X129408030Y-62463950D01*
X129408031Y-62463956D01*
X129465657Y-62691512D01*
X129465659Y-62691516D01*
X129559955Y-62906489D01*
X129594885Y-62959954D01*
X129688351Y-63103014D01*
X129745367Y-63164950D01*
X129831841Y-63258887D01*
X129847342Y-63275725D01*
X129992722Y-63388878D01*
X130032592Y-63419910D01*
X130032593Y-63419911D01*
X130239048Y-63531639D01*
X130239050Y-63531640D01*
X130333312Y-63564000D01*
X130461078Y-63607862D01*
X130692625Y-63646500D01*
X130692629Y-63646500D01*
X130927371Y-63646500D01*
X130927375Y-63646500D01*
X131158922Y-63607862D01*
X131253758Y-63575305D01*
X131266802Y-63570827D01*
X131307714Y-63564000D01*
X132953909Y-63564000D01*
X132984691Y-63567817D01*
X133014407Y-63575305D01*
X133075574Y-63611343D01*
X133107549Y-63674732D01*
X133100178Y-63745345D01*
X133055801Y-63800763D01*
X133022106Y-63816459D01*
X133022262Y-63816863D01*
X133016455Y-63819091D01*
X133016247Y-63819189D01*
X133016100Y-63819228D01*
X132850341Y-63903687D01*
X132850338Y-63903688D01*
X132705763Y-64020763D01*
X132588688Y-64165338D01*
X132588687Y-64165341D01*
X132504230Y-64331097D01*
X132456082Y-64510789D01*
X132450000Y-64588061D01*
X132450000Y-64808500D01*
X135520000Y-64808500D01*
X135520000Y-64588061D01*
X135513917Y-64510789D01*
X135465769Y-64331097D01*
X135381312Y-64165341D01*
X135381311Y-64165338D01*
X135264236Y-64020763D01*
X135119661Y-63903688D01*
X135119658Y-63903687D01*
X134953899Y-63819228D01*
X134953757Y-63819190D01*
X134953683Y-63819145D01*
X134947738Y-63816863D01*
X134948155Y-63815775D01*
X134893137Y-63782233D01*
X134862121Y-63718370D01*
X134870555Y-63647876D01*
X134915763Y-63593133D01*
X134955588Y-63575306D01*
X135054989Y-63550260D01*
X135262554Y-63455979D01*
X135449950Y-63326152D01*
X135611152Y-63164950D01*
X135740979Y-62977554D01*
X135835260Y-62769989D01*
X135890963Y-62548925D01*
X135901500Y-62415042D01*
X135901500Y-61459958D01*
X135890963Y-61326075D01*
X135835260Y-61105011D01*
X135755021Y-60928360D01*
X135740981Y-60897450D01*
X135740980Y-60897449D01*
X135740979Y-60897446D01*
X135611152Y-60710050D01*
X135611150Y-60710048D01*
X135611142Y-60710039D01*
X135449960Y-60548857D01*
X135449951Y-60548849D01*
X135285328Y-60434799D01*
X135262554Y-60419021D01*
X135262552Y-60419020D01*
X135262549Y-60419018D01*
X135054994Y-60324742D01*
X135054991Y-60324741D01*
X135054989Y-60324740D01*
X134833925Y-60269037D01*
X134700042Y-60258500D01*
X133269958Y-60258500D01*
X133136075Y-60269037D01*
X133136071Y-60269037D01*
X133136070Y-60269038D01*
X132915014Y-60324739D01*
X132915005Y-60324742D01*
X132707450Y-60419018D01*
X132520048Y-60548849D01*
X132520039Y-60548857D01*
X132358857Y-60710039D01*
X132358850Y-60710048D01*
X132358848Y-60710050D01*
X132287179Y-60813500D01*
X132267604Y-60841755D01*
X132212368Y-60886359D01*
X132164031Y-60896000D01*
X131307714Y-60896000D01*
X131266802Y-60889173D01*
X131158926Y-60852139D01*
X131158917Y-60852137D01*
X131112877Y-60844454D01*
X130927375Y-60813500D01*
X130692625Y-60813500D01*
X130538076Y-60839289D01*
X130461082Y-60852137D01*
X130461073Y-60852139D01*
X130239050Y-60928359D01*
X130239048Y-60928360D01*
X130032593Y-61040088D01*
X130032592Y-61040089D01*
X129847339Y-61184277D01*
X129688348Y-61356989D01*
X129559955Y-61553510D01*
X129465659Y-61768483D01*
X129465657Y-61768487D01*
X129408031Y-61996043D01*
X129408030Y-61996049D01*
X129388645Y-62229999D01*
X128251560Y-62229999D01*
X128858419Y-61623140D01*
X128887541Y-61601425D01*
X129047407Y-61514911D01*
X129232658Y-61370725D01*
X129391649Y-61198014D01*
X129520044Y-61001490D01*
X129614342Y-60786513D01*
X129671970Y-60558947D01*
X129691355Y-60325000D01*
X129671970Y-60091053D01*
X129671969Y-60091049D01*
X129671968Y-60091043D01*
X129614342Y-59863487D01*
X129614340Y-59863483D01*
X129558633Y-59736485D01*
X129520044Y-59648510D01*
X129391649Y-59451986D01*
X129232658Y-59279275D01*
X129047407Y-59135089D01*
X129047406Y-59135088D01*
X128840951Y-59023360D01*
X128840949Y-59023359D01*
X128618926Y-58947139D01*
X128618917Y-58947137D01*
X128572877Y-58939454D01*
X128387375Y-58908500D01*
X128152625Y-58908500D01*
X127998076Y-58934289D01*
X127921082Y-58947137D01*
X127921073Y-58947139D01*
X127699050Y-59023359D01*
X127699048Y-59023360D01*
X127492593Y-59135088D01*
X127492592Y-59135089D01*
X127307339Y-59279277D01*
X127148348Y-59451989D01*
X127019958Y-59648506D01*
X127019950Y-59648520D01*
X126998243Y-59698006D01*
X126971952Y-59736485D01*
X125980142Y-60728296D01*
X125917832Y-60762320D01*
X125891049Y-60765200D01*
X124953847Y-60765200D01*
X124917272Y-60759774D01*
X124873869Y-60746608D01*
X124873860Y-60746606D01*
X124724542Y-60731900D01*
X124724534Y-60731900D01*
X122925466Y-60731900D01*
X122925457Y-60731900D01*
X122776139Y-60746606D01*
X122776136Y-60746606D01*
X122584522Y-60804732D01*
X122584516Y-60804734D01*
X122407933Y-60899120D01*
X122253148Y-61026148D01*
X122126120Y-61180933D01*
X122031734Y-61357516D01*
X122031732Y-61357522D01*
X121973606Y-61549136D01*
X121973606Y-61549139D01*
X121958900Y-61698457D01*
X121958900Y-62499942D01*
X121973606Y-62649260D01*
X121973606Y-62649263D01*
X122031732Y-62840877D01*
X122031734Y-62840883D01*
X122126120Y-63017466D01*
X122126122Y-63017469D01*
X122253148Y-63172252D01*
X122407931Y-63299278D01*
X122407933Y-63299279D01*
X122575560Y-63388878D01*
X122626208Y-63438630D01*
X122641918Y-63507867D01*
X122617702Y-63574606D01*
X122575560Y-63611122D01*
X122407933Y-63700720D01*
X122253148Y-63827748D01*
X122126120Y-63982533D01*
X122031734Y-64159116D01*
X122031732Y-64159122D01*
X121973606Y-64350736D01*
X121973606Y-64350739D01*
X121958900Y-64500057D01*
X121958900Y-65301542D01*
X106628307Y-65301542D01*
X106709468Y-65069597D01*
X106845369Y-64562411D01*
X106942987Y-64046487D01*
X107001777Y-63524711D01*
X107021410Y-63000000D01*
X107001777Y-62475289D01*
X106942987Y-61953513D01*
X106845369Y-61437589D01*
X106709468Y-60930403D01*
X106709465Y-60930394D01*
X106536049Y-60434799D01*
X106536048Y-60434798D01*
X106536046Y-60434791D01*
X106326072Y-59953524D01*
X106326069Y-59953519D01*
X106326062Y-59953503D01*
X106164865Y-59648506D01*
X106080719Y-59489295D01*
X105858157Y-59135089D01*
X105801366Y-59044706D01*
X105801354Y-59044689D01*
X105489561Y-58622224D01*
X105489548Y-58622208D01*
X105147067Y-58224239D01*
X105147058Y-58224228D01*
X105147045Y-58224215D01*
X105147034Y-58224203D01*
X104775796Y-57852965D01*
X104775784Y-57852954D01*
X104775772Y-57852942D01*
X104689864Y-57779012D01*
X104377791Y-57510451D01*
X104377775Y-57510438D01*
X104328587Y-57474136D01*
X124200000Y-57474136D01*
X124202832Y-57510117D01*
X124202834Y-57510130D01*
X124247595Y-57664197D01*
X124329261Y-57802285D01*
X124329266Y-57802292D01*
X124442707Y-57915733D01*
X124442714Y-57915738D01*
X124580802Y-57997404D01*
X124734869Y-58042165D01*
X124734882Y-58042167D01*
X124770863Y-58044999D01*
X124770865Y-58045000D01*
X125431000Y-58045000D01*
X125431000Y-56993674D01*
X125542685Y-57044680D01*
X125649237Y-57060000D01*
X125720763Y-57060000D01*
X125827315Y-57044680D01*
X125939000Y-56993674D01*
X125939000Y-58045000D01*
X126599135Y-58045000D01*
X126599136Y-58044999D01*
X126635117Y-58042167D01*
X126635130Y-58042165D01*
X126789195Y-57997404D01*
X126852058Y-57960227D01*
X126920874Y-57942767D01*
X126988205Y-57965283D01*
X126998723Y-57973467D01*
X126999575Y-57974205D01*
X126999580Y-57974210D01*
X127213316Y-58134211D01*
X127447647Y-58262165D01*
X127697803Y-58355468D01*
X127697806Y-58355468D01*
X127697810Y-58355470D01*
X127848788Y-58388313D01*
X127958691Y-58412221D01*
X128225000Y-58431268D01*
X128491309Y-58412221D01*
X128752188Y-58355470D01*
X128752189Y-58355470D01*
X128752190Y-58355469D01*
X128752197Y-58355468D01*
X129002353Y-58262165D01*
X129236684Y-58134211D01*
X129419491Y-57997362D01*
X129486011Y-57972552D01*
X129555385Y-57987643D01*
X129570507Y-57997361D01*
X129753316Y-58134211D01*
X129987647Y-58262165D01*
X130237803Y-58355468D01*
X130237806Y-58355468D01*
X130237810Y-58355470D01*
X130388788Y-58388313D01*
X130498691Y-58412221D01*
X130765000Y-58431268D01*
X131031309Y-58412221D01*
X131292188Y-58355470D01*
X131292189Y-58355470D01*
X131292190Y-58355469D01*
X131292197Y-58355468D01*
X131542353Y-58262165D01*
X131776684Y-58134211D01*
X131990420Y-57974210D01*
X132179210Y-57785420D01*
X132339211Y-57571684D01*
X132467165Y-57337353D01*
X132560468Y-57087197D01*
X132617221Y-56826309D01*
X132636268Y-56560000D01*
X132617221Y-56293691D01*
X132568043Y-56067625D01*
X132560470Y-56032811D01*
X132560470Y-56032810D01*
X132560468Y-56032806D01*
X132560468Y-56032803D01*
X132467165Y-55782647D01*
X132339211Y-55548316D01*
X132179210Y-55334580D01*
X131990420Y-55145790D01*
X131990417Y-55145788D01*
X131990414Y-55145785D01*
X131895856Y-55075000D01*
X131776684Y-54985789D01*
X131648728Y-54915920D01*
X131542352Y-54857834D01*
X131292189Y-54764529D01*
X131031311Y-54707779D01*
X131031313Y-54707779D01*
X130818261Y-54692541D01*
X130765000Y-54688732D01*
X130764999Y-54688732D01*
X130498687Y-54707779D01*
X130237811Y-54764529D01*
X130237810Y-54764529D01*
X129987647Y-54857834D01*
X129753316Y-54985789D01*
X129570509Y-55122636D01*
X129503988Y-55147447D01*
X129434614Y-55132355D01*
X129419491Y-55122636D01*
X129324673Y-55051657D01*
X129236684Y-54985789D01*
X129108728Y-54915920D01*
X129002352Y-54857834D01*
X128752189Y-54764529D01*
X128491311Y-54707779D01*
X128491313Y-54707779D01*
X128278261Y-54692541D01*
X128225000Y-54688732D01*
X128224999Y-54688732D01*
X127958687Y-54707779D01*
X127697811Y-54764529D01*
X127697810Y-54764529D01*
X127447647Y-54857834D01*
X127213316Y-54985789D01*
X126999580Y-55145790D01*
X126998700Y-55146553D01*
X126998345Y-55146715D01*
X126995978Y-55148487D01*
X126995592Y-55147971D01*
X126934116Y-55176039D01*
X126863843Y-55165927D01*
X126852059Y-55159772D01*
X126789197Y-55122595D01*
X126635130Y-55077834D01*
X126635117Y-55077832D01*
X126599136Y-55075000D01*
X125939000Y-55075000D01*
X125939000Y-56126325D01*
X125827315Y-56075320D01*
X125720763Y-56060000D01*
X125649237Y-56060000D01*
X125542685Y-56075320D01*
X125431000Y-56126325D01*
X125431000Y-55075000D01*
X124770864Y-55075000D01*
X124734882Y-55077832D01*
X124734869Y-55077834D01*
X124580802Y-55122595D01*
X124442714Y-55204261D01*
X124442707Y-55204266D01*
X124329266Y-55317707D01*
X124329261Y-55317714D01*
X124247595Y-55455802D01*
X124202834Y-55609869D01*
X124202832Y-55609882D01*
X124200000Y-55645863D01*
X124200000Y-56306000D01*
X125253884Y-56306000D01*
X125225507Y-56350156D01*
X125185000Y-56488111D01*
X125185000Y-56631889D01*
X125225507Y-56769844D01*
X125253884Y-56814000D01*
X124200000Y-56814000D01*
X124200000Y-57474136D01*
X104328587Y-57474136D01*
X103955310Y-57198645D01*
X103955293Y-57198633D01*
X103510720Y-56919290D01*
X103510712Y-56919285D01*
X103510705Y-56919281D01*
X103456813Y-56890798D01*
X103046496Y-56673937D01*
X103046470Y-56673925D01*
X102785347Y-56559999D01*
X102565209Y-56463954D01*
X102565202Y-56463951D01*
X102565200Y-56463950D01*
X102069605Y-56290534D01*
X101562412Y-56154631D01*
X101102575Y-56067625D01*
X101039361Y-56035308D01*
X101003653Y-55973944D01*
X101000000Y-55943822D01*
X101000000Y-51126000D01*
X101020002Y-51057879D01*
X101073658Y-51011386D01*
X101126000Y-51000000D01*
X148874000Y-51000000D01*
X148942121Y-51020002D01*
G37*
%TD.AperFunction*%
%TD*%
%TA.AperFunction,Conductor*%
%TO.N,Net-(J4-Pin_1)*%
G36*
X98942121Y-51020002D02*
G01*
X98988614Y-51073658D01*
X99000000Y-51126000D01*
X99000000Y-55943822D01*
X98979998Y-56011943D01*
X98926342Y-56058436D01*
X98897425Y-56067625D01*
X98437587Y-56154631D01*
X97930394Y-56290534D01*
X97434799Y-56463950D01*
X97434796Y-56463952D01*
X96953529Y-56673925D01*
X96953503Y-56673937D01*
X96489300Y-56919278D01*
X96489279Y-56919290D01*
X96044706Y-57198633D01*
X96044689Y-57198645D01*
X95622224Y-57510438D01*
X95622208Y-57510451D01*
X95224239Y-57852932D01*
X95224203Y-57852965D01*
X94852965Y-58224203D01*
X94852932Y-58224239D01*
X94510451Y-58622208D01*
X94510438Y-58622224D01*
X94198645Y-59044689D01*
X94198633Y-59044706D01*
X93919290Y-59489279D01*
X93919278Y-59489300D01*
X93673937Y-59953503D01*
X93673925Y-59953529D01*
X93463952Y-60434796D01*
X93463950Y-60434799D01*
X93290534Y-60930394D01*
X93154631Y-61437587D01*
X93057013Y-61953512D01*
X92998222Y-62475288D01*
X92978590Y-62999999D01*
X92998222Y-63524711D01*
X93057013Y-64046487D01*
X93154631Y-64562412D01*
X93290534Y-65069605D01*
X93463950Y-65565200D01*
X93463951Y-65565202D01*
X93463954Y-65565209D01*
X93543828Y-65748282D01*
X93673925Y-66046470D01*
X93673937Y-66046496D01*
X93859046Y-66396736D01*
X93901414Y-66476900D01*
X93919278Y-66510699D01*
X93919290Y-66510720D01*
X94198633Y-66955293D01*
X94198645Y-66955310D01*
X94510438Y-67377775D01*
X94510451Y-67377791D01*
X94779012Y-67689864D01*
X94852942Y-67775772D01*
X94852954Y-67775784D01*
X94852965Y-67775796D01*
X95224203Y-68147034D01*
X95224215Y-68147045D01*
X95224228Y-68147058D01*
X95346780Y-68252522D01*
X95622208Y-68489548D01*
X95622224Y-68489561D01*
X96044689Y-68801354D01*
X96044706Y-68801366D01*
X96489279Y-69080709D01*
X96489295Y-69080719D01*
X96660588Y-69171250D01*
X96953503Y-69326062D01*
X96953519Y-69326069D01*
X96953524Y-69326072D01*
X97434791Y-69536046D01*
X97434798Y-69536048D01*
X97434799Y-69536049D01*
X97930394Y-69709465D01*
X97930403Y-69709468D01*
X98437589Y-69845369D01*
X98713953Y-69897659D01*
X98897425Y-69932375D01*
X98960639Y-69964692D01*
X98996347Y-70026056D01*
X99000000Y-70056178D01*
X99000000Y-90522229D01*
X98979998Y-90590350D01*
X98926342Y-90636843D01*
X98886351Y-90647622D01*
X98770239Y-90659059D01*
X98161933Y-90759490D01*
X97561520Y-90899487D01*
X96971555Y-91078452D01*
X96971547Y-91078454D01*
X96394535Y-91295626D01*
X95832962Y-91550071D01*
X95832945Y-91550080D01*
X95289227Y-91840704D01*
X94765671Y-92166272D01*
X94765667Y-92166274D01*
X94264529Y-92525385D01*
X94264528Y-92525386D01*
X93787943Y-92916509D01*
X93337962Y-93337962D01*
X92916509Y-93787943D01*
X92525386Y-94264528D01*
X92525385Y-94264529D01*
X92166274Y-94765667D01*
X92166272Y-94765671D01*
X91840704Y-95289227D01*
X91550080Y-95832945D01*
X91550071Y-95832962D01*
X91295626Y-96394535D01*
X91078454Y-96971547D01*
X91078452Y-96971555D01*
X90899487Y-97561520D01*
X90759490Y-98161933D01*
X90659060Y-98770235D01*
X90659057Y-98770251D01*
X90647623Y-98886350D01*
X90621040Y-98952183D01*
X90563086Y-98993192D01*
X90522230Y-99000000D01*
X70056178Y-99000000D01*
X69988057Y-98979998D01*
X69941564Y-98926342D01*
X69932375Y-98897425D01*
X69897659Y-98713953D01*
X69845369Y-98437589D01*
X69709468Y-97930403D01*
X69580392Y-97561525D01*
X69536049Y-97434799D01*
X69536048Y-97434798D01*
X69536046Y-97434791D01*
X69326072Y-96953524D01*
X69326069Y-96953519D01*
X69326062Y-96953503D01*
X69171250Y-96660588D01*
X69080719Y-96489295D01*
X69080709Y-96489279D01*
X68801366Y-96044706D01*
X68801354Y-96044689D01*
X68489561Y-95622224D01*
X68489548Y-95622208D01*
X68147067Y-95224239D01*
X68147058Y-95224228D01*
X68147045Y-95224215D01*
X68147034Y-95224203D01*
X67775796Y-94852965D01*
X67775784Y-94852954D01*
X67775772Y-94852942D01*
X67674361Y-94765671D01*
X67377791Y-94510451D01*
X67377775Y-94510438D01*
X66955310Y-94198645D01*
X66955293Y-94198633D01*
X66510720Y-93919290D01*
X66510712Y-93919285D01*
X66510705Y-93919281D01*
X66465089Y-93895172D01*
X66046496Y-93673937D01*
X66046470Y-93673925D01*
X65862513Y-93593666D01*
X65565209Y-93463954D01*
X65565202Y-93463951D01*
X65565200Y-93463950D01*
X65069605Y-93290534D01*
X64562412Y-93154631D01*
X64046487Y-93057013D01*
X63524711Y-92998222D01*
X63018923Y-92979298D01*
X63000000Y-92978590D01*
X62999999Y-92978590D01*
X62475288Y-92998222D01*
X61953512Y-93057013D01*
X61437587Y-93154631D01*
X60930394Y-93290534D01*
X60434799Y-93463950D01*
X60434796Y-93463952D01*
X59953529Y-93673925D01*
X59953503Y-93673937D01*
X59489300Y-93919278D01*
X59489279Y-93919290D01*
X59044706Y-94198633D01*
X59044689Y-94198645D01*
X58622224Y-94510438D01*
X58622208Y-94510451D01*
X58224239Y-94852932D01*
X58224203Y-94852965D01*
X57852965Y-95224203D01*
X57852932Y-95224239D01*
X57510451Y-95622208D01*
X57510438Y-95622224D01*
X57198645Y-96044689D01*
X57198633Y-96044706D01*
X56919290Y-96489279D01*
X56919278Y-96489300D01*
X56673937Y-96953503D01*
X56673925Y-96953529D01*
X56463952Y-97434796D01*
X56463950Y-97434799D01*
X56290534Y-97930394D01*
X56154631Y-98437587D01*
X56067625Y-98897425D01*
X56035308Y-98960639D01*
X55973944Y-98996347D01*
X55943822Y-99000000D01*
X51126000Y-99000000D01*
X51057879Y-98979998D01*
X51011386Y-98926342D01*
X51000000Y-98874000D01*
X51000000Y-65119942D01*
X65443900Y-65119942D01*
X65458606Y-65269260D01*
X65458606Y-65269263D01*
X65516732Y-65460877D01*
X65516734Y-65460883D01*
X65581474Y-65582002D01*
X65611122Y-65637469D01*
X65738148Y-65792252D01*
X65892931Y-65919278D01*
X66069520Y-66013667D01*
X66261131Y-66071792D01*
X66261136Y-66071792D01*
X66261138Y-66071793D01*
X66370469Y-66082560D01*
X66410466Y-66086500D01*
X66410475Y-66086500D01*
X68209525Y-66086500D01*
X68209534Y-66086500D01*
X68306779Y-66076922D01*
X68358860Y-66071793D01*
X68358860Y-66071792D01*
X68358869Y-66071792D01*
X68402272Y-66058625D01*
X68438847Y-66053200D01*
X68559449Y-66053200D01*
X68627570Y-66073202D01*
X68648544Y-66090105D01*
X69035339Y-66476900D01*
X69069365Y-66539212D01*
X69071814Y-66576398D01*
X69063645Y-66674998D01*
X69083030Y-66908950D01*
X69083031Y-66908956D01*
X69140657Y-67136512D01*
X69140659Y-67136516D01*
X69234955Y-67351489D01*
X69252130Y-67377778D01*
X69363351Y-67548014D01*
X69522342Y-67720725D01*
X69593067Y-67775772D01*
X69707592Y-67864910D01*
X69707593Y-67864911D01*
X69914048Y-67976639D01*
X69914050Y-67976640D01*
X70030622Y-68016659D01*
X70136078Y-68052862D01*
X70367625Y-68091500D01*
X70367629Y-68091500D01*
X70602371Y-68091500D01*
X70602375Y-68091500D01*
X70833922Y-68052862D01*
X71055952Y-67976639D01*
X71262407Y-67864911D01*
X71447658Y-67720725D01*
X71606649Y-67548014D01*
X71735044Y-67351490D01*
X71829342Y-67136513D01*
X71875229Y-66955310D01*
X71886968Y-66908956D01*
X71886969Y-66908950D01*
X71886970Y-66908947D01*
X71906355Y-66675000D01*
X71886970Y-66441053D01*
X71886969Y-66441049D01*
X71886968Y-66441043D01*
X71857800Y-66325867D01*
X71829342Y-66213487D01*
X71829337Y-66213475D01*
X71827650Y-66208560D01*
X71828394Y-66208304D01*
X71819000Y-66163490D01*
X71819000Y-65923289D01*
X71816076Y-65906710D01*
X71809324Y-65868419D01*
X71808608Y-65862980D01*
X71807846Y-65854275D01*
X71803752Y-65807468D01*
X71789328Y-65753639D01*
X71788143Y-65748297D01*
X71778467Y-65693416D01*
X71759414Y-65641069D01*
X71757760Y-65635823D01*
X71750573Y-65609000D01*
X75300000Y-65609000D01*
X75300000Y-65829438D01*
X75306082Y-65906710D01*
X75354230Y-66086402D01*
X75438687Y-66252158D01*
X75438688Y-66252161D01*
X75555763Y-66396736D01*
X75700338Y-66513811D01*
X75700341Y-66513812D01*
X75866097Y-66598269D01*
X76045789Y-66646417D01*
X76123061Y-66652500D01*
X76581000Y-66652500D01*
X76581000Y-65609000D01*
X77089000Y-65609000D01*
X77089000Y-66652500D01*
X77546939Y-66652500D01*
X77624210Y-66646417D01*
X77803902Y-66598269D01*
X77969658Y-66513812D01*
X77969661Y-66513811D01*
X78114236Y-66396736D01*
X78231311Y-66252161D01*
X78231312Y-66252158D01*
X78315769Y-66086402D01*
X78363917Y-65906710D01*
X78370000Y-65829438D01*
X78370000Y-65609000D01*
X77089000Y-65609000D01*
X76581000Y-65609000D01*
X75300000Y-65609000D01*
X71750573Y-65609000D01*
X71743339Y-65582002D01*
X71719784Y-65531490D01*
X71717689Y-65526430D01*
X71698633Y-65474073D01*
X71670772Y-65425817D01*
X71668233Y-65420939D01*
X71644691Y-65370452D01*
X71612728Y-65324806D01*
X71609781Y-65320179D01*
X71581925Y-65271928D01*
X71581923Y-65271925D01*
X71546111Y-65229247D01*
X71542763Y-65224884D01*
X71527656Y-65203310D01*
X71510807Y-65179246D01*
X71363476Y-65031915D01*
X71363474Y-65031912D01*
X71134851Y-64803289D01*
X70084014Y-63752453D01*
X70084013Y-63752451D01*
X70024955Y-63693394D01*
X70024953Y-63693392D01*
X69979313Y-63661434D01*
X69974952Y-63658088D01*
X69932274Y-63622277D01*
X69932273Y-63622276D01*
X69905420Y-63606772D01*
X69884005Y-63594408D01*
X69879382Y-63591462D01*
X69840162Y-63564000D01*
X69833753Y-63559512D01*
X69833750Y-63559511D01*
X69833748Y-63559509D01*
X69783260Y-63535965D01*
X69778384Y-63533427D01*
X69730126Y-63505565D01*
X69730120Y-63505562D01*
X69703849Y-63496001D01*
X69646677Y-63453907D01*
X69621339Y-63387586D01*
X69635880Y-63318094D01*
X69685682Y-63267495D01*
X69746943Y-63251600D01*
X70279107Y-63251600D01*
X70279110Y-63251600D01*
X70333982Y-63241924D01*
X70339414Y-63241209D01*
X70394932Y-63236352D01*
X70448774Y-63221924D01*
X70454092Y-63220745D01*
X70503460Y-63212040D01*
X70508978Y-63211068D01*
X70508979Y-63211068D01*
X70508980Y-63211067D01*
X70508983Y-63211067D01*
X70561335Y-63192011D01*
X70566575Y-63190360D01*
X70620398Y-63175939D01*
X70670891Y-63152392D01*
X70675952Y-63150295D01*
X70728327Y-63131234D01*
X70776608Y-63103357D01*
X70781442Y-63100841D01*
X70831948Y-63077291D01*
X70877597Y-63045325D01*
X70882194Y-63042397D01*
X70930474Y-63014523D01*
X70973168Y-62978696D01*
X70977511Y-62975365D01*
X71023154Y-62943407D01*
X71188207Y-62778354D01*
X71736561Y-62229999D01*
X72873645Y-62229999D01*
X72893030Y-62463950D01*
X72893031Y-62463956D01*
X72950657Y-62691512D01*
X72950659Y-62691516D01*
X73044955Y-62906489D01*
X73171924Y-63100831D01*
X73173351Y-63103014D01*
X73272820Y-63211067D01*
X73327248Y-63270192D01*
X73332342Y-63275725D01*
X73492587Y-63400448D01*
X73517592Y-63419910D01*
X73517593Y-63419911D01*
X73724048Y-63531639D01*
X73724050Y-63531640D01*
X73805239Y-63559512D01*
X73946078Y-63607862D01*
X74177625Y-63646500D01*
X74177629Y-63646500D01*
X74412371Y-63646500D01*
X74412375Y-63646500D01*
X74643922Y-63607862D01*
X74751801Y-63570827D01*
X74792714Y-63564000D01*
X75263207Y-63564000D01*
X75331328Y-63584002D01*
X75352302Y-63600905D01*
X75370039Y-63618642D01*
X75370048Y-63618650D01*
X75370050Y-63618652D01*
X75557446Y-63748479D01*
X75557449Y-63748480D01*
X75557450Y-63748481D01*
X75640471Y-63786191D01*
X75765011Y-63842760D01*
X75864408Y-63867805D01*
X75925576Y-63903845D01*
X75957550Y-63967234D01*
X75950177Y-64037847D01*
X75905798Y-64093264D01*
X75872106Y-64108959D01*
X75872262Y-64109363D01*
X75866455Y-64111591D01*
X75866247Y-64111689D01*
X75866100Y-64111728D01*
X75700341Y-64196187D01*
X75700338Y-64196188D01*
X75555763Y-64313263D01*
X75438688Y-64457838D01*
X75438687Y-64457841D01*
X75354230Y-64623597D01*
X75306082Y-64803289D01*
X75300000Y-64880561D01*
X75300000Y-65101000D01*
X78370000Y-65101000D01*
X78370000Y-64880561D01*
X78363917Y-64803289D01*
X78315769Y-64623597D01*
X78231312Y-64457841D01*
X78231311Y-64457838D01*
X78114236Y-64313263D01*
X77969661Y-64196188D01*
X77969658Y-64196187D01*
X77803899Y-64111728D01*
X77803757Y-64111690D01*
X77803683Y-64111645D01*
X77797738Y-64109363D01*
X77798155Y-64108275D01*
X77743137Y-64074733D01*
X77712121Y-64010870D01*
X77720555Y-63940376D01*
X77765763Y-63885633D01*
X77805588Y-63867806D01*
X77904989Y-63842760D01*
X78112554Y-63748479D01*
X78299950Y-63618652D01*
X78461152Y-63457450D01*
X78590979Y-63270054D01*
X78685260Y-63062489D01*
X78740963Y-62841425D01*
X78751500Y-62707542D01*
X78751500Y-61752458D01*
X78740963Y-61618575D01*
X78685260Y-61397511D01*
X78590979Y-61189946D01*
X78461152Y-61002550D01*
X78461150Y-61002548D01*
X78461142Y-61002539D01*
X78299960Y-60841357D01*
X78299951Y-60841349D01*
X78259753Y-60813500D01*
X78112554Y-60711521D01*
X78112552Y-60711520D01*
X78112549Y-60711518D01*
X77904994Y-60617242D01*
X77904991Y-60617241D01*
X77904989Y-60617240D01*
X77683925Y-60561537D01*
X77550042Y-60551000D01*
X76119958Y-60551000D01*
X75986075Y-60561537D01*
X75986071Y-60561537D01*
X75986070Y-60561538D01*
X75765014Y-60617239D01*
X75765005Y-60617242D01*
X75557450Y-60711518D01*
X75370048Y-60841349D01*
X75370039Y-60841357D01*
X75352302Y-60859095D01*
X75289990Y-60893121D01*
X75263207Y-60896000D01*
X74792714Y-60896000D01*
X74751802Y-60889173D01*
X74643926Y-60852139D01*
X74643917Y-60852137D01*
X74579260Y-60841348D01*
X74412375Y-60813500D01*
X74177625Y-60813500D01*
X74023077Y-60839289D01*
X73946082Y-60852137D01*
X73946073Y-60852139D01*
X73724050Y-60928359D01*
X73724048Y-60928360D01*
X73517593Y-61040088D01*
X73517592Y-61040089D01*
X73332339Y-61184277D01*
X73173348Y-61356989D01*
X73044955Y-61553510D01*
X72950659Y-61768483D01*
X72950657Y-61768487D01*
X72893031Y-61996043D01*
X72893030Y-61996049D01*
X72873645Y-62229999D01*
X71736561Y-62229999D01*
X72343422Y-61623137D01*
X72372541Y-61601425D01*
X72532407Y-61514911D01*
X72717658Y-61370725D01*
X72876649Y-61198014D01*
X73005044Y-61001490D01*
X73099342Y-60786513D01*
X73150727Y-60583600D01*
X73156968Y-60558956D01*
X73156969Y-60558950D01*
X73156970Y-60558947D01*
X73176355Y-60325000D01*
X73156970Y-60091053D01*
X73156969Y-60091049D01*
X73156968Y-60091043D01*
X73099342Y-59863487D01*
X73099340Y-59863483D01*
X73005044Y-59648510D01*
X72876651Y-59451989D01*
X72876650Y-59451988D01*
X72876649Y-59451986D01*
X72717658Y-59279275D01*
X72532407Y-59135089D01*
X72532406Y-59135088D01*
X72325951Y-59023360D01*
X72325949Y-59023359D01*
X72103926Y-58947139D01*
X72103917Y-58947137D01*
X72057877Y-58939454D01*
X71872375Y-58908500D01*
X71637625Y-58908500D01*
X71483076Y-58934289D01*
X71406082Y-58947137D01*
X71406073Y-58947139D01*
X71184050Y-59023359D01*
X71184048Y-59023360D01*
X70977593Y-59135088D01*
X70977592Y-59135089D01*
X70792339Y-59279277D01*
X70633348Y-59451989D01*
X70504958Y-59648506D01*
X70504955Y-59648510D01*
X70483245Y-59698004D01*
X70456954Y-59736483D01*
X69646744Y-60546695D01*
X69584431Y-60580720D01*
X69557648Y-60583600D01*
X68438847Y-60583600D01*
X68402272Y-60578174D01*
X68358869Y-60565008D01*
X68358860Y-60565006D01*
X68209542Y-60550300D01*
X68209534Y-60550300D01*
X66410466Y-60550300D01*
X66410457Y-60550300D01*
X66261139Y-60565006D01*
X66261136Y-60565006D01*
X66069522Y-60623132D01*
X66069516Y-60623134D01*
X65892933Y-60717520D01*
X65738148Y-60844548D01*
X65611120Y-60999333D01*
X65516734Y-61175916D01*
X65516732Y-61175922D01*
X65458606Y-61367536D01*
X65458606Y-61367539D01*
X65443900Y-61516857D01*
X65443900Y-62318342D01*
X65458606Y-62467660D01*
X65458606Y-62467663D01*
X65516732Y-62659277D01*
X65516734Y-62659283D01*
X65611120Y-62835866D01*
X65611122Y-62835869D01*
X65738148Y-62990652D01*
X65892931Y-63117678D01*
X66060561Y-63207278D01*
X66111208Y-63257029D01*
X66126918Y-63326265D01*
X66102702Y-63393005D01*
X66060561Y-63429521D01*
X66008292Y-63457460D01*
X65892931Y-63519122D01*
X65767235Y-63622277D01*
X65738148Y-63646148D01*
X65611120Y-63800933D01*
X65516734Y-63977516D01*
X65516732Y-63977522D01*
X65458606Y-64169136D01*
X65458606Y-64169139D01*
X65443900Y-64318457D01*
X65443900Y-65119942D01*
X51000000Y-65119942D01*
X51000000Y-57429136D01*
X67730000Y-57429136D01*
X67732832Y-57465117D01*
X67732834Y-57465130D01*
X67777595Y-57619197D01*
X67859261Y-57757285D01*
X67859266Y-57757292D01*
X67972707Y-57870733D01*
X67972714Y-57870738D01*
X68110802Y-57952404D01*
X68264869Y-57997165D01*
X68264882Y-57997167D01*
X68300863Y-57999999D01*
X68300865Y-58000000D01*
X68961000Y-58000000D01*
X68961000Y-56948674D01*
X69072685Y-56999680D01*
X69179237Y-57015000D01*
X69250763Y-57015000D01*
X69357315Y-56999680D01*
X69469000Y-56948674D01*
X69469000Y-58000000D01*
X70129135Y-58000000D01*
X70129136Y-57999999D01*
X70165117Y-57997167D01*
X70165130Y-57997165D01*
X70319195Y-57952404D01*
X70382058Y-57915227D01*
X70450874Y-57897767D01*
X70518205Y-57920283D01*
X70528723Y-57928467D01*
X70529575Y-57929205D01*
X70529580Y-57929210D01*
X70743316Y-58089211D01*
X70977647Y-58217165D01*
X71227803Y-58310468D01*
X71227806Y-58310468D01*
X71227810Y-58310470D01*
X71378788Y-58343313D01*
X71488691Y-58367221D01*
X71755000Y-58386268D01*
X72021309Y-58367221D01*
X72282188Y-58310470D01*
X72282189Y-58310470D01*
X72282190Y-58310469D01*
X72282197Y-58310468D01*
X72532353Y-58217165D01*
X72766684Y-58089211D01*
X72949491Y-57952362D01*
X73016011Y-57927552D01*
X73085385Y-57942643D01*
X73100507Y-57952361D01*
X73283316Y-58089211D01*
X73517647Y-58217165D01*
X73767803Y-58310468D01*
X73767806Y-58310468D01*
X73767810Y-58310470D01*
X73918788Y-58343313D01*
X74028691Y-58367221D01*
X74295000Y-58386268D01*
X74561309Y-58367221D01*
X74822188Y-58310470D01*
X74822189Y-58310470D01*
X74822190Y-58310469D01*
X74822197Y-58310468D01*
X75072353Y-58217165D01*
X75306684Y-58089211D01*
X75520420Y-57929210D01*
X75709210Y-57740420D01*
X75869211Y-57526684D01*
X75997165Y-57292353D01*
X76090468Y-57042197D01*
X76147221Y-56781309D01*
X76166268Y-56515000D01*
X76147221Y-56248691D01*
X76107832Y-56067625D01*
X76090470Y-55987811D01*
X76090470Y-55987810D01*
X76090468Y-55987806D01*
X76090468Y-55987803D01*
X75997165Y-55737647D01*
X75869211Y-55503316D01*
X75709210Y-55289580D01*
X75520420Y-55100790D01*
X75520417Y-55100788D01*
X75520414Y-55100785D01*
X75425856Y-55030000D01*
X75306684Y-54940789D01*
X75178729Y-54870920D01*
X75072352Y-54812834D01*
X74822189Y-54719529D01*
X74561311Y-54662779D01*
X74561313Y-54662779D01*
X74295000Y-54643732D01*
X74028687Y-54662779D01*
X73767811Y-54719529D01*
X73767810Y-54719529D01*
X73517647Y-54812834D01*
X73283316Y-54940789D01*
X73100509Y-55077636D01*
X73033988Y-55102447D01*
X72964614Y-55087355D01*
X72949491Y-55077636D01*
X72854673Y-55006657D01*
X72766684Y-54940789D01*
X72638728Y-54870920D01*
X72532352Y-54812834D01*
X72282189Y-54719529D01*
X72021311Y-54662779D01*
X72021313Y-54662779D01*
X71755000Y-54643732D01*
X71488687Y-54662779D01*
X71227811Y-54719529D01*
X71227810Y-54719529D01*
X70977647Y-54812834D01*
X70743316Y-54940789D01*
X70529580Y-55100790D01*
X70528700Y-55101553D01*
X70528345Y-55101715D01*
X70525978Y-55103487D01*
X70525592Y-55102971D01*
X70464116Y-55131039D01*
X70393843Y-55120927D01*
X70382059Y-55114772D01*
X70319197Y-55077595D01*
X70165130Y-55032834D01*
X70165117Y-55032832D01*
X70129136Y-55030000D01*
X69469000Y-55030000D01*
X69469000Y-56081325D01*
X69357315Y-56030320D01*
X69250763Y-56015000D01*
X69179237Y-56015000D01*
X69072685Y-56030320D01*
X68961000Y-56081325D01*
X68961000Y-55030000D01*
X68300864Y-55030000D01*
X68264882Y-55032832D01*
X68264869Y-55032834D01*
X68110802Y-55077595D01*
X67972714Y-55159261D01*
X67972707Y-55159266D01*
X67859266Y-55272707D01*
X67859261Y-55272714D01*
X67777595Y-55410802D01*
X67732834Y-55564869D01*
X67732832Y-55564882D01*
X67730000Y-55600863D01*
X67730000Y-56261000D01*
X68783884Y-56261000D01*
X68755507Y-56305156D01*
X68715000Y-56443111D01*
X68715000Y-56586889D01*
X68755507Y-56724844D01*
X68783884Y-56769000D01*
X67730000Y-56769000D01*
X67730000Y-57429136D01*
X51000000Y-57429136D01*
X51000000Y-51126000D01*
X51020002Y-51057879D01*
X51073658Y-51011386D01*
X51126000Y-51000000D01*
X98874000Y-51000000D01*
X98942121Y-51020002D01*
G37*
%TD.AperFunction*%
%TD*%
%TA.AperFunction,Conductor*%
%TO.N,Net-(J1-Pin_1)*%
G36*
X130011943Y-101020002D02*
G01*
X130058436Y-101073658D01*
X130067625Y-101102575D01*
X130154631Y-101562412D01*
X130290534Y-102069605D01*
X130463950Y-102565200D01*
X130463951Y-102565202D01*
X130463954Y-102565209D01*
X130593666Y-102862513D01*
X130673925Y-103046470D01*
X130673937Y-103046496D01*
X130919278Y-103510699D01*
X130919290Y-103510720D01*
X131198633Y-103955293D01*
X131198645Y-103955310D01*
X131510438Y-104377775D01*
X131510451Y-104377791D01*
X131779012Y-104689864D01*
X131852942Y-104775772D01*
X131852954Y-104775784D01*
X131852965Y-104775796D01*
X132224203Y-105147034D01*
X132224215Y-105147045D01*
X132224228Y-105147058D01*
X132325638Y-105234328D01*
X132622208Y-105489548D01*
X132622224Y-105489561D01*
X133044689Y-105801354D01*
X133044706Y-105801366D01*
X133489279Y-106080709D01*
X133489295Y-106080719D01*
X133660588Y-106171250D01*
X133953503Y-106326062D01*
X133953519Y-106326069D01*
X133953524Y-106326072D01*
X134434791Y-106536046D01*
X134434798Y-106536048D01*
X134434799Y-106536049D01*
X134930394Y-106709465D01*
X134930403Y-106709468D01*
X135437589Y-106845369D01*
X135953513Y-106942987D01*
X136416498Y-106995152D01*
X136475288Y-107001777D01*
X136494920Y-107002511D01*
X137000000Y-107021410D01*
X137524711Y-107001777D01*
X138046487Y-106942987D01*
X138562411Y-106845369D01*
X139069597Y-106709468D01*
X139565209Y-106536046D01*
X140046476Y-106326072D01*
X140046487Y-106326065D01*
X140046496Y-106326062D01*
X140262204Y-106212056D01*
X140510705Y-106080719D01*
X140955301Y-105801361D01*
X141377778Y-105489559D01*
X141775772Y-105147058D01*
X142147058Y-104775772D01*
X142489559Y-104377778D01*
X142801361Y-103955301D01*
X143080719Y-103510705D01*
X143245710Y-103198527D01*
X143326062Y-103046496D01*
X143326065Y-103046487D01*
X143326072Y-103046476D01*
X143536046Y-102565209D01*
X143709468Y-102069597D01*
X143845369Y-101562411D01*
X143908312Y-101229748D01*
X143932375Y-101102575D01*
X143964692Y-101039361D01*
X144026056Y-101003653D01*
X144056178Y-101000000D01*
X148874000Y-101000000D01*
X148942121Y-101020002D01*
X148988614Y-101073658D01*
X149000000Y-101126000D01*
X149000000Y-148874000D01*
X148979998Y-148942121D01*
X148926342Y-148988614D01*
X148874000Y-149000000D01*
X101126000Y-149000000D01*
X101057879Y-148979998D01*
X101011386Y-148926342D01*
X101000000Y-148874000D01*
X101000000Y-144469136D01*
X124200000Y-144469136D01*
X124202832Y-144505117D01*
X124202834Y-144505130D01*
X124247595Y-144659197D01*
X124329261Y-144797285D01*
X124329266Y-144797292D01*
X124442707Y-144910733D01*
X124442714Y-144910738D01*
X124580802Y-144992404D01*
X124734869Y-145037165D01*
X124734882Y-145037167D01*
X124770863Y-145039999D01*
X124770865Y-145040000D01*
X125431000Y-145040000D01*
X125431000Y-143988674D01*
X125542685Y-144039680D01*
X125649237Y-144055000D01*
X125720763Y-144055000D01*
X125827315Y-144039680D01*
X125939000Y-143988674D01*
X125939000Y-145040000D01*
X126599135Y-145040000D01*
X126599136Y-145039999D01*
X126635117Y-145037167D01*
X126635130Y-145037165D01*
X126789195Y-144992404D01*
X126852058Y-144955227D01*
X126920874Y-144937767D01*
X126988205Y-144960283D01*
X126998723Y-144968467D01*
X126999575Y-144969205D01*
X126999580Y-144969210D01*
X127213316Y-145129211D01*
X127447647Y-145257165D01*
X127697803Y-145350468D01*
X127697806Y-145350468D01*
X127697810Y-145350470D01*
X127848788Y-145383313D01*
X127958691Y-145407221D01*
X128225000Y-145426268D01*
X128491309Y-145407221D01*
X128752188Y-145350470D01*
X128752189Y-145350470D01*
X128752190Y-145350469D01*
X128752197Y-145350468D01*
X129002353Y-145257165D01*
X129236684Y-145129211D01*
X129419491Y-144992362D01*
X129486011Y-144967552D01*
X129555385Y-144982643D01*
X129570507Y-144992361D01*
X129753316Y-145129211D01*
X129987647Y-145257165D01*
X130237803Y-145350468D01*
X130237806Y-145350468D01*
X130237810Y-145350470D01*
X130388788Y-145383313D01*
X130498691Y-145407221D01*
X130765000Y-145426268D01*
X131031309Y-145407221D01*
X131292188Y-145350470D01*
X131292189Y-145350470D01*
X131292190Y-145350469D01*
X131292197Y-145350468D01*
X131542353Y-145257165D01*
X131776684Y-145129211D01*
X131990420Y-144969210D01*
X132179210Y-144780420D01*
X132339211Y-144566684D01*
X132467165Y-144332353D01*
X132560468Y-144082197D01*
X132617221Y-143821309D01*
X132636268Y-143555000D01*
X132617221Y-143288691D01*
X132569717Y-143070320D01*
X132560470Y-143027811D01*
X132560470Y-143027810D01*
X132560468Y-143027806D01*
X132560468Y-143027803D01*
X132467165Y-142777647D01*
X132339211Y-142543316D01*
X132179210Y-142329580D01*
X131990420Y-142140790D01*
X131990417Y-142140788D01*
X131990414Y-142140785D01*
X131895856Y-142070000D01*
X131776684Y-141980789D01*
X131648728Y-141910920D01*
X131542352Y-141852834D01*
X131292189Y-141759529D01*
X131031311Y-141702779D01*
X131031313Y-141702779D01*
X130765000Y-141683732D01*
X130498687Y-141702779D01*
X130237811Y-141759529D01*
X130237810Y-141759529D01*
X129987647Y-141852834D01*
X129753317Y-141980788D01*
X129570507Y-142117637D01*
X129503987Y-142142447D01*
X129434613Y-142127355D01*
X129419490Y-142117636D01*
X129406327Y-142107782D01*
X129236684Y-141980789D01*
X129108729Y-141910920D01*
X129002352Y-141852834D01*
X128752189Y-141759529D01*
X128491311Y-141702779D01*
X128491313Y-141702779D01*
X128278261Y-141687541D01*
X128225000Y-141683732D01*
X128224999Y-141683732D01*
X127958687Y-141702779D01*
X127697811Y-141759529D01*
X127697810Y-141759529D01*
X127447647Y-141852834D01*
X127213316Y-141980789D01*
X126999580Y-142140790D01*
X126998700Y-142141553D01*
X126998345Y-142141715D01*
X126995978Y-142143487D01*
X126995592Y-142142971D01*
X126934116Y-142171039D01*
X126863843Y-142160927D01*
X126852059Y-142154772D01*
X126789197Y-142117595D01*
X126635130Y-142072834D01*
X126635117Y-142072832D01*
X126599136Y-142070000D01*
X125939000Y-142070000D01*
X125939000Y-143121325D01*
X125827315Y-143070320D01*
X125720763Y-143055000D01*
X125649237Y-143055000D01*
X125542685Y-143070320D01*
X125431000Y-143121325D01*
X125431000Y-142070000D01*
X124770864Y-142070000D01*
X124734882Y-142072832D01*
X124734869Y-142072834D01*
X124580802Y-142117595D01*
X124442714Y-142199261D01*
X124442707Y-142199266D01*
X124329266Y-142312707D01*
X124329261Y-142312714D01*
X124247595Y-142450802D01*
X124202834Y-142604869D01*
X124202832Y-142604882D01*
X124200000Y-142640863D01*
X124200000Y-143301000D01*
X125253884Y-143301000D01*
X125225507Y-143345156D01*
X125185000Y-143483111D01*
X125185000Y-143626889D01*
X125225507Y-143764844D01*
X125253884Y-143809000D01*
X124200000Y-143809000D01*
X124200000Y-144469136D01*
X101000000Y-144469136D01*
X101000000Y-144056178D01*
X101020002Y-143988057D01*
X101073658Y-143941564D01*
X101102575Y-143932375D01*
X101257671Y-143903028D01*
X101562411Y-143845369D01*
X102069597Y-143709468D01*
X102565209Y-143536046D01*
X103046476Y-143326072D01*
X103046487Y-143326065D01*
X103046496Y-143326062D01*
X103239223Y-143224202D01*
X103510705Y-143080719D01*
X103955301Y-142801361D01*
X104377778Y-142489559D01*
X104775772Y-142147058D01*
X105147058Y-141775772D01*
X105489559Y-141377778D01*
X105801361Y-140955301D01*
X106080719Y-140510705D01*
X106245710Y-140198527D01*
X106326062Y-140046496D01*
X106326065Y-140046487D01*
X106326072Y-140046476D01*
X106536046Y-139565209D01*
X106709468Y-139069597D01*
X106845369Y-138562411D01*
X106942987Y-138046487D01*
X106982980Y-137691542D01*
X122593900Y-137691542D01*
X122608606Y-137840860D01*
X122608606Y-137840863D01*
X122666732Y-138032477D01*
X122666734Y-138032483D01*
X122761120Y-138209066D01*
X122761122Y-138209069D01*
X122888148Y-138363852D01*
X123042931Y-138490878D01*
X123042933Y-138490879D01*
X123176759Y-138562411D01*
X123219520Y-138585267D01*
X123411131Y-138643392D01*
X123411136Y-138643392D01*
X123411138Y-138643393D01*
X123520469Y-138654160D01*
X123560466Y-138658100D01*
X123560475Y-138658100D01*
X125359525Y-138658100D01*
X125359534Y-138658100D01*
X125456779Y-138648522D01*
X125508860Y-138643393D01*
X125508860Y-138643392D01*
X125508869Y-138643392D01*
X125552272Y-138630225D01*
X125588847Y-138624800D01*
X125891049Y-138624800D01*
X125959170Y-138644802D01*
X125980144Y-138661705D01*
X126971952Y-139653512D01*
X126998244Y-139691993D01*
X127019955Y-139741489D01*
X127019956Y-139741490D01*
X127148351Y-139938014D01*
X127307342Y-140110725D01*
X127492592Y-140254910D01*
X127492593Y-140254911D01*
X127699048Y-140366639D01*
X127699050Y-140366640D01*
X127815622Y-140406659D01*
X127921078Y-140442862D01*
X128152625Y-140481500D01*
X128152629Y-140481500D01*
X128387371Y-140481500D01*
X128387375Y-140481500D01*
X128618922Y-140442862D01*
X128840952Y-140366639D01*
X129047407Y-140254911D01*
X129232658Y-140110725D01*
X129391649Y-139938014D01*
X129520044Y-139741490D01*
X129614342Y-139526513D01*
X129671970Y-139298947D01*
X129691355Y-139065000D01*
X129671970Y-138831053D01*
X129671969Y-138831049D01*
X129671968Y-138831043D01*
X129614342Y-138603487D01*
X129614340Y-138603483D01*
X129520044Y-138388510D01*
X129391651Y-138191989D01*
X129391650Y-138191988D01*
X129391649Y-138191986D01*
X129232658Y-138019275D01*
X129114023Y-137926938D01*
X129047409Y-137875090D01*
X128984157Y-137840860D01*
X128887537Y-137788571D01*
X128858414Y-137766854D01*
X128798060Y-137706500D01*
X132450000Y-137706500D01*
X132450000Y-137926938D01*
X132456082Y-138004210D01*
X132504230Y-138183902D01*
X132588687Y-138349658D01*
X132588688Y-138349661D01*
X132705763Y-138494236D01*
X132850338Y-138611311D01*
X132850341Y-138611312D01*
X133016097Y-138695769D01*
X133195789Y-138743917D01*
X133273061Y-138750000D01*
X133731000Y-138750000D01*
X133731000Y-137706500D01*
X134239000Y-137706500D01*
X134239000Y-138750000D01*
X134696939Y-138750000D01*
X134774210Y-138743917D01*
X134953902Y-138695769D01*
X135119658Y-138611312D01*
X135119661Y-138611311D01*
X135264236Y-138494236D01*
X135381311Y-138349661D01*
X135381312Y-138349658D01*
X135465769Y-138183902D01*
X135513917Y-138004210D01*
X135520000Y-137926938D01*
X135520000Y-137706500D01*
X134239000Y-137706500D01*
X133731000Y-137706500D01*
X132450000Y-137706500D01*
X128798060Y-137706500D01*
X128290060Y-137198500D01*
X127351407Y-136259847D01*
X127347703Y-136255805D01*
X127311884Y-136213116D01*
X127254018Y-136164561D01*
X127214155Y-136131112D01*
X127214151Y-136131109D01*
X127151220Y-136078303D01*
X127133079Y-136063081D01*
X127133077Y-136063079D01*
X127133074Y-136063077D01*
X126930927Y-135946366D01*
X126868102Y-135923500D01*
X126711578Y-135866531D01*
X126653915Y-135856364D01*
X126590302Y-135824836D01*
X126553833Y-135763922D01*
X126556086Y-135692961D01*
X126594805Y-135635756D01*
X126653491Y-135586513D01*
X126653496Y-135586508D01*
X126676884Y-135566884D01*
X126712714Y-135524181D01*
X126716397Y-135520162D01*
X127588419Y-134648140D01*
X127617541Y-134626425D01*
X127629414Y-134620000D01*
X129388645Y-134620000D01*
X129408030Y-134853950D01*
X129408031Y-134853956D01*
X129465657Y-135081512D01*
X129465659Y-135081516D01*
X129559955Y-135296489D01*
X129559956Y-135296490D01*
X129688351Y-135493014D01*
X129847342Y-135665725D01*
X129992722Y-135778878D01*
X130032592Y-135809910D01*
X130032593Y-135809911D01*
X130239048Y-135921639D01*
X130239050Y-135921640D01*
X130293280Y-135940257D01*
X130461078Y-135997862D01*
X130692625Y-136036500D01*
X130692629Y-136036500D01*
X130927371Y-136036500D01*
X130927375Y-136036500D01*
X131158922Y-135997862D01*
X131253758Y-135965305D01*
X131266802Y-135960827D01*
X131307714Y-135954000D01*
X132953909Y-135954000D01*
X132984691Y-135957817D01*
X133014407Y-135965305D01*
X133075574Y-136001343D01*
X133107549Y-136064732D01*
X133100178Y-136135345D01*
X133055801Y-136190763D01*
X133022106Y-136206459D01*
X133022262Y-136206863D01*
X133016455Y-136209091D01*
X133016247Y-136209189D01*
X133016100Y-136209228D01*
X132850341Y-136293687D01*
X132850338Y-136293688D01*
X132705763Y-136410763D01*
X132588688Y-136555338D01*
X132588687Y-136555341D01*
X132504230Y-136721097D01*
X132456082Y-136900789D01*
X132450000Y-136978061D01*
X132450000Y-137198500D01*
X135520000Y-137198500D01*
X135520000Y-136978061D01*
X135513917Y-136900789D01*
X135465769Y-136721097D01*
X135381312Y-136555341D01*
X135381311Y-136555338D01*
X135264236Y-136410763D01*
X135119661Y-136293688D01*
X135119658Y-136293687D01*
X134953899Y-136209228D01*
X134953757Y-136209190D01*
X134953683Y-136209145D01*
X134947738Y-136206863D01*
X134948155Y-136205775D01*
X134893137Y-136172233D01*
X134862121Y-136108370D01*
X134870555Y-136037876D01*
X134915763Y-135983133D01*
X134955588Y-135965306D01*
X135054989Y-135940260D01*
X135262554Y-135845979D01*
X135449950Y-135716152D01*
X135611152Y-135554950D01*
X135740979Y-135367554D01*
X135835260Y-135159989D01*
X135890963Y-134938925D01*
X135901500Y-134805042D01*
X135901500Y-133849958D01*
X135890963Y-133716075D01*
X135835260Y-133495011D01*
X135755021Y-133318360D01*
X135740981Y-133287450D01*
X135740980Y-133287449D01*
X135740979Y-133287446D01*
X135611152Y-133100050D01*
X135611150Y-133100048D01*
X135611142Y-133100039D01*
X135449960Y-132938857D01*
X135449951Y-132938849D01*
X135377257Y-132888487D01*
X135262554Y-132809021D01*
X135262552Y-132809020D01*
X135262549Y-132809018D01*
X135054994Y-132714742D01*
X135054991Y-132714741D01*
X135054989Y-132714740D01*
X134833925Y-132659037D01*
X134700042Y-132648500D01*
X133269958Y-132648500D01*
X133136075Y-132659037D01*
X133136071Y-132659037D01*
X133136070Y-132659038D01*
X132915014Y-132714739D01*
X132915005Y-132714742D01*
X132707450Y-132809018D01*
X132520048Y-132938849D01*
X132520039Y-132938857D01*
X132358857Y-133100039D01*
X132358850Y-133100048D01*
X132358848Y-133100050D01*
X132287179Y-133203500D01*
X132267604Y-133231755D01*
X132212368Y-133276359D01*
X132164031Y-133286000D01*
X131307714Y-133286000D01*
X131266802Y-133279173D01*
X131158926Y-133242139D01*
X131158917Y-133242137D01*
X131112877Y-133234454D01*
X130927375Y-133203500D01*
X130692625Y-133203500D01*
X130538077Y-133229289D01*
X130461082Y-133242137D01*
X130461073Y-133242139D01*
X130239050Y-133318359D01*
X130239048Y-133318360D01*
X130032593Y-133430088D01*
X130032592Y-133430089D01*
X129847339Y-133574277D01*
X129688348Y-133746989D01*
X129559955Y-133943510D01*
X129465659Y-134158483D01*
X129465657Y-134158487D01*
X129408031Y-134386043D01*
X129408030Y-134386049D01*
X129388645Y-134620000D01*
X127629414Y-134620000D01*
X127777407Y-134539911D01*
X127962658Y-134395725D01*
X128121649Y-134223014D01*
X128250044Y-134026490D01*
X128344342Y-133811513D01*
X128401970Y-133583947D01*
X128421355Y-133350000D01*
X128401970Y-133116053D01*
X128401969Y-133116049D01*
X128401968Y-133116043D01*
X128344342Y-132888487D01*
X128344340Y-132888483D01*
X128309483Y-132809018D01*
X128250044Y-132673510D01*
X128121649Y-132476986D01*
X127962658Y-132304275D01*
X127777407Y-132160089D01*
X127777406Y-132160088D01*
X127570951Y-132048360D01*
X127570949Y-132048359D01*
X127348926Y-131972139D01*
X127348917Y-131972137D01*
X127302877Y-131964454D01*
X127117375Y-131933500D01*
X126882625Y-131933500D01*
X126728076Y-131959289D01*
X126651082Y-131972137D01*
X126651073Y-131972139D01*
X126429050Y-132048359D01*
X126429048Y-132048360D01*
X126222593Y-132160088D01*
X126222592Y-132160089D01*
X126037339Y-132304277D01*
X125878348Y-132476989D01*
X125749958Y-132673506D01*
X125749955Y-132673510D01*
X125728245Y-132723004D01*
X125701954Y-132761483D01*
X125378444Y-133084995D01*
X125316132Y-133119020D01*
X125289348Y-133121900D01*
X123560457Y-133121900D01*
X123411139Y-133136606D01*
X123411136Y-133136606D01*
X123219522Y-133194732D01*
X123219516Y-133194734D01*
X123042933Y-133289120D01*
X122888148Y-133416148D01*
X122761120Y-133570933D01*
X122666734Y-133747516D01*
X122666732Y-133747522D01*
X122608606Y-133939136D01*
X122608606Y-133939139D01*
X122593900Y-134088457D01*
X122593900Y-134889942D01*
X122608606Y-135039260D01*
X122608606Y-135039263D01*
X122666732Y-135230877D01*
X122666734Y-135230883D01*
X122761120Y-135407466D01*
X122761122Y-135407469D01*
X122888148Y-135562252D01*
X123042931Y-135689278D01*
X123042933Y-135689279D01*
X123210560Y-135778878D01*
X123261208Y-135828630D01*
X123276918Y-135897867D01*
X123252702Y-135964606D01*
X123210560Y-136001122D01*
X123042933Y-136090720D01*
X122888148Y-136217748D01*
X122761120Y-136372533D01*
X122666734Y-136549116D01*
X122666732Y-136549122D01*
X122608606Y-136740736D01*
X122608606Y-136740739D01*
X122593900Y-136890057D01*
X122593900Y-137691542D01*
X106982980Y-137691542D01*
X107001777Y-137524711D01*
X107021410Y-137000000D01*
X107001777Y-136475289D01*
X106942987Y-135953513D01*
X106845369Y-135437589D01*
X106709468Y-134930403D01*
X106610701Y-134648143D01*
X106536049Y-134434799D01*
X106536048Y-134434798D01*
X106536046Y-134434791D01*
X106326072Y-133953524D01*
X106326069Y-133953519D01*
X106326062Y-133953503D01*
X106123865Y-133570931D01*
X106080719Y-133489295D01*
X106080709Y-133489279D01*
X105801366Y-133044706D01*
X105801354Y-133044689D01*
X105489561Y-132622224D01*
X105489548Y-132622208D01*
X105252522Y-132346780D01*
X105147058Y-132224228D01*
X105147045Y-132224215D01*
X105147034Y-132224203D01*
X104775796Y-131852965D01*
X104775784Y-131852954D01*
X104775772Y-131852942D01*
X104689864Y-131779012D01*
X104377791Y-131510451D01*
X104377775Y-131510438D01*
X103955310Y-131198645D01*
X103955293Y-131198633D01*
X103510720Y-130919290D01*
X103510712Y-130919285D01*
X103510705Y-130919281D01*
X103465089Y-130895172D01*
X103046496Y-130673937D01*
X103046470Y-130673925D01*
X102862513Y-130593666D01*
X102565209Y-130463954D01*
X102565202Y-130463951D01*
X102565200Y-130463950D01*
X102069605Y-130290534D01*
X101562412Y-130154631D01*
X101102575Y-130067625D01*
X101039361Y-130035308D01*
X101003653Y-129973944D01*
X101000000Y-129943822D01*
X101000000Y-117015443D01*
X109654833Y-117015443D01*
X109665602Y-117092655D01*
X109665937Y-117095545D01*
X109673128Y-117173144D01*
X109673129Y-117173149D01*
X109679194Y-117194466D01*
X109680996Y-117203009D01*
X109684059Y-117224961D01*
X109684060Y-117224965D01*
X109708830Y-117298873D01*
X109709691Y-117301652D01*
X109731022Y-117376622D01*
X109740902Y-117396466D01*
X109744243Y-117404531D01*
X109751288Y-117425551D01*
X109789222Y-117493654D01*
X109790567Y-117496205D01*
X109804590Y-117524367D01*
X109825318Y-117565995D01*
X109825324Y-117566003D01*
X109838675Y-117583684D01*
X109843442Y-117590999D01*
X109854229Y-117610365D01*
X109854231Y-117610367D01*
X109904048Y-117670359D01*
X109905818Y-117672593D01*
X109931814Y-117707017D01*
X109952807Y-117734818D01*
X110010411Y-117787330D01*
X110012493Y-117789318D01*
X112080676Y-119857500D01*
X114021594Y-121798418D01*
X114055620Y-121860730D01*
X114058499Y-121887513D01*
X114058499Y-121912484D01*
X114038497Y-121980605D01*
X114021594Y-122001579D01*
X112626149Y-123397026D01*
X112626072Y-123397100D01*
X112312517Y-123710657D01*
X112310413Y-123712666D01*
X112252805Y-123765184D01*
X112205836Y-123827382D01*
X112204029Y-123829663D01*
X112154235Y-123889626D01*
X112154229Y-123889635D01*
X112143439Y-123909004D01*
X112138676Y-123916314D01*
X112125323Y-123933997D01*
X112125321Y-123934001D01*
X112090578Y-124003771D01*
X112089222Y-124006344D01*
X112051289Y-124074447D01*
X112044246Y-124095462D01*
X112040904Y-124103529D01*
X112031020Y-124123380D01*
X112009688Y-124198353D01*
X112008828Y-124201132D01*
X111984060Y-124275030D01*
X111984060Y-124275033D01*
X111980998Y-124296980D01*
X111979196Y-124305524D01*
X111973130Y-124326844D01*
X111973128Y-124326856D01*
X111965937Y-124404455D01*
X111965602Y-124407345D01*
X111954833Y-124484552D01*
X111954833Y-124484555D01*
X111958433Y-124562420D01*
X111958500Y-124565331D01*
X111958500Y-129305777D01*
X111967703Y-129355014D01*
X111968507Y-129360778D01*
X111973127Y-129410641D01*
X111973128Y-129410644D01*
X111973128Y-129410646D01*
X111973129Y-129410649D01*
X111986836Y-129458825D01*
X111988168Y-129464491D01*
X111997372Y-129513724D01*
X112007190Y-129539067D01*
X112015466Y-129560428D01*
X112017313Y-129565940D01*
X112031020Y-129614116D01*
X112031026Y-129614132D01*
X112053346Y-129658954D01*
X112055697Y-129664279D01*
X112073790Y-129710980D01*
X112073797Y-129710996D01*
X112100159Y-129753573D01*
X112102992Y-129758657D01*
X112125319Y-129803496D01*
X112155500Y-129843463D01*
X112158790Y-129848265D01*
X112185162Y-129890856D01*
X112218902Y-129927866D01*
X112222621Y-129932345D01*
X112252808Y-129972318D01*
X112252813Y-129972323D01*
X112289821Y-130006060D01*
X112293937Y-130010176D01*
X112327684Y-130047194D01*
X112334300Y-130052190D01*
X112367663Y-130077385D01*
X112372134Y-130081098D01*
X112409143Y-130114837D01*
X112409146Y-130114839D01*
X112451728Y-130141206D01*
X112456530Y-130144495D01*
X112496503Y-130174680D01*
X112541331Y-130197002D01*
X112546417Y-130199834D01*
X112589010Y-130226206D01*
X112589014Y-130226207D01*
X112589017Y-130226209D01*
X112635709Y-130244297D01*
X112641034Y-130246647D01*
X112685876Y-130268977D01*
X112734058Y-130282685D01*
X112739570Y-130284533D01*
X112756297Y-130291013D01*
X112786275Y-130302627D01*
X112835515Y-130311831D01*
X112841161Y-130313159D01*
X112889351Y-130326871D01*
X112936181Y-130331210D01*
X112939234Y-130331493D01*
X112944992Y-130332296D01*
X112979816Y-130338806D01*
X112994223Y-130341500D01*
X112994224Y-130341500D01*
X113047227Y-130341500D01*
X114136992Y-130341500D01*
X114205113Y-130361502D01*
X114208201Y-130363552D01*
X114229939Y-130378444D01*
X114229944Y-130378446D01*
X114427708Y-130465767D01*
X114638150Y-130515263D01*
X114728007Y-130521500D01*
X116521992Y-130521499D01*
X116611850Y-130515263D01*
X116822292Y-130465767D01*
X117020056Y-130378446D01*
X117198407Y-130256272D01*
X117351272Y-130103407D01*
X117473446Y-129925056D01*
X117560767Y-129727292D01*
X117610263Y-129516850D01*
X117616500Y-129426993D01*
X117616499Y-129345012D01*
X117636500Y-129276895D01*
X117690155Y-129230401D01*
X117760429Y-129220296D01*
X117825010Y-129249789D01*
X117831594Y-129255919D01*
X118568179Y-129992504D01*
X118570168Y-129994587D01*
X118622679Y-130052190D01*
X118684863Y-130099149D01*
X118687145Y-130100956D01*
X118747126Y-130150765D01*
X118747130Y-130150768D01*
X118747131Y-130150769D01*
X118747133Y-130150770D01*
X118766513Y-130161564D01*
X118773816Y-130166323D01*
X118791503Y-130179680D01*
X118861269Y-130214419D01*
X118863820Y-130215764D01*
X118882567Y-130226206D01*
X118931949Y-130253711D01*
X118939590Y-130256272D01*
X118952961Y-130260753D01*
X118961037Y-130264098D01*
X118980872Y-130273975D01*
X118980875Y-130273977D01*
X119040750Y-130291013D01*
X119077477Y-130308254D01*
X119179940Y-130378444D01*
X119179943Y-130378445D01*
X119179944Y-130378446D01*
X119377708Y-130465767D01*
X119588150Y-130515263D01*
X119678007Y-130521500D01*
X121471992Y-130521499D01*
X121561850Y-130515263D01*
X121772292Y-130465767D01*
X121970056Y-130378446D01*
X122148407Y-130256272D01*
X122301272Y-130103407D01*
X122423446Y-129925056D01*
X122510767Y-129727292D01*
X122560263Y-129516850D01*
X122566500Y-129426993D01*
X122566499Y-128983008D01*
X122560263Y-128893150D01*
X122510767Y-128682708D01*
X122483473Y-128620893D01*
X122474255Y-128550497D01*
X122483474Y-128519104D01*
X122510765Y-128457296D01*
X122510767Y-128457292D01*
X122560263Y-128246850D01*
X122566500Y-128156993D01*
X122566499Y-127713008D01*
X122560263Y-127623150D01*
X122510767Y-127412708D01*
X122483473Y-127350893D01*
X122474255Y-127280497D01*
X122483474Y-127249104D01*
X122510765Y-127187296D01*
X122510767Y-127187292D01*
X122560263Y-126976850D01*
X122566500Y-126886993D01*
X122566499Y-126443008D01*
X122560263Y-126353150D01*
X122510767Y-126142708D01*
X122483472Y-126080893D01*
X122474255Y-126010499D01*
X122483471Y-125979108D01*
X122510767Y-125917292D01*
X122560263Y-125706850D01*
X122566500Y-125616993D01*
X122566499Y-125173008D01*
X122560263Y-125083150D01*
X122510767Y-124872708D01*
X122423446Y-124674944D01*
X122301272Y-124496593D01*
X122301270Y-124496591D01*
X122301265Y-124496585D01*
X122148414Y-124343734D01*
X122148408Y-124343729D01*
X122123769Y-124326851D01*
X121970056Y-124221554D01*
X121970055Y-124221554D01*
X121791606Y-124142760D01*
X121737369Y-124096947D01*
X121716510Y-124029083D01*
X121716500Y-124027496D01*
X121716500Y-114847816D01*
X121716567Y-114844906D01*
X121717151Y-114832248D01*
X121720166Y-114767056D01*
X121709396Y-114689855D01*
X121709064Y-114686981D01*
X121707344Y-114668424D01*
X121701871Y-114609351D01*
X121695804Y-114588028D01*
X121694001Y-114579487D01*
X121690940Y-114557534D01*
X121666164Y-114483613D01*
X121665318Y-114480884D01*
X121654024Y-114441190D01*
X121643978Y-114405877D01*
X121643975Y-114405871D01*
X121634097Y-114386034D01*
X121630754Y-114377963D01*
X121623712Y-114356951D01*
X121623709Y-114356945D01*
X121585781Y-114288851D01*
X121584423Y-114286276D01*
X121575886Y-114269132D01*
X121549680Y-114216503D01*
X121536323Y-114198815D01*
X121531555Y-114191498D01*
X121520769Y-114172133D01*
X121470966Y-114112158D01*
X121469159Y-114109876D01*
X121422190Y-114047679D01*
X121364576Y-113995158D01*
X121362493Y-113993169D01*
X121277476Y-113908151D01*
X121243450Y-113845840D01*
X121240892Y-113810068D01*
X121251268Y-113665000D01*
X121232221Y-113398691D01*
X121175468Y-113137803D01*
X121082165Y-112887647D01*
X120954211Y-112653316D01*
X120794210Y-112439580D01*
X120605420Y-112250790D01*
X120605417Y-112250788D01*
X120605414Y-112250785D01*
X120501991Y-112173364D01*
X120391684Y-112090789D01*
X120246852Y-112011705D01*
X120157352Y-111962834D01*
X119907189Y-111869529D01*
X119646311Y-111812779D01*
X119646313Y-111812779D01*
X119433261Y-111797541D01*
X119380000Y-111793732D01*
X119379999Y-111793732D01*
X119113687Y-111812779D01*
X118852811Y-111869529D01*
X118852810Y-111869529D01*
X118602647Y-111962834D01*
X118368317Y-112090788D01*
X118258008Y-112173364D01*
X118191488Y-112198174D01*
X118122114Y-112183082D01*
X118071912Y-112132880D01*
X118056500Y-112072495D01*
X118056500Y-111442816D01*
X118056567Y-111439906D01*
X118059410Y-111378405D01*
X118060166Y-111362056D01*
X118049398Y-111284868D01*
X118049065Y-111281989D01*
X118046957Y-111259250D01*
X118041871Y-111204351D01*
X118035801Y-111183022D01*
X118034001Y-111174490D01*
X118030939Y-111152534D01*
X118006171Y-111078639D01*
X118005313Y-111075866D01*
X117983977Y-111000875D01*
X117983975Y-111000871D01*
X117974094Y-110981028D01*
X117970751Y-110972957D01*
X117963711Y-110951951D01*
X117963708Y-110951945D01*
X117925791Y-110883871D01*
X117924433Y-110881296D01*
X117889681Y-110811504D01*
X117889679Y-110811501D01*
X117876322Y-110793814D01*
X117871552Y-110786494D01*
X117860769Y-110767133D01*
X117810962Y-110707153D01*
X117809169Y-110704890D01*
X117789621Y-110679004D01*
X117762190Y-110642678D01*
X117704587Y-110590168D01*
X117702504Y-110588179D01*
X116526818Y-109412493D01*
X116524830Y-109410411D01*
X116472318Y-109352807D01*
X116432342Y-109322620D01*
X116410093Y-109305818D01*
X116407859Y-109304048D01*
X116353360Y-109258792D01*
X116347865Y-109254229D01*
X116328499Y-109243442D01*
X116321184Y-109238675D01*
X116303503Y-109225324D01*
X116303495Y-109225318D01*
X116252977Y-109200164D01*
X116233705Y-109190567D01*
X116231154Y-109189222D01*
X116163051Y-109151288D01*
X116142031Y-109144243D01*
X116133966Y-109140902D01*
X116114122Y-109131022D01*
X116039152Y-109109691D01*
X116036373Y-109108830D01*
X115992554Y-109094144D01*
X115962466Y-109084060D01*
X115962463Y-109084059D01*
X115962461Y-109084059D01*
X115940509Y-109080996D01*
X115931966Y-109079194D01*
X115910649Y-109073129D01*
X115910644Y-109073128D01*
X115833045Y-109065937D01*
X115830155Y-109065602D01*
X115752947Y-109054833D01*
X115752944Y-109054833D01*
X115675079Y-109058433D01*
X115672168Y-109058500D01*
X110694222Y-109058500D01*
X110644984Y-109067703D01*
X110639221Y-109068507D01*
X110589353Y-109073128D01*
X110541162Y-109086838D01*
X110535507Y-109088168D01*
X110508838Y-109093154D01*
X110486273Y-109097373D01*
X110486270Y-109097373D01*
X110439572Y-109115464D01*
X110434054Y-109117314D01*
X110385882Y-109131020D01*
X110385876Y-109131022D01*
X110341032Y-109153351D01*
X110335709Y-109155701D01*
X110289011Y-109173793D01*
X110246417Y-109200164D01*
X110241334Y-109202995D01*
X110196507Y-109225317D01*
X110196501Y-109225321D01*
X110156529Y-109255504D01*
X110151730Y-109258792D01*
X110109149Y-109285158D01*
X110072128Y-109318904D01*
X110067653Y-109322620D01*
X110027681Y-109352807D01*
X109993937Y-109389822D01*
X109989822Y-109393937D01*
X109952807Y-109427681D01*
X109922620Y-109467653D01*
X109918904Y-109472128D01*
X109885158Y-109509149D01*
X109858792Y-109551730D01*
X109855504Y-109556529D01*
X109825321Y-109596501D01*
X109825317Y-109596507D01*
X109802995Y-109641334D01*
X109800164Y-109646417D01*
X109773793Y-109689011D01*
X109755701Y-109735709D01*
X109753351Y-109741032D01*
X109731022Y-109785876D01*
X109731020Y-109785882D01*
X109717314Y-109834054D01*
X109715464Y-109839572D01*
X109697373Y-109886270D01*
X109697373Y-109886273D01*
X109688171Y-109935498D01*
X109686838Y-109941162D01*
X109673128Y-109989353D01*
X109668507Y-110039221D01*
X109667703Y-110044984D01*
X109658500Y-110094222D01*
X109658500Y-116934667D01*
X109658433Y-116937578D01*
X109654833Y-117015443D01*
X101000000Y-117015443D01*
X101000000Y-109477769D01*
X101020002Y-109409648D01*
X101073658Y-109363155D01*
X101113647Y-109352377D01*
X101229758Y-109340941D01*
X101838052Y-109240512D01*
X101838062Y-109240509D01*
X101838066Y-109240509D01*
X102366419Y-109117314D01*
X102438475Y-109100513D01*
X102438475Y-109100512D01*
X102438479Y-109100512D01*
X102589062Y-109054833D01*
X103028456Y-108921544D01*
X103605469Y-108704372D01*
X104167042Y-108449926D01*
X104710772Y-108159296D01*
X105234329Y-107833728D01*
X105735473Y-107474613D01*
X106212056Y-107083492D01*
X106662038Y-106662038D01*
X107083492Y-106212056D01*
X107474613Y-105735473D01*
X107833728Y-105234329D01*
X108159296Y-104710772D01*
X108449926Y-104167042D01*
X108704372Y-103605469D01*
X108921544Y-103028456D01*
X109100513Y-102438475D01*
X109128931Y-102316592D01*
X109240509Y-101838066D01*
X109240509Y-101838062D01*
X109240512Y-101838052D01*
X109340941Y-101229758D01*
X109340942Y-101229748D01*
X109352377Y-101113650D01*
X109378960Y-101047817D01*
X109436914Y-101006808D01*
X109477770Y-101000000D01*
X129943822Y-101000000D01*
X130011943Y-101020002D01*
G37*
%TD.AperFunction*%
%TD*%
%TA.AperFunction,Conductor*%
%TO.N,Net-(J2-Pin_1)*%
G36*
X56011943Y-101020002D02*
G01*
X56058436Y-101073658D01*
X56067625Y-101102575D01*
X56154631Y-101562412D01*
X56290534Y-102069605D01*
X56463950Y-102565200D01*
X56463951Y-102565202D01*
X56463954Y-102565209D01*
X56593666Y-102862513D01*
X56673925Y-103046470D01*
X56673937Y-103046496D01*
X56919278Y-103510699D01*
X56919290Y-103510720D01*
X57198633Y-103955293D01*
X57198645Y-103955310D01*
X57510438Y-104377775D01*
X57510451Y-104377791D01*
X57779012Y-104689864D01*
X57852942Y-104775772D01*
X57852954Y-104775784D01*
X57852965Y-104775796D01*
X58224203Y-105147034D01*
X58224215Y-105147045D01*
X58224228Y-105147058D01*
X58325638Y-105234328D01*
X58622208Y-105489548D01*
X58622224Y-105489561D01*
X59044689Y-105801354D01*
X59044706Y-105801366D01*
X59489279Y-106080709D01*
X59489295Y-106080719D01*
X59660588Y-106171250D01*
X59953503Y-106326062D01*
X59953519Y-106326069D01*
X59953524Y-106326072D01*
X60434791Y-106536046D01*
X60434798Y-106536048D01*
X60434799Y-106536049D01*
X60930394Y-106709465D01*
X60930403Y-106709468D01*
X61437589Y-106845369D01*
X61953513Y-106942987D01*
X62416497Y-106995152D01*
X62475288Y-107001777D01*
X62494920Y-107002511D01*
X63000000Y-107021410D01*
X63524711Y-107001777D01*
X64046487Y-106942987D01*
X64562411Y-106845369D01*
X65069597Y-106709468D01*
X65565209Y-106536046D01*
X66046476Y-106326072D01*
X66046487Y-106326065D01*
X66046496Y-106326062D01*
X66262204Y-106212056D01*
X66510705Y-106080719D01*
X66955301Y-105801361D01*
X67377778Y-105489559D01*
X67775772Y-105147058D01*
X68147058Y-104775772D01*
X68489559Y-104377778D01*
X68801361Y-103955301D01*
X69080719Y-103510705D01*
X69245710Y-103198527D01*
X69326062Y-103046496D01*
X69326065Y-103046487D01*
X69326072Y-103046476D01*
X69536046Y-102565209D01*
X69709468Y-102069597D01*
X69845369Y-101562411D01*
X69908312Y-101229748D01*
X69932375Y-101102575D01*
X69964692Y-101039361D01*
X70026056Y-101003653D01*
X70056178Y-101000000D01*
X90522230Y-101000000D01*
X90590351Y-101020002D01*
X90636844Y-101073658D01*
X90647623Y-101113650D01*
X90659057Y-101229748D01*
X90659060Y-101229764D01*
X90759490Y-101838066D01*
X90899487Y-102438479D01*
X91078452Y-103028444D01*
X91078454Y-103028452D01*
X91295626Y-103605464D01*
X91550071Y-104167037D01*
X91550074Y-104167042D01*
X91840704Y-104710772D01*
X92166272Y-105234329D01*
X92525387Y-105735473D01*
X92916508Y-106212056D01*
X93337962Y-106662038D01*
X93787944Y-107083492D01*
X94264527Y-107474613D01*
X94765671Y-107833728D01*
X95289228Y-108159296D01*
X95832958Y-108449926D01*
X96394531Y-108704372D01*
X96971544Y-108921544D01*
X97204359Y-108992167D01*
X97561520Y-109100512D01*
X98161933Y-109240509D01*
X98161940Y-109240510D01*
X98161948Y-109240512D01*
X98770242Y-109340941D01*
X98886351Y-109352376D01*
X98952182Y-109378958D01*
X98993192Y-109436912D01*
X99000000Y-109477769D01*
X99000000Y-129943822D01*
X98979998Y-130011943D01*
X98926342Y-130058436D01*
X98897425Y-130067625D01*
X98437587Y-130154631D01*
X97930394Y-130290534D01*
X97434799Y-130463950D01*
X97434796Y-130463952D01*
X96953529Y-130673925D01*
X96953503Y-130673937D01*
X96489300Y-130919278D01*
X96489279Y-130919290D01*
X96044706Y-131198633D01*
X96044689Y-131198645D01*
X95622224Y-131510438D01*
X95622208Y-131510451D01*
X95224239Y-131852932D01*
X95224203Y-131852965D01*
X94852965Y-132224203D01*
X94852932Y-132224239D01*
X94510451Y-132622208D01*
X94510438Y-132622224D01*
X94198645Y-133044689D01*
X94198633Y-133044706D01*
X93919290Y-133489279D01*
X93919278Y-133489300D01*
X93673937Y-133953503D01*
X93673925Y-133953529D01*
X93563804Y-134205931D01*
X93485223Y-134386043D01*
X93463952Y-134434796D01*
X93463950Y-134434799D01*
X93290534Y-134930394D01*
X93154631Y-135437587D01*
X93057013Y-135953512D01*
X92998222Y-136475288D01*
X92978590Y-137000000D01*
X92998222Y-137524711D01*
X93057013Y-138046487D01*
X93154631Y-138562412D01*
X93290534Y-139069605D01*
X93463950Y-139565200D01*
X93463951Y-139565202D01*
X93463954Y-139565209D01*
X93522762Y-139699999D01*
X93673925Y-140046470D01*
X93673937Y-140046496D01*
X93919278Y-140510699D01*
X93919290Y-140510720D01*
X94198633Y-140955293D01*
X94198645Y-140955310D01*
X94510438Y-141377775D01*
X94510451Y-141377791D01*
X94735010Y-141638732D01*
X94852942Y-141775772D01*
X94852954Y-141775784D01*
X94852965Y-141775796D01*
X95224203Y-142147034D01*
X95224215Y-142147045D01*
X95224228Y-142147058D01*
X95232604Y-142154266D01*
X95622208Y-142489548D01*
X95622224Y-142489561D01*
X96044689Y-142801354D01*
X96044706Y-142801366D01*
X96333475Y-142982811D01*
X96489295Y-143080719D01*
X96660588Y-143171250D01*
X96953503Y-143326062D01*
X96953519Y-143326069D01*
X96953524Y-143326072D01*
X97434791Y-143536046D01*
X97434798Y-143536048D01*
X97434799Y-143536049D01*
X97930394Y-143709465D01*
X97930403Y-143709468D01*
X98437589Y-143845369D01*
X98713953Y-143897659D01*
X98897425Y-143932375D01*
X98960639Y-143964692D01*
X98996347Y-144026056D01*
X99000000Y-144056178D01*
X99000000Y-148874000D01*
X98979998Y-148942121D01*
X98926342Y-148988614D01*
X98874000Y-149000000D01*
X51126000Y-149000000D01*
X51057879Y-148979998D01*
X51011386Y-148926342D01*
X51000000Y-148874000D01*
X51000000Y-144424136D01*
X67730000Y-144424136D01*
X67732832Y-144460117D01*
X67732834Y-144460130D01*
X67777595Y-144614197D01*
X67859261Y-144752285D01*
X67859266Y-144752292D01*
X67972707Y-144865733D01*
X67972714Y-144865738D01*
X68110802Y-144947404D01*
X68264869Y-144992165D01*
X68264882Y-144992167D01*
X68300863Y-144994999D01*
X68300865Y-144995000D01*
X68961000Y-144995000D01*
X68961000Y-143943674D01*
X69072685Y-143994680D01*
X69179237Y-144010000D01*
X69250763Y-144010000D01*
X69357315Y-143994680D01*
X69469000Y-143943674D01*
X69469000Y-144995000D01*
X70129135Y-144995000D01*
X70129136Y-144994999D01*
X70165117Y-144992167D01*
X70165130Y-144992165D01*
X70319195Y-144947404D01*
X70382058Y-144910227D01*
X70450874Y-144892767D01*
X70518205Y-144915283D01*
X70528723Y-144923467D01*
X70529575Y-144924205D01*
X70529580Y-144924210D01*
X70743316Y-145084211D01*
X70977647Y-145212165D01*
X71227803Y-145305468D01*
X71227806Y-145305468D01*
X71227810Y-145305470D01*
X71378788Y-145338313D01*
X71488691Y-145362221D01*
X71755000Y-145381268D01*
X72021309Y-145362221D01*
X72282188Y-145305470D01*
X72282189Y-145305470D01*
X72282190Y-145305469D01*
X72282197Y-145305468D01*
X72532353Y-145212165D01*
X72766684Y-145084211D01*
X72949491Y-144947362D01*
X73016011Y-144922552D01*
X73085385Y-144937643D01*
X73100507Y-144947361D01*
X73283316Y-145084211D01*
X73517647Y-145212165D01*
X73767803Y-145305468D01*
X73767806Y-145305468D01*
X73767810Y-145305470D01*
X73918788Y-145338313D01*
X74028691Y-145362221D01*
X74295000Y-145381268D01*
X74561309Y-145362221D01*
X74822188Y-145305470D01*
X74822189Y-145305470D01*
X74822190Y-145305469D01*
X74822197Y-145305468D01*
X75072353Y-145212165D01*
X75306684Y-145084211D01*
X75520420Y-144924210D01*
X75709210Y-144735420D01*
X75869211Y-144521684D01*
X75997165Y-144287353D01*
X76090468Y-144037197D01*
X76147221Y-143776309D01*
X76166268Y-143510000D01*
X76147221Y-143243691D01*
X76111769Y-143080721D01*
X76090470Y-142982811D01*
X76090470Y-142982810D01*
X76090468Y-142982806D01*
X76090468Y-142982803D01*
X75997165Y-142732647D01*
X75869211Y-142498316D01*
X75709210Y-142284580D01*
X75520420Y-142095790D01*
X75520417Y-142095788D01*
X75520414Y-142095785D01*
X75425856Y-142025000D01*
X75306684Y-141935789D01*
X75178729Y-141865920D01*
X75072352Y-141807834D01*
X74822189Y-141714529D01*
X74561311Y-141657779D01*
X74561313Y-141657779D01*
X74295000Y-141638732D01*
X74028687Y-141657779D01*
X73767811Y-141714529D01*
X73767810Y-141714529D01*
X73517647Y-141807834D01*
X73283316Y-141935789D01*
X73100509Y-142072636D01*
X73033988Y-142097447D01*
X72964614Y-142082355D01*
X72949491Y-142072636D01*
X72854673Y-142001657D01*
X72766684Y-141935789D01*
X72638728Y-141865920D01*
X72532352Y-141807834D01*
X72282189Y-141714529D01*
X72021311Y-141657779D01*
X72021313Y-141657779D01*
X71755000Y-141638732D01*
X71488687Y-141657779D01*
X71227811Y-141714529D01*
X71227810Y-141714529D01*
X70977647Y-141807834D01*
X70743316Y-141935789D01*
X70529580Y-142095790D01*
X70528700Y-142096553D01*
X70528345Y-142096715D01*
X70525978Y-142098487D01*
X70525592Y-142097971D01*
X70464116Y-142126039D01*
X70393843Y-142115927D01*
X70382059Y-142109772D01*
X70319197Y-142072595D01*
X70165130Y-142027834D01*
X70165117Y-142027832D01*
X70129136Y-142025000D01*
X69469000Y-142025000D01*
X69469000Y-143076325D01*
X69357315Y-143025320D01*
X69250763Y-143010000D01*
X69179237Y-143010000D01*
X69072685Y-143025320D01*
X68961000Y-143076325D01*
X68961000Y-142025000D01*
X68300864Y-142025000D01*
X68264882Y-142027832D01*
X68264869Y-142027834D01*
X68110802Y-142072595D01*
X67972714Y-142154261D01*
X67972707Y-142154266D01*
X67859266Y-142267707D01*
X67859261Y-142267714D01*
X67777595Y-142405802D01*
X67732834Y-142559869D01*
X67732832Y-142559882D01*
X67730000Y-142595863D01*
X67730000Y-143256000D01*
X68783884Y-143256000D01*
X68755507Y-143300156D01*
X68715000Y-143438111D01*
X68715000Y-143581889D01*
X68755507Y-143719844D01*
X68783884Y-143764000D01*
X67730000Y-143764000D01*
X67730000Y-144424136D01*
X51000000Y-144424136D01*
X51000000Y-138326542D01*
X65443900Y-138326542D01*
X65458606Y-138475860D01*
X65458606Y-138475863D01*
X65516732Y-138667477D01*
X65516734Y-138667483D01*
X65611120Y-138844066D01*
X65611122Y-138844069D01*
X65738148Y-138998852D01*
X65892931Y-139125878D01*
X66069520Y-139220267D01*
X66261131Y-139278392D01*
X66261136Y-139278392D01*
X66261138Y-139278393D01*
X66370469Y-139289160D01*
X66410466Y-139293100D01*
X66410475Y-139293100D01*
X68209525Y-139293100D01*
X68209534Y-139293100D01*
X68306779Y-139283522D01*
X68358860Y-139278393D01*
X68358861Y-139278392D01*
X68358869Y-139278392D01*
X68388940Y-139269269D01*
X68550475Y-139220269D01*
X68550477Y-139220267D01*
X68550480Y-139220267D01*
X68606024Y-139190577D01*
X68665420Y-139175700D01*
X69291949Y-139175700D01*
X69360070Y-139195702D01*
X69381044Y-139212605D01*
X70456953Y-140288514D01*
X70483245Y-140326995D01*
X70504955Y-140376489D01*
X70592642Y-140510705D01*
X70633351Y-140573014D01*
X70792342Y-140745725D01*
X70977592Y-140889910D01*
X70977593Y-140889911D01*
X71184048Y-141001639D01*
X71184050Y-141001640D01*
X71300622Y-141041659D01*
X71406078Y-141077862D01*
X71637625Y-141116500D01*
X71637629Y-141116500D01*
X71872371Y-141116500D01*
X71872375Y-141116500D01*
X72103922Y-141077862D01*
X72325952Y-141001639D01*
X72532407Y-140889911D01*
X72717658Y-140745725D01*
X72876649Y-140573014D01*
X73005044Y-140376490D01*
X73099342Y-140161513D01*
X73126753Y-140053267D01*
X73156968Y-139933956D01*
X73156969Y-139933950D01*
X73156970Y-139933947D01*
X73176355Y-139700000D01*
X73156970Y-139466053D01*
X73156969Y-139466049D01*
X73156968Y-139466043D01*
X73099342Y-139238487D01*
X73099340Y-139238483D01*
X73080574Y-139195702D01*
X73005044Y-139023510D01*
X72876649Y-138826986D01*
X72717658Y-138654275D01*
X72599023Y-138561938D01*
X72532409Y-138510090D01*
X72469163Y-138475863D01*
X72372539Y-138423572D01*
X72343416Y-138401855D01*
X72283061Y-138341500D01*
X76570000Y-138341500D01*
X76570000Y-138561938D01*
X76576082Y-138639210D01*
X76624230Y-138818902D01*
X76708687Y-138984658D01*
X76708688Y-138984661D01*
X76825763Y-139129236D01*
X76970338Y-139246311D01*
X76970341Y-139246312D01*
X77136097Y-139330769D01*
X77315789Y-139378917D01*
X77393061Y-139385000D01*
X77851000Y-139385000D01*
X77851000Y-138341500D01*
X78359000Y-138341500D01*
X78359000Y-139385000D01*
X78816939Y-139385000D01*
X78894210Y-139378917D01*
X79073902Y-139330769D01*
X79239658Y-139246312D01*
X79239661Y-139246311D01*
X79384236Y-139129236D01*
X79501311Y-138984661D01*
X79501312Y-138984658D01*
X79585769Y-138818902D01*
X79633917Y-138639210D01*
X79640000Y-138561938D01*
X79640000Y-138341500D01*
X78359000Y-138341500D01*
X77851000Y-138341500D01*
X76570000Y-138341500D01*
X72283061Y-138341500D01*
X71775061Y-137833500D01*
X70798794Y-136857233D01*
X70778125Y-136836564D01*
X70757458Y-136815896D01*
X70757456Y-136815894D01*
X70711813Y-136783935D01*
X70707450Y-136780587D01*
X70664774Y-136744777D01*
X70664773Y-136744776D01*
X70637920Y-136729272D01*
X70616505Y-136716908D01*
X70611882Y-136713962D01*
X70587828Y-136697119D01*
X70566253Y-136682012D01*
X70566250Y-136682011D01*
X70566248Y-136682009D01*
X70515760Y-136658465D01*
X70510884Y-136655927D01*
X70462626Y-136628065D01*
X70410264Y-136609007D01*
X70405185Y-136606903D01*
X70354705Y-136583364D01*
X70354701Y-136583362D01*
X70354698Y-136583361D01*
X70354696Y-136583360D01*
X70354690Y-136583358D01*
X70300870Y-136568937D01*
X70295628Y-136567284D01*
X70243283Y-136548233D01*
X70243284Y-136548233D01*
X70188414Y-136538557D01*
X70183048Y-136537367D01*
X70129232Y-136522947D01*
X70073727Y-136518091D01*
X70068278Y-136517373D01*
X70013411Y-136507700D01*
X70013410Y-136507700D01*
X69954947Y-136507700D01*
X69460336Y-136507700D01*
X69392215Y-136487698D01*
X69345722Y-136434042D01*
X69335618Y-136363768D01*
X69365112Y-136299188D01*
X69388063Y-136278489D01*
X69394975Y-136273648D01*
X69425997Y-136251925D01*
X69430594Y-136248997D01*
X69478874Y-136221123D01*
X69521568Y-136185296D01*
X69525911Y-136181965D01*
X69571554Y-136150007D01*
X69754327Y-135967234D01*
X69754329Y-135967231D01*
X71073419Y-134648140D01*
X71102541Y-134626425D01*
X71114414Y-134620000D01*
X72873645Y-134620000D01*
X72893030Y-134853950D01*
X72893031Y-134853956D01*
X72950657Y-135081512D01*
X72950659Y-135081516D01*
X73044955Y-135296489D01*
X73138742Y-135440042D01*
X73173351Y-135493014D01*
X73332342Y-135665725D01*
X73498416Y-135794985D01*
X73517592Y-135809910D01*
X73517593Y-135809911D01*
X73724048Y-135921639D01*
X73724050Y-135921640D01*
X73816891Y-135953512D01*
X73946078Y-135997862D01*
X74177625Y-136036500D01*
X74177629Y-136036500D01*
X74412371Y-136036500D01*
X74412375Y-136036500D01*
X74643922Y-135997862D01*
X74751801Y-135960827D01*
X74792714Y-135954000D01*
X76249392Y-135954000D01*
X76317513Y-135974002D01*
X76352963Y-136008244D01*
X76372539Y-136036500D01*
X76478845Y-136189946D01*
X76478857Y-136189960D01*
X76640039Y-136351142D01*
X76640048Y-136351150D01*
X76640050Y-136351152D01*
X76827446Y-136480979D01*
X76827449Y-136480980D01*
X76827450Y-136480981D01*
X76886274Y-136507700D01*
X77035011Y-136575260D01*
X77134408Y-136600305D01*
X77195576Y-136636345D01*
X77227550Y-136699734D01*
X77220177Y-136770347D01*
X77175798Y-136825764D01*
X77142106Y-136841459D01*
X77142262Y-136841863D01*
X77136455Y-136844091D01*
X77136247Y-136844189D01*
X77136100Y-136844228D01*
X76970341Y-136928687D01*
X76970338Y-136928688D01*
X76825763Y-137045763D01*
X76708688Y-137190338D01*
X76708687Y-137190341D01*
X76624230Y-137356097D01*
X76576082Y-137535789D01*
X76570000Y-137613061D01*
X76570000Y-137833500D01*
X79640000Y-137833500D01*
X79640000Y-137613061D01*
X79633917Y-137535789D01*
X79585769Y-137356097D01*
X79501312Y-137190341D01*
X79501311Y-137190338D01*
X79384236Y-137045763D01*
X79239661Y-136928688D01*
X79239658Y-136928687D01*
X79073899Y-136844228D01*
X79073757Y-136844190D01*
X79073683Y-136844145D01*
X79067738Y-136841863D01*
X79068155Y-136840775D01*
X79013137Y-136807233D01*
X78982121Y-136743370D01*
X78990555Y-136672876D01*
X79035763Y-136618133D01*
X79075588Y-136600306D01*
X79174989Y-136575260D01*
X79382554Y-136480979D01*
X79569950Y-136351152D01*
X79731152Y-136189950D01*
X79860979Y-136002554D01*
X79955260Y-135794989D01*
X80010963Y-135573925D01*
X80021500Y-135440042D01*
X80021500Y-134484958D01*
X80010963Y-134351075D01*
X79955260Y-134130011D01*
X79861740Y-133924122D01*
X79860981Y-133922450D01*
X79860980Y-133922449D01*
X79860979Y-133922446D01*
X79731152Y-133735050D01*
X79731150Y-133735048D01*
X79731142Y-133735039D01*
X79569960Y-133573857D01*
X79569951Y-133573849D01*
X79569950Y-133573848D01*
X79382554Y-133444021D01*
X79382552Y-133444020D01*
X79382549Y-133444018D01*
X79174994Y-133349742D01*
X79174991Y-133349741D01*
X79174989Y-133349740D01*
X78953925Y-133294037D01*
X78820042Y-133283500D01*
X77389958Y-133283500D01*
X77380072Y-133284278D01*
X77360656Y-133285806D01*
X77355711Y-133286000D01*
X74792714Y-133286000D01*
X74751802Y-133279173D01*
X74643926Y-133242139D01*
X74643917Y-133242137D01*
X74597877Y-133234454D01*
X74412375Y-133203500D01*
X74177625Y-133203500D01*
X74023076Y-133229289D01*
X73946082Y-133242137D01*
X73946073Y-133242139D01*
X73724050Y-133318359D01*
X73724048Y-133318360D01*
X73517593Y-133430088D01*
X73517592Y-133430089D01*
X73332339Y-133574277D01*
X73173348Y-133746989D01*
X73044955Y-133943510D01*
X72950659Y-134158483D01*
X72950657Y-134158487D01*
X72893031Y-134386043D01*
X72893030Y-134386049D01*
X72873645Y-134620000D01*
X71114414Y-134620000D01*
X71262407Y-134539911D01*
X71447658Y-134395725D01*
X71606649Y-134223014D01*
X71735044Y-134026490D01*
X71829342Y-133811513D01*
X71886970Y-133583947D01*
X71906355Y-133350000D01*
X71886970Y-133116053D01*
X71886969Y-133116049D01*
X71886968Y-133116043D01*
X71829342Y-132888487D01*
X71829340Y-132888483D01*
X71773633Y-132761485D01*
X71735044Y-132673510D01*
X71606649Y-132476986D01*
X71447658Y-132304275D01*
X71262407Y-132160089D01*
X71262406Y-132160088D01*
X71055951Y-132048360D01*
X71055949Y-132048359D01*
X70833926Y-131972139D01*
X70833917Y-131972137D01*
X70787877Y-131964454D01*
X70602375Y-131933500D01*
X70367625Y-131933500D01*
X70213076Y-131959289D01*
X70136082Y-131972137D01*
X70136073Y-131972139D01*
X69914050Y-132048359D01*
X69914048Y-132048360D01*
X69707593Y-132160088D01*
X69707592Y-132160089D01*
X69522339Y-132304277D01*
X69363348Y-132476989D01*
X69234958Y-132673506D01*
X69234950Y-132673520D01*
X69213243Y-132723006D01*
X69186952Y-132761485D01*
X68228442Y-133719996D01*
X68166132Y-133754020D01*
X68139349Y-133756900D01*
X66410457Y-133756900D01*
X66261139Y-133771606D01*
X66261136Y-133771606D01*
X66069522Y-133829732D01*
X66069516Y-133829734D01*
X65892933Y-133924120D01*
X65738148Y-134051148D01*
X65611120Y-134205933D01*
X65516734Y-134382516D01*
X65516732Y-134382522D01*
X65458606Y-134574136D01*
X65458606Y-134574139D01*
X65443900Y-134723457D01*
X65443900Y-135524942D01*
X65458606Y-135674260D01*
X65458606Y-135674263D01*
X65516732Y-135865877D01*
X65516734Y-135865883D01*
X65592829Y-136008246D01*
X65611122Y-136042469D01*
X65738148Y-136197252D01*
X65892931Y-136324278D01*
X65892933Y-136324279D01*
X66060560Y-136413878D01*
X66111208Y-136463630D01*
X66126918Y-136532867D01*
X66102702Y-136599606D01*
X66060560Y-136636122D01*
X65892933Y-136725720D01*
X65738148Y-136852748D01*
X65611120Y-137007533D01*
X65516734Y-137184116D01*
X65516732Y-137184122D01*
X65458606Y-137375736D01*
X65458606Y-137375739D01*
X65443900Y-137525057D01*
X65443900Y-138326542D01*
X51000000Y-138326542D01*
X51000000Y-101126000D01*
X51020002Y-101057879D01*
X51073658Y-101011386D01*
X51126000Y-101000000D01*
X55943822Y-101000000D01*
X56011943Y-101020002D01*
G37*
%TD.AperFunction*%
%TD*%
M02*
