%TF.GenerationSoftware,KiCad,Pcbnew,7.0.5-0*%
%TF.CreationDate,2023-06-12T12:21:11-04:00*%
%TF.ProjectId,quad_sipm,71756164-5f73-4697-906d-2e6b69636164,rev?*%
%TF.SameCoordinates,Original*%
%TF.FileFunction,Legend,Top*%
%TF.FilePolarity,Positive*%
%FSLAX46Y46*%
G04 Gerber Fmt 4.6, Leading zero omitted, Abs format (unit mm)*
G04 Created by KiCad (PCBNEW 7.0.5-0) date 2023-06-12 12:21:11*
%MOMM*%
%LPD*%
G01*
G04 APERTURE LIST*
%ADD10C,0.120000*%
%ADD11C,0.150000*%
G04 APERTURE END LIST*
D10*
X51000000Y-100000000D02*
X149000000Y-100000000D01*
X100000000Y-51000000D02*
X100000000Y-149000000D01*
D11*
%TO.C,D1*%
X126031905Y-124474819D02*
X126031905Y-123474819D01*
X126031905Y-123474819D02*
X126270000Y-123474819D01*
X126270000Y-123474819D02*
X126412857Y-123522438D01*
X126412857Y-123522438D02*
X126508095Y-123617676D01*
X126508095Y-123617676D02*
X126555714Y-123712914D01*
X126555714Y-123712914D02*
X126603333Y-123903390D01*
X126603333Y-123903390D02*
X126603333Y-124046247D01*
X126603333Y-124046247D02*
X126555714Y-124236723D01*
X126555714Y-124236723D02*
X126508095Y-124331961D01*
X126508095Y-124331961D02*
X126412857Y-124427200D01*
X126412857Y-124427200D02*
X126270000Y-124474819D01*
X126270000Y-124474819D02*
X126031905Y-124474819D01*
X127555714Y-124474819D02*
X126984286Y-124474819D01*
X127270000Y-124474819D02*
X127270000Y-123474819D01*
X127270000Y-123474819D02*
X127174762Y-123617676D01*
X127174762Y-123617676D02*
X127079524Y-123712914D01*
X127079524Y-123712914D02*
X126984286Y-123760533D01*
%TO.C,D3*%
X126031905Y-67959819D02*
X126031905Y-66959819D01*
X126031905Y-66959819D02*
X126270000Y-66959819D01*
X126270000Y-66959819D02*
X126412857Y-67007438D01*
X126412857Y-67007438D02*
X126508095Y-67102676D01*
X126508095Y-67102676D02*
X126555714Y-67197914D01*
X126555714Y-67197914D02*
X126603333Y-67388390D01*
X126603333Y-67388390D02*
X126603333Y-67531247D01*
X126603333Y-67531247D02*
X126555714Y-67721723D01*
X126555714Y-67721723D02*
X126508095Y-67816961D01*
X126508095Y-67816961D02*
X126412857Y-67912200D01*
X126412857Y-67912200D02*
X126270000Y-67959819D01*
X126270000Y-67959819D02*
X126031905Y-67959819D01*
X126936667Y-66959819D02*
X127555714Y-66959819D01*
X127555714Y-66959819D02*
X127222381Y-67340771D01*
X127222381Y-67340771D02*
X127365238Y-67340771D01*
X127365238Y-67340771D02*
X127460476Y-67388390D01*
X127460476Y-67388390D02*
X127508095Y-67436009D01*
X127508095Y-67436009D02*
X127555714Y-67531247D01*
X127555714Y-67531247D02*
X127555714Y-67769342D01*
X127555714Y-67769342D02*
X127508095Y-67864580D01*
X127508095Y-67864580D02*
X127460476Y-67912200D01*
X127460476Y-67912200D02*
X127365238Y-67959819D01*
X127365238Y-67959819D02*
X127079524Y-67959819D01*
X127079524Y-67959819D02*
X126984286Y-67912200D01*
X126984286Y-67912200D02*
X126936667Y-67864580D01*
%TO.C,D4*%
X69516905Y-67959819D02*
X69516905Y-66959819D01*
X69516905Y-66959819D02*
X69755000Y-66959819D01*
X69755000Y-66959819D02*
X69897857Y-67007438D01*
X69897857Y-67007438D02*
X69993095Y-67102676D01*
X69993095Y-67102676D02*
X70040714Y-67197914D01*
X70040714Y-67197914D02*
X70088333Y-67388390D01*
X70088333Y-67388390D02*
X70088333Y-67531247D01*
X70088333Y-67531247D02*
X70040714Y-67721723D01*
X70040714Y-67721723D02*
X69993095Y-67816961D01*
X69993095Y-67816961D02*
X69897857Y-67912200D01*
X69897857Y-67912200D02*
X69755000Y-67959819D01*
X69755000Y-67959819D02*
X69516905Y-67959819D01*
X70945476Y-67293152D02*
X70945476Y-67959819D01*
X70707381Y-66912200D02*
X70469286Y-67626485D01*
X70469286Y-67626485D02*
X71088333Y-67626485D01*
%TO.C,D2*%
X72516905Y-132974819D02*
X72516905Y-131974819D01*
X72516905Y-131974819D02*
X72755000Y-131974819D01*
X72755000Y-131974819D02*
X72897857Y-132022438D01*
X72897857Y-132022438D02*
X72993095Y-132117676D01*
X72993095Y-132117676D02*
X73040714Y-132212914D01*
X73040714Y-132212914D02*
X73088333Y-132403390D01*
X73088333Y-132403390D02*
X73088333Y-132546247D01*
X73088333Y-132546247D02*
X73040714Y-132736723D01*
X73040714Y-132736723D02*
X72993095Y-132831961D01*
X72993095Y-132831961D02*
X72897857Y-132927200D01*
X72897857Y-132927200D02*
X72755000Y-132974819D01*
X72755000Y-132974819D02*
X72516905Y-132974819D01*
X73469286Y-132070057D02*
X73516905Y-132022438D01*
X73516905Y-132022438D02*
X73612143Y-131974819D01*
X73612143Y-131974819D02*
X73850238Y-131974819D01*
X73850238Y-131974819D02*
X73945476Y-132022438D01*
X73945476Y-132022438D02*
X73993095Y-132070057D01*
X73993095Y-132070057D02*
X74040714Y-132165295D01*
X74040714Y-132165295D02*
X74040714Y-132260533D01*
X74040714Y-132260533D02*
X73993095Y-132403390D01*
X73993095Y-132403390D02*
X73421667Y-132974819D01*
X73421667Y-132974819D02*
X74040714Y-132974819D01*
%TO.C,H2*%
X99238095Y-91054819D02*
X99238095Y-90054819D01*
X99238095Y-90531009D02*
X99809523Y-90531009D01*
X99809523Y-91054819D02*
X99809523Y-90054819D01*
X100238095Y-90150057D02*
X100285714Y-90102438D01*
X100285714Y-90102438D02*
X100380952Y-90054819D01*
X100380952Y-90054819D02*
X100619047Y-90054819D01*
X100619047Y-90054819D02*
X100714285Y-90102438D01*
X100714285Y-90102438D02*
X100761904Y-90150057D01*
X100761904Y-90150057D02*
X100809523Y-90245295D01*
X100809523Y-90245295D02*
X100809523Y-90340533D01*
X100809523Y-90340533D02*
X100761904Y-90483390D01*
X100761904Y-90483390D02*
X100190476Y-91054819D01*
X100190476Y-91054819D02*
X100809523Y-91054819D01*
%TO.C,H3*%
X99238095Y-128054819D02*
X99238095Y-127054819D01*
X99238095Y-127531009D02*
X99809523Y-127531009D01*
X99809523Y-128054819D02*
X99809523Y-127054819D01*
X100190476Y-127054819D02*
X100809523Y-127054819D01*
X100809523Y-127054819D02*
X100476190Y-127435771D01*
X100476190Y-127435771D02*
X100619047Y-127435771D01*
X100619047Y-127435771D02*
X100714285Y-127483390D01*
X100714285Y-127483390D02*
X100761904Y-127531009D01*
X100761904Y-127531009D02*
X100809523Y-127626247D01*
X100809523Y-127626247D02*
X100809523Y-127864342D01*
X100809523Y-127864342D02*
X100761904Y-127959580D01*
X100761904Y-127959580D02*
X100714285Y-128007200D01*
X100714285Y-128007200D02*
X100619047Y-128054819D01*
X100619047Y-128054819D02*
X100333333Y-128054819D01*
X100333333Y-128054819D02*
X100238095Y-128007200D01*
X100238095Y-128007200D02*
X100190476Y-127959580D01*
%TO.C,H4*%
X136238095Y-91054819D02*
X136238095Y-90054819D01*
X136238095Y-90531009D02*
X136809523Y-90531009D01*
X136809523Y-91054819D02*
X136809523Y-90054819D01*
X137714285Y-90388152D02*
X137714285Y-91054819D01*
X137476190Y-90007200D02*
X137238095Y-90721485D01*
X137238095Y-90721485D02*
X137857142Y-90721485D01*
%TO.C,H5*%
X62238095Y-91054819D02*
X62238095Y-90054819D01*
X62238095Y-90531009D02*
X62809523Y-90531009D01*
X62809523Y-91054819D02*
X62809523Y-90054819D01*
X63761904Y-90054819D02*
X63285714Y-90054819D01*
X63285714Y-90054819D02*
X63238095Y-90531009D01*
X63238095Y-90531009D02*
X63285714Y-90483390D01*
X63285714Y-90483390D02*
X63380952Y-90435771D01*
X63380952Y-90435771D02*
X63619047Y-90435771D01*
X63619047Y-90435771D02*
X63714285Y-90483390D01*
X63714285Y-90483390D02*
X63761904Y-90531009D01*
X63761904Y-90531009D02*
X63809523Y-90626247D01*
X63809523Y-90626247D02*
X63809523Y-90864342D01*
X63809523Y-90864342D02*
X63761904Y-90959580D01*
X63761904Y-90959580D02*
X63714285Y-91007200D01*
X63714285Y-91007200D02*
X63619047Y-91054819D01*
X63619047Y-91054819D02*
X63380952Y-91054819D01*
X63380952Y-91054819D02*
X63285714Y-91007200D01*
X63285714Y-91007200D02*
X63238095Y-90959580D01*
%TO.C,H1*%
X99238095Y-54054819D02*
X99238095Y-53054819D01*
X99238095Y-53531009D02*
X99809523Y-53531009D01*
X99809523Y-54054819D02*
X99809523Y-53054819D01*
X100809523Y-54054819D02*
X100238095Y-54054819D01*
X100523809Y-54054819D02*
X100523809Y-53054819D01*
X100523809Y-53054819D02*
X100428571Y-53197676D01*
X100428571Y-53197676D02*
X100333333Y-53292914D01*
X100333333Y-53292914D02*
X100238095Y-53340533D01*
D10*
%TO.C,D1*%
X125020000Y-125020000D02*
X125020000Y-131520000D01*
X125020000Y-131520000D02*
X131520000Y-131520000D01*
X131520000Y-125020000D02*
X125020000Y-125020000D01*
X131520000Y-131520000D02*
X131520000Y-125020000D01*
%TO.C,D3*%
X125020000Y-68505000D02*
X125020000Y-75005000D01*
X125020000Y-75005000D02*
X131520000Y-75005000D01*
X131520000Y-68505000D02*
X125020000Y-68505000D01*
X131520000Y-75005000D02*
X131520000Y-68505000D01*
%TO.C,D4*%
X68505000Y-68505000D02*
X68505000Y-75005000D01*
X68505000Y-75005000D02*
X75005000Y-75005000D01*
X75005000Y-68505000D02*
X68505000Y-68505000D01*
X75005000Y-75005000D02*
X75005000Y-68505000D01*
%TO.C,D2*%
X75005000Y-131520000D02*
X75005000Y-125020000D01*
X75005000Y-125020000D02*
X68505000Y-125020000D01*
X68505000Y-131520000D02*
X75005000Y-131520000D01*
X68505000Y-125020000D02*
X68505000Y-131520000D01*
%TO.C,J5*%
X116885000Y-115040000D02*
X115555000Y-115040000D01*
X115570000Y-114995000D02*
X120710000Y-114995000D01*
X115570000Y-114995000D02*
X115570000Y-112335000D01*
X120710000Y-114995000D02*
X120710000Y-112335000D01*
X111560000Y-114985000D02*
X111585000Y-110910000D01*
X115570000Y-112335000D02*
X120710000Y-112335000D01*
%TD*%
M02*
