%TF.GenerationSoftware,KiCad,Pcbnew,7.0.5-0*%
%TF.CreationDate,2023-06-12T12:21:11-04:00*%
%TF.ProjectId,quad_sipm,71756164-5f73-4697-906d-2e6b69636164,rev?*%
%TF.SameCoordinates,Original*%
%TF.FileFunction,Soldermask,Top*%
%TF.FilePolarity,Negative*%
%FSLAX46Y46*%
G04 Gerber Fmt 4.6, Leading zero omitted, Abs format (unit mm)*
G04 Created by KiCad (PCBNEW 7.0.5-0) date 2023-06-12 12:21:11*
%MOMM*%
%LPD*%
G01*
G04 APERTURE LIST*
%ADD10C,0.700000*%
%ADD11C,16.800000*%
%ADD12C,12.000000*%
%ADD13R,1.700000X1.700000*%
%ADD14O,1.700000X1.700000*%
G04 APERTURE END LIST*
D10*
%TO.C,D1*%
X130770000Y-130770000D03*
X130770000Y-125770000D03*
X129520000Y-129520000D03*
X129520000Y-127020000D03*
X127020000Y-129520000D03*
X127020000Y-127020000D03*
X125770000Y-130770000D03*
X125770000Y-125770000D03*
%TD*%
%TO.C,D3*%
X130770000Y-74255000D03*
X130770000Y-69255000D03*
X129520000Y-73005000D03*
X129520000Y-70505000D03*
X127020000Y-73005000D03*
X127020000Y-70505000D03*
X125770000Y-74255000D03*
X125770000Y-69255000D03*
%TD*%
%TO.C,D4*%
X74255000Y-74255000D03*
X74255000Y-69255000D03*
X73005000Y-73005000D03*
X73005000Y-70505000D03*
X70505000Y-73005000D03*
X70505000Y-70505000D03*
X69255000Y-74255000D03*
X69255000Y-69255000D03*
%TD*%
%TO.C,D2*%
X69255000Y-125770000D03*
X69255000Y-130770000D03*
X70505000Y-127020000D03*
X70505000Y-129520000D03*
X73005000Y-127020000D03*
X73005000Y-129520000D03*
X74255000Y-125770000D03*
X74255000Y-130770000D03*
%TD*%
D11*
%TO.C,H2*%
X100000000Y-100000000D03*
%TD*%
D12*
%TO.C,H3*%
X100000000Y-137000000D03*
%TD*%
%TO.C,H4*%
X137000000Y-100000000D03*
%TD*%
%TO.C,H5*%
X63000000Y-100000000D03*
%TD*%
%TO.C,H1*%
X100000000Y-63000000D03*
%TD*%
D13*
%TO.C,J5*%
X114300000Y-113665000D03*
D14*
X116840000Y-113665000D03*
X119380000Y-113665000D03*
%TD*%
D13*
%TO.C,J1*%
X125685000Y-143555000D03*
D14*
X128225000Y-143555000D03*
X130765000Y-143555000D03*
%TD*%
D13*
%TO.C,J3*%
X125685000Y-56560000D03*
D14*
X128225000Y-56560000D03*
X130765000Y-56560000D03*
%TD*%
D13*
%TO.C,J4*%
X69215000Y-56515000D03*
D14*
X71755000Y-56515000D03*
X74295000Y-56515000D03*
%TD*%
D13*
%TO.C,J2*%
X69215000Y-143510000D03*
D14*
X71755000Y-143510000D03*
X74295000Y-143510000D03*
%TD*%
M02*
