%TF.GenerationSoftware,KiCad,Pcbnew,7.0.5-0*%
%TF.CreationDate,2023-06-12T12:21:12-04:00*%
%TF.ProjectId,quad_sipm,71756164-5f73-4697-906d-2e6b69636164,rev?*%
%TF.SameCoordinates,Original*%
%TF.FileFunction,Soldermask,Bot*%
%TF.FilePolarity,Negative*%
%FSLAX46Y46*%
G04 Gerber Fmt 4.6, Leading zero omitted, Abs format (unit mm)*
G04 Created by KiCad (PCBNEW 7.0.5-0) date 2023-06-12 12:21:12*
%MOMM*%
%LPD*%
G01*
G04 APERTURE LIST*
G04 Aperture macros list*
%AMRoundRect*
0 Rectangle with rounded corners*
0 $1 Rounding radius*
0 $2 $3 $4 $5 $6 $7 $8 $9 X,Y pos of 4 corners*
0 Add a 4 corners polygon primitive as box body*
4,1,4,$2,$3,$4,$5,$6,$7,$8,$9,$2,$3,0*
0 Add four circle primitives for the rounded corners*
1,1,$1+$1,$2,$3*
1,1,$1+$1,$4,$5*
1,1,$1+$1,$6,$7*
1,1,$1+$1,$8,$9*
0 Add four rect primitives between the rounded corners*
20,1,$1+$1,$2,$3,$4,$5,0*
20,1,$1+$1,$4,$5,$6,$7,0*
20,1,$1+$1,$6,$7,$8,$9,0*
20,1,$1+$1,$8,$9,$2,$3,0*%
G04 Aperture macros list end*
%ADD10C,16.800000*%
%ADD11C,12.000000*%
%ADD12R,1.700000X1.700000*%
%ADD13O,1.700000X1.700000*%
%ADD14RoundRect,0.250000X0.650000X-0.412500X0.650000X0.412500X-0.650000X0.412500X-0.650000X-0.412500X0*%
%ADD15R,1.699200X0.701600*%
%ADD16RoundRect,0.150000X0.825000X0.150000X-0.825000X0.150000X-0.825000X-0.150000X0.825000X-0.150000X0*%
%ADD17RoundRect,0.250000X-0.412500X-0.650000X0.412500X-0.650000X0.412500X0.650000X-0.412500X0.650000X0*%
G04 APERTURE END LIST*
D10*
%TO.C,H2*%
X100000000Y-100000000D03*
%TD*%
D11*
%TO.C,H3*%
X100000000Y-137000000D03*
%TD*%
%TO.C,H4*%
X137000000Y-100000000D03*
%TD*%
%TO.C,H5*%
X63000000Y-100000000D03*
%TD*%
%TO.C,H1*%
X100000000Y-63000000D03*
%TD*%
D12*
%TO.C,J5*%
X114300000Y-113665000D03*
D13*
X116840000Y-113665000D03*
X119380000Y-113665000D03*
%TD*%
D12*
%TO.C,J1*%
X125685000Y-143555000D03*
D13*
X128225000Y-143555000D03*
X130765000Y-143555000D03*
%TD*%
D14*
%TO.C,C4*%
X76835000Y-65355000D03*
X76835000Y-62230000D03*
%TD*%
D12*
%TO.C,J3*%
X125685000Y-56560000D03*
D13*
X128225000Y-56560000D03*
X130765000Y-56560000D03*
%TD*%
D12*
%TO.C,J4*%
X69215000Y-56515000D03*
D13*
X71755000Y-56515000D03*
X74295000Y-56515000D03*
%TD*%
D14*
%TO.C,C3*%
X133985000Y-65062500D03*
X133985000Y-61937500D03*
%TD*%
D12*
%TO.C,J2*%
X69215000Y-143510000D03*
D13*
X71755000Y-143510000D03*
X74295000Y-143510000D03*
%TD*%
D14*
%TO.C,C1*%
X133985000Y-137452500D03*
X133985000Y-134327500D03*
%TD*%
%TO.C,C2*%
X78105000Y-138087500D03*
X78105000Y-134962500D03*
%TD*%
D15*
%TO.C,R3*%
X123825000Y-62099200D03*
X123825000Y-64900800D03*
%TD*%
D16*
%TO.C,U1*%
X120575000Y-125395000D03*
X120575000Y-126665000D03*
X120575000Y-127935000D03*
X120575000Y-129205000D03*
X115625000Y-129205000D03*
X115625000Y-127935000D03*
X115625000Y-126665000D03*
X115625000Y-125395000D03*
%TD*%
D17*
%TO.C,C5*%
X115737500Y-121900000D03*
X118862500Y-121900000D03*
%TD*%
D15*
%TO.C,R4*%
X67310000Y-64719200D03*
X67310000Y-61917600D03*
%TD*%
%TO.C,R2*%
X67310000Y-135124200D03*
X67310000Y-137925800D03*
%TD*%
%TO.C,R1*%
X124460000Y-134489200D03*
X124460000Y-137290800D03*
%TD*%
M02*
