%TF.GenerationSoftware,KiCad,Pcbnew,7.0.5-0*%
%TF.CreationDate,2023-07-05T09:30:56-04:00*%
%TF.ProjectId,quad_sipm,71756164-5f73-4697-906d-2e6b69636164,rev?*%
%TF.SameCoordinates,Original*%
%TF.FileFunction,Legend,Bot*%
%TF.FilePolarity,Positive*%
%FSLAX46Y46*%
G04 Gerber Fmt 4.6, Leading zero omitted, Abs format (unit mm)*
G04 Created by KiCad (PCBNEW 7.0.5-0) date 2023-07-05 09:30:56*
%MOMM*%
%LPD*%
G01*
G04 APERTURE LIST*
%ADD10C,0.150000*%
%ADD11C,0.203200*%
%ADD12C,0.120000*%
%ADD13C,0.152400*%
G04 APERTURE END LIST*
D10*
X124597438Y-53601904D02*
X124549819Y-53506666D01*
X124549819Y-53506666D02*
X124549819Y-53363809D01*
X124549819Y-53363809D02*
X124597438Y-53220952D01*
X124597438Y-53220952D02*
X124692676Y-53125714D01*
X124692676Y-53125714D02*
X124787914Y-53078095D01*
X124787914Y-53078095D02*
X124978390Y-53030476D01*
X124978390Y-53030476D02*
X125121247Y-53030476D01*
X125121247Y-53030476D02*
X125311723Y-53078095D01*
X125311723Y-53078095D02*
X125406961Y-53125714D01*
X125406961Y-53125714D02*
X125502200Y-53220952D01*
X125502200Y-53220952D02*
X125549819Y-53363809D01*
X125549819Y-53363809D02*
X125549819Y-53459047D01*
X125549819Y-53459047D02*
X125502200Y-53601904D01*
X125502200Y-53601904D02*
X125454580Y-53649523D01*
X125454580Y-53649523D02*
X125121247Y-53649523D01*
X125121247Y-53649523D02*
X125121247Y-53459047D01*
X131899819Y-53078095D02*
X130899819Y-53078095D01*
X131899819Y-53649523D02*
X131328390Y-53220952D01*
X130899819Y-53649523D02*
X131471247Y-53078095D01*
X128439104Y-53101905D02*
X128439104Y-53578095D01*
X128724819Y-53006667D02*
X127724819Y-53340000D01*
X127724819Y-53340000D02*
X128724819Y-53673333D01*
X68717438Y-146983220D02*
X68669819Y-146887982D01*
X68669819Y-146887982D02*
X68669819Y-146745125D01*
X68669819Y-146745125D02*
X68717438Y-146602268D01*
X68717438Y-146602268D02*
X68812676Y-146507030D01*
X68812676Y-146507030D02*
X68907914Y-146459411D01*
X68907914Y-146459411D02*
X69098390Y-146411792D01*
X69098390Y-146411792D02*
X69241247Y-146411792D01*
X69241247Y-146411792D02*
X69431723Y-146459411D01*
X69431723Y-146459411D02*
X69526961Y-146507030D01*
X69526961Y-146507030D02*
X69622200Y-146602268D01*
X69622200Y-146602268D02*
X69669819Y-146745125D01*
X69669819Y-146745125D02*
X69669819Y-146840363D01*
X69669819Y-146840363D02*
X69622200Y-146983220D01*
X69622200Y-146983220D02*
X69574580Y-147030839D01*
X69574580Y-147030839D02*
X69241247Y-147030839D01*
X69241247Y-147030839D02*
X69241247Y-146840363D01*
X71924104Y-146554649D02*
X71924104Y-147030839D01*
X72209819Y-146459411D02*
X71209819Y-146792744D01*
X71209819Y-146792744D02*
X72209819Y-147126077D01*
X75384819Y-53078095D02*
X74384819Y-53078095D01*
X75384819Y-53649523D02*
X74813390Y-53220952D01*
X74384819Y-53649523D02*
X74956247Y-53078095D01*
X71924104Y-53101905D02*
X71924104Y-53578095D01*
X72209819Y-53006667D02*
X71209819Y-53340000D01*
X71209819Y-53340000D02*
X72209819Y-53673333D01*
X74749819Y-146423095D02*
X73749819Y-146423095D01*
X74749819Y-146994523D02*
X74178390Y-146565952D01*
X73749819Y-146994523D02*
X74321247Y-146423095D01*
X128439104Y-146446905D02*
X128439104Y-146923095D01*
X128724819Y-146351667D02*
X127724819Y-146685000D01*
X127724819Y-146685000D02*
X128724819Y-147018333D01*
X125232438Y-146983220D02*
X125184819Y-146887982D01*
X125184819Y-146887982D02*
X125184819Y-146745125D01*
X125184819Y-146745125D02*
X125232438Y-146602268D01*
X125232438Y-146602268D02*
X125327676Y-146507030D01*
X125327676Y-146507030D02*
X125422914Y-146459411D01*
X125422914Y-146459411D02*
X125613390Y-146411792D01*
X125613390Y-146411792D02*
X125756247Y-146411792D01*
X125756247Y-146411792D02*
X125946723Y-146459411D01*
X125946723Y-146459411D02*
X126041961Y-146507030D01*
X126041961Y-146507030D02*
X126137200Y-146602268D01*
X126137200Y-146602268D02*
X126184819Y-146745125D01*
X126184819Y-146745125D02*
X126184819Y-146840363D01*
X126184819Y-146840363D02*
X126137200Y-146983220D01*
X126137200Y-146983220D02*
X126089580Y-147030839D01*
X126089580Y-147030839D02*
X125756247Y-147030839D01*
X125756247Y-147030839D02*
X125756247Y-146840363D01*
X131899819Y-146423095D02*
X130899819Y-146423095D01*
X131899819Y-146994523D02*
X131328390Y-146565952D01*
X130899819Y-146994523D02*
X131471247Y-146423095D01*
D11*
X142287744Y-79092290D02*
X142015601Y-79183004D01*
X142015601Y-79183004D02*
X141924887Y-79273718D01*
X141924887Y-79273718D02*
X141834173Y-79455147D01*
X141834173Y-79455147D02*
X141834173Y-79727290D01*
X141834173Y-79727290D02*
X141924887Y-79908718D01*
X141924887Y-79908718D02*
X142015601Y-79999433D01*
X142015601Y-79999433D02*
X142197030Y-80090147D01*
X142197030Y-80090147D02*
X142922744Y-80090147D01*
X142922744Y-80090147D02*
X142922744Y-78185147D01*
X142922744Y-78185147D02*
X142287744Y-78185147D01*
X142287744Y-78185147D02*
X142106316Y-78275861D01*
X142106316Y-78275861D02*
X142015601Y-78366575D01*
X142015601Y-78366575D02*
X141924887Y-78548004D01*
X141924887Y-78548004D02*
X141924887Y-78729433D01*
X141924887Y-78729433D02*
X142015601Y-78910861D01*
X142015601Y-78910861D02*
X142106316Y-79001575D01*
X142106316Y-79001575D02*
X142287744Y-79092290D01*
X142287744Y-79092290D02*
X142922744Y-79092290D01*
X140745601Y-80090147D02*
X140927030Y-79999433D01*
X140927030Y-79999433D02*
X141017744Y-79908718D01*
X141017744Y-79908718D02*
X141108458Y-79727290D01*
X141108458Y-79727290D02*
X141108458Y-79183004D01*
X141108458Y-79183004D02*
X141017744Y-79001575D01*
X141017744Y-79001575D02*
X140927030Y-78910861D01*
X140927030Y-78910861D02*
X140745601Y-78820147D01*
X140745601Y-78820147D02*
X140473458Y-78820147D01*
X140473458Y-78820147D02*
X140292030Y-78910861D01*
X140292030Y-78910861D02*
X140201316Y-79001575D01*
X140201316Y-79001575D02*
X140110601Y-79183004D01*
X140110601Y-79183004D02*
X140110601Y-79727290D01*
X140110601Y-79727290D02*
X140201316Y-79908718D01*
X140201316Y-79908718D02*
X140292030Y-79999433D01*
X140292030Y-79999433D02*
X140473458Y-80090147D01*
X140473458Y-80090147D02*
X140745601Y-80090147D01*
X139384887Y-79999433D02*
X139203459Y-80090147D01*
X139203459Y-80090147D02*
X138840602Y-80090147D01*
X138840602Y-80090147D02*
X138659173Y-79999433D01*
X138659173Y-79999433D02*
X138568459Y-79818004D01*
X138568459Y-79818004D02*
X138568459Y-79727290D01*
X138568459Y-79727290D02*
X138659173Y-79545861D01*
X138659173Y-79545861D02*
X138840602Y-79455147D01*
X138840602Y-79455147D02*
X139112745Y-79455147D01*
X139112745Y-79455147D02*
X139294173Y-79364433D01*
X139294173Y-79364433D02*
X139384887Y-79183004D01*
X139384887Y-79183004D02*
X139384887Y-79092290D01*
X139384887Y-79092290D02*
X139294173Y-78910861D01*
X139294173Y-78910861D02*
X139112745Y-78820147D01*
X139112745Y-78820147D02*
X138840602Y-78820147D01*
X138840602Y-78820147D02*
X138659173Y-78910861D01*
X138024173Y-78820147D02*
X137298459Y-78820147D01*
X137752030Y-78185147D02*
X137752030Y-79818004D01*
X137752030Y-79818004D02*
X137661316Y-79999433D01*
X137661316Y-79999433D02*
X137479887Y-80090147D01*
X137479887Y-80090147D02*
X137298459Y-80090147D01*
X136391316Y-80090147D02*
X136572745Y-79999433D01*
X136572745Y-79999433D02*
X136663459Y-79908718D01*
X136663459Y-79908718D02*
X136754173Y-79727290D01*
X136754173Y-79727290D02*
X136754173Y-79183004D01*
X136754173Y-79183004D02*
X136663459Y-79001575D01*
X136663459Y-79001575D02*
X136572745Y-78910861D01*
X136572745Y-78910861D02*
X136391316Y-78820147D01*
X136391316Y-78820147D02*
X136119173Y-78820147D01*
X136119173Y-78820147D02*
X135937745Y-78910861D01*
X135937745Y-78910861D02*
X135847031Y-79001575D01*
X135847031Y-79001575D02*
X135756316Y-79183004D01*
X135756316Y-79183004D02*
X135756316Y-79727290D01*
X135756316Y-79727290D02*
X135847031Y-79908718D01*
X135847031Y-79908718D02*
X135937745Y-79999433D01*
X135937745Y-79999433D02*
X136119173Y-80090147D01*
X136119173Y-80090147D02*
X136391316Y-80090147D01*
X134939888Y-78820147D02*
X134939888Y-80090147D01*
X134939888Y-79001575D02*
X134849174Y-78910861D01*
X134849174Y-78910861D02*
X134667745Y-78820147D01*
X134667745Y-78820147D02*
X134395602Y-78820147D01*
X134395602Y-78820147D02*
X134214174Y-78910861D01*
X134214174Y-78910861D02*
X134123460Y-79092290D01*
X134123460Y-79092290D02*
X134123460Y-80090147D01*
X131764888Y-78185147D02*
X131764888Y-79727290D01*
X131764888Y-79727290D02*
X131674174Y-79908718D01*
X131674174Y-79908718D02*
X131583460Y-79999433D01*
X131583460Y-79999433D02*
X131402031Y-80090147D01*
X131402031Y-80090147D02*
X131039174Y-80090147D01*
X131039174Y-80090147D02*
X130857745Y-79999433D01*
X130857745Y-79999433D02*
X130767031Y-79908718D01*
X130767031Y-79908718D02*
X130676317Y-79727290D01*
X130676317Y-79727290D02*
X130676317Y-78185147D01*
X129769174Y-78820147D02*
X129769174Y-80090147D01*
X129769174Y-79001575D02*
X129678460Y-78910861D01*
X129678460Y-78910861D02*
X129497031Y-78820147D01*
X129497031Y-78820147D02*
X129224888Y-78820147D01*
X129224888Y-78820147D02*
X129043460Y-78910861D01*
X129043460Y-78910861D02*
X128952746Y-79092290D01*
X128952746Y-79092290D02*
X128952746Y-80090147D01*
X128045603Y-80090147D02*
X128045603Y-78820147D01*
X128045603Y-78185147D02*
X128136317Y-78275861D01*
X128136317Y-78275861D02*
X128045603Y-78366575D01*
X128045603Y-78366575D02*
X127954889Y-78275861D01*
X127954889Y-78275861D02*
X128045603Y-78185147D01*
X128045603Y-78185147D02*
X128045603Y-78366575D01*
X127319889Y-78820147D02*
X126866317Y-80090147D01*
X126866317Y-80090147D02*
X126412746Y-78820147D01*
X124961317Y-79999433D02*
X125142745Y-80090147D01*
X125142745Y-80090147D02*
X125505603Y-80090147D01*
X125505603Y-80090147D02*
X125687031Y-79999433D01*
X125687031Y-79999433D02*
X125777745Y-79818004D01*
X125777745Y-79818004D02*
X125777745Y-79092290D01*
X125777745Y-79092290D02*
X125687031Y-78910861D01*
X125687031Y-78910861D02*
X125505603Y-78820147D01*
X125505603Y-78820147D02*
X125142745Y-78820147D01*
X125142745Y-78820147D02*
X124961317Y-78910861D01*
X124961317Y-78910861D02*
X124870603Y-79092290D01*
X124870603Y-79092290D02*
X124870603Y-79273718D01*
X124870603Y-79273718D02*
X125777745Y-79455147D01*
X124054174Y-80090147D02*
X124054174Y-78820147D01*
X124054174Y-79183004D02*
X123963460Y-79001575D01*
X123963460Y-79001575D02*
X123872746Y-78910861D01*
X123872746Y-78910861D02*
X123691317Y-78820147D01*
X123691317Y-78820147D02*
X123509888Y-78820147D01*
X122965602Y-79999433D02*
X122784174Y-80090147D01*
X122784174Y-80090147D02*
X122421317Y-80090147D01*
X122421317Y-80090147D02*
X122239888Y-79999433D01*
X122239888Y-79999433D02*
X122149174Y-79818004D01*
X122149174Y-79818004D02*
X122149174Y-79727290D01*
X122149174Y-79727290D02*
X122239888Y-79545861D01*
X122239888Y-79545861D02*
X122421317Y-79455147D01*
X122421317Y-79455147D02*
X122693460Y-79455147D01*
X122693460Y-79455147D02*
X122874888Y-79364433D01*
X122874888Y-79364433D02*
X122965602Y-79183004D01*
X122965602Y-79183004D02*
X122965602Y-79092290D01*
X122965602Y-79092290D02*
X122874888Y-78910861D01*
X122874888Y-78910861D02*
X122693460Y-78820147D01*
X122693460Y-78820147D02*
X122421317Y-78820147D01*
X122421317Y-78820147D02*
X122239888Y-78910861D01*
X121332745Y-80090147D02*
X121332745Y-78820147D01*
X121332745Y-78185147D02*
X121423459Y-78275861D01*
X121423459Y-78275861D02*
X121332745Y-78366575D01*
X121332745Y-78366575D02*
X121242031Y-78275861D01*
X121242031Y-78275861D02*
X121332745Y-78185147D01*
X121332745Y-78185147D02*
X121332745Y-78366575D01*
X120697745Y-78820147D02*
X119972031Y-78820147D01*
X120425602Y-78185147D02*
X120425602Y-79818004D01*
X120425602Y-79818004D02*
X120334888Y-79999433D01*
X120334888Y-79999433D02*
X120153459Y-80090147D01*
X120153459Y-80090147D02*
X119972031Y-80090147D01*
X119518460Y-78820147D02*
X119064888Y-80090147D01*
X118611317Y-78820147D02*
X119064888Y-80090147D01*
X119064888Y-80090147D02*
X119246317Y-80543718D01*
X119246317Y-80543718D02*
X119337031Y-80634433D01*
X119337031Y-80634433D02*
X119518460Y-80725147D01*
X116434173Y-79092290D02*
X115799173Y-79092290D01*
X115527030Y-80090147D02*
X116434173Y-80090147D01*
X116434173Y-80090147D02*
X116434173Y-78185147D01*
X116434173Y-78185147D02*
X115527030Y-78185147D01*
X114710602Y-80090147D02*
X114710602Y-78185147D01*
X114710602Y-78185147D02*
X114257031Y-78185147D01*
X114257031Y-78185147D02*
X113984888Y-78275861D01*
X113984888Y-78275861D02*
X113803459Y-78457290D01*
X113803459Y-78457290D02*
X113712745Y-78638718D01*
X113712745Y-78638718D02*
X113622031Y-79001575D01*
X113622031Y-79001575D02*
X113622031Y-79273718D01*
X113622031Y-79273718D02*
X113712745Y-79636575D01*
X113712745Y-79636575D02*
X113803459Y-79818004D01*
X113803459Y-79818004D02*
X113984888Y-79999433D01*
X113984888Y-79999433D02*
X114257031Y-80090147D01*
X114257031Y-80090147D02*
X114710602Y-80090147D01*
X112170602Y-79092290D02*
X112805602Y-79092290D01*
X112805602Y-80090147D02*
X112805602Y-78185147D01*
X112805602Y-78185147D02*
X111898459Y-78185147D01*
X142922744Y-83157197D02*
X142922744Y-81252197D01*
X142922744Y-81252197D02*
X142469173Y-81252197D01*
X142469173Y-81252197D02*
X142197030Y-81342911D01*
X142197030Y-81342911D02*
X142015601Y-81524340D01*
X142015601Y-81524340D02*
X141924887Y-81705768D01*
X141924887Y-81705768D02*
X141834173Y-82068625D01*
X141834173Y-82068625D02*
X141834173Y-82340768D01*
X141834173Y-82340768D02*
X141924887Y-82703625D01*
X141924887Y-82703625D02*
X142015601Y-82885054D01*
X142015601Y-82885054D02*
X142197030Y-83066483D01*
X142197030Y-83066483D02*
X142469173Y-83157197D01*
X142469173Y-83157197D02*
X142922744Y-83157197D01*
X140201316Y-83157197D02*
X140201316Y-82159340D01*
X140201316Y-82159340D02*
X140292030Y-81977911D01*
X140292030Y-81977911D02*
X140473458Y-81887197D01*
X140473458Y-81887197D02*
X140836316Y-81887197D01*
X140836316Y-81887197D02*
X141017744Y-81977911D01*
X140201316Y-83066483D02*
X140382744Y-83157197D01*
X140382744Y-83157197D02*
X140836316Y-83157197D01*
X140836316Y-83157197D02*
X141017744Y-83066483D01*
X141017744Y-83066483D02*
X141108458Y-82885054D01*
X141108458Y-82885054D02*
X141108458Y-82703625D01*
X141108458Y-82703625D02*
X141017744Y-82522197D01*
X141017744Y-82522197D02*
X140836316Y-82431483D01*
X140836316Y-82431483D02*
X140382744Y-82431483D01*
X140382744Y-82431483D02*
X140201316Y-82340768D01*
X139294173Y-83157197D02*
X139294173Y-81887197D01*
X139294173Y-82250054D02*
X139203459Y-82068625D01*
X139203459Y-82068625D02*
X139112745Y-81977911D01*
X139112745Y-81977911D02*
X138931316Y-81887197D01*
X138931316Y-81887197D02*
X138749887Y-81887197D01*
X138114887Y-83157197D02*
X138114887Y-81252197D01*
X137933459Y-82431483D02*
X137389173Y-83157197D01*
X137389173Y-81887197D02*
X138114887Y-82612911D01*
X135302744Y-83338625D02*
X135484173Y-83247911D01*
X135484173Y-83247911D02*
X135665601Y-83066483D01*
X135665601Y-83066483D02*
X135937744Y-82794340D01*
X135937744Y-82794340D02*
X136119173Y-82703625D01*
X136119173Y-82703625D02*
X136300601Y-82703625D01*
X136209887Y-83157197D02*
X136391316Y-83066483D01*
X136391316Y-83066483D02*
X136572744Y-82885054D01*
X136572744Y-82885054D02*
X136663458Y-82522197D01*
X136663458Y-82522197D02*
X136663458Y-81887197D01*
X136663458Y-81887197D02*
X136572744Y-81524340D01*
X136572744Y-81524340D02*
X136391316Y-81342911D01*
X136391316Y-81342911D02*
X136209887Y-81252197D01*
X136209887Y-81252197D02*
X135847030Y-81252197D01*
X135847030Y-81252197D02*
X135665601Y-81342911D01*
X135665601Y-81342911D02*
X135484173Y-81524340D01*
X135484173Y-81524340D02*
X135393458Y-81887197D01*
X135393458Y-81887197D02*
X135393458Y-82522197D01*
X135393458Y-82522197D02*
X135484173Y-82885054D01*
X135484173Y-82885054D02*
X135665601Y-83066483D01*
X135665601Y-83066483D02*
X135847030Y-83157197D01*
X135847030Y-83157197D02*
X136209887Y-83157197D01*
X133760602Y-81887197D02*
X133760602Y-83157197D01*
X134577030Y-81887197D02*
X134577030Y-82885054D01*
X134577030Y-82885054D02*
X134486316Y-83066483D01*
X134486316Y-83066483D02*
X134304887Y-83157197D01*
X134304887Y-83157197D02*
X134032744Y-83157197D01*
X134032744Y-83157197D02*
X133851316Y-83066483D01*
X133851316Y-83066483D02*
X133760602Y-82975768D01*
X132127745Y-83066483D02*
X132309173Y-83157197D01*
X132309173Y-83157197D02*
X132672031Y-83157197D01*
X132672031Y-83157197D02*
X132853459Y-83066483D01*
X132853459Y-83066483D02*
X132944173Y-82885054D01*
X132944173Y-82885054D02*
X132944173Y-82159340D01*
X132944173Y-82159340D02*
X132853459Y-81977911D01*
X132853459Y-81977911D02*
X132672031Y-81887197D01*
X132672031Y-81887197D02*
X132309173Y-81887197D01*
X132309173Y-81887197D02*
X132127745Y-81977911D01*
X132127745Y-81977911D02*
X132037031Y-82159340D01*
X132037031Y-82159340D02*
X132037031Y-82340768D01*
X132037031Y-82340768D02*
X132944173Y-82522197D01*
X131311316Y-83066483D02*
X131129888Y-83157197D01*
X131129888Y-83157197D02*
X130767031Y-83157197D01*
X130767031Y-83157197D02*
X130585602Y-83066483D01*
X130585602Y-83066483D02*
X130494888Y-82885054D01*
X130494888Y-82885054D02*
X130494888Y-82794340D01*
X130494888Y-82794340D02*
X130585602Y-82612911D01*
X130585602Y-82612911D02*
X130767031Y-82522197D01*
X130767031Y-82522197D02*
X131039174Y-82522197D01*
X131039174Y-82522197D02*
X131220602Y-82431483D01*
X131220602Y-82431483D02*
X131311316Y-82250054D01*
X131311316Y-82250054D02*
X131311316Y-82159340D01*
X131311316Y-82159340D02*
X131220602Y-81977911D01*
X131220602Y-81977911D02*
X131039174Y-81887197D01*
X131039174Y-81887197D02*
X130767031Y-81887197D01*
X130767031Y-81887197D02*
X130585602Y-81977911D01*
X129950602Y-81887197D02*
X129224888Y-81887197D01*
X129678459Y-81252197D02*
X129678459Y-82885054D01*
X129678459Y-82885054D02*
X129587745Y-83066483D01*
X129587745Y-83066483D02*
X129406316Y-83157197D01*
X129406316Y-83157197D02*
X129224888Y-83157197D01*
X127138459Y-82159340D02*
X126503459Y-82159340D01*
X126231316Y-83157197D02*
X127138459Y-83157197D01*
X127138459Y-83157197D02*
X127138459Y-81252197D01*
X127138459Y-81252197D02*
X126231316Y-81252197D01*
X125414888Y-83157197D02*
X125414888Y-81252197D01*
X125414888Y-81252197D02*
X124779888Y-82612911D01*
X124779888Y-82612911D02*
X124144888Y-81252197D01*
X124144888Y-81252197D02*
X124144888Y-83157197D01*
X122149174Y-82975768D02*
X122239888Y-83066483D01*
X122239888Y-83066483D02*
X122512031Y-83157197D01*
X122512031Y-83157197D02*
X122693459Y-83157197D01*
X122693459Y-83157197D02*
X122965602Y-83066483D01*
X122965602Y-83066483D02*
X123147031Y-82885054D01*
X123147031Y-82885054D02*
X123237745Y-82703625D01*
X123237745Y-82703625D02*
X123328459Y-82340768D01*
X123328459Y-82340768D02*
X123328459Y-82068625D01*
X123328459Y-82068625D02*
X123237745Y-81705768D01*
X123237745Y-81705768D02*
X123147031Y-81524340D01*
X123147031Y-81524340D02*
X122965602Y-81342911D01*
X122965602Y-81342911D02*
X122693459Y-81252197D01*
X122693459Y-81252197D02*
X122512031Y-81252197D01*
X122512031Y-81252197D02*
X122239888Y-81342911D01*
X122239888Y-81342911D02*
X122149174Y-81433625D01*
X121423459Y-82612911D02*
X120516317Y-82612911D01*
X121604888Y-83157197D02*
X120969888Y-81252197D01*
X120969888Y-81252197D02*
X120334888Y-83157197D01*
X118792745Y-83157197D02*
X119699888Y-83157197D01*
X119699888Y-83157197D02*
X119699888Y-81252197D01*
X115436316Y-83338625D02*
X115617745Y-83247911D01*
X115617745Y-83247911D02*
X115799173Y-83066483D01*
X115799173Y-83066483D02*
X116071316Y-82794340D01*
X116071316Y-82794340D02*
X116252745Y-82703625D01*
X116252745Y-82703625D02*
X116434173Y-82703625D01*
X116343459Y-83157197D02*
X116524888Y-83066483D01*
X116524888Y-83066483D02*
X116706316Y-82885054D01*
X116706316Y-82885054D02*
X116797030Y-82522197D01*
X116797030Y-82522197D02*
X116797030Y-81887197D01*
X116797030Y-81887197D02*
X116706316Y-81524340D01*
X116706316Y-81524340D02*
X116524888Y-81342911D01*
X116524888Y-81342911D02*
X116343459Y-81252197D01*
X116343459Y-81252197D02*
X115980602Y-81252197D01*
X115980602Y-81252197D02*
X115799173Y-81342911D01*
X115799173Y-81342911D02*
X115617745Y-81524340D01*
X115617745Y-81524340D02*
X115527030Y-81887197D01*
X115527030Y-81887197D02*
X115527030Y-82522197D01*
X115527030Y-82522197D02*
X115617745Y-82885054D01*
X115617745Y-82885054D02*
X115799173Y-83066483D01*
X115799173Y-83066483D02*
X115980602Y-83157197D01*
X115980602Y-83157197D02*
X116343459Y-83157197D01*
X113894174Y-81887197D02*
X113894174Y-83157197D01*
X114710602Y-81887197D02*
X114710602Y-82885054D01*
X114710602Y-82885054D02*
X114619888Y-83066483D01*
X114619888Y-83066483D02*
X114438459Y-83157197D01*
X114438459Y-83157197D02*
X114166316Y-83157197D01*
X114166316Y-83157197D02*
X113984888Y-83066483D01*
X113984888Y-83066483D02*
X113894174Y-82975768D01*
X112170603Y-83157197D02*
X112170603Y-82159340D01*
X112170603Y-82159340D02*
X112261317Y-81977911D01*
X112261317Y-81977911D02*
X112442745Y-81887197D01*
X112442745Y-81887197D02*
X112805603Y-81887197D01*
X112805603Y-81887197D02*
X112987031Y-81977911D01*
X112170603Y-83066483D02*
X112352031Y-83157197D01*
X112352031Y-83157197D02*
X112805603Y-83157197D01*
X112805603Y-83157197D02*
X112987031Y-83066483D01*
X112987031Y-83066483D02*
X113077745Y-82885054D01*
X113077745Y-82885054D02*
X113077745Y-82703625D01*
X113077745Y-82703625D02*
X112987031Y-82522197D01*
X112987031Y-82522197D02*
X112805603Y-82431483D01*
X112805603Y-82431483D02*
X112352031Y-82431483D01*
X112352031Y-82431483D02*
X112170603Y-82340768D01*
X110447032Y-83157197D02*
X110447032Y-81252197D01*
X110447032Y-83066483D02*
X110628460Y-83157197D01*
X110628460Y-83157197D02*
X110991317Y-83157197D01*
X110991317Y-83157197D02*
X111172746Y-83066483D01*
X111172746Y-83066483D02*
X111263460Y-82975768D01*
X111263460Y-82975768D02*
X111354174Y-82794340D01*
X111354174Y-82794340D02*
X111354174Y-82250054D01*
X111354174Y-82250054D02*
X111263460Y-82068625D01*
X111263460Y-82068625D02*
X111172746Y-81977911D01*
X111172746Y-81977911D02*
X110991317Y-81887197D01*
X110991317Y-81887197D02*
X110628460Y-81887197D01*
X110628460Y-81887197D02*
X110447032Y-81977911D01*
X108179174Y-83066483D02*
X107907032Y-83157197D01*
X107907032Y-83157197D02*
X107453460Y-83157197D01*
X107453460Y-83157197D02*
X107272032Y-83066483D01*
X107272032Y-83066483D02*
X107181317Y-82975768D01*
X107181317Y-82975768D02*
X107090603Y-82794340D01*
X107090603Y-82794340D02*
X107090603Y-82612911D01*
X107090603Y-82612911D02*
X107181317Y-82431483D01*
X107181317Y-82431483D02*
X107272032Y-82340768D01*
X107272032Y-82340768D02*
X107453460Y-82250054D01*
X107453460Y-82250054D02*
X107816317Y-82159340D01*
X107816317Y-82159340D02*
X107997746Y-82068625D01*
X107997746Y-82068625D02*
X108088460Y-81977911D01*
X108088460Y-81977911D02*
X108179174Y-81796483D01*
X108179174Y-81796483D02*
X108179174Y-81615054D01*
X108179174Y-81615054D02*
X108088460Y-81433625D01*
X108088460Y-81433625D02*
X107997746Y-81342911D01*
X107997746Y-81342911D02*
X107816317Y-81252197D01*
X107816317Y-81252197D02*
X107362746Y-81252197D01*
X107362746Y-81252197D02*
X107090603Y-81342911D01*
X106274174Y-83157197D02*
X106274174Y-81887197D01*
X106274174Y-81252197D02*
X106364888Y-81342911D01*
X106364888Y-81342911D02*
X106274174Y-81433625D01*
X106274174Y-81433625D02*
X106183460Y-81342911D01*
X106183460Y-81342911D02*
X106274174Y-81252197D01*
X106274174Y-81252197D02*
X106274174Y-81433625D01*
X105367031Y-83157197D02*
X105367031Y-81252197D01*
X105367031Y-81252197D02*
X104641317Y-81252197D01*
X104641317Y-81252197D02*
X104459888Y-81342911D01*
X104459888Y-81342911D02*
X104369174Y-81433625D01*
X104369174Y-81433625D02*
X104278460Y-81615054D01*
X104278460Y-81615054D02*
X104278460Y-81887197D01*
X104278460Y-81887197D02*
X104369174Y-82068625D01*
X104369174Y-82068625D02*
X104459888Y-82159340D01*
X104459888Y-82159340D02*
X104641317Y-82250054D01*
X104641317Y-82250054D02*
X105367031Y-82250054D01*
X103462031Y-83157197D02*
X103462031Y-81252197D01*
X103462031Y-81252197D02*
X102827031Y-82612911D01*
X102827031Y-82612911D02*
X102192031Y-81252197D01*
X102192031Y-81252197D02*
X102192031Y-83157197D01*
X143013458Y-84500675D02*
X142922744Y-84409961D01*
X142922744Y-84409961D02*
X142741316Y-84319247D01*
X142741316Y-84319247D02*
X142287744Y-84319247D01*
X142287744Y-84319247D02*
X142106316Y-84409961D01*
X142106316Y-84409961D02*
X142015601Y-84500675D01*
X142015601Y-84500675D02*
X141924887Y-84682104D01*
X141924887Y-84682104D02*
X141924887Y-84863533D01*
X141924887Y-84863533D02*
X142015601Y-85135675D01*
X142015601Y-85135675D02*
X143104173Y-86224247D01*
X143104173Y-86224247D02*
X141924887Y-86224247D01*
X140745601Y-84319247D02*
X140564172Y-84319247D01*
X140564172Y-84319247D02*
X140382744Y-84409961D01*
X140382744Y-84409961D02*
X140292030Y-84500675D01*
X140292030Y-84500675D02*
X140201315Y-84682104D01*
X140201315Y-84682104D02*
X140110601Y-85044961D01*
X140110601Y-85044961D02*
X140110601Y-85498533D01*
X140110601Y-85498533D02*
X140201315Y-85861390D01*
X140201315Y-85861390D02*
X140292030Y-86042818D01*
X140292030Y-86042818D02*
X140382744Y-86133533D01*
X140382744Y-86133533D02*
X140564172Y-86224247D01*
X140564172Y-86224247D02*
X140745601Y-86224247D01*
X140745601Y-86224247D02*
X140927030Y-86133533D01*
X140927030Y-86133533D02*
X141017744Y-86042818D01*
X141017744Y-86042818D02*
X141108458Y-85861390D01*
X141108458Y-85861390D02*
X141199172Y-85498533D01*
X141199172Y-85498533D02*
X141199172Y-85044961D01*
X141199172Y-85044961D02*
X141108458Y-84682104D01*
X141108458Y-84682104D02*
X141017744Y-84500675D01*
X141017744Y-84500675D02*
X140927030Y-84409961D01*
X140927030Y-84409961D02*
X140745601Y-84319247D01*
X139384886Y-84500675D02*
X139294172Y-84409961D01*
X139294172Y-84409961D02*
X139112744Y-84319247D01*
X139112744Y-84319247D02*
X138659172Y-84319247D01*
X138659172Y-84319247D02*
X138477744Y-84409961D01*
X138477744Y-84409961D02*
X138387029Y-84500675D01*
X138387029Y-84500675D02*
X138296315Y-84682104D01*
X138296315Y-84682104D02*
X138296315Y-84863533D01*
X138296315Y-84863533D02*
X138387029Y-85135675D01*
X138387029Y-85135675D02*
X139475601Y-86224247D01*
X139475601Y-86224247D02*
X138296315Y-86224247D01*
X137661315Y-84319247D02*
X136482029Y-84319247D01*
X136482029Y-84319247D02*
X137117029Y-85044961D01*
X137117029Y-85044961D02*
X136844886Y-85044961D01*
X136844886Y-85044961D02*
X136663458Y-85135675D01*
X136663458Y-85135675D02*
X136572743Y-85226390D01*
X136572743Y-85226390D02*
X136482029Y-85407818D01*
X136482029Y-85407818D02*
X136482029Y-85861390D01*
X136482029Y-85861390D02*
X136572743Y-86042818D01*
X136572743Y-86042818D02*
X136663458Y-86133533D01*
X136663458Y-86133533D02*
X136844886Y-86224247D01*
X136844886Y-86224247D02*
X137389172Y-86224247D01*
X137389172Y-86224247D02*
X137570600Y-86133533D01*
X137570600Y-86133533D02*
X137661315Y-86042818D01*
X135665600Y-85498533D02*
X134214172Y-85498533D01*
X132944172Y-84319247D02*
X132762743Y-84319247D01*
X132762743Y-84319247D02*
X132581315Y-84409961D01*
X132581315Y-84409961D02*
X132490601Y-84500675D01*
X132490601Y-84500675D02*
X132399886Y-84682104D01*
X132399886Y-84682104D02*
X132309172Y-85044961D01*
X132309172Y-85044961D02*
X132309172Y-85498533D01*
X132309172Y-85498533D02*
X132399886Y-85861390D01*
X132399886Y-85861390D02*
X132490601Y-86042818D01*
X132490601Y-86042818D02*
X132581315Y-86133533D01*
X132581315Y-86133533D02*
X132762743Y-86224247D01*
X132762743Y-86224247D02*
X132944172Y-86224247D01*
X132944172Y-86224247D02*
X133125601Y-86133533D01*
X133125601Y-86133533D02*
X133216315Y-86042818D01*
X133216315Y-86042818D02*
X133307029Y-85861390D01*
X133307029Y-85861390D02*
X133397743Y-85498533D01*
X133397743Y-85498533D02*
X133397743Y-85044961D01*
X133397743Y-85044961D02*
X133307029Y-84682104D01*
X133307029Y-84682104D02*
X133216315Y-84500675D01*
X133216315Y-84500675D02*
X133125601Y-84409961D01*
X133125601Y-84409961D02*
X132944172Y-84319247D01*
X131674172Y-84319247D02*
X130404172Y-84319247D01*
X130404172Y-84319247D02*
X131220600Y-86224247D01*
X125687028Y-86224247D02*
X126322028Y-85317104D01*
X126775599Y-86224247D02*
X126775599Y-84319247D01*
X126775599Y-84319247D02*
X126049885Y-84319247D01*
X126049885Y-84319247D02*
X125868456Y-84409961D01*
X125868456Y-84409961D02*
X125777742Y-84500675D01*
X125777742Y-84500675D02*
X125687028Y-84682104D01*
X125687028Y-84682104D02*
X125687028Y-84954247D01*
X125687028Y-84954247D02*
X125777742Y-85135675D01*
X125777742Y-85135675D02*
X125868456Y-85226390D01*
X125868456Y-85226390D02*
X126049885Y-85317104D01*
X126049885Y-85317104D02*
X126775599Y-85317104D01*
X124144885Y-86133533D02*
X124326313Y-86224247D01*
X124326313Y-86224247D02*
X124689171Y-86224247D01*
X124689171Y-86224247D02*
X124870599Y-86133533D01*
X124870599Y-86133533D02*
X124961313Y-85952104D01*
X124961313Y-85952104D02*
X124961313Y-85226390D01*
X124961313Y-85226390D02*
X124870599Y-85044961D01*
X124870599Y-85044961D02*
X124689171Y-84954247D01*
X124689171Y-84954247D02*
X124326313Y-84954247D01*
X124326313Y-84954247D02*
X124144885Y-85044961D01*
X124144885Y-85044961D02*
X124054171Y-85226390D01*
X124054171Y-85226390D02*
X124054171Y-85407818D01*
X124054171Y-85407818D02*
X124961313Y-85589247D01*
X123419171Y-84954247D02*
X122965599Y-86224247D01*
X122965599Y-86224247D02*
X122512028Y-84954247D01*
X119427741Y-84319247D02*
X120334884Y-84319247D01*
X120334884Y-84319247D02*
X120425598Y-85226390D01*
X120425598Y-85226390D02*
X120334884Y-85135675D01*
X120334884Y-85135675D02*
X120153456Y-85044961D01*
X120153456Y-85044961D02*
X119699884Y-85044961D01*
X119699884Y-85044961D02*
X119518456Y-85135675D01*
X119518456Y-85135675D02*
X119427741Y-85226390D01*
X119427741Y-85226390D02*
X119337027Y-85407818D01*
X119337027Y-85407818D02*
X119337027Y-85861390D01*
X119337027Y-85861390D02*
X119427741Y-86042818D01*
X119427741Y-86042818D02*
X119518456Y-86133533D01*
X119518456Y-86133533D02*
X119699884Y-86224247D01*
X119699884Y-86224247D02*
X120153456Y-86224247D01*
X120153456Y-86224247D02*
X120334884Y-86133533D01*
X120334884Y-86133533D02*
X120425598Y-86042818D01*
X118520598Y-86042818D02*
X118429884Y-86133533D01*
X118429884Y-86133533D02*
X118520598Y-86224247D01*
X118520598Y-86224247D02*
X118611312Y-86133533D01*
X118611312Y-86133533D02*
X118520598Y-86042818D01*
X118520598Y-86042818D02*
X118520598Y-86224247D01*
X116615598Y-86224247D02*
X117704169Y-86224247D01*
X117159884Y-86224247D02*
X117159884Y-84319247D01*
X117159884Y-84319247D02*
X117341312Y-84591390D01*
X117341312Y-84591390D02*
X117522741Y-84772818D01*
X117522741Y-84772818D02*
X117704169Y-84863533D01*
X142197030Y-89200583D02*
X142378458Y-89291297D01*
X142378458Y-89291297D02*
X142741316Y-89291297D01*
X142741316Y-89291297D02*
X142922744Y-89200583D01*
X142922744Y-89200583D02*
X143013458Y-89019154D01*
X143013458Y-89019154D02*
X143013458Y-88293440D01*
X143013458Y-88293440D02*
X142922744Y-88112011D01*
X142922744Y-88112011D02*
X142741316Y-88021297D01*
X142741316Y-88021297D02*
X142378458Y-88021297D01*
X142378458Y-88021297D02*
X142197030Y-88112011D01*
X142197030Y-88112011D02*
X142106316Y-88293440D01*
X142106316Y-88293440D02*
X142106316Y-88474868D01*
X142106316Y-88474868D02*
X143013458Y-88656297D01*
X140473459Y-89291297D02*
X140473459Y-87386297D01*
X140473459Y-89200583D02*
X140654887Y-89291297D01*
X140654887Y-89291297D02*
X141017744Y-89291297D01*
X141017744Y-89291297D02*
X141199173Y-89200583D01*
X141199173Y-89200583D02*
X141289887Y-89109868D01*
X141289887Y-89109868D02*
X141380601Y-88928440D01*
X141380601Y-88928440D02*
X141380601Y-88384154D01*
X141380601Y-88384154D02*
X141289887Y-88202725D01*
X141289887Y-88202725D02*
X141199173Y-88112011D01*
X141199173Y-88112011D02*
X141017744Y-88021297D01*
X141017744Y-88021297D02*
X140654887Y-88021297D01*
X140654887Y-88021297D02*
X140473459Y-88112011D01*
X139838459Y-88021297D02*
X139112745Y-88021297D01*
X139566316Y-89291297D02*
X139566316Y-87658440D01*
X139566316Y-87658440D02*
X139475602Y-87477011D01*
X139475602Y-87477011D02*
X139294173Y-87386297D01*
X139294173Y-87386297D02*
X139112745Y-87386297D01*
X138477745Y-89109868D02*
X138387031Y-89200583D01*
X138387031Y-89200583D02*
X138477745Y-89291297D01*
X138477745Y-89291297D02*
X138568459Y-89200583D01*
X138568459Y-89200583D02*
X138477745Y-89109868D01*
X138477745Y-89109868D02*
X138477745Y-89291297D01*
X137570602Y-89291297D02*
X137570602Y-87386297D01*
X137570602Y-88112011D02*
X137389174Y-88021297D01*
X137389174Y-88021297D02*
X137026316Y-88021297D01*
X137026316Y-88021297D02*
X136844888Y-88112011D01*
X136844888Y-88112011D02*
X136754174Y-88202725D01*
X136754174Y-88202725D02*
X136663459Y-88384154D01*
X136663459Y-88384154D02*
X136663459Y-88928440D01*
X136663459Y-88928440D02*
X136754174Y-89109868D01*
X136754174Y-89109868D02*
X136844888Y-89200583D01*
X136844888Y-89200583D02*
X137026316Y-89291297D01*
X137026316Y-89291297D02*
X137389174Y-89291297D01*
X137389174Y-89291297D02*
X137570602Y-89200583D01*
X135030603Y-88021297D02*
X135030603Y-89291297D01*
X135847031Y-88021297D02*
X135847031Y-89019154D01*
X135847031Y-89019154D02*
X135756317Y-89200583D01*
X135756317Y-89200583D02*
X135574888Y-89291297D01*
X135574888Y-89291297D02*
X135302745Y-89291297D01*
X135302745Y-89291297D02*
X135121317Y-89200583D01*
X135121317Y-89200583D02*
X135030603Y-89109868D01*
X134123460Y-89109868D02*
X134032746Y-89200583D01*
X134032746Y-89200583D02*
X134123460Y-89291297D01*
X134123460Y-89291297D02*
X134214174Y-89200583D01*
X134214174Y-89200583D02*
X134123460Y-89109868D01*
X134123460Y-89109868D02*
X134123460Y-89291297D01*
X132490603Y-89200583D02*
X132672031Y-89291297D01*
X132672031Y-89291297D02*
X133034889Y-89291297D01*
X133034889Y-89291297D02*
X133216317Y-89200583D01*
X133216317Y-89200583D02*
X133307031Y-89019154D01*
X133307031Y-89019154D02*
X133307031Y-88293440D01*
X133307031Y-88293440D02*
X133216317Y-88112011D01*
X133216317Y-88112011D02*
X133034889Y-88021297D01*
X133034889Y-88021297D02*
X132672031Y-88021297D01*
X132672031Y-88021297D02*
X132490603Y-88112011D01*
X132490603Y-88112011D02*
X132399889Y-88293440D01*
X132399889Y-88293440D02*
X132399889Y-88474868D01*
X132399889Y-88474868D02*
X133307031Y-88656297D01*
X130767032Y-89291297D02*
X130767032Y-87386297D01*
X130767032Y-89200583D02*
X130948460Y-89291297D01*
X130948460Y-89291297D02*
X131311317Y-89291297D01*
X131311317Y-89291297D02*
X131492746Y-89200583D01*
X131492746Y-89200583D02*
X131583460Y-89109868D01*
X131583460Y-89109868D02*
X131674174Y-88928440D01*
X131674174Y-88928440D02*
X131674174Y-88384154D01*
X131674174Y-88384154D02*
X131583460Y-88202725D01*
X131583460Y-88202725D02*
X131492746Y-88112011D01*
X131492746Y-88112011D02*
X131311317Y-88021297D01*
X131311317Y-88021297D02*
X130948460Y-88021297D01*
X130948460Y-88021297D02*
X130767032Y-88112011D01*
X129043461Y-88021297D02*
X129043461Y-89291297D01*
X129859889Y-88021297D02*
X129859889Y-89019154D01*
X129859889Y-89019154D02*
X129769175Y-89200583D01*
X129769175Y-89200583D02*
X129587746Y-89291297D01*
X129587746Y-89291297D02*
X129315603Y-89291297D01*
X129315603Y-89291297D02*
X129134175Y-89200583D01*
X129134175Y-89200583D02*
X129043461Y-89109868D01*
D10*
X68162438Y-53565588D02*
X68114819Y-53470350D01*
X68114819Y-53470350D02*
X68114819Y-53327493D01*
X68114819Y-53327493D02*
X68162438Y-53184636D01*
X68162438Y-53184636D02*
X68257676Y-53089398D01*
X68257676Y-53089398D02*
X68352914Y-53041779D01*
X68352914Y-53041779D02*
X68543390Y-52994160D01*
X68543390Y-52994160D02*
X68686247Y-52994160D01*
X68686247Y-52994160D02*
X68876723Y-53041779D01*
X68876723Y-53041779D02*
X68971961Y-53089398D01*
X68971961Y-53089398D02*
X69067200Y-53184636D01*
X69067200Y-53184636D02*
X69114819Y-53327493D01*
X69114819Y-53327493D02*
X69114819Y-53422731D01*
X69114819Y-53422731D02*
X69067200Y-53565588D01*
X69067200Y-53565588D02*
X69019580Y-53613207D01*
X69019580Y-53613207D02*
X68686247Y-53613207D01*
X68686247Y-53613207D02*
X68686247Y-53422731D01*
%TO.C,J1*%
X121374819Y-143176666D02*
X122089104Y-143176666D01*
X122089104Y-143176666D02*
X122231961Y-143129047D01*
X122231961Y-143129047D02*
X122327200Y-143033809D01*
X122327200Y-143033809D02*
X122374819Y-142890952D01*
X122374819Y-142890952D02*
X122374819Y-142795714D01*
X122374819Y-144176666D02*
X122374819Y-143605238D01*
X122374819Y-143890952D02*
X121374819Y-143890952D01*
X121374819Y-143890952D02*
X121517676Y-143795714D01*
X121517676Y-143795714D02*
X121612914Y-143700476D01*
X121612914Y-143700476D02*
X121660533Y-143605238D01*
%TO.C,C4*%
X77001666Y-62302080D02*
X77049285Y-62349700D01*
X77049285Y-62349700D02*
X77192142Y-62397319D01*
X77192142Y-62397319D02*
X77287380Y-62397319D01*
X77287380Y-62397319D02*
X77430237Y-62349700D01*
X77430237Y-62349700D02*
X77525475Y-62254461D01*
X77525475Y-62254461D02*
X77573094Y-62159223D01*
X77573094Y-62159223D02*
X77620713Y-61968747D01*
X77620713Y-61968747D02*
X77620713Y-61825890D01*
X77620713Y-61825890D02*
X77573094Y-61635414D01*
X77573094Y-61635414D02*
X77525475Y-61540176D01*
X77525475Y-61540176D02*
X77430237Y-61444938D01*
X77430237Y-61444938D02*
X77287380Y-61397319D01*
X77287380Y-61397319D02*
X77192142Y-61397319D01*
X77192142Y-61397319D02*
X77049285Y-61444938D01*
X77049285Y-61444938D02*
X77001666Y-61492557D01*
X76144523Y-61730652D02*
X76144523Y-62397319D01*
X76382618Y-61349700D02*
X76620713Y-62063985D01*
X76620713Y-62063985D02*
X76001666Y-62063985D01*
%TO.C,J3*%
X121374819Y-56181666D02*
X122089104Y-56181666D01*
X122089104Y-56181666D02*
X122231961Y-56134047D01*
X122231961Y-56134047D02*
X122327200Y-56038809D01*
X122327200Y-56038809D02*
X122374819Y-55895952D01*
X122374819Y-55895952D02*
X122374819Y-55800714D01*
X121374819Y-56562619D02*
X121374819Y-57181666D01*
X121374819Y-57181666D02*
X121755771Y-56848333D01*
X121755771Y-56848333D02*
X121755771Y-56991190D01*
X121755771Y-56991190D02*
X121803390Y-57086428D01*
X121803390Y-57086428D02*
X121851009Y-57134047D01*
X121851009Y-57134047D02*
X121946247Y-57181666D01*
X121946247Y-57181666D02*
X122184342Y-57181666D01*
X122184342Y-57181666D02*
X122279580Y-57134047D01*
X122279580Y-57134047D02*
X122327200Y-57086428D01*
X122327200Y-57086428D02*
X122374819Y-56991190D01*
X122374819Y-56991190D02*
X122374819Y-56705476D01*
X122374819Y-56705476D02*
X122327200Y-56610238D01*
X122327200Y-56610238D02*
X122279580Y-56562619D01*
%TO.C,J4*%
X64859819Y-56181666D02*
X65574104Y-56181666D01*
X65574104Y-56181666D02*
X65716961Y-56134047D01*
X65716961Y-56134047D02*
X65812200Y-56038809D01*
X65812200Y-56038809D02*
X65859819Y-55895952D01*
X65859819Y-55895952D02*
X65859819Y-55800714D01*
X65193152Y-57086428D02*
X65859819Y-57086428D01*
X64812200Y-56848333D02*
X65526485Y-56610238D01*
X65526485Y-56610238D02*
X65526485Y-57229285D01*
%TO.C,C3*%
X133174166Y-62009580D02*
X133221785Y-62057200D01*
X133221785Y-62057200D02*
X133364642Y-62104819D01*
X133364642Y-62104819D02*
X133459880Y-62104819D01*
X133459880Y-62104819D02*
X133602737Y-62057200D01*
X133602737Y-62057200D02*
X133697975Y-61961961D01*
X133697975Y-61961961D02*
X133745594Y-61866723D01*
X133745594Y-61866723D02*
X133793213Y-61676247D01*
X133793213Y-61676247D02*
X133793213Y-61533390D01*
X133793213Y-61533390D02*
X133745594Y-61342914D01*
X133745594Y-61342914D02*
X133697975Y-61247676D01*
X133697975Y-61247676D02*
X133602737Y-61152438D01*
X133602737Y-61152438D02*
X133459880Y-61104819D01*
X133459880Y-61104819D02*
X133364642Y-61104819D01*
X133364642Y-61104819D02*
X133221785Y-61152438D01*
X133221785Y-61152438D02*
X133174166Y-61200057D01*
X132840832Y-61104819D02*
X132221785Y-61104819D01*
X132221785Y-61104819D02*
X132555118Y-61485771D01*
X132555118Y-61485771D02*
X132412261Y-61485771D01*
X132412261Y-61485771D02*
X132317023Y-61533390D01*
X132317023Y-61533390D02*
X132269404Y-61581009D01*
X132269404Y-61581009D02*
X132221785Y-61676247D01*
X132221785Y-61676247D02*
X132221785Y-61914342D01*
X132221785Y-61914342D02*
X132269404Y-62009580D01*
X132269404Y-62009580D02*
X132317023Y-62057200D01*
X132317023Y-62057200D02*
X132412261Y-62104819D01*
X132412261Y-62104819D02*
X132697975Y-62104819D01*
X132697975Y-62104819D02*
X132793213Y-62057200D01*
X132793213Y-62057200D02*
X132840832Y-62009580D01*
%TO.C,J2*%
X64224819Y-143131666D02*
X64939104Y-143131666D01*
X64939104Y-143131666D02*
X65081961Y-143084047D01*
X65081961Y-143084047D02*
X65177200Y-142988809D01*
X65177200Y-142988809D02*
X65224819Y-142845952D01*
X65224819Y-142845952D02*
X65224819Y-142750714D01*
X64320057Y-143560238D02*
X64272438Y-143607857D01*
X64272438Y-143607857D02*
X64224819Y-143703095D01*
X64224819Y-143703095D02*
X64224819Y-143941190D01*
X64224819Y-143941190D02*
X64272438Y-144036428D01*
X64272438Y-144036428D02*
X64320057Y-144084047D01*
X64320057Y-144084047D02*
X64415295Y-144131666D01*
X64415295Y-144131666D02*
X64510533Y-144131666D01*
X64510533Y-144131666D02*
X64653390Y-144084047D01*
X64653390Y-144084047D02*
X65224819Y-143512619D01*
X65224819Y-143512619D02*
X65224819Y-144131666D01*
%TO.C,C1*%
X133224166Y-133764580D02*
X133271785Y-133812200D01*
X133271785Y-133812200D02*
X133414642Y-133859819D01*
X133414642Y-133859819D02*
X133509880Y-133859819D01*
X133509880Y-133859819D02*
X133652737Y-133812200D01*
X133652737Y-133812200D02*
X133747975Y-133716961D01*
X133747975Y-133716961D02*
X133795594Y-133621723D01*
X133795594Y-133621723D02*
X133843213Y-133431247D01*
X133843213Y-133431247D02*
X133843213Y-133288390D01*
X133843213Y-133288390D02*
X133795594Y-133097914D01*
X133795594Y-133097914D02*
X133747975Y-133002676D01*
X133747975Y-133002676D02*
X133652737Y-132907438D01*
X133652737Y-132907438D02*
X133509880Y-132859819D01*
X133509880Y-132859819D02*
X133414642Y-132859819D01*
X133414642Y-132859819D02*
X133271785Y-132907438D01*
X133271785Y-132907438D02*
X133224166Y-132955057D01*
X132271785Y-133859819D02*
X132843213Y-133859819D01*
X132557499Y-133859819D02*
X132557499Y-132859819D01*
X132557499Y-132859819D02*
X132652737Y-133002676D01*
X132652737Y-133002676D02*
X132747975Y-133097914D01*
X132747975Y-133097914D02*
X132843213Y-133145533D01*
%TO.C,C2*%
X76366666Y-135034580D02*
X76414285Y-135082200D01*
X76414285Y-135082200D02*
X76557142Y-135129819D01*
X76557142Y-135129819D02*
X76652380Y-135129819D01*
X76652380Y-135129819D02*
X76795237Y-135082200D01*
X76795237Y-135082200D02*
X76890475Y-134986961D01*
X76890475Y-134986961D02*
X76938094Y-134891723D01*
X76938094Y-134891723D02*
X76985713Y-134701247D01*
X76985713Y-134701247D02*
X76985713Y-134558390D01*
X76985713Y-134558390D02*
X76938094Y-134367914D01*
X76938094Y-134367914D02*
X76890475Y-134272676D01*
X76890475Y-134272676D02*
X76795237Y-134177438D01*
X76795237Y-134177438D02*
X76652380Y-134129819D01*
X76652380Y-134129819D02*
X76557142Y-134129819D01*
X76557142Y-134129819D02*
X76414285Y-134177438D01*
X76414285Y-134177438D02*
X76366666Y-134225057D01*
X75985713Y-134225057D02*
X75938094Y-134177438D01*
X75938094Y-134177438D02*
X75842856Y-134129819D01*
X75842856Y-134129819D02*
X75604761Y-134129819D01*
X75604761Y-134129819D02*
X75509523Y-134177438D01*
X75509523Y-134177438D02*
X75461904Y-134225057D01*
X75461904Y-134225057D02*
X75414285Y-134320295D01*
X75414285Y-134320295D02*
X75414285Y-134415533D01*
X75414285Y-134415533D02*
X75461904Y-134558390D01*
X75461904Y-134558390D02*
X76033332Y-135129819D01*
X76033332Y-135129819D02*
X75414285Y-135129819D01*
%TO.C,R3*%
X127454819Y-62063333D02*
X126978628Y-61730000D01*
X127454819Y-61491905D02*
X126454819Y-61491905D01*
X126454819Y-61491905D02*
X126454819Y-61872857D01*
X126454819Y-61872857D02*
X126502438Y-61968095D01*
X126502438Y-61968095D02*
X126550057Y-62015714D01*
X126550057Y-62015714D02*
X126645295Y-62063333D01*
X126645295Y-62063333D02*
X126788152Y-62063333D01*
X126788152Y-62063333D02*
X126883390Y-62015714D01*
X126883390Y-62015714D02*
X126931009Y-61968095D01*
X126931009Y-61968095D02*
X126978628Y-61872857D01*
X126978628Y-61872857D02*
X126978628Y-61491905D01*
X126454819Y-62396667D02*
X126454819Y-63015714D01*
X126454819Y-63015714D02*
X126835771Y-62682381D01*
X126835771Y-62682381D02*
X126835771Y-62825238D01*
X126835771Y-62825238D02*
X126883390Y-62920476D01*
X126883390Y-62920476D02*
X126931009Y-62968095D01*
X126931009Y-62968095D02*
X127026247Y-63015714D01*
X127026247Y-63015714D02*
X127264342Y-63015714D01*
X127264342Y-63015714D02*
X127359580Y-62968095D01*
X127359580Y-62968095D02*
X127407200Y-62920476D01*
X127407200Y-62920476D02*
X127454819Y-62825238D01*
X127454819Y-62825238D02*
X127454819Y-62539524D01*
X127454819Y-62539524D02*
X127407200Y-62444286D01*
X127407200Y-62444286D02*
X127359580Y-62396667D01*
%TO.C,R4*%
X70030180Y-62900866D02*
X70506371Y-63234199D01*
X70030180Y-63472294D02*
X71030180Y-63472294D01*
X71030180Y-63472294D02*
X71030180Y-63091342D01*
X71030180Y-63091342D02*
X70982561Y-62996104D01*
X70982561Y-62996104D02*
X70934942Y-62948485D01*
X70934942Y-62948485D02*
X70839704Y-62900866D01*
X70839704Y-62900866D02*
X70696847Y-62900866D01*
X70696847Y-62900866D02*
X70601609Y-62948485D01*
X70601609Y-62948485D02*
X70553990Y-62996104D01*
X70553990Y-62996104D02*
X70506371Y-63091342D01*
X70506371Y-63091342D02*
X70506371Y-63472294D01*
X70696847Y-62043723D02*
X70030180Y-62043723D01*
X71077800Y-62281818D02*
X70363514Y-62519913D01*
X70363514Y-62519913D02*
X70363514Y-61900866D01*
%TO.C,R2*%
X70939819Y-136358333D02*
X70463628Y-136025000D01*
X70939819Y-135786905D02*
X69939819Y-135786905D01*
X69939819Y-135786905D02*
X69939819Y-136167857D01*
X69939819Y-136167857D02*
X69987438Y-136263095D01*
X69987438Y-136263095D02*
X70035057Y-136310714D01*
X70035057Y-136310714D02*
X70130295Y-136358333D01*
X70130295Y-136358333D02*
X70273152Y-136358333D01*
X70273152Y-136358333D02*
X70368390Y-136310714D01*
X70368390Y-136310714D02*
X70416009Y-136263095D01*
X70416009Y-136263095D02*
X70463628Y-136167857D01*
X70463628Y-136167857D02*
X70463628Y-135786905D01*
X70035057Y-136739286D02*
X69987438Y-136786905D01*
X69987438Y-136786905D02*
X69939819Y-136882143D01*
X69939819Y-136882143D02*
X69939819Y-137120238D01*
X69939819Y-137120238D02*
X69987438Y-137215476D01*
X69987438Y-137215476D02*
X70035057Y-137263095D01*
X70035057Y-137263095D02*
X70130295Y-137310714D01*
X70130295Y-137310714D02*
X70225533Y-137310714D01*
X70225533Y-137310714D02*
X70368390Y-137263095D01*
X70368390Y-137263095D02*
X70939819Y-136691667D01*
X70939819Y-136691667D02*
X70939819Y-137310714D01*
%TO.C,R1*%
X126184819Y-136358333D02*
X125708628Y-136025000D01*
X126184819Y-135786905D02*
X125184819Y-135786905D01*
X125184819Y-135786905D02*
X125184819Y-136167857D01*
X125184819Y-136167857D02*
X125232438Y-136263095D01*
X125232438Y-136263095D02*
X125280057Y-136310714D01*
X125280057Y-136310714D02*
X125375295Y-136358333D01*
X125375295Y-136358333D02*
X125518152Y-136358333D01*
X125518152Y-136358333D02*
X125613390Y-136310714D01*
X125613390Y-136310714D02*
X125661009Y-136263095D01*
X125661009Y-136263095D02*
X125708628Y-136167857D01*
X125708628Y-136167857D02*
X125708628Y-135786905D01*
X126184819Y-137310714D02*
X126184819Y-136739286D01*
X126184819Y-137025000D02*
X125184819Y-137025000D01*
X125184819Y-137025000D02*
X125327676Y-136929762D01*
X125327676Y-136929762D02*
X125422914Y-136834524D01*
X125422914Y-136834524D02*
X125470533Y-136739286D01*
D12*
%TO.C,J1*%
X128270000Y-142180000D02*
X126940000Y-142180000D01*
X132095000Y-142225000D02*
X132095000Y-144885000D01*
X126955000Y-142225000D02*
X132095000Y-142225000D01*
X126955000Y-142225000D02*
X126955000Y-144885000D01*
X122945000Y-142235000D02*
X122970000Y-146310000D01*
X126955000Y-144885000D02*
X132095000Y-144885000D01*
%TO.C,C4*%
X77546252Y-64702500D02*
X76123748Y-64702500D01*
X77546252Y-62882500D02*
X76123748Y-62882500D01*
%TO.C,J3*%
X128270000Y-55185000D02*
X126940000Y-55185000D01*
X132095000Y-55230000D02*
X132095000Y-57890000D01*
X126955000Y-55230000D02*
X132095000Y-55230000D01*
X126955000Y-55230000D02*
X126955000Y-57890000D01*
X122945000Y-55240000D02*
X122970000Y-59315000D01*
X126955000Y-57890000D02*
X132095000Y-57890000D01*
%TO.C,J4*%
X71800000Y-55140000D02*
X70470000Y-55140000D01*
X75625000Y-55185000D02*
X75625000Y-57845000D01*
X70485000Y-55185000D02*
X75625000Y-55185000D01*
X70485000Y-55185000D02*
X70485000Y-57845000D01*
X66475000Y-55195000D02*
X66500000Y-59270000D01*
X70485000Y-57845000D02*
X75625000Y-57845000D01*
%TO.C,C3*%
X133718752Y-64410000D02*
X132296248Y-64410000D01*
X133718752Y-62590000D02*
X132296248Y-62590000D01*
%TO.C,J2*%
X71800000Y-142135000D02*
X70470000Y-142135000D01*
X75625000Y-142180000D02*
X75625000Y-144840000D01*
X70485000Y-142180000D02*
X75625000Y-142180000D01*
X70485000Y-142180000D02*
X70485000Y-144840000D01*
X66475000Y-142190000D02*
X66500000Y-146265000D01*
X70485000Y-144840000D02*
X75625000Y-144840000D01*
%TO.C,C1*%
X133768752Y-136165000D02*
X132346248Y-136165000D01*
X133768752Y-134345000D02*
X132346248Y-134345000D01*
%TO.C,C2*%
X76911252Y-137435000D02*
X75488748Y-137435000D01*
X76911252Y-135615000D02*
X75488748Y-135615000D01*
D13*
%TO.C,R3*%
X128002000Y-61475787D02*
X128002000Y-62984213D01*
X125998000Y-62984213D02*
X125998000Y-61475787D01*
%TO.C,R4*%
X69483000Y-63488413D02*
X69483000Y-61979987D01*
X71487000Y-61979987D02*
X71487000Y-63488413D01*
%TO.C,R2*%
X71487000Y-135770787D02*
X71487000Y-137279213D01*
X69483000Y-137279213D02*
X69483000Y-135770787D01*
%TO.C,R1*%
X126732000Y-135770787D02*
X126732000Y-137279213D01*
X124728000Y-137279213D02*
X124728000Y-135770787D01*
%TD*%
M02*
