%TF.GenerationSoftware,KiCad,Pcbnew,7.0.5-0*%
%TF.CreationDate,2023-07-05T09:30:56-04:00*%
%TF.ProjectId,quad_sipm,71756164-5f73-4697-906d-2e6b69636164,rev?*%
%TF.SameCoordinates,Original*%
%TF.FileFunction,Copper,L2,Bot*%
%TF.FilePolarity,Positive*%
%FSLAX46Y46*%
G04 Gerber Fmt 4.6, Leading zero omitted, Abs format (unit mm)*
G04 Created by KiCad (PCBNEW 7.0.5-0) date 2023-07-05 09:30:56*
%MOMM*%
%LPD*%
G01*
G04 APERTURE LIST*
G04 Aperture macros list*
%AMRoundRect*
0 Rectangle with rounded corners*
0 $1 Rounding radius*
0 $2 $3 $4 $5 $6 $7 $8 $9 X,Y pos of 4 corners*
0 Add a 4 corners polygon primitive as box body*
4,1,4,$2,$3,$4,$5,$6,$7,$8,$9,$2,$3,0*
0 Add four circle primitives for the rounded corners*
1,1,$1+$1,$2,$3*
1,1,$1+$1,$4,$5*
1,1,$1+$1,$6,$7*
1,1,$1+$1,$8,$9*
0 Add four rect primitives between the rounded corners*
20,1,$1+$1,$2,$3,$4,$5,0*
20,1,$1+$1,$4,$5,$6,$7,0*
20,1,$1+$1,$6,$7,$8,$9,0*
20,1,$1+$1,$8,$9,$2,$3,0*%
G04 Aperture macros list end*
%TA.AperFunction,ComponentPad*%
%ADD10C,16.800000*%
%TD*%
%TA.AperFunction,ComponentPad*%
%ADD11C,12.000000*%
%TD*%
%TA.AperFunction,ComponentPad*%
%ADD12C,1.524000*%
%TD*%
%TA.AperFunction,ComponentPad*%
%ADD13R,1.700000X1.700000*%
%TD*%
%TA.AperFunction,ComponentPad*%
%ADD14O,1.700000X1.700000*%
%TD*%
%TA.AperFunction,SMDPad,CuDef*%
%ADD15RoundRect,0.250000X0.412500X0.650000X-0.412500X0.650000X-0.412500X-0.650000X0.412500X-0.650000X0*%
%TD*%
%TA.AperFunction,SMDPad,CuDef*%
%ADD16R,1.699200X0.701600*%
%TD*%
%TA.AperFunction,Conductor*%
%ADD17C,0.635000*%
%TD*%
G04 APERTURE END LIST*
D10*
%TO.P,H2,1*%
%TO.N,N/C*%
X100000000Y-100000000D03*
%TD*%
D11*
%TO.P,H3,1*%
%TO.N,N/C*%
X100000000Y-137000000D03*
%TD*%
%TO.P,H4,1*%
%TO.N,N/C*%
X137000000Y-100000000D03*
%TD*%
%TO.P,H5,1*%
%TO.N,N/C*%
X63000000Y-100000000D03*
%TD*%
%TO.P,H1,1*%
%TO.N,N/C*%
X100000000Y-63000000D03*
%TD*%
D12*
%TO.P,D1,1,K*%
%TO.N,Net-(D1-K)*%
X131335000Y-127635000D03*
%TO.P,D1,2,A*%
%TO.N,Net-(D1-A)*%
X124035000Y-127635000D03*
%TD*%
%TO.P,D2,1,K*%
%TO.N,Net-(D2-K)*%
X76090000Y-127635000D03*
%TO.P,D2,2,A*%
%TO.N,Net-(D2-A)*%
X68790000Y-127635000D03*
%TD*%
%TO.P,D4,1,K*%
%TO.N,Net-(D4-K)*%
X76090000Y-72390000D03*
%TO.P,D4,2,A*%
%TO.N,Net-(D4-A)*%
X68790000Y-72390000D03*
%TD*%
%TO.P,D3,1,K*%
%TO.N,Net-(D3-K)*%
X131335000Y-72390000D03*
%TO.P,D3,2,A*%
%TO.N,Net-(D3-A)*%
X124035000Y-72390000D03*
%TD*%
D13*
%TO.P,J1,1,Pin_1*%
%TO.N,Net-(J1-Pin_1)*%
X125685000Y-143555000D03*
D14*
%TO.P,J1,2,Pin_2*%
%TO.N,Net-(J1-Pin_2)*%
X128225000Y-143555000D03*
%TO.P,J1,3,Pin_3*%
%TO.N,Net-(D1-K)*%
X130765000Y-143555000D03*
%TD*%
D15*
%TO.P,C4,1*%
%TO.N,Net-(J4-Pin_1)*%
X78397500Y-63792500D03*
%TO.P,C4,2*%
%TO.N,Net-(D4-K)*%
X75272500Y-63792500D03*
%TD*%
D13*
%TO.P,J3,1,Pin_1*%
%TO.N,Net-(J3-Pin_1)*%
X125685000Y-56560000D03*
D14*
%TO.P,J3,2,Pin_2*%
%TO.N,Net-(J3-Pin_2)*%
X128225000Y-56560000D03*
%TO.P,J3,3,Pin_3*%
%TO.N,Net-(D3-K)*%
X130765000Y-56560000D03*
%TD*%
D13*
%TO.P,J4,1,Pin_1*%
%TO.N,Net-(J4-Pin_1)*%
X69215000Y-56515000D03*
D14*
%TO.P,J4,2,Pin_2*%
%TO.N,Net-(J4-Pin_2)*%
X71755000Y-56515000D03*
%TO.P,J4,3,Pin_3*%
%TO.N,Net-(D4-K)*%
X74295000Y-56515000D03*
%TD*%
D15*
%TO.P,C3,1*%
%TO.N,Net-(J3-Pin_1)*%
X134570000Y-63500000D03*
%TO.P,C3,2*%
%TO.N,Net-(D3-K)*%
X131445000Y-63500000D03*
%TD*%
D13*
%TO.P,J2,1,Pin_1*%
%TO.N,Net-(J2-Pin_1)*%
X69215000Y-143510000D03*
D14*
%TO.P,J2,2,Pin_2*%
%TO.N,Net-(J2-Pin_2)*%
X71755000Y-143510000D03*
%TO.P,J2,3,Pin_3*%
%TO.N,Net-(D2-K)*%
X74295000Y-143510000D03*
%TD*%
D15*
%TO.P,C1,1*%
%TO.N,Net-(J1-Pin_1)*%
X134620000Y-135255000D03*
%TO.P,C1,2*%
%TO.N,Net-(D1-K)*%
X131495000Y-135255000D03*
%TD*%
%TO.P,C2,1*%
%TO.N,Net-(J2-Pin_1)*%
X77762500Y-136525000D03*
%TO.P,C2,2*%
%TO.N,Net-(D2-K)*%
X74637500Y-136525000D03*
%TD*%
D16*
%TO.P,R3,1*%
%TO.N,Net-(J3-Pin_2)*%
X127000000Y-60829200D03*
%TO.P,R3,2*%
%TO.N,Net-(D3-A)*%
X127000000Y-63630800D03*
%TD*%
%TO.P,R4,1*%
%TO.N,Net-(D4-A)*%
X70485000Y-64135000D03*
%TO.P,R4,2*%
%TO.N,Net-(J4-Pin_2)*%
X70485000Y-61333400D03*
%TD*%
%TO.P,R2,1*%
%TO.N,Net-(D2-A)*%
X70485000Y-135124200D03*
%TO.P,R2,2*%
%TO.N,Net-(J2-Pin_2)*%
X70485000Y-137925800D03*
%TD*%
%TO.P,R1,1*%
%TO.N,Net-(D1-A)*%
X125730000Y-135124200D03*
%TO.P,R1,2*%
%TO.N,Net-(J1-Pin_2)*%
X125730000Y-137925800D03*
%TD*%
D17*
%TO.N,Net-(J2-Pin_2)*%
X70485000Y-137925800D02*
X70485000Y-142240000D01*
X70485000Y-142240000D02*
X71755000Y-143510000D01*
%TO.N,Net-(J3-Pin_2)*%
X128225000Y-59604200D02*
X127000000Y-60829200D01*
X128225000Y-56560000D02*
X128225000Y-59604200D01*
%TO.N,Net-(J4-Pin_2)*%
X71755000Y-56515000D02*
X71755000Y-60063400D01*
X71755000Y-60063400D02*
X70485000Y-61333400D01*
%TO.N,Net-(J1-Pin_2)*%
X125730000Y-137925800D02*
X125730000Y-141060000D01*
X125730000Y-141060000D02*
X128225000Y-143555000D01*
%TO.N,Net-(D1-K)*%
X131495000Y-135255000D02*
X130765000Y-135985000D01*
X131335000Y-127635000D02*
X131335000Y-135095000D01*
X130765000Y-135985000D02*
X130765000Y-143555000D01*
X131335000Y-135095000D02*
X131495000Y-135255000D01*
%TO.N,Net-(D2-K)*%
X76090000Y-135072500D02*
X74637500Y-136525000D01*
X76090000Y-127635000D02*
X76090000Y-135072500D01*
X74295000Y-136867500D02*
X74295000Y-143510000D01*
X74637500Y-136525000D02*
X74295000Y-136867500D01*
%TO.N,Net-(D3-K)*%
X130765000Y-62820000D02*
X131445000Y-63500000D01*
X131335000Y-72390000D02*
X131335000Y-63610000D01*
X130765000Y-56560000D02*
X130765000Y-62820000D01*
X131335000Y-63610000D02*
X131445000Y-63500000D01*
%TO.N,Net-(D4-K)*%
X74295000Y-56515000D02*
X74295000Y-62815000D01*
X76090000Y-72390000D02*
X76090000Y-64610000D01*
X76090000Y-64610000D02*
X75272500Y-63792500D01*
X74295000Y-62815000D02*
X75272500Y-63792500D01*
%TO.N,Net-(D1-A)*%
X124035000Y-133429200D02*
X125730000Y-135124200D01*
X124035000Y-127635000D02*
X124035000Y-133429200D01*
%TO.N,Net-(D2-A)*%
X68790000Y-133429200D02*
X70485000Y-135124200D01*
X68790000Y-127635000D02*
X68790000Y-133429200D01*
%TO.N,Net-(D3-A)*%
X124035000Y-66595800D02*
X127000000Y-63630800D01*
X124035000Y-72390000D02*
X124035000Y-66595800D01*
%TO.N,Net-(D4-A)*%
X68790000Y-65830000D02*
X70485000Y-64135000D01*
X68790000Y-72390000D02*
X68790000Y-65830000D01*
%TD*%
%TA.AperFunction,Conductor*%
%TO.N,Net-(J3-Pin_1)*%
G36*
X148942121Y-51020002D02*
G01*
X148988614Y-51073658D01*
X149000000Y-51126000D01*
X149000000Y-98874000D01*
X148979998Y-98942121D01*
X148926342Y-98988614D01*
X148874000Y-99000000D01*
X144056178Y-99000000D01*
X143988057Y-98979998D01*
X143941564Y-98926342D01*
X143932375Y-98897425D01*
X143897659Y-98713953D01*
X143845369Y-98437589D01*
X143709468Y-97930403D01*
X143580392Y-97561525D01*
X143536049Y-97434799D01*
X143536048Y-97434798D01*
X143536046Y-97434791D01*
X143326072Y-96953524D01*
X143326069Y-96953519D01*
X143326062Y-96953503D01*
X143171250Y-96660588D01*
X143080719Y-96489295D01*
X143080709Y-96489279D01*
X142801366Y-96044706D01*
X142801354Y-96044689D01*
X142489561Y-95622224D01*
X142489548Y-95622208D01*
X142147067Y-95224239D01*
X142147058Y-95224228D01*
X142147045Y-95224215D01*
X142147034Y-95224203D01*
X141775796Y-94852965D01*
X141775784Y-94852954D01*
X141775772Y-94852942D01*
X141674361Y-94765671D01*
X141377791Y-94510451D01*
X141377775Y-94510438D01*
X140955310Y-94198645D01*
X140955293Y-94198633D01*
X140510720Y-93919290D01*
X140510712Y-93919285D01*
X140510705Y-93919281D01*
X140465089Y-93895172D01*
X140046496Y-93673937D01*
X140046470Y-93673925D01*
X139862513Y-93593666D01*
X139565209Y-93463954D01*
X139565202Y-93463951D01*
X139565200Y-93463950D01*
X139069605Y-93290534D01*
X138562412Y-93154631D01*
X138046487Y-93057013D01*
X137524711Y-92998222D01*
X137000000Y-92978590D01*
X136475288Y-92998222D01*
X135953512Y-93057013D01*
X135437587Y-93154631D01*
X134930394Y-93290534D01*
X134434799Y-93463950D01*
X134434796Y-93463952D01*
X133953529Y-93673925D01*
X133953503Y-93673937D01*
X133489300Y-93919278D01*
X133489279Y-93919290D01*
X133044706Y-94198633D01*
X133044689Y-94198645D01*
X132622224Y-94510438D01*
X132622208Y-94510451D01*
X132224239Y-94852932D01*
X132224203Y-94852965D01*
X131852965Y-95224203D01*
X131852932Y-95224239D01*
X131510451Y-95622208D01*
X131510438Y-95622224D01*
X131198645Y-96044689D01*
X131198633Y-96044706D01*
X130919290Y-96489279D01*
X130919278Y-96489300D01*
X130673937Y-96953503D01*
X130673925Y-96953529D01*
X130463952Y-97434796D01*
X130463950Y-97434799D01*
X130290534Y-97930394D01*
X130154631Y-98437587D01*
X130067625Y-98897425D01*
X130035308Y-98960639D01*
X129973944Y-98996347D01*
X129943822Y-99000000D01*
X109477770Y-99000000D01*
X109409649Y-98979998D01*
X109363156Y-98926342D01*
X109352377Y-98886350D01*
X109340942Y-98770251D01*
X109340941Y-98770249D01*
X109340941Y-98770242D01*
X109240512Y-98161948D01*
X109186523Y-97930403D01*
X109100512Y-97561520D01*
X108921547Y-96971555D01*
X108921545Y-96971547D01*
X108740040Y-96489300D01*
X108704372Y-96394531D01*
X108449926Y-95832958D01*
X108159296Y-95289228D01*
X107833728Y-94765671D01*
X107474613Y-94264527D01*
X107083492Y-93787944D01*
X106662038Y-93337962D01*
X106212056Y-92916508D01*
X105735473Y-92525387D01*
X105234329Y-92166272D01*
X104710772Y-91840704D01*
X104710771Y-91840703D01*
X104167054Y-91550080D01*
X104167037Y-91550071D01*
X103754548Y-91363174D01*
X103605469Y-91295628D01*
X103605464Y-91295626D01*
X103028452Y-91078454D01*
X103028444Y-91078452D01*
X102438479Y-90899487D01*
X101838066Y-90759490D01*
X101229760Y-90659059D01*
X101113649Y-90647622D01*
X101047817Y-90621039D01*
X101006807Y-90563084D01*
X101000000Y-90522229D01*
X101000000Y-72390000D01*
X122251513Y-72390000D01*
X122271433Y-72655815D01*
X122271434Y-72655819D01*
X122330746Y-72915687D01*
X122428130Y-73163819D01*
X122428132Y-73163823D01*
X122561411Y-73394670D01*
X122561413Y-73394673D01*
X122561414Y-73394674D01*
X122727612Y-73603079D01*
X122923014Y-73784386D01*
X122923020Y-73784390D01*
X123143247Y-73934539D01*
X123143254Y-73934543D01*
X123143257Y-73934545D01*
X123281711Y-74001220D01*
X123383414Y-74050199D01*
X123383427Y-74050204D01*
X123638126Y-74128768D01*
X123638128Y-74128768D01*
X123638137Y-74128771D01*
X123901720Y-74168500D01*
X123901725Y-74168500D01*
X124168275Y-74168500D01*
X124168280Y-74168500D01*
X124431863Y-74128771D01*
X124431873Y-74128768D01*
X124686572Y-74050204D01*
X124686574Y-74050202D01*
X124686581Y-74050201D01*
X124686586Y-74050198D01*
X124686590Y-74050197D01*
X124926738Y-73934548D01*
X124926738Y-73934547D01*
X124926744Y-73934545D01*
X125146986Y-73784386D01*
X125342388Y-73603079D01*
X125508586Y-73394674D01*
X125641866Y-73163826D01*
X125739252Y-72915692D01*
X125798567Y-72655815D01*
X125818487Y-72390000D01*
X125798567Y-72124185D01*
X125739252Y-71864308D01*
X125693577Y-71747931D01*
X125641869Y-71616180D01*
X125641867Y-71616176D01*
X125508588Y-71385329D01*
X125396489Y-71244761D01*
X125369655Y-71179031D01*
X125369000Y-71166201D01*
X125369000Y-67200551D01*
X125389002Y-67132430D01*
X125405905Y-67111456D01*
X127482356Y-65035005D01*
X127544668Y-65000979D01*
X127571451Y-64998100D01*
X127899525Y-64998100D01*
X127899534Y-64998100D01*
X127996779Y-64988522D01*
X128048860Y-64983393D01*
X128048863Y-64983393D01*
X128048864Y-64983392D01*
X128048869Y-64983392D01*
X128240480Y-64925267D01*
X128417069Y-64830878D01*
X128571852Y-64703852D01*
X128698878Y-64549069D01*
X128793267Y-64372480D01*
X128851392Y-64180869D01*
X128866100Y-64031534D01*
X128866100Y-63230066D01*
X128851393Y-63080739D01*
X128851393Y-63080736D01*
X128851392Y-63080733D01*
X128851392Y-63080731D01*
X128793267Y-62889120D01*
X128698878Y-62712531D01*
X128571852Y-62557748D01*
X128417069Y-62430722D01*
X128417067Y-62430721D01*
X128417066Y-62430720D01*
X128294744Y-62365338D01*
X128249438Y-62341121D01*
X128198791Y-62291370D01*
X128183081Y-62222133D01*
X128207297Y-62155394D01*
X128249438Y-62118878D01*
X128417069Y-62029278D01*
X128571852Y-61902252D01*
X128698878Y-61747469D01*
X128793267Y-61570880D01*
X128851392Y-61379269D01*
X128866100Y-61229934D01*
X128866100Y-60901851D01*
X128886102Y-60833730D01*
X128903005Y-60812756D01*
X129215905Y-60499856D01*
X129278217Y-60465830D01*
X129349032Y-60470895D01*
X129405868Y-60513442D01*
X129430679Y-60579962D01*
X129431000Y-60588951D01*
X129431000Y-62936710D01*
X129440673Y-62991578D01*
X129441391Y-62997027D01*
X129446247Y-63052532D01*
X129460667Y-63106348D01*
X129461857Y-63111714D01*
X129471533Y-63166583D01*
X129490584Y-63218928D01*
X129492237Y-63224170D01*
X129506658Y-63277990D01*
X129506664Y-63278005D01*
X129530203Y-63328485D01*
X129532307Y-63333564D01*
X129551365Y-63385926D01*
X129579227Y-63434184D01*
X129581765Y-63439060D01*
X129605309Y-63489548D01*
X129605311Y-63489550D01*
X129605312Y-63489553D01*
X129620419Y-63511128D01*
X129637262Y-63535182D01*
X129640212Y-63539811D01*
X129668076Y-63588073D01*
X129668077Y-63588074D01*
X129703887Y-63630750D01*
X129707235Y-63635113D01*
X129742349Y-63685261D01*
X129740456Y-63686586D01*
X129764980Y-63742559D01*
X129766000Y-63758560D01*
X129766000Y-64215042D01*
X129776537Y-64348925D01*
X129776537Y-64348928D01*
X129776538Y-64348929D01*
X129832239Y-64569985D01*
X129832242Y-64569994D01*
X129926518Y-64777550D01*
X129926519Y-64777551D01*
X129978572Y-64852687D01*
X130000923Y-64920074D01*
X130000999Y-64924441D01*
X130001000Y-71166201D01*
X129980998Y-71234322D01*
X129973511Y-71244761D01*
X129861411Y-71385329D01*
X129728132Y-71616176D01*
X129728130Y-71616180D01*
X129630746Y-71864312D01*
X129571434Y-72124180D01*
X129571433Y-72124185D01*
X129551513Y-72390000D01*
X129571433Y-72655815D01*
X129571434Y-72655819D01*
X129630746Y-72915687D01*
X129728130Y-73163819D01*
X129728132Y-73163823D01*
X129861411Y-73394670D01*
X129861413Y-73394673D01*
X129861414Y-73394674D01*
X130027612Y-73603079D01*
X130223014Y-73784386D01*
X130223020Y-73784390D01*
X130443247Y-73934539D01*
X130443254Y-73934543D01*
X130443257Y-73934545D01*
X130581711Y-74001220D01*
X130683414Y-74050199D01*
X130683427Y-74050204D01*
X130938126Y-74128768D01*
X130938128Y-74128768D01*
X130938137Y-74128771D01*
X131201720Y-74168500D01*
X131201725Y-74168500D01*
X131468275Y-74168500D01*
X131468280Y-74168500D01*
X131731863Y-74128771D01*
X131731873Y-74128768D01*
X131986572Y-74050204D01*
X131986574Y-74050202D01*
X131986581Y-74050201D01*
X131986586Y-74050198D01*
X131986590Y-74050197D01*
X132226738Y-73934548D01*
X132226738Y-73934547D01*
X132226744Y-73934545D01*
X132446986Y-73784386D01*
X132642388Y-73603079D01*
X132808586Y-73394674D01*
X132941866Y-73163826D01*
X133039252Y-72915692D01*
X133098567Y-72655815D01*
X133118487Y-72390000D01*
X133098567Y-72124185D01*
X133039252Y-71864308D01*
X132993577Y-71747931D01*
X132941869Y-71616180D01*
X132941867Y-71616176D01*
X132808588Y-71385329D01*
X132808586Y-71385326D01*
X132696486Y-71244758D01*
X132669654Y-71179031D01*
X132668999Y-71166220D01*
X132668999Y-65181792D01*
X132689001Y-65113672D01*
X132705899Y-65092702D01*
X132833652Y-64964950D01*
X132963479Y-64777554D01*
X133057760Y-64569989D01*
X133082806Y-64470589D01*
X133118845Y-64409423D01*
X133182234Y-64377449D01*
X133252847Y-64384822D01*
X133308264Y-64429200D01*
X133323958Y-64462893D01*
X133324363Y-64462738D01*
X133326595Y-64468555D01*
X133326690Y-64468757D01*
X133326728Y-64468899D01*
X133411187Y-64634658D01*
X133411188Y-64634661D01*
X133528263Y-64779236D01*
X133672838Y-64896311D01*
X133672841Y-64896312D01*
X133838597Y-64980769D01*
X134018289Y-65028917D01*
X134095561Y-65035000D01*
X134316000Y-65035000D01*
X134316000Y-63754000D01*
X134824000Y-63754000D01*
X134824000Y-65035000D01*
X135044439Y-65035000D01*
X135121710Y-65028917D01*
X135301402Y-64980769D01*
X135467158Y-64896312D01*
X135467161Y-64896311D01*
X135611736Y-64779236D01*
X135728811Y-64634661D01*
X135728812Y-64634658D01*
X135813269Y-64468902D01*
X135861417Y-64289210D01*
X135867500Y-64211938D01*
X135867500Y-63754000D01*
X134824000Y-63754000D01*
X134316000Y-63754000D01*
X134316000Y-61965000D01*
X134824000Y-61965000D01*
X134824000Y-63246000D01*
X135867500Y-63246000D01*
X135867500Y-62788061D01*
X135861417Y-62710789D01*
X135813269Y-62531097D01*
X135728812Y-62365341D01*
X135728811Y-62365338D01*
X135611736Y-62220763D01*
X135467161Y-62103688D01*
X135467158Y-62103687D01*
X135301402Y-62019230D01*
X135121710Y-61971082D01*
X135044439Y-61965000D01*
X134824000Y-61965000D01*
X134316000Y-61965000D01*
X134095561Y-61965000D01*
X134018289Y-61971082D01*
X133838597Y-62019230D01*
X133672841Y-62103687D01*
X133672838Y-62103688D01*
X133528263Y-62220763D01*
X133411188Y-62365338D01*
X133411187Y-62365341D01*
X133326728Y-62531100D01*
X133326689Y-62531247D01*
X133326642Y-62531322D01*
X133324363Y-62537262D01*
X133323276Y-62536844D01*
X133289730Y-62591865D01*
X133225866Y-62622879D01*
X133155372Y-62614442D01*
X133100631Y-62569232D01*
X133082805Y-62529407D01*
X133069168Y-62475288D01*
X133057760Y-62430011D01*
X132963479Y-62222446D01*
X132833652Y-62035050D01*
X132833650Y-62035048D01*
X132833642Y-62035039D01*
X132672460Y-61873857D01*
X132672451Y-61873849D01*
X132672450Y-61873848D01*
X132485054Y-61744021D01*
X132277489Y-61649740D01*
X132194211Y-61628755D01*
X132133043Y-61592715D01*
X132101070Y-61529325D01*
X132099000Y-61506585D01*
X132099000Y-57917816D01*
X132119001Y-57849699D01*
X132135898Y-57828730D01*
X132179210Y-57785420D01*
X132339211Y-57571684D01*
X132467165Y-57337353D01*
X132560468Y-57087197D01*
X132617221Y-56826309D01*
X132636268Y-56560000D01*
X132617221Y-56293691D01*
X132568043Y-56067625D01*
X132560470Y-56032811D01*
X132560470Y-56032810D01*
X132560468Y-56032806D01*
X132560468Y-56032803D01*
X132467165Y-55782647D01*
X132339211Y-55548316D01*
X132179210Y-55334580D01*
X131990420Y-55145790D01*
X131990417Y-55145788D01*
X131990414Y-55145785D01*
X131895856Y-55075000D01*
X131776684Y-54985789D01*
X131648728Y-54915920D01*
X131542352Y-54857834D01*
X131292189Y-54764529D01*
X131031311Y-54707779D01*
X131031313Y-54707779D01*
X130818261Y-54692541D01*
X130765000Y-54688732D01*
X130764999Y-54688732D01*
X130498687Y-54707779D01*
X130237811Y-54764529D01*
X130237810Y-54764529D01*
X129987647Y-54857834D01*
X129753316Y-54985789D01*
X129570509Y-55122636D01*
X129503988Y-55147447D01*
X129434614Y-55132355D01*
X129419491Y-55122636D01*
X129324673Y-55051657D01*
X129236684Y-54985789D01*
X129108728Y-54915920D01*
X129002352Y-54857834D01*
X128752189Y-54764529D01*
X128491311Y-54707779D01*
X128491313Y-54707779D01*
X128278261Y-54692541D01*
X128225000Y-54688732D01*
X128224999Y-54688732D01*
X127958687Y-54707779D01*
X127697811Y-54764529D01*
X127697810Y-54764529D01*
X127447647Y-54857834D01*
X127213316Y-54985789D01*
X126999580Y-55145790D01*
X126998700Y-55146553D01*
X126998345Y-55146715D01*
X126995978Y-55148487D01*
X126995592Y-55147971D01*
X126934116Y-55176039D01*
X126863843Y-55165927D01*
X126852059Y-55159772D01*
X126789197Y-55122595D01*
X126635130Y-55077834D01*
X126635117Y-55077832D01*
X126599136Y-55075000D01*
X125939000Y-55075000D01*
X125939000Y-56126325D01*
X125827315Y-56075320D01*
X125720763Y-56060000D01*
X125649237Y-56060000D01*
X125542685Y-56075320D01*
X125431000Y-56126325D01*
X125431000Y-55075000D01*
X124770864Y-55075000D01*
X124734882Y-55077832D01*
X124734869Y-55077834D01*
X124580802Y-55122595D01*
X124442714Y-55204261D01*
X124442707Y-55204266D01*
X124329266Y-55317707D01*
X124329261Y-55317714D01*
X124247595Y-55455802D01*
X124202834Y-55609869D01*
X124202832Y-55609882D01*
X124200000Y-55645863D01*
X124200000Y-56306000D01*
X125253884Y-56306000D01*
X125225507Y-56350156D01*
X125185000Y-56488111D01*
X125185000Y-56631889D01*
X125225507Y-56769844D01*
X125253884Y-56814000D01*
X124200000Y-56814000D01*
X124200000Y-57474136D01*
X124202832Y-57510117D01*
X124202834Y-57510130D01*
X124247595Y-57664197D01*
X124329261Y-57802285D01*
X124329266Y-57802292D01*
X124442707Y-57915733D01*
X124442714Y-57915738D01*
X124580802Y-57997404D01*
X124734869Y-58042165D01*
X124734882Y-58042167D01*
X124770863Y-58044999D01*
X124770865Y-58045000D01*
X125431000Y-58045000D01*
X125431000Y-56993674D01*
X125542685Y-57044680D01*
X125649237Y-57060000D01*
X125720763Y-57060000D01*
X125827315Y-57044680D01*
X125939000Y-56993674D01*
X125939000Y-58045000D01*
X126599135Y-58045000D01*
X126599136Y-58044999D01*
X126635117Y-58042167D01*
X126635127Y-58042165D01*
X126729845Y-58014647D01*
X126800841Y-58014849D01*
X126860458Y-58053403D01*
X126889767Y-58118067D01*
X126890999Y-58135644D01*
X126891000Y-58999449D01*
X126870998Y-59067570D01*
X126854095Y-59088544D01*
X126517644Y-59424995D01*
X126455332Y-59459021D01*
X126428549Y-59461900D01*
X126100457Y-59461900D01*
X125951139Y-59476606D01*
X125951136Y-59476606D01*
X125759522Y-59534732D01*
X125759516Y-59534734D01*
X125582933Y-59629120D01*
X125428148Y-59756148D01*
X125301120Y-59910933D01*
X125206734Y-60087516D01*
X125206732Y-60087522D01*
X125148606Y-60279136D01*
X125148606Y-60279139D01*
X125133900Y-60428457D01*
X125133900Y-61229942D01*
X125148606Y-61379260D01*
X125148606Y-61379263D01*
X125206732Y-61570877D01*
X125206734Y-61570883D01*
X125248885Y-61649741D01*
X125301122Y-61747469D01*
X125428148Y-61902252D01*
X125582931Y-62029278D01*
X125582933Y-62029279D01*
X125750560Y-62118878D01*
X125801208Y-62168630D01*
X125816918Y-62237867D01*
X125792702Y-62304606D01*
X125750560Y-62341122D01*
X125582933Y-62430720D01*
X125428148Y-62557748D01*
X125301120Y-62712533D01*
X125206734Y-62889116D01*
X125206732Y-62889122D01*
X125148606Y-63080736D01*
X125148606Y-63080739D01*
X125133900Y-63230057D01*
X125133899Y-63230075D01*
X125133899Y-63558148D01*
X125113897Y-63626269D01*
X125096994Y-63647243D01*
X123156523Y-65587714D01*
X123156521Y-65587717D01*
X123009200Y-65735037D01*
X123009191Y-65735047D01*
X122977237Y-65780682D01*
X122973891Y-65785043D01*
X122938076Y-65827726D01*
X122910215Y-65875981D01*
X122907262Y-65880617D01*
X122875309Y-65926250D01*
X122851765Y-65976739D01*
X122849228Y-65981613D01*
X122821365Y-66029874D01*
X122802308Y-66082233D01*
X122800204Y-66087311D01*
X122776660Y-66137800D01*
X122776659Y-66137803D01*
X122762240Y-66191618D01*
X122760588Y-66196859D01*
X122741533Y-66249216D01*
X122731857Y-66304084D01*
X122730667Y-66309449D01*
X122716247Y-66363266D01*
X122711391Y-66418771D01*
X122710674Y-66424220D01*
X122701000Y-66479089D01*
X122701000Y-71166201D01*
X122680998Y-71234322D01*
X122673511Y-71244761D01*
X122561411Y-71385329D01*
X122428132Y-71616176D01*
X122428130Y-71616180D01*
X122330746Y-71864312D01*
X122271434Y-72124180D01*
X122271433Y-72124185D01*
X122251513Y-72390000D01*
X101000000Y-72390000D01*
X101000000Y-70056178D01*
X101020002Y-69988057D01*
X101073658Y-69941564D01*
X101102575Y-69932375D01*
X101257671Y-69903028D01*
X101562411Y-69845369D01*
X102069597Y-69709468D01*
X102565209Y-69536046D01*
X103046476Y-69326072D01*
X103046487Y-69326065D01*
X103046496Y-69326062D01*
X103198527Y-69245710D01*
X103510705Y-69080719D01*
X103955301Y-68801361D01*
X104377778Y-68489559D01*
X104775772Y-68147058D01*
X105147058Y-67775772D01*
X105489559Y-67377778D01*
X105801361Y-66955301D01*
X106080719Y-66510705D01*
X106304490Y-66087311D01*
X106326062Y-66046496D01*
X106326065Y-66046487D01*
X106326072Y-66046476D01*
X106536046Y-65565209D01*
X106709468Y-65069597D01*
X106845369Y-64562411D01*
X106942987Y-64046487D01*
X107001777Y-63524711D01*
X107021410Y-63000000D01*
X107001777Y-62475289D01*
X106942987Y-61953513D01*
X106845369Y-61437589D01*
X106709468Y-60930403D01*
X106589989Y-60588951D01*
X106536049Y-60434799D01*
X106536048Y-60434798D01*
X106536046Y-60434791D01*
X106326072Y-59953524D01*
X106326069Y-59953519D01*
X106326062Y-59953503D01*
X106104734Y-59534734D01*
X106080719Y-59489295D01*
X105805722Y-59051639D01*
X105801366Y-59044706D01*
X105801354Y-59044689D01*
X105489561Y-58622224D01*
X105489548Y-58622208D01*
X105147067Y-58224239D01*
X105147058Y-58224228D01*
X105147045Y-58224215D01*
X105147034Y-58224203D01*
X104775796Y-57852965D01*
X104775784Y-57852954D01*
X104775772Y-57852942D01*
X104689864Y-57779012D01*
X104377791Y-57510451D01*
X104377775Y-57510438D01*
X103955310Y-57198645D01*
X103955293Y-57198633D01*
X103510720Y-56919290D01*
X103510712Y-56919285D01*
X103510705Y-56919281D01*
X103456813Y-56890798D01*
X103046496Y-56673937D01*
X103046470Y-56673925D01*
X102785347Y-56559999D01*
X102565209Y-56463954D01*
X102565202Y-56463951D01*
X102565200Y-56463950D01*
X102069605Y-56290534D01*
X101562412Y-56154631D01*
X101102575Y-56067625D01*
X101039361Y-56035308D01*
X101003653Y-55973944D01*
X101000000Y-55943822D01*
X101000000Y-51126000D01*
X101020002Y-51057879D01*
X101073658Y-51011386D01*
X101126000Y-51000000D01*
X148874000Y-51000000D01*
X148942121Y-51020002D01*
G37*
%TD.AperFunction*%
%TD*%
%TA.AperFunction,Conductor*%
%TO.N,Net-(J4-Pin_1)*%
G36*
X98942121Y-51020002D02*
G01*
X98988614Y-51073658D01*
X99000000Y-51126000D01*
X99000000Y-55943822D01*
X98979998Y-56011943D01*
X98926342Y-56058436D01*
X98897425Y-56067625D01*
X98437587Y-56154631D01*
X97930394Y-56290534D01*
X97434799Y-56463950D01*
X97434796Y-56463952D01*
X96953529Y-56673925D01*
X96953503Y-56673937D01*
X96489300Y-56919278D01*
X96489279Y-56919290D01*
X96044706Y-57198633D01*
X96044689Y-57198645D01*
X95622224Y-57510438D01*
X95622208Y-57510451D01*
X95224239Y-57852932D01*
X95224203Y-57852965D01*
X94852965Y-58224203D01*
X94852932Y-58224239D01*
X94510451Y-58622208D01*
X94510438Y-58622224D01*
X94198645Y-59044689D01*
X94198633Y-59044706D01*
X93919290Y-59489279D01*
X93919278Y-59489300D01*
X93673937Y-59953503D01*
X93673925Y-59953529D01*
X93463952Y-60434796D01*
X93463950Y-60434799D01*
X93290534Y-60930394D01*
X93154631Y-61437587D01*
X93057013Y-61953512D01*
X92998222Y-62475288D01*
X92978590Y-62999999D01*
X92998222Y-63524711D01*
X93057013Y-64046487D01*
X93154631Y-64562412D01*
X93290534Y-65069605D01*
X93463950Y-65565200D01*
X93463951Y-65565202D01*
X93463954Y-65565209D01*
X93528561Y-65713290D01*
X93673925Y-66046470D01*
X93673937Y-66046496D01*
X93919278Y-66510699D01*
X93919290Y-66510720D01*
X94198633Y-66955293D01*
X94198645Y-66955310D01*
X94510438Y-67377775D01*
X94510451Y-67377791D01*
X94779012Y-67689864D01*
X94852942Y-67775772D01*
X94852954Y-67775784D01*
X94852965Y-67775796D01*
X95224203Y-68147034D01*
X95224215Y-68147045D01*
X95224228Y-68147058D01*
X95346780Y-68252522D01*
X95622208Y-68489548D01*
X95622224Y-68489561D01*
X96044689Y-68801354D01*
X96044706Y-68801366D01*
X96489279Y-69080709D01*
X96489295Y-69080719D01*
X96660588Y-69171250D01*
X96953503Y-69326062D01*
X96953519Y-69326069D01*
X96953524Y-69326072D01*
X97434791Y-69536046D01*
X97434798Y-69536048D01*
X97434799Y-69536049D01*
X97930394Y-69709465D01*
X97930403Y-69709468D01*
X98437589Y-69845369D01*
X98713953Y-69897659D01*
X98897425Y-69932375D01*
X98960639Y-69964692D01*
X98996347Y-70026056D01*
X99000000Y-70056178D01*
X99000000Y-90522229D01*
X98979998Y-90590350D01*
X98926342Y-90636843D01*
X98886351Y-90647622D01*
X98770239Y-90659059D01*
X98161933Y-90759490D01*
X97561520Y-90899487D01*
X96971555Y-91078452D01*
X96971547Y-91078454D01*
X96394535Y-91295626D01*
X95832962Y-91550071D01*
X95832945Y-91550080D01*
X95289227Y-91840704D01*
X94765671Y-92166272D01*
X94765667Y-92166274D01*
X94264529Y-92525385D01*
X94264528Y-92525386D01*
X93787943Y-92916509D01*
X93337962Y-93337962D01*
X92916509Y-93787943D01*
X92525386Y-94264528D01*
X92525385Y-94264529D01*
X92166274Y-94765667D01*
X92166272Y-94765671D01*
X91840704Y-95289227D01*
X91550080Y-95832945D01*
X91550071Y-95832962D01*
X91295626Y-96394535D01*
X91078454Y-96971547D01*
X91078452Y-96971555D01*
X90899487Y-97561520D01*
X90759490Y-98161933D01*
X90659060Y-98770235D01*
X90659057Y-98770251D01*
X90647623Y-98886350D01*
X90621040Y-98952183D01*
X90563086Y-98993192D01*
X90522230Y-99000000D01*
X70056178Y-99000000D01*
X69988057Y-98979998D01*
X69941564Y-98926342D01*
X69932375Y-98897425D01*
X69897659Y-98713953D01*
X69845369Y-98437589D01*
X69709468Y-97930403D01*
X69580392Y-97561525D01*
X69536049Y-97434799D01*
X69536048Y-97434798D01*
X69536046Y-97434791D01*
X69326072Y-96953524D01*
X69326069Y-96953519D01*
X69326062Y-96953503D01*
X69171250Y-96660588D01*
X69080719Y-96489295D01*
X69080709Y-96489279D01*
X68801366Y-96044706D01*
X68801354Y-96044689D01*
X68489561Y-95622224D01*
X68489548Y-95622208D01*
X68147067Y-95224239D01*
X68147058Y-95224228D01*
X68147045Y-95224215D01*
X68147034Y-95224203D01*
X67775796Y-94852965D01*
X67775784Y-94852954D01*
X67775772Y-94852942D01*
X67674361Y-94765671D01*
X67377791Y-94510451D01*
X67377775Y-94510438D01*
X66955310Y-94198645D01*
X66955293Y-94198633D01*
X66510720Y-93919290D01*
X66510712Y-93919285D01*
X66510705Y-93919281D01*
X66465089Y-93895172D01*
X66046496Y-93673937D01*
X66046470Y-93673925D01*
X65862513Y-93593666D01*
X65565209Y-93463954D01*
X65565202Y-93463951D01*
X65565200Y-93463950D01*
X65069605Y-93290534D01*
X64562412Y-93154631D01*
X64046487Y-93057013D01*
X63524711Y-92998222D01*
X63018923Y-92979298D01*
X63000000Y-92978590D01*
X62999999Y-92978590D01*
X62475288Y-92998222D01*
X61953512Y-93057013D01*
X61437587Y-93154631D01*
X60930394Y-93290534D01*
X60434799Y-93463950D01*
X60434796Y-93463952D01*
X59953529Y-93673925D01*
X59953503Y-93673937D01*
X59489300Y-93919278D01*
X59489279Y-93919290D01*
X59044706Y-94198633D01*
X59044689Y-94198645D01*
X58622224Y-94510438D01*
X58622208Y-94510451D01*
X58224239Y-94852932D01*
X58224203Y-94852965D01*
X57852965Y-95224203D01*
X57852932Y-95224239D01*
X57510451Y-95622208D01*
X57510438Y-95622224D01*
X57198645Y-96044689D01*
X57198633Y-96044706D01*
X56919290Y-96489279D01*
X56919278Y-96489300D01*
X56673937Y-96953503D01*
X56673925Y-96953529D01*
X56463952Y-97434796D01*
X56463950Y-97434799D01*
X56290534Y-97930394D01*
X56154631Y-98437587D01*
X56067625Y-98897425D01*
X56035308Y-98960639D01*
X55973944Y-98996347D01*
X55943822Y-99000000D01*
X51126000Y-99000000D01*
X51057879Y-98979998D01*
X51011386Y-98926342D01*
X51000000Y-98874000D01*
X51000000Y-72390000D01*
X67006513Y-72390000D01*
X67026433Y-72655815D01*
X67026434Y-72655819D01*
X67085746Y-72915687D01*
X67183130Y-73163819D01*
X67183132Y-73163823D01*
X67316411Y-73394670D01*
X67316413Y-73394673D01*
X67316414Y-73394674D01*
X67482612Y-73603079D01*
X67678014Y-73784386D01*
X67678020Y-73784390D01*
X67898247Y-73934539D01*
X67898254Y-73934543D01*
X67898257Y-73934545D01*
X68036711Y-74001221D01*
X68138414Y-74050199D01*
X68138427Y-74050204D01*
X68393126Y-74128768D01*
X68393128Y-74128768D01*
X68393137Y-74128771D01*
X68656720Y-74168500D01*
X68656725Y-74168500D01*
X68923275Y-74168500D01*
X68923280Y-74168500D01*
X69186863Y-74128771D01*
X69186873Y-74128768D01*
X69441572Y-74050204D01*
X69441574Y-74050202D01*
X69441581Y-74050201D01*
X69441586Y-74050198D01*
X69441590Y-74050197D01*
X69681738Y-73934548D01*
X69681738Y-73934547D01*
X69681744Y-73934545D01*
X69901986Y-73784386D01*
X70097388Y-73603079D01*
X70263586Y-73394674D01*
X70396866Y-73163826D01*
X70494252Y-72915692D01*
X70553567Y-72655815D01*
X70573487Y-72390000D01*
X70553567Y-72124185D01*
X70494252Y-71864308D01*
X70448577Y-71747931D01*
X70396869Y-71616180D01*
X70396867Y-71616176D01*
X70263588Y-71385329D01*
X70151489Y-71244761D01*
X70124655Y-71179031D01*
X70124000Y-71166201D01*
X70124000Y-66434751D01*
X70144002Y-66366630D01*
X70160905Y-66345656D01*
X70967356Y-65539205D01*
X71029668Y-65505179D01*
X71056451Y-65502300D01*
X71384525Y-65502300D01*
X71384534Y-65502300D01*
X71481779Y-65492722D01*
X71533860Y-65487593D01*
X71533863Y-65487593D01*
X71533864Y-65487592D01*
X71533869Y-65487592D01*
X71725480Y-65429467D01*
X71902069Y-65335078D01*
X72056852Y-65208052D01*
X72183878Y-65053269D01*
X72278267Y-64876680D01*
X72336392Y-64685069D01*
X72340691Y-64641425D01*
X72348472Y-64562412D01*
X72351100Y-64535734D01*
X72351100Y-63734266D01*
X72340620Y-63627862D01*
X72336393Y-63584939D01*
X72336393Y-63584936D01*
X72336392Y-63584933D01*
X72336392Y-63584931D01*
X72278267Y-63393320D01*
X72183878Y-63216731D01*
X72056852Y-63061948D01*
X71902069Y-62934922D01*
X71902067Y-62934921D01*
X71902066Y-62934920D01*
X71765140Y-62861732D01*
X71734438Y-62845321D01*
X71683791Y-62795570D01*
X71668081Y-62726333D01*
X71692297Y-62659594D01*
X71734438Y-62623078D01*
X71902069Y-62533478D01*
X72056852Y-62406452D01*
X72183878Y-62251669D01*
X72278267Y-62075080D01*
X72336392Y-61883469D01*
X72351100Y-61734134D01*
X72351100Y-61406051D01*
X72371102Y-61337930D01*
X72388005Y-61316956D01*
X72745905Y-60959056D01*
X72808217Y-60925030D01*
X72879032Y-60930095D01*
X72935868Y-60972642D01*
X72960679Y-61039162D01*
X72961000Y-61048151D01*
X72961000Y-62931710D01*
X72970673Y-62986578D01*
X72971391Y-62992027D01*
X72976247Y-63047532D01*
X72990667Y-63101348D01*
X72991857Y-63106714D01*
X73001533Y-63161583D01*
X73020584Y-63213928D01*
X73022237Y-63219170D01*
X73036658Y-63272990D01*
X73036664Y-63273005D01*
X73060203Y-63323485D01*
X73062307Y-63328564D01*
X73081365Y-63380926D01*
X73109227Y-63429184D01*
X73111765Y-63434060D01*
X73135309Y-63484548D01*
X73135311Y-63484550D01*
X73135312Y-63484553D01*
X73150419Y-63506128D01*
X73167262Y-63530182D01*
X73170212Y-63534811D01*
X73198076Y-63583073D01*
X73198077Y-63583074D01*
X73233888Y-63625752D01*
X73237234Y-63630113D01*
X73269192Y-63675753D01*
X73269194Y-63675755D01*
X73328248Y-63734810D01*
X73328254Y-63734815D01*
X73556595Y-63963155D01*
X73590620Y-64025468D01*
X73593500Y-64052251D01*
X73593500Y-64507542D01*
X73604037Y-64641425D01*
X73604037Y-64641428D01*
X73604038Y-64641429D01*
X73659739Y-64862485D01*
X73659742Y-64862494D01*
X73754018Y-65070049D01*
X73754020Y-65070052D01*
X73754021Y-65070054D01*
X73853353Y-65213432D01*
X73883849Y-65257451D01*
X73883857Y-65257460D01*
X74045039Y-65418642D01*
X74045048Y-65418650D01*
X74045050Y-65418652D01*
X74232446Y-65548479D01*
X74440011Y-65642760D01*
X74660788Y-65698390D01*
X74721955Y-65734430D01*
X74753929Y-65797820D01*
X74756000Y-65820571D01*
X74756000Y-71166201D01*
X74735998Y-71234322D01*
X74728511Y-71244761D01*
X74616411Y-71385329D01*
X74483132Y-71616176D01*
X74483130Y-71616180D01*
X74385746Y-71864312D01*
X74326434Y-72124180D01*
X74326433Y-72124185D01*
X74306513Y-72390000D01*
X74326433Y-72655815D01*
X74326434Y-72655819D01*
X74385746Y-72915687D01*
X74483130Y-73163819D01*
X74483132Y-73163823D01*
X74616411Y-73394670D01*
X74616413Y-73394673D01*
X74616414Y-73394674D01*
X74782612Y-73603079D01*
X74978014Y-73784386D01*
X74978020Y-73784390D01*
X75198247Y-73934539D01*
X75198254Y-73934543D01*
X75198257Y-73934545D01*
X75336711Y-74001221D01*
X75438414Y-74050199D01*
X75438427Y-74050204D01*
X75693126Y-74128768D01*
X75693128Y-74128768D01*
X75693137Y-74128771D01*
X75956720Y-74168500D01*
X75956725Y-74168500D01*
X76223275Y-74168500D01*
X76223280Y-74168500D01*
X76486863Y-74128771D01*
X76486873Y-74128768D01*
X76741572Y-74050204D01*
X76741574Y-74050202D01*
X76741581Y-74050201D01*
X76741586Y-74050198D01*
X76741590Y-74050197D01*
X76981738Y-73934548D01*
X76981738Y-73934547D01*
X76981744Y-73934545D01*
X77201986Y-73784386D01*
X77397388Y-73603079D01*
X77563586Y-73394674D01*
X77696866Y-73163826D01*
X77794252Y-72915692D01*
X77853567Y-72655815D01*
X77873487Y-72390000D01*
X77853567Y-72124185D01*
X77794252Y-71864308D01*
X77748577Y-71747931D01*
X77696869Y-71616180D01*
X77696867Y-71616176D01*
X77563588Y-71385329D01*
X77451489Y-71244761D01*
X77424655Y-71179031D01*
X77424000Y-71166201D01*
X77424000Y-65355528D01*
X77444002Y-65287407D01*
X77497658Y-65240914D01*
X77567932Y-65230810D01*
X77607204Y-65243262D01*
X77666095Y-65273269D01*
X77845789Y-65321417D01*
X77923061Y-65327500D01*
X78143500Y-65327500D01*
X78143500Y-64046500D01*
X78651500Y-64046500D01*
X78651500Y-65327500D01*
X78871939Y-65327500D01*
X78949210Y-65321417D01*
X79128902Y-65273269D01*
X79294658Y-65188812D01*
X79294661Y-65188811D01*
X79439236Y-65071736D01*
X79556311Y-64927161D01*
X79556312Y-64927158D01*
X79640769Y-64761402D01*
X79688917Y-64581710D01*
X79695000Y-64504438D01*
X79695000Y-64046500D01*
X78651500Y-64046500D01*
X78143500Y-64046500D01*
X78143500Y-62257500D01*
X78651500Y-62257500D01*
X78651500Y-63538500D01*
X79695000Y-63538500D01*
X79695000Y-63080561D01*
X79688917Y-63003289D01*
X79640769Y-62823597D01*
X79556312Y-62657841D01*
X79556311Y-62657838D01*
X79439236Y-62513263D01*
X79294661Y-62396188D01*
X79294658Y-62396187D01*
X79128902Y-62311730D01*
X78949210Y-62263582D01*
X78871939Y-62257500D01*
X78651500Y-62257500D01*
X78143500Y-62257500D01*
X77923061Y-62257500D01*
X77845789Y-62263582D01*
X77666097Y-62311730D01*
X77500341Y-62396187D01*
X77500338Y-62396188D01*
X77355763Y-62513263D01*
X77238688Y-62657838D01*
X77238687Y-62657841D01*
X77154228Y-62823600D01*
X77154189Y-62823747D01*
X77154142Y-62823822D01*
X77151863Y-62829762D01*
X77150776Y-62829344D01*
X77117230Y-62884365D01*
X77053366Y-62915379D01*
X76982872Y-62906942D01*
X76928131Y-62861732D01*
X76910305Y-62821907D01*
X76900352Y-62782408D01*
X76885260Y-62722511D01*
X76790979Y-62514946D01*
X76661152Y-62327550D01*
X76661150Y-62327548D01*
X76661142Y-62327539D01*
X76499960Y-62166357D01*
X76499951Y-62166349D01*
X76368211Y-62075080D01*
X76312554Y-62036521D01*
X76312552Y-62036520D01*
X76312549Y-62036518D01*
X76104994Y-61942242D01*
X76104991Y-61942241D01*
X76104989Y-61942240D01*
X75883925Y-61886537D01*
X75750042Y-61876000D01*
X75750039Y-61876000D01*
X75747574Y-61875806D01*
X75747622Y-61875185D01*
X75682757Y-61853330D01*
X75638414Y-61797885D01*
X75629000Y-61750097D01*
X75629000Y-57872820D01*
X75649002Y-57804699D01*
X75665906Y-57783724D01*
X75681086Y-57768542D01*
X75709210Y-57740420D01*
X75869211Y-57526684D01*
X75997165Y-57292353D01*
X76090468Y-57042197D01*
X76147221Y-56781309D01*
X76166268Y-56515000D01*
X76147221Y-56248691D01*
X76107832Y-56067625D01*
X76090470Y-55987811D01*
X76090470Y-55987810D01*
X76090468Y-55987806D01*
X76090468Y-55987803D01*
X75997165Y-55737647D01*
X75869211Y-55503316D01*
X75709210Y-55289580D01*
X75520420Y-55100790D01*
X75520417Y-55100788D01*
X75520414Y-55100785D01*
X75425856Y-55030000D01*
X75306684Y-54940789D01*
X75178729Y-54870920D01*
X75072352Y-54812834D01*
X74822189Y-54719529D01*
X74561311Y-54662779D01*
X74561313Y-54662779D01*
X74295000Y-54643732D01*
X74028687Y-54662779D01*
X73767811Y-54719529D01*
X73767810Y-54719529D01*
X73517647Y-54812834D01*
X73283316Y-54940789D01*
X73100509Y-55077636D01*
X73033988Y-55102447D01*
X72964614Y-55087355D01*
X72949491Y-55077636D01*
X72854673Y-55006657D01*
X72766684Y-54940789D01*
X72638728Y-54870920D01*
X72532352Y-54812834D01*
X72282189Y-54719529D01*
X72021311Y-54662779D01*
X72021313Y-54662779D01*
X71755000Y-54643732D01*
X71488687Y-54662779D01*
X71227811Y-54719529D01*
X71227810Y-54719529D01*
X70977647Y-54812834D01*
X70743316Y-54940789D01*
X70529580Y-55100790D01*
X70528700Y-55101553D01*
X70528345Y-55101715D01*
X70525978Y-55103487D01*
X70525592Y-55102971D01*
X70464116Y-55131039D01*
X70393843Y-55120927D01*
X70382059Y-55114772D01*
X70319197Y-55077595D01*
X70165130Y-55032834D01*
X70165117Y-55032832D01*
X70129136Y-55030000D01*
X69469000Y-55030000D01*
X69469000Y-56081325D01*
X69357315Y-56030320D01*
X69250763Y-56015000D01*
X69179237Y-56015000D01*
X69072685Y-56030320D01*
X68961000Y-56081325D01*
X68961000Y-55030000D01*
X68300864Y-55030000D01*
X68264882Y-55032832D01*
X68264869Y-55032834D01*
X68110802Y-55077595D01*
X67972714Y-55159261D01*
X67972707Y-55159266D01*
X67859266Y-55272707D01*
X67859261Y-55272714D01*
X67777595Y-55410802D01*
X67732834Y-55564869D01*
X67732832Y-55564882D01*
X67730000Y-55600863D01*
X67730000Y-56261000D01*
X68783884Y-56261000D01*
X68755507Y-56305156D01*
X68715000Y-56443111D01*
X68715000Y-56586889D01*
X68755507Y-56724844D01*
X68783884Y-56769000D01*
X67730000Y-56769000D01*
X67730000Y-57429136D01*
X67732832Y-57465117D01*
X67732834Y-57465130D01*
X67777595Y-57619197D01*
X67859261Y-57757285D01*
X67859266Y-57757292D01*
X67972707Y-57870733D01*
X67972714Y-57870738D01*
X68110802Y-57952404D01*
X68264869Y-57997165D01*
X68264882Y-57997167D01*
X68300863Y-57999999D01*
X68300865Y-58000000D01*
X68961000Y-58000000D01*
X68961000Y-56948674D01*
X69072685Y-56999680D01*
X69179237Y-57015000D01*
X69250763Y-57015000D01*
X69357315Y-56999680D01*
X69469000Y-56948674D01*
X69469000Y-58000000D01*
X70129135Y-58000000D01*
X70129136Y-57999999D01*
X70165117Y-57997167D01*
X70165127Y-57997165D01*
X70259846Y-57969647D01*
X70330843Y-57969850D01*
X70390459Y-58008403D01*
X70419768Y-58073068D01*
X70421000Y-58090644D01*
X70421000Y-59458648D01*
X70400998Y-59526769D01*
X70384096Y-59547742D01*
X70002642Y-59929196D01*
X69940332Y-59963220D01*
X69913549Y-59966100D01*
X69585457Y-59966100D01*
X69436139Y-59980806D01*
X69436136Y-59980806D01*
X69244522Y-60038932D01*
X69244516Y-60038934D01*
X69067933Y-60133320D01*
X68913148Y-60260348D01*
X68786120Y-60415133D01*
X68691734Y-60591716D01*
X68691732Y-60591722D01*
X68633606Y-60783336D01*
X68633606Y-60783339D01*
X68618901Y-60932654D01*
X68618900Y-60932675D01*
X68618900Y-61734142D01*
X68633606Y-61883460D01*
X68633606Y-61883463D01*
X68691732Y-62075077D01*
X68691734Y-62075083D01*
X68786120Y-62251666D01*
X68786122Y-62251669D01*
X68913148Y-62406452D01*
X69067931Y-62533478D01*
X69067933Y-62533479D01*
X69235560Y-62623078D01*
X69286208Y-62672830D01*
X69301918Y-62742067D01*
X69277702Y-62808806D01*
X69235560Y-62845322D01*
X69067933Y-62934920D01*
X68913148Y-63061948D01*
X68786120Y-63216733D01*
X68691734Y-63393316D01*
X68691732Y-63393322D01*
X68633606Y-63584936D01*
X68633606Y-63584939D01*
X68618900Y-63734257D01*
X68618900Y-64062347D01*
X68598898Y-64130468D01*
X68581995Y-64151442D01*
X67869717Y-64863719D01*
X67869713Y-64863725D01*
X67764200Y-64969237D01*
X67764191Y-64969247D01*
X67732237Y-65014882D01*
X67728891Y-65019243D01*
X67693076Y-65061926D01*
X67665215Y-65110181D01*
X67662262Y-65114817D01*
X67630309Y-65160450D01*
X67606765Y-65210939D01*
X67604228Y-65215813D01*
X67576365Y-65264074D01*
X67557308Y-65316433D01*
X67555204Y-65321511D01*
X67531660Y-65372000D01*
X67531659Y-65372003D01*
X67517240Y-65425818D01*
X67515588Y-65431059D01*
X67496533Y-65483416D01*
X67486857Y-65538284D01*
X67485667Y-65543649D01*
X67471247Y-65597466D01*
X67466391Y-65652971D01*
X67465674Y-65658420D01*
X67456000Y-65713289D01*
X67456000Y-71166201D01*
X67435998Y-71234322D01*
X67428511Y-71244761D01*
X67316411Y-71385329D01*
X67183132Y-71616176D01*
X67183130Y-71616180D01*
X67085746Y-71864312D01*
X67026434Y-72124180D01*
X67026433Y-72124185D01*
X67006513Y-72390000D01*
X51000000Y-72390000D01*
X51000000Y-51126000D01*
X51020002Y-51057879D01*
X51073658Y-51011386D01*
X51126000Y-51000000D01*
X98874000Y-51000000D01*
X98942121Y-51020002D01*
G37*
%TD.AperFunction*%
%TD*%
%TA.AperFunction,Conductor*%
%TO.N,Net-(J1-Pin_1)*%
G36*
X130011943Y-101020002D02*
G01*
X130058436Y-101073658D01*
X130067625Y-101102575D01*
X130154631Y-101562412D01*
X130290534Y-102069605D01*
X130463950Y-102565200D01*
X130463951Y-102565202D01*
X130463954Y-102565209D01*
X130593666Y-102862513D01*
X130673925Y-103046470D01*
X130673937Y-103046496D01*
X130919278Y-103510699D01*
X130919290Y-103510720D01*
X131198633Y-103955293D01*
X131198645Y-103955310D01*
X131510438Y-104377775D01*
X131510451Y-104377791D01*
X131779012Y-104689864D01*
X131852942Y-104775772D01*
X131852954Y-104775784D01*
X131852965Y-104775796D01*
X132224203Y-105147034D01*
X132224215Y-105147045D01*
X132224228Y-105147058D01*
X132325638Y-105234328D01*
X132622208Y-105489548D01*
X132622224Y-105489561D01*
X133044689Y-105801354D01*
X133044706Y-105801366D01*
X133489279Y-106080709D01*
X133489295Y-106080719D01*
X133660588Y-106171250D01*
X133953503Y-106326062D01*
X133953519Y-106326069D01*
X133953524Y-106326072D01*
X134434791Y-106536046D01*
X134434798Y-106536048D01*
X134434799Y-106536049D01*
X134930394Y-106709465D01*
X134930403Y-106709468D01*
X135437589Y-106845369D01*
X135953513Y-106942987D01*
X136416498Y-106995152D01*
X136475288Y-107001777D01*
X136494920Y-107002511D01*
X137000000Y-107021410D01*
X137524711Y-107001777D01*
X138046487Y-106942987D01*
X138562411Y-106845369D01*
X139069597Y-106709468D01*
X139565209Y-106536046D01*
X140046476Y-106326072D01*
X140046487Y-106326065D01*
X140046496Y-106326062D01*
X140262204Y-106212056D01*
X140510705Y-106080719D01*
X140955301Y-105801361D01*
X141377778Y-105489559D01*
X141775772Y-105147058D01*
X142147058Y-104775772D01*
X142489559Y-104377778D01*
X142801361Y-103955301D01*
X143080719Y-103510705D01*
X143245710Y-103198527D01*
X143326062Y-103046496D01*
X143326065Y-103046487D01*
X143326072Y-103046476D01*
X143536046Y-102565209D01*
X143709468Y-102069597D01*
X143845369Y-101562411D01*
X143908312Y-101229748D01*
X143932375Y-101102575D01*
X143964692Y-101039361D01*
X144026056Y-101003653D01*
X144056178Y-101000000D01*
X148874000Y-101000000D01*
X148942121Y-101020002D01*
X148988614Y-101073658D01*
X149000000Y-101126000D01*
X149000000Y-148874000D01*
X148979998Y-148942121D01*
X148926342Y-148988614D01*
X148874000Y-149000000D01*
X101126000Y-149000000D01*
X101057879Y-148979998D01*
X101011386Y-148926342D01*
X101000000Y-148874000D01*
X101000000Y-144056178D01*
X101020002Y-143988057D01*
X101073658Y-143941564D01*
X101102575Y-143932375D01*
X101257671Y-143903028D01*
X101562411Y-143845369D01*
X102069597Y-143709468D01*
X102565209Y-143536046D01*
X103046476Y-143326072D01*
X103046487Y-143326065D01*
X103046496Y-143326062D01*
X103239223Y-143224202D01*
X103510705Y-143080719D01*
X103955301Y-142801361D01*
X104377778Y-142489559D01*
X104775772Y-142147058D01*
X105147058Y-141775772D01*
X105489559Y-141377778D01*
X105801361Y-140955301D01*
X106080719Y-140510705D01*
X106245710Y-140198527D01*
X106326062Y-140046496D01*
X106326065Y-140046487D01*
X106326072Y-140046476D01*
X106536046Y-139565209D01*
X106709468Y-139069597D01*
X106845369Y-138562411D01*
X106942987Y-138046487D01*
X107001777Y-137524711D01*
X107021410Y-137000000D01*
X107001777Y-136475289D01*
X106942987Y-135953513D01*
X106845369Y-135437589D01*
X106709468Y-134930403D01*
X106572847Y-134539961D01*
X106536049Y-134434799D01*
X106536048Y-134434798D01*
X106536046Y-134434791D01*
X106326072Y-133953524D01*
X106326069Y-133953519D01*
X106326062Y-133953503D01*
X106151992Y-133624149D01*
X106080719Y-133489295D01*
X105969625Y-133312490D01*
X105801366Y-133044706D01*
X105801354Y-133044689D01*
X105489561Y-132622224D01*
X105489548Y-132622208D01*
X105147067Y-132224239D01*
X105147058Y-132224228D01*
X105147045Y-132224215D01*
X105147034Y-132224203D01*
X104775796Y-131852965D01*
X104775784Y-131852954D01*
X104775772Y-131852942D01*
X104689864Y-131779012D01*
X104377791Y-131510451D01*
X104377775Y-131510438D01*
X103955310Y-131198645D01*
X103955293Y-131198633D01*
X103510720Y-130919290D01*
X103510712Y-130919285D01*
X103510705Y-130919281D01*
X103465089Y-130895172D01*
X103046496Y-130673937D01*
X103046470Y-130673925D01*
X102862513Y-130593666D01*
X102565209Y-130463954D01*
X102565202Y-130463951D01*
X102565200Y-130463950D01*
X102069605Y-130290534D01*
X101562412Y-130154631D01*
X101102575Y-130067625D01*
X101039361Y-130035308D01*
X101003653Y-129973944D01*
X101000000Y-129943822D01*
X101000000Y-127635000D01*
X122251513Y-127635000D01*
X122271433Y-127900815D01*
X122271434Y-127900819D01*
X122330746Y-128160687D01*
X122428130Y-128408819D01*
X122428132Y-128408823D01*
X122561411Y-128639670D01*
X122561417Y-128639678D01*
X122673509Y-128780236D01*
X122700344Y-128845966D01*
X122700999Y-128858796D01*
X122700999Y-133337549D01*
X122701000Y-133337554D01*
X122701000Y-133545910D01*
X122710673Y-133600778D01*
X122711391Y-133606227D01*
X122716247Y-133661732D01*
X122730667Y-133715548D01*
X122731857Y-133720914D01*
X122741533Y-133775783D01*
X122760584Y-133828128D01*
X122762237Y-133833370D01*
X122776658Y-133887190D01*
X122776664Y-133887205D01*
X122800203Y-133937685D01*
X122802307Y-133942764D01*
X122821365Y-133995126D01*
X122849227Y-134043384D01*
X122851765Y-134048260D01*
X122875309Y-134098748D01*
X122875311Y-134098750D01*
X122875312Y-134098753D01*
X122890419Y-134120328D01*
X122907262Y-134144382D01*
X122910212Y-134149011D01*
X122938076Y-134197273D01*
X122938077Y-134197274D01*
X122973887Y-134239950D01*
X122977235Y-134244313D01*
X123009194Y-134289956D01*
X123009196Y-134289958D01*
X123029864Y-134310625D01*
X123050533Y-134331294D01*
X123442696Y-134723457D01*
X123826995Y-135107756D01*
X123861021Y-135170068D01*
X123863900Y-135196851D01*
X123863900Y-135524942D01*
X123878606Y-135674260D01*
X123878606Y-135674263D01*
X123936732Y-135865877D01*
X123936734Y-135865883D01*
X124031120Y-136042466D01*
X124031122Y-136042469D01*
X124158148Y-136197252D01*
X124312931Y-136324278D01*
X124312933Y-136324279D01*
X124480560Y-136413878D01*
X124531208Y-136463630D01*
X124546918Y-136532867D01*
X124522702Y-136599606D01*
X124480560Y-136636122D01*
X124312933Y-136725720D01*
X124158148Y-136852748D01*
X124031120Y-137007533D01*
X123936734Y-137184116D01*
X123936732Y-137184122D01*
X123878606Y-137375736D01*
X123878606Y-137375739D01*
X123863900Y-137525057D01*
X123863900Y-138326542D01*
X123878606Y-138475860D01*
X123878606Y-138475863D01*
X123936732Y-138667477D01*
X123936734Y-138667483D01*
X124031120Y-138844066D01*
X124031122Y-138844069D01*
X124158148Y-138998852D01*
X124312931Y-139125878D01*
X124329395Y-139134678D01*
X124380043Y-139184428D01*
X124396000Y-139245800D01*
X124396000Y-141176710D01*
X124405673Y-141231578D01*
X124406391Y-141237027D01*
X124411247Y-141292532D01*
X124425667Y-141346348D01*
X124426857Y-141351714D01*
X124436533Y-141406583D01*
X124455584Y-141458928D01*
X124457237Y-141464170D01*
X124471658Y-141517990D01*
X124471664Y-141518005D01*
X124495203Y-141568485D01*
X124497307Y-141573564D01*
X124516365Y-141625926D01*
X124544227Y-141674184D01*
X124546765Y-141679060D01*
X124570309Y-141729548D01*
X124570311Y-141729550D01*
X124570312Y-141729553D01*
X124585419Y-141751128D01*
X124602262Y-141775182D01*
X124605212Y-141779811D01*
X124633076Y-141828073D01*
X124633077Y-141828074D01*
X124668887Y-141870750D01*
X124672235Y-141875113D01*
X124696919Y-141910365D01*
X124719607Y-141977639D01*
X124702322Y-142046499D01*
X124650553Y-142095084D01*
X124628861Y-142103632D01*
X124580804Y-142117594D01*
X124580803Y-142117594D01*
X124442714Y-142199261D01*
X124442707Y-142199266D01*
X124329266Y-142312707D01*
X124329261Y-142312714D01*
X124247595Y-142450802D01*
X124202834Y-142604869D01*
X124202832Y-142604882D01*
X124200000Y-142640863D01*
X124200000Y-143301000D01*
X125253884Y-143301000D01*
X125225507Y-143345156D01*
X125185000Y-143483111D01*
X125185000Y-143626889D01*
X125225507Y-143764844D01*
X125253884Y-143809000D01*
X124200000Y-143809000D01*
X124200000Y-144469136D01*
X124202832Y-144505117D01*
X124202834Y-144505130D01*
X124247595Y-144659197D01*
X124329261Y-144797285D01*
X124329266Y-144797292D01*
X124442707Y-144910733D01*
X124442714Y-144910738D01*
X124580802Y-144992404D01*
X124734869Y-145037165D01*
X124734882Y-145037167D01*
X124770863Y-145039999D01*
X124770865Y-145040000D01*
X125431000Y-145040000D01*
X125431000Y-143988674D01*
X125542685Y-144039680D01*
X125649237Y-144055000D01*
X125720763Y-144055000D01*
X125827315Y-144039680D01*
X125939000Y-143988674D01*
X125939000Y-145040000D01*
X126599135Y-145040000D01*
X126599136Y-145039999D01*
X126635117Y-145037167D01*
X126635130Y-145037165D01*
X126789195Y-144992404D01*
X126852058Y-144955227D01*
X126920874Y-144937767D01*
X126988205Y-144960283D01*
X126998723Y-144968467D01*
X126999575Y-144969205D01*
X126999580Y-144969210D01*
X127213316Y-145129211D01*
X127447647Y-145257165D01*
X127697803Y-145350468D01*
X127697806Y-145350468D01*
X127697810Y-145350470D01*
X127848788Y-145383313D01*
X127958691Y-145407221D01*
X128225000Y-145426268D01*
X128491309Y-145407221D01*
X128752188Y-145350470D01*
X128752189Y-145350470D01*
X128752190Y-145350469D01*
X128752197Y-145350468D01*
X129002353Y-145257165D01*
X129236684Y-145129211D01*
X129419491Y-144992362D01*
X129486011Y-144967552D01*
X129555385Y-144982643D01*
X129570507Y-144992361D01*
X129753316Y-145129211D01*
X129987647Y-145257165D01*
X130237803Y-145350468D01*
X130237806Y-145350468D01*
X130237810Y-145350470D01*
X130388788Y-145383313D01*
X130498691Y-145407221D01*
X130765000Y-145426268D01*
X131031309Y-145407221D01*
X131292188Y-145350470D01*
X131292189Y-145350470D01*
X131292190Y-145350469D01*
X131292197Y-145350468D01*
X131542353Y-145257165D01*
X131776684Y-145129211D01*
X131990420Y-144969210D01*
X132179210Y-144780420D01*
X132339211Y-144566684D01*
X132467165Y-144332353D01*
X132560468Y-144082197D01*
X132617221Y-143821309D01*
X132636268Y-143555000D01*
X132617221Y-143288691D01*
X132569717Y-143070320D01*
X132560470Y-143027811D01*
X132560470Y-143027810D01*
X132560468Y-143027806D01*
X132560468Y-143027803D01*
X132467165Y-142777647D01*
X132339211Y-142543316D01*
X132179210Y-142329580D01*
X132135905Y-142286275D01*
X132101879Y-142223963D01*
X132099000Y-142197180D01*
X132099000Y-137261023D01*
X132119002Y-137192902D01*
X132172658Y-137146409D01*
X132194208Y-137138843D01*
X132327489Y-137105260D01*
X132535054Y-137010979D01*
X132722450Y-136881152D01*
X132883652Y-136719950D01*
X133013479Y-136532554D01*
X133107760Y-136324989D01*
X133132806Y-136225589D01*
X133168845Y-136164423D01*
X133232234Y-136132449D01*
X133302847Y-136139822D01*
X133358264Y-136184200D01*
X133373958Y-136217893D01*
X133374363Y-136217738D01*
X133376595Y-136223555D01*
X133376690Y-136223757D01*
X133376728Y-136223899D01*
X133461187Y-136389658D01*
X133461188Y-136389661D01*
X133578263Y-136534236D01*
X133722838Y-136651311D01*
X133722841Y-136651312D01*
X133888597Y-136735769D01*
X134068289Y-136783917D01*
X134145561Y-136790000D01*
X134366000Y-136790000D01*
X134366000Y-135509000D01*
X134874000Y-135509000D01*
X134874000Y-136790000D01*
X135094439Y-136790000D01*
X135171710Y-136783917D01*
X135351402Y-136735769D01*
X135517158Y-136651312D01*
X135517161Y-136651311D01*
X135661736Y-136534236D01*
X135778811Y-136389661D01*
X135778812Y-136389658D01*
X135863269Y-136223902D01*
X135911417Y-136044210D01*
X135917500Y-135966938D01*
X135917500Y-135509000D01*
X134874000Y-135509000D01*
X134366000Y-135509000D01*
X134366000Y-133720000D01*
X134874000Y-133720000D01*
X134874000Y-135001000D01*
X135917500Y-135001000D01*
X135917500Y-134543061D01*
X135911417Y-134465789D01*
X135863269Y-134286097D01*
X135778812Y-134120341D01*
X135778811Y-134120338D01*
X135661736Y-133975763D01*
X135517161Y-133858688D01*
X135517158Y-133858687D01*
X135351402Y-133774230D01*
X135171710Y-133726082D01*
X135094439Y-133720000D01*
X134874000Y-133720000D01*
X134366000Y-133720000D01*
X134145561Y-133720000D01*
X134068289Y-133726082D01*
X133888597Y-133774230D01*
X133722841Y-133858687D01*
X133722838Y-133858688D01*
X133578263Y-133975763D01*
X133461188Y-134120338D01*
X133461187Y-134120341D01*
X133376728Y-134286100D01*
X133376689Y-134286247D01*
X133376642Y-134286322D01*
X133374363Y-134292262D01*
X133373276Y-134291844D01*
X133339730Y-134346865D01*
X133275866Y-134377879D01*
X133205372Y-134369442D01*
X133150631Y-134324232D01*
X133132805Y-134284407D01*
X133122702Y-134244313D01*
X133107760Y-134185011D01*
X133013479Y-133977446D01*
X132883652Y-133790050D01*
X132883650Y-133790048D01*
X132883642Y-133790039D01*
X132722460Y-133628857D01*
X132722453Y-133628851D01*
X132722450Y-133628848D01*
X132722445Y-133628844D01*
X132718107Y-133625223D01*
X132719003Y-133624149D01*
X132678636Y-133574151D01*
X132669000Y-133525826D01*
X132669000Y-128858797D01*
X132689002Y-128790676D01*
X132696490Y-128780237D01*
X132808583Y-128639678D01*
X132808583Y-128639676D01*
X132808586Y-128639674D01*
X132941866Y-128408826D01*
X133039252Y-128160692D01*
X133098567Y-127900815D01*
X133118487Y-127635000D01*
X133098567Y-127369185D01*
X133039252Y-127109308D01*
X132993577Y-126992931D01*
X132941869Y-126861180D01*
X132941867Y-126861176D01*
X132808588Y-126630329D01*
X132808586Y-126630326D01*
X132642388Y-126421921D01*
X132446986Y-126240614D01*
X132226744Y-126090455D01*
X132226741Y-126090454D01*
X132226739Y-126090452D01*
X132226738Y-126090451D01*
X131986590Y-125974802D01*
X131986572Y-125974795D01*
X131731873Y-125896231D01*
X131731865Y-125896229D01*
X131731863Y-125896229D01*
X131468280Y-125856500D01*
X131201720Y-125856500D01*
X130938137Y-125896229D01*
X130938135Y-125896229D01*
X130938126Y-125896231D01*
X130683427Y-125974795D01*
X130683414Y-125974800D01*
X130443254Y-126090456D01*
X130443247Y-126090460D01*
X130223020Y-126240609D01*
X130223015Y-126240613D01*
X130027613Y-126421920D01*
X129861411Y-126630329D01*
X129728132Y-126861176D01*
X129728130Y-126861180D01*
X129630746Y-127109312D01*
X129571434Y-127369180D01*
X129571433Y-127369185D01*
X129551513Y-127635000D01*
X129571433Y-127900815D01*
X129571434Y-127900819D01*
X129630746Y-128160687D01*
X129728130Y-128408819D01*
X129728132Y-128408823D01*
X129861411Y-128639670D01*
X129861416Y-128639678D01*
X129973510Y-128780237D01*
X130000345Y-128845967D01*
X130001000Y-128858797D01*
X130001000Y-133902730D01*
X129980998Y-133970851D01*
X129978574Y-133974482D01*
X129976523Y-133977441D01*
X129976519Y-133977449D01*
X129882242Y-134185005D01*
X129882239Y-134185014D01*
X129833642Y-134377879D01*
X129826537Y-134406075D01*
X129816000Y-134539958D01*
X129816000Y-134539961D01*
X129816000Y-134995248D01*
X129795998Y-135063369D01*
X129779095Y-135084343D01*
X129739200Y-135124237D01*
X129739191Y-135124247D01*
X129707237Y-135169882D01*
X129703891Y-135174243D01*
X129668076Y-135216926D01*
X129640215Y-135265181D01*
X129637262Y-135269817D01*
X129605309Y-135315450D01*
X129581765Y-135365939D01*
X129579228Y-135370813D01*
X129551365Y-135419074D01*
X129532308Y-135471433D01*
X129530204Y-135476511D01*
X129506660Y-135527000D01*
X129506659Y-135527003D01*
X129492240Y-135580818D01*
X129490588Y-135586059D01*
X129471533Y-135638416D01*
X129461857Y-135693284D01*
X129460667Y-135698649D01*
X129446247Y-135752466D01*
X129441391Y-135807971D01*
X129440674Y-135813420D01*
X129431000Y-135868289D01*
X129431000Y-135926753D01*
X129430999Y-141874915D01*
X129410997Y-141943036D01*
X129357341Y-141989529D01*
X129287067Y-141999632D01*
X129240918Y-141982424D01*
X129240634Y-141982946D01*
X129237006Y-141980965D01*
X129236893Y-141980923D01*
X129236688Y-141980791D01*
X129002352Y-141852834D01*
X128752189Y-141759529D01*
X128491312Y-141702779D01*
X128288343Y-141688261D01*
X128221823Y-141663450D01*
X128208238Y-141651677D01*
X127100905Y-140544344D01*
X127066879Y-140482032D01*
X127064000Y-140455249D01*
X127064000Y-139245800D01*
X127084002Y-139177679D01*
X127130604Y-139134678D01*
X127147069Y-139125878D01*
X127301852Y-138998852D01*
X127428878Y-138844069D01*
X127523267Y-138667480D01*
X127581392Y-138475869D01*
X127596100Y-138326534D01*
X127596100Y-137525066D01*
X127581393Y-137375739D01*
X127581393Y-137375736D01*
X127581392Y-137375733D01*
X127581392Y-137375731D01*
X127523267Y-137184120D01*
X127511201Y-137161547D01*
X127428879Y-137007533D01*
X127428878Y-137007531D01*
X127301852Y-136852748D01*
X127147069Y-136725722D01*
X127147067Y-136725721D01*
X127147066Y-136725720D01*
X127007856Y-136651311D01*
X126979438Y-136636121D01*
X126928791Y-136586370D01*
X126913081Y-136517133D01*
X126937297Y-136450394D01*
X126979438Y-136413878D01*
X127147069Y-136324278D01*
X127301852Y-136197252D01*
X127428878Y-136042469D01*
X127523267Y-135865880D01*
X127581392Y-135674269D01*
X127596100Y-135524934D01*
X127596100Y-134723466D01*
X127581393Y-134574139D01*
X127581393Y-134574136D01*
X127581392Y-134574133D01*
X127581392Y-134574131D01*
X127523267Y-134382520D01*
X127428878Y-134205931D01*
X127301852Y-134051148D01*
X127147069Y-133924122D01*
X127147067Y-133924121D01*
X127147066Y-133924120D01*
X126970483Y-133829734D01*
X126970477Y-133829732D01*
X126937121Y-133819613D01*
X126778869Y-133771608D01*
X126778866Y-133771607D01*
X126778861Y-133771606D01*
X126629542Y-133756900D01*
X126629534Y-133756900D01*
X126301452Y-133756900D01*
X126233331Y-133736898D01*
X126212357Y-133719995D01*
X125405904Y-132913542D01*
X125371878Y-132851230D01*
X125368999Y-132824447D01*
X125368999Y-130919278D01*
X125368999Y-128858793D01*
X125389001Y-128790676D01*
X125396473Y-128780257D01*
X125508586Y-128639674D01*
X125641866Y-128408826D01*
X125739252Y-128160692D01*
X125798567Y-127900815D01*
X125818487Y-127635000D01*
X125798567Y-127369185D01*
X125739252Y-127109308D01*
X125693577Y-126992931D01*
X125641869Y-126861180D01*
X125641867Y-126861176D01*
X125508588Y-126630329D01*
X125508586Y-126630326D01*
X125342388Y-126421921D01*
X125146986Y-126240614D01*
X124926744Y-126090455D01*
X124926741Y-126090454D01*
X124926739Y-126090452D01*
X124926738Y-126090451D01*
X124686590Y-125974802D01*
X124686572Y-125974795D01*
X124431873Y-125896231D01*
X124431865Y-125896229D01*
X124431863Y-125896229D01*
X124168280Y-125856500D01*
X123901720Y-125856500D01*
X123638137Y-125896229D01*
X123638135Y-125896229D01*
X123638126Y-125896231D01*
X123383427Y-125974795D01*
X123383414Y-125974800D01*
X123143254Y-126090456D01*
X123143247Y-126090460D01*
X122923020Y-126240609D01*
X122923015Y-126240613D01*
X122727613Y-126421920D01*
X122561411Y-126630329D01*
X122428132Y-126861176D01*
X122428130Y-126861180D01*
X122330746Y-127109312D01*
X122271434Y-127369180D01*
X122271433Y-127369185D01*
X122251513Y-127635000D01*
X101000000Y-127635000D01*
X101000000Y-109477769D01*
X101020002Y-109409648D01*
X101073658Y-109363155D01*
X101113647Y-109352377D01*
X101229758Y-109340941D01*
X101838052Y-109240512D01*
X101838062Y-109240509D01*
X101838066Y-109240509D01*
X102438479Y-109100512D01*
X102585970Y-109055770D01*
X103028456Y-108921544D01*
X103605469Y-108704372D01*
X104167042Y-108449926D01*
X104710772Y-108159296D01*
X105234329Y-107833728D01*
X105735473Y-107474613D01*
X106212056Y-107083492D01*
X106662038Y-106662038D01*
X107083492Y-106212056D01*
X107474613Y-105735473D01*
X107833728Y-105234329D01*
X108159296Y-104710772D01*
X108449926Y-104167042D01*
X108704372Y-103605469D01*
X108921544Y-103028456D01*
X109100513Y-102438475D01*
X109128931Y-102316592D01*
X109240509Y-101838066D01*
X109240509Y-101838062D01*
X109240512Y-101838052D01*
X109340941Y-101229758D01*
X109340942Y-101229748D01*
X109352377Y-101113650D01*
X109378960Y-101047817D01*
X109436914Y-101006808D01*
X109477770Y-101000000D01*
X129943822Y-101000000D01*
X130011943Y-101020002D01*
G37*
%TD.AperFunction*%
%TD*%
%TA.AperFunction,Conductor*%
%TO.N,Net-(J2-Pin_1)*%
G36*
X56011943Y-101020002D02*
G01*
X56058436Y-101073658D01*
X56067625Y-101102575D01*
X56154631Y-101562412D01*
X56290534Y-102069605D01*
X56463950Y-102565200D01*
X56463951Y-102565202D01*
X56463954Y-102565209D01*
X56593666Y-102862513D01*
X56673925Y-103046470D01*
X56673937Y-103046496D01*
X56919278Y-103510699D01*
X56919290Y-103510720D01*
X57198633Y-103955293D01*
X57198645Y-103955310D01*
X57510438Y-104377775D01*
X57510451Y-104377791D01*
X57779012Y-104689864D01*
X57852942Y-104775772D01*
X57852954Y-104775784D01*
X57852965Y-104775796D01*
X58224203Y-105147034D01*
X58224215Y-105147045D01*
X58224228Y-105147058D01*
X58325638Y-105234328D01*
X58622208Y-105489548D01*
X58622224Y-105489561D01*
X59044689Y-105801354D01*
X59044706Y-105801366D01*
X59489279Y-106080709D01*
X59489295Y-106080719D01*
X59660588Y-106171250D01*
X59953503Y-106326062D01*
X59953519Y-106326069D01*
X59953524Y-106326072D01*
X60434791Y-106536046D01*
X60434798Y-106536048D01*
X60434799Y-106536049D01*
X60930394Y-106709465D01*
X60930403Y-106709468D01*
X61437589Y-106845369D01*
X61953513Y-106942987D01*
X62416497Y-106995152D01*
X62475288Y-107001777D01*
X62494920Y-107002511D01*
X63000000Y-107021410D01*
X63524711Y-107001777D01*
X64046487Y-106942987D01*
X64562411Y-106845369D01*
X65069597Y-106709468D01*
X65565209Y-106536046D01*
X66046476Y-106326072D01*
X66046487Y-106326065D01*
X66046496Y-106326062D01*
X66262204Y-106212056D01*
X66510705Y-106080719D01*
X66955301Y-105801361D01*
X67377778Y-105489559D01*
X67775772Y-105147058D01*
X68147058Y-104775772D01*
X68489559Y-104377778D01*
X68801361Y-103955301D01*
X69080719Y-103510705D01*
X69245710Y-103198527D01*
X69326062Y-103046496D01*
X69326065Y-103046487D01*
X69326072Y-103046476D01*
X69536046Y-102565209D01*
X69709468Y-102069597D01*
X69845369Y-101562411D01*
X69908312Y-101229748D01*
X69932375Y-101102575D01*
X69964692Y-101039361D01*
X70026056Y-101003653D01*
X70056178Y-101000000D01*
X90522230Y-101000000D01*
X90590351Y-101020002D01*
X90636844Y-101073658D01*
X90647623Y-101113650D01*
X90659057Y-101229748D01*
X90659060Y-101229764D01*
X90759490Y-101838066D01*
X90899487Y-102438479D01*
X91078452Y-103028444D01*
X91078454Y-103028452D01*
X91295626Y-103605464D01*
X91550071Y-104167037D01*
X91550074Y-104167042D01*
X91840704Y-104710772D01*
X92166272Y-105234329D01*
X92525387Y-105735473D01*
X92916508Y-106212056D01*
X93337962Y-106662038D01*
X93787944Y-107083492D01*
X94264527Y-107474613D01*
X94765671Y-107833728D01*
X95289228Y-108159296D01*
X95832958Y-108449926D01*
X96394531Y-108704372D01*
X96971544Y-108921544D01*
X97204359Y-108992167D01*
X97561520Y-109100512D01*
X98161933Y-109240509D01*
X98161940Y-109240510D01*
X98161948Y-109240512D01*
X98770242Y-109340941D01*
X98886351Y-109352376D01*
X98952182Y-109378958D01*
X98993192Y-109436912D01*
X99000000Y-109477769D01*
X99000000Y-129943822D01*
X98979998Y-130011943D01*
X98926342Y-130058436D01*
X98897425Y-130067625D01*
X98437587Y-130154631D01*
X97930394Y-130290534D01*
X97434799Y-130463950D01*
X97434796Y-130463952D01*
X96953529Y-130673925D01*
X96953503Y-130673937D01*
X96489300Y-130919278D01*
X96489279Y-130919290D01*
X96044706Y-131198633D01*
X96044689Y-131198645D01*
X95622224Y-131510438D01*
X95622208Y-131510451D01*
X95224239Y-131852932D01*
X95224203Y-131852965D01*
X94852965Y-132224203D01*
X94852932Y-132224239D01*
X94510451Y-132622208D01*
X94510438Y-132622224D01*
X94198645Y-133044689D01*
X94198633Y-133044706D01*
X93919290Y-133489279D01*
X93919278Y-133489300D01*
X93673937Y-133953503D01*
X93673925Y-133953529D01*
X93463952Y-134434796D01*
X93463950Y-134434799D01*
X93290534Y-134930394D01*
X93154631Y-135437587D01*
X93057013Y-135953512D01*
X92998222Y-136475288D01*
X92978590Y-137000000D01*
X92998222Y-137524711D01*
X93057013Y-138046487D01*
X93154631Y-138562412D01*
X93290534Y-139069605D01*
X93463950Y-139565200D01*
X93463951Y-139565202D01*
X93463954Y-139565209D01*
X93593666Y-139862513D01*
X93673925Y-140046470D01*
X93673937Y-140046496D01*
X93919278Y-140510699D01*
X93919290Y-140510720D01*
X94198633Y-140955293D01*
X94198645Y-140955310D01*
X94510438Y-141377775D01*
X94510451Y-141377791D01*
X94751400Y-141657778D01*
X94852942Y-141775772D01*
X94852954Y-141775784D01*
X94852965Y-141775796D01*
X95224203Y-142147034D01*
X95224215Y-142147045D01*
X95224228Y-142147058D01*
X95290826Y-142204370D01*
X95622208Y-142489548D01*
X95622224Y-142489561D01*
X96044689Y-142801354D01*
X96044706Y-142801366D01*
X96333475Y-142982811D01*
X96489295Y-143080719D01*
X96605422Y-143142094D01*
X96953503Y-143326062D01*
X96953519Y-143326069D01*
X96953524Y-143326072D01*
X97434791Y-143536046D01*
X97434798Y-143536048D01*
X97434799Y-143536049D01*
X97930394Y-143709465D01*
X97930403Y-143709468D01*
X98437589Y-143845369D01*
X98713953Y-143897659D01*
X98897425Y-143932375D01*
X98960639Y-143964692D01*
X98996347Y-144026056D01*
X99000000Y-144056178D01*
X99000000Y-148874000D01*
X98979998Y-148942121D01*
X98926342Y-148988614D01*
X98874000Y-149000000D01*
X51126000Y-149000000D01*
X51057879Y-148979998D01*
X51011386Y-148926342D01*
X51000000Y-148874000D01*
X51000000Y-127635000D01*
X67006513Y-127635000D01*
X67026433Y-127900815D01*
X67026434Y-127900819D01*
X67085746Y-128160687D01*
X67183130Y-128408819D01*
X67183132Y-128408823D01*
X67316411Y-128639670D01*
X67316416Y-128639678D01*
X67428510Y-128780237D01*
X67455345Y-128845967D01*
X67456000Y-128858797D01*
X67456000Y-133545910D01*
X67465673Y-133600778D01*
X67466391Y-133606227D01*
X67471247Y-133661732D01*
X67485667Y-133715548D01*
X67486857Y-133720914D01*
X67496533Y-133775783D01*
X67515584Y-133828128D01*
X67517237Y-133833370D01*
X67531658Y-133887190D01*
X67531664Y-133887205D01*
X67555203Y-133937685D01*
X67557307Y-133942764D01*
X67576365Y-133995126D01*
X67604227Y-134043384D01*
X67606765Y-134048260D01*
X67630309Y-134098748D01*
X67630311Y-134098750D01*
X67630312Y-134098753D01*
X67645419Y-134120328D01*
X67662262Y-134144382D01*
X67665212Y-134149011D01*
X67693076Y-134197273D01*
X67693077Y-134197274D01*
X67728887Y-134239950D01*
X67732235Y-134244313D01*
X67764194Y-134289956D01*
X67764196Y-134289958D01*
X67784864Y-134310624D01*
X67805532Y-134331293D01*
X67805533Y-134331294D01*
X68197696Y-134723457D01*
X68581995Y-135107756D01*
X68616021Y-135170068D01*
X68618900Y-135196851D01*
X68618900Y-135524942D01*
X68633606Y-135674260D01*
X68633606Y-135674263D01*
X68691732Y-135865877D01*
X68691734Y-135865883D01*
X68786120Y-136042466D01*
X68786122Y-136042469D01*
X68913148Y-136197252D01*
X69067931Y-136324278D01*
X69067933Y-136324279D01*
X69235560Y-136413878D01*
X69286208Y-136463630D01*
X69301918Y-136532867D01*
X69277702Y-136599606D01*
X69235560Y-136636122D01*
X69067933Y-136725720D01*
X68913148Y-136852748D01*
X68786120Y-137007533D01*
X68691734Y-137184116D01*
X68691732Y-137184122D01*
X68633606Y-137375736D01*
X68633606Y-137375739D01*
X68618900Y-137525057D01*
X68618900Y-138326542D01*
X68633606Y-138475860D01*
X68633606Y-138475863D01*
X68691732Y-138667477D01*
X68691734Y-138667483D01*
X68786120Y-138844066D01*
X68786122Y-138844069D01*
X68913148Y-138998852D01*
X69067931Y-139125878D01*
X69084395Y-139134678D01*
X69135043Y-139184428D01*
X69151000Y-139245800D01*
X69151000Y-141899000D01*
X69130998Y-141967121D01*
X69077342Y-142013614D01*
X69025000Y-142025000D01*
X68300864Y-142025000D01*
X68264882Y-142027832D01*
X68264869Y-142027834D01*
X68110802Y-142072595D01*
X67972714Y-142154261D01*
X67972707Y-142154266D01*
X67859266Y-142267707D01*
X67859261Y-142267714D01*
X67777595Y-142405802D01*
X67732834Y-142559869D01*
X67732832Y-142559882D01*
X67730000Y-142595863D01*
X67730000Y-143256000D01*
X68783884Y-143256000D01*
X68755507Y-143300156D01*
X68715000Y-143438111D01*
X68715000Y-143581889D01*
X68755507Y-143719844D01*
X68783884Y-143764000D01*
X67730000Y-143764000D01*
X67730000Y-144424136D01*
X67732832Y-144460117D01*
X67732834Y-144460130D01*
X67777595Y-144614197D01*
X67859261Y-144752285D01*
X67859266Y-144752292D01*
X67972707Y-144865733D01*
X67972714Y-144865738D01*
X68110802Y-144947404D01*
X68264869Y-144992165D01*
X68264882Y-144992167D01*
X68300863Y-144994999D01*
X68300865Y-144995000D01*
X68961000Y-144995000D01*
X68961000Y-143943674D01*
X69072685Y-143994680D01*
X69179237Y-144010000D01*
X69250763Y-144010000D01*
X69357315Y-143994680D01*
X69469000Y-143943674D01*
X69469000Y-144995000D01*
X70129135Y-144995000D01*
X70129136Y-144994999D01*
X70165117Y-144992167D01*
X70165130Y-144992165D01*
X70319195Y-144947404D01*
X70382058Y-144910227D01*
X70450874Y-144892767D01*
X70518205Y-144915283D01*
X70528723Y-144923467D01*
X70529575Y-144924205D01*
X70529580Y-144924210D01*
X70743316Y-145084211D01*
X70977647Y-145212165D01*
X71227803Y-145305468D01*
X71227806Y-145305468D01*
X71227810Y-145305470D01*
X71378788Y-145338313D01*
X71488691Y-145362221D01*
X71755000Y-145381268D01*
X72021309Y-145362221D01*
X72282188Y-145305470D01*
X72282189Y-145305470D01*
X72282190Y-145305469D01*
X72282197Y-145305468D01*
X72532353Y-145212165D01*
X72766684Y-145084211D01*
X72949491Y-144947362D01*
X73016011Y-144922552D01*
X73085385Y-144937643D01*
X73100507Y-144947361D01*
X73283316Y-145084211D01*
X73517647Y-145212165D01*
X73767803Y-145305468D01*
X73767806Y-145305468D01*
X73767810Y-145305470D01*
X73918788Y-145338313D01*
X74028691Y-145362221D01*
X74295000Y-145381268D01*
X74561309Y-145362221D01*
X74822188Y-145305470D01*
X74822189Y-145305470D01*
X74822190Y-145305469D01*
X74822197Y-145305468D01*
X75072353Y-145212165D01*
X75306684Y-145084211D01*
X75520420Y-144924210D01*
X75709210Y-144735420D01*
X75869211Y-144521684D01*
X75997165Y-144287353D01*
X76090468Y-144037197D01*
X76147221Y-143776309D01*
X76166268Y-143510000D01*
X76147221Y-143243691D01*
X76111769Y-143080721D01*
X76090470Y-142982811D01*
X76090470Y-142982810D01*
X76090468Y-142982806D01*
X76090468Y-142982803D01*
X75997165Y-142732647D01*
X75869211Y-142498316D01*
X75709210Y-142284580D01*
X75665905Y-142241274D01*
X75631879Y-142178963D01*
X75629000Y-142152180D01*
X75629000Y-138380608D01*
X75649002Y-138312487D01*
X75683244Y-138277036D01*
X75864950Y-138151152D01*
X76026152Y-137989950D01*
X76155979Y-137802554D01*
X76250260Y-137594989D01*
X76275306Y-137495589D01*
X76311345Y-137434423D01*
X76374734Y-137402449D01*
X76445347Y-137409822D01*
X76500764Y-137454200D01*
X76516458Y-137487893D01*
X76516863Y-137487738D01*
X76519095Y-137493555D01*
X76519190Y-137493757D01*
X76519228Y-137493899D01*
X76603687Y-137659658D01*
X76603688Y-137659661D01*
X76720763Y-137804236D01*
X76865338Y-137921311D01*
X76865341Y-137921312D01*
X77031097Y-138005769D01*
X77210789Y-138053917D01*
X77288061Y-138060000D01*
X77508500Y-138060000D01*
X77508500Y-136779000D01*
X78016500Y-136779000D01*
X78016500Y-138060000D01*
X78236939Y-138060000D01*
X78314210Y-138053917D01*
X78493902Y-138005769D01*
X78659658Y-137921312D01*
X78659661Y-137921311D01*
X78804236Y-137804236D01*
X78921311Y-137659661D01*
X78921312Y-137659658D01*
X79005769Y-137493902D01*
X79053917Y-137314210D01*
X79060000Y-137236938D01*
X79060000Y-136779000D01*
X78016500Y-136779000D01*
X77508500Y-136779000D01*
X77508500Y-134990000D01*
X78016500Y-134990000D01*
X78016500Y-136271000D01*
X79060000Y-136271000D01*
X79060000Y-135813061D01*
X79053917Y-135735789D01*
X79005769Y-135556097D01*
X78921312Y-135390341D01*
X78921311Y-135390338D01*
X78804236Y-135245763D01*
X78659661Y-135128688D01*
X78659658Y-135128687D01*
X78493902Y-135044230D01*
X78314210Y-134996082D01*
X78236939Y-134990000D01*
X78016500Y-134990000D01*
X77508500Y-134990000D01*
X77508500Y-134989999D01*
X77491250Y-134972749D01*
X77481879Y-134969998D01*
X77435386Y-134916342D01*
X77424000Y-134864000D01*
X77424000Y-128858797D01*
X77444002Y-128790676D01*
X77451490Y-128780237D01*
X77563583Y-128639678D01*
X77563583Y-128639676D01*
X77563586Y-128639674D01*
X77696866Y-128408826D01*
X77794252Y-128160692D01*
X77853567Y-127900815D01*
X77873487Y-127635000D01*
X77853567Y-127369185D01*
X77794252Y-127109308D01*
X77748577Y-126992931D01*
X77696869Y-126861180D01*
X77696867Y-126861176D01*
X77563588Y-126630329D01*
X77563586Y-126630326D01*
X77397388Y-126421921D01*
X77201986Y-126240614D01*
X76981744Y-126090455D01*
X76981741Y-126090454D01*
X76981739Y-126090452D01*
X76981738Y-126090451D01*
X76741590Y-125974802D01*
X76741572Y-125974795D01*
X76486873Y-125896231D01*
X76486865Y-125896229D01*
X76486863Y-125896229D01*
X76223280Y-125856500D01*
X75956720Y-125856500D01*
X75693137Y-125896229D01*
X75693135Y-125896229D01*
X75693126Y-125896231D01*
X75438427Y-125974795D01*
X75438414Y-125974800D01*
X75198254Y-126090456D01*
X75198247Y-126090460D01*
X74978020Y-126240609D01*
X74978015Y-126240613D01*
X74782613Y-126421920D01*
X74616411Y-126630329D01*
X74483132Y-126861176D01*
X74483130Y-126861180D01*
X74385746Y-127109312D01*
X74326434Y-127369180D01*
X74326433Y-127369185D01*
X74306513Y-127635000D01*
X74326433Y-127900815D01*
X74326434Y-127900819D01*
X74385746Y-128160687D01*
X74483130Y-128408819D01*
X74483132Y-128408823D01*
X74616411Y-128639670D01*
X74616416Y-128639678D01*
X74728510Y-128780237D01*
X74755345Y-128845967D01*
X74756000Y-128858797D01*
X74756000Y-134467747D01*
X74735998Y-134535868D01*
X74719098Y-134556839D01*
X74704346Y-134571592D01*
X74642035Y-134605620D01*
X74615248Y-134608500D01*
X74159958Y-134608500D01*
X74026075Y-134619037D01*
X74026071Y-134619037D01*
X74026070Y-134619038D01*
X73805014Y-134674739D01*
X73805005Y-134674742D01*
X73597450Y-134769018D01*
X73410048Y-134898849D01*
X73410039Y-134898857D01*
X73248857Y-135060039D01*
X73248849Y-135060048D01*
X73119018Y-135247450D01*
X73024742Y-135455005D01*
X73024739Y-135455014D01*
X72969494Y-135674263D01*
X72969037Y-135676075D01*
X72964373Y-135735325D01*
X72958499Y-135809961D01*
X72958500Y-137240041D01*
X72960806Y-137269343D01*
X72961000Y-137274288D01*
X72961000Y-141829916D01*
X72940998Y-141898037D01*
X72887342Y-141944530D01*
X72817068Y-141954634D01*
X72770919Y-141937422D01*
X72770634Y-141937946D01*
X72766996Y-141935959D01*
X72766887Y-141935919D01*
X72766690Y-141935792D01*
X72532352Y-141807834D01*
X72282189Y-141714529D01*
X72021314Y-141657779D01*
X72021308Y-141657778D01*
X71936011Y-141651678D01*
X71869491Y-141626867D01*
X71826944Y-141570031D01*
X71819000Y-141525999D01*
X71819000Y-139245800D01*
X71839002Y-139177679D01*
X71885604Y-139134678D01*
X71902069Y-139125878D01*
X72056852Y-138998852D01*
X72183878Y-138844069D01*
X72278267Y-138667480D01*
X72336392Y-138475869D01*
X72351100Y-138326534D01*
X72351100Y-137525066D01*
X72339750Y-137409822D01*
X72336393Y-137375739D01*
X72336393Y-137375736D01*
X72336392Y-137375733D01*
X72336392Y-137375731D01*
X72278267Y-137184120D01*
X72183878Y-137007531D01*
X72056852Y-136852748D01*
X71902069Y-136725722D01*
X71902067Y-136725721D01*
X71902066Y-136725720D01*
X71807178Y-136675002D01*
X71734438Y-136636121D01*
X71683791Y-136586370D01*
X71668081Y-136517133D01*
X71692297Y-136450394D01*
X71734438Y-136413878D01*
X71902069Y-136324278D01*
X72056852Y-136197252D01*
X72183878Y-136042469D01*
X72278267Y-135865880D01*
X72336392Y-135674269D01*
X72351100Y-135524934D01*
X72351100Y-134723466D01*
X72336393Y-134574139D01*
X72336393Y-134574136D01*
X72336392Y-134574133D01*
X72336392Y-134574131D01*
X72278267Y-134382520D01*
X72183878Y-134205931D01*
X72056852Y-134051148D01*
X71902069Y-133924122D01*
X71902067Y-133924121D01*
X71902066Y-133924120D01*
X71725483Y-133829734D01*
X71725477Y-133829732D01*
X71692121Y-133819613D01*
X71533869Y-133771608D01*
X71533866Y-133771607D01*
X71533861Y-133771606D01*
X71384542Y-133756900D01*
X71384534Y-133756900D01*
X71056451Y-133756900D01*
X70988330Y-133736898D01*
X70967356Y-133719995D01*
X70160905Y-132913544D01*
X70126879Y-132851232D01*
X70124000Y-132824449D01*
X70124000Y-128858797D01*
X70144002Y-128790676D01*
X70151490Y-128780237D01*
X70263583Y-128639678D01*
X70263583Y-128639676D01*
X70263586Y-128639674D01*
X70396866Y-128408826D01*
X70494252Y-128160692D01*
X70553567Y-127900815D01*
X70573487Y-127635000D01*
X70553567Y-127369185D01*
X70494252Y-127109308D01*
X70448577Y-126992931D01*
X70396869Y-126861180D01*
X70396867Y-126861176D01*
X70263588Y-126630329D01*
X70263586Y-126630326D01*
X70097388Y-126421921D01*
X69901986Y-126240614D01*
X69681744Y-126090455D01*
X69681741Y-126090454D01*
X69681739Y-126090452D01*
X69681738Y-126090451D01*
X69441590Y-125974802D01*
X69441572Y-125974795D01*
X69186873Y-125896231D01*
X69186865Y-125896229D01*
X69186863Y-125896229D01*
X68923280Y-125856500D01*
X68656720Y-125856500D01*
X68393137Y-125896229D01*
X68393135Y-125896229D01*
X68393126Y-125896231D01*
X68138427Y-125974795D01*
X68138414Y-125974800D01*
X67898254Y-126090456D01*
X67898247Y-126090460D01*
X67678020Y-126240609D01*
X67678015Y-126240613D01*
X67482613Y-126421920D01*
X67316411Y-126630329D01*
X67183132Y-126861176D01*
X67183130Y-126861180D01*
X67085746Y-127109312D01*
X67026434Y-127369180D01*
X67026433Y-127369185D01*
X67006513Y-127635000D01*
X51000000Y-127635000D01*
X51000000Y-101126000D01*
X51020002Y-101057879D01*
X51073658Y-101011386D01*
X51126000Y-101000000D01*
X55943822Y-101000000D01*
X56011943Y-101020002D01*
G37*
%TD.AperFunction*%
%TD*%
M02*
