M48
; DRILL file {KiCad 7.0.5-0} date 2023 June 12, Monday 10:57:01
; FORMAT={-:-/ absolute / inch / decimal}
; #@! TF.CreationDate,2023-06-12T10:57:01-04:00
; #@! TF.GenerationSoftware,Kicad,Pcbnew,7.0.5-0
; #@! TF.FileFunction,Plated,1,2,PTH
FMAT,2
INCH
; #@! TA.AperFunction,Plated,PTH,ViaDrill
T1C0.0157
; #@! TA.AperFunction,Plated,PTH,ComponentDrill
T2C0.0394
; #@! TA.AperFunction,Plated,PTH,ComponentDrill
T3C0.2520
; #@! TA.AperFunction,Plated,PTH,ComponentDrill
T4C0.4724
%
G90
G05
T1
X2.775Y-2.625
X2.775Y-5.25
X2.825Y-2.375
X2.825Y-5.5
X2.925Y-2.45
X2.925Y-5.3
X5.0Y-2.65
X5.0Y-5.25
X5.05Y-2.375
X5.05Y-5.475
X5.15Y-2.45
X5.15Y-5.3
T2
X2.725Y-2.225
X2.725Y-5.65
X2.825Y-2.225
X2.825Y-5.65
X2.925Y-2.225
X2.925Y-5.65
X4.5Y-4.475
X4.6Y-4.475
X4.7Y-4.475
X4.9482Y-2.2268
X4.9482Y-5.6518
X5.0482Y-2.2268
X5.0482Y-5.6518
X5.1482Y-2.2268
X5.1482Y-5.6518
T3
X2.4803Y-3.937
X3.937Y-2.4803
X3.937Y-5.3937
X5.3937Y-3.937
T4
X3.937Y-3.937
T0
M30
