%TF.GenerationSoftware,KiCad,Pcbnew,7.0.5-0*%
%TF.CreationDate,2023-07-05T09:28:37-04:00*%
%TF.ProjectId,quad_sipm,71756164-5f73-4697-906d-2e6b69636164,rev?*%
%TF.SameCoordinates,Original*%
%TF.FileFunction,Copper,L2,Bot*%
%TF.FilePolarity,Positive*%
%FSLAX46Y46*%
G04 Gerber Fmt 4.6, Leading zero omitted, Abs format (unit mm)*
G04 Created by KiCad (PCBNEW 7.0.5-0) date 2023-07-05 09:28:37*
%MOMM*%
%LPD*%
G01*
G04 APERTURE LIST*
G04 Aperture macros list*
%AMRoundRect*
0 Rectangle with rounded corners*
0 $1 Rounding radius*
0 $2 $3 $4 $5 $6 $7 $8 $9 X,Y pos of 4 corners*
0 Add a 4 corners polygon primitive as box body*
4,1,4,$2,$3,$4,$5,$6,$7,$8,$9,$2,$3,0*
0 Add four circle primitives for the rounded corners*
1,1,$1+$1,$2,$3*
1,1,$1+$1,$4,$5*
1,1,$1+$1,$6,$7*
1,1,$1+$1,$8,$9*
0 Add four rect primitives between the rounded corners*
20,1,$1+$1,$2,$3,$4,$5,0*
20,1,$1+$1,$4,$5,$6,$7,0*
20,1,$1+$1,$6,$7,$8,$9,0*
20,1,$1+$1,$8,$9,$2,$3,0*%
G04 Aperture macros list end*
%TA.AperFunction,ComponentPad*%
%ADD10C,1.000000*%
%TD*%
%TA.AperFunction,ComponentPad*%
%ADD11C,16.800000*%
%TD*%
%TA.AperFunction,ComponentPad*%
%ADD12C,12.000000*%
%TD*%
%TA.AperFunction,ComponentPad*%
%ADD13R,1.700000X1.700000*%
%TD*%
%TA.AperFunction,ComponentPad*%
%ADD14O,1.700000X1.700000*%
%TD*%
%TA.AperFunction,SMDPad,CuDef*%
%ADD15RoundRect,0.250000X0.412500X0.650000X-0.412500X0.650000X-0.412500X-0.650000X0.412500X-0.650000X0*%
%TD*%
%TA.AperFunction,SMDPad,CuDef*%
%ADD16RoundRect,0.250000X-0.412500X-0.650000X0.412500X-0.650000X0.412500X0.650000X-0.412500X0.650000X0*%
%TD*%
%TA.AperFunction,SMDPad,CuDef*%
%ADD17R,1.699200X0.701600*%
%TD*%
%TA.AperFunction,Conductor*%
%ADD18C,0.635000*%
%TD*%
G04 APERTURE END LIST*
D10*
%TO.P,D4,1,K*%
%TO.N,Net-(D4-K)*%
X74540000Y-66140000D03*
%TO.P,D4,2,A*%
%TO.N,Net-(D4-A)*%
X70240000Y-66140000D03*
%TD*%
%TO.P,D3,1,K*%
%TO.N,Net-(D3-K)*%
X129785000Y-66140000D03*
%TO.P,D3,2,A*%
%TO.N,Net-(D3-A)*%
X125485000Y-66140000D03*
%TD*%
%TO.P,D2,1,K*%
%TO.N,Net-(D2-K)*%
X70240000Y-133885000D03*
%TO.P,D2,2,A*%
%TO.N,Net-(D2-A)*%
X74540000Y-133885000D03*
%TD*%
%TO.P,D1,1,K*%
%TO.N,Net-(D1-K)*%
X125485000Y-133885000D03*
%TO.P,D1,2,A*%
%TO.N,Net-(D1-A)*%
X129785000Y-133885000D03*
%TD*%
D11*
%TO.P,H2,1*%
%TO.N,N/C*%
X100000000Y-100000000D03*
%TD*%
D12*
%TO.P,H3,1*%
%TO.N,N/C*%
X100000000Y-137000000D03*
%TD*%
%TO.P,H4,1*%
%TO.N,N/C*%
X137000000Y-100000000D03*
%TD*%
%TO.P,H5,1*%
%TO.N,N/C*%
X63000000Y-100000000D03*
%TD*%
%TO.P,H1,1*%
%TO.N,N/C*%
X100000000Y-63000000D03*
%TD*%
D13*
%TO.P,J1,1,Pin_1*%
%TO.N,Net-(J1-Pin_1)*%
X130855000Y-143465000D03*
D14*
%TO.P,J1,2,Pin_2*%
%TO.N,Net-(J1-Pin_2)*%
X128315000Y-143465000D03*
%TO.P,J1,3,Pin_3*%
%TO.N,Net-(D1-K)*%
X125775000Y-143465000D03*
%TD*%
D15*
%TO.P,C4,1*%
%TO.N,Net-(J4-Pin_1)*%
X77762500Y-62865000D03*
%TO.P,C4,2*%
%TO.N,Net-(D4-K)*%
X74637500Y-62865000D03*
%TD*%
D13*
%TO.P,J3,1,Pin_1*%
%TO.N,Net-(J3-Pin_1)*%
X123825000Y-56515000D03*
D14*
%TO.P,J3,2,Pin_2*%
%TO.N,Net-(J3-Pin_2)*%
X126365000Y-56515000D03*
%TO.P,J3,3,Pin_3*%
%TO.N,Net-(D3-K)*%
X128905000Y-56515000D03*
%TD*%
D13*
%TO.P,J4,1,Pin_1*%
%TO.N,Net-(J4-Pin_1)*%
X69215000Y-56515000D03*
D14*
%TO.P,J4,2,Pin_2*%
%TO.N,Net-(J4-Pin_2)*%
X71755000Y-56515000D03*
%TO.P,J4,3,Pin_3*%
%TO.N,Net-(D4-K)*%
X74295000Y-56515000D03*
%TD*%
D15*
%TO.P,C3,1*%
%TO.N,Net-(J3-Pin_1)*%
X133007500Y-62230000D03*
%TO.P,C3,2*%
%TO.N,Net-(D3-K)*%
X129882500Y-62230000D03*
%TD*%
D13*
%TO.P,J2,1,Pin_1*%
%TO.N,Net-(J2-Pin_1)*%
X74385000Y-143420000D03*
D14*
%TO.P,J2,2,Pin_2*%
%TO.N,Net-(J2-Pin_2)*%
X71845000Y-143420000D03*
%TO.P,J2,3,Pin_3*%
%TO.N,Net-(D2-K)*%
X69305000Y-143420000D03*
%TD*%
D16*
%TO.P,C1,1*%
%TO.N,Net-(J1-Pin_1)*%
X122351000Y-138176000D03*
%TO.P,C1,2*%
%TO.N,Net-(D1-K)*%
X125476000Y-138176000D03*
%TD*%
%TO.P,C2,1*%
%TO.N,Net-(J2-Pin_1)*%
X66979000Y-137668000D03*
%TO.P,C2,2*%
%TO.N,Net-(D2-K)*%
X70104000Y-137668000D03*
%TD*%
D17*
%TO.P,R3,1*%
%TO.N,Net-(J3-Pin_2)*%
X125095000Y-60829200D03*
%TO.P,R3,2*%
%TO.N,Net-(D3-A)*%
X125095000Y-63630800D03*
%TD*%
%TO.P,R4,1*%
%TO.N,Net-(D4-A)*%
X70485000Y-62995800D03*
%TO.P,R4,2*%
%TO.N,Net-(J4-Pin_2)*%
X70485000Y-60194200D03*
%TD*%
%TO.P,R2,1*%
%TO.N,Net-(D2-A)*%
X74676000Y-136652000D03*
%TO.P,R2,2*%
%TO.N,Net-(J2-Pin_2)*%
X74676000Y-139453600D03*
%TD*%
%TO.P,R1,1*%
%TO.N,Net-(D1-A)*%
X130048000Y-136390400D03*
%TO.P,R1,2*%
%TO.N,Net-(J1-Pin_2)*%
X130048000Y-139192000D03*
%TD*%
D18*
%TO.N,Net-(J1-Pin_2)*%
X130048000Y-139192000D02*
X130048000Y-141732000D01*
X130048000Y-141732000D02*
X128315000Y-143465000D01*
%TO.N,Net-(D1-A)*%
X129785000Y-133885000D02*
X129785000Y-136127400D01*
X129785000Y-136127400D02*
X130048000Y-136390400D01*
%TO.N,Net-(D1-K)*%
X125476000Y-138176000D02*
X125476000Y-143166000D01*
X125476000Y-143166000D02*
X125775000Y-143465000D01*
X125485000Y-133885000D02*
X125485000Y-138167000D01*
X125485000Y-138167000D02*
X125476000Y-138176000D01*
%TO.N,Net-(J2-Pin_2)*%
X74676000Y-139453600D02*
X74676000Y-140589000D01*
X74676000Y-140589000D02*
X71845000Y-143420000D01*
%TO.N,Net-(D2-A)*%
X74540000Y-133885000D02*
X74540000Y-136516000D01*
X74540000Y-136516000D02*
X74676000Y-136652000D01*
%TO.N,Net-(D2-K)*%
X70104000Y-137668000D02*
X70104000Y-142621000D01*
X70104000Y-142621000D02*
X69305000Y-143420000D01*
X70240000Y-133885000D02*
X70240000Y-137532000D01*
X70240000Y-137532000D02*
X70104000Y-137668000D01*
%TO.N,Net-(J3-Pin_2)*%
X126365000Y-56515000D02*
X126365000Y-59559200D01*
X126365000Y-59559200D02*
X125095000Y-60829200D01*
%TO.N,Net-(D3-A)*%
X125485000Y-66140000D02*
X125485000Y-64020800D01*
X125485000Y-64020800D02*
X125095000Y-63630800D01*
%TO.N,Net-(D3-K)*%
X128905000Y-56515000D02*
X128905000Y-61252500D01*
X128905000Y-61252500D02*
X129882500Y-62230000D01*
X129785000Y-66140000D02*
X129785000Y-62327500D01*
X129785000Y-62327500D02*
X129882500Y-62230000D01*
%TO.N,Net-(D4-K)*%
X74637500Y-62865000D02*
X74637500Y-66042500D01*
X74637500Y-66042500D02*
X74540000Y-66140000D01*
X74295000Y-56515000D02*
X74295000Y-62522500D01*
X74295000Y-62522500D02*
X74637500Y-62865000D01*
%TO.N,Net-(D4-A)*%
X70485000Y-62995800D02*
X70485000Y-65895000D01*
X70485000Y-65895000D02*
X70240000Y-66140000D01*
%TO.N,Net-(J4-Pin_2)*%
X71755000Y-56515000D02*
X71755000Y-58924200D01*
X71755000Y-58924200D02*
X70485000Y-60194200D01*
%TO.N,Net-(J2-Pin_1)*%
X74637500Y-143167500D02*
X74295000Y-143510000D01*
%TD*%
%TA.AperFunction,Conductor*%
%TO.N,Net-(J3-Pin_1)*%
G36*
X148942121Y-51020002D02*
G01*
X148988614Y-51073658D01*
X149000000Y-51126000D01*
X149000000Y-98874000D01*
X148979998Y-98942121D01*
X148926342Y-98988614D01*
X148874000Y-99000000D01*
X144056178Y-99000000D01*
X143988057Y-98979998D01*
X143941564Y-98926342D01*
X143932375Y-98897425D01*
X143897659Y-98713953D01*
X143845369Y-98437589D01*
X143709468Y-97930403D01*
X143580392Y-97561525D01*
X143536049Y-97434799D01*
X143536048Y-97434798D01*
X143536046Y-97434791D01*
X143326072Y-96953524D01*
X143326069Y-96953519D01*
X143326062Y-96953503D01*
X143171250Y-96660588D01*
X143080719Y-96489295D01*
X143080709Y-96489279D01*
X142801366Y-96044706D01*
X142801354Y-96044689D01*
X142489561Y-95622224D01*
X142489548Y-95622208D01*
X142147067Y-95224239D01*
X142147058Y-95224228D01*
X142147045Y-95224215D01*
X142147034Y-95224203D01*
X141775796Y-94852965D01*
X141775784Y-94852954D01*
X141775772Y-94852942D01*
X141674361Y-94765671D01*
X141377791Y-94510451D01*
X141377775Y-94510438D01*
X140955310Y-94198645D01*
X140955293Y-94198633D01*
X140510720Y-93919290D01*
X140510712Y-93919285D01*
X140510705Y-93919281D01*
X140465089Y-93895172D01*
X140046496Y-93673937D01*
X140046470Y-93673925D01*
X139862513Y-93593666D01*
X139565209Y-93463954D01*
X139565202Y-93463951D01*
X139565200Y-93463950D01*
X139069605Y-93290534D01*
X138562412Y-93154631D01*
X138046487Y-93057013D01*
X137524711Y-92998222D01*
X137000000Y-92978590D01*
X136475288Y-92998222D01*
X135953512Y-93057013D01*
X135437587Y-93154631D01*
X134930394Y-93290534D01*
X134434799Y-93463950D01*
X134434796Y-93463952D01*
X133953529Y-93673925D01*
X133953503Y-93673937D01*
X133489300Y-93919278D01*
X133489279Y-93919290D01*
X133044706Y-94198633D01*
X133044689Y-94198645D01*
X132622224Y-94510438D01*
X132622208Y-94510451D01*
X132224239Y-94852932D01*
X132224203Y-94852965D01*
X131852965Y-95224203D01*
X131852932Y-95224239D01*
X131510451Y-95622208D01*
X131510438Y-95622224D01*
X131198645Y-96044689D01*
X131198633Y-96044706D01*
X130919290Y-96489279D01*
X130919278Y-96489300D01*
X130673937Y-96953503D01*
X130673925Y-96953529D01*
X130463952Y-97434796D01*
X130463950Y-97434799D01*
X130290534Y-97930394D01*
X130154631Y-98437587D01*
X130067625Y-98897425D01*
X130035308Y-98960639D01*
X129973944Y-98996347D01*
X129943822Y-99000000D01*
X109477770Y-99000000D01*
X109409649Y-98979998D01*
X109363156Y-98926342D01*
X109352377Y-98886350D01*
X109340942Y-98770251D01*
X109340941Y-98770249D01*
X109340941Y-98770242D01*
X109240512Y-98161948D01*
X109186523Y-97930403D01*
X109100512Y-97561520D01*
X108921547Y-96971555D01*
X108921545Y-96971547D01*
X108740040Y-96489300D01*
X108704372Y-96394531D01*
X108449926Y-95832958D01*
X108159296Y-95289228D01*
X107833728Y-94765671D01*
X107474613Y-94264527D01*
X107083492Y-93787944D01*
X106662038Y-93337962D01*
X106212056Y-92916508D01*
X105735473Y-92525387D01*
X105234329Y-92166272D01*
X104710772Y-91840704D01*
X104710771Y-91840703D01*
X104167054Y-91550080D01*
X104167037Y-91550071D01*
X103754548Y-91363174D01*
X103605469Y-91295628D01*
X103605464Y-91295626D01*
X103028452Y-91078454D01*
X103028444Y-91078452D01*
X102438479Y-90899487D01*
X101838066Y-90759490D01*
X101229760Y-90659059D01*
X101113649Y-90647622D01*
X101047817Y-90621039D01*
X101006807Y-90563084D01*
X101000000Y-90522229D01*
X101000000Y-70056178D01*
X101020002Y-69988057D01*
X101073658Y-69941564D01*
X101102575Y-69932375D01*
X101257671Y-69903028D01*
X101562411Y-69845369D01*
X102069597Y-69709468D01*
X102565209Y-69536046D01*
X103046476Y-69326072D01*
X103046487Y-69326065D01*
X103046496Y-69326062D01*
X103198527Y-69245710D01*
X103510705Y-69080719D01*
X103955301Y-68801361D01*
X104377778Y-68489559D01*
X104775772Y-68147058D01*
X105147058Y-67775772D01*
X105489559Y-67377778D01*
X105801361Y-66955301D01*
X106080719Y-66510705D01*
X106276643Y-66140000D01*
X106326062Y-66046496D01*
X106326065Y-66046487D01*
X106326072Y-66046476D01*
X106536046Y-65565209D01*
X106709468Y-65069597D01*
X106845369Y-64562411D01*
X106942987Y-64046487D01*
X107001777Y-63524711D01*
X107021410Y-63000000D01*
X107001777Y-62475289D01*
X106942987Y-61953513D01*
X106845369Y-61437589D01*
X106709468Y-60930403D01*
X106549772Y-60474018D01*
X106536049Y-60434799D01*
X106536048Y-60434798D01*
X106536046Y-60434791D01*
X106326072Y-59953524D01*
X106326069Y-59953519D01*
X106326062Y-59953503D01*
X106104734Y-59534734D01*
X106080719Y-59489295D01*
X106040317Y-59424995D01*
X105801366Y-59044706D01*
X105801354Y-59044689D01*
X105489561Y-58622224D01*
X105489548Y-58622208D01*
X105147067Y-58224239D01*
X105147058Y-58224228D01*
X105147045Y-58224215D01*
X105147034Y-58224203D01*
X104775796Y-57852965D01*
X104775784Y-57852954D01*
X104775772Y-57852942D01*
X104645017Y-57740418D01*
X104377791Y-57510451D01*
X104377775Y-57510438D01*
X104267615Y-57429136D01*
X122340000Y-57429136D01*
X122342832Y-57465117D01*
X122342834Y-57465130D01*
X122387595Y-57619197D01*
X122469261Y-57757285D01*
X122469266Y-57757292D01*
X122582707Y-57870733D01*
X122582714Y-57870738D01*
X122720802Y-57952404D01*
X122874869Y-57997165D01*
X122874882Y-57997167D01*
X122910863Y-57999999D01*
X122910865Y-58000000D01*
X123571000Y-58000000D01*
X123571000Y-56948674D01*
X123682685Y-56999680D01*
X123789237Y-57015000D01*
X123860763Y-57015000D01*
X123967315Y-56999680D01*
X124078999Y-56948674D01*
X124079000Y-58000000D01*
X124739135Y-58000000D01*
X124739136Y-57999999D01*
X124775117Y-57997167D01*
X124775127Y-57997165D01*
X124869846Y-57969647D01*
X124940843Y-57969850D01*
X125000459Y-58008403D01*
X125029768Y-58073068D01*
X125031000Y-58090644D01*
X125031000Y-58954447D01*
X125010998Y-59022568D01*
X124994096Y-59043542D01*
X124612644Y-59424995D01*
X124550331Y-59459020D01*
X124523548Y-59461900D01*
X124195457Y-59461900D01*
X124046139Y-59476606D01*
X124046136Y-59476606D01*
X123854522Y-59534732D01*
X123854516Y-59534734D01*
X123677933Y-59629120D01*
X123523148Y-59756148D01*
X123396120Y-59910933D01*
X123301734Y-60087516D01*
X123301732Y-60087522D01*
X123243606Y-60279136D01*
X123243606Y-60279139D01*
X123228900Y-60428457D01*
X123228900Y-61229942D01*
X123243606Y-61379260D01*
X123243606Y-61379263D01*
X123301732Y-61570877D01*
X123301734Y-61570883D01*
X123376364Y-61710505D01*
X123396122Y-61747469D01*
X123523148Y-61902252D01*
X123677931Y-62029278D01*
X123677933Y-62029279D01*
X123845560Y-62118878D01*
X123896208Y-62168630D01*
X123911918Y-62237867D01*
X123887702Y-62304606D01*
X123845560Y-62341122D01*
X123677933Y-62430720D01*
X123523148Y-62557748D01*
X123396120Y-62712533D01*
X123301734Y-62889116D01*
X123301732Y-62889122D01*
X123243606Y-63080736D01*
X123243606Y-63080739D01*
X123228900Y-63230057D01*
X123228900Y-64031542D01*
X123243606Y-64180860D01*
X123243606Y-64180863D01*
X123301732Y-64372477D01*
X123301734Y-64372483D01*
X123396120Y-64549066D01*
X123396122Y-64549069D01*
X123523148Y-64703852D01*
X123677931Y-64830878D01*
X123854520Y-64925267D01*
X124046131Y-64983392D01*
X124046144Y-64983393D01*
X124049583Y-64984078D01*
X124051221Y-64984935D01*
X124052055Y-64985188D01*
X124052007Y-64985346D01*
X124112492Y-65016987D01*
X124147623Y-65078682D01*
X124151000Y-65107657D01*
X124151000Y-65378955D01*
X124132436Y-65444785D01*
X124129611Y-65449394D01*
X124081643Y-65565200D01*
X124038263Y-65669927D01*
X123982539Y-65902034D01*
X123963811Y-66140000D01*
X123982539Y-66377966D01*
X124038263Y-66610073D01*
X124129611Y-66830605D01*
X124206024Y-66955301D01*
X124254333Y-67034133D01*
X124254334Y-67034135D01*
X124409356Y-67215643D01*
X124590864Y-67370665D01*
X124590868Y-67370668D01*
X124794395Y-67495389D01*
X125014927Y-67586737D01*
X125247034Y-67642461D01*
X125485000Y-67661189D01*
X125722966Y-67642461D01*
X125955073Y-67586737D01*
X126175605Y-67495389D01*
X126379132Y-67370668D01*
X126560643Y-67215643D01*
X126715668Y-67034132D01*
X126840389Y-66830605D01*
X126931737Y-66610073D01*
X126987461Y-66377966D01*
X127006189Y-66140000D01*
X126987461Y-65902034D01*
X126931737Y-65669927D01*
X126840389Y-65449395D01*
X126837563Y-65444784D01*
X126819000Y-65378955D01*
X126819000Y-64533630D01*
X126833878Y-64474234D01*
X126888267Y-64372480D01*
X126946392Y-64180869D01*
X126961100Y-64031534D01*
X126961100Y-63230066D01*
X126949750Y-63114822D01*
X126946393Y-63080739D01*
X126946393Y-63080736D01*
X126946392Y-63080733D01*
X126946392Y-63080731D01*
X126888267Y-62889120D01*
X126793878Y-62712531D01*
X126666852Y-62557748D01*
X126512069Y-62430722D01*
X126512067Y-62430721D01*
X126512066Y-62430720D01*
X126417178Y-62380002D01*
X126344438Y-62341121D01*
X126293791Y-62291370D01*
X126278081Y-62222133D01*
X126302297Y-62155394D01*
X126344438Y-62118878D01*
X126512069Y-62029278D01*
X126666852Y-61902252D01*
X126793878Y-61747469D01*
X126888267Y-61570880D01*
X126946392Y-61379269D01*
X126961100Y-61229934D01*
X126961100Y-60901850D01*
X126981102Y-60833730D01*
X126998005Y-60812756D01*
X127355904Y-60454857D01*
X127418216Y-60420831D01*
X127489031Y-60425896D01*
X127545867Y-60468443D01*
X127570678Y-60534963D01*
X127570999Y-60543952D01*
X127570999Y-61160849D01*
X127571000Y-61160854D01*
X127571000Y-61369210D01*
X127580673Y-61424078D01*
X127581391Y-61429527D01*
X127586247Y-61485032D01*
X127600667Y-61538848D01*
X127601857Y-61544214D01*
X127611533Y-61599083D01*
X127630584Y-61651428D01*
X127632237Y-61656670D01*
X127646658Y-61710490D01*
X127646664Y-61710505D01*
X127670203Y-61760985D01*
X127672307Y-61766064D01*
X127691365Y-61818426D01*
X127719227Y-61866684D01*
X127721765Y-61871560D01*
X127745309Y-61922048D01*
X127745311Y-61922050D01*
X127745312Y-61922053D01*
X127760419Y-61943628D01*
X127777262Y-61967682D01*
X127780212Y-61972311D01*
X127808076Y-62020573D01*
X127808077Y-62020574D01*
X127843887Y-62063250D01*
X127847235Y-62067613D01*
X127879194Y-62113256D01*
X127879196Y-62113258D01*
X127920531Y-62154592D01*
X127920533Y-62154595D01*
X128166594Y-62400656D01*
X128200620Y-62462968D01*
X128203499Y-62489751D01*
X128203499Y-62945038D01*
X128207825Y-62999999D01*
X128214037Y-63078925D01*
X128214037Y-63078928D01*
X128214038Y-63078929D01*
X128269739Y-63299985D01*
X128269742Y-63299994D01*
X128364019Y-63507551D01*
X128364020Y-63507553D01*
X128364021Y-63507554D01*
X128428572Y-63600728D01*
X128450924Y-63668114D01*
X128451000Y-63672483D01*
X128451000Y-65378955D01*
X128432436Y-65444785D01*
X128429611Y-65449394D01*
X128381643Y-65565200D01*
X128338263Y-65669927D01*
X128282539Y-65902034D01*
X128263811Y-66140000D01*
X128282539Y-66377966D01*
X128338263Y-66610073D01*
X128429611Y-66830605D01*
X128506024Y-66955301D01*
X128554333Y-67034133D01*
X128554334Y-67034135D01*
X128709356Y-67215643D01*
X128890864Y-67370665D01*
X128890868Y-67370668D01*
X129094395Y-67495389D01*
X129314927Y-67586737D01*
X129547034Y-67642461D01*
X129785000Y-67661189D01*
X130022966Y-67642461D01*
X130255073Y-67586737D01*
X130475605Y-67495389D01*
X130679132Y-67370668D01*
X130860643Y-67215643D01*
X131015668Y-67034132D01*
X131140389Y-66830605D01*
X131231737Y-66610073D01*
X131287461Y-66377966D01*
X131306189Y-66140000D01*
X131287461Y-65902034D01*
X131231737Y-65669927D01*
X131140389Y-65449395D01*
X131137569Y-65444794D01*
X131118999Y-65378955D01*
X131118999Y-63899293D01*
X131139001Y-63831172D01*
X131155904Y-63810197D01*
X131271152Y-63694950D01*
X131400979Y-63507554D01*
X131495260Y-63299989D01*
X131520306Y-63200589D01*
X131556345Y-63139423D01*
X131619734Y-63107449D01*
X131690347Y-63114822D01*
X131745764Y-63159200D01*
X131761458Y-63192893D01*
X131761863Y-63192738D01*
X131764095Y-63198555D01*
X131764190Y-63198757D01*
X131764228Y-63198899D01*
X131848687Y-63364658D01*
X131848688Y-63364661D01*
X131965763Y-63509236D01*
X132110338Y-63626311D01*
X132110341Y-63626312D01*
X132276097Y-63710769D01*
X132455789Y-63758917D01*
X132533061Y-63765000D01*
X132753500Y-63765000D01*
X132753500Y-62484000D01*
X133261500Y-62484000D01*
X133261500Y-63765000D01*
X133481939Y-63765000D01*
X133559210Y-63758917D01*
X133738902Y-63710769D01*
X133904658Y-63626312D01*
X133904661Y-63626311D01*
X134049236Y-63509236D01*
X134166311Y-63364661D01*
X134166312Y-63364658D01*
X134250769Y-63198902D01*
X134298917Y-63019210D01*
X134305000Y-62941938D01*
X134305000Y-62484000D01*
X133261500Y-62484000D01*
X132753500Y-62484000D01*
X132753500Y-60695000D01*
X133261500Y-60695000D01*
X133261500Y-61976000D01*
X134305000Y-61976000D01*
X134305000Y-61518061D01*
X134298917Y-61440789D01*
X134250769Y-61261097D01*
X134166312Y-61095341D01*
X134166311Y-61095338D01*
X134049236Y-60950763D01*
X133904661Y-60833688D01*
X133904658Y-60833687D01*
X133738902Y-60749230D01*
X133559210Y-60701082D01*
X133481939Y-60695000D01*
X133261500Y-60695000D01*
X132753500Y-60695000D01*
X132533061Y-60695000D01*
X132455789Y-60701082D01*
X132276097Y-60749230D01*
X132110341Y-60833687D01*
X132110338Y-60833688D01*
X131965763Y-60950763D01*
X131848688Y-61095338D01*
X131848687Y-61095341D01*
X131764228Y-61261100D01*
X131764189Y-61261247D01*
X131764142Y-61261322D01*
X131761863Y-61267262D01*
X131760776Y-61266844D01*
X131727230Y-61321865D01*
X131663366Y-61352879D01*
X131592872Y-61344442D01*
X131538131Y-61299232D01*
X131520305Y-61259407D01*
X131495261Y-61160016D01*
X131495260Y-61160011D01*
X131400979Y-60952446D01*
X131271152Y-60765050D01*
X131271150Y-60765048D01*
X131271142Y-60765039D01*
X131109960Y-60603857D01*
X131109951Y-60603849D01*
X131010519Y-60534963D01*
X130922554Y-60474021D01*
X130922552Y-60474020D01*
X130922549Y-60474018D01*
X130714994Y-60379742D01*
X130714991Y-60379741D01*
X130714989Y-60379740D01*
X130493925Y-60324037D01*
X130360042Y-60313500D01*
X130360039Y-60313500D01*
X130357574Y-60313306D01*
X130357622Y-60312684D01*
X130292758Y-60290831D01*
X130248414Y-60235387D01*
X130239000Y-60187602D01*
X130239000Y-57872819D01*
X130259002Y-57804699D01*
X130275906Y-57783724D01*
X130291086Y-57768542D01*
X130319210Y-57740420D01*
X130479211Y-57526684D01*
X130607165Y-57292353D01*
X130700468Y-57042197D01*
X130757221Y-56781309D01*
X130776268Y-56515000D01*
X130757221Y-56248691D01*
X130709717Y-56030320D01*
X130700470Y-55987811D01*
X130700470Y-55987810D01*
X130700468Y-55987806D01*
X130700468Y-55987803D01*
X130607165Y-55737647D01*
X130479211Y-55503316D01*
X130319210Y-55289580D01*
X130130420Y-55100790D01*
X130130417Y-55100788D01*
X130130414Y-55100785D01*
X130035856Y-55030000D01*
X129916684Y-54940789D01*
X129788729Y-54870920D01*
X129682352Y-54812834D01*
X129432189Y-54719529D01*
X129171311Y-54662779D01*
X129171313Y-54662779D01*
X128958261Y-54647541D01*
X128905000Y-54643732D01*
X128904999Y-54643732D01*
X128638687Y-54662779D01*
X128377811Y-54719529D01*
X128377810Y-54719529D01*
X128127647Y-54812834D01*
X127893317Y-54940788D01*
X127710507Y-55077637D01*
X127643987Y-55102447D01*
X127574613Y-55087355D01*
X127559490Y-55077636D01*
X127546327Y-55067782D01*
X127376684Y-54940789D01*
X127248728Y-54870920D01*
X127142352Y-54812834D01*
X126892189Y-54719529D01*
X126631311Y-54662779D01*
X126631313Y-54662779D01*
X126365000Y-54643732D01*
X126098687Y-54662779D01*
X125837811Y-54719529D01*
X125837810Y-54719529D01*
X125587647Y-54812834D01*
X125353316Y-54940789D01*
X125139580Y-55100790D01*
X125138700Y-55101553D01*
X125138345Y-55101715D01*
X125135978Y-55103487D01*
X125135592Y-55102971D01*
X125074116Y-55131039D01*
X125003843Y-55120927D01*
X124992059Y-55114772D01*
X124929197Y-55077595D01*
X124775130Y-55032834D01*
X124775117Y-55032832D01*
X124739136Y-55030000D01*
X124079000Y-55030000D01*
X124078999Y-56081325D01*
X123967315Y-56030320D01*
X123860763Y-56015000D01*
X123789237Y-56015000D01*
X123682685Y-56030320D01*
X123571000Y-56081325D01*
X123571000Y-55030000D01*
X122910864Y-55030000D01*
X122874882Y-55032832D01*
X122874869Y-55032834D01*
X122720802Y-55077595D01*
X122582714Y-55159261D01*
X122582707Y-55159266D01*
X122469266Y-55272707D01*
X122469261Y-55272714D01*
X122387595Y-55410802D01*
X122342834Y-55564869D01*
X122342832Y-55564882D01*
X122340000Y-55600863D01*
X122340000Y-56261000D01*
X123393884Y-56261000D01*
X123365507Y-56305156D01*
X123325000Y-56443111D01*
X123325000Y-56586889D01*
X123365507Y-56724844D01*
X123393884Y-56769000D01*
X122340000Y-56769000D01*
X122340000Y-57429136D01*
X104267615Y-57429136D01*
X103955310Y-57198645D01*
X103955293Y-57198633D01*
X103510720Y-56919290D01*
X103510712Y-56919285D01*
X103510705Y-56919281D01*
X103465089Y-56895172D01*
X103046496Y-56673937D01*
X103046470Y-56673925D01*
X102846980Y-56586889D01*
X102565209Y-56463954D01*
X102565202Y-56463951D01*
X102565200Y-56463950D01*
X102069605Y-56290534D01*
X101562412Y-56154631D01*
X101102575Y-56067625D01*
X101039361Y-56035308D01*
X101003653Y-55973944D01*
X101000000Y-55943822D01*
X101000000Y-51126000D01*
X101020002Y-51057879D01*
X101073658Y-51011386D01*
X101126000Y-51000000D01*
X148874000Y-51000000D01*
X148942121Y-51020002D01*
G37*
%TD.AperFunction*%
%TD*%
%TA.AperFunction,Conductor*%
%TO.N,Net-(J4-Pin_1)*%
G36*
X98942121Y-51020002D02*
G01*
X98988614Y-51073658D01*
X99000000Y-51126000D01*
X99000000Y-55943822D01*
X98979998Y-56011943D01*
X98926342Y-56058436D01*
X98897425Y-56067625D01*
X98437587Y-56154631D01*
X97930394Y-56290534D01*
X97434799Y-56463950D01*
X97434796Y-56463952D01*
X96953529Y-56673925D01*
X96953503Y-56673937D01*
X96489300Y-56919278D01*
X96489279Y-56919290D01*
X96044706Y-57198633D01*
X96044689Y-57198645D01*
X95622224Y-57510438D01*
X95622208Y-57510451D01*
X95224239Y-57852932D01*
X95224203Y-57852965D01*
X94852965Y-58224203D01*
X94852932Y-58224239D01*
X94510451Y-58622208D01*
X94510438Y-58622224D01*
X94198645Y-59044689D01*
X94198633Y-59044706D01*
X93919290Y-59489279D01*
X93919278Y-59489300D01*
X93673937Y-59953503D01*
X93673925Y-59953529D01*
X93463952Y-60434796D01*
X93463950Y-60434799D01*
X93290534Y-60930394D01*
X93154631Y-61437587D01*
X93057013Y-61953512D01*
X92998222Y-62475288D01*
X92978590Y-62999999D01*
X92998222Y-63524711D01*
X93057013Y-64046487D01*
X93154631Y-64562412D01*
X93290534Y-65069605D01*
X93463950Y-65565200D01*
X93463951Y-65565202D01*
X93463954Y-65565209D01*
X93509642Y-65669927D01*
X93673925Y-66046470D01*
X93673937Y-66046496D01*
X93919278Y-66510699D01*
X93919290Y-66510720D01*
X94198633Y-66955293D01*
X94198645Y-66955310D01*
X94510438Y-67377775D01*
X94510451Y-67377791D01*
X94779012Y-67689864D01*
X94852942Y-67775772D01*
X94852954Y-67775784D01*
X94852965Y-67775796D01*
X95224203Y-68147034D01*
X95224215Y-68147045D01*
X95224228Y-68147058D01*
X95346780Y-68252522D01*
X95622208Y-68489548D01*
X95622224Y-68489561D01*
X96044689Y-68801354D01*
X96044706Y-68801366D01*
X96489279Y-69080709D01*
X96489295Y-69080719D01*
X96660588Y-69171250D01*
X96953503Y-69326062D01*
X96953519Y-69326069D01*
X96953524Y-69326072D01*
X97434791Y-69536046D01*
X97434798Y-69536048D01*
X97434799Y-69536049D01*
X97930394Y-69709465D01*
X97930403Y-69709468D01*
X98437589Y-69845369D01*
X98713953Y-69897659D01*
X98897425Y-69932375D01*
X98960639Y-69964692D01*
X98996347Y-70026056D01*
X99000000Y-70056178D01*
X99000000Y-90522229D01*
X98979998Y-90590350D01*
X98926342Y-90636843D01*
X98886351Y-90647622D01*
X98770239Y-90659059D01*
X98161933Y-90759490D01*
X97561520Y-90899487D01*
X96971555Y-91078452D01*
X96971547Y-91078454D01*
X96394535Y-91295626D01*
X95832962Y-91550071D01*
X95832945Y-91550080D01*
X95289227Y-91840704D01*
X94765671Y-92166272D01*
X94765667Y-92166274D01*
X94264529Y-92525385D01*
X94264528Y-92525386D01*
X93787943Y-92916509D01*
X93337962Y-93337962D01*
X92916509Y-93787943D01*
X92525386Y-94264528D01*
X92525385Y-94264529D01*
X92166274Y-94765667D01*
X92166272Y-94765671D01*
X91840704Y-95289227D01*
X91550080Y-95832945D01*
X91550071Y-95832962D01*
X91295626Y-96394535D01*
X91078454Y-96971547D01*
X91078452Y-96971555D01*
X90899487Y-97561520D01*
X90759490Y-98161933D01*
X90659060Y-98770235D01*
X90659057Y-98770251D01*
X90647623Y-98886350D01*
X90621040Y-98952183D01*
X90563086Y-98993192D01*
X90522230Y-99000000D01*
X70056178Y-99000000D01*
X69988057Y-98979998D01*
X69941564Y-98926342D01*
X69932375Y-98897425D01*
X69897659Y-98713953D01*
X69845369Y-98437589D01*
X69709468Y-97930403D01*
X69580392Y-97561525D01*
X69536049Y-97434799D01*
X69536048Y-97434798D01*
X69536046Y-97434791D01*
X69326072Y-96953524D01*
X69326069Y-96953519D01*
X69326062Y-96953503D01*
X69171250Y-96660588D01*
X69080719Y-96489295D01*
X69080709Y-96489279D01*
X68801366Y-96044706D01*
X68801354Y-96044689D01*
X68489561Y-95622224D01*
X68489548Y-95622208D01*
X68147067Y-95224239D01*
X68147058Y-95224228D01*
X68147045Y-95224215D01*
X68147034Y-95224203D01*
X67775796Y-94852965D01*
X67775784Y-94852954D01*
X67775772Y-94852942D01*
X67674361Y-94765671D01*
X67377791Y-94510451D01*
X67377775Y-94510438D01*
X66955310Y-94198645D01*
X66955293Y-94198633D01*
X66510720Y-93919290D01*
X66510712Y-93919285D01*
X66510705Y-93919281D01*
X66465089Y-93895172D01*
X66046496Y-93673937D01*
X66046470Y-93673925D01*
X65862513Y-93593666D01*
X65565209Y-93463954D01*
X65565202Y-93463951D01*
X65565200Y-93463950D01*
X65069605Y-93290534D01*
X64562412Y-93154631D01*
X64046487Y-93057013D01*
X63524711Y-92998222D01*
X63018923Y-92979298D01*
X63000000Y-92978590D01*
X62999999Y-92978590D01*
X62475288Y-92998222D01*
X61953512Y-93057013D01*
X61437587Y-93154631D01*
X60930394Y-93290534D01*
X60434799Y-93463950D01*
X60434796Y-93463952D01*
X59953529Y-93673925D01*
X59953503Y-93673937D01*
X59489300Y-93919278D01*
X59489279Y-93919290D01*
X59044706Y-94198633D01*
X59044689Y-94198645D01*
X58622224Y-94510438D01*
X58622208Y-94510451D01*
X58224239Y-94852932D01*
X58224203Y-94852965D01*
X57852965Y-95224203D01*
X57852932Y-95224239D01*
X57510451Y-95622208D01*
X57510438Y-95622224D01*
X57198645Y-96044689D01*
X57198633Y-96044706D01*
X56919290Y-96489279D01*
X56919278Y-96489300D01*
X56673937Y-96953503D01*
X56673925Y-96953529D01*
X56463952Y-97434796D01*
X56463950Y-97434799D01*
X56290534Y-97930394D01*
X56154631Y-98437587D01*
X56067625Y-98897425D01*
X56035308Y-98960639D01*
X55973944Y-98996347D01*
X55943822Y-99000000D01*
X51126000Y-99000000D01*
X51057879Y-98979998D01*
X51011386Y-98926342D01*
X51000000Y-98874000D01*
X51000000Y-57429136D01*
X67730000Y-57429136D01*
X67732832Y-57465117D01*
X67732834Y-57465130D01*
X67777595Y-57619197D01*
X67859261Y-57757285D01*
X67859266Y-57757292D01*
X67972707Y-57870733D01*
X67972714Y-57870738D01*
X68110802Y-57952404D01*
X68264869Y-57997165D01*
X68264882Y-57997167D01*
X68300863Y-57999999D01*
X68300865Y-58000000D01*
X68961000Y-58000000D01*
X68961000Y-56948674D01*
X69072685Y-56999680D01*
X69179237Y-57015000D01*
X69250763Y-57015000D01*
X69357315Y-56999680D01*
X69469000Y-56948674D01*
X69469000Y-58000000D01*
X70129135Y-58000000D01*
X70129136Y-57999999D01*
X70165117Y-57997167D01*
X70165127Y-57997165D01*
X70259846Y-57969647D01*
X70330843Y-57969850D01*
X70390459Y-58008403D01*
X70419768Y-58073068D01*
X70421000Y-58090644D01*
X70421000Y-58319449D01*
X70400998Y-58387570D01*
X70384095Y-58408544D01*
X70002644Y-58789995D01*
X69940332Y-58824021D01*
X69913549Y-58826900D01*
X69585457Y-58826900D01*
X69436139Y-58841606D01*
X69436136Y-58841606D01*
X69244522Y-58899732D01*
X69244516Y-58899734D01*
X69067933Y-58994120D01*
X68913148Y-59121148D01*
X68786120Y-59275933D01*
X68691734Y-59452516D01*
X68691732Y-59452522D01*
X68633606Y-59644136D01*
X68633606Y-59644139D01*
X68618900Y-59793457D01*
X68618900Y-60594942D01*
X68633606Y-60744260D01*
X68633606Y-60744263D01*
X68691732Y-60935877D01*
X68691734Y-60935883D01*
X68772490Y-61086966D01*
X68786122Y-61112469D01*
X68913148Y-61267252D01*
X69067931Y-61394278D01*
X69067933Y-61394279D01*
X69235560Y-61483878D01*
X69286208Y-61533630D01*
X69301918Y-61602867D01*
X69277702Y-61669606D01*
X69235560Y-61706122D01*
X69067933Y-61795720D01*
X68913148Y-61922748D01*
X68786120Y-62077533D01*
X68691734Y-62254116D01*
X68691732Y-62254122D01*
X68633606Y-62445736D01*
X68633606Y-62445739D01*
X68618900Y-62595057D01*
X68618900Y-63396542D01*
X68633606Y-63545860D01*
X68633606Y-63545863D01*
X68691732Y-63737477D01*
X68691734Y-63737483D01*
X68744175Y-63835592D01*
X68786122Y-63914069D01*
X68913148Y-64068852D01*
X69067931Y-64195878D01*
X69084395Y-64204678D01*
X69135043Y-64254428D01*
X69151000Y-64315800D01*
X69151000Y-65033512D01*
X69130998Y-65101633D01*
X69120811Y-65115342D01*
X69009334Y-65245864D01*
X69009333Y-65245866D01*
X68884610Y-65449396D01*
X68793265Y-65669922D01*
X68793263Y-65669927D01*
X68737539Y-65902034D01*
X68718811Y-66140000D01*
X68737539Y-66377966D01*
X68793263Y-66610073D01*
X68884611Y-66830605D01*
X68961024Y-66955301D01*
X69009333Y-67034133D01*
X69009334Y-67034135D01*
X69164356Y-67215643D01*
X69345864Y-67370665D01*
X69345868Y-67370668D01*
X69549395Y-67495389D01*
X69769927Y-67586737D01*
X70002034Y-67642461D01*
X70240000Y-67661189D01*
X70477966Y-67642461D01*
X70710073Y-67586737D01*
X70930605Y-67495389D01*
X71134132Y-67370668D01*
X71315643Y-67215643D01*
X71470668Y-67034132D01*
X71595389Y-66830605D01*
X71686737Y-66610073D01*
X71742461Y-66377966D01*
X71743970Y-66358788D01*
X71747872Y-66336076D01*
X71757760Y-66299171D01*
X71759413Y-66293932D01*
X71778464Y-66241593D01*
X71778464Y-66241590D01*
X71778467Y-66241584D01*
X71788144Y-66186693D01*
X71789323Y-66181376D01*
X71803752Y-66127532D01*
X71808608Y-66072019D01*
X71809326Y-66066566D01*
X71812866Y-66046496D01*
X71819000Y-66011710D01*
X71819000Y-65778290D01*
X71819000Y-64315800D01*
X71839002Y-64247679D01*
X71885604Y-64204678D01*
X71902069Y-64195878D01*
X72056852Y-64068852D01*
X72183878Y-63914069D01*
X72278267Y-63737480D01*
X72336392Y-63545869D01*
X72351100Y-63396534D01*
X72351100Y-62595066D01*
X72336393Y-62445739D01*
X72336393Y-62445736D01*
X72336392Y-62445733D01*
X72336392Y-62445731D01*
X72278267Y-62254120D01*
X72183878Y-62077531D01*
X72056852Y-61922748D01*
X71902069Y-61795722D01*
X71902067Y-61795721D01*
X71902066Y-61795720D01*
X71779744Y-61730338D01*
X71734438Y-61706121D01*
X71683791Y-61656370D01*
X71668081Y-61587133D01*
X71692297Y-61520394D01*
X71734438Y-61483878D01*
X71902069Y-61394278D01*
X72056852Y-61267252D01*
X72183878Y-61112469D01*
X72278267Y-60935880D01*
X72336392Y-60744269D01*
X72351100Y-60594934D01*
X72351100Y-60266851D01*
X72371102Y-60198730D01*
X72388005Y-60177756D01*
X72745905Y-59819856D01*
X72808217Y-59785830D01*
X72879032Y-59790895D01*
X72935868Y-59833442D01*
X72960679Y-59899962D01*
X72961000Y-59908951D01*
X72961000Y-62115711D01*
X72960806Y-62120656D01*
X72958500Y-62149958D01*
X72958499Y-63580038D01*
X72963768Y-63646983D01*
X72969037Y-63713925D01*
X72969037Y-63713928D01*
X72969038Y-63713929D01*
X73024739Y-63934985D01*
X73024742Y-63934994D01*
X73119018Y-64142549D01*
X73119020Y-64142552D01*
X73119021Y-64142554D01*
X73248848Y-64329950D01*
X73266593Y-64347695D01*
X73300620Y-64410006D01*
X73303500Y-64436792D01*
X73303500Y-65219848D01*
X73284933Y-65285682D01*
X73184612Y-65449393D01*
X73093267Y-65669918D01*
X73093263Y-65669927D01*
X73037539Y-65902034D01*
X73018811Y-66140000D01*
X73037539Y-66377966D01*
X73093263Y-66610073D01*
X73184611Y-66830605D01*
X73261024Y-66955301D01*
X73309333Y-67034133D01*
X73309334Y-67034135D01*
X73464356Y-67215643D01*
X73645864Y-67370665D01*
X73645868Y-67370668D01*
X73849395Y-67495389D01*
X74069927Y-67586737D01*
X74302034Y-67642461D01*
X74540000Y-67661189D01*
X74777966Y-67642461D01*
X75010073Y-67586737D01*
X75230605Y-67495389D01*
X75434132Y-67370668D01*
X75615643Y-67215643D01*
X75770668Y-67034132D01*
X75895389Y-66830605D01*
X75986737Y-66610073D01*
X76042461Y-66377966D01*
X76061189Y-66140000D01*
X76042461Y-65902034D01*
X75986737Y-65669927D01*
X75986735Y-65669922D01*
X75986734Y-65669918D01*
X75981091Y-65656294D01*
X75971500Y-65608077D01*
X75971500Y-64436792D01*
X75991502Y-64368671D01*
X76008402Y-64347699D01*
X76026152Y-64329950D01*
X76155979Y-64142554D01*
X76250260Y-63934989D01*
X76275306Y-63835589D01*
X76311345Y-63774423D01*
X76374734Y-63742449D01*
X76445347Y-63749822D01*
X76500764Y-63794200D01*
X76516458Y-63827893D01*
X76516863Y-63827738D01*
X76519095Y-63833555D01*
X76519190Y-63833757D01*
X76519228Y-63833899D01*
X76603687Y-63999658D01*
X76603688Y-63999661D01*
X76720763Y-64144236D01*
X76865338Y-64261311D01*
X76865341Y-64261312D01*
X77031097Y-64345769D01*
X77210789Y-64393917D01*
X77288061Y-64400000D01*
X77508500Y-64400000D01*
X77508500Y-63119000D01*
X78016500Y-63119000D01*
X78016500Y-64400000D01*
X78236939Y-64400000D01*
X78314210Y-64393917D01*
X78493902Y-64345769D01*
X78659658Y-64261312D01*
X78659661Y-64261311D01*
X78804236Y-64144236D01*
X78921311Y-63999661D01*
X78921312Y-63999658D01*
X79005769Y-63833902D01*
X79053917Y-63654210D01*
X79060000Y-63576938D01*
X79060000Y-63119000D01*
X78016500Y-63119000D01*
X77508500Y-63119000D01*
X77508500Y-61330000D01*
X78016500Y-61330000D01*
X78016500Y-62611000D01*
X79060000Y-62611000D01*
X79060000Y-62153061D01*
X79053917Y-62075789D01*
X79005769Y-61896097D01*
X78921312Y-61730341D01*
X78921311Y-61730338D01*
X78804236Y-61585763D01*
X78659661Y-61468688D01*
X78659658Y-61468687D01*
X78493902Y-61384230D01*
X78314210Y-61336082D01*
X78236939Y-61330000D01*
X78016500Y-61330000D01*
X77508500Y-61330000D01*
X77288061Y-61330000D01*
X77210789Y-61336082D01*
X77031097Y-61384230D01*
X76865341Y-61468687D01*
X76865338Y-61468688D01*
X76720763Y-61585763D01*
X76603688Y-61730338D01*
X76603687Y-61730341D01*
X76519228Y-61896100D01*
X76519189Y-61896247D01*
X76519142Y-61896322D01*
X76516863Y-61902262D01*
X76515776Y-61901844D01*
X76482230Y-61956865D01*
X76418366Y-61987879D01*
X76347872Y-61979442D01*
X76293131Y-61934232D01*
X76275305Y-61894407D01*
X76250438Y-61795720D01*
X76250260Y-61795011D01*
X76155979Y-61587446D01*
X76026152Y-61400050D01*
X76026150Y-61400048D01*
X76026142Y-61400039D01*
X75864960Y-61238857D01*
X75864954Y-61238852D01*
X75864950Y-61238848D01*
X75864943Y-61238843D01*
X75683245Y-61112962D01*
X75638640Y-61057727D01*
X75629000Y-61009390D01*
X75629000Y-57872820D01*
X75649002Y-57804699D01*
X75665905Y-57783725D01*
X75709210Y-57740420D01*
X75869211Y-57526684D01*
X75997165Y-57292353D01*
X76090468Y-57042197D01*
X76147221Y-56781309D01*
X76166268Y-56515000D01*
X76147221Y-56248691D01*
X76107832Y-56067625D01*
X76090470Y-55987811D01*
X76090470Y-55987810D01*
X76090468Y-55987806D01*
X76090468Y-55987803D01*
X75997165Y-55737647D01*
X75869211Y-55503316D01*
X75709210Y-55289580D01*
X75520420Y-55100790D01*
X75520417Y-55100788D01*
X75520414Y-55100785D01*
X75425856Y-55030000D01*
X75306684Y-54940789D01*
X75178729Y-54870920D01*
X75072352Y-54812834D01*
X74822189Y-54719529D01*
X74561311Y-54662779D01*
X74561313Y-54662779D01*
X74295000Y-54643732D01*
X74028687Y-54662779D01*
X73767811Y-54719529D01*
X73767810Y-54719529D01*
X73517647Y-54812834D01*
X73283316Y-54940789D01*
X73100509Y-55077636D01*
X73033988Y-55102447D01*
X72964614Y-55087355D01*
X72949491Y-55077636D01*
X72854673Y-55006657D01*
X72766684Y-54940789D01*
X72638728Y-54870920D01*
X72532352Y-54812834D01*
X72282189Y-54719529D01*
X72021311Y-54662779D01*
X72021313Y-54662779D01*
X71755000Y-54643732D01*
X71488687Y-54662779D01*
X71227811Y-54719529D01*
X71227810Y-54719529D01*
X70977647Y-54812834D01*
X70743316Y-54940789D01*
X70529580Y-55100790D01*
X70528700Y-55101553D01*
X70528345Y-55101715D01*
X70525978Y-55103487D01*
X70525592Y-55102971D01*
X70464116Y-55131039D01*
X70393843Y-55120927D01*
X70382059Y-55114772D01*
X70319197Y-55077595D01*
X70165130Y-55032834D01*
X70165117Y-55032832D01*
X70129136Y-55030000D01*
X69469000Y-55030000D01*
X69469000Y-56081325D01*
X69357315Y-56030320D01*
X69250763Y-56015000D01*
X69179237Y-56015000D01*
X69072685Y-56030320D01*
X68961000Y-56081325D01*
X68961000Y-55030000D01*
X68300864Y-55030000D01*
X68264882Y-55032832D01*
X68264869Y-55032834D01*
X68110802Y-55077595D01*
X67972714Y-55159261D01*
X67972707Y-55159266D01*
X67859266Y-55272707D01*
X67859261Y-55272714D01*
X67777595Y-55410802D01*
X67732834Y-55564869D01*
X67732832Y-55564882D01*
X67730000Y-55600863D01*
X67730000Y-56261000D01*
X68783884Y-56261000D01*
X68755507Y-56305156D01*
X68715000Y-56443111D01*
X68715000Y-56586889D01*
X68755507Y-56724844D01*
X68783884Y-56769000D01*
X67730000Y-56769000D01*
X67730000Y-57429136D01*
X51000000Y-57429136D01*
X51000000Y-51126000D01*
X51020002Y-51057879D01*
X51073658Y-51011386D01*
X51126000Y-51000000D01*
X98874000Y-51000000D01*
X98942121Y-51020002D01*
G37*
%TD.AperFunction*%
%TD*%
%TA.AperFunction,Conductor*%
%TO.N,Net-(J1-Pin_1)*%
G36*
X130011943Y-101020002D02*
G01*
X130058436Y-101073658D01*
X130067625Y-101102575D01*
X130154631Y-101562412D01*
X130290534Y-102069605D01*
X130463950Y-102565200D01*
X130463951Y-102565202D01*
X130463954Y-102565209D01*
X130593666Y-102862513D01*
X130673925Y-103046470D01*
X130673937Y-103046496D01*
X130919278Y-103510699D01*
X130919290Y-103510720D01*
X131198633Y-103955293D01*
X131198645Y-103955310D01*
X131510438Y-104377775D01*
X131510451Y-104377791D01*
X131779012Y-104689864D01*
X131852942Y-104775772D01*
X131852954Y-104775784D01*
X131852965Y-104775796D01*
X132224203Y-105147034D01*
X132224215Y-105147045D01*
X132224228Y-105147058D01*
X132325638Y-105234328D01*
X132622208Y-105489548D01*
X132622224Y-105489561D01*
X133044689Y-105801354D01*
X133044706Y-105801366D01*
X133489279Y-106080709D01*
X133489295Y-106080719D01*
X133660588Y-106171250D01*
X133953503Y-106326062D01*
X133953519Y-106326069D01*
X133953524Y-106326072D01*
X134434791Y-106536046D01*
X134434798Y-106536048D01*
X134434799Y-106536049D01*
X134930394Y-106709465D01*
X134930403Y-106709468D01*
X135437589Y-106845369D01*
X135953513Y-106942987D01*
X136416498Y-106995152D01*
X136475288Y-107001777D01*
X136494920Y-107002511D01*
X137000000Y-107021410D01*
X137524711Y-107001777D01*
X138046487Y-106942987D01*
X138562411Y-106845369D01*
X139069597Y-106709468D01*
X139565209Y-106536046D01*
X140046476Y-106326072D01*
X140046487Y-106326065D01*
X140046496Y-106326062D01*
X140262204Y-106212056D01*
X140510705Y-106080719D01*
X140955301Y-105801361D01*
X141377778Y-105489559D01*
X141775772Y-105147058D01*
X142147058Y-104775772D01*
X142489559Y-104377778D01*
X142801361Y-103955301D01*
X143080719Y-103510705D01*
X143245710Y-103198527D01*
X143326062Y-103046496D01*
X143326065Y-103046487D01*
X143326072Y-103046476D01*
X143536046Y-102565209D01*
X143709468Y-102069597D01*
X143845369Y-101562411D01*
X143908312Y-101229748D01*
X143932375Y-101102575D01*
X143964692Y-101039361D01*
X144026056Y-101003653D01*
X144056178Y-101000000D01*
X148874000Y-101000000D01*
X148942121Y-101020002D01*
X148988614Y-101073658D01*
X149000000Y-101126000D01*
X149000000Y-148874000D01*
X148979998Y-148942121D01*
X148926342Y-148988614D01*
X148874000Y-149000000D01*
X101126000Y-149000000D01*
X101057879Y-148979998D01*
X101011386Y-148926342D01*
X101000000Y-148874000D01*
X101000000Y-144056178D01*
X101020002Y-143988057D01*
X101073658Y-143941564D01*
X101102575Y-143932375D01*
X101257671Y-143903028D01*
X101562411Y-143845369D01*
X102069597Y-143709468D01*
X102565209Y-143536046D01*
X103046476Y-143326072D01*
X103046487Y-143326065D01*
X103046496Y-143326062D01*
X103264202Y-143211000D01*
X103510705Y-143080719D01*
X103955301Y-142801361D01*
X104377778Y-142489559D01*
X104775772Y-142147058D01*
X105147058Y-141775772D01*
X105489559Y-141377778D01*
X105801361Y-140955301D01*
X106080719Y-140510705D01*
X106245710Y-140198527D01*
X106326062Y-140046496D01*
X106326065Y-140046487D01*
X106326072Y-140046476D01*
X106536046Y-139565209D01*
X106709468Y-139069597D01*
X106845369Y-138562411D01*
X106870422Y-138430000D01*
X121053500Y-138430000D01*
X121053500Y-138887938D01*
X121059582Y-138965210D01*
X121107730Y-139144902D01*
X121192187Y-139310658D01*
X121192188Y-139310661D01*
X121309263Y-139455236D01*
X121453838Y-139572311D01*
X121453841Y-139572312D01*
X121619597Y-139656769D01*
X121799289Y-139704917D01*
X121876561Y-139711000D01*
X122097000Y-139711000D01*
X122605000Y-139711000D01*
X122825439Y-139711000D01*
X122902710Y-139704917D01*
X123082402Y-139656769D01*
X123248158Y-139572312D01*
X123248161Y-139572311D01*
X123392736Y-139455236D01*
X123509811Y-139310661D01*
X123509812Y-139310658D01*
X123594268Y-139144905D01*
X123594304Y-139144774D01*
X123594347Y-139144702D01*
X123596637Y-139138738D01*
X123597727Y-139139156D01*
X123631252Y-139084149D01*
X123695111Y-139053124D01*
X123765606Y-139061548D01*
X123820356Y-139106748D01*
X123838194Y-139146591D01*
X123863239Y-139245985D01*
X123863242Y-139245994D01*
X123957518Y-139453549D01*
X123957520Y-139453552D01*
X123957521Y-139453554D01*
X124053950Y-139592742D01*
X124087349Y-139640951D01*
X124087357Y-139640960D01*
X124105094Y-139658697D01*
X124139120Y-139721009D01*
X124141999Y-139747792D01*
X124141999Y-142528821D01*
X124126587Y-142589205D01*
X124117316Y-142606183D01*
X124072836Y-142687643D01*
X123979529Y-142937810D01*
X123979529Y-142937811D01*
X123922779Y-143198687D01*
X123903732Y-143465000D01*
X123922779Y-143731312D01*
X123979529Y-143992188D01*
X123979529Y-143992189D01*
X124072834Y-144242352D01*
X124072835Y-144242353D01*
X124200789Y-144476684D01*
X124296069Y-144603963D01*
X124360785Y-144690414D01*
X124360788Y-144690417D01*
X124360790Y-144690420D01*
X124549580Y-144879210D01*
X124549583Y-144879212D01*
X124549585Y-144879214D01*
X124593288Y-144911930D01*
X124763316Y-145039211D01*
X124997647Y-145167165D01*
X125247803Y-145260468D01*
X125247806Y-145260468D01*
X125247810Y-145260470D01*
X125398788Y-145293313D01*
X125508691Y-145317221D01*
X125775000Y-145336268D01*
X126041309Y-145317221D01*
X126302188Y-145260470D01*
X126302189Y-145260470D01*
X126302190Y-145260469D01*
X126302197Y-145260468D01*
X126552353Y-145167165D01*
X126786684Y-145039211D01*
X126969492Y-144902362D01*
X127036010Y-144877552D01*
X127105384Y-144892643D01*
X127120508Y-144902363D01*
X127180357Y-144947165D01*
X127303316Y-145039211D01*
X127537647Y-145167165D01*
X127787803Y-145260468D01*
X127787806Y-145260468D01*
X127787810Y-145260470D01*
X127938788Y-145293313D01*
X128048691Y-145317221D01*
X128315000Y-145336268D01*
X128581309Y-145317221D01*
X128842188Y-145260470D01*
X128842189Y-145260470D01*
X128842190Y-145260469D01*
X128842197Y-145260468D01*
X129092353Y-145167165D01*
X129326684Y-145039211D01*
X129540420Y-144879210D01*
X129540430Y-144879199D01*
X129541277Y-144878467D01*
X129541625Y-144878307D01*
X129544023Y-144876513D01*
X129544413Y-144877034D01*
X129605853Y-144848965D01*
X129676129Y-144859059D01*
X129687942Y-144865227D01*
X129750804Y-144902404D01*
X129904869Y-144947165D01*
X129904882Y-144947167D01*
X129940863Y-144949999D01*
X129940865Y-144950000D01*
X130601000Y-144950000D01*
X130600999Y-143898674D01*
X130712685Y-143949680D01*
X130819237Y-143965000D01*
X130890763Y-143965000D01*
X130997315Y-143949680D01*
X131109000Y-143898674D01*
X131109000Y-144950000D01*
X131769135Y-144950000D01*
X131769136Y-144949999D01*
X131805117Y-144947167D01*
X131805130Y-144947165D01*
X131959197Y-144902404D01*
X132097285Y-144820738D01*
X132097292Y-144820733D01*
X132210733Y-144707292D01*
X132210738Y-144707285D01*
X132292404Y-144569197D01*
X132337165Y-144415130D01*
X132337167Y-144415117D01*
X132339999Y-144379136D01*
X132340000Y-144379135D01*
X132340000Y-143719000D01*
X131286116Y-143719000D01*
X131314493Y-143674844D01*
X131355000Y-143536889D01*
X131355000Y-143393111D01*
X131314493Y-143255156D01*
X131286116Y-143211000D01*
X132340000Y-143211000D01*
X132340000Y-142550864D01*
X132339999Y-142550863D01*
X132337167Y-142514882D01*
X132337165Y-142514869D01*
X132292404Y-142360802D01*
X132210738Y-142222714D01*
X132210733Y-142222707D01*
X132097292Y-142109266D01*
X132097285Y-142109261D01*
X131959197Y-142027595D01*
X131805130Y-141982834D01*
X131805117Y-141982832D01*
X131769136Y-141980000D01*
X131508000Y-141980000D01*
X131439879Y-141959998D01*
X131393386Y-141906342D01*
X131382000Y-141854000D01*
X131382000Y-141615289D01*
X131382000Y-141127248D01*
X131381999Y-140511996D01*
X131402001Y-140443879D01*
X131448604Y-140400878D01*
X131465069Y-140392078D01*
X131619852Y-140265052D01*
X131746878Y-140110269D01*
X131841267Y-139933680D01*
X131899392Y-139742069D01*
X131914100Y-139592734D01*
X131914100Y-138791266D01*
X131899393Y-138641939D01*
X131899393Y-138641936D01*
X131899392Y-138641933D01*
X131899392Y-138641931D01*
X131841267Y-138450320D01*
X131746878Y-138273731D01*
X131619852Y-138118948D01*
X131465069Y-137991922D01*
X131465067Y-137991921D01*
X131465066Y-137991920D01*
X131334254Y-137922000D01*
X131297438Y-137902321D01*
X131246791Y-137852570D01*
X131231081Y-137783333D01*
X131255297Y-137716594D01*
X131297438Y-137680078D01*
X131465069Y-137590478D01*
X131619852Y-137463452D01*
X131746878Y-137308669D01*
X131841267Y-137132080D01*
X131899392Y-136940469D01*
X131914100Y-136791134D01*
X131914100Y-135989666D01*
X131899393Y-135840339D01*
X131899393Y-135840336D01*
X131899392Y-135840333D01*
X131899392Y-135840331D01*
X131841267Y-135648720D01*
X131746878Y-135472131D01*
X131619852Y-135317348D01*
X131465069Y-135190322D01*
X131465067Y-135190321D01*
X131465066Y-135190320D01*
X131288481Y-135095933D01*
X131208423Y-135071647D01*
X131149042Y-135032731D01*
X131120127Y-134967889D01*
X131119000Y-134951073D01*
X131119000Y-134646044D01*
X131137571Y-134580203D01*
X131140389Y-134575605D01*
X131231737Y-134355073D01*
X131287461Y-134122966D01*
X131306189Y-133885000D01*
X131287461Y-133647034D01*
X131231737Y-133414927D01*
X131140389Y-133194395D01*
X131015668Y-132990868D01*
X131015665Y-132990864D01*
X130860643Y-132809356D01*
X130679135Y-132654334D01*
X130679133Y-132654333D01*
X130679132Y-132654332D01*
X130475605Y-132529611D01*
X130255073Y-132438263D01*
X130022966Y-132382539D01*
X129785000Y-132363811D01*
X129784999Y-132363811D01*
X129547034Y-132382539D01*
X129314926Y-132438263D01*
X129094396Y-132529610D01*
X128890866Y-132654333D01*
X128890864Y-132654334D01*
X128709356Y-132809356D01*
X128554334Y-132990864D01*
X128554333Y-132990866D01*
X128429610Y-133194396D01*
X128338263Y-133414926D01*
X128282539Y-133647034D01*
X128263811Y-133885000D01*
X128282539Y-134122966D01*
X128338263Y-134355073D01*
X128429611Y-134575605D01*
X128429612Y-134575606D01*
X128432434Y-134580212D01*
X128450999Y-134646044D01*
X128450999Y-135302907D01*
X128430997Y-135371028D01*
X128422399Y-135382839D01*
X128349127Y-135472123D01*
X128349121Y-135472131D01*
X128254734Y-135648716D01*
X128254732Y-135648722D01*
X128196606Y-135840336D01*
X128196606Y-135840339D01*
X128181900Y-135989657D01*
X128181900Y-136791142D01*
X128196606Y-136940460D01*
X128196606Y-136940463D01*
X128254732Y-137132077D01*
X128254734Y-137132083D01*
X128316051Y-137246798D01*
X128349122Y-137308669D01*
X128476148Y-137463452D01*
X128630931Y-137590478D01*
X128630933Y-137590479D01*
X128798560Y-137680078D01*
X128849208Y-137729830D01*
X128864918Y-137799067D01*
X128840702Y-137865806D01*
X128798560Y-137902322D01*
X128630933Y-137991920D01*
X128476148Y-138118948D01*
X128349120Y-138273733D01*
X128254734Y-138450316D01*
X128254732Y-138450322D01*
X128196606Y-138641936D01*
X128196606Y-138641939D01*
X128181900Y-138791257D01*
X128181900Y-139592742D01*
X128196606Y-139742060D01*
X128196606Y-139742063D01*
X128254732Y-139933677D01*
X128254734Y-139933683D01*
X128349120Y-140110266D01*
X128349122Y-140110269D01*
X128476148Y-140265052D01*
X128630931Y-140392078D01*
X128630933Y-140392079D01*
X128647395Y-140400878D01*
X128698043Y-140450630D01*
X128713999Y-140512000D01*
X128713999Y-141127248D01*
X128693997Y-141195369D01*
X128677094Y-141216343D01*
X128331759Y-141561678D01*
X128269447Y-141595704D01*
X128251653Y-141598262D01*
X128048691Y-141612778D01*
X128048685Y-141612779D01*
X127787811Y-141669529D01*
X127787810Y-141669529D01*
X127537647Y-141762834D01*
X127303317Y-141890788D01*
X127120507Y-142027637D01*
X127053987Y-142052447D01*
X126984613Y-142037355D01*
X126969490Y-142027636D01*
X126860491Y-141946040D01*
X126817944Y-141889204D01*
X126810000Y-141845172D01*
X126810000Y-139747792D01*
X126830002Y-139679671D01*
X126846905Y-139658697D01*
X126864652Y-139640950D01*
X126994479Y-139453554D01*
X127088760Y-139245989D01*
X127144463Y-139024925D01*
X127155000Y-138891042D01*
X127155000Y-137460958D01*
X127144463Y-137327075D01*
X127088760Y-137106011D01*
X126994479Y-136898446D01*
X126864652Y-136711050D01*
X126864650Y-136711048D01*
X126864642Y-136711039D01*
X126855905Y-136702302D01*
X126821879Y-136639990D01*
X126819000Y-136613207D01*
X126819000Y-134646044D01*
X126837571Y-134580203D01*
X126840389Y-134575605D01*
X126931737Y-134355073D01*
X126987461Y-134122966D01*
X127006189Y-133885000D01*
X126987461Y-133647034D01*
X126931737Y-133414927D01*
X126840389Y-133194395D01*
X126715668Y-132990868D01*
X126715665Y-132990864D01*
X126560643Y-132809356D01*
X126379135Y-132654334D01*
X126379133Y-132654333D01*
X126379132Y-132654332D01*
X126175605Y-132529611D01*
X125955073Y-132438263D01*
X125722966Y-132382539D01*
X125485000Y-132363811D01*
X125247034Y-132382539D01*
X125014926Y-132438263D01*
X124794396Y-132529610D01*
X124590866Y-132654333D01*
X124590864Y-132654334D01*
X124409356Y-132809356D01*
X124254334Y-132990864D01*
X124254333Y-132990866D01*
X124129610Y-133194396D01*
X124038263Y-133414926D01*
X123982539Y-133647034D01*
X123963811Y-133885000D01*
X123982539Y-134122966D01*
X124038263Y-134355073D01*
X124129611Y-134575605D01*
X124129612Y-134575606D01*
X124132429Y-134580203D01*
X124151000Y-134646044D01*
X124151000Y-136595206D01*
X124130998Y-136663327D01*
X124114097Y-136684300D01*
X124087349Y-136711048D01*
X123957518Y-136898450D01*
X123863242Y-137106005D01*
X123863239Y-137106014D01*
X123838194Y-137205408D01*
X123802153Y-137266577D01*
X123738763Y-137298550D01*
X123668151Y-137291177D01*
X123612734Y-137246798D01*
X123597042Y-137213106D01*
X123596637Y-137213262D01*
X123594394Y-137207419D01*
X123594306Y-137207230D01*
X123594270Y-137207098D01*
X123509812Y-137041341D01*
X123509811Y-137041338D01*
X123392736Y-136896763D01*
X123248161Y-136779688D01*
X123248158Y-136779687D01*
X123082402Y-136695230D01*
X122902710Y-136647082D01*
X122825439Y-136641000D01*
X122605000Y-136641000D01*
X122605000Y-139711000D01*
X122097000Y-139711000D01*
X122097000Y-138430000D01*
X121053500Y-138430000D01*
X106870422Y-138430000D01*
X106942987Y-138046487D01*
X106957013Y-137922000D01*
X121053500Y-137922000D01*
X122097000Y-137922000D01*
X122097000Y-136641000D01*
X121876561Y-136641000D01*
X121799289Y-136647082D01*
X121619597Y-136695230D01*
X121453841Y-136779687D01*
X121453838Y-136779688D01*
X121309263Y-136896763D01*
X121192188Y-137041338D01*
X121192187Y-137041341D01*
X121107730Y-137207097D01*
X121059582Y-137386789D01*
X121053500Y-137464061D01*
X121053500Y-137922000D01*
X106957013Y-137922000D01*
X107001777Y-137524711D01*
X107021410Y-137000000D01*
X107001777Y-136475289D01*
X106942987Y-135953513D01*
X106845369Y-135437589D01*
X106709468Y-134930403D01*
X106536046Y-134434791D01*
X106326072Y-133953524D01*
X106326069Y-133953519D01*
X106326062Y-133953503D01*
X106164087Y-133647034D01*
X106080719Y-133489295D01*
X105895422Y-133194396D01*
X105801366Y-133044706D01*
X105801354Y-133044689D01*
X105489561Y-132622224D01*
X105489548Y-132622208D01*
X105147067Y-132224239D01*
X105147058Y-132224228D01*
X105147045Y-132224215D01*
X105147034Y-132224203D01*
X104775796Y-131852965D01*
X104775784Y-131852954D01*
X104775772Y-131852942D01*
X104689864Y-131779012D01*
X104377791Y-131510451D01*
X104377775Y-131510438D01*
X103955310Y-131198645D01*
X103955293Y-131198633D01*
X103510720Y-130919290D01*
X103510712Y-130919285D01*
X103510705Y-130919281D01*
X103465089Y-130895172D01*
X103046496Y-130673937D01*
X103046470Y-130673925D01*
X102862513Y-130593666D01*
X102565209Y-130463954D01*
X102565202Y-130463951D01*
X102565200Y-130463950D01*
X102069605Y-130290534D01*
X101562412Y-130154631D01*
X101102575Y-130067625D01*
X101039361Y-130035308D01*
X101003653Y-129973944D01*
X101000000Y-129943822D01*
X101000000Y-109477769D01*
X101020002Y-109409648D01*
X101073658Y-109363155D01*
X101113647Y-109352377D01*
X101229758Y-109340941D01*
X101838052Y-109240512D01*
X101838062Y-109240509D01*
X101838066Y-109240509D01*
X102438479Y-109100512D01*
X102585970Y-109055770D01*
X103028456Y-108921544D01*
X103605469Y-108704372D01*
X104167042Y-108449926D01*
X104710772Y-108159296D01*
X105234329Y-107833728D01*
X105735473Y-107474613D01*
X106212056Y-107083492D01*
X106662038Y-106662038D01*
X107083492Y-106212056D01*
X107474613Y-105735473D01*
X107833728Y-105234329D01*
X108159296Y-104710772D01*
X108449926Y-104167042D01*
X108704372Y-103605469D01*
X108921544Y-103028456D01*
X109100513Y-102438475D01*
X109128931Y-102316592D01*
X109240509Y-101838066D01*
X109240509Y-101838062D01*
X109240512Y-101838052D01*
X109340941Y-101229758D01*
X109340942Y-101229748D01*
X109352377Y-101113650D01*
X109378960Y-101047817D01*
X109436914Y-101006808D01*
X109477770Y-101000000D01*
X129943822Y-101000000D01*
X130011943Y-101020002D01*
G37*
%TD.AperFunction*%
%TD*%
%TA.AperFunction,Conductor*%
%TO.N,Net-(J2-Pin_1)*%
G36*
X56011943Y-101020002D02*
G01*
X56058436Y-101073658D01*
X56067625Y-101102575D01*
X56154631Y-101562412D01*
X56290534Y-102069605D01*
X56463950Y-102565200D01*
X56463951Y-102565202D01*
X56463954Y-102565209D01*
X56593666Y-102862513D01*
X56673925Y-103046470D01*
X56673937Y-103046496D01*
X56919278Y-103510699D01*
X56919290Y-103510720D01*
X57198633Y-103955293D01*
X57198645Y-103955310D01*
X57510438Y-104377775D01*
X57510451Y-104377791D01*
X57779012Y-104689864D01*
X57852942Y-104775772D01*
X57852954Y-104775784D01*
X57852965Y-104775796D01*
X58224203Y-105147034D01*
X58224215Y-105147045D01*
X58224228Y-105147058D01*
X58325638Y-105234328D01*
X58622208Y-105489548D01*
X58622224Y-105489561D01*
X59044689Y-105801354D01*
X59044706Y-105801366D01*
X59489279Y-106080709D01*
X59489295Y-106080719D01*
X59660588Y-106171250D01*
X59953503Y-106326062D01*
X59953519Y-106326069D01*
X59953524Y-106326072D01*
X60434791Y-106536046D01*
X60434798Y-106536048D01*
X60434799Y-106536049D01*
X60930394Y-106709465D01*
X60930403Y-106709468D01*
X61437589Y-106845369D01*
X61953513Y-106942987D01*
X62416497Y-106995152D01*
X62475288Y-107001777D01*
X62494920Y-107002511D01*
X63000000Y-107021410D01*
X63524711Y-107001777D01*
X64046487Y-106942987D01*
X64562411Y-106845369D01*
X65069597Y-106709468D01*
X65565209Y-106536046D01*
X66046476Y-106326072D01*
X66046487Y-106326065D01*
X66046496Y-106326062D01*
X66262204Y-106212056D01*
X66510705Y-106080719D01*
X66955301Y-105801361D01*
X67377778Y-105489559D01*
X67775772Y-105147058D01*
X68147058Y-104775772D01*
X68489559Y-104377778D01*
X68801361Y-103955301D01*
X69080719Y-103510705D01*
X69245710Y-103198527D01*
X69326062Y-103046496D01*
X69326065Y-103046487D01*
X69326072Y-103046476D01*
X69536046Y-102565209D01*
X69709468Y-102069597D01*
X69845369Y-101562411D01*
X69908312Y-101229748D01*
X69932375Y-101102575D01*
X69964692Y-101039361D01*
X70026056Y-101003653D01*
X70056178Y-101000000D01*
X90522230Y-101000000D01*
X90590351Y-101020002D01*
X90636844Y-101073658D01*
X90647623Y-101113650D01*
X90659057Y-101229748D01*
X90659060Y-101229764D01*
X90759490Y-101838066D01*
X90899487Y-102438479D01*
X91078452Y-103028444D01*
X91078454Y-103028452D01*
X91295626Y-103605464D01*
X91550071Y-104167037D01*
X91550074Y-104167042D01*
X91840704Y-104710772D01*
X92166272Y-105234329D01*
X92525387Y-105735473D01*
X92916508Y-106212056D01*
X93337962Y-106662038D01*
X93787944Y-107083492D01*
X94264527Y-107474613D01*
X94765671Y-107833728D01*
X95289228Y-108159296D01*
X95832958Y-108449926D01*
X96394531Y-108704372D01*
X96971544Y-108921544D01*
X97204359Y-108992167D01*
X97561520Y-109100512D01*
X98161933Y-109240509D01*
X98161940Y-109240510D01*
X98161948Y-109240512D01*
X98770242Y-109340941D01*
X98886351Y-109352376D01*
X98952182Y-109378958D01*
X98993192Y-109436912D01*
X99000000Y-109477769D01*
X99000000Y-129943822D01*
X98979998Y-130011943D01*
X98926342Y-130058436D01*
X98897425Y-130067625D01*
X98437587Y-130154631D01*
X97930394Y-130290534D01*
X97434799Y-130463950D01*
X97434796Y-130463952D01*
X96953529Y-130673925D01*
X96953503Y-130673937D01*
X96489300Y-130919278D01*
X96489279Y-130919290D01*
X96044706Y-131198633D01*
X96044689Y-131198645D01*
X95622224Y-131510438D01*
X95622208Y-131510451D01*
X95224239Y-131852932D01*
X95224203Y-131852965D01*
X94852965Y-132224203D01*
X94852932Y-132224239D01*
X94510451Y-132622208D01*
X94510438Y-132622224D01*
X94198645Y-133044689D01*
X94198633Y-133044706D01*
X93919290Y-133489279D01*
X93919278Y-133489300D01*
X93673937Y-133953503D01*
X93673925Y-133953529D01*
X93463952Y-134434796D01*
X93463950Y-134434799D01*
X93290534Y-134930394D01*
X93154631Y-135437587D01*
X93057013Y-135953512D01*
X92998222Y-136475288D01*
X92978590Y-137000000D01*
X92998222Y-137524711D01*
X93057013Y-138046487D01*
X93154631Y-138562412D01*
X93290534Y-139069605D01*
X93463950Y-139565200D01*
X93463951Y-139565202D01*
X93463954Y-139565209D01*
X93590093Y-139854324D01*
X93673925Y-140046470D01*
X93673937Y-140046496D01*
X93919278Y-140510699D01*
X93919290Y-140510720D01*
X94198633Y-140955293D01*
X94198645Y-140955310D01*
X94510438Y-141377775D01*
X94510451Y-141377791D01*
X94725294Y-141627442D01*
X94852942Y-141775772D01*
X94852954Y-141775784D01*
X94852965Y-141775796D01*
X95224203Y-142147034D01*
X95224215Y-142147045D01*
X95224228Y-142147058D01*
X95346780Y-142252522D01*
X95622208Y-142489548D01*
X95622224Y-142489561D01*
X96044689Y-142801354D01*
X96044706Y-142801366D01*
X96352950Y-142995048D01*
X96489295Y-143080719D01*
X96650654Y-143166000D01*
X96953503Y-143326062D01*
X96953519Y-143326069D01*
X96953524Y-143326072D01*
X97434791Y-143536046D01*
X97434798Y-143536048D01*
X97434799Y-143536049D01*
X97930394Y-143709465D01*
X97930403Y-143709468D01*
X98437589Y-143845369D01*
X98713953Y-143897659D01*
X98897425Y-143932375D01*
X98960639Y-143964692D01*
X98996347Y-144026056D01*
X99000000Y-144056178D01*
X99000000Y-148874000D01*
X98979998Y-148942121D01*
X98926342Y-148988614D01*
X98874000Y-149000000D01*
X51126000Y-149000000D01*
X51057879Y-148979998D01*
X51011386Y-148926342D01*
X51000000Y-148874000D01*
X51000000Y-137922000D01*
X65681500Y-137922000D01*
X65681500Y-138379938D01*
X65687582Y-138457210D01*
X65735730Y-138636902D01*
X65820187Y-138802658D01*
X65820188Y-138802661D01*
X65937263Y-138947236D01*
X66081838Y-139064311D01*
X66081841Y-139064312D01*
X66247597Y-139148769D01*
X66427289Y-139196917D01*
X66504561Y-139203000D01*
X66725000Y-139203000D01*
X67233000Y-139203000D01*
X67453439Y-139203000D01*
X67530710Y-139196917D01*
X67710402Y-139148769D01*
X67876158Y-139064312D01*
X67876161Y-139064311D01*
X68020736Y-138947236D01*
X68137811Y-138802661D01*
X68137812Y-138802658D01*
X68222268Y-138636905D01*
X68222304Y-138636774D01*
X68222347Y-138636702D01*
X68224637Y-138630738D01*
X68225727Y-138631156D01*
X68259252Y-138576149D01*
X68323111Y-138545124D01*
X68393606Y-138553548D01*
X68448356Y-138598748D01*
X68466194Y-138638591D01*
X68491239Y-138737985D01*
X68491242Y-138737994D01*
X68585518Y-138945549D01*
X68585520Y-138945552D01*
X68585521Y-138945554D01*
X68715348Y-139132950D01*
X68733094Y-139150696D01*
X68767120Y-139213006D01*
X68770000Y-139239792D01*
X68770000Y-141539958D01*
X68749998Y-141608079D01*
X68696342Y-141654572D01*
X68688033Y-141658014D01*
X68527645Y-141717835D01*
X68293316Y-141845789D01*
X68079585Y-142005785D01*
X68079576Y-142005793D01*
X67890793Y-142194576D01*
X67890785Y-142194585D01*
X67730789Y-142408316D01*
X67602834Y-142642647D01*
X67509529Y-142892810D01*
X67509529Y-142892811D01*
X67452779Y-143153687D01*
X67433732Y-143420000D01*
X67452779Y-143686312D01*
X67509529Y-143947188D01*
X67509529Y-143947189D01*
X67602834Y-144197352D01*
X67602835Y-144197353D01*
X67730789Y-144431684D01*
X67826069Y-144558963D01*
X67890785Y-144645414D01*
X67890788Y-144645417D01*
X67890790Y-144645420D01*
X68079580Y-144834210D01*
X68079583Y-144834212D01*
X68079585Y-144834214D01*
X68123288Y-144866930D01*
X68293316Y-144994211D01*
X68527647Y-145122165D01*
X68777803Y-145215468D01*
X68777806Y-145215468D01*
X68777810Y-145215470D01*
X68928788Y-145248313D01*
X69038691Y-145272221D01*
X69305000Y-145291268D01*
X69571309Y-145272221D01*
X69832188Y-145215470D01*
X69832189Y-145215470D01*
X69832190Y-145215469D01*
X69832197Y-145215468D01*
X70082353Y-145122165D01*
X70316684Y-144994211D01*
X70499492Y-144857362D01*
X70566010Y-144832552D01*
X70635384Y-144847643D01*
X70650508Y-144857363D01*
X70710357Y-144902165D01*
X70833316Y-144994211D01*
X71067647Y-145122165D01*
X71317803Y-145215468D01*
X71317806Y-145215468D01*
X71317810Y-145215470D01*
X71468788Y-145248313D01*
X71578691Y-145272221D01*
X71845000Y-145291268D01*
X72111309Y-145272221D01*
X72372188Y-145215470D01*
X72372189Y-145215470D01*
X72372190Y-145215469D01*
X72372197Y-145215468D01*
X72622353Y-145122165D01*
X72856684Y-144994211D01*
X73070420Y-144834210D01*
X73070430Y-144834199D01*
X73071277Y-144833467D01*
X73071625Y-144833307D01*
X73074023Y-144831513D01*
X73074413Y-144832034D01*
X73135853Y-144803965D01*
X73206129Y-144814059D01*
X73217942Y-144820227D01*
X73280804Y-144857404D01*
X73434869Y-144902165D01*
X73434882Y-144902167D01*
X73470863Y-144904999D01*
X73470865Y-144905000D01*
X74131000Y-144905000D01*
X74131000Y-143853674D01*
X74242685Y-143904680D01*
X74349237Y-143920000D01*
X74420763Y-143920000D01*
X74527315Y-143904680D01*
X74639000Y-143853674D01*
X74639000Y-144905000D01*
X75299135Y-144905000D01*
X75299136Y-144904999D01*
X75335117Y-144902167D01*
X75335130Y-144902165D01*
X75489197Y-144857404D01*
X75627285Y-144775738D01*
X75627292Y-144775733D01*
X75740733Y-144662292D01*
X75740738Y-144662285D01*
X75822404Y-144524197D01*
X75867165Y-144370130D01*
X75867167Y-144370117D01*
X75869999Y-144334136D01*
X75870000Y-144334135D01*
X75870000Y-143674000D01*
X74816116Y-143674000D01*
X74844493Y-143629844D01*
X74885000Y-143491889D01*
X74885000Y-143348111D01*
X74844493Y-143210156D01*
X74816116Y-143166000D01*
X75870000Y-143166000D01*
X75870000Y-142505864D01*
X75869999Y-142505863D01*
X75867167Y-142469882D01*
X75867165Y-142469869D01*
X75822404Y-142315802D01*
X75740738Y-142177714D01*
X75740733Y-142177707D01*
X75627292Y-142064266D01*
X75627285Y-142064261D01*
X75489198Y-141982596D01*
X75445650Y-141969944D01*
X75385815Y-141931730D01*
X75356138Y-141867234D01*
X75366042Y-141796931D01*
X75391707Y-141759853D01*
X75660468Y-141491093D01*
X75660467Y-141491092D01*
X75697373Y-141454188D01*
X75697374Y-141454186D01*
X75701807Y-141449754D01*
X75733775Y-141404097D01*
X75737089Y-141399778D01*
X75772924Y-141357073D01*
X75800795Y-141308797D01*
X75803722Y-141304202D01*
X75835691Y-141258548D01*
X75859246Y-141208031D01*
X75861764Y-141203195D01*
X75889634Y-141154926D01*
X75908699Y-141102540D01*
X75910786Y-141097504D01*
X75934339Y-141046998D01*
X75948757Y-140993184D01*
X75950410Y-140987943D01*
X75969465Y-140935593D01*
X75969466Y-140935588D01*
X75969468Y-140935583D01*
X75979145Y-140880694D01*
X75980327Y-140875362D01*
X75994752Y-140821532D01*
X75999606Y-140766038D01*
X76000320Y-140760611D01*
X76000836Y-140757681D01*
X76032340Y-140694057D01*
X76065529Y-140668398D01*
X76093069Y-140653678D01*
X76247852Y-140526652D01*
X76374878Y-140371869D01*
X76469267Y-140195280D01*
X76527392Y-140003669D01*
X76542100Y-139854334D01*
X76542100Y-139052866D01*
X76527393Y-138903539D01*
X76527393Y-138903536D01*
X76527392Y-138903533D01*
X76527392Y-138903531D01*
X76469267Y-138711920D01*
X76374878Y-138535331D01*
X76247852Y-138380548D01*
X76093069Y-138253522D01*
X76093067Y-138253521D01*
X76093066Y-138253520D01*
X75998178Y-138202802D01*
X75925438Y-138163921D01*
X75874791Y-138114170D01*
X75859081Y-138044933D01*
X75883297Y-137978194D01*
X75925438Y-137941678D01*
X76093069Y-137852078D01*
X76247852Y-137725052D01*
X76374878Y-137570269D01*
X76469267Y-137393680D01*
X76527392Y-137202069D01*
X76542100Y-137052734D01*
X76542100Y-136251266D01*
X76527393Y-136101939D01*
X76527393Y-136101936D01*
X76527392Y-136101933D01*
X76527392Y-136101931D01*
X76469267Y-135910320D01*
X76374878Y-135733731D01*
X76247852Y-135578948D01*
X76093069Y-135451922D01*
X76093067Y-135451921D01*
X76093066Y-135451920D01*
X75940604Y-135370427D01*
X75889956Y-135320674D01*
X75874000Y-135259305D01*
X75874000Y-134646044D01*
X75892571Y-134580203D01*
X75895389Y-134575605D01*
X75986737Y-134355073D01*
X76042461Y-134122966D01*
X76061189Y-133885000D01*
X76042461Y-133647034D01*
X75986737Y-133414927D01*
X75895389Y-133194395D01*
X75770668Y-132990868D01*
X75770665Y-132990864D01*
X75615643Y-132809356D01*
X75434135Y-132654334D01*
X75434133Y-132654333D01*
X75434132Y-132654332D01*
X75230605Y-132529611D01*
X75010073Y-132438263D01*
X74777966Y-132382539D01*
X74540000Y-132363811D01*
X74539999Y-132363811D01*
X74302034Y-132382539D01*
X74069926Y-132438263D01*
X73849396Y-132529610D01*
X73645866Y-132654333D01*
X73645864Y-132654334D01*
X73464356Y-132809356D01*
X73309334Y-132990864D01*
X73309333Y-132990866D01*
X73184610Y-133194396D01*
X73093263Y-133414926D01*
X73037538Y-133647034D01*
X73037539Y-133647034D01*
X73018811Y-133885000D01*
X73037539Y-134122966D01*
X73093263Y-134355073D01*
X73184611Y-134575605D01*
X73184612Y-134575606D01*
X73187429Y-134580203D01*
X73206000Y-134646044D01*
X73206000Y-135435766D01*
X73185998Y-135503887D01*
X73159934Y-135533165D01*
X73104148Y-135578947D01*
X72977120Y-135733733D01*
X72882734Y-135910316D01*
X72882732Y-135910322D01*
X72824606Y-136101936D01*
X72824606Y-136101939D01*
X72809900Y-136251257D01*
X72809900Y-137052742D01*
X72824606Y-137202060D01*
X72824606Y-137202063D01*
X72882732Y-137393677D01*
X72882734Y-137393683D01*
X72977120Y-137570266D01*
X72977122Y-137570269D01*
X73104148Y-137725052D01*
X73258931Y-137852078D01*
X73258933Y-137852079D01*
X73426560Y-137941678D01*
X73477208Y-137991430D01*
X73492918Y-138060667D01*
X73468702Y-138127406D01*
X73426560Y-138163922D01*
X73258933Y-138253520D01*
X73104148Y-138380548D01*
X72977120Y-138535333D01*
X72882734Y-138711916D01*
X72882732Y-138711922D01*
X72824606Y-138903536D01*
X72824606Y-138903539D01*
X72809900Y-139052857D01*
X72809900Y-139854342D01*
X72824606Y-140003660D01*
X72824606Y-140003663D01*
X72882732Y-140195277D01*
X72882734Y-140195283D01*
X72943328Y-140308645D01*
X72957800Y-140378151D01*
X72932396Y-140444447D01*
X72921301Y-140457136D01*
X71861759Y-141516678D01*
X71799447Y-141550704D01*
X71781653Y-141553262D01*
X71574203Y-141568100D01*
X71574066Y-141566193D01*
X71511607Y-141557186D01*
X71457972Y-141510669D01*
X71438000Y-141442595D01*
X71438000Y-139239792D01*
X71458002Y-139171671D01*
X71474902Y-139150699D01*
X71492652Y-139132950D01*
X71622479Y-138945554D01*
X71716760Y-138737989D01*
X71772463Y-138516925D01*
X71783000Y-138383042D01*
X71783000Y-136952958D01*
X71772463Y-136819075D01*
X71716760Y-136598011D01*
X71622479Y-136390446D01*
X71622477Y-136390443D01*
X71622475Y-136390439D01*
X71596427Y-136352840D01*
X71574076Y-136285454D01*
X71574000Y-136281087D01*
X71574000Y-134646044D01*
X71592571Y-134580203D01*
X71595389Y-134575605D01*
X71686737Y-134355073D01*
X71742461Y-134122966D01*
X71761189Y-133885000D01*
X71742461Y-133647034D01*
X71686737Y-133414927D01*
X71595389Y-133194395D01*
X71470668Y-132990868D01*
X71470665Y-132990864D01*
X71315643Y-132809356D01*
X71134135Y-132654334D01*
X71134133Y-132654333D01*
X71134132Y-132654332D01*
X70930605Y-132529611D01*
X70710073Y-132438263D01*
X70477966Y-132382539D01*
X70240000Y-132363811D01*
X70002034Y-132382539D01*
X69769926Y-132438263D01*
X69549396Y-132529610D01*
X69345866Y-132654333D01*
X69345864Y-132654334D01*
X69164356Y-132809356D01*
X69009334Y-132990864D01*
X69009333Y-132990866D01*
X68884610Y-133194396D01*
X68793263Y-133414926D01*
X68737538Y-133647033D01*
X68737539Y-133647034D01*
X68718811Y-133885000D01*
X68737539Y-134122966D01*
X68793263Y-134355073D01*
X68884611Y-134575605D01*
X68884612Y-134575606D01*
X68887429Y-134580203D01*
X68906000Y-134646044D01*
X68906000Y-135960207D01*
X68885998Y-136028328D01*
X68869095Y-136049302D01*
X68715357Y-136203039D01*
X68715349Y-136203048D01*
X68585518Y-136390450D01*
X68491242Y-136598005D01*
X68491239Y-136598014D01*
X68466194Y-136697408D01*
X68430153Y-136758577D01*
X68366763Y-136790550D01*
X68296151Y-136783177D01*
X68240734Y-136738798D01*
X68225042Y-136705106D01*
X68224637Y-136705262D01*
X68222394Y-136699419D01*
X68222306Y-136699230D01*
X68222270Y-136699098D01*
X68137812Y-136533341D01*
X68137811Y-136533338D01*
X68020736Y-136388763D01*
X67876161Y-136271688D01*
X67876158Y-136271687D01*
X67710402Y-136187230D01*
X67530710Y-136139082D01*
X67453439Y-136133000D01*
X67233000Y-136133000D01*
X67233000Y-139203000D01*
X66725000Y-139203000D01*
X66725000Y-137922000D01*
X65681500Y-137922000D01*
X51000000Y-137922000D01*
X51000000Y-137414000D01*
X65681500Y-137414000D01*
X66725000Y-137414000D01*
X66725000Y-136133000D01*
X66504561Y-136133000D01*
X66427289Y-136139082D01*
X66247597Y-136187230D01*
X66081841Y-136271687D01*
X66081838Y-136271688D01*
X65937263Y-136388763D01*
X65820188Y-136533338D01*
X65820187Y-136533341D01*
X65735730Y-136699097D01*
X65687582Y-136878789D01*
X65681500Y-136956061D01*
X65681500Y-137414000D01*
X51000000Y-137414000D01*
X51000000Y-101126000D01*
X51020002Y-101057879D01*
X51073658Y-101011386D01*
X51126000Y-101000000D01*
X55943822Y-101000000D01*
X56011943Y-101020002D01*
G37*
%TD.AperFunction*%
%TD*%
M02*
