%TF.GenerationSoftware,KiCad,Pcbnew,7.0.5-0*%
%TF.CreationDate,2023-07-05T09:28:37-04:00*%
%TF.ProjectId,quad_sipm,71756164-5f73-4697-906d-2e6b69636164,rev?*%
%TF.SameCoordinates,Original*%
%TF.FileFunction,Legend,Top*%
%TF.FilePolarity,Positive*%
%FSLAX46Y46*%
G04 Gerber Fmt 4.6, Leading zero omitted, Abs format (unit mm)*
G04 Created by KiCad (PCBNEW 7.0.5-0) date 2023-07-05 09:28:37*
%MOMM*%
%LPD*%
G01*
G04 APERTURE LIST*
%ADD10C,0.120000*%
%ADD11C,0.100000*%
%ADD12C,0.150000*%
G04 APERTURE END LIST*
D10*
X51000000Y-100000000D02*
X149000000Y-100000000D01*
X100000000Y-51000000D02*
X100000000Y-149000000D01*
D11*
%TO.C,D4*%
X77847419Y-73128094D02*
X76847419Y-73128094D01*
X76847419Y-73128094D02*
X76847419Y-72889999D01*
X76847419Y-72889999D02*
X76895038Y-72747142D01*
X76895038Y-72747142D02*
X76990276Y-72651904D01*
X76990276Y-72651904D02*
X77085514Y-72604285D01*
X77085514Y-72604285D02*
X77275990Y-72556666D01*
X77275990Y-72556666D02*
X77418847Y-72556666D01*
X77418847Y-72556666D02*
X77609323Y-72604285D01*
X77609323Y-72604285D02*
X77704561Y-72651904D01*
X77704561Y-72651904D02*
X77799800Y-72747142D01*
X77799800Y-72747142D02*
X77847419Y-72889999D01*
X77847419Y-72889999D02*
X77847419Y-73128094D01*
X77180752Y-71699523D02*
X77847419Y-71699523D01*
X76799800Y-71937618D02*
X77514085Y-72175713D01*
X77514085Y-72175713D02*
X77514085Y-71556666D01*
%TO.C,D3*%
X133092419Y-73128094D02*
X132092419Y-73128094D01*
X132092419Y-73128094D02*
X132092419Y-72889999D01*
X132092419Y-72889999D02*
X132140038Y-72747142D01*
X132140038Y-72747142D02*
X132235276Y-72651904D01*
X132235276Y-72651904D02*
X132330514Y-72604285D01*
X132330514Y-72604285D02*
X132520990Y-72556666D01*
X132520990Y-72556666D02*
X132663847Y-72556666D01*
X132663847Y-72556666D02*
X132854323Y-72604285D01*
X132854323Y-72604285D02*
X132949561Y-72651904D01*
X132949561Y-72651904D02*
X133044800Y-72747142D01*
X133044800Y-72747142D02*
X133092419Y-72889999D01*
X133092419Y-72889999D02*
X133092419Y-73128094D01*
X132092419Y-72223332D02*
X132092419Y-71604285D01*
X132092419Y-71604285D02*
X132473371Y-71937618D01*
X132473371Y-71937618D02*
X132473371Y-71794761D01*
X132473371Y-71794761D02*
X132520990Y-71699523D01*
X132520990Y-71699523D02*
X132568609Y-71651904D01*
X132568609Y-71651904D02*
X132663847Y-71604285D01*
X132663847Y-71604285D02*
X132901942Y-71604285D01*
X132901942Y-71604285D02*
X132997180Y-71651904D01*
X132997180Y-71651904D02*
X133044800Y-71699523D01*
X133044800Y-71699523D02*
X133092419Y-71794761D01*
X133092419Y-71794761D02*
X133092419Y-72080475D01*
X133092419Y-72080475D02*
X133044800Y-72175713D01*
X133044800Y-72175713D02*
X132997180Y-72223332D01*
%TO.C,D2*%
X66932580Y-126896905D02*
X67932580Y-126896905D01*
X67932580Y-126896905D02*
X67932580Y-127135000D01*
X67932580Y-127135000D02*
X67884961Y-127277857D01*
X67884961Y-127277857D02*
X67789723Y-127373095D01*
X67789723Y-127373095D02*
X67694485Y-127420714D01*
X67694485Y-127420714D02*
X67504009Y-127468333D01*
X67504009Y-127468333D02*
X67361152Y-127468333D01*
X67361152Y-127468333D02*
X67170676Y-127420714D01*
X67170676Y-127420714D02*
X67075438Y-127373095D01*
X67075438Y-127373095D02*
X66980200Y-127277857D01*
X66980200Y-127277857D02*
X66932580Y-127135000D01*
X66932580Y-127135000D02*
X66932580Y-126896905D01*
X67837342Y-127849286D02*
X67884961Y-127896905D01*
X67884961Y-127896905D02*
X67932580Y-127992143D01*
X67932580Y-127992143D02*
X67932580Y-128230238D01*
X67932580Y-128230238D02*
X67884961Y-128325476D01*
X67884961Y-128325476D02*
X67837342Y-128373095D01*
X67837342Y-128373095D02*
X67742104Y-128420714D01*
X67742104Y-128420714D02*
X67646866Y-128420714D01*
X67646866Y-128420714D02*
X67504009Y-128373095D01*
X67504009Y-128373095D02*
X66932580Y-127801667D01*
X66932580Y-127801667D02*
X66932580Y-128420714D01*
%TO.C,D1*%
X122177580Y-126896905D02*
X123177580Y-126896905D01*
X123177580Y-126896905D02*
X123177580Y-127135000D01*
X123177580Y-127135000D02*
X123129961Y-127277857D01*
X123129961Y-127277857D02*
X123034723Y-127373095D01*
X123034723Y-127373095D02*
X122939485Y-127420714D01*
X122939485Y-127420714D02*
X122749009Y-127468333D01*
X122749009Y-127468333D02*
X122606152Y-127468333D01*
X122606152Y-127468333D02*
X122415676Y-127420714D01*
X122415676Y-127420714D02*
X122320438Y-127373095D01*
X122320438Y-127373095D02*
X122225200Y-127277857D01*
X122225200Y-127277857D02*
X122177580Y-127135000D01*
X122177580Y-127135000D02*
X122177580Y-126896905D01*
X122177580Y-128420714D02*
X122177580Y-127849286D01*
X122177580Y-128135000D02*
X123177580Y-128135000D01*
X123177580Y-128135000D02*
X123034723Y-128039762D01*
X123034723Y-128039762D02*
X122939485Y-127944524D01*
X122939485Y-127944524D02*
X122891866Y-127849286D01*
D12*
%TO.C,H2*%
X99238095Y-91054819D02*
X99238095Y-90054819D01*
X99238095Y-90531009D02*
X99809523Y-90531009D01*
X99809523Y-91054819D02*
X99809523Y-90054819D01*
X100238095Y-90150057D02*
X100285714Y-90102438D01*
X100285714Y-90102438D02*
X100380952Y-90054819D01*
X100380952Y-90054819D02*
X100619047Y-90054819D01*
X100619047Y-90054819D02*
X100714285Y-90102438D01*
X100714285Y-90102438D02*
X100761904Y-90150057D01*
X100761904Y-90150057D02*
X100809523Y-90245295D01*
X100809523Y-90245295D02*
X100809523Y-90340533D01*
X100809523Y-90340533D02*
X100761904Y-90483390D01*
X100761904Y-90483390D02*
X100190476Y-91054819D01*
X100190476Y-91054819D02*
X100809523Y-91054819D01*
%TO.C,H3*%
X99238095Y-128054819D02*
X99238095Y-127054819D01*
X99238095Y-127531009D02*
X99809523Y-127531009D01*
X99809523Y-128054819D02*
X99809523Y-127054819D01*
X100190476Y-127054819D02*
X100809523Y-127054819D01*
X100809523Y-127054819D02*
X100476190Y-127435771D01*
X100476190Y-127435771D02*
X100619047Y-127435771D01*
X100619047Y-127435771D02*
X100714285Y-127483390D01*
X100714285Y-127483390D02*
X100761904Y-127531009D01*
X100761904Y-127531009D02*
X100809523Y-127626247D01*
X100809523Y-127626247D02*
X100809523Y-127864342D01*
X100809523Y-127864342D02*
X100761904Y-127959580D01*
X100761904Y-127959580D02*
X100714285Y-128007200D01*
X100714285Y-128007200D02*
X100619047Y-128054819D01*
X100619047Y-128054819D02*
X100333333Y-128054819D01*
X100333333Y-128054819D02*
X100238095Y-128007200D01*
X100238095Y-128007200D02*
X100190476Y-127959580D01*
%TO.C,H4*%
X136238095Y-91054819D02*
X136238095Y-90054819D01*
X136238095Y-90531009D02*
X136809523Y-90531009D01*
X136809523Y-91054819D02*
X136809523Y-90054819D01*
X137714285Y-90388152D02*
X137714285Y-91054819D01*
X137476190Y-90007200D02*
X137238095Y-90721485D01*
X137238095Y-90721485D02*
X137857142Y-90721485D01*
%TO.C,H5*%
X62238095Y-91054819D02*
X62238095Y-90054819D01*
X62238095Y-90531009D02*
X62809523Y-90531009D01*
X62809523Y-91054819D02*
X62809523Y-90054819D01*
X63761904Y-90054819D02*
X63285714Y-90054819D01*
X63285714Y-90054819D02*
X63238095Y-90531009D01*
X63238095Y-90531009D02*
X63285714Y-90483390D01*
X63285714Y-90483390D02*
X63380952Y-90435771D01*
X63380952Y-90435771D02*
X63619047Y-90435771D01*
X63619047Y-90435771D02*
X63714285Y-90483390D01*
X63714285Y-90483390D02*
X63761904Y-90531009D01*
X63761904Y-90531009D02*
X63809523Y-90626247D01*
X63809523Y-90626247D02*
X63809523Y-90864342D01*
X63809523Y-90864342D02*
X63761904Y-90959580D01*
X63761904Y-90959580D02*
X63714285Y-91007200D01*
X63714285Y-91007200D02*
X63619047Y-91054819D01*
X63619047Y-91054819D02*
X63380952Y-91054819D01*
X63380952Y-91054819D02*
X63285714Y-91007200D01*
X63285714Y-91007200D02*
X63238095Y-90959580D01*
%TO.C,H1*%
X99238095Y-54054819D02*
X99238095Y-53054819D01*
X99238095Y-53531009D02*
X99809523Y-53531009D01*
X99809523Y-54054819D02*
X99809523Y-53054819D01*
X100809523Y-54054819D02*
X100238095Y-54054819D01*
X100523809Y-54054819D02*
X100523809Y-53054819D01*
X100523809Y-53054819D02*
X100428571Y-53197676D01*
X100428571Y-53197676D02*
X100333333Y-53292914D01*
X100333333Y-53292914D02*
X100238095Y-53340533D01*
D11*
%TO.C,D4*%
X68890000Y-76090000D02*
X75890000Y-76090000D01*
X75890000Y-76090000D02*
X75890000Y-68690000D01*
X72690000Y-69640000D02*
X72690000Y-70540000D01*
X68890000Y-68690000D02*
X68890000Y-76090000D01*
X75890000Y-68690000D02*
X68890000Y-68690000D01*
X71140000Y-71340000D02*
G75*
G03*
X71140000Y-71340000I0J0D01*
G01*
X72690000Y-70090000D02*
X72090000Y-70490000D01*
X72090000Y-69690000D01*
X72690000Y-70090000D01*
G36*
X72690000Y-70090000D02*
G01*
X72090000Y-70490000D01*
X72090000Y-69690000D01*
X72690000Y-70090000D01*
G37*
%TO.C,D3*%
X124135000Y-76090000D02*
X131135000Y-76090000D01*
X131135000Y-76090000D02*
X131135000Y-68690000D01*
X127935000Y-69640000D02*
X127935000Y-70540000D01*
X124135000Y-68690000D02*
X124135000Y-76090000D01*
X131135000Y-68690000D02*
X124135000Y-68690000D01*
X126385000Y-71340000D02*
G75*
G03*
X126385000Y-71340000I0J0D01*
G01*
X127935000Y-70090000D02*
X127335000Y-70490000D01*
X127335000Y-69690000D01*
X127935000Y-70090000D01*
G36*
X127935000Y-70090000D02*
G01*
X127335000Y-70490000D01*
X127335000Y-69690000D01*
X127935000Y-70090000D01*
G37*
%TO.C,D2*%
X75890000Y-123935000D02*
X68890000Y-123935000D01*
X68890000Y-123935000D02*
X68890000Y-131335000D01*
X72090000Y-130385000D02*
X72090000Y-129485000D01*
X75890000Y-131335000D02*
X75890000Y-123935000D01*
X68890000Y-131335000D02*
X75890000Y-131335000D01*
X73640000Y-128685000D02*
G75*
G03*
X73640000Y-128685000I0J0D01*
G01*
X72690000Y-130335000D02*
X72090000Y-129935000D01*
X72690000Y-129535000D01*
X72690000Y-130335000D01*
G36*
X72690000Y-130335000D02*
G01*
X72090000Y-129935000D01*
X72690000Y-129535000D01*
X72690000Y-130335000D01*
G37*
%TO.C,D1*%
X131135000Y-123935000D02*
X124135000Y-123935000D01*
X124135000Y-123935000D02*
X124135000Y-131335000D01*
X127335000Y-130385000D02*
X127335000Y-129485000D01*
X131135000Y-131335000D02*
X131135000Y-123935000D01*
X124135000Y-131335000D02*
X131135000Y-131335000D01*
X128885000Y-128685000D02*
G75*
G03*
X128885000Y-128685000I0J0D01*
G01*
X127935000Y-130335000D02*
X127335000Y-129935000D01*
X127935000Y-129535000D01*
X127935000Y-130335000D01*
G36*
X127935000Y-130335000D02*
G01*
X127335000Y-129935000D01*
X127935000Y-129535000D01*
X127935000Y-130335000D01*
G37*
%TD*%
M02*
