%TF.GenerationSoftware,KiCad,Pcbnew,7.0.5-0*%
%TF.CreationDate,2023-06-12T10:58:38-04:00*%
%TF.ProjectId,quad_sipm,71756164-5f73-4697-906d-2e6b69636164,rev?*%
%TF.SameCoordinates,Original*%
%TF.FileFunction,Legend,Bot*%
%TF.FilePolarity,Positive*%
%FSLAX46Y46*%
G04 Gerber Fmt 4.6, Leading zero omitted, Abs format (unit mm)*
G04 Created by KiCad (PCBNEW 7.0.5-0) date 2023-06-12 10:58:38*
%MOMM*%
%LPD*%
G01*
G04 APERTURE LIST*
%ADD10C,0.150000*%
%ADD11C,0.203200*%
%ADD12C,0.120000*%
G04 APERTURE END LIST*
D10*
X130709580Y-51809999D02*
X130757200Y-51762380D01*
X130757200Y-51762380D02*
X130804819Y-51619523D01*
X130804819Y-51619523D02*
X130804819Y-51524285D01*
X130804819Y-51524285D02*
X130757200Y-51381428D01*
X130757200Y-51381428D02*
X130661961Y-51286190D01*
X130661961Y-51286190D02*
X130566723Y-51238571D01*
X130566723Y-51238571D02*
X130376247Y-51190952D01*
X130376247Y-51190952D02*
X130233390Y-51190952D01*
X130233390Y-51190952D02*
X130042914Y-51238571D01*
X130042914Y-51238571D02*
X129947676Y-51286190D01*
X129947676Y-51286190D02*
X129852438Y-51381428D01*
X129852438Y-51381428D02*
X129804819Y-51524285D01*
X129804819Y-51524285D02*
X129804819Y-51619523D01*
X129804819Y-51619523D02*
X129852438Y-51762380D01*
X129852438Y-51762380D02*
X129900057Y-51809999D01*
X130519104Y-52190952D02*
X130519104Y-52667142D01*
X130804819Y-52095714D02*
X129804819Y-52429047D01*
X129804819Y-52429047D02*
X130804819Y-52762380D01*
X129804819Y-52952857D02*
X129804819Y-53524285D01*
X130804819Y-53238571D02*
X129804819Y-53238571D01*
X130804819Y-53857619D02*
X129804819Y-53857619D01*
X130281009Y-53857619D02*
X130281009Y-54429047D01*
X130804819Y-54429047D02*
X129804819Y-54429047D01*
X129804819Y-55095714D02*
X129804819Y-55286190D01*
X129804819Y-55286190D02*
X129852438Y-55381428D01*
X129852438Y-55381428D02*
X129947676Y-55476666D01*
X129947676Y-55476666D02*
X130138152Y-55524285D01*
X130138152Y-55524285D02*
X130471485Y-55524285D01*
X130471485Y-55524285D02*
X130661961Y-55476666D01*
X130661961Y-55476666D02*
X130757200Y-55381428D01*
X130757200Y-55381428D02*
X130804819Y-55286190D01*
X130804819Y-55286190D02*
X130804819Y-55095714D01*
X130804819Y-55095714D02*
X130757200Y-55000476D01*
X130757200Y-55000476D02*
X130661961Y-54905238D01*
X130661961Y-54905238D02*
X130471485Y-54857619D01*
X130471485Y-54857619D02*
X130138152Y-54857619D01*
X130138152Y-54857619D02*
X129947676Y-54905238D01*
X129947676Y-54905238D02*
X129852438Y-55000476D01*
X129852438Y-55000476D02*
X129804819Y-55095714D01*
X130804819Y-55952857D02*
X129804819Y-55952857D01*
X129804819Y-55952857D02*
X129804819Y-56190952D01*
X129804819Y-56190952D02*
X129852438Y-56333809D01*
X129852438Y-56333809D02*
X129947676Y-56429047D01*
X129947676Y-56429047D02*
X130042914Y-56476666D01*
X130042914Y-56476666D02*
X130233390Y-56524285D01*
X130233390Y-56524285D02*
X130376247Y-56524285D01*
X130376247Y-56524285D02*
X130566723Y-56476666D01*
X130566723Y-56476666D02*
X130661961Y-56429047D01*
X130661961Y-56429047D02*
X130757200Y-56333809D01*
X130757200Y-56333809D02*
X130804819Y-56190952D01*
X130804819Y-56190952D02*
X130804819Y-55952857D01*
X130281009Y-56952857D02*
X130281009Y-57286190D01*
X130804819Y-57429047D02*
X130804819Y-56952857D01*
X130804819Y-56952857D02*
X129804819Y-56952857D01*
X129804819Y-56952857D02*
X129804819Y-57429047D01*
X124677438Y-52133095D02*
X124629819Y-52037857D01*
X124629819Y-52037857D02*
X124629819Y-51895000D01*
X124629819Y-51895000D02*
X124677438Y-51752143D01*
X124677438Y-51752143D02*
X124772676Y-51656905D01*
X124772676Y-51656905D02*
X124867914Y-51609286D01*
X124867914Y-51609286D02*
X125058390Y-51561667D01*
X125058390Y-51561667D02*
X125201247Y-51561667D01*
X125201247Y-51561667D02*
X125391723Y-51609286D01*
X125391723Y-51609286D02*
X125486961Y-51656905D01*
X125486961Y-51656905D02*
X125582200Y-51752143D01*
X125582200Y-51752143D02*
X125629819Y-51895000D01*
X125629819Y-51895000D02*
X125629819Y-51990238D01*
X125629819Y-51990238D02*
X125582200Y-52133095D01*
X125582200Y-52133095D02*
X125534580Y-52180714D01*
X125534580Y-52180714D02*
X125201247Y-52180714D01*
X125201247Y-52180714D02*
X125201247Y-51990238D01*
X125629819Y-52609286D02*
X124629819Y-52609286D01*
X124629819Y-52609286D02*
X125629819Y-53180714D01*
X125629819Y-53180714D02*
X124629819Y-53180714D01*
X125629819Y-53656905D02*
X124629819Y-53656905D01*
X124629819Y-53656905D02*
X124629819Y-53895000D01*
X124629819Y-53895000D02*
X124677438Y-54037857D01*
X124677438Y-54037857D02*
X124772676Y-54133095D01*
X124772676Y-54133095D02*
X124867914Y-54180714D01*
X124867914Y-54180714D02*
X125058390Y-54228333D01*
X125058390Y-54228333D02*
X125201247Y-54228333D01*
X125201247Y-54228333D02*
X125391723Y-54180714D01*
X125391723Y-54180714D02*
X125486961Y-54133095D01*
X125486961Y-54133095D02*
X125582200Y-54037857D01*
X125582200Y-54037857D02*
X125629819Y-53895000D01*
X125629819Y-53895000D02*
X125629819Y-53656905D01*
X127979104Y-51436905D02*
X127979104Y-51913095D01*
X128264819Y-51341667D02*
X127264819Y-51675000D01*
X127264819Y-51675000D02*
X128264819Y-52008333D01*
X128264819Y-52341667D02*
X127264819Y-52341667D01*
X127264819Y-52341667D02*
X128264819Y-52913095D01*
X128264819Y-52913095D02*
X127264819Y-52913095D01*
X127264819Y-53579762D02*
X127264819Y-53770238D01*
X127264819Y-53770238D02*
X127312438Y-53865476D01*
X127312438Y-53865476D02*
X127407676Y-53960714D01*
X127407676Y-53960714D02*
X127598152Y-54008333D01*
X127598152Y-54008333D02*
X127931485Y-54008333D01*
X127931485Y-54008333D02*
X128121961Y-53960714D01*
X128121961Y-53960714D02*
X128217200Y-53865476D01*
X128217200Y-53865476D02*
X128264819Y-53770238D01*
X128264819Y-53770238D02*
X128264819Y-53579762D01*
X128264819Y-53579762D02*
X128217200Y-53484524D01*
X128217200Y-53484524D02*
X128121961Y-53389286D01*
X128121961Y-53389286D02*
X127931485Y-53341667D01*
X127931485Y-53341667D02*
X127598152Y-53341667D01*
X127598152Y-53341667D02*
X127407676Y-53389286D01*
X127407676Y-53389286D02*
X127312438Y-53484524D01*
X127312438Y-53484524D02*
X127264819Y-53579762D01*
X128264819Y-54436905D02*
X127264819Y-54436905D01*
X127264819Y-54436905D02*
X127264819Y-54675000D01*
X127264819Y-54675000D02*
X127312438Y-54817857D01*
X127312438Y-54817857D02*
X127407676Y-54913095D01*
X127407676Y-54913095D02*
X127502914Y-54960714D01*
X127502914Y-54960714D02*
X127693390Y-55008333D01*
X127693390Y-55008333D02*
X127836247Y-55008333D01*
X127836247Y-55008333D02*
X128026723Y-54960714D01*
X128026723Y-54960714D02*
X128121961Y-54913095D01*
X128121961Y-54913095D02*
X128217200Y-54817857D01*
X128217200Y-54817857D02*
X128264819Y-54675000D01*
X128264819Y-54675000D02*
X128264819Y-54436905D01*
X127741009Y-55436905D02*
X127741009Y-55770238D01*
X128264819Y-55913095D02*
X128264819Y-55436905D01*
X128264819Y-55436905D02*
X127264819Y-55436905D01*
X127264819Y-55436905D02*
X127264819Y-55913095D01*
X68162438Y-142938095D02*
X68114819Y-142842857D01*
X68114819Y-142842857D02*
X68114819Y-142700000D01*
X68114819Y-142700000D02*
X68162438Y-142557143D01*
X68162438Y-142557143D02*
X68257676Y-142461905D01*
X68257676Y-142461905D02*
X68352914Y-142414286D01*
X68352914Y-142414286D02*
X68543390Y-142366667D01*
X68543390Y-142366667D02*
X68686247Y-142366667D01*
X68686247Y-142366667D02*
X68876723Y-142414286D01*
X68876723Y-142414286D02*
X68971961Y-142461905D01*
X68971961Y-142461905D02*
X69067200Y-142557143D01*
X69067200Y-142557143D02*
X69114819Y-142700000D01*
X69114819Y-142700000D02*
X69114819Y-142795238D01*
X69114819Y-142795238D02*
X69067200Y-142938095D01*
X69067200Y-142938095D02*
X69019580Y-142985714D01*
X69019580Y-142985714D02*
X68686247Y-142985714D01*
X68686247Y-142985714D02*
X68686247Y-142795238D01*
X69114819Y-143414286D02*
X68114819Y-143414286D01*
X68114819Y-143414286D02*
X69114819Y-143985714D01*
X69114819Y-143985714D02*
X68114819Y-143985714D01*
X69114819Y-144461905D02*
X68114819Y-144461905D01*
X68114819Y-144461905D02*
X68114819Y-144700000D01*
X68114819Y-144700000D02*
X68162438Y-144842857D01*
X68162438Y-144842857D02*
X68257676Y-144938095D01*
X68257676Y-144938095D02*
X68352914Y-144985714D01*
X68352914Y-144985714D02*
X68543390Y-145033333D01*
X68543390Y-145033333D02*
X68686247Y-145033333D01*
X68686247Y-145033333D02*
X68876723Y-144985714D01*
X68876723Y-144985714D02*
X68971961Y-144938095D01*
X68971961Y-144938095D02*
X69067200Y-144842857D01*
X69067200Y-144842857D02*
X69114819Y-144700000D01*
X69114819Y-144700000D02*
X69114819Y-144461905D01*
X71464104Y-142241905D02*
X71464104Y-142718095D01*
X71749819Y-142146667D02*
X70749819Y-142480000D01*
X70749819Y-142480000D02*
X71749819Y-142813333D01*
X71749819Y-143146667D02*
X70749819Y-143146667D01*
X70749819Y-143146667D02*
X71749819Y-143718095D01*
X71749819Y-143718095D02*
X70749819Y-143718095D01*
X70749819Y-144384762D02*
X70749819Y-144575238D01*
X70749819Y-144575238D02*
X70797438Y-144670476D01*
X70797438Y-144670476D02*
X70892676Y-144765714D01*
X70892676Y-144765714D02*
X71083152Y-144813333D01*
X71083152Y-144813333D02*
X71416485Y-144813333D01*
X71416485Y-144813333D02*
X71606961Y-144765714D01*
X71606961Y-144765714D02*
X71702200Y-144670476D01*
X71702200Y-144670476D02*
X71749819Y-144575238D01*
X71749819Y-144575238D02*
X71749819Y-144384762D01*
X71749819Y-144384762D02*
X71702200Y-144289524D01*
X71702200Y-144289524D02*
X71606961Y-144194286D01*
X71606961Y-144194286D02*
X71416485Y-144146667D01*
X71416485Y-144146667D02*
X71083152Y-144146667D01*
X71083152Y-144146667D02*
X70892676Y-144194286D01*
X70892676Y-144194286D02*
X70797438Y-144289524D01*
X70797438Y-144289524D02*
X70749819Y-144384762D01*
X71749819Y-145241905D02*
X70749819Y-145241905D01*
X70749819Y-145241905D02*
X70749819Y-145480000D01*
X70749819Y-145480000D02*
X70797438Y-145622857D01*
X70797438Y-145622857D02*
X70892676Y-145718095D01*
X70892676Y-145718095D02*
X70987914Y-145765714D01*
X70987914Y-145765714D02*
X71178390Y-145813333D01*
X71178390Y-145813333D02*
X71321247Y-145813333D01*
X71321247Y-145813333D02*
X71511723Y-145765714D01*
X71511723Y-145765714D02*
X71606961Y-145718095D01*
X71606961Y-145718095D02*
X71702200Y-145622857D01*
X71702200Y-145622857D02*
X71749819Y-145480000D01*
X71749819Y-145480000D02*
X71749819Y-145241905D01*
X71226009Y-146241905D02*
X71226009Y-146575238D01*
X71749819Y-146718095D02*
X71749819Y-146241905D01*
X71749819Y-146241905D02*
X70749819Y-146241905D01*
X70749819Y-146241905D02*
X70749819Y-146718095D01*
X74194580Y-52444999D02*
X74242200Y-52397380D01*
X74242200Y-52397380D02*
X74289819Y-52254523D01*
X74289819Y-52254523D02*
X74289819Y-52159285D01*
X74289819Y-52159285D02*
X74242200Y-52016428D01*
X74242200Y-52016428D02*
X74146961Y-51921190D01*
X74146961Y-51921190D02*
X74051723Y-51873571D01*
X74051723Y-51873571D02*
X73861247Y-51825952D01*
X73861247Y-51825952D02*
X73718390Y-51825952D01*
X73718390Y-51825952D02*
X73527914Y-51873571D01*
X73527914Y-51873571D02*
X73432676Y-51921190D01*
X73432676Y-51921190D02*
X73337438Y-52016428D01*
X73337438Y-52016428D02*
X73289819Y-52159285D01*
X73289819Y-52159285D02*
X73289819Y-52254523D01*
X73289819Y-52254523D02*
X73337438Y-52397380D01*
X73337438Y-52397380D02*
X73385057Y-52444999D01*
X74004104Y-52825952D02*
X74004104Y-53302142D01*
X74289819Y-52730714D02*
X73289819Y-53064047D01*
X73289819Y-53064047D02*
X74289819Y-53397380D01*
X73289819Y-53587857D02*
X73289819Y-54159285D01*
X74289819Y-53873571D02*
X73289819Y-53873571D01*
X74289819Y-54492619D02*
X73289819Y-54492619D01*
X73766009Y-54492619D02*
X73766009Y-55064047D01*
X74289819Y-55064047D02*
X73289819Y-55064047D01*
X73289819Y-55730714D02*
X73289819Y-55921190D01*
X73289819Y-55921190D02*
X73337438Y-56016428D01*
X73337438Y-56016428D02*
X73432676Y-56111666D01*
X73432676Y-56111666D02*
X73623152Y-56159285D01*
X73623152Y-56159285D02*
X73956485Y-56159285D01*
X73956485Y-56159285D02*
X74146961Y-56111666D01*
X74146961Y-56111666D02*
X74242200Y-56016428D01*
X74242200Y-56016428D02*
X74289819Y-55921190D01*
X74289819Y-55921190D02*
X74289819Y-55730714D01*
X74289819Y-55730714D02*
X74242200Y-55635476D01*
X74242200Y-55635476D02*
X74146961Y-55540238D01*
X74146961Y-55540238D02*
X73956485Y-55492619D01*
X73956485Y-55492619D02*
X73623152Y-55492619D01*
X73623152Y-55492619D02*
X73432676Y-55540238D01*
X73432676Y-55540238D02*
X73337438Y-55635476D01*
X73337438Y-55635476D02*
X73289819Y-55730714D01*
X74289819Y-56587857D02*
X73289819Y-56587857D01*
X73289819Y-56587857D02*
X73289819Y-56825952D01*
X73289819Y-56825952D02*
X73337438Y-56968809D01*
X73337438Y-56968809D02*
X73432676Y-57064047D01*
X73432676Y-57064047D02*
X73527914Y-57111666D01*
X73527914Y-57111666D02*
X73718390Y-57159285D01*
X73718390Y-57159285D02*
X73861247Y-57159285D01*
X73861247Y-57159285D02*
X74051723Y-57111666D01*
X74051723Y-57111666D02*
X74146961Y-57064047D01*
X74146961Y-57064047D02*
X74242200Y-56968809D01*
X74242200Y-56968809D02*
X74289819Y-56825952D01*
X74289819Y-56825952D02*
X74289819Y-56587857D01*
X73766009Y-57587857D02*
X73766009Y-57921190D01*
X74289819Y-58064047D02*
X74289819Y-57587857D01*
X74289819Y-57587857D02*
X73289819Y-57587857D01*
X73289819Y-57587857D02*
X73289819Y-58064047D01*
X71464104Y-52071905D02*
X71464104Y-52548095D01*
X71749819Y-51976667D02*
X70749819Y-52310000D01*
X70749819Y-52310000D02*
X71749819Y-52643333D01*
X71749819Y-52976667D02*
X70749819Y-52976667D01*
X70749819Y-52976667D02*
X71749819Y-53548095D01*
X71749819Y-53548095D02*
X70749819Y-53548095D01*
X70749819Y-54214762D02*
X70749819Y-54405238D01*
X70749819Y-54405238D02*
X70797438Y-54500476D01*
X70797438Y-54500476D02*
X70892676Y-54595714D01*
X70892676Y-54595714D02*
X71083152Y-54643333D01*
X71083152Y-54643333D02*
X71416485Y-54643333D01*
X71416485Y-54643333D02*
X71606961Y-54595714D01*
X71606961Y-54595714D02*
X71702200Y-54500476D01*
X71702200Y-54500476D02*
X71749819Y-54405238D01*
X71749819Y-54405238D02*
X71749819Y-54214762D01*
X71749819Y-54214762D02*
X71702200Y-54119524D01*
X71702200Y-54119524D02*
X71606961Y-54024286D01*
X71606961Y-54024286D02*
X71416485Y-53976667D01*
X71416485Y-53976667D02*
X71083152Y-53976667D01*
X71083152Y-53976667D02*
X70892676Y-54024286D01*
X70892676Y-54024286D02*
X70797438Y-54119524D01*
X70797438Y-54119524D02*
X70749819Y-54214762D01*
X71749819Y-55071905D02*
X70749819Y-55071905D01*
X70749819Y-55071905D02*
X70749819Y-55310000D01*
X70749819Y-55310000D02*
X70797438Y-55452857D01*
X70797438Y-55452857D02*
X70892676Y-55548095D01*
X70892676Y-55548095D02*
X70987914Y-55595714D01*
X70987914Y-55595714D02*
X71178390Y-55643333D01*
X71178390Y-55643333D02*
X71321247Y-55643333D01*
X71321247Y-55643333D02*
X71511723Y-55595714D01*
X71511723Y-55595714D02*
X71606961Y-55548095D01*
X71606961Y-55548095D02*
X71702200Y-55452857D01*
X71702200Y-55452857D02*
X71749819Y-55310000D01*
X71749819Y-55310000D02*
X71749819Y-55071905D01*
X71226009Y-56071905D02*
X71226009Y-56405238D01*
X71749819Y-56548095D02*
X71749819Y-56071905D01*
X71749819Y-56071905D02*
X70749819Y-56071905D01*
X70749819Y-56071905D02*
X70749819Y-56548095D01*
X74194580Y-142614999D02*
X74242200Y-142567380D01*
X74242200Y-142567380D02*
X74289819Y-142424523D01*
X74289819Y-142424523D02*
X74289819Y-142329285D01*
X74289819Y-142329285D02*
X74242200Y-142186428D01*
X74242200Y-142186428D02*
X74146961Y-142091190D01*
X74146961Y-142091190D02*
X74051723Y-142043571D01*
X74051723Y-142043571D02*
X73861247Y-141995952D01*
X73861247Y-141995952D02*
X73718390Y-141995952D01*
X73718390Y-141995952D02*
X73527914Y-142043571D01*
X73527914Y-142043571D02*
X73432676Y-142091190D01*
X73432676Y-142091190D02*
X73337438Y-142186428D01*
X73337438Y-142186428D02*
X73289819Y-142329285D01*
X73289819Y-142329285D02*
X73289819Y-142424523D01*
X73289819Y-142424523D02*
X73337438Y-142567380D01*
X73337438Y-142567380D02*
X73385057Y-142614999D01*
X74004104Y-142995952D02*
X74004104Y-143472142D01*
X74289819Y-142900714D02*
X73289819Y-143234047D01*
X73289819Y-143234047D02*
X74289819Y-143567380D01*
X73289819Y-143757857D02*
X73289819Y-144329285D01*
X74289819Y-144043571D02*
X73289819Y-144043571D01*
X74289819Y-144662619D02*
X73289819Y-144662619D01*
X73766009Y-144662619D02*
X73766009Y-145234047D01*
X74289819Y-145234047D02*
X73289819Y-145234047D01*
X73289819Y-145900714D02*
X73289819Y-146091190D01*
X73289819Y-146091190D02*
X73337438Y-146186428D01*
X73337438Y-146186428D02*
X73432676Y-146281666D01*
X73432676Y-146281666D02*
X73623152Y-146329285D01*
X73623152Y-146329285D02*
X73956485Y-146329285D01*
X73956485Y-146329285D02*
X74146961Y-146281666D01*
X74146961Y-146281666D02*
X74242200Y-146186428D01*
X74242200Y-146186428D02*
X74289819Y-146091190D01*
X74289819Y-146091190D02*
X74289819Y-145900714D01*
X74289819Y-145900714D02*
X74242200Y-145805476D01*
X74242200Y-145805476D02*
X74146961Y-145710238D01*
X74146961Y-145710238D02*
X73956485Y-145662619D01*
X73956485Y-145662619D02*
X73623152Y-145662619D01*
X73623152Y-145662619D02*
X73432676Y-145710238D01*
X73432676Y-145710238D02*
X73337438Y-145805476D01*
X73337438Y-145805476D02*
X73289819Y-145900714D01*
X74289819Y-146757857D02*
X73289819Y-146757857D01*
X73289819Y-146757857D02*
X73289819Y-146995952D01*
X73289819Y-146995952D02*
X73337438Y-147138809D01*
X73337438Y-147138809D02*
X73432676Y-147234047D01*
X73432676Y-147234047D02*
X73527914Y-147281666D01*
X73527914Y-147281666D02*
X73718390Y-147329285D01*
X73718390Y-147329285D02*
X73861247Y-147329285D01*
X73861247Y-147329285D02*
X74051723Y-147281666D01*
X74051723Y-147281666D02*
X74146961Y-147234047D01*
X74146961Y-147234047D02*
X74242200Y-147138809D01*
X74242200Y-147138809D02*
X74289819Y-146995952D01*
X74289819Y-146995952D02*
X74289819Y-146757857D01*
X73766009Y-147757857D02*
X73766009Y-148091190D01*
X74289819Y-148234047D02*
X74289819Y-147757857D01*
X74289819Y-147757857D02*
X73289819Y-147757857D01*
X73289819Y-147757857D02*
X73289819Y-148234047D01*
X127804104Y-142541905D02*
X127804104Y-143018095D01*
X128089819Y-142446667D02*
X127089819Y-142780000D01*
X127089819Y-142780000D02*
X128089819Y-143113333D01*
X128089819Y-143446667D02*
X127089819Y-143446667D01*
X127089819Y-143446667D02*
X128089819Y-144018095D01*
X128089819Y-144018095D02*
X127089819Y-144018095D01*
X127089819Y-144684762D02*
X127089819Y-144875238D01*
X127089819Y-144875238D02*
X127137438Y-144970476D01*
X127137438Y-144970476D02*
X127232676Y-145065714D01*
X127232676Y-145065714D02*
X127423152Y-145113333D01*
X127423152Y-145113333D02*
X127756485Y-145113333D01*
X127756485Y-145113333D02*
X127946961Y-145065714D01*
X127946961Y-145065714D02*
X128042200Y-144970476D01*
X128042200Y-144970476D02*
X128089819Y-144875238D01*
X128089819Y-144875238D02*
X128089819Y-144684762D01*
X128089819Y-144684762D02*
X128042200Y-144589524D01*
X128042200Y-144589524D02*
X127946961Y-144494286D01*
X127946961Y-144494286D02*
X127756485Y-144446667D01*
X127756485Y-144446667D02*
X127423152Y-144446667D01*
X127423152Y-144446667D02*
X127232676Y-144494286D01*
X127232676Y-144494286D02*
X127137438Y-144589524D01*
X127137438Y-144589524D02*
X127089819Y-144684762D01*
X128089819Y-145541905D02*
X127089819Y-145541905D01*
X127089819Y-145541905D02*
X127089819Y-145780000D01*
X127089819Y-145780000D02*
X127137438Y-145922857D01*
X127137438Y-145922857D02*
X127232676Y-146018095D01*
X127232676Y-146018095D02*
X127327914Y-146065714D01*
X127327914Y-146065714D02*
X127518390Y-146113333D01*
X127518390Y-146113333D02*
X127661247Y-146113333D01*
X127661247Y-146113333D02*
X127851723Y-146065714D01*
X127851723Y-146065714D02*
X127946961Y-146018095D01*
X127946961Y-146018095D02*
X128042200Y-145922857D01*
X128042200Y-145922857D02*
X128089819Y-145780000D01*
X128089819Y-145780000D02*
X128089819Y-145541905D01*
X127566009Y-146541905D02*
X127566009Y-146875238D01*
X128089819Y-147018095D02*
X128089819Y-146541905D01*
X128089819Y-146541905D02*
X127089819Y-146541905D01*
X127089819Y-146541905D02*
X127089819Y-147018095D01*
X124502438Y-143238095D02*
X124454819Y-143142857D01*
X124454819Y-143142857D02*
X124454819Y-143000000D01*
X124454819Y-143000000D02*
X124502438Y-142857143D01*
X124502438Y-142857143D02*
X124597676Y-142761905D01*
X124597676Y-142761905D02*
X124692914Y-142714286D01*
X124692914Y-142714286D02*
X124883390Y-142666667D01*
X124883390Y-142666667D02*
X125026247Y-142666667D01*
X125026247Y-142666667D02*
X125216723Y-142714286D01*
X125216723Y-142714286D02*
X125311961Y-142761905D01*
X125311961Y-142761905D02*
X125407200Y-142857143D01*
X125407200Y-142857143D02*
X125454819Y-143000000D01*
X125454819Y-143000000D02*
X125454819Y-143095238D01*
X125454819Y-143095238D02*
X125407200Y-143238095D01*
X125407200Y-143238095D02*
X125359580Y-143285714D01*
X125359580Y-143285714D02*
X125026247Y-143285714D01*
X125026247Y-143285714D02*
X125026247Y-143095238D01*
X125454819Y-143714286D02*
X124454819Y-143714286D01*
X124454819Y-143714286D02*
X125454819Y-144285714D01*
X125454819Y-144285714D02*
X124454819Y-144285714D01*
X125454819Y-144761905D02*
X124454819Y-144761905D01*
X124454819Y-144761905D02*
X124454819Y-145000000D01*
X124454819Y-145000000D02*
X124502438Y-145142857D01*
X124502438Y-145142857D02*
X124597676Y-145238095D01*
X124597676Y-145238095D02*
X124692914Y-145285714D01*
X124692914Y-145285714D02*
X124883390Y-145333333D01*
X124883390Y-145333333D02*
X125026247Y-145333333D01*
X125026247Y-145333333D02*
X125216723Y-145285714D01*
X125216723Y-145285714D02*
X125311961Y-145238095D01*
X125311961Y-145238095D02*
X125407200Y-145142857D01*
X125407200Y-145142857D02*
X125454819Y-145000000D01*
X125454819Y-145000000D02*
X125454819Y-144761905D01*
X130534580Y-142914999D02*
X130582200Y-142867380D01*
X130582200Y-142867380D02*
X130629819Y-142724523D01*
X130629819Y-142724523D02*
X130629819Y-142629285D01*
X130629819Y-142629285D02*
X130582200Y-142486428D01*
X130582200Y-142486428D02*
X130486961Y-142391190D01*
X130486961Y-142391190D02*
X130391723Y-142343571D01*
X130391723Y-142343571D02*
X130201247Y-142295952D01*
X130201247Y-142295952D02*
X130058390Y-142295952D01*
X130058390Y-142295952D02*
X129867914Y-142343571D01*
X129867914Y-142343571D02*
X129772676Y-142391190D01*
X129772676Y-142391190D02*
X129677438Y-142486428D01*
X129677438Y-142486428D02*
X129629819Y-142629285D01*
X129629819Y-142629285D02*
X129629819Y-142724523D01*
X129629819Y-142724523D02*
X129677438Y-142867380D01*
X129677438Y-142867380D02*
X129725057Y-142914999D01*
X130344104Y-143295952D02*
X130344104Y-143772142D01*
X130629819Y-143200714D02*
X129629819Y-143534047D01*
X129629819Y-143534047D02*
X130629819Y-143867380D01*
X129629819Y-144057857D02*
X129629819Y-144629285D01*
X130629819Y-144343571D02*
X129629819Y-144343571D01*
X130629819Y-144962619D02*
X129629819Y-144962619D01*
X130106009Y-144962619D02*
X130106009Y-145534047D01*
X130629819Y-145534047D02*
X129629819Y-145534047D01*
X129629819Y-146200714D02*
X129629819Y-146391190D01*
X129629819Y-146391190D02*
X129677438Y-146486428D01*
X129677438Y-146486428D02*
X129772676Y-146581666D01*
X129772676Y-146581666D02*
X129963152Y-146629285D01*
X129963152Y-146629285D02*
X130296485Y-146629285D01*
X130296485Y-146629285D02*
X130486961Y-146581666D01*
X130486961Y-146581666D02*
X130582200Y-146486428D01*
X130582200Y-146486428D02*
X130629819Y-146391190D01*
X130629819Y-146391190D02*
X130629819Y-146200714D01*
X130629819Y-146200714D02*
X130582200Y-146105476D01*
X130582200Y-146105476D02*
X130486961Y-146010238D01*
X130486961Y-146010238D02*
X130296485Y-145962619D01*
X130296485Y-145962619D02*
X129963152Y-145962619D01*
X129963152Y-145962619D02*
X129772676Y-146010238D01*
X129772676Y-146010238D02*
X129677438Y-146105476D01*
X129677438Y-146105476D02*
X129629819Y-146200714D01*
X130629819Y-147057857D02*
X129629819Y-147057857D01*
X129629819Y-147057857D02*
X129629819Y-147295952D01*
X129629819Y-147295952D02*
X129677438Y-147438809D01*
X129677438Y-147438809D02*
X129772676Y-147534047D01*
X129772676Y-147534047D02*
X129867914Y-147581666D01*
X129867914Y-147581666D02*
X130058390Y-147629285D01*
X130058390Y-147629285D02*
X130201247Y-147629285D01*
X130201247Y-147629285D02*
X130391723Y-147581666D01*
X130391723Y-147581666D02*
X130486961Y-147534047D01*
X130486961Y-147534047D02*
X130582200Y-147438809D01*
X130582200Y-147438809D02*
X130629819Y-147295952D01*
X130629819Y-147295952D02*
X130629819Y-147057857D01*
X130106009Y-148057857D02*
X130106009Y-148391190D01*
X130629819Y-148534047D02*
X130629819Y-148057857D01*
X130629819Y-148057857D02*
X129629819Y-148057857D01*
X129629819Y-148057857D02*
X129629819Y-148534047D01*
D11*
X142922744Y-79092290D02*
X142650601Y-79183004D01*
X142650601Y-79183004D02*
X142559887Y-79273718D01*
X142559887Y-79273718D02*
X142469173Y-79455147D01*
X142469173Y-79455147D02*
X142469173Y-79727290D01*
X142469173Y-79727290D02*
X142559887Y-79908718D01*
X142559887Y-79908718D02*
X142650601Y-79999433D01*
X142650601Y-79999433D02*
X142832030Y-80090147D01*
X142832030Y-80090147D02*
X143557744Y-80090147D01*
X143557744Y-80090147D02*
X143557744Y-78185147D01*
X143557744Y-78185147D02*
X142922744Y-78185147D01*
X142922744Y-78185147D02*
X142741316Y-78275861D01*
X142741316Y-78275861D02*
X142650601Y-78366575D01*
X142650601Y-78366575D02*
X142559887Y-78548004D01*
X142559887Y-78548004D02*
X142559887Y-78729433D01*
X142559887Y-78729433D02*
X142650601Y-78910861D01*
X142650601Y-78910861D02*
X142741316Y-79001575D01*
X142741316Y-79001575D02*
X142922744Y-79092290D01*
X142922744Y-79092290D02*
X143557744Y-79092290D01*
X141380601Y-80090147D02*
X141562030Y-79999433D01*
X141562030Y-79999433D02*
X141652744Y-79908718D01*
X141652744Y-79908718D02*
X141743458Y-79727290D01*
X141743458Y-79727290D02*
X141743458Y-79183004D01*
X141743458Y-79183004D02*
X141652744Y-79001575D01*
X141652744Y-79001575D02*
X141562030Y-78910861D01*
X141562030Y-78910861D02*
X141380601Y-78820147D01*
X141380601Y-78820147D02*
X141108458Y-78820147D01*
X141108458Y-78820147D02*
X140927030Y-78910861D01*
X140927030Y-78910861D02*
X140836316Y-79001575D01*
X140836316Y-79001575D02*
X140745601Y-79183004D01*
X140745601Y-79183004D02*
X140745601Y-79727290D01*
X140745601Y-79727290D02*
X140836316Y-79908718D01*
X140836316Y-79908718D02*
X140927030Y-79999433D01*
X140927030Y-79999433D02*
X141108458Y-80090147D01*
X141108458Y-80090147D02*
X141380601Y-80090147D01*
X140019887Y-79999433D02*
X139838459Y-80090147D01*
X139838459Y-80090147D02*
X139475602Y-80090147D01*
X139475602Y-80090147D02*
X139294173Y-79999433D01*
X139294173Y-79999433D02*
X139203459Y-79818004D01*
X139203459Y-79818004D02*
X139203459Y-79727290D01*
X139203459Y-79727290D02*
X139294173Y-79545861D01*
X139294173Y-79545861D02*
X139475602Y-79455147D01*
X139475602Y-79455147D02*
X139747745Y-79455147D01*
X139747745Y-79455147D02*
X139929173Y-79364433D01*
X139929173Y-79364433D02*
X140019887Y-79183004D01*
X140019887Y-79183004D02*
X140019887Y-79092290D01*
X140019887Y-79092290D02*
X139929173Y-78910861D01*
X139929173Y-78910861D02*
X139747745Y-78820147D01*
X139747745Y-78820147D02*
X139475602Y-78820147D01*
X139475602Y-78820147D02*
X139294173Y-78910861D01*
X138659173Y-78820147D02*
X137933459Y-78820147D01*
X138387030Y-78185147D02*
X138387030Y-79818004D01*
X138387030Y-79818004D02*
X138296316Y-79999433D01*
X138296316Y-79999433D02*
X138114887Y-80090147D01*
X138114887Y-80090147D02*
X137933459Y-80090147D01*
X137026316Y-80090147D02*
X137207745Y-79999433D01*
X137207745Y-79999433D02*
X137298459Y-79908718D01*
X137298459Y-79908718D02*
X137389173Y-79727290D01*
X137389173Y-79727290D02*
X137389173Y-79183004D01*
X137389173Y-79183004D02*
X137298459Y-79001575D01*
X137298459Y-79001575D02*
X137207745Y-78910861D01*
X137207745Y-78910861D02*
X137026316Y-78820147D01*
X137026316Y-78820147D02*
X136754173Y-78820147D01*
X136754173Y-78820147D02*
X136572745Y-78910861D01*
X136572745Y-78910861D02*
X136482031Y-79001575D01*
X136482031Y-79001575D02*
X136391316Y-79183004D01*
X136391316Y-79183004D02*
X136391316Y-79727290D01*
X136391316Y-79727290D02*
X136482031Y-79908718D01*
X136482031Y-79908718D02*
X136572745Y-79999433D01*
X136572745Y-79999433D02*
X136754173Y-80090147D01*
X136754173Y-80090147D02*
X137026316Y-80090147D01*
X135574888Y-78820147D02*
X135574888Y-80090147D01*
X135574888Y-79001575D02*
X135484174Y-78910861D01*
X135484174Y-78910861D02*
X135302745Y-78820147D01*
X135302745Y-78820147D02*
X135030602Y-78820147D01*
X135030602Y-78820147D02*
X134849174Y-78910861D01*
X134849174Y-78910861D02*
X134758460Y-79092290D01*
X134758460Y-79092290D02*
X134758460Y-80090147D01*
X132399888Y-78185147D02*
X132399888Y-79727290D01*
X132399888Y-79727290D02*
X132309174Y-79908718D01*
X132309174Y-79908718D02*
X132218460Y-79999433D01*
X132218460Y-79999433D02*
X132037031Y-80090147D01*
X132037031Y-80090147D02*
X131674174Y-80090147D01*
X131674174Y-80090147D02*
X131492745Y-79999433D01*
X131492745Y-79999433D02*
X131402031Y-79908718D01*
X131402031Y-79908718D02*
X131311317Y-79727290D01*
X131311317Y-79727290D02*
X131311317Y-78185147D01*
X130404174Y-78820147D02*
X130404174Y-80090147D01*
X130404174Y-79001575D02*
X130313460Y-78910861D01*
X130313460Y-78910861D02*
X130132031Y-78820147D01*
X130132031Y-78820147D02*
X129859888Y-78820147D01*
X129859888Y-78820147D02*
X129678460Y-78910861D01*
X129678460Y-78910861D02*
X129587746Y-79092290D01*
X129587746Y-79092290D02*
X129587746Y-80090147D01*
X128680603Y-80090147D02*
X128680603Y-78820147D01*
X128680603Y-78185147D02*
X128771317Y-78275861D01*
X128771317Y-78275861D02*
X128680603Y-78366575D01*
X128680603Y-78366575D02*
X128589889Y-78275861D01*
X128589889Y-78275861D02*
X128680603Y-78185147D01*
X128680603Y-78185147D02*
X128680603Y-78366575D01*
X127954889Y-78820147D02*
X127501317Y-80090147D01*
X127501317Y-80090147D02*
X127047746Y-78820147D01*
X125596317Y-79999433D02*
X125777745Y-80090147D01*
X125777745Y-80090147D02*
X126140603Y-80090147D01*
X126140603Y-80090147D02*
X126322031Y-79999433D01*
X126322031Y-79999433D02*
X126412745Y-79818004D01*
X126412745Y-79818004D02*
X126412745Y-79092290D01*
X126412745Y-79092290D02*
X126322031Y-78910861D01*
X126322031Y-78910861D02*
X126140603Y-78820147D01*
X126140603Y-78820147D02*
X125777745Y-78820147D01*
X125777745Y-78820147D02*
X125596317Y-78910861D01*
X125596317Y-78910861D02*
X125505603Y-79092290D01*
X125505603Y-79092290D02*
X125505603Y-79273718D01*
X125505603Y-79273718D02*
X126412745Y-79455147D01*
X124689174Y-80090147D02*
X124689174Y-78820147D01*
X124689174Y-79183004D02*
X124598460Y-79001575D01*
X124598460Y-79001575D02*
X124507746Y-78910861D01*
X124507746Y-78910861D02*
X124326317Y-78820147D01*
X124326317Y-78820147D02*
X124144888Y-78820147D01*
X123600602Y-79999433D02*
X123419174Y-80090147D01*
X123419174Y-80090147D02*
X123056317Y-80090147D01*
X123056317Y-80090147D02*
X122874888Y-79999433D01*
X122874888Y-79999433D02*
X122784174Y-79818004D01*
X122784174Y-79818004D02*
X122784174Y-79727290D01*
X122784174Y-79727290D02*
X122874888Y-79545861D01*
X122874888Y-79545861D02*
X123056317Y-79455147D01*
X123056317Y-79455147D02*
X123328460Y-79455147D01*
X123328460Y-79455147D02*
X123509888Y-79364433D01*
X123509888Y-79364433D02*
X123600602Y-79183004D01*
X123600602Y-79183004D02*
X123600602Y-79092290D01*
X123600602Y-79092290D02*
X123509888Y-78910861D01*
X123509888Y-78910861D02*
X123328460Y-78820147D01*
X123328460Y-78820147D02*
X123056317Y-78820147D01*
X123056317Y-78820147D02*
X122874888Y-78910861D01*
X121967745Y-80090147D02*
X121967745Y-78820147D01*
X121967745Y-78185147D02*
X122058459Y-78275861D01*
X122058459Y-78275861D02*
X121967745Y-78366575D01*
X121967745Y-78366575D02*
X121877031Y-78275861D01*
X121877031Y-78275861D02*
X121967745Y-78185147D01*
X121967745Y-78185147D02*
X121967745Y-78366575D01*
X121332745Y-78820147D02*
X120607031Y-78820147D01*
X121060602Y-78185147D02*
X121060602Y-79818004D01*
X121060602Y-79818004D02*
X120969888Y-79999433D01*
X120969888Y-79999433D02*
X120788459Y-80090147D01*
X120788459Y-80090147D02*
X120607031Y-80090147D01*
X120153460Y-78820147D02*
X119699888Y-80090147D01*
X119246317Y-78820147D02*
X119699888Y-80090147D01*
X119699888Y-80090147D02*
X119881317Y-80543718D01*
X119881317Y-80543718D02*
X119972031Y-80634433D01*
X119972031Y-80634433D02*
X120153460Y-80725147D01*
X117069173Y-79092290D02*
X116434173Y-79092290D01*
X116162030Y-80090147D02*
X117069173Y-80090147D01*
X117069173Y-80090147D02*
X117069173Y-78185147D01*
X117069173Y-78185147D02*
X116162030Y-78185147D01*
X115345602Y-80090147D02*
X115345602Y-78185147D01*
X115345602Y-78185147D02*
X114892031Y-78185147D01*
X114892031Y-78185147D02*
X114619888Y-78275861D01*
X114619888Y-78275861D02*
X114438459Y-78457290D01*
X114438459Y-78457290D02*
X114347745Y-78638718D01*
X114347745Y-78638718D02*
X114257031Y-79001575D01*
X114257031Y-79001575D02*
X114257031Y-79273718D01*
X114257031Y-79273718D02*
X114347745Y-79636575D01*
X114347745Y-79636575D02*
X114438459Y-79818004D01*
X114438459Y-79818004D02*
X114619888Y-79999433D01*
X114619888Y-79999433D02*
X114892031Y-80090147D01*
X114892031Y-80090147D02*
X115345602Y-80090147D01*
X112805602Y-79092290D02*
X113440602Y-79092290D01*
X113440602Y-80090147D02*
X113440602Y-78185147D01*
X113440602Y-78185147D02*
X112533459Y-78185147D01*
X143557744Y-83157197D02*
X143557744Y-81252197D01*
X143557744Y-81252197D02*
X143104173Y-81252197D01*
X143104173Y-81252197D02*
X142832030Y-81342911D01*
X142832030Y-81342911D02*
X142650601Y-81524340D01*
X142650601Y-81524340D02*
X142559887Y-81705768D01*
X142559887Y-81705768D02*
X142469173Y-82068625D01*
X142469173Y-82068625D02*
X142469173Y-82340768D01*
X142469173Y-82340768D02*
X142559887Y-82703625D01*
X142559887Y-82703625D02*
X142650601Y-82885054D01*
X142650601Y-82885054D02*
X142832030Y-83066483D01*
X142832030Y-83066483D02*
X143104173Y-83157197D01*
X143104173Y-83157197D02*
X143557744Y-83157197D01*
X140836316Y-83157197D02*
X140836316Y-82159340D01*
X140836316Y-82159340D02*
X140927030Y-81977911D01*
X140927030Y-81977911D02*
X141108458Y-81887197D01*
X141108458Y-81887197D02*
X141471316Y-81887197D01*
X141471316Y-81887197D02*
X141652744Y-81977911D01*
X140836316Y-83066483D02*
X141017744Y-83157197D01*
X141017744Y-83157197D02*
X141471316Y-83157197D01*
X141471316Y-83157197D02*
X141652744Y-83066483D01*
X141652744Y-83066483D02*
X141743458Y-82885054D01*
X141743458Y-82885054D02*
X141743458Y-82703625D01*
X141743458Y-82703625D02*
X141652744Y-82522197D01*
X141652744Y-82522197D02*
X141471316Y-82431483D01*
X141471316Y-82431483D02*
X141017744Y-82431483D01*
X141017744Y-82431483D02*
X140836316Y-82340768D01*
X139929173Y-83157197D02*
X139929173Y-81887197D01*
X139929173Y-82250054D02*
X139838459Y-82068625D01*
X139838459Y-82068625D02*
X139747745Y-81977911D01*
X139747745Y-81977911D02*
X139566316Y-81887197D01*
X139566316Y-81887197D02*
X139384887Y-81887197D01*
X138749887Y-83157197D02*
X138749887Y-81252197D01*
X138568459Y-82431483D02*
X138024173Y-83157197D01*
X138024173Y-81887197D02*
X138749887Y-82612911D01*
X135937744Y-83338625D02*
X136119173Y-83247911D01*
X136119173Y-83247911D02*
X136300601Y-83066483D01*
X136300601Y-83066483D02*
X136572744Y-82794340D01*
X136572744Y-82794340D02*
X136754173Y-82703625D01*
X136754173Y-82703625D02*
X136935601Y-82703625D01*
X136844887Y-83157197D02*
X137026316Y-83066483D01*
X137026316Y-83066483D02*
X137207744Y-82885054D01*
X137207744Y-82885054D02*
X137298458Y-82522197D01*
X137298458Y-82522197D02*
X137298458Y-81887197D01*
X137298458Y-81887197D02*
X137207744Y-81524340D01*
X137207744Y-81524340D02*
X137026316Y-81342911D01*
X137026316Y-81342911D02*
X136844887Y-81252197D01*
X136844887Y-81252197D02*
X136482030Y-81252197D01*
X136482030Y-81252197D02*
X136300601Y-81342911D01*
X136300601Y-81342911D02*
X136119173Y-81524340D01*
X136119173Y-81524340D02*
X136028458Y-81887197D01*
X136028458Y-81887197D02*
X136028458Y-82522197D01*
X136028458Y-82522197D02*
X136119173Y-82885054D01*
X136119173Y-82885054D02*
X136300601Y-83066483D01*
X136300601Y-83066483D02*
X136482030Y-83157197D01*
X136482030Y-83157197D02*
X136844887Y-83157197D01*
X134395602Y-81887197D02*
X134395602Y-83157197D01*
X135212030Y-81887197D02*
X135212030Y-82885054D01*
X135212030Y-82885054D02*
X135121316Y-83066483D01*
X135121316Y-83066483D02*
X134939887Y-83157197D01*
X134939887Y-83157197D02*
X134667744Y-83157197D01*
X134667744Y-83157197D02*
X134486316Y-83066483D01*
X134486316Y-83066483D02*
X134395602Y-82975768D01*
X132762745Y-83066483D02*
X132944173Y-83157197D01*
X132944173Y-83157197D02*
X133307031Y-83157197D01*
X133307031Y-83157197D02*
X133488459Y-83066483D01*
X133488459Y-83066483D02*
X133579173Y-82885054D01*
X133579173Y-82885054D02*
X133579173Y-82159340D01*
X133579173Y-82159340D02*
X133488459Y-81977911D01*
X133488459Y-81977911D02*
X133307031Y-81887197D01*
X133307031Y-81887197D02*
X132944173Y-81887197D01*
X132944173Y-81887197D02*
X132762745Y-81977911D01*
X132762745Y-81977911D02*
X132672031Y-82159340D01*
X132672031Y-82159340D02*
X132672031Y-82340768D01*
X132672031Y-82340768D02*
X133579173Y-82522197D01*
X131946316Y-83066483D02*
X131764888Y-83157197D01*
X131764888Y-83157197D02*
X131402031Y-83157197D01*
X131402031Y-83157197D02*
X131220602Y-83066483D01*
X131220602Y-83066483D02*
X131129888Y-82885054D01*
X131129888Y-82885054D02*
X131129888Y-82794340D01*
X131129888Y-82794340D02*
X131220602Y-82612911D01*
X131220602Y-82612911D02*
X131402031Y-82522197D01*
X131402031Y-82522197D02*
X131674174Y-82522197D01*
X131674174Y-82522197D02*
X131855602Y-82431483D01*
X131855602Y-82431483D02*
X131946316Y-82250054D01*
X131946316Y-82250054D02*
X131946316Y-82159340D01*
X131946316Y-82159340D02*
X131855602Y-81977911D01*
X131855602Y-81977911D02*
X131674174Y-81887197D01*
X131674174Y-81887197D02*
X131402031Y-81887197D01*
X131402031Y-81887197D02*
X131220602Y-81977911D01*
X130585602Y-81887197D02*
X129859888Y-81887197D01*
X130313459Y-81252197D02*
X130313459Y-82885054D01*
X130313459Y-82885054D02*
X130222745Y-83066483D01*
X130222745Y-83066483D02*
X130041316Y-83157197D01*
X130041316Y-83157197D02*
X129859888Y-83157197D01*
X127773459Y-82159340D02*
X127138459Y-82159340D01*
X126866316Y-83157197D02*
X127773459Y-83157197D01*
X127773459Y-83157197D02*
X127773459Y-81252197D01*
X127773459Y-81252197D02*
X126866316Y-81252197D01*
X126049888Y-83157197D02*
X126049888Y-81252197D01*
X126049888Y-81252197D02*
X125414888Y-82612911D01*
X125414888Y-82612911D02*
X124779888Y-81252197D01*
X124779888Y-81252197D02*
X124779888Y-83157197D01*
X122784174Y-82975768D02*
X122874888Y-83066483D01*
X122874888Y-83066483D02*
X123147031Y-83157197D01*
X123147031Y-83157197D02*
X123328459Y-83157197D01*
X123328459Y-83157197D02*
X123600602Y-83066483D01*
X123600602Y-83066483D02*
X123782031Y-82885054D01*
X123782031Y-82885054D02*
X123872745Y-82703625D01*
X123872745Y-82703625D02*
X123963459Y-82340768D01*
X123963459Y-82340768D02*
X123963459Y-82068625D01*
X123963459Y-82068625D02*
X123872745Y-81705768D01*
X123872745Y-81705768D02*
X123782031Y-81524340D01*
X123782031Y-81524340D02*
X123600602Y-81342911D01*
X123600602Y-81342911D02*
X123328459Y-81252197D01*
X123328459Y-81252197D02*
X123147031Y-81252197D01*
X123147031Y-81252197D02*
X122874888Y-81342911D01*
X122874888Y-81342911D02*
X122784174Y-81433625D01*
X122058459Y-82612911D02*
X121151317Y-82612911D01*
X122239888Y-83157197D02*
X121604888Y-81252197D01*
X121604888Y-81252197D02*
X120969888Y-83157197D01*
X119427745Y-83157197D02*
X120334888Y-83157197D01*
X120334888Y-83157197D02*
X120334888Y-81252197D01*
X116071316Y-83338625D02*
X116252745Y-83247911D01*
X116252745Y-83247911D02*
X116434173Y-83066483D01*
X116434173Y-83066483D02*
X116706316Y-82794340D01*
X116706316Y-82794340D02*
X116887745Y-82703625D01*
X116887745Y-82703625D02*
X117069173Y-82703625D01*
X116978459Y-83157197D02*
X117159888Y-83066483D01*
X117159888Y-83066483D02*
X117341316Y-82885054D01*
X117341316Y-82885054D02*
X117432030Y-82522197D01*
X117432030Y-82522197D02*
X117432030Y-81887197D01*
X117432030Y-81887197D02*
X117341316Y-81524340D01*
X117341316Y-81524340D02*
X117159888Y-81342911D01*
X117159888Y-81342911D02*
X116978459Y-81252197D01*
X116978459Y-81252197D02*
X116615602Y-81252197D01*
X116615602Y-81252197D02*
X116434173Y-81342911D01*
X116434173Y-81342911D02*
X116252745Y-81524340D01*
X116252745Y-81524340D02*
X116162030Y-81887197D01*
X116162030Y-81887197D02*
X116162030Y-82522197D01*
X116162030Y-82522197D02*
X116252745Y-82885054D01*
X116252745Y-82885054D02*
X116434173Y-83066483D01*
X116434173Y-83066483D02*
X116615602Y-83157197D01*
X116615602Y-83157197D02*
X116978459Y-83157197D01*
X114529174Y-81887197D02*
X114529174Y-83157197D01*
X115345602Y-81887197D02*
X115345602Y-82885054D01*
X115345602Y-82885054D02*
X115254888Y-83066483D01*
X115254888Y-83066483D02*
X115073459Y-83157197D01*
X115073459Y-83157197D02*
X114801316Y-83157197D01*
X114801316Y-83157197D02*
X114619888Y-83066483D01*
X114619888Y-83066483D02*
X114529174Y-82975768D01*
X112805603Y-83157197D02*
X112805603Y-82159340D01*
X112805603Y-82159340D02*
X112896317Y-81977911D01*
X112896317Y-81977911D02*
X113077745Y-81887197D01*
X113077745Y-81887197D02*
X113440603Y-81887197D01*
X113440603Y-81887197D02*
X113622031Y-81977911D01*
X112805603Y-83066483D02*
X112987031Y-83157197D01*
X112987031Y-83157197D02*
X113440603Y-83157197D01*
X113440603Y-83157197D02*
X113622031Y-83066483D01*
X113622031Y-83066483D02*
X113712745Y-82885054D01*
X113712745Y-82885054D02*
X113712745Y-82703625D01*
X113712745Y-82703625D02*
X113622031Y-82522197D01*
X113622031Y-82522197D02*
X113440603Y-82431483D01*
X113440603Y-82431483D02*
X112987031Y-82431483D01*
X112987031Y-82431483D02*
X112805603Y-82340768D01*
X111082032Y-83157197D02*
X111082032Y-81252197D01*
X111082032Y-83066483D02*
X111263460Y-83157197D01*
X111263460Y-83157197D02*
X111626317Y-83157197D01*
X111626317Y-83157197D02*
X111807746Y-83066483D01*
X111807746Y-83066483D02*
X111898460Y-82975768D01*
X111898460Y-82975768D02*
X111989174Y-82794340D01*
X111989174Y-82794340D02*
X111989174Y-82250054D01*
X111989174Y-82250054D02*
X111898460Y-82068625D01*
X111898460Y-82068625D02*
X111807746Y-81977911D01*
X111807746Y-81977911D02*
X111626317Y-81887197D01*
X111626317Y-81887197D02*
X111263460Y-81887197D01*
X111263460Y-81887197D02*
X111082032Y-81977911D01*
X108814174Y-83066483D02*
X108542032Y-83157197D01*
X108542032Y-83157197D02*
X108088460Y-83157197D01*
X108088460Y-83157197D02*
X107907032Y-83066483D01*
X107907032Y-83066483D02*
X107816317Y-82975768D01*
X107816317Y-82975768D02*
X107725603Y-82794340D01*
X107725603Y-82794340D02*
X107725603Y-82612911D01*
X107725603Y-82612911D02*
X107816317Y-82431483D01*
X107816317Y-82431483D02*
X107907032Y-82340768D01*
X107907032Y-82340768D02*
X108088460Y-82250054D01*
X108088460Y-82250054D02*
X108451317Y-82159340D01*
X108451317Y-82159340D02*
X108632746Y-82068625D01*
X108632746Y-82068625D02*
X108723460Y-81977911D01*
X108723460Y-81977911D02*
X108814174Y-81796483D01*
X108814174Y-81796483D02*
X108814174Y-81615054D01*
X108814174Y-81615054D02*
X108723460Y-81433625D01*
X108723460Y-81433625D02*
X108632746Y-81342911D01*
X108632746Y-81342911D02*
X108451317Y-81252197D01*
X108451317Y-81252197D02*
X107997746Y-81252197D01*
X107997746Y-81252197D02*
X107725603Y-81342911D01*
X106909174Y-83157197D02*
X106909174Y-81887197D01*
X106909174Y-81252197D02*
X106999888Y-81342911D01*
X106999888Y-81342911D02*
X106909174Y-81433625D01*
X106909174Y-81433625D02*
X106818460Y-81342911D01*
X106818460Y-81342911D02*
X106909174Y-81252197D01*
X106909174Y-81252197D02*
X106909174Y-81433625D01*
X106002031Y-83157197D02*
X106002031Y-81252197D01*
X106002031Y-81252197D02*
X105276317Y-81252197D01*
X105276317Y-81252197D02*
X105094888Y-81342911D01*
X105094888Y-81342911D02*
X105004174Y-81433625D01*
X105004174Y-81433625D02*
X104913460Y-81615054D01*
X104913460Y-81615054D02*
X104913460Y-81887197D01*
X104913460Y-81887197D02*
X105004174Y-82068625D01*
X105004174Y-82068625D02*
X105094888Y-82159340D01*
X105094888Y-82159340D02*
X105276317Y-82250054D01*
X105276317Y-82250054D02*
X106002031Y-82250054D01*
X104097031Y-83157197D02*
X104097031Y-81252197D01*
X104097031Y-81252197D02*
X103462031Y-82612911D01*
X103462031Y-82612911D02*
X102827031Y-81252197D01*
X102827031Y-81252197D02*
X102827031Y-83157197D01*
X143648458Y-84500675D02*
X143557744Y-84409961D01*
X143557744Y-84409961D02*
X143376316Y-84319247D01*
X143376316Y-84319247D02*
X142922744Y-84319247D01*
X142922744Y-84319247D02*
X142741316Y-84409961D01*
X142741316Y-84409961D02*
X142650601Y-84500675D01*
X142650601Y-84500675D02*
X142559887Y-84682104D01*
X142559887Y-84682104D02*
X142559887Y-84863533D01*
X142559887Y-84863533D02*
X142650601Y-85135675D01*
X142650601Y-85135675D02*
X143739173Y-86224247D01*
X143739173Y-86224247D02*
X142559887Y-86224247D01*
X141380601Y-84319247D02*
X141199172Y-84319247D01*
X141199172Y-84319247D02*
X141017744Y-84409961D01*
X141017744Y-84409961D02*
X140927030Y-84500675D01*
X140927030Y-84500675D02*
X140836315Y-84682104D01*
X140836315Y-84682104D02*
X140745601Y-85044961D01*
X140745601Y-85044961D02*
X140745601Y-85498533D01*
X140745601Y-85498533D02*
X140836315Y-85861390D01*
X140836315Y-85861390D02*
X140927030Y-86042818D01*
X140927030Y-86042818D02*
X141017744Y-86133533D01*
X141017744Y-86133533D02*
X141199172Y-86224247D01*
X141199172Y-86224247D02*
X141380601Y-86224247D01*
X141380601Y-86224247D02*
X141562030Y-86133533D01*
X141562030Y-86133533D02*
X141652744Y-86042818D01*
X141652744Y-86042818D02*
X141743458Y-85861390D01*
X141743458Y-85861390D02*
X141834172Y-85498533D01*
X141834172Y-85498533D02*
X141834172Y-85044961D01*
X141834172Y-85044961D02*
X141743458Y-84682104D01*
X141743458Y-84682104D02*
X141652744Y-84500675D01*
X141652744Y-84500675D02*
X141562030Y-84409961D01*
X141562030Y-84409961D02*
X141380601Y-84319247D01*
X140019886Y-84500675D02*
X139929172Y-84409961D01*
X139929172Y-84409961D02*
X139747744Y-84319247D01*
X139747744Y-84319247D02*
X139294172Y-84319247D01*
X139294172Y-84319247D02*
X139112744Y-84409961D01*
X139112744Y-84409961D02*
X139022029Y-84500675D01*
X139022029Y-84500675D02*
X138931315Y-84682104D01*
X138931315Y-84682104D02*
X138931315Y-84863533D01*
X138931315Y-84863533D02*
X139022029Y-85135675D01*
X139022029Y-85135675D02*
X140110601Y-86224247D01*
X140110601Y-86224247D02*
X138931315Y-86224247D01*
X138205600Y-84500675D02*
X138114886Y-84409961D01*
X138114886Y-84409961D02*
X137933458Y-84319247D01*
X137933458Y-84319247D02*
X137479886Y-84319247D01*
X137479886Y-84319247D02*
X137298458Y-84409961D01*
X137298458Y-84409961D02*
X137207743Y-84500675D01*
X137207743Y-84500675D02*
X137117029Y-84682104D01*
X137117029Y-84682104D02*
X137117029Y-84863533D01*
X137117029Y-84863533D02*
X137207743Y-85135675D01*
X137207743Y-85135675D02*
X138296315Y-86224247D01*
X138296315Y-86224247D02*
X137117029Y-86224247D01*
X136300600Y-85498533D02*
X134849172Y-85498533D01*
X133579172Y-84319247D02*
X133397743Y-84319247D01*
X133397743Y-84319247D02*
X133216315Y-84409961D01*
X133216315Y-84409961D02*
X133125601Y-84500675D01*
X133125601Y-84500675D02*
X133034886Y-84682104D01*
X133034886Y-84682104D02*
X132944172Y-85044961D01*
X132944172Y-85044961D02*
X132944172Y-85498533D01*
X132944172Y-85498533D02*
X133034886Y-85861390D01*
X133034886Y-85861390D02*
X133125601Y-86042818D01*
X133125601Y-86042818D02*
X133216315Y-86133533D01*
X133216315Y-86133533D02*
X133397743Y-86224247D01*
X133397743Y-86224247D02*
X133579172Y-86224247D01*
X133579172Y-86224247D02*
X133760601Y-86133533D01*
X133760601Y-86133533D02*
X133851315Y-86042818D01*
X133851315Y-86042818D02*
X133942029Y-85861390D01*
X133942029Y-85861390D02*
X134032743Y-85498533D01*
X134032743Y-85498533D02*
X134032743Y-85044961D01*
X134032743Y-85044961D02*
X133942029Y-84682104D01*
X133942029Y-84682104D02*
X133851315Y-84500675D01*
X133851315Y-84500675D02*
X133760601Y-84409961D01*
X133760601Y-84409961D02*
X133579172Y-84319247D01*
X131311315Y-84319247D02*
X131674172Y-84319247D01*
X131674172Y-84319247D02*
X131855600Y-84409961D01*
X131855600Y-84409961D02*
X131946315Y-84500675D01*
X131946315Y-84500675D02*
X132127743Y-84772818D01*
X132127743Y-84772818D02*
X132218457Y-85135675D01*
X132218457Y-85135675D02*
X132218457Y-85861390D01*
X132218457Y-85861390D02*
X132127743Y-86042818D01*
X132127743Y-86042818D02*
X132037029Y-86133533D01*
X132037029Y-86133533D02*
X131855600Y-86224247D01*
X131855600Y-86224247D02*
X131492743Y-86224247D01*
X131492743Y-86224247D02*
X131311315Y-86133533D01*
X131311315Y-86133533D02*
X131220600Y-86042818D01*
X131220600Y-86042818D02*
X131129886Y-85861390D01*
X131129886Y-85861390D02*
X131129886Y-85407818D01*
X131129886Y-85407818D02*
X131220600Y-85226390D01*
X131220600Y-85226390D02*
X131311315Y-85135675D01*
X131311315Y-85135675D02*
X131492743Y-85044961D01*
X131492743Y-85044961D02*
X131855600Y-85044961D01*
X131855600Y-85044961D02*
X132037029Y-85135675D01*
X132037029Y-85135675D02*
X132127743Y-85226390D01*
X132127743Y-85226390D02*
X132218457Y-85407818D01*
X126322028Y-86224247D02*
X126957028Y-85317104D01*
X127410599Y-86224247D02*
X127410599Y-84319247D01*
X127410599Y-84319247D02*
X126684885Y-84319247D01*
X126684885Y-84319247D02*
X126503456Y-84409961D01*
X126503456Y-84409961D02*
X126412742Y-84500675D01*
X126412742Y-84500675D02*
X126322028Y-84682104D01*
X126322028Y-84682104D02*
X126322028Y-84954247D01*
X126322028Y-84954247D02*
X126412742Y-85135675D01*
X126412742Y-85135675D02*
X126503456Y-85226390D01*
X126503456Y-85226390D02*
X126684885Y-85317104D01*
X126684885Y-85317104D02*
X127410599Y-85317104D01*
X124779885Y-86133533D02*
X124961313Y-86224247D01*
X124961313Y-86224247D02*
X125324171Y-86224247D01*
X125324171Y-86224247D02*
X125505599Y-86133533D01*
X125505599Y-86133533D02*
X125596313Y-85952104D01*
X125596313Y-85952104D02*
X125596313Y-85226390D01*
X125596313Y-85226390D02*
X125505599Y-85044961D01*
X125505599Y-85044961D02*
X125324171Y-84954247D01*
X125324171Y-84954247D02*
X124961313Y-84954247D01*
X124961313Y-84954247D02*
X124779885Y-85044961D01*
X124779885Y-85044961D02*
X124689171Y-85226390D01*
X124689171Y-85226390D02*
X124689171Y-85407818D01*
X124689171Y-85407818D02*
X125596313Y-85589247D01*
X124054171Y-84954247D02*
X123600599Y-86224247D01*
X123600599Y-86224247D02*
X123147028Y-84954247D01*
X120153456Y-84954247D02*
X120153456Y-86224247D01*
X120607027Y-84228533D02*
X121060598Y-85589247D01*
X121060598Y-85589247D02*
X119881313Y-85589247D01*
X119155598Y-86042818D02*
X119064884Y-86133533D01*
X119064884Y-86133533D02*
X119155598Y-86224247D01*
X119155598Y-86224247D02*
X119246312Y-86133533D01*
X119246312Y-86133533D02*
X119155598Y-86042818D01*
X119155598Y-86042818D02*
X119155598Y-86224247D01*
X117250598Y-86224247D02*
X118339169Y-86224247D01*
X117794884Y-86224247D02*
X117794884Y-84319247D01*
X117794884Y-84319247D02*
X117976312Y-84591390D01*
X117976312Y-84591390D02*
X118157741Y-84772818D01*
X118157741Y-84772818D02*
X118339169Y-84863533D01*
X142832030Y-89200583D02*
X143013458Y-89291297D01*
X143013458Y-89291297D02*
X143376316Y-89291297D01*
X143376316Y-89291297D02*
X143557744Y-89200583D01*
X143557744Y-89200583D02*
X143648458Y-89019154D01*
X143648458Y-89019154D02*
X143648458Y-88293440D01*
X143648458Y-88293440D02*
X143557744Y-88112011D01*
X143557744Y-88112011D02*
X143376316Y-88021297D01*
X143376316Y-88021297D02*
X143013458Y-88021297D01*
X143013458Y-88021297D02*
X142832030Y-88112011D01*
X142832030Y-88112011D02*
X142741316Y-88293440D01*
X142741316Y-88293440D02*
X142741316Y-88474868D01*
X142741316Y-88474868D02*
X143648458Y-88656297D01*
X141108459Y-89291297D02*
X141108459Y-87386297D01*
X141108459Y-89200583D02*
X141289887Y-89291297D01*
X141289887Y-89291297D02*
X141652744Y-89291297D01*
X141652744Y-89291297D02*
X141834173Y-89200583D01*
X141834173Y-89200583D02*
X141924887Y-89109868D01*
X141924887Y-89109868D02*
X142015601Y-88928440D01*
X142015601Y-88928440D02*
X142015601Y-88384154D01*
X142015601Y-88384154D02*
X141924887Y-88202725D01*
X141924887Y-88202725D02*
X141834173Y-88112011D01*
X141834173Y-88112011D02*
X141652744Y-88021297D01*
X141652744Y-88021297D02*
X141289887Y-88021297D01*
X141289887Y-88021297D02*
X141108459Y-88112011D01*
X140473459Y-88021297D02*
X139747745Y-88021297D01*
X140201316Y-89291297D02*
X140201316Y-87658440D01*
X140201316Y-87658440D02*
X140110602Y-87477011D01*
X140110602Y-87477011D02*
X139929173Y-87386297D01*
X139929173Y-87386297D02*
X139747745Y-87386297D01*
X139112745Y-89109868D02*
X139022031Y-89200583D01*
X139022031Y-89200583D02*
X139112745Y-89291297D01*
X139112745Y-89291297D02*
X139203459Y-89200583D01*
X139203459Y-89200583D02*
X139112745Y-89109868D01*
X139112745Y-89109868D02*
X139112745Y-89291297D01*
X138205602Y-89291297D02*
X138205602Y-87386297D01*
X138205602Y-88112011D02*
X138024174Y-88021297D01*
X138024174Y-88021297D02*
X137661316Y-88021297D01*
X137661316Y-88021297D02*
X137479888Y-88112011D01*
X137479888Y-88112011D02*
X137389174Y-88202725D01*
X137389174Y-88202725D02*
X137298459Y-88384154D01*
X137298459Y-88384154D02*
X137298459Y-88928440D01*
X137298459Y-88928440D02*
X137389174Y-89109868D01*
X137389174Y-89109868D02*
X137479888Y-89200583D01*
X137479888Y-89200583D02*
X137661316Y-89291297D01*
X137661316Y-89291297D02*
X138024174Y-89291297D01*
X138024174Y-89291297D02*
X138205602Y-89200583D01*
X135665603Y-88021297D02*
X135665603Y-89291297D01*
X136482031Y-88021297D02*
X136482031Y-89019154D01*
X136482031Y-89019154D02*
X136391317Y-89200583D01*
X136391317Y-89200583D02*
X136209888Y-89291297D01*
X136209888Y-89291297D02*
X135937745Y-89291297D01*
X135937745Y-89291297D02*
X135756317Y-89200583D01*
X135756317Y-89200583D02*
X135665603Y-89109868D01*
X134758460Y-89109868D02*
X134667746Y-89200583D01*
X134667746Y-89200583D02*
X134758460Y-89291297D01*
X134758460Y-89291297D02*
X134849174Y-89200583D01*
X134849174Y-89200583D02*
X134758460Y-89109868D01*
X134758460Y-89109868D02*
X134758460Y-89291297D01*
X133125603Y-89200583D02*
X133307031Y-89291297D01*
X133307031Y-89291297D02*
X133669889Y-89291297D01*
X133669889Y-89291297D02*
X133851317Y-89200583D01*
X133851317Y-89200583D02*
X133942031Y-89019154D01*
X133942031Y-89019154D02*
X133942031Y-88293440D01*
X133942031Y-88293440D02*
X133851317Y-88112011D01*
X133851317Y-88112011D02*
X133669889Y-88021297D01*
X133669889Y-88021297D02*
X133307031Y-88021297D01*
X133307031Y-88021297D02*
X133125603Y-88112011D01*
X133125603Y-88112011D02*
X133034889Y-88293440D01*
X133034889Y-88293440D02*
X133034889Y-88474868D01*
X133034889Y-88474868D02*
X133942031Y-88656297D01*
X131402032Y-89291297D02*
X131402032Y-87386297D01*
X131402032Y-89200583D02*
X131583460Y-89291297D01*
X131583460Y-89291297D02*
X131946317Y-89291297D01*
X131946317Y-89291297D02*
X132127746Y-89200583D01*
X132127746Y-89200583D02*
X132218460Y-89109868D01*
X132218460Y-89109868D02*
X132309174Y-88928440D01*
X132309174Y-88928440D02*
X132309174Y-88384154D01*
X132309174Y-88384154D02*
X132218460Y-88202725D01*
X132218460Y-88202725D02*
X132127746Y-88112011D01*
X132127746Y-88112011D02*
X131946317Y-88021297D01*
X131946317Y-88021297D02*
X131583460Y-88021297D01*
X131583460Y-88021297D02*
X131402032Y-88112011D01*
X129678461Y-88021297D02*
X129678461Y-89291297D01*
X130494889Y-88021297D02*
X130494889Y-89019154D01*
X130494889Y-89019154D02*
X130404175Y-89200583D01*
X130404175Y-89200583D02*
X130222746Y-89291297D01*
X130222746Y-89291297D02*
X129950603Y-89291297D01*
X129950603Y-89291297D02*
X129769175Y-89200583D01*
X129769175Y-89200583D02*
X129678461Y-89109868D01*
D10*
X68162438Y-52768095D02*
X68114819Y-52672857D01*
X68114819Y-52672857D02*
X68114819Y-52530000D01*
X68114819Y-52530000D02*
X68162438Y-52387143D01*
X68162438Y-52387143D02*
X68257676Y-52291905D01*
X68257676Y-52291905D02*
X68352914Y-52244286D01*
X68352914Y-52244286D02*
X68543390Y-52196667D01*
X68543390Y-52196667D02*
X68686247Y-52196667D01*
X68686247Y-52196667D02*
X68876723Y-52244286D01*
X68876723Y-52244286D02*
X68971961Y-52291905D01*
X68971961Y-52291905D02*
X69067200Y-52387143D01*
X69067200Y-52387143D02*
X69114819Y-52530000D01*
X69114819Y-52530000D02*
X69114819Y-52625238D01*
X69114819Y-52625238D02*
X69067200Y-52768095D01*
X69067200Y-52768095D02*
X69019580Y-52815714D01*
X69019580Y-52815714D02*
X68686247Y-52815714D01*
X68686247Y-52815714D02*
X68686247Y-52625238D01*
X69114819Y-53244286D02*
X68114819Y-53244286D01*
X68114819Y-53244286D02*
X69114819Y-53815714D01*
X69114819Y-53815714D02*
X68114819Y-53815714D01*
X69114819Y-54291905D02*
X68114819Y-54291905D01*
X68114819Y-54291905D02*
X68114819Y-54530000D01*
X68114819Y-54530000D02*
X68162438Y-54672857D01*
X68162438Y-54672857D02*
X68257676Y-54768095D01*
X68257676Y-54768095D02*
X68352914Y-54815714D01*
X68352914Y-54815714D02*
X68543390Y-54863333D01*
X68543390Y-54863333D02*
X68686247Y-54863333D01*
X68686247Y-54863333D02*
X68876723Y-54815714D01*
X68876723Y-54815714D02*
X68971961Y-54768095D01*
X68971961Y-54768095D02*
X69067200Y-54672857D01*
X69067200Y-54672857D02*
X69114819Y-54530000D01*
X69114819Y-54530000D02*
X69114819Y-54291905D01*
%TO.C,J1*%
X120739819Y-140001666D02*
X121454104Y-140001666D01*
X121454104Y-140001666D02*
X121596961Y-139954047D01*
X121596961Y-139954047D02*
X121692200Y-139858809D01*
X121692200Y-139858809D02*
X121739819Y-139715952D01*
X121739819Y-139715952D02*
X121739819Y-139620714D01*
X121739819Y-141001666D02*
X121739819Y-140430238D01*
X121739819Y-140715952D02*
X120739819Y-140715952D01*
X120739819Y-140715952D02*
X120882676Y-140620714D01*
X120882676Y-140620714D02*
X120977914Y-140525476D01*
X120977914Y-140525476D02*
X121025533Y-140430238D01*
%TO.C,C4*%
X71921666Y-67209580D02*
X71969285Y-67257200D01*
X71969285Y-67257200D02*
X72112142Y-67304819D01*
X72112142Y-67304819D02*
X72207380Y-67304819D01*
X72207380Y-67304819D02*
X72350237Y-67257200D01*
X72350237Y-67257200D02*
X72445475Y-67161961D01*
X72445475Y-67161961D02*
X72493094Y-67066723D01*
X72493094Y-67066723D02*
X72540713Y-66876247D01*
X72540713Y-66876247D02*
X72540713Y-66733390D01*
X72540713Y-66733390D02*
X72493094Y-66542914D01*
X72493094Y-66542914D02*
X72445475Y-66447676D01*
X72445475Y-66447676D02*
X72350237Y-66352438D01*
X72350237Y-66352438D02*
X72207380Y-66304819D01*
X72207380Y-66304819D02*
X72112142Y-66304819D01*
X72112142Y-66304819D02*
X71969285Y-66352438D01*
X71969285Y-66352438D02*
X71921666Y-66400057D01*
X71064523Y-66638152D02*
X71064523Y-67304819D01*
X71302618Y-66257200D02*
X71540713Y-66971485D01*
X71540713Y-66971485D02*
X70921666Y-66971485D01*
%TO.C,J3*%
X119469819Y-59991666D02*
X120184104Y-59991666D01*
X120184104Y-59991666D02*
X120326961Y-59944047D01*
X120326961Y-59944047D02*
X120422200Y-59848809D01*
X120422200Y-59848809D02*
X120469819Y-59705952D01*
X120469819Y-59705952D02*
X120469819Y-59610714D01*
X119469819Y-60372619D02*
X119469819Y-60991666D01*
X119469819Y-60991666D02*
X119850771Y-60658333D01*
X119850771Y-60658333D02*
X119850771Y-60801190D01*
X119850771Y-60801190D02*
X119898390Y-60896428D01*
X119898390Y-60896428D02*
X119946009Y-60944047D01*
X119946009Y-60944047D02*
X120041247Y-60991666D01*
X120041247Y-60991666D02*
X120279342Y-60991666D01*
X120279342Y-60991666D02*
X120374580Y-60944047D01*
X120374580Y-60944047D02*
X120422200Y-60896428D01*
X120422200Y-60896428D02*
X120469819Y-60801190D01*
X120469819Y-60801190D02*
X120469819Y-60515476D01*
X120469819Y-60515476D02*
X120422200Y-60420238D01*
X120422200Y-60420238D02*
X120374580Y-60372619D01*
%TO.C,J4*%
X63589819Y-59666666D02*
X64304104Y-59666666D01*
X64304104Y-59666666D02*
X64446961Y-59619047D01*
X64446961Y-59619047D02*
X64542200Y-59523809D01*
X64542200Y-59523809D02*
X64589819Y-59380952D01*
X64589819Y-59380952D02*
X64589819Y-59285714D01*
X63923152Y-60571428D02*
X64589819Y-60571428D01*
X63542200Y-60333333D02*
X64256485Y-60095238D01*
X64256485Y-60095238D02*
X64256485Y-60714285D01*
%TO.C,C3*%
X128436666Y-67209580D02*
X128484285Y-67257200D01*
X128484285Y-67257200D02*
X128627142Y-67304819D01*
X128627142Y-67304819D02*
X128722380Y-67304819D01*
X128722380Y-67304819D02*
X128865237Y-67257200D01*
X128865237Y-67257200D02*
X128960475Y-67161961D01*
X128960475Y-67161961D02*
X129008094Y-67066723D01*
X129008094Y-67066723D02*
X129055713Y-66876247D01*
X129055713Y-66876247D02*
X129055713Y-66733390D01*
X129055713Y-66733390D02*
X129008094Y-66542914D01*
X129008094Y-66542914D02*
X128960475Y-66447676D01*
X128960475Y-66447676D02*
X128865237Y-66352438D01*
X128865237Y-66352438D02*
X128722380Y-66304819D01*
X128722380Y-66304819D02*
X128627142Y-66304819D01*
X128627142Y-66304819D02*
X128484285Y-66352438D01*
X128484285Y-66352438D02*
X128436666Y-66400057D01*
X128103332Y-66304819D02*
X127484285Y-66304819D01*
X127484285Y-66304819D02*
X127817618Y-66685771D01*
X127817618Y-66685771D02*
X127674761Y-66685771D01*
X127674761Y-66685771D02*
X127579523Y-66733390D01*
X127579523Y-66733390D02*
X127531904Y-66781009D01*
X127531904Y-66781009D02*
X127484285Y-66876247D01*
X127484285Y-66876247D02*
X127484285Y-67114342D01*
X127484285Y-67114342D02*
X127531904Y-67209580D01*
X127531904Y-67209580D02*
X127579523Y-67257200D01*
X127579523Y-67257200D02*
X127674761Y-67304819D01*
X127674761Y-67304819D02*
X127960475Y-67304819D01*
X127960475Y-67304819D02*
X128055713Y-67257200D01*
X128055713Y-67257200D02*
X128103332Y-67209580D01*
%TO.C,J2*%
X64859819Y-140001666D02*
X65574104Y-140001666D01*
X65574104Y-140001666D02*
X65716961Y-139954047D01*
X65716961Y-139954047D02*
X65812200Y-139858809D01*
X65812200Y-139858809D02*
X65859819Y-139715952D01*
X65859819Y-139715952D02*
X65859819Y-139620714D01*
X64955057Y-140430238D02*
X64907438Y-140477857D01*
X64907438Y-140477857D02*
X64859819Y-140573095D01*
X64859819Y-140573095D02*
X64859819Y-140811190D01*
X64859819Y-140811190D02*
X64907438Y-140906428D01*
X64907438Y-140906428D02*
X64955057Y-140954047D01*
X64955057Y-140954047D02*
X65050295Y-141001666D01*
X65050295Y-141001666D02*
X65145533Y-141001666D01*
X65145533Y-141001666D02*
X65288390Y-140954047D01*
X65288390Y-140954047D02*
X65859819Y-140382619D01*
X65859819Y-140382619D02*
X65859819Y-141001666D01*
%TO.C,C1*%
X128436666Y-136829580D02*
X128484285Y-136877200D01*
X128484285Y-136877200D02*
X128627142Y-136924819D01*
X128627142Y-136924819D02*
X128722380Y-136924819D01*
X128722380Y-136924819D02*
X128865237Y-136877200D01*
X128865237Y-136877200D02*
X128960475Y-136781961D01*
X128960475Y-136781961D02*
X129008094Y-136686723D01*
X129008094Y-136686723D02*
X129055713Y-136496247D01*
X129055713Y-136496247D02*
X129055713Y-136353390D01*
X129055713Y-136353390D02*
X129008094Y-136162914D01*
X129008094Y-136162914D02*
X128960475Y-136067676D01*
X128960475Y-136067676D02*
X128865237Y-135972438D01*
X128865237Y-135972438D02*
X128722380Y-135924819D01*
X128722380Y-135924819D02*
X128627142Y-135924819D01*
X128627142Y-135924819D02*
X128484285Y-135972438D01*
X128484285Y-135972438D02*
X128436666Y-136020057D01*
X127484285Y-136924819D02*
X128055713Y-136924819D01*
X127769999Y-136924819D02*
X127769999Y-135924819D01*
X127769999Y-135924819D02*
X127865237Y-136067676D01*
X127865237Y-136067676D02*
X127960475Y-136162914D01*
X127960475Y-136162914D02*
X128055713Y-136210533D01*
%TO.C,C2*%
X71921666Y-137209580D02*
X71969285Y-137257200D01*
X71969285Y-137257200D02*
X72112142Y-137304819D01*
X72112142Y-137304819D02*
X72207380Y-137304819D01*
X72207380Y-137304819D02*
X72350237Y-137257200D01*
X72350237Y-137257200D02*
X72445475Y-137161961D01*
X72445475Y-137161961D02*
X72493094Y-137066723D01*
X72493094Y-137066723D02*
X72540713Y-136876247D01*
X72540713Y-136876247D02*
X72540713Y-136733390D01*
X72540713Y-136733390D02*
X72493094Y-136542914D01*
X72493094Y-136542914D02*
X72445475Y-136447676D01*
X72445475Y-136447676D02*
X72350237Y-136352438D01*
X72350237Y-136352438D02*
X72207380Y-136304819D01*
X72207380Y-136304819D02*
X72112142Y-136304819D01*
X72112142Y-136304819D02*
X71969285Y-136352438D01*
X71969285Y-136352438D02*
X71921666Y-136400057D01*
X71540713Y-136400057D02*
X71493094Y-136352438D01*
X71493094Y-136352438D02*
X71397856Y-136304819D01*
X71397856Y-136304819D02*
X71159761Y-136304819D01*
X71159761Y-136304819D02*
X71064523Y-136352438D01*
X71064523Y-136352438D02*
X71016904Y-136400057D01*
X71016904Y-136400057D02*
X70969285Y-136495295D01*
X70969285Y-136495295D02*
X70969285Y-136590533D01*
X70969285Y-136590533D02*
X71016904Y-136733390D01*
X71016904Y-136733390D02*
X71588332Y-137304819D01*
X71588332Y-137304819D02*
X70969285Y-137304819D01*
D12*
%TO.C,J1*%
X127635000Y-138370000D02*
X126305000Y-138370000D01*
X131460000Y-138415000D02*
X131460000Y-141075000D01*
X126320000Y-138415000D02*
X131460000Y-138415000D01*
X126320000Y-138415000D02*
X126320000Y-141075000D01*
X122310000Y-138425000D02*
X122335000Y-142500000D01*
X126320000Y-141075000D02*
X131460000Y-141075000D01*
%TO.C,C4*%
X71043748Y-64090000D02*
X72466252Y-64090000D01*
X71043748Y-65910000D02*
X72466252Y-65910000D01*
%TO.C,J3*%
X127045000Y-58670000D02*
X125715000Y-58670000D01*
X130870000Y-58715000D02*
X130870000Y-61375000D01*
X125730000Y-58715000D02*
X130870000Y-58715000D01*
X125730000Y-58715000D02*
X125730000Y-61375000D01*
X121720000Y-58725000D02*
X121745000Y-62800000D01*
X125730000Y-61375000D02*
X130870000Y-61375000D01*
%TO.C,J4*%
X71165000Y-58670000D02*
X69835000Y-58670000D01*
X74990000Y-58715000D02*
X74990000Y-61375000D01*
X69850000Y-58715000D02*
X74990000Y-58715000D01*
X69850000Y-58715000D02*
X69850000Y-61375000D01*
X65840000Y-58725000D02*
X65865000Y-62800000D01*
X69850000Y-61375000D02*
X74990000Y-61375000D01*
%TO.C,C3*%
X127558748Y-64090000D02*
X128981252Y-64090000D01*
X127558748Y-65910000D02*
X128981252Y-65910000D01*
%TO.C,J2*%
X71755000Y-138670000D02*
X70425000Y-138670000D01*
X75580000Y-138715000D02*
X75580000Y-141375000D01*
X70440000Y-138715000D02*
X75580000Y-138715000D01*
X70440000Y-138715000D02*
X70440000Y-141375000D01*
X66430000Y-138725000D02*
X66455000Y-142800000D01*
X70440000Y-141375000D02*
X75580000Y-141375000D01*
%TO.C,C1*%
X127558748Y-133710000D02*
X128981252Y-133710000D01*
X127558748Y-135530000D02*
X128981252Y-135530000D01*
%TO.C,C2*%
X71043748Y-134090000D02*
X72466252Y-134090000D01*
X71043748Y-135910000D02*
X72466252Y-135910000D01*
%TD*%
M02*
