%TF.GenerationSoftware,KiCad,Pcbnew,7.0.5-0*%
%TF.CreationDate,2023-06-12T10:58:38-04:00*%
%TF.ProjectId,quad_sipm,71756164-5f73-4697-906d-2e6b69636164,rev?*%
%TF.SameCoordinates,Original*%
%TF.FileFunction,Legend,Top*%
%TF.FilePolarity,Positive*%
%FSLAX46Y46*%
G04 Gerber Fmt 4.6, Leading zero omitted, Abs format (unit mm)*
G04 Created by KiCad (PCBNEW 7.0.5-0) date 2023-06-12 10:58:38*
%MOMM*%
%LPD*%
G01*
G04 APERTURE LIST*
%ADD10C,0.120000*%
%ADD11C,0.150000*%
%ADD12C,0.100000*%
G04 APERTURE END LIST*
D10*
X51000000Y-100000000D02*
X149000000Y-100000000D01*
X100000000Y-51000000D02*
X100000000Y-149000000D01*
D11*
%TO.C,H2*%
X99238095Y-91054819D02*
X99238095Y-90054819D01*
X99238095Y-90531009D02*
X99809523Y-90531009D01*
X99809523Y-91054819D02*
X99809523Y-90054819D01*
X100238095Y-90150057D02*
X100285714Y-90102438D01*
X100285714Y-90102438D02*
X100380952Y-90054819D01*
X100380952Y-90054819D02*
X100619047Y-90054819D01*
X100619047Y-90054819D02*
X100714285Y-90102438D01*
X100714285Y-90102438D02*
X100761904Y-90150057D01*
X100761904Y-90150057D02*
X100809523Y-90245295D01*
X100809523Y-90245295D02*
X100809523Y-90340533D01*
X100809523Y-90340533D02*
X100761904Y-90483390D01*
X100761904Y-90483390D02*
X100190476Y-91054819D01*
X100190476Y-91054819D02*
X100809523Y-91054819D01*
%TO.C,H3*%
X99238095Y-128054819D02*
X99238095Y-127054819D01*
X99238095Y-127531009D02*
X99809523Y-127531009D01*
X99809523Y-128054819D02*
X99809523Y-127054819D01*
X100190476Y-127054819D02*
X100809523Y-127054819D01*
X100809523Y-127054819D02*
X100476190Y-127435771D01*
X100476190Y-127435771D02*
X100619047Y-127435771D01*
X100619047Y-127435771D02*
X100714285Y-127483390D01*
X100714285Y-127483390D02*
X100761904Y-127531009D01*
X100761904Y-127531009D02*
X100809523Y-127626247D01*
X100809523Y-127626247D02*
X100809523Y-127864342D01*
X100809523Y-127864342D02*
X100761904Y-127959580D01*
X100761904Y-127959580D02*
X100714285Y-128007200D01*
X100714285Y-128007200D02*
X100619047Y-128054819D01*
X100619047Y-128054819D02*
X100333333Y-128054819D01*
X100333333Y-128054819D02*
X100238095Y-128007200D01*
X100238095Y-128007200D02*
X100190476Y-127959580D01*
%TO.C,H4*%
X136238095Y-91054819D02*
X136238095Y-90054819D01*
X136238095Y-90531009D02*
X136809523Y-90531009D01*
X136809523Y-91054819D02*
X136809523Y-90054819D01*
X137714285Y-90388152D02*
X137714285Y-91054819D01*
X137476190Y-90007200D02*
X137238095Y-90721485D01*
X137238095Y-90721485D02*
X137857142Y-90721485D01*
%TO.C,H5*%
X62238095Y-91054819D02*
X62238095Y-90054819D01*
X62238095Y-90531009D02*
X62809523Y-90531009D01*
X62809523Y-91054819D02*
X62809523Y-90054819D01*
X63761904Y-90054819D02*
X63285714Y-90054819D01*
X63285714Y-90054819D02*
X63238095Y-90531009D01*
X63238095Y-90531009D02*
X63285714Y-90483390D01*
X63285714Y-90483390D02*
X63380952Y-90435771D01*
X63380952Y-90435771D02*
X63619047Y-90435771D01*
X63619047Y-90435771D02*
X63714285Y-90483390D01*
X63714285Y-90483390D02*
X63761904Y-90531009D01*
X63761904Y-90531009D02*
X63809523Y-90626247D01*
X63809523Y-90626247D02*
X63809523Y-90864342D01*
X63809523Y-90864342D02*
X63761904Y-90959580D01*
X63761904Y-90959580D02*
X63714285Y-91007200D01*
X63714285Y-91007200D02*
X63619047Y-91054819D01*
X63619047Y-91054819D02*
X63380952Y-91054819D01*
X63380952Y-91054819D02*
X63285714Y-91007200D01*
X63285714Y-91007200D02*
X63238095Y-90959580D01*
%TO.C,H1*%
X99238095Y-54054819D02*
X99238095Y-53054819D01*
X99238095Y-53531009D02*
X99809523Y-53531009D01*
X99809523Y-54054819D02*
X99809523Y-53054819D01*
X100809523Y-54054819D02*
X100238095Y-54054819D01*
X100523809Y-54054819D02*
X100523809Y-53054819D01*
X100523809Y-53054819D02*
X100428571Y-53197676D01*
X100428571Y-53197676D02*
X100333333Y-53292914D01*
X100333333Y-53292914D02*
X100238095Y-53340533D01*
D12*
%TO.C,D2*%
X76337342Y-130026265D02*
X76384961Y-130073884D01*
X76384961Y-130073884D02*
X76432580Y-130169122D01*
X76432580Y-130169122D02*
X76432580Y-130407217D01*
X76432580Y-130407217D02*
X76384961Y-130502455D01*
X76384961Y-130502455D02*
X76337342Y-130550074D01*
X76337342Y-130550074D02*
X76242104Y-130597693D01*
X76242104Y-130597693D02*
X76146866Y-130597693D01*
X76146866Y-130597693D02*
X76004009Y-130550074D01*
X76004009Y-130550074D02*
X75432580Y-129978646D01*
X75432580Y-129978646D02*
X75432580Y-130597693D01*
X67107580Y-130797693D02*
X67107580Y-130226265D01*
X67107580Y-130511979D02*
X68107580Y-130511979D01*
X68107580Y-130511979D02*
X67964723Y-130416741D01*
X67964723Y-130416741D02*
X67869485Y-130321503D01*
X67869485Y-130321503D02*
X67821866Y-130226265D01*
%TO.C,D1*%
X123622580Y-130797693D02*
X123622580Y-130226265D01*
X123622580Y-130511979D02*
X124622580Y-130511979D01*
X124622580Y-130511979D02*
X124479723Y-130416741D01*
X124479723Y-130416741D02*
X124384485Y-130321503D01*
X124384485Y-130321503D02*
X124336866Y-130226265D01*
X132852342Y-130026265D02*
X132899961Y-130073884D01*
X132899961Y-130073884D02*
X132947580Y-130169122D01*
X132947580Y-130169122D02*
X132947580Y-130407217D01*
X132947580Y-130407217D02*
X132899961Y-130502455D01*
X132899961Y-130502455D02*
X132852342Y-130550074D01*
X132852342Y-130550074D02*
X132757104Y-130597693D01*
X132757104Y-130597693D02*
X132661866Y-130597693D01*
X132661866Y-130597693D02*
X132519009Y-130550074D01*
X132519009Y-130550074D02*
X131947580Y-129978646D01*
X131947580Y-129978646D02*
X131947580Y-130597693D01*
%TO.C,D4*%
X67107580Y-74282693D02*
X67107580Y-73711265D01*
X67107580Y-73996979D02*
X68107580Y-73996979D01*
X68107580Y-73996979D02*
X67964723Y-73901741D01*
X67964723Y-73901741D02*
X67869485Y-73806503D01*
X67869485Y-73806503D02*
X67821866Y-73711265D01*
X76337342Y-73511265D02*
X76384961Y-73558884D01*
X76384961Y-73558884D02*
X76432580Y-73654122D01*
X76432580Y-73654122D02*
X76432580Y-73892217D01*
X76432580Y-73892217D02*
X76384961Y-73987455D01*
X76384961Y-73987455D02*
X76337342Y-74035074D01*
X76337342Y-74035074D02*
X76242104Y-74082693D01*
X76242104Y-74082693D02*
X76146866Y-74082693D01*
X76146866Y-74082693D02*
X76004009Y-74035074D01*
X76004009Y-74035074D02*
X75432580Y-73463646D01*
X75432580Y-73463646D02*
X75432580Y-74082693D01*
%TO.C,D3*%
X123622580Y-74282693D02*
X123622580Y-73711265D01*
X123622580Y-73996979D02*
X124622580Y-73996979D01*
X124622580Y-73996979D02*
X124479723Y-73901741D01*
X124479723Y-73901741D02*
X124384485Y-73806503D01*
X124384485Y-73806503D02*
X124336866Y-73711265D01*
X132852342Y-73511265D02*
X132899961Y-73558884D01*
X132899961Y-73558884D02*
X132947580Y-73654122D01*
X132947580Y-73654122D02*
X132947580Y-73892217D01*
X132947580Y-73892217D02*
X132899961Y-73987455D01*
X132899961Y-73987455D02*
X132852342Y-74035074D01*
X132852342Y-74035074D02*
X132757104Y-74082693D01*
X132757104Y-74082693D02*
X132661866Y-74082693D01*
X132661866Y-74082693D02*
X132519009Y-74035074D01*
X132519009Y-74035074D02*
X131947580Y-73463646D01*
X131947580Y-73463646D02*
X131947580Y-74082693D01*
%TO.C,D2*%
X72780000Y-124120000D02*
X72780000Y-121595000D01*
X74780000Y-124770000D02*
X74780000Y-131770000D01*
X68780000Y-124770000D02*
X74780000Y-124770000D01*
X74780000Y-131770000D02*
X68755000Y-131820000D01*
X68755000Y-131820000D02*
X68780000Y-124770000D01*
X72730000Y-122870000D02*
X70955000Y-124120000D01*
X70955000Y-121620000D01*
X72730000Y-122870000D01*
G36*
X72730000Y-122870000D02*
G01*
X70955000Y-124120000D01*
X70955000Y-121620000D01*
X72730000Y-122870000D01*
G37*
%TO.C,D1*%
X129245000Y-124245000D02*
X129245000Y-121720000D01*
X131295000Y-124770000D02*
X131295000Y-131770000D01*
X125295000Y-124770000D02*
X131295000Y-124770000D01*
X131295000Y-131770000D02*
X125270000Y-131820000D01*
X125270000Y-131820000D02*
X125295000Y-124770000D01*
X129195000Y-122995000D02*
X127420000Y-124245000D01*
X127420000Y-121745000D01*
X129195000Y-122995000D01*
G36*
X129195000Y-122995000D02*
G01*
X127420000Y-124245000D01*
X127420000Y-121745000D01*
X129195000Y-122995000D01*
G37*
%TO.C,D4*%
X74780000Y-68255000D02*
X74780000Y-75255000D01*
X68780000Y-68255000D02*
X74780000Y-68255000D01*
X74780000Y-75255000D02*
X68755000Y-75305000D01*
X68755000Y-75305000D02*
X68780000Y-68255000D01*
X72730000Y-78555000D02*
X72730000Y-76030000D01*
X72680000Y-77305000D02*
X70905000Y-78555000D01*
X70905000Y-76055000D01*
X72680000Y-77305000D01*
G36*
X72680000Y-77305000D02*
G01*
X70905000Y-78555000D01*
X70905000Y-76055000D01*
X72680000Y-77305000D01*
G37*
%TO.C,D3*%
X131295000Y-68255000D02*
X131295000Y-75255000D01*
X125295000Y-68255000D02*
X131295000Y-68255000D01*
X131295000Y-75255000D02*
X125270000Y-75305000D01*
X125270000Y-75305000D02*
X125295000Y-68255000D01*
X129245000Y-78555000D02*
X129245000Y-76030000D01*
X129195000Y-77305000D02*
X127420000Y-78555000D01*
X127420000Y-76055000D01*
X129195000Y-77305000D01*
G36*
X129195000Y-77305000D02*
G01*
X127420000Y-78555000D01*
X127420000Y-76055000D01*
X129195000Y-77305000D01*
G37*
%TD*%
M02*
