%TF.GenerationSoftware,KiCad,Pcbnew,7.0.5-0*%
%TF.CreationDate,2023-06-12T10:58:37-04:00*%
%TF.ProjectId,quad_sipm,71756164-5f73-4697-906d-2e6b69636164,rev?*%
%TF.SameCoordinates,Original*%
%TF.FileFunction,Copper,L1,Top*%
%TF.FilePolarity,Positive*%
%FSLAX46Y46*%
G04 Gerber Fmt 4.6, Leading zero omitted, Abs format (unit mm)*
G04 Created by KiCad (PCBNEW 7.0.5-0) date 2023-06-12 10:58:37*
%MOMM*%
%LPD*%
G01*
G04 APERTURE LIST*
%TA.AperFunction,ComponentPad*%
%ADD10C,16.800000*%
%TD*%
%TA.AperFunction,ComponentPad*%
%ADD11C,12.000000*%
%TD*%
%TA.AperFunction,ComponentPad*%
%ADD12C,1.524000*%
%TD*%
%TA.AperFunction,ComponentPad*%
%ADD13R,1.700000X1.700000*%
%TD*%
%TA.AperFunction,ComponentPad*%
%ADD14O,1.700000X1.700000*%
%TD*%
%TA.AperFunction,Conductor*%
%ADD15C,0.635000*%
%TD*%
G04 APERTURE END LIST*
D10*
%TO.P,H2,1*%
%TO.N,N/C*%
X100000000Y-100000000D03*
%TD*%
D11*
%TO.P,H3,1*%
%TO.N,N/C*%
X100000000Y-137000000D03*
%TD*%
%TO.P,H4,1*%
%TO.N,N/C*%
X137000000Y-100000000D03*
%TD*%
%TO.P,H5,1*%
%TO.N,N/C*%
X63000000Y-100000000D03*
%TD*%
%TO.P,H1,1*%
%TO.N,N/C*%
X100000000Y-63000000D03*
%TD*%
D12*
%TO.P,D2,1,A*%
%TO.N,Net-(D2-A)*%
X70480000Y-130270000D03*
%TO.P,D2,2,K*%
%TO.N,Net-(D2-K)*%
X73030000Y-130270000D03*
%TD*%
%TO.P,D1,1,A*%
%TO.N,Net-(D1-A)*%
X126995000Y-130270000D03*
%TO.P,D1,2,K*%
%TO.N,Net-(D1-K)*%
X129545000Y-130270000D03*
%TD*%
%TO.P,D4,1,A*%
%TO.N,Net-(D4-A)*%
X70480000Y-73755000D03*
%TO.P,D4,2,K*%
%TO.N,Net-(D4-K)*%
X73030000Y-73755000D03*
%TD*%
%TO.P,D3,1,A*%
%TO.N,Net-(D3-A)*%
X126995000Y-73755000D03*
%TO.P,D3,2,K*%
%TO.N,Net-(D3-K)*%
X129545000Y-73755000D03*
%TD*%
D13*
%TO.P,J1,1,Pin_1*%
%TO.N,Net-(J1-Pin_1)*%
X125050000Y-139745000D03*
D14*
%TO.P,J1,2,Pin_2*%
%TO.N,Net-(D1-A)*%
X127590000Y-139745000D03*
%TO.P,J1,3,Pin_3*%
%TO.N,Net-(D1-K)*%
X130130000Y-139745000D03*
%TD*%
D13*
%TO.P,J3,1,Pin_1*%
%TO.N,Net-(J3-Pin_1)*%
X124460000Y-60045000D03*
D14*
%TO.P,J3,2,Pin_2*%
%TO.N,Net-(D3-A)*%
X127000000Y-60045000D03*
%TO.P,J3,3,Pin_3*%
%TO.N,Net-(D3-K)*%
X129540000Y-60045000D03*
%TD*%
D13*
%TO.P,J4,1,Pin_1*%
%TO.N,Net-(J4-Pin_1)*%
X68580000Y-60045000D03*
D14*
%TO.P,J4,2,Pin_2*%
%TO.N,Net-(D4-A)*%
X71120000Y-60045000D03*
%TO.P,J4,3,Pin_3*%
%TO.N,Net-(D4-K)*%
X73660000Y-60045000D03*
%TD*%
D13*
%TO.P,J2,1,Pin_1*%
%TO.N,Net-(J2-Pin_1)*%
X69170000Y-140045000D03*
D14*
%TO.P,J2,2,Pin_2*%
%TO.N,Net-(D2-A)*%
X71710000Y-140045000D03*
%TO.P,J2,3,Pin_3*%
%TO.N,Net-(D2-K)*%
X74250000Y-140045000D03*
%TD*%
D15*
%TO.N,Net-(D1-A)*%
X126995000Y-139060000D02*
X127635000Y-139700000D01*
X126995000Y-130270000D02*
X126995000Y-139060000D01*
%TO.N,Net-(D2-A)*%
X70480000Y-130270000D02*
X70480000Y-138940000D01*
X70480000Y-138940000D02*
X71540000Y-140000000D01*
%TO.N,Net-(D3-A)*%
X127000000Y-73750000D02*
X126995000Y-73755000D01*
X127000000Y-60045000D02*
X127000000Y-73750000D01*
%TO.N,Net-(D4-A)*%
X70480000Y-73755000D02*
X70480000Y-61060000D01*
X70480000Y-61060000D02*
X71540000Y-60000000D01*
%TD*%
M02*
