M48
; DRILL file {KiCad 7.0.5-0} date 2023 July 18, Tuesday 11:52:23
; FORMAT={-:-/ absolute / inch / decimal}
; #@! TF.CreationDate,2023-07-18T11:52:23-04:00
; #@! TF.GenerationSoftware,Kicad,Pcbnew,7.0.5-0
; #@! TF.FileFunction,Plated,1,4,PTH
FMAT,2
INCH
; #@! TA.AperFunction,Plated,PTH,ComponentDrill
T1C0.0320
; #@! TA.AperFunction,Plated,PTH,ComponentDrill
T2C0.0350
; #@! TA.AperFunction,Plated,PTH,ComponentDrill
T3C0.1160
%
G90
G05
T1
X3.105Y-2.505
X3.105Y-2.655
X3.155Y-2.43
X3.155Y-2.58
X3.205Y-2.505
X3.205Y-2.655
X3.255Y-2.43
X3.255Y-2.58
X3.305Y-2.505
X3.305Y-2.655
X3.355Y-2.43
X3.355Y-2.58
X3.405Y-2.505
X3.405Y-2.655
X3.455Y-2.43
X3.455Y-2.58
X3.505Y-2.505
X3.505Y-2.655
X3.555Y-2.43
X3.555Y-2.58
X3.605Y-2.505
X3.605Y-2.655
X3.655Y-2.43
X3.655Y-2.58
X3.705Y-2.505
X3.705Y-2.655
X3.755Y-2.43
X3.755Y-2.58
X3.805Y-2.505
X3.805Y-2.655
X3.855Y-2.43
X3.855Y-2.58
X3.905Y-2.505
X3.905Y-2.655
X3.955Y-2.43
X3.955Y-2.58
X4.005Y-2.505
X4.005Y-2.655
X4.055Y-2.43
X4.055Y-2.58
X4.105Y-2.505
X4.105Y-2.655
X4.155Y-2.43
X4.155Y-2.58
X4.205Y-2.505
X4.205Y-2.655
X4.255Y-2.43
X4.255Y-2.58
X4.305Y-2.505
X4.305Y-2.655
X4.355Y-2.43
X4.355Y-2.58
X4.405Y-2.505
X4.405Y-2.655
X4.455Y-2.43
X4.455Y-2.58
X4.505Y-2.505
X4.505Y-2.655
X4.555Y-2.43
X4.555Y-2.58
X4.605Y-2.505
X4.605Y-2.655
X4.655Y-2.43
X4.655Y-2.58
X4.705Y-2.505
X4.705Y-2.655
X4.755Y-2.43
X4.755Y-2.58
T2
X2.748Y-4.569
X2.748Y-4.669
X2.848Y-4.569
X2.848Y-4.669
X2.851Y-3.3
X2.851Y-3.4
X2.851Y-3.5
X2.851Y-3.6
X2.851Y-3.7
X2.851Y-3.8
X2.851Y-3.9
X2.851Y-4.0
X2.948Y-4.569
X2.948Y-4.669
X2.951Y-3.3
X2.951Y-3.4
X2.951Y-3.5
X2.951Y-3.6
X2.951Y-3.7
X2.951Y-3.8
X2.951Y-3.9
X2.951Y-4.0
X3.048Y-4.569
X3.048Y-4.669
X3.148Y-4.569
X3.148Y-4.669
X3.248Y-4.569
X3.248Y-4.669
X3.348Y-4.569
X3.348Y-4.669
X3.448Y-4.569
X3.448Y-4.669
X4.432Y-4.569
X4.432Y-4.669
X4.532Y-4.569
X4.532Y-4.669
X4.632Y-4.569
X4.632Y-4.669
X4.732Y-4.569
X4.732Y-4.669
X4.832Y-4.569
X4.832Y-4.669
X4.929Y-3.292
X4.929Y-3.392
X4.929Y-3.492
X4.929Y-3.592
X4.929Y-3.692
X4.929Y-3.792
X4.929Y-3.892
X4.929Y-3.992
X4.932Y-4.569
X4.932Y-4.669
X5.029Y-3.292
X5.029Y-3.392
X5.029Y-3.492
X5.029Y-3.592
X5.029Y-3.692
X5.029Y-3.792
X5.029Y-3.892
X5.029Y-3.992
X5.032Y-4.569
X5.032Y-4.669
X5.132Y-4.569
X5.132Y-4.669
T3
X2.516Y-4.64
X2.88Y-3.068
X2.88Y-4.232
X3.68Y-4.64
X4.2Y-4.64
X5.0Y-3.06
X5.0Y-4.224
X5.364Y-4.64
T0
M30
