%TF.GenerationSoftware,KiCad,Pcbnew,7.0.5-0*%
%TF.CreationDate,2023-07-05T09:37:03-04:00*%
%TF.ProjectId,quad_sipm,71756164-5f73-4697-906d-2e6b69636164,rev?*%
%TF.SameCoordinates,Original*%
%TF.FileFunction,Copper,L1,Top*%
%TF.FilePolarity,Positive*%
%FSLAX46Y46*%
G04 Gerber Fmt 4.6, Leading zero omitted, Abs format (unit mm)*
G04 Created by KiCad (PCBNEW 7.0.5-0) date 2023-07-05 09:37:03*
%MOMM*%
%LPD*%
G01*
G04 APERTURE LIST*
%TA.AperFunction,ComponentPad*%
%ADD10C,16.800000*%
%TD*%
%TA.AperFunction,ComponentPad*%
%ADD11C,12.000000*%
%TD*%
%TA.AperFunction,SMDPad,CuDef*%
%ADD12C,1.000000*%
%TD*%
%TA.AperFunction,ComponentPad*%
%ADD13R,1.700000X1.700000*%
%TD*%
%TA.AperFunction,ComponentPad*%
%ADD14O,1.700000X1.700000*%
%TD*%
%TA.AperFunction,ViaPad*%
%ADD15C,0.800000*%
%TD*%
%TA.AperFunction,Conductor*%
%ADD16C,0.635000*%
%TD*%
G04 APERTURE END LIST*
D10*
%TO.P,H2,1*%
%TO.N,N/C*%
X100000000Y-100000000D03*
%TD*%
D11*
%TO.P,H3,1*%
%TO.N,N/C*%
X100000000Y-137000000D03*
%TD*%
%TO.P,H4,1*%
%TO.N,N/C*%
X137000000Y-100000000D03*
%TD*%
%TO.P,H5,1*%
%TO.N,N/C*%
X63000000Y-100000000D03*
%TD*%
%TO.P,H1,1*%
%TO.N,N/C*%
X100000000Y-63000000D03*
%TD*%
D12*
%TO.P,D1,1,K*%
%TO.N,Net-(D1-K)*%
X125535000Y-129935000D03*
%TO.P,D1,2,A*%
%TO.N,Net-(D1-A)*%
X129735000Y-129935000D03*
%TO.P,D1,3*%
%TO.N,N/C*%
X125535000Y-125335000D03*
%TO.P,D1,4*%
X129735000Y-125335000D03*
%TD*%
%TO.P,D2,1,K*%
%TO.N,Net-(D2-K)*%
X70290000Y-129935000D03*
%TO.P,D2,2,A*%
%TO.N,Net-(D2-A)*%
X74490000Y-129935000D03*
%TO.P,D2,3*%
%TO.N,N/C*%
X70290000Y-125335000D03*
%TO.P,D2,4*%
X74490000Y-125335000D03*
%TD*%
%TO.P,D4,1,K*%
%TO.N,Net-(D4-K)*%
X74490000Y-70090000D03*
%TO.P,D4,2,A*%
%TO.N,Net-(D4-A)*%
X70290000Y-70090000D03*
%TO.P,D4,3*%
%TO.N,N/C*%
X74490000Y-74690000D03*
%TO.P,D4,4*%
X70290000Y-74690000D03*
%TD*%
%TO.P,D3,1,K*%
%TO.N,Net-(D3-K)*%
X129735000Y-70090000D03*
%TO.P,D3,2,A*%
%TO.N,Net-(D3-A)*%
X125535000Y-70090000D03*
%TO.P,D3,3*%
%TO.N,N/C*%
X129735000Y-74690000D03*
%TO.P,D3,4*%
X125535000Y-74690000D03*
%TD*%
D13*
%TO.P,J1,1,Pin_1*%
%TO.N,Net-(J1-Pin_1)*%
X130855000Y-143465000D03*
D14*
%TO.P,J1,2,Pin_2*%
%TO.N,Net-(J1-Pin_2)*%
X128315000Y-143465000D03*
%TO.P,J1,3,Pin_3*%
%TO.N,Net-(D1-K)*%
X125775000Y-143465000D03*
%TD*%
D13*
%TO.P,J3,1,Pin_1*%
%TO.N,Net-(J3-Pin_1)*%
X123825000Y-56515000D03*
D14*
%TO.P,J3,2,Pin_2*%
%TO.N,Net-(J3-Pin_2)*%
X126365000Y-56515000D03*
%TO.P,J3,3,Pin_3*%
%TO.N,Net-(D3-K)*%
X128905000Y-56515000D03*
%TD*%
D13*
%TO.P,J4,1,Pin_1*%
%TO.N,Net-(J4-Pin_1)*%
X69215000Y-56515000D03*
D14*
%TO.P,J4,2,Pin_2*%
%TO.N,Net-(J4-Pin_2)*%
X71755000Y-56515000D03*
%TO.P,J4,3,Pin_3*%
%TO.N,Net-(D4-K)*%
X74295000Y-56515000D03*
%TD*%
D13*
%TO.P,J2,1,Pin_1*%
%TO.N,Net-(J2-Pin_1)*%
X74385000Y-143420000D03*
D14*
%TO.P,J2,2,Pin_2*%
%TO.N,Net-(J2-Pin_2)*%
X71845000Y-143420000D03*
%TO.P,J2,3,Pin_3*%
%TO.N,Net-(D2-K)*%
X69305000Y-143420000D03*
%TD*%
D15*
%TO.N,Net-(D1-A)*%
X130048000Y-133604000D03*
%TO.N,Net-(D1-K)*%
X125476000Y-133604000D03*
%TO.N,Net-(D2-A)*%
X74676000Y-133604000D03*
%TO.N,Net-(D2-K)*%
X70104000Y-134112000D03*
%TO.N,Net-(D3-K)*%
X129540000Y-66675000D03*
%TO.N,Net-(D4-K)*%
X74930000Y-66675000D03*
%TO.N,Net-(D3-A)*%
X125730000Y-66675000D03*
%TO.N,Net-(D4-A)*%
X70485000Y-66675000D03*
%TD*%
D16*
%TO.N,Net-(D1-A)*%
X129735000Y-129935000D02*
X129735000Y-133291000D01*
X129735000Y-133291000D02*
X130048000Y-133604000D01*
%TO.N,Net-(D1-K)*%
X125535000Y-133545000D02*
X125476000Y-133604000D01*
X125535000Y-129935000D02*
X125535000Y-133545000D01*
%TO.N,Net-(D2-A)*%
X74490000Y-133418000D02*
X74676000Y-133604000D01*
X74490000Y-129935000D02*
X74490000Y-133418000D01*
%TO.N,Net-(D2-K)*%
X70290000Y-133926000D02*
X70104000Y-134112000D01*
X70290000Y-129935000D02*
X70290000Y-133926000D01*
%TO.N,Net-(D2-A)*%
X74295000Y-130130000D02*
X74490000Y-129935000D01*
%TO.N,Net-(D3-K)*%
X129735000Y-66870000D02*
X129540000Y-66675000D01*
X129735000Y-70090000D02*
X129735000Y-66870000D01*
%TO.N,Net-(D4-K)*%
X74490000Y-67115000D02*
X74930000Y-66675000D01*
X74490000Y-70090000D02*
X74490000Y-67115000D01*
%TO.N,Net-(D2-K)*%
X70485000Y-130130000D02*
X70290000Y-129935000D01*
%TO.N,Net-(D3-A)*%
X125535000Y-70090000D02*
X125535000Y-66870000D01*
X125535000Y-66870000D02*
X125730000Y-66675000D01*
%TO.N,Net-(D4-A)*%
X70290000Y-70090000D02*
X70290000Y-66870000D01*
X70290000Y-66870000D02*
X70485000Y-66675000D01*
%TD*%
M02*
