M48
; DRILL file {KiCad 7.0.5-0} date 2023 July 05, Wednesday 09:41:41
; FORMAT={-:-/ absolute / inch / decimal}
; #@! TF.CreationDate,2023-07-05T09:41:41-04:00
; #@! TF.GenerationSoftware,Kicad,Pcbnew,7.0.5-0
; #@! TF.FileFunction,Plated,1,2,PTH
FMAT,2
INCH
; #@! TA.AperFunction,Plated,PTH,ViaDrill
T1C0.0157
; #@! TA.AperFunction,Plated,PTH,ComponentDrill
T2C0.0394
; #@! TA.AperFunction,Plated,PTH,ComponentDrill
T3C0.2520
; #@! TA.AperFunction,Plated,PTH,ComponentDrill
T4C0.4724
%
G90
G05
T1
X2.76Y-5.28
X2.775Y-2.625
X2.94Y-5.26
X2.95Y-2.625
X4.94Y-5.26
X4.95Y-2.625
X5.1Y-2.625
X5.12Y-5.26
T2
X2.725Y-2.225
X2.7285Y-5.6465
X2.825Y-2.225
X2.8285Y-5.6465
X2.925Y-2.225
X2.9285Y-5.6465
X4.875Y-2.225
X4.9518Y-5.6482
X4.975Y-2.225
X5.0518Y-5.6482
X5.075Y-2.225
X5.1518Y-5.6482
T3
X2.4803Y-3.937
X3.937Y-2.4803
X3.937Y-5.3937
X5.3937Y-3.937
T4
X3.937Y-3.937
T0
M30
