%TF.GenerationSoftware,KiCad,Pcbnew,7.0.5-0*%
%TF.CreationDate,2023-08-23T15:34:40-04:00*%
%TF.ProjectId,quad_sipm,71756164-5f73-4697-906d-2e6b69636164,6.2*%
%TF.SameCoordinates,Original*%
%TF.FileFunction,Legend,Bot*%
%TF.FilePolarity,Positive*%
%FSLAX46Y46*%
G04 Gerber Fmt 4.6, Leading zero omitted, Abs format (unit mm)*
G04 Created by KiCad (PCBNEW 7.0.5-0) date 2023-08-23 15:34:40*
%MOMM*%
%LPD*%
G01*
G04 APERTURE LIST*
%ADD10C,0.150000*%
%ADD11C,0.203200*%
%ADD12C,0.120000*%
%ADD13C,0.152400*%
G04 APERTURE END LIST*
D10*
X124597438Y-53601904D02*
X124549819Y-53506666D01*
X124549819Y-53506666D02*
X124549819Y-53363809D01*
X124549819Y-53363809D02*
X124597438Y-53220952D01*
X124597438Y-53220952D02*
X124692676Y-53125714D01*
X124692676Y-53125714D02*
X124787914Y-53078095D01*
X124787914Y-53078095D02*
X124978390Y-53030476D01*
X124978390Y-53030476D02*
X125121247Y-53030476D01*
X125121247Y-53030476D02*
X125311723Y-53078095D01*
X125311723Y-53078095D02*
X125406961Y-53125714D01*
X125406961Y-53125714D02*
X125502200Y-53220952D01*
X125502200Y-53220952D02*
X125549819Y-53363809D01*
X125549819Y-53363809D02*
X125549819Y-53459047D01*
X125549819Y-53459047D02*
X125502200Y-53601904D01*
X125502200Y-53601904D02*
X125454580Y-53649523D01*
X125454580Y-53649523D02*
X125121247Y-53649523D01*
X125121247Y-53649523D02*
X125121247Y-53459047D01*
X131899819Y-53078095D02*
X130899819Y-53078095D01*
X131899819Y-53649523D02*
X131328390Y-53220952D01*
X130899819Y-53649523D02*
X131471247Y-53078095D01*
X128439104Y-53101905D02*
X128439104Y-53578095D01*
X128724819Y-53006667D02*
X127724819Y-53340000D01*
X127724819Y-53340000D02*
X128724819Y-53673333D01*
X68717438Y-146983220D02*
X68669819Y-146887982D01*
X68669819Y-146887982D02*
X68669819Y-146745125D01*
X68669819Y-146745125D02*
X68717438Y-146602268D01*
X68717438Y-146602268D02*
X68812676Y-146507030D01*
X68812676Y-146507030D02*
X68907914Y-146459411D01*
X68907914Y-146459411D02*
X69098390Y-146411792D01*
X69098390Y-146411792D02*
X69241247Y-146411792D01*
X69241247Y-146411792D02*
X69431723Y-146459411D01*
X69431723Y-146459411D02*
X69526961Y-146507030D01*
X69526961Y-146507030D02*
X69622200Y-146602268D01*
X69622200Y-146602268D02*
X69669819Y-146745125D01*
X69669819Y-146745125D02*
X69669819Y-146840363D01*
X69669819Y-146840363D02*
X69622200Y-146983220D01*
X69622200Y-146983220D02*
X69574580Y-147030839D01*
X69574580Y-147030839D02*
X69241247Y-147030839D01*
X69241247Y-147030839D02*
X69241247Y-146840363D01*
X71924104Y-146554649D02*
X71924104Y-147030839D01*
X72209819Y-146459411D02*
X71209819Y-146792744D01*
X71209819Y-146792744D02*
X72209819Y-147126077D01*
X75384819Y-53078095D02*
X74384819Y-53078095D01*
X75384819Y-53649523D02*
X74813390Y-53220952D01*
X74384819Y-53649523D02*
X74956247Y-53078095D01*
X71924104Y-53101905D02*
X71924104Y-53578095D01*
X72209819Y-53006667D02*
X71209819Y-53340000D01*
X71209819Y-53340000D02*
X72209819Y-53673333D01*
X74749819Y-146423095D02*
X73749819Y-146423095D01*
X74749819Y-146994523D02*
X74178390Y-146565952D01*
X73749819Y-146994523D02*
X74321247Y-146423095D01*
X128439104Y-146446905D02*
X128439104Y-146923095D01*
X128724819Y-146351667D02*
X127724819Y-146685000D01*
X127724819Y-146685000D02*
X128724819Y-147018333D01*
X125232438Y-146983220D02*
X125184819Y-146887982D01*
X125184819Y-146887982D02*
X125184819Y-146745125D01*
X125184819Y-146745125D02*
X125232438Y-146602268D01*
X125232438Y-146602268D02*
X125327676Y-146507030D01*
X125327676Y-146507030D02*
X125422914Y-146459411D01*
X125422914Y-146459411D02*
X125613390Y-146411792D01*
X125613390Y-146411792D02*
X125756247Y-146411792D01*
X125756247Y-146411792D02*
X125946723Y-146459411D01*
X125946723Y-146459411D02*
X126041961Y-146507030D01*
X126041961Y-146507030D02*
X126137200Y-146602268D01*
X126137200Y-146602268D02*
X126184819Y-146745125D01*
X126184819Y-146745125D02*
X126184819Y-146840363D01*
X126184819Y-146840363D02*
X126137200Y-146983220D01*
X126137200Y-146983220D02*
X126089580Y-147030839D01*
X126089580Y-147030839D02*
X125756247Y-147030839D01*
X125756247Y-147030839D02*
X125756247Y-146840363D01*
X131899819Y-146423095D02*
X130899819Y-146423095D01*
X131899819Y-146994523D02*
X131328390Y-146565952D01*
X130899819Y-146994523D02*
X131471247Y-146423095D01*
D11*
X146157744Y-86810410D02*
X145900601Y-86891362D01*
X145900601Y-86891362D02*
X145814887Y-86972314D01*
X145814887Y-86972314D02*
X145729173Y-87134219D01*
X145729173Y-87134219D02*
X145729173Y-87377076D01*
X145729173Y-87377076D02*
X145814887Y-87538981D01*
X145814887Y-87538981D02*
X145900601Y-87619934D01*
X145900601Y-87619934D02*
X146072030Y-87700886D01*
X146072030Y-87700886D02*
X146757744Y-87700886D01*
X146757744Y-87700886D02*
X146757744Y-86000886D01*
X146757744Y-86000886D02*
X146157744Y-86000886D01*
X146157744Y-86000886D02*
X145986316Y-86081838D01*
X145986316Y-86081838D02*
X145900601Y-86162791D01*
X145900601Y-86162791D02*
X145814887Y-86324695D01*
X145814887Y-86324695D02*
X145814887Y-86486600D01*
X145814887Y-86486600D02*
X145900601Y-86648505D01*
X145900601Y-86648505D02*
X145986316Y-86729457D01*
X145986316Y-86729457D02*
X146157744Y-86810410D01*
X146157744Y-86810410D02*
X146757744Y-86810410D01*
X144957744Y-86000886D02*
X144957744Y-87377076D01*
X144957744Y-87377076D02*
X144872030Y-87538981D01*
X144872030Y-87538981D02*
X144786316Y-87619934D01*
X144786316Y-87619934D02*
X144614887Y-87700886D01*
X144614887Y-87700886D02*
X144272030Y-87700886D01*
X144272030Y-87700886D02*
X144100601Y-87619934D01*
X144100601Y-87619934D02*
X144014887Y-87538981D01*
X144014887Y-87538981D02*
X143929173Y-87377076D01*
X143929173Y-87377076D02*
X143929173Y-86000886D01*
X141700601Y-87700886D02*
X141700601Y-86000886D01*
X141700601Y-86000886D02*
X141272030Y-86000886D01*
X141272030Y-86000886D02*
X141014887Y-86081838D01*
X141014887Y-86081838D02*
X140843458Y-86243743D01*
X140843458Y-86243743D02*
X140757744Y-86405648D01*
X140757744Y-86405648D02*
X140672030Y-86729457D01*
X140672030Y-86729457D02*
X140672030Y-86972314D01*
X140672030Y-86972314D02*
X140757744Y-87296124D01*
X140757744Y-87296124D02*
X140843458Y-87458029D01*
X140843458Y-87458029D02*
X141014887Y-87619934D01*
X141014887Y-87619934D02*
X141272030Y-87700886D01*
X141272030Y-87700886D02*
X141700601Y-87700886D01*
X139129173Y-87700886D02*
X139129173Y-86810410D01*
X139129173Y-86810410D02*
X139214887Y-86648505D01*
X139214887Y-86648505D02*
X139386315Y-86567553D01*
X139386315Y-86567553D02*
X139729173Y-86567553D01*
X139729173Y-86567553D02*
X139900601Y-86648505D01*
X139129173Y-87619934D02*
X139300601Y-87700886D01*
X139300601Y-87700886D02*
X139729173Y-87700886D01*
X139729173Y-87700886D02*
X139900601Y-87619934D01*
X139900601Y-87619934D02*
X139986315Y-87458029D01*
X139986315Y-87458029D02*
X139986315Y-87296124D01*
X139986315Y-87296124D02*
X139900601Y-87134219D01*
X139900601Y-87134219D02*
X139729173Y-87053267D01*
X139729173Y-87053267D02*
X139300601Y-87053267D01*
X139300601Y-87053267D02*
X139129173Y-86972314D01*
X138272030Y-87700886D02*
X138272030Y-86567553D01*
X138272030Y-86891362D02*
X138186316Y-86729457D01*
X138186316Y-86729457D02*
X138100602Y-86648505D01*
X138100602Y-86648505D02*
X137929173Y-86567553D01*
X137929173Y-86567553D02*
X137757744Y-86567553D01*
X137157744Y-87700886D02*
X137157744Y-86000886D01*
X136986316Y-87053267D02*
X136472030Y-87700886D01*
X136472030Y-86567553D02*
X137157744Y-87215172D01*
X134500601Y-87862791D02*
X134672030Y-87781838D01*
X134672030Y-87781838D02*
X134843458Y-87619934D01*
X134843458Y-87619934D02*
X135100601Y-87377076D01*
X135100601Y-87377076D02*
X135272030Y-87296124D01*
X135272030Y-87296124D02*
X135443458Y-87296124D01*
X135357744Y-87700886D02*
X135529173Y-87619934D01*
X135529173Y-87619934D02*
X135700601Y-87458029D01*
X135700601Y-87458029D02*
X135786315Y-87134219D01*
X135786315Y-87134219D02*
X135786315Y-86567553D01*
X135786315Y-86567553D02*
X135700601Y-86243743D01*
X135700601Y-86243743D02*
X135529173Y-86081838D01*
X135529173Y-86081838D02*
X135357744Y-86000886D01*
X135357744Y-86000886D02*
X135014887Y-86000886D01*
X135014887Y-86000886D02*
X134843458Y-86081838D01*
X134843458Y-86081838D02*
X134672030Y-86243743D01*
X134672030Y-86243743D02*
X134586315Y-86567553D01*
X134586315Y-86567553D02*
X134586315Y-87134219D01*
X134586315Y-87134219D02*
X134672030Y-87458029D01*
X134672030Y-87458029D02*
X134843458Y-87619934D01*
X134843458Y-87619934D02*
X135014887Y-87700886D01*
X135014887Y-87700886D02*
X135357744Y-87700886D01*
X133043459Y-86567553D02*
X133043459Y-87700886D01*
X133814887Y-86567553D02*
X133814887Y-87458029D01*
X133814887Y-87458029D02*
X133729173Y-87619934D01*
X133729173Y-87619934D02*
X133557744Y-87700886D01*
X133557744Y-87700886D02*
X133300601Y-87700886D01*
X133300601Y-87700886D02*
X133129173Y-87619934D01*
X133129173Y-87619934D02*
X133043459Y-87538981D01*
X131500602Y-87619934D02*
X131672030Y-87700886D01*
X131672030Y-87700886D02*
X132014888Y-87700886D01*
X132014888Y-87700886D02*
X132186316Y-87619934D01*
X132186316Y-87619934D02*
X132272030Y-87458029D01*
X132272030Y-87458029D02*
X132272030Y-86810410D01*
X132272030Y-86810410D02*
X132186316Y-86648505D01*
X132186316Y-86648505D02*
X132014888Y-86567553D01*
X132014888Y-86567553D02*
X131672030Y-86567553D01*
X131672030Y-86567553D02*
X131500602Y-86648505D01*
X131500602Y-86648505D02*
X131414888Y-86810410D01*
X131414888Y-86810410D02*
X131414888Y-86972314D01*
X131414888Y-86972314D02*
X132272030Y-87134219D01*
X130729173Y-87619934D02*
X130557745Y-87700886D01*
X130557745Y-87700886D02*
X130214888Y-87700886D01*
X130214888Y-87700886D02*
X130043459Y-87619934D01*
X130043459Y-87619934D02*
X129957745Y-87458029D01*
X129957745Y-87458029D02*
X129957745Y-87377076D01*
X129957745Y-87377076D02*
X130043459Y-87215172D01*
X130043459Y-87215172D02*
X130214888Y-87134219D01*
X130214888Y-87134219D02*
X130472031Y-87134219D01*
X130472031Y-87134219D02*
X130643459Y-87053267D01*
X130643459Y-87053267D02*
X130729173Y-86891362D01*
X130729173Y-86891362D02*
X130729173Y-86810410D01*
X130729173Y-86810410D02*
X130643459Y-86648505D01*
X130643459Y-86648505D02*
X130472031Y-86567553D01*
X130472031Y-86567553D02*
X130214888Y-86567553D01*
X130214888Y-86567553D02*
X130043459Y-86648505D01*
X129443459Y-86567553D02*
X128757745Y-86567553D01*
X129186316Y-86000886D02*
X129186316Y-87458029D01*
X129186316Y-87458029D02*
X129100602Y-87619934D01*
X129100602Y-87619934D02*
X128929173Y-87700886D01*
X128929173Y-87700886D02*
X128757745Y-87700886D01*
X146757744Y-89547410D02*
X146157744Y-89547410D01*
X145900601Y-90437886D02*
X146757744Y-90437886D01*
X146757744Y-90437886D02*
X146757744Y-88737886D01*
X146757744Y-88737886D02*
X145900601Y-88737886D01*
X145129173Y-90437886D02*
X145129173Y-88737886D01*
X145129173Y-88737886D02*
X144529173Y-89952172D01*
X144529173Y-89952172D02*
X143929173Y-88737886D01*
X143929173Y-88737886D02*
X143929173Y-90437886D01*
X142043459Y-90275981D02*
X142129173Y-90356934D01*
X142129173Y-90356934D02*
X142386316Y-90437886D01*
X142386316Y-90437886D02*
X142557744Y-90437886D01*
X142557744Y-90437886D02*
X142814887Y-90356934D01*
X142814887Y-90356934D02*
X142986316Y-90195029D01*
X142986316Y-90195029D02*
X143072030Y-90033124D01*
X143072030Y-90033124D02*
X143157744Y-89709314D01*
X143157744Y-89709314D02*
X143157744Y-89466457D01*
X143157744Y-89466457D02*
X143072030Y-89142648D01*
X143072030Y-89142648D02*
X142986316Y-88980743D01*
X142986316Y-88980743D02*
X142814887Y-88818838D01*
X142814887Y-88818838D02*
X142557744Y-88737886D01*
X142557744Y-88737886D02*
X142386316Y-88737886D01*
X142386316Y-88737886D02*
X142129173Y-88818838D01*
X142129173Y-88818838D02*
X142043459Y-88899791D01*
X141357744Y-89952172D02*
X140500602Y-89952172D01*
X141529173Y-90437886D02*
X140929173Y-88737886D01*
X140929173Y-88737886D02*
X140329173Y-90437886D01*
X138872030Y-90437886D02*
X139729173Y-90437886D01*
X139729173Y-90437886D02*
X139729173Y-88737886D01*
X135700601Y-90599791D02*
X135872030Y-90518838D01*
X135872030Y-90518838D02*
X136043458Y-90356934D01*
X136043458Y-90356934D02*
X136300601Y-90114076D01*
X136300601Y-90114076D02*
X136472030Y-90033124D01*
X136472030Y-90033124D02*
X136643458Y-90033124D01*
X136557744Y-90437886D02*
X136729173Y-90356934D01*
X136729173Y-90356934D02*
X136900601Y-90195029D01*
X136900601Y-90195029D02*
X136986315Y-89871219D01*
X136986315Y-89871219D02*
X136986315Y-89304553D01*
X136986315Y-89304553D02*
X136900601Y-88980743D01*
X136900601Y-88980743D02*
X136729173Y-88818838D01*
X136729173Y-88818838D02*
X136557744Y-88737886D01*
X136557744Y-88737886D02*
X136214887Y-88737886D01*
X136214887Y-88737886D02*
X136043458Y-88818838D01*
X136043458Y-88818838D02*
X135872030Y-88980743D01*
X135872030Y-88980743D02*
X135786315Y-89304553D01*
X135786315Y-89304553D02*
X135786315Y-89871219D01*
X135786315Y-89871219D02*
X135872030Y-90195029D01*
X135872030Y-90195029D02*
X136043458Y-90356934D01*
X136043458Y-90356934D02*
X136214887Y-90437886D01*
X136214887Y-90437886D02*
X136557744Y-90437886D01*
X134243459Y-89304553D02*
X134243459Y-90437886D01*
X135014887Y-89304553D02*
X135014887Y-90195029D01*
X135014887Y-90195029D02*
X134929173Y-90356934D01*
X134929173Y-90356934D02*
X134757744Y-90437886D01*
X134757744Y-90437886D02*
X134500601Y-90437886D01*
X134500601Y-90437886D02*
X134329173Y-90356934D01*
X134329173Y-90356934D02*
X134243459Y-90275981D01*
X132614888Y-90437886D02*
X132614888Y-89547410D01*
X132614888Y-89547410D02*
X132700602Y-89385505D01*
X132700602Y-89385505D02*
X132872030Y-89304553D01*
X132872030Y-89304553D02*
X133214888Y-89304553D01*
X133214888Y-89304553D02*
X133386316Y-89385505D01*
X132614888Y-90356934D02*
X132786316Y-90437886D01*
X132786316Y-90437886D02*
X133214888Y-90437886D01*
X133214888Y-90437886D02*
X133386316Y-90356934D01*
X133386316Y-90356934D02*
X133472030Y-90195029D01*
X133472030Y-90195029D02*
X133472030Y-90033124D01*
X133472030Y-90033124D02*
X133386316Y-89871219D01*
X133386316Y-89871219D02*
X133214888Y-89790267D01*
X133214888Y-89790267D02*
X132786316Y-89790267D01*
X132786316Y-89790267D02*
X132614888Y-89709314D01*
X130986317Y-90437886D02*
X130986317Y-88737886D01*
X130986317Y-90356934D02*
X131157745Y-90437886D01*
X131157745Y-90437886D02*
X131500602Y-90437886D01*
X131500602Y-90437886D02*
X131672031Y-90356934D01*
X131672031Y-90356934D02*
X131757745Y-90275981D01*
X131757745Y-90275981D02*
X131843459Y-90114076D01*
X131843459Y-90114076D02*
X131843459Y-89628362D01*
X131843459Y-89628362D02*
X131757745Y-89466457D01*
X131757745Y-89466457D02*
X131672031Y-89385505D01*
X131672031Y-89385505D02*
X131500602Y-89304553D01*
X131500602Y-89304553D02*
X131157745Y-89304553D01*
X131157745Y-89304553D02*
X130986317Y-89385505D01*
X128843459Y-90356934D02*
X128586317Y-90437886D01*
X128586317Y-90437886D02*
X128157745Y-90437886D01*
X128157745Y-90437886D02*
X127986317Y-90356934D01*
X127986317Y-90356934D02*
X127900602Y-90275981D01*
X127900602Y-90275981D02*
X127814888Y-90114076D01*
X127814888Y-90114076D02*
X127814888Y-89952172D01*
X127814888Y-89952172D02*
X127900602Y-89790267D01*
X127900602Y-89790267D02*
X127986317Y-89709314D01*
X127986317Y-89709314D02*
X128157745Y-89628362D01*
X128157745Y-89628362D02*
X128500602Y-89547410D01*
X128500602Y-89547410D02*
X128672031Y-89466457D01*
X128672031Y-89466457D02*
X128757745Y-89385505D01*
X128757745Y-89385505D02*
X128843459Y-89223600D01*
X128843459Y-89223600D02*
X128843459Y-89061695D01*
X128843459Y-89061695D02*
X128757745Y-88899791D01*
X128757745Y-88899791D02*
X128672031Y-88818838D01*
X128672031Y-88818838D02*
X128500602Y-88737886D01*
X128500602Y-88737886D02*
X128072031Y-88737886D01*
X128072031Y-88737886D02*
X127814888Y-88818838D01*
X127043459Y-90437886D02*
X127043459Y-89304553D01*
X127043459Y-88737886D02*
X127129173Y-88818838D01*
X127129173Y-88818838D02*
X127043459Y-88899791D01*
X127043459Y-88899791D02*
X126957745Y-88818838D01*
X126957745Y-88818838D02*
X127043459Y-88737886D01*
X127043459Y-88737886D02*
X127043459Y-88899791D01*
X126186316Y-90437886D02*
X126186316Y-88737886D01*
X126186316Y-88737886D02*
X125500602Y-88737886D01*
X125500602Y-88737886D02*
X125329173Y-88818838D01*
X125329173Y-88818838D02*
X125243459Y-88899791D01*
X125243459Y-88899791D02*
X125157745Y-89061695D01*
X125157745Y-89061695D02*
X125157745Y-89304553D01*
X125157745Y-89304553D02*
X125243459Y-89466457D01*
X125243459Y-89466457D02*
X125329173Y-89547410D01*
X125329173Y-89547410D02*
X125500602Y-89628362D01*
X125500602Y-89628362D02*
X126186316Y-89628362D01*
X124386316Y-90437886D02*
X124386316Y-88737886D01*
X124386316Y-88737886D02*
X123786316Y-89952172D01*
X123786316Y-89952172D02*
X123186316Y-88737886D01*
X123186316Y-88737886D02*
X123186316Y-90437886D01*
X120957744Y-90437886D02*
X120957744Y-88737886D01*
X120957744Y-88737886D02*
X120357744Y-89952172D01*
X120357744Y-89952172D02*
X119757744Y-88737886D01*
X119757744Y-88737886D02*
X119757744Y-90437886D01*
X118643458Y-90437886D02*
X118814887Y-90356934D01*
X118814887Y-90356934D02*
X118900601Y-90275981D01*
X118900601Y-90275981D02*
X118986315Y-90114076D01*
X118986315Y-90114076D02*
X118986315Y-89628362D01*
X118986315Y-89628362D02*
X118900601Y-89466457D01*
X118900601Y-89466457D02*
X118814887Y-89385505D01*
X118814887Y-89385505D02*
X118643458Y-89304553D01*
X118643458Y-89304553D02*
X118386315Y-89304553D01*
X118386315Y-89304553D02*
X118214887Y-89385505D01*
X118214887Y-89385505D02*
X118129173Y-89466457D01*
X118129173Y-89466457D02*
X118043458Y-89628362D01*
X118043458Y-89628362D02*
X118043458Y-90114076D01*
X118043458Y-90114076D02*
X118129173Y-90275981D01*
X118129173Y-90275981D02*
X118214887Y-90356934D01*
X118214887Y-90356934D02*
X118386315Y-90437886D01*
X118386315Y-90437886D02*
X118643458Y-90437886D01*
X117529173Y-89304553D02*
X116843459Y-89304553D01*
X117272030Y-88737886D02*
X117272030Y-90195029D01*
X117272030Y-90195029D02*
X117186316Y-90356934D01*
X117186316Y-90356934D02*
X117014887Y-90437886D01*
X117014887Y-90437886D02*
X116843459Y-90437886D01*
X116243459Y-90437886D02*
X116243459Y-88737886D01*
X115472031Y-90437886D02*
X115472031Y-89547410D01*
X115472031Y-89547410D02*
X115557745Y-89385505D01*
X115557745Y-89385505D02*
X115729173Y-89304553D01*
X115729173Y-89304553D02*
X115986316Y-89304553D01*
X115986316Y-89304553D02*
X116157745Y-89385505D01*
X116157745Y-89385505D02*
X116243459Y-89466457D01*
X113929174Y-90356934D02*
X114100602Y-90437886D01*
X114100602Y-90437886D02*
X114443460Y-90437886D01*
X114443460Y-90437886D02*
X114614888Y-90356934D01*
X114614888Y-90356934D02*
X114700602Y-90195029D01*
X114700602Y-90195029D02*
X114700602Y-89547410D01*
X114700602Y-89547410D02*
X114614888Y-89385505D01*
X114614888Y-89385505D02*
X114443460Y-89304553D01*
X114443460Y-89304553D02*
X114100602Y-89304553D01*
X114100602Y-89304553D02*
X113929174Y-89385505D01*
X113929174Y-89385505D02*
X113843460Y-89547410D01*
X113843460Y-89547410D02*
X113843460Y-89709314D01*
X113843460Y-89709314D02*
X114700602Y-89871219D01*
X113072031Y-90437886D02*
X113072031Y-89304553D01*
X113072031Y-89628362D02*
X112986317Y-89466457D01*
X112986317Y-89466457D02*
X112900603Y-89385505D01*
X112900603Y-89385505D02*
X112729174Y-89304553D01*
X112729174Y-89304553D02*
X112557745Y-89304553D01*
X111957745Y-90437886D02*
X111957745Y-88737886D01*
X111957745Y-89385505D02*
X111786317Y-89304553D01*
X111786317Y-89304553D02*
X111443459Y-89304553D01*
X111443459Y-89304553D02*
X111272031Y-89385505D01*
X111272031Y-89385505D02*
X111186317Y-89466457D01*
X111186317Y-89466457D02*
X111100602Y-89628362D01*
X111100602Y-89628362D02*
X111100602Y-90114076D01*
X111100602Y-90114076D02*
X111186317Y-90275981D01*
X111186317Y-90275981D02*
X111272031Y-90356934D01*
X111272031Y-90356934D02*
X111443459Y-90437886D01*
X111443459Y-90437886D02*
X111786317Y-90437886D01*
X111786317Y-90437886D02*
X111957745Y-90356934D01*
X110072031Y-90437886D02*
X110243460Y-90356934D01*
X110243460Y-90356934D02*
X110329174Y-90275981D01*
X110329174Y-90275981D02*
X110414888Y-90114076D01*
X110414888Y-90114076D02*
X110414888Y-89628362D01*
X110414888Y-89628362D02*
X110329174Y-89466457D01*
X110329174Y-89466457D02*
X110243460Y-89385505D01*
X110243460Y-89385505D02*
X110072031Y-89304553D01*
X110072031Y-89304553D02*
X109814888Y-89304553D01*
X109814888Y-89304553D02*
X109643460Y-89385505D01*
X109643460Y-89385505D02*
X109557746Y-89466457D01*
X109557746Y-89466457D02*
X109472031Y-89628362D01*
X109472031Y-89628362D02*
X109472031Y-90114076D01*
X109472031Y-90114076D02*
X109557746Y-90275981D01*
X109557746Y-90275981D02*
X109643460Y-90356934D01*
X109643460Y-90356934D02*
X109814888Y-90437886D01*
X109814888Y-90437886D02*
X110072031Y-90437886D01*
X107929175Y-90437886D02*
X107929175Y-89547410D01*
X107929175Y-89547410D02*
X108014889Y-89385505D01*
X108014889Y-89385505D02*
X108186317Y-89304553D01*
X108186317Y-89304553D02*
X108529175Y-89304553D01*
X108529175Y-89304553D02*
X108700603Y-89385505D01*
X107929175Y-90356934D02*
X108100603Y-90437886D01*
X108100603Y-90437886D02*
X108529175Y-90437886D01*
X108529175Y-90437886D02*
X108700603Y-90356934D01*
X108700603Y-90356934D02*
X108786317Y-90195029D01*
X108786317Y-90195029D02*
X108786317Y-90033124D01*
X108786317Y-90033124D02*
X108700603Y-89871219D01*
X108700603Y-89871219D02*
X108529175Y-89790267D01*
X108529175Y-89790267D02*
X108100603Y-89790267D01*
X108100603Y-89790267D02*
X107929175Y-89709314D01*
X107072032Y-90437886D02*
X107072032Y-89304553D01*
X107072032Y-89628362D02*
X106986318Y-89466457D01*
X106986318Y-89466457D02*
X106900604Y-89385505D01*
X106900604Y-89385505D02*
X106729175Y-89304553D01*
X106729175Y-89304553D02*
X106557746Y-89304553D01*
X105186318Y-90437886D02*
X105186318Y-88737886D01*
X105186318Y-90356934D02*
X105357746Y-90437886D01*
X105357746Y-90437886D02*
X105700603Y-90437886D01*
X105700603Y-90437886D02*
X105872032Y-90356934D01*
X105872032Y-90356934D02*
X105957746Y-90275981D01*
X105957746Y-90275981D02*
X106043460Y-90114076D01*
X106043460Y-90114076D02*
X106043460Y-89628362D01*
X106043460Y-89628362D02*
X105957746Y-89466457D01*
X105957746Y-89466457D02*
X105872032Y-89385505D01*
X105872032Y-89385505D02*
X105700603Y-89304553D01*
X105700603Y-89304553D02*
X105357746Y-89304553D01*
X105357746Y-89304553D02*
X105186318Y-89385505D01*
X146843458Y-91636791D02*
X146757744Y-91555838D01*
X146757744Y-91555838D02*
X146586316Y-91474886D01*
X146586316Y-91474886D02*
X146157744Y-91474886D01*
X146157744Y-91474886D02*
X145986316Y-91555838D01*
X145986316Y-91555838D02*
X145900601Y-91636791D01*
X145900601Y-91636791D02*
X145814887Y-91798695D01*
X145814887Y-91798695D02*
X145814887Y-91960600D01*
X145814887Y-91960600D02*
X145900601Y-92203457D01*
X145900601Y-92203457D02*
X146929173Y-93174886D01*
X146929173Y-93174886D02*
X145814887Y-93174886D01*
X144700601Y-91474886D02*
X144529172Y-91474886D01*
X144529172Y-91474886D02*
X144357744Y-91555838D01*
X144357744Y-91555838D02*
X144272030Y-91636791D01*
X144272030Y-91636791D02*
X144186315Y-91798695D01*
X144186315Y-91798695D02*
X144100601Y-92122505D01*
X144100601Y-92122505D02*
X144100601Y-92527267D01*
X144100601Y-92527267D02*
X144186315Y-92851076D01*
X144186315Y-92851076D02*
X144272030Y-93012981D01*
X144272030Y-93012981D02*
X144357744Y-93093934D01*
X144357744Y-93093934D02*
X144529172Y-93174886D01*
X144529172Y-93174886D02*
X144700601Y-93174886D01*
X144700601Y-93174886D02*
X144872030Y-93093934D01*
X144872030Y-93093934D02*
X144957744Y-93012981D01*
X144957744Y-93012981D02*
X145043458Y-92851076D01*
X145043458Y-92851076D02*
X145129172Y-92527267D01*
X145129172Y-92527267D02*
X145129172Y-92122505D01*
X145129172Y-92122505D02*
X145043458Y-91798695D01*
X145043458Y-91798695D02*
X144957744Y-91636791D01*
X144957744Y-91636791D02*
X144872030Y-91555838D01*
X144872030Y-91555838D02*
X144700601Y-91474886D01*
X143414886Y-91636791D02*
X143329172Y-91555838D01*
X143329172Y-91555838D02*
X143157744Y-91474886D01*
X143157744Y-91474886D02*
X142729172Y-91474886D01*
X142729172Y-91474886D02*
X142557744Y-91555838D01*
X142557744Y-91555838D02*
X142472029Y-91636791D01*
X142472029Y-91636791D02*
X142386315Y-91798695D01*
X142386315Y-91798695D02*
X142386315Y-91960600D01*
X142386315Y-91960600D02*
X142472029Y-92203457D01*
X142472029Y-92203457D02*
X143500601Y-93174886D01*
X143500601Y-93174886D02*
X142386315Y-93174886D01*
X141786315Y-91474886D02*
X140672029Y-91474886D01*
X140672029Y-91474886D02*
X141272029Y-92122505D01*
X141272029Y-92122505D02*
X141014886Y-92122505D01*
X141014886Y-92122505D02*
X140843458Y-92203457D01*
X140843458Y-92203457D02*
X140757743Y-92284410D01*
X140757743Y-92284410D02*
X140672029Y-92446314D01*
X140672029Y-92446314D02*
X140672029Y-92851076D01*
X140672029Y-92851076D02*
X140757743Y-93012981D01*
X140757743Y-93012981D02*
X140843458Y-93093934D01*
X140843458Y-93093934D02*
X141014886Y-93174886D01*
X141014886Y-93174886D02*
X141529172Y-93174886D01*
X141529172Y-93174886D02*
X141700600Y-93093934D01*
X141700600Y-93093934D02*
X141786315Y-93012981D01*
X139900600Y-92527267D02*
X138529172Y-92527267D01*
X137329172Y-91474886D02*
X137157743Y-91474886D01*
X137157743Y-91474886D02*
X136986315Y-91555838D01*
X136986315Y-91555838D02*
X136900601Y-91636791D01*
X136900601Y-91636791D02*
X136814886Y-91798695D01*
X136814886Y-91798695D02*
X136729172Y-92122505D01*
X136729172Y-92122505D02*
X136729172Y-92527267D01*
X136729172Y-92527267D02*
X136814886Y-92851076D01*
X136814886Y-92851076D02*
X136900601Y-93012981D01*
X136900601Y-93012981D02*
X136986315Y-93093934D01*
X136986315Y-93093934D02*
X137157743Y-93174886D01*
X137157743Y-93174886D02*
X137329172Y-93174886D01*
X137329172Y-93174886D02*
X137500601Y-93093934D01*
X137500601Y-93093934D02*
X137586315Y-93012981D01*
X137586315Y-93012981D02*
X137672029Y-92851076D01*
X137672029Y-92851076D02*
X137757743Y-92527267D01*
X137757743Y-92527267D02*
X137757743Y-92122505D01*
X137757743Y-92122505D02*
X137672029Y-91798695D01*
X137672029Y-91798695D02*
X137586315Y-91636791D01*
X137586315Y-91636791D02*
X137500601Y-91555838D01*
X137500601Y-91555838D02*
X137329172Y-91474886D01*
X135700600Y-92203457D02*
X135872029Y-92122505D01*
X135872029Y-92122505D02*
X135957743Y-92041553D01*
X135957743Y-92041553D02*
X136043457Y-91879648D01*
X136043457Y-91879648D02*
X136043457Y-91798695D01*
X136043457Y-91798695D02*
X135957743Y-91636791D01*
X135957743Y-91636791D02*
X135872029Y-91555838D01*
X135872029Y-91555838D02*
X135700600Y-91474886D01*
X135700600Y-91474886D02*
X135357743Y-91474886D01*
X135357743Y-91474886D02*
X135186315Y-91555838D01*
X135186315Y-91555838D02*
X135100600Y-91636791D01*
X135100600Y-91636791D02*
X135014886Y-91798695D01*
X135014886Y-91798695D02*
X135014886Y-91879648D01*
X135014886Y-91879648D02*
X135100600Y-92041553D01*
X135100600Y-92041553D02*
X135186315Y-92122505D01*
X135186315Y-92122505D02*
X135357743Y-92203457D01*
X135357743Y-92203457D02*
X135700600Y-92203457D01*
X135700600Y-92203457D02*
X135872029Y-92284410D01*
X135872029Y-92284410D02*
X135957743Y-92365362D01*
X135957743Y-92365362D02*
X136043457Y-92527267D01*
X136043457Y-92527267D02*
X136043457Y-92851076D01*
X136043457Y-92851076D02*
X135957743Y-93012981D01*
X135957743Y-93012981D02*
X135872029Y-93093934D01*
X135872029Y-93093934D02*
X135700600Y-93174886D01*
X135700600Y-93174886D02*
X135357743Y-93174886D01*
X135357743Y-93174886D02*
X135186315Y-93093934D01*
X135186315Y-93093934D02*
X135100600Y-93012981D01*
X135100600Y-93012981D02*
X135014886Y-92851076D01*
X135014886Y-92851076D02*
X135014886Y-92527267D01*
X135014886Y-92527267D02*
X135100600Y-92365362D01*
X135100600Y-92365362D02*
X135186315Y-92284410D01*
X135186315Y-92284410D02*
X135357743Y-92203457D01*
X130472028Y-93174886D02*
X131072028Y-92365362D01*
X131500599Y-93174886D02*
X131500599Y-91474886D01*
X131500599Y-91474886D02*
X130814885Y-91474886D01*
X130814885Y-91474886D02*
X130643456Y-91555838D01*
X130643456Y-91555838D02*
X130557742Y-91636791D01*
X130557742Y-91636791D02*
X130472028Y-91798695D01*
X130472028Y-91798695D02*
X130472028Y-92041553D01*
X130472028Y-92041553D02*
X130557742Y-92203457D01*
X130557742Y-92203457D02*
X130643456Y-92284410D01*
X130643456Y-92284410D02*
X130814885Y-92365362D01*
X130814885Y-92365362D02*
X131500599Y-92365362D01*
X129014885Y-93093934D02*
X129186313Y-93174886D01*
X129186313Y-93174886D02*
X129529171Y-93174886D01*
X129529171Y-93174886D02*
X129700599Y-93093934D01*
X129700599Y-93093934D02*
X129786313Y-92932029D01*
X129786313Y-92932029D02*
X129786313Y-92284410D01*
X129786313Y-92284410D02*
X129700599Y-92122505D01*
X129700599Y-92122505D02*
X129529171Y-92041553D01*
X129529171Y-92041553D02*
X129186313Y-92041553D01*
X129186313Y-92041553D02*
X129014885Y-92122505D01*
X129014885Y-92122505D02*
X128929171Y-92284410D01*
X128929171Y-92284410D02*
X128929171Y-92446314D01*
X128929171Y-92446314D02*
X129786313Y-92608219D01*
X128329171Y-92041553D02*
X127900599Y-93174886D01*
X127900599Y-93174886D02*
X127472028Y-92041553D01*
X124643456Y-91474886D02*
X124986313Y-91474886D01*
X124986313Y-91474886D02*
X125157741Y-91555838D01*
X125157741Y-91555838D02*
X125243456Y-91636791D01*
X125243456Y-91636791D02*
X125414884Y-91879648D01*
X125414884Y-91879648D02*
X125500598Y-92203457D01*
X125500598Y-92203457D02*
X125500598Y-92851076D01*
X125500598Y-92851076D02*
X125414884Y-93012981D01*
X125414884Y-93012981D02*
X125329170Y-93093934D01*
X125329170Y-93093934D02*
X125157741Y-93174886D01*
X125157741Y-93174886D02*
X124814884Y-93174886D01*
X124814884Y-93174886D02*
X124643456Y-93093934D01*
X124643456Y-93093934D02*
X124557741Y-93012981D01*
X124557741Y-93012981D02*
X124472027Y-92851076D01*
X124472027Y-92851076D02*
X124472027Y-92446314D01*
X124472027Y-92446314D02*
X124557741Y-92284410D01*
X124557741Y-92284410D02*
X124643456Y-92203457D01*
X124643456Y-92203457D02*
X124814884Y-92122505D01*
X124814884Y-92122505D02*
X125157741Y-92122505D01*
X125157741Y-92122505D02*
X125329170Y-92203457D01*
X125329170Y-92203457D02*
X125414884Y-92284410D01*
X125414884Y-92284410D02*
X125500598Y-92446314D01*
X123700598Y-93012981D02*
X123614884Y-93093934D01*
X123614884Y-93093934D02*
X123700598Y-93174886D01*
X123700598Y-93174886D02*
X123786312Y-93093934D01*
X123786312Y-93093934D02*
X123700598Y-93012981D01*
X123700598Y-93012981D02*
X123700598Y-93174886D01*
X122929169Y-91636791D02*
X122843455Y-91555838D01*
X122843455Y-91555838D02*
X122672027Y-91474886D01*
X122672027Y-91474886D02*
X122243455Y-91474886D01*
X122243455Y-91474886D02*
X122072027Y-91555838D01*
X122072027Y-91555838D02*
X121986312Y-91636791D01*
X121986312Y-91636791D02*
X121900598Y-91798695D01*
X121900598Y-91798695D02*
X121900598Y-91960600D01*
X121900598Y-91960600D02*
X121986312Y-92203457D01*
X121986312Y-92203457D02*
X123014884Y-93174886D01*
X123014884Y-93174886D02*
X121900598Y-93174886D01*
D10*
X68162438Y-53565588D02*
X68114819Y-53470350D01*
X68114819Y-53470350D02*
X68114819Y-53327493D01*
X68114819Y-53327493D02*
X68162438Y-53184636D01*
X68162438Y-53184636D02*
X68257676Y-53089398D01*
X68257676Y-53089398D02*
X68352914Y-53041779D01*
X68352914Y-53041779D02*
X68543390Y-52994160D01*
X68543390Y-52994160D02*
X68686247Y-52994160D01*
X68686247Y-52994160D02*
X68876723Y-53041779D01*
X68876723Y-53041779D02*
X68971961Y-53089398D01*
X68971961Y-53089398D02*
X69067200Y-53184636D01*
X69067200Y-53184636D02*
X69114819Y-53327493D01*
X69114819Y-53327493D02*
X69114819Y-53422731D01*
X69114819Y-53422731D02*
X69067200Y-53565588D01*
X69067200Y-53565588D02*
X69019580Y-53613207D01*
X69019580Y-53613207D02*
X68686247Y-53613207D01*
X68686247Y-53613207D02*
X68686247Y-53422731D01*
%TO.C,J1*%
X121374819Y-143176666D02*
X122089104Y-143176666D01*
X122089104Y-143176666D02*
X122231961Y-143129047D01*
X122231961Y-143129047D02*
X122327200Y-143033809D01*
X122327200Y-143033809D02*
X122374819Y-142890952D01*
X122374819Y-142890952D02*
X122374819Y-142795714D01*
X122374819Y-144176666D02*
X122374819Y-143605238D01*
X122374819Y-143890952D02*
X121374819Y-143890952D01*
X121374819Y-143890952D02*
X121517676Y-143795714D01*
X121517676Y-143795714D02*
X121612914Y-143700476D01*
X121612914Y-143700476D02*
X121660533Y-143605238D01*
%TO.C,C4*%
X77001666Y-61827580D02*
X77049285Y-61875200D01*
X77049285Y-61875200D02*
X77192142Y-61922819D01*
X77192142Y-61922819D02*
X77287380Y-61922819D01*
X77287380Y-61922819D02*
X77430237Y-61875200D01*
X77430237Y-61875200D02*
X77525475Y-61779961D01*
X77525475Y-61779961D02*
X77573094Y-61684723D01*
X77573094Y-61684723D02*
X77620713Y-61494247D01*
X77620713Y-61494247D02*
X77620713Y-61351390D01*
X77620713Y-61351390D02*
X77573094Y-61160914D01*
X77573094Y-61160914D02*
X77525475Y-61065676D01*
X77525475Y-61065676D02*
X77430237Y-60970438D01*
X77430237Y-60970438D02*
X77287380Y-60922819D01*
X77287380Y-60922819D02*
X77192142Y-60922819D01*
X77192142Y-60922819D02*
X77049285Y-60970438D01*
X77049285Y-60970438D02*
X77001666Y-61018057D01*
X76144523Y-61256152D02*
X76144523Y-61922819D01*
X76382618Y-60875200D02*
X76620713Y-61589485D01*
X76620713Y-61589485D02*
X76001666Y-61589485D01*
%TO.C,J3*%
X121374819Y-56181666D02*
X122089104Y-56181666D01*
X122089104Y-56181666D02*
X122231961Y-56134047D01*
X122231961Y-56134047D02*
X122327200Y-56038809D01*
X122327200Y-56038809D02*
X122374819Y-55895952D01*
X122374819Y-55895952D02*
X122374819Y-55800714D01*
X121374819Y-56562619D02*
X121374819Y-57181666D01*
X121374819Y-57181666D02*
X121755771Y-56848333D01*
X121755771Y-56848333D02*
X121755771Y-56991190D01*
X121755771Y-56991190D02*
X121803390Y-57086428D01*
X121803390Y-57086428D02*
X121851009Y-57134047D01*
X121851009Y-57134047D02*
X121946247Y-57181666D01*
X121946247Y-57181666D02*
X122184342Y-57181666D01*
X122184342Y-57181666D02*
X122279580Y-57134047D01*
X122279580Y-57134047D02*
X122327200Y-57086428D01*
X122327200Y-57086428D02*
X122374819Y-56991190D01*
X122374819Y-56991190D02*
X122374819Y-56705476D01*
X122374819Y-56705476D02*
X122327200Y-56610238D01*
X122327200Y-56610238D02*
X122279580Y-56562619D01*
%TO.C,J4*%
X64859819Y-56181666D02*
X65574104Y-56181666D01*
X65574104Y-56181666D02*
X65716961Y-56134047D01*
X65716961Y-56134047D02*
X65812200Y-56038809D01*
X65812200Y-56038809D02*
X65859819Y-55895952D01*
X65859819Y-55895952D02*
X65859819Y-55800714D01*
X65193152Y-57086428D02*
X65859819Y-57086428D01*
X64812200Y-56848333D02*
X65526485Y-56610238D01*
X65526485Y-56610238D02*
X65526485Y-57229285D01*
%TO.C,C3*%
X133770666Y-61319580D02*
X133818285Y-61367200D01*
X133818285Y-61367200D02*
X133961142Y-61414819D01*
X133961142Y-61414819D02*
X134056380Y-61414819D01*
X134056380Y-61414819D02*
X134199237Y-61367200D01*
X134199237Y-61367200D02*
X134294475Y-61271961D01*
X134294475Y-61271961D02*
X134342094Y-61176723D01*
X134342094Y-61176723D02*
X134389713Y-60986247D01*
X134389713Y-60986247D02*
X134389713Y-60843390D01*
X134389713Y-60843390D02*
X134342094Y-60652914D01*
X134342094Y-60652914D02*
X134294475Y-60557676D01*
X134294475Y-60557676D02*
X134199237Y-60462438D01*
X134199237Y-60462438D02*
X134056380Y-60414819D01*
X134056380Y-60414819D02*
X133961142Y-60414819D01*
X133961142Y-60414819D02*
X133818285Y-60462438D01*
X133818285Y-60462438D02*
X133770666Y-60510057D01*
X133437332Y-60414819D02*
X132818285Y-60414819D01*
X132818285Y-60414819D02*
X133151618Y-60795771D01*
X133151618Y-60795771D02*
X133008761Y-60795771D01*
X133008761Y-60795771D02*
X132913523Y-60843390D01*
X132913523Y-60843390D02*
X132865904Y-60891009D01*
X132865904Y-60891009D02*
X132818285Y-60986247D01*
X132818285Y-60986247D02*
X132818285Y-61224342D01*
X132818285Y-61224342D02*
X132865904Y-61319580D01*
X132865904Y-61319580D02*
X132913523Y-61367200D01*
X132913523Y-61367200D02*
X133008761Y-61414819D01*
X133008761Y-61414819D02*
X133294475Y-61414819D01*
X133294475Y-61414819D02*
X133389713Y-61367200D01*
X133389713Y-61367200D02*
X133437332Y-61319580D01*
%TO.C,J2*%
X64224819Y-143131666D02*
X64939104Y-143131666D01*
X64939104Y-143131666D02*
X65081961Y-143084047D01*
X65081961Y-143084047D02*
X65177200Y-142988809D01*
X65177200Y-142988809D02*
X65224819Y-142845952D01*
X65224819Y-142845952D02*
X65224819Y-142750714D01*
X64320057Y-143560238D02*
X64272438Y-143607857D01*
X64272438Y-143607857D02*
X64224819Y-143703095D01*
X64224819Y-143703095D02*
X64224819Y-143941190D01*
X64224819Y-143941190D02*
X64272438Y-144036428D01*
X64272438Y-144036428D02*
X64320057Y-144084047D01*
X64320057Y-144084047D02*
X64415295Y-144131666D01*
X64415295Y-144131666D02*
X64510533Y-144131666D01*
X64510533Y-144131666D02*
X64653390Y-144084047D01*
X64653390Y-144084047D02*
X65224819Y-143512619D01*
X65224819Y-143512619D02*
X65224819Y-144131666D01*
%TO.C,C1*%
X132793166Y-136249580D02*
X132840785Y-136297200D01*
X132840785Y-136297200D02*
X132983642Y-136344819D01*
X132983642Y-136344819D02*
X133078880Y-136344819D01*
X133078880Y-136344819D02*
X133221737Y-136297200D01*
X133221737Y-136297200D02*
X133316975Y-136201961D01*
X133316975Y-136201961D02*
X133364594Y-136106723D01*
X133364594Y-136106723D02*
X133412213Y-135916247D01*
X133412213Y-135916247D02*
X133412213Y-135773390D01*
X133412213Y-135773390D02*
X133364594Y-135582914D01*
X133364594Y-135582914D02*
X133316975Y-135487676D01*
X133316975Y-135487676D02*
X133221737Y-135392438D01*
X133221737Y-135392438D02*
X133078880Y-135344819D01*
X133078880Y-135344819D02*
X132983642Y-135344819D01*
X132983642Y-135344819D02*
X132840785Y-135392438D01*
X132840785Y-135392438D02*
X132793166Y-135440057D01*
X131840785Y-136344819D02*
X132412213Y-136344819D01*
X132126499Y-136344819D02*
X132126499Y-135344819D01*
X132126499Y-135344819D02*
X132221737Y-135487676D01*
X132221737Y-135487676D02*
X132316975Y-135582914D01*
X132316975Y-135582914D02*
X132412213Y-135630533D01*
%TO.C,C2*%
X75858666Y-132947580D02*
X75906285Y-132995200D01*
X75906285Y-132995200D02*
X76049142Y-133042819D01*
X76049142Y-133042819D02*
X76144380Y-133042819D01*
X76144380Y-133042819D02*
X76287237Y-132995200D01*
X76287237Y-132995200D02*
X76382475Y-132899961D01*
X76382475Y-132899961D02*
X76430094Y-132804723D01*
X76430094Y-132804723D02*
X76477713Y-132614247D01*
X76477713Y-132614247D02*
X76477713Y-132471390D01*
X76477713Y-132471390D02*
X76430094Y-132280914D01*
X76430094Y-132280914D02*
X76382475Y-132185676D01*
X76382475Y-132185676D02*
X76287237Y-132090438D01*
X76287237Y-132090438D02*
X76144380Y-132042819D01*
X76144380Y-132042819D02*
X76049142Y-132042819D01*
X76049142Y-132042819D02*
X75906285Y-132090438D01*
X75906285Y-132090438D02*
X75858666Y-132138057D01*
X75477713Y-132138057D02*
X75430094Y-132090438D01*
X75430094Y-132090438D02*
X75334856Y-132042819D01*
X75334856Y-132042819D02*
X75096761Y-132042819D01*
X75096761Y-132042819D02*
X75001523Y-132090438D01*
X75001523Y-132090438D02*
X74953904Y-132138057D01*
X74953904Y-132138057D02*
X74906285Y-132233295D01*
X74906285Y-132233295D02*
X74906285Y-132328533D01*
X74906285Y-132328533D02*
X74953904Y-132471390D01*
X74953904Y-132471390D02*
X75525332Y-133042819D01*
X75525332Y-133042819D02*
X74906285Y-133042819D01*
%TO.C,R4*%
X67109180Y-135925866D02*
X67585371Y-136259199D01*
X67109180Y-136497294D02*
X68109180Y-136497294D01*
X68109180Y-136497294D02*
X68109180Y-136116342D01*
X68109180Y-136116342D02*
X68061561Y-136021104D01*
X68061561Y-136021104D02*
X68013942Y-135973485D01*
X68013942Y-135973485D02*
X67918704Y-135925866D01*
X67918704Y-135925866D02*
X67775847Y-135925866D01*
X67775847Y-135925866D02*
X67680609Y-135973485D01*
X67680609Y-135973485D02*
X67632990Y-136021104D01*
X67632990Y-136021104D02*
X67585371Y-136116342D01*
X67585371Y-136116342D02*
X67585371Y-136497294D01*
X67775847Y-135068723D02*
X67109180Y-135068723D01*
X68156800Y-135306818D02*
X67442514Y-135544913D01*
X67442514Y-135544913D02*
X67442514Y-134925866D01*
%TO.C,R1*%
X124259180Y-135163866D02*
X124735371Y-135497199D01*
X124259180Y-135735294D02*
X125259180Y-135735294D01*
X125259180Y-135735294D02*
X125259180Y-135354342D01*
X125259180Y-135354342D02*
X125211561Y-135259104D01*
X125211561Y-135259104D02*
X125163942Y-135211485D01*
X125163942Y-135211485D02*
X125068704Y-135163866D01*
X125068704Y-135163866D02*
X124925847Y-135163866D01*
X124925847Y-135163866D02*
X124830609Y-135211485D01*
X124830609Y-135211485D02*
X124782990Y-135259104D01*
X124782990Y-135259104D02*
X124735371Y-135354342D01*
X124735371Y-135354342D02*
X124735371Y-135735294D01*
X124259180Y-134211485D02*
X124259180Y-134782913D01*
X124259180Y-134497199D02*
X125259180Y-134497199D01*
X125259180Y-134497199D02*
X125116323Y-134592437D01*
X125116323Y-134592437D02*
X125021085Y-134687675D01*
X125021085Y-134687675D02*
X124973466Y-134782913D01*
%TO.C,R2*%
X126438819Y-63841333D02*
X125962628Y-63508000D01*
X126438819Y-63269905D02*
X125438819Y-63269905D01*
X125438819Y-63269905D02*
X125438819Y-63650857D01*
X125438819Y-63650857D02*
X125486438Y-63746095D01*
X125486438Y-63746095D02*
X125534057Y-63793714D01*
X125534057Y-63793714D02*
X125629295Y-63841333D01*
X125629295Y-63841333D02*
X125772152Y-63841333D01*
X125772152Y-63841333D02*
X125867390Y-63793714D01*
X125867390Y-63793714D02*
X125915009Y-63746095D01*
X125915009Y-63746095D02*
X125962628Y-63650857D01*
X125962628Y-63650857D02*
X125962628Y-63269905D01*
X125534057Y-64222286D02*
X125486438Y-64269905D01*
X125486438Y-64269905D02*
X125438819Y-64365143D01*
X125438819Y-64365143D02*
X125438819Y-64603238D01*
X125438819Y-64603238D02*
X125486438Y-64698476D01*
X125486438Y-64698476D02*
X125534057Y-64746095D01*
X125534057Y-64746095D02*
X125629295Y-64793714D01*
X125629295Y-64793714D02*
X125724533Y-64793714D01*
X125724533Y-64793714D02*
X125867390Y-64746095D01*
X125867390Y-64746095D02*
X126438819Y-64174667D01*
X126438819Y-64174667D02*
X126438819Y-64793714D01*
%TO.C,R3*%
X70050819Y-64857333D02*
X69574628Y-64524000D01*
X70050819Y-64285905D02*
X69050819Y-64285905D01*
X69050819Y-64285905D02*
X69050819Y-64666857D01*
X69050819Y-64666857D02*
X69098438Y-64762095D01*
X69098438Y-64762095D02*
X69146057Y-64809714D01*
X69146057Y-64809714D02*
X69241295Y-64857333D01*
X69241295Y-64857333D02*
X69384152Y-64857333D01*
X69384152Y-64857333D02*
X69479390Y-64809714D01*
X69479390Y-64809714D02*
X69527009Y-64762095D01*
X69527009Y-64762095D02*
X69574628Y-64666857D01*
X69574628Y-64666857D02*
X69574628Y-64285905D01*
X69050819Y-65190667D02*
X69050819Y-65809714D01*
X69050819Y-65809714D02*
X69431771Y-65476381D01*
X69431771Y-65476381D02*
X69431771Y-65619238D01*
X69431771Y-65619238D02*
X69479390Y-65714476D01*
X69479390Y-65714476D02*
X69527009Y-65762095D01*
X69527009Y-65762095D02*
X69622247Y-65809714D01*
X69622247Y-65809714D02*
X69860342Y-65809714D01*
X69860342Y-65809714D02*
X69955580Y-65762095D01*
X69955580Y-65762095D02*
X70003200Y-65714476D01*
X70003200Y-65714476D02*
X70050819Y-65619238D01*
X70050819Y-65619238D02*
X70050819Y-65333524D01*
X70050819Y-65333524D02*
X70003200Y-65238286D01*
X70003200Y-65238286D02*
X69955580Y-65190667D01*
D12*
%TO.C,J1*%
X128270000Y-142180000D02*
X126940000Y-142180000D01*
X132095000Y-142225000D02*
X132095000Y-144885000D01*
X126955000Y-142225000D02*
X132095000Y-142225000D01*
X126955000Y-142225000D02*
X126955000Y-144885000D01*
X122945000Y-142235000D02*
X122970000Y-146310000D01*
X126955000Y-144885000D02*
X132095000Y-144885000D01*
%TO.C,C4*%
X77546252Y-64702500D02*
X76123748Y-64702500D01*
X77546252Y-62882500D02*
X76123748Y-62882500D01*
%TO.C,J3*%
X128270000Y-55185000D02*
X126940000Y-55185000D01*
X132095000Y-55230000D02*
X132095000Y-57890000D01*
X126955000Y-55230000D02*
X132095000Y-55230000D01*
X126955000Y-55230000D02*
X126955000Y-57890000D01*
X122945000Y-55240000D02*
X122970000Y-59315000D01*
X126955000Y-57890000D02*
X132095000Y-57890000D01*
%TO.C,J4*%
X71800000Y-55140000D02*
X70470000Y-55140000D01*
X75625000Y-55185000D02*
X75625000Y-57845000D01*
X70485000Y-55185000D02*
X75625000Y-55185000D01*
X70485000Y-55185000D02*
X70485000Y-57845000D01*
X66475000Y-55195000D02*
X66500000Y-59270000D01*
X70485000Y-57845000D02*
X75625000Y-57845000D01*
%TO.C,C3*%
X133718752Y-64410000D02*
X132296248Y-64410000D01*
X133718752Y-62590000D02*
X132296248Y-62590000D01*
%TO.C,J2*%
X71800000Y-142135000D02*
X70470000Y-142135000D01*
X75625000Y-142180000D02*
X75625000Y-144840000D01*
X70485000Y-142180000D02*
X75625000Y-142180000D01*
X70485000Y-142180000D02*
X70485000Y-144840000D01*
X66475000Y-142190000D02*
X66500000Y-146265000D01*
X70485000Y-144840000D02*
X75625000Y-144840000D01*
D13*
%TO.C,C1*%
X133380713Y-136892000D02*
X131872287Y-136892000D01*
X131872287Y-134888000D02*
X133380713Y-134888000D01*
D12*
%TO.C,C2*%
X76911252Y-137435000D02*
X75488748Y-137435000D01*
X76911252Y-135615000D02*
X75488748Y-135615000D01*
D13*
%TO.C,R4*%
X66562000Y-136513413D02*
X66562000Y-135004987D01*
X68566000Y-135004987D02*
X68566000Y-136513413D01*
%TO.C,R1*%
X123712000Y-135751413D02*
X123712000Y-134242987D01*
X125716000Y-134242987D02*
X125716000Y-135751413D01*
%TO.C,R2*%
X126986000Y-63253787D02*
X126986000Y-64762213D01*
X124982000Y-64762213D02*
X124982000Y-63253787D01*
%TO.C,R3*%
X70598000Y-64269787D02*
X70598000Y-65778213D01*
X68594000Y-65778213D02*
X68594000Y-64269787D01*
%TD*%
M02*
