%TF.GenerationSoftware,KiCad,Pcbnew,7.0.5-0*%
%TF.CreationDate,2023-08-23T15:34:40-04:00*%
%TF.ProjectId,quad_sipm,71756164-5f73-4697-906d-2e6b69636164,6.2*%
%TF.SameCoordinates,Original*%
%TF.FileFunction,Copper,L2,Bot*%
%TF.FilePolarity,Positive*%
%FSLAX46Y46*%
G04 Gerber Fmt 4.6, Leading zero omitted, Abs format (unit mm)*
G04 Created by KiCad (PCBNEW 7.0.5-0) date 2023-08-23 15:34:40*
%MOMM*%
%LPD*%
G01*
G04 APERTURE LIST*
G04 Aperture macros list*
%AMRoundRect*
0 Rectangle with rounded corners*
0 $1 Rounding radius*
0 $2 $3 $4 $5 $6 $7 $8 $9 X,Y pos of 4 corners*
0 Add a 4 corners polygon primitive as box body*
4,1,4,$2,$3,$4,$5,$6,$7,$8,$9,$2,$3,0*
0 Add four circle primitives for the rounded corners*
1,1,$1+$1,$2,$3*
1,1,$1+$1,$4,$5*
1,1,$1+$1,$6,$7*
1,1,$1+$1,$8,$9*
0 Add four rect primitives between the rounded corners*
20,1,$1+$1,$2,$3,$4,$5,0*
20,1,$1+$1,$4,$5,$6,$7,0*
20,1,$1+$1,$6,$7,$8,$9,0*
20,1,$1+$1,$8,$9,$2,$3,0*%
G04 Aperture macros list end*
%TA.AperFunction,ComponentPad*%
%ADD10C,16.800000*%
%TD*%
%TA.AperFunction,ComponentPad*%
%ADD11C,12.000000*%
%TD*%
%TA.AperFunction,ComponentPad*%
%ADD12R,1.700000X1.700000*%
%TD*%
%TA.AperFunction,ComponentPad*%
%ADD13O,1.700000X1.700000*%
%TD*%
%TA.AperFunction,SMDPad,CuDef*%
%ADD14RoundRect,0.250000X0.412500X0.650000X-0.412500X0.650000X-0.412500X-0.650000X0.412500X-0.650000X0*%
%TD*%
%TA.AperFunction,SMDPad,CuDef*%
%ADD15R,0.701600X1.699200*%
%TD*%
%TA.AperFunction,SMDPad,CuDef*%
%ADD16R,1.699200X0.701600*%
%TD*%
%TA.AperFunction,Conductor*%
%ADD17C,0.635000*%
%TD*%
G04 APERTURE END LIST*
D10*
%TO.P,H2,1*%
%TO.N,N/C*%
X100000000Y-100000000D03*
%TD*%
D11*
%TO.P,H3,1*%
%TO.N,N/C*%
X100000000Y-137000000D03*
%TD*%
%TO.P,H4,1*%
%TO.N,N/C*%
X137000000Y-100000000D03*
%TD*%
%TO.P,H5,1*%
%TO.N,N/C*%
X63000000Y-100000000D03*
%TD*%
%TO.P,H1,1*%
%TO.N,N/C*%
X100000000Y-63000000D03*
%TD*%
D12*
%TO.P,J7,1,Pin_1*%
%TO.N,unconnected-(J7-Pin_1-Pad1)*%
X139146000Y-83820000D03*
D13*
%TO.P,J7,2,Pin_2*%
%TO.N,unconnected-(J7-Pin_2-Pad2)*%
X139146000Y-81280000D03*
%TO.P,J7,3,Pin_3*%
%TO.N,unconnected-(J7-Pin_3-Pad3)*%
X139146000Y-78740000D03*
%TO.P,J7,4,Pin_4*%
%TO.N,unconnected-(J7-Pin_4-Pad4)*%
X139146000Y-76200000D03*
%TO.P,J7,5,Pin_5*%
%TO.N,Net-(J3-Pin_3)*%
X139146000Y-73660000D03*
%TO.P,J7,6,Pin_6*%
%TO.N,unconnected-(J7-Pin_6-Pad6)*%
X139146000Y-71120000D03*
%TO.P,J7,7,Pin_7*%
%TO.N,unconnected-(J7-Pin_7-Pad7)*%
X139146000Y-68580000D03*
%TO.P,J7,8,Pin_8*%
%TO.N,unconnected-(J7-Pin_8-Pad8)*%
X139146000Y-66040000D03*
%TO.P,J7,9,Pin_9*%
%TO.N,unconnected-(J7-Pin_9-Pad9)*%
X139146000Y-63500000D03*
%TO.P,J7,10,Pin_10*%
%TO.N,unconnected-(J7-Pin_10-Pad10)*%
X139146000Y-60960000D03*
D12*
%TO.P,J7,11,Pin_1*%
%TO.N,unconnected-(J7-Pin_1-Pad11)*%
X116286000Y-83820000D03*
D13*
%TO.P,J7,12,Pin_2*%
%TO.N,unconnected-(J7-Pin_2-Pad12)*%
X116286000Y-81280000D03*
%TO.P,J7,13,Pin_3*%
%TO.N,unconnected-(J7-Pin_3-Pad13)*%
X116286000Y-78740000D03*
%TO.P,J7,14,Pin_4*%
%TO.N,unconnected-(J7-Pin_4-Pad14)*%
X116286000Y-76200000D03*
%TO.P,J7,15,Pin_5*%
%TO.N,Net-(J7-Pin_5-Pad15)*%
X116286000Y-73660000D03*
%TO.P,J7,16,Pin_6*%
%TO.N,unconnected-(J7-Pin_6-Pad16)*%
X116286000Y-71120000D03*
%TO.P,J7,17,Pin_7*%
%TO.N,unconnected-(J7-Pin_7-Pad17)*%
X116286000Y-68580000D03*
%TO.P,J7,18,Pin_8*%
%TO.N,unconnected-(J7-Pin_8-Pad18)*%
X116286000Y-66040000D03*
%TO.P,J7,19,Pin_9*%
%TO.N,unconnected-(J7-Pin_9-Pad19)*%
X116286000Y-63500000D03*
%TO.P,J7,20,Pin_10*%
%TO.N,unconnected-(J7-Pin_10-Pad20)*%
X116286000Y-60960000D03*
%TD*%
D12*
%TO.P,J8,1,Pin_1*%
%TO.N,unconnected-(J8-Pin_1-Pad1)*%
X83774000Y-83820000D03*
D13*
%TO.P,J8,2,Pin_2*%
%TO.N,unconnected-(J8-Pin_2-Pad2)*%
X83774000Y-81280000D03*
%TO.P,J8,3,Pin_3*%
%TO.N,unconnected-(J8-Pin_3-Pad3)*%
X83774000Y-78740000D03*
%TO.P,J8,4,Pin_4*%
%TO.N,unconnected-(J8-Pin_4-Pad4)*%
X83774000Y-76200000D03*
%TO.P,J8,5,Pin_5*%
%TO.N,Net-(J4-Pin_3)*%
X83774000Y-73660000D03*
%TO.P,J8,6,Pin_6*%
%TO.N,unconnected-(J8-Pin_6-Pad6)*%
X83774000Y-71120000D03*
%TO.P,J8,7,Pin_7*%
%TO.N,unconnected-(J8-Pin_7-Pad7)*%
X83774000Y-68580000D03*
%TO.P,J8,8,Pin_8*%
%TO.N,unconnected-(J8-Pin_8-Pad8)*%
X83774000Y-66040000D03*
%TO.P,J8,9,Pin_9*%
%TO.N,unconnected-(J8-Pin_9-Pad9)*%
X83774000Y-63500000D03*
%TO.P,J8,10,Pin_10*%
%TO.N,unconnected-(J8-Pin_10-Pad10)*%
X83774000Y-60960000D03*
D12*
%TO.P,J8,11,Pin_1*%
%TO.N,unconnected-(J8-Pin_1-Pad11)*%
X60914000Y-83820000D03*
D13*
%TO.P,J8,12,Pin_2*%
%TO.N,unconnected-(J8-Pin_2-Pad12)*%
X60914000Y-81280000D03*
%TO.P,J8,13,Pin_3*%
%TO.N,unconnected-(J8-Pin_3-Pad13)*%
X60914000Y-78740000D03*
%TO.P,J8,14,Pin_4*%
%TO.N,unconnected-(J8-Pin_4-Pad14)*%
X60914000Y-76200000D03*
%TO.P,J8,15,Pin_5*%
%TO.N,Net-(J8-Pin_5-Pad15)*%
X60914000Y-73660000D03*
%TO.P,J8,16,Pin_6*%
%TO.N,unconnected-(J8-Pin_6-Pad16)*%
X60914000Y-71120000D03*
%TO.P,J8,17,Pin_7*%
%TO.N,unconnected-(J8-Pin_7-Pad17)*%
X60914000Y-68580000D03*
%TO.P,J8,18,Pin_8*%
%TO.N,unconnected-(J8-Pin_8-Pad18)*%
X60914000Y-66040000D03*
%TO.P,J8,19,Pin_9*%
%TO.N,unconnected-(J8-Pin_9-Pad19)*%
X60914000Y-63500000D03*
%TO.P,J8,20,Pin_10*%
%TO.N,unconnected-(J8-Pin_10-Pad20)*%
X60914000Y-60960000D03*
%TD*%
D12*
%TO.P,J6,1,Pin_1*%
%TO.N,unconnected-(J6-Pin_1-Pad1)*%
X83774000Y-139192000D03*
D13*
%TO.P,J6,2,Pin_2*%
%TO.N,unconnected-(J6-Pin_2-Pad2)*%
X83774000Y-136652000D03*
%TO.P,J6,3,Pin_3*%
%TO.N,unconnected-(J6-Pin_3-Pad3)*%
X83774000Y-134112000D03*
%TO.P,J6,4,Pin_4*%
%TO.N,unconnected-(J6-Pin_4-Pad4)*%
X83774000Y-131572000D03*
%TO.P,J6,5,Pin_5*%
%TO.N,Net-(J2-Pin_3)*%
X83774000Y-129032000D03*
%TO.P,J6,6,Pin_6*%
%TO.N,unconnected-(J6-Pin_6-Pad6)*%
X83774000Y-126492000D03*
%TO.P,J6,7,Pin_7*%
%TO.N,unconnected-(J6-Pin_7-Pad7)*%
X83774000Y-123952000D03*
%TO.P,J6,8,Pin_8*%
%TO.N,unconnected-(J6-Pin_8-Pad8)*%
X83774000Y-121412000D03*
%TO.P,J6,9,Pin_9*%
%TO.N,unconnected-(J6-Pin_9-Pad9)*%
X83774000Y-118872000D03*
%TO.P,J6,10,Pin_10*%
%TO.N,unconnected-(J6-Pin_10-Pad10)*%
X83774000Y-116332000D03*
D12*
%TO.P,J6,11,Pin_1*%
%TO.N,unconnected-(J6-Pin_1-Pad11)*%
X60914000Y-139192000D03*
D13*
%TO.P,J6,12,Pin_2*%
%TO.N,unconnected-(J6-Pin_2-Pad12)*%
X60914000Y-136652000D03*
%TO.P,J6,13,Pin_3*%
%TO.N,unconnected-(J6-Pin_3-Pad13)*%
X60914000Y-134112000D03*
%TO.P,J6,14,Pin_4*%
%TO.N,unconnected-(J6-Pin_4-Pad14)*%
X60914000Y-131572000D03*
%TO.P,J6,15,Pin_5*%
%TO.N,Net-(J6-Pin_5-Pad15)*%
X60914000Y-129032000D03*
%TO.P,J6,16,Pin_6*%
%TO.N,unconnected-(J6-Pin_6-Pad16)*%
X60914000Y-126492000D03*
%TO.P,J6,17,Pin_7*%
%TO.N,unconnected-(J6-Pin_7-Pad17)*%
X60914000Y-123952000D03*
%TO.P,J6,18,Pin_8*%
%TO.N,unconnected-(J6-Pin_8-Pad18)*%
X60914000Y-121412000D03*
%TO.P,J6,19,Pin_9*%
%TO.N,unconnected-(J6-Pin_9-Pad19)*%
X60914000Y-118872000D03*
%TO.P,J6,20,Pin_10*%
%TO.N,unconnected-(J6-Pin_10-Pad20)*%
X60914000Y-116332000D03*
%TD*%
D12*
%TO.P,J5,1,Pin_1*%
%TO.N,unconnected-(J5-Pin_1-Pad1)*%
X139146000Y-139192000D03*
D13*
%TO.P,J5,2,Pin_2*%
%TO.N,unconnected-(J5-Pin_2-Pad2)*%
X139146000Y-136652000D03*
%TO.P,J5,3,Pin_3*%
%TO.N,unconnected-(J5-Pin_3-Pad3)*%
X139146000Y-134112000D03*
%TO.P,J5,4,Pin_4*%
%TO.N,unconnected-(J5-Pin_4-Pad4)*%
X139146000Y-131572000D03*
%TO.P,J5,5,Pin_5*%
%TO.N,Net-(J1-Pin_3)*%
X139146000Y-129032000D03*
%TO.P,J5,6,Pin_6*%
%TO.N,unconnected-(J5-Pin_6-Pad6)*%
X139146000Y-126492000D03*
%TO.P,J5,7,Pin_7*%
%TO.N,unconnected-(J5-Pin_7-Pad7)*%
X139146000Y-123952000D03*
%TO.P,J5,8,Pin_8*%
%TO.N,unconnected-(J5-Pin_8-Pad8)*%
X139146000Y-121412000D03*
%TO.P,J5,9,Pin_9*%
%TO.N,unconnected-(J5-Pin_9-Pad9)*%
X139146000Y-118872000D03*
%TO.P,J5,10,Pin_10*%
%TO.N,unconnected-(J5-Pin_10-Pad10)*%
X139146000Y-116332000D03*
D12*
%TO.P,J5,11,Pin_1*%
%TO.N,unconnected-(J5-Pin_1-Pad11)*%
X116286000Y-139192000D03*
D13*
%TO.P,J5,12,Pin_2*%
%TO.N,unconnected-(J5-Pin_2-Pad12)*%
X116286000Y-136652000D03*
%TO.P,J5,13,Pin_3*%
%TO.N,unconnected-(J5-Pin_3-Pad13)*%
X116286000Y-134112000D03*
%TO.P,J5,14,Pin_4*%
%TO.N,unconnected-(J5-Pin_4-Pad14)*%
X116286000Y-131572000D03*
%TO.P,J5,15,Pin_5*%
%TO.N,Net-(J5-Pin_5-Pad15)*%
X116286000Y-129032000D03*
%TO.P,J5,16,Pin_6*%
%TO.N,unconnected-(J5-Pin_6-Pad16)*%
X116286000Y-126492000D03*
%TO.P,J5,17,Pin_7*%
%TO.N,unconnected-(J5-Pin_7-Pad17)*%
X116286000Y-123952000D03*
%TO.P,J5,18,Pin_8*%
%TO.N,unconnected-(J5-Pin_8-Pad18)*%
X116286000Y-121412000D03*
%TO.P,J5,19,Pin_9*%
%TO.N,unconnected-(J5-Pin_9-Pad19)*%
X116286000Y-118872000D03*
%TO.P,J5,20,Pin_10*%
%TO.N,unconnected-(J5-Pin_10-Pad20)*%
X116286000Y-116332000D03*
%TD*%
D12*
%TO.P,J1,1,Pin_1*%
%TO.N,Net-(J1-Pin_1)*%
X125685000Y-143555000D03*
D13*
%TO.P,J1,2,Pin_2*%
%TO.N,Net-(J1-Pin_2)*%
X128225000Y-143555000D03*
%TO.P,J1,3,Pin_3*%
%TO.N,Net-(J1-Pin_3)*%
X130765000Y-143555000D03*
%TD*%
D14*
%TO.P,C4,1*%
%TO.N,Net-(J4-Pin_1)*%
X78397500Y-63792500D03*
%TO.P,C4,2*%
%TO.N,Net-(J4-Pin_3)*%
X75272500Y-63792500D03*
%TD*%
D12*
%TO.P,J3,1,Pin_1*%
%TO.N,Net-(J3-Pin_1)*%
X125685000Y-56560000D03*
D13*
%TO.P,J3,2,Pin_2*%
%TO.N,Net-(J3-Pin_2)*%
X128225000Y-56560000D03*
%TO.P,J3,3,Pin_3*%
%TO.N,Net-(J3-Pin_3)*%
X130765000Y-56560000D03*
%TD*%
D12*
%TO.P,J4,1,Pin_1*%
%TO.N,Net-(J4-Pin_1)*%
X69215000Y-56515000D03*
D13*
%TO.P,J4,2,Pin_2*%
%TO.N,Net-(J4-Pin_2)*%
X71755000Y-56515000D03*
%TO.P,J4,3,Pin_3*%
%TO.N,Net-(J4-Pin_3)*%
X74295000Y-56515000D03*
%TD*%
D14*
%TO.P,C3,1*%
%TO.N,Net-(J3-Pin_1)*%
X134570000Y-63500000D03*
%TO.P,C3,2*%
%TO.N,Net-(J3-Pin_3)*%
X131445000Y-63500000D03*
%TD*%
D12*
%TO.P,J2,1,Pin_1*%
%TO.N,Net-(J2-Pin_1)*%
X69215000Y-143510000D03*
D13*
%TO.P,J2,2,Pin_2*%
%TO.N,Net-(J2-Pin_2)*%
X71755000Y-143510000D03*
%TO.P,J2,3,Pin_3*%
%TO.N,Net-(J2-Pin_3)*%
X74295000Y-143510000D03*
%TD*%
D15*
%TO.P,C1,1*%
%TO.N,Net-(J1-Pin_1)*%
X134027300Y-135890000D03*
%TO.P,C1,2*%
%TO.N,Net-(J1-Pin_3)*%
X131225700Y-135890000D03*
%TD*%
D14*
%TO.P,C2,1*%
%TO.N,Net-(J2-Pin_1)*%
X77762500Y-136525000D03*
%TO.P,C2,2*%
%TO.N,Net-(J2-Pin_3)*%
X74637500Y-136525000D03*
%TD*%
D16*
%TO.P,R4,1*%
%TO.N,Net-(J2-Pin_2)*%
X67564000Y-137160000D03*
%TO.P,R4,2*%
%TO.N,Net-(J6-Pin_5-Pad15)*%
X67564000Y-134358400D03*
%TD*%
%TO.P,R1,1*%
%TO.N,Net-(J1-Pin_2)*%
X124714000Y-136398000D03*
%TO.P,R1,2*%
%TO.N,Net-(J5-Pin_5-Pad15)*%
X124714000Y-133596400D03*
%TD*%
%TO.P,R2,1*%
%TO.N,Net-(J3-Pin_2)*%
X125984000Y-62607200D03*
%TO.P,R2,2*%
%TO.N,Net-(J7-Pin_5-Pad15)*%
X125984000Y-65408800D03*
%TD*%
%TO.P,R3,1*%
%TO.N,Net-(J4-Pin_2)*%
X69596000Y-63623200D03*
%TO.P,R3,2*%
%TO.N,Net-(J8-Pin_5-Pad15)*%
X69596000Y-66424800D03*
%TD*%
D17*
%TO.N,Net-(J2-Pin_2)*%
X71755000Y-141528800D02*
X67894200Y-137668000D01*
X71755000Y-143510000D02*
X71755000Y-141528800D01*
%TO.N,Net-(J3-Pin_2)*%
X125907800Y-58877200D02*
X125907800Y-62531000D01*
X125907800Y-62531000D02*
X125984000Y-62607200D01*
X128225000Y-56560000D02*
X125907800Y-58877200D01*
%TO.N,Net-(J4-Pin_2)*%
X69596000Y-58674000D02*
X71755000Y-56515000D01*
X69596000Y-63623200D02*
X69596000Y-58674000D01*
%TO.N,Net-(J1-Pin_2)*%
X128225000Y-139909000D02*
X124714000Y-136398000D01*
X128225000Y-143555000D02*
X128225000Y-139909000D01*
%TO.N,Net-(J1-Pin_3)*%
X139146000Y-129032000D02*
X137922000Y-129032000D01*
X137922000Y-129032000D02*
X131064000Y-135890000D01*
X130765000Y-136189000D02*
X131064000Y-135890000D01*
X130765000Y-143555000D02*
X130765000Y-136189000D01*
%TO.N,Net-(J2-Pin_3)*%
X74295000Y-136867500D02*
X74295000Y-143510000D01*
X83774000Y-129032000D02*
X82130500Y-129032000D01*
X74637500Y-136525000D02*
X74295000Y-136867500D01*
X82130500Y-129032000D02*
X74637500Y-136525000D01*
%TO.N,Net-(J3-Pin_3)*%
X130765000Y-62820000D02*
X131445000Y-63500000D01*
X130765000Y-56560000D02*
X130765000Y-62820000D01*
X131445000Y-65959000D02*
X131445000Y-63500000D01*
X131445000Y-65959000D02*
X139146000Y-73660000D01*
%TO.N,Net-(J4-Pin_3)*%
X74295000Y-56515000D02*
X74295000Y-62815000D01*
X76090000Y-64610000D02*
X75272500Y-63792500D01*
X76090000Y-65976000D02*
X76090000Y-64610000D01*
X83774000Y-73660000D02*
X76090000Y-65976000D01*
X74295000Y-62815000D02*
X75272500Y-63792500D01*
%TO.N,Net-(J5-Pin_5-Pad15)*%
X116286000Y-129032000D02*
X120721800Y-129032000D01*
X120721800Y-129032000D02*
X124531800Y-132842000D01*
X124531800Y-133414200D02*
X124714000Y-133596400D01*
X124531800Y-132842000D02*
X124531800Y-133414200D01*
%TO.N,Net-(J6-Pin_5-Pad15)*%
X60914000Y-129032000D02*
X63825800Y-129032000D01*
X67564000Y-132770200D02*
X67564000Y-134358400D01*
X63825800Y-129032000D02*
X67564000Y-132770200D01*
%TO.N,Net-(J7-Pin_5-Pad15)*%
X125984000Y-66476200D02*
X125984000Y-65408800D01*
X118800200Y-73660000D02*
X125984000Y-66476200D01*
X116286000Y-73660000D02*
X118800200Y-73660000D01*
%TO.N,Net-(J8-Pin_5-Pad15)*%
X60914000Y-73660000D02*
X62992000Y-73660000D01*
X62992000Y-73660000D02*
X69596000Y-67056000D01*
X69596000Y-67056000D02*
X69596000Y-66424800D01*
%TD*%
%TA.AperFunction,Conductor*%
%TO.N,Net-(J3-Pin_1)*%
G36*
X148942121Y-51020002D02*
G01*
X148988614Y-51073658D01*
X149000000Y-51126000D01*
X149000000Y-98874000D01*
X148979998Y-98942121D01*
X148926342Y-98988614D01*
X148874000Y-99000000D01*
X144056178Y-99000000D01*
X143988057Y-98979998D01*
X143941564Y-98926342D01*
X143932375Y-98897425D01*
X143897659Y-98713953D01*
X143845369Y-98437589D01*
X143709468Y-97930403D01*
X143580392Y-97561525D01*
X143536049Y-97434799D01*
X143536048Y-97434798D01*
X143536046Y-97434791D01*
X143326072Y-96953524D01*
X143326069Y-96953519D01*
X143326062Y-96953503D01*
X143171250Y-96660588D01*
X143080719Y-96489295D01*
X143080709Y-96489279D01*
X142801366Y-96044706D01*
X142801354Y-96044689D01*
X142489561Y-95622224D01*
X142489548Y-95622208D01*
X142147067Y-95224239D01*
X142147058Y-95224228D01*
X142147045Y-95224215D01*
X142147034Y-95224203D01*
X141775796Y-94852965D01*
X141775784Y-94852954D01*
X141775772Y-94852942D01*
X141674361Y-94765671D01*
X141377791Y-94510451D01*
X141377775Y-94510438D01*
X140955310Y-94198645D01*
X140955293Y-94198633D01*
X140510720Y-93919290D01*
X140510712Y-93919285D01*
X140510705Y-93919281D01*
X140465089Y-93895172D01*
X140046496Y-93673937D01*
X140046470Y-93673925D01*
X139862513Y-93593666D01*
X139565209Y-93463954D01*
X139565202Y-93463951D01*
X139565200Y-93463950D01*
X139069605Y-93290534D01*
X138562412Y-93154631D01*
X138046487Y-93057013D01*
X137524711Y-92998222D01*
X137000000Y-92978590D01*
X136475288Y-92998222D01*
X135953512Y-93057013D01*
X135437587Y-93154631D01*
X134930394Y-93290534D01*
X134434799Y-93463950D01*
X134434796Y-93463952D01*
X133953529Y-93673925D01*
X133953503Y-93673937D01*
X133489300Y-93919278D01*
X133489279Y-93919290D01*
X133044706Y-94198633D01*
X133044689Y-94198645D01*
X132622224Y-94510438D01*
X132622208Y-94510451D01*
X132224239Y-94852932D01*
X132224203Y-94852965D01*
X131852965Y-95224203D01*
X131852932Y-95224239D01*
X131510451Y-95622208D01*
X131510438Y-95622224D01*
X131198645Y-96044689D01*
X131198633Y-96044706D01*
X130919290Y-96489279D01*
X130919278Y-96489300D01*
X130673937Y-96953503D01*
X130673925Y-96953529D01*
X130463952Y-97434796D01*
X130463950Y-97434799D01*
X130290534Y-97930394D01*
X130154631Y-98437587D01*
X130067625Y-98897425D01*
X130035308Y-98960639D01*
X129973944Y-98996347D01*
X129943822Y-99000000D01*
X109477770Y-99000000D01*
X109409649Y-98979998D01*
X109363156Y-98926342D01*
X109352377Y-98886350D01*
X109340942Y-98770251D01*
X109340941Y-98770249D01*
X109340941Y-98770242D01*
X109240512Y-98161948D01*
X109186523Y-97930403D01*
X109100512Y-97561520D01*
X108921547Y-96971555D01*
X108921545Y-96971547D01*
X108740040Y-96489300D01*
X108704372Y-96394531D01*
X108449926Y-95832958D01*
X108159296Y-95289228D01*
X107833728Y-94765671D01*
X107474613Y-94264527D01*
X107083492Y-93787944D01*
X106662038Y-93337962D01*
X106212056Y-92916508D01*
X105735473Y-92525387D01*
X105234329Y-92166272D01*
X104710772Y-91840704D01*
X104710771Y-91840703D01*
X104167054Y-91550080D01*
X104167037Y-91550071D01*
X103754548Y-91363174D01*
X103605469Y-91295628D01*
X103605464Y-91295626D01*
X103028452Y-91078454D01*
X103028444Y-91078452D01*
X102438479Y-90899487D01*
X101838066Y-90759490D01*
X101229760Y-90659059D01*
X101113649Y-90647622D01*
X101047817Y-90621039D01*
X101006807Y-90563084D01*
X101000000Y-90522229D01*
X101000000Y-81280000D01*
X114414732Y-81280000D01*
X114433779Y-81546312D01*
X114490529Y-81807188D01*
X114490529Y-81807189D01*
X114583832Y-82057346D01*
X114583837Y-82057357D01*
X114657426Y-82192128D01*
X114672517Y-82261502D01*
X114647705Y-82328022D01*
X114644239Y-82332444D01*
X114586722Y-82402529D01*
X114586721Y-82402531D01*
X114492334Y-82579116D01*
X114492332Y-82579122D01*
X114434206Y-82770736D01*
X114434206Y-82770739D01*
X114419500Y-82920057D01*
X114419500Y-84719942D01*
X114434206Y-84869260D01*
X114434206Y-84869263D01*
X114492332Y-85060877D01*
X114492334Y-85060883D01*
X114586720Y-85237466D01*
X114586722Y-85237469D01*
X114713748Y-85392252D01*
X114868531Y-85519278D01*
X115045120Y-85613667D01*
X115236731Y-85671792D01*
X115236736Y-85671792D01*
X115236738Y-85671793D01*
X115346069Y-85682560D01*
X115386066Y-85686500D01*
X115386075Y-85686500D01*
X117185925Y-85686500D01*
X117185934Y-85686500D01*
X117283179Y-85676922D01*
X117335260Y-85671793D01*
X117335263Y-85671793D01*
X117335264Y-85671792D01*
X117335269Y-85671792D01*
X117526880Y-85613667D01*
X117703469Y-85519278D01*
X117858252Y-85392252D01*
X117985278Y-85237469D01*
X118079667Y-85060880D01*
X118137792Y-84869269D01*
X118152500Y-84719934D01*
X118152500Y-82920066D01*
X118137793Y-82770739D01*
X118137793Y-82770736D01*
X118137792Y-82770733D01*
X118137792Y-82770731D01*
X118079667Y-82579120D01*
X117985278Y-82402531D01*
X117927759Y-82332444D01*
X117900007Y-82267097D01*
X117911989Y-82197119D01*
X117914572Y-82192128D01*
X117988165Y-82057353D01*
X118081468Y-81807197D01*
X118138221Y-81546309D01*
X118157268Y-81280000D01*
X118138221Y-81013691D01*
X118081468Y-80752803D01*
X117988165Y-80502647D01*
X117860211Y-80268316D01*
X117723362Y-80085508D01*
X117698552Y-80018989D01*
X117713643Y-79949615D01*
X117723363Y-79934491D01*
X117860211Y-79751684D01*
X117988165Y-79517353D01*
X118081468Y-79267197D01*
X118138221Y-79006309D01*
X118157268Y-78740000D01*
X118138221Y-78473691D01*
X118081468Y-78212803D01*
X117988165Y-77962647D01*
X117860211Y-77728316D01*
X117723362Y-77545508D01*
X117698552Y-77478989D01*
X117713643Y-77409615D01*
X117723363Y-77394491D01*
X117860211Y-77211684D01*
X117988165Y-76977353D01*
X118081468Y-76727197D01*
X118138221Y-76466309D01*
X118157268Y-76200000D01*
X118138221Y-75933691D01*
X118081468Y-75672803D01*
X117988165Y-75422647D01*
X117860211Y-75188316D01*
X117860208Y-75188312D01*
X117860092Y-75188131D01*
X117860071Y-75188060D01*
X117858054Y-75184366D01*
X117858857Y-75183927D01*
X117840083Y-75120013D01*
X117860078Y-75051890D01*
X117913729Y-75005392D01*
X117966083Y-74994000D01*
X118916907Y-74994000D01*
X118916910Y-74994000D01*
X118971782Y-74984324D01*
X118977214Y-74983609D01*
X119032732Y-74978752D01*
X119086574Y-74964324D01*
X119091892Y-74963145D01*
X119141260Y-74954440D01*
X119146778Y-74953468D01*
X119146779Y-74953468D01*
X119146780Y-74953467D01*
X119146783Y-74953467D01*
X119199135Y-74934411D01*
X119204375Y-74932760D01*
X119258198Y-74918339D01*
X119308691Y-74894792D01*
X119313752Y-74892695D01*
X119366127Y-74873634D01*
X119414408Y-74845757D01*
X119419242Y-74843241D01*
X119469748Y-74819691D01*
X119515397Y-74787725D01*
X119519994Y-74784797D01*
X119568274Y-74756923D01*
X119610968Y-74721096D01*
X119615311Y-74717765D01*
X119660954Y-74685807D01*
X119843727Y-74503034D01*
X119843728Y-74503031D01*
X126968467Y-67378294D01*
X126968467Y-67378293D01*
X126986180Y-67360581D01*
X126986183Y-67360576D01*
X127009807Y-67336954D01*
X127041768Y-67291306D01*
X127045096Y-67286968D01*
X127080923Y-67244274D01*
X127108791Y-67196003D01*
X127111725Y-67191397D01*
X127143691Y-67145748D01*
X127167248Y-67095226D01*
X127169760Y-67090401D01*
X127197633Y-67042127D01*
X127216688Y-66989772D01*
X127218793Y-66984690D01*
X127242339Y-66934198D01*
X127256759Y-66880378D01*
X127258413Y-66875133D01*
X127277464Y-66822794D01*
X127277465Y-66822789D01*
X127277467Y-66822784D01*
X127287144Y-66767893D01*
X127288323Y-66762576D01*
X127302752Y-66708732D01*
X127302752Y-66708727D01*
X127303408Y-66706281D01*
X127340361Y-66645659D01*
X127365713Y-66627775D01*
X127401069Y-66608878D01*
X127555852Y-66481852D01*
X127682878Y-66327069D01*
X127777267Y-66150480D01*
X127835392Y-65958869D01*
X127850100Y-65809534D01*
X127850100Y-65008066D01*
X127835393Y-64858739D01*
X127835393Y-64858736D01*
X127835392Y-64858733D01*
X127835392Y-64858731D01*
X127777267Y-64667120D01*
X127682878Y-64490531D01*
X127555852Y-64335748D01*
X127401069Y-64208722D01*
X127401067Y-64208721D01*
X127401066Y-64208720D01*
X127306178Y-64158002D01*
X127233438Y-64119121D01*
X127182791Y-64069370D01*
X127167081Y-64000133D01*
X127191297Y-63933394D01*
X127233438Y-63896878D01*
X127401069Y-63807278D01*
X127555852Y-63680252D01*
X127682878Y-63525469D01*
X127777267Y-63348880D01*
X127835392Y-63157269D01*
X127850100Y-63007934D01*
X127850100Y-62206466D01*
X127844969Y-62154376D01*
X127835393Y-62057139D01*
X127835393Y-62057136D01*
X127835392Y-62057133D01*
X127835392Y-62057131D01*
X127777267Y-61865520D01*
X127682878Y-61688931D01*
X127555852Y-61534148D01*
X127401069Y-61407122D01*
X127401068Y-61407121D01*
X127401065Y-61407119D01*
X127401063Y-61407118D01*
X127308403Y-61357589D01*
X127257755Y-61307837D01*
X127241800Y-61246468D01*
X127241800Y-59481950D01*
X127261802Y-59413829D01*
X127278695Y-59392865D01*
X128208242Y-58463317D01*
X128270551Y-58429295D01*
X128288338Y-58426737D01*
X128491309Y-58412221D01*
X128752188Y-58355470D01*
X128752189Y-58355470D01*
X128752190Y-58355469D01*
X128752197Y-58355468D01*
X129002353Y-58262165D01*
X129236684Y-58134211D01*
X129236690Y-58134206D01*
X129236874Y-58134089D01*
X129236945Y-58134067D01*
X129240634Y-58132054D01*
X129241072Y-58132856D01*
X129304994Y-58114084D01*
X129373116Y-58134084D01*
X129419611Y-58187737D01*
X129430999Y-58240084D01*
X129431000Y-62703290D01*
X129431000Y-62936710D01*
X129440673Y-62991578D01*
X129441391Y-62997027D01*
X129446247Y-63052532D01*
X129460667Y-63106348D01*
X129461857Y-63111714D01*
X129471533Y-63166583D01*
X129490584Y-63218928D01*
X129492237Y-63224170D01*
X129506658Y-63277990D01*
X129506664Y-63278005D01*
X129530203Y-63328485D01*
X129532307Y-63333564D01*
X129551365Y-63385926D01*
X129579227Y-63434184D01*
X129581765Y-63439060D01*
X129605309Y-63489548D01*
X129605311Y-63489550D01*
X129605312Y-63489553D01*
X129620419Y-63511128D01*
X129637262Y-63535182D01*
X129640212Y-63539811D01*
X129668076Y-63588073D01*
X129668077Y-63588074D01*
X129703887Y-63630750D01*
X129707235Y-63635113D01*
X129738841Y-63680252D01*
X129742349Y-63685261D01*
X129740456Y-63686586D01*
X129764980Y-63742559D01*
X129766000Y-63758560D01*
X129766000Y-64215042D01*
X129776537Y-64348925D01*
X129776537Y-64348928D01*
X129776538Y-64348929D01*
X129832239Y-64569985D01*
X129832242Y-64569994D01*
X129926518Y-64777549D01*
X129926520Y-64777552D01*
X129926521Y-64777554D01*
X130056348Y-64964950D01*
X130074094Y-64982696D01*
X130108120Y-65045006D01*
X130111000Y-65071792D01*
X130111000Y-66075710D01*
X130120673Y-66130578D01*
X130121391Y-66136027D01*
X130126247Y-66191532D01*
X130140667Y-66245348D01*
X130141857Y-66250714D01*
X130151533Y-66305583D01*
X130170584Y-66357928D01*
X130172237Y-66363170D01*
X130186658Y-66416990D01*
X130186664Y-66417005D01*
X130210203Y-66467485D01*
X130212307Y-66472564D01*
X130231365Y-66524926D01*
X130259227Y-66573184D01*
X130261765Y-66578060D01*
X130285309Y-66628548D01*
X130285311Y-66628550D01*
X130285312Y-66628553D01*
X130297290Y-66645659D01*
X130317262Y-66674182D01*
X130320212Y-66678811D01*
X130348076Y-66727073D01*
X130348077Y-66727074D01*
X130383887Y-66769750D01*
X130387235Y-66774113D01*
X130419193Y-66819754D01*
X130442808Y-66843368D01*
X130442813Y-66843375D01*
X137242678Y-73643239D01*
X137276704Y-73705551D01*
X137279262Y-73723345D01*
X137293779Y-73926312D01*
X137350529Y-74187188D01*
X137350529Y-74187189D01*
X137443834Y-74437352D01*
X137443835Y-74437353D01*
X137571789Y-74671684D01*
X137658665Y-74787736D01*
X137708636Y-74854490D01*
X137733447Y-74921010D01*
X137718356Y-74990384D01*
X137708637Y-75005507D01*
X137571788Y-75188317D01*
X137443834Y-75422647D01*
X137350529Y-75672810D01*
X137350529Y-75672811D01*
X137293779Y-75933687D01*
X137274732Y-76200000D01*
X137293779Y-76466312D01*
X137350529Y-76727188D01*
X137350529Y-76727189D01*
X137443834Y-76977352D01*
X137443835Y-76977353D01*
X137571789Y-77211684D01*
X137637657Y-77299673D01*
X137708636Y-77394491D01*
X137733447Y-77461012D01*
X137718355Y-77530386D01*
X137708636Y-77545509D01*
X137571789Y-77728316D01*
X137443834Y-77962647D01*
X137350529Y-78212810D01*
X137350529Y-78212811D01*
X137293779Y-78473687D01*
X137274732Y-78739999D01*
X137293779Y-79006312D01*
X137350529Y-79267188D01*
X137350529Y-79267189D01*
X137443834Y-79517352D01*
X137443835Y-79517353D01*
X137571789Y-79751684D01*
X137637657Y-79839673D01*
X137708636Y-79934491D01*
X137733447Y-80001012D01*
X137718355Y-80070386D01*
X137708636Y-80085509D01*
X137571789Y-80268316D01*
X137443834Y-80502647D01*
X137350529Y-80752810D01*
X137350529Y-80752811D01*
X137293779Y-81013687D01*
X137274732Y-81280000D01*
X137293779Y-81546312D01*
X137350529Y-81807188D01*
X137350529Y-81807189D01*
X137443832Y-82057346D01*
X137443837Y-82057357D01*
X137517426Y-82192128D01*
X137532517Y-82261502D01*
X137507705Y-82328022D01*
X137504239Y-82332444D01*
X137446722Y-82402529D01*
X137446721Y-82402531D01*
X137352334Y-82579116D01*
X137352332Y-82579122D01*
X137294206Y-82770736D01*
X137294206Y-82770739D01*
X137279500Y-82920057D01*
X137279500Y-84719942D01*
X137294206Y-84869260D01*
X137294206Y-84869263D01*
X137352332Y-85060877D01*
X137352334Y-85060883D01*
X137446720Y-85237466D01*
X137446722Y-85237469D01*
X137573748Y-85392252D01*
X137728531Y-85519278D01*
X137905120Y-85613667D01*
X138096731Y-85671792D01*
X138096736Y-85671792D01*
X138096738Y-85671793D01*
X138206069Y-85682560D01*
X138246066Y-85686500D01*
X138246075Y-85686500D01*
X140045925Y-85686500D01*
X140045934Y-85686500D01*
X140143179Y-85676922D01*
X140195260Y-85671793D01*
X140195263Y-85671793D01*
X140195264Y-85671792D01*
X140195269Y-85671792D01*
X140386880Y-85613667D01*
X140563469Y-85519278D01*
X140718252Y-85392252D01*
X140845278Y-85237469D01*
X140939667Y-85060880D01*
X140997792Y-84869269D01*
X141012500Y-84719934D01*
X141012500Y-82920066D01*
X140997793Y-82770739D01*
X140997793Y-82770736D01*
X140997792Y-82770733D01*
X140997792Y-82770731D01*
X140939667Y-82579120D01*
X140845278Y-82402531D01*
X140787759Y-82332444D01*
X140760007Y-82267097D01*
X140771989Y-82197119D01*
X140774572Y-82192128D01*
X140848165Y-82057353D01*
X140941468Y-81807197D01*
X140998221Y-81546309D01*
X141017268Y-81280000D01*
X140998221Y-81013691D01*
X140941468Y-80752803D01*
X140848165Y-80502647D01*
X140720211Y-80268316D01*
X140583362Y-80085508D01*
X140558552Y-80018989D01*
X140573643Y-79949615D01*
X140583363Y-79934491D01*
X140720211Y-79751684D01*
X140848165Y-79517353D01*
X140941468Y-79267197D01*
X140998221Y-79006309D01*
X141017268Y-78740000D01*
X140998221Y-78473691D01*
X140941468Y-78212803D01*
X140848165Y-77962647D01*
X140720211Y-77728316D01*
X140583362Y-77545508D01*
X140558552Y-77478989D01*
X140573643Y-77409615D01*
X140583363Y-77394491D01*
X140720211Y-77211684D01*
X140848165Y-76977353D01*
X140941468Y-76727197D01*
X140998221Y-76466309D01*
X141017268Y-76200000D01*
X140998221Y-75933691D01*
X140941468Y-75672803D01*
X140848165Y-75422647D01*
X140720211Y-75188316D01*
X140583362Y-75005507D01*
X140558552Y-74938989D01*
X140573643Y-74869615D01*
X140583363Y-74854491D01*
X140633335Y-74787736D01*
X140720211Y-74671684D01*
X140848165Y-74437353D01*
X140941468Y-74187197D01*
X140998221Y-73926309D01*
X141017268Y-73660000D01*
X140998221Y-73393691D01*
X140941468Y-73132803D01*
X140848165Y-72882647D01*
X140720211Y-72648316D01*
X140583362Y-72465508D01*
X140558552Y-72398989D01*
X140573643Y-72329615D01*
X140583363Y-72314491D01*
X140629887Y-72252342D01*
X140720211Y-72131684D01*
X140848165Y-71897353D01*
X140941468Y-71647197D01*
X140998221Y-71386309D01*
X141017268Y-71120000D01*
X140998221Y-70853691D01*
X140941468Y-70592803D01*
X140848165Y-70342647D01*
X140720211Y-70108316D01*
X140583362Y-69925508D01*
X140558552Y-69858989D01*
X140573643Y-69789615D01*
X140583363Y-69774491D01*
X140583364Y-69774490D01*
X140720211Y-69591684D01*
X140848165Y-69357353D01*
X140941468Y-69107197D01*
X140998221Y-68846309D01*
X141017268Y-68580000D01*
X140998221Y-68313691D01*
X140941468Y-68052803D01*
X140848165Y-67802647D01*
X140720211Y-67568316D01*
X140583362Y-67385508D01*
X140558552Y-67318989D01*
X140573643Y-67249615D01*
X140583363Y-67234491D01*
X140720211Y-67051684D01*
X140848165Y-66817353D01*
X140941468Y-66567197D01*
X140998221Y-66306309D01*
X141017268Y-66040000D01*
X140998221Y-65773691D01*
X140952867Y-65565203D01*
X140941470Y-65512811D01*
X140941470Y-65512810D01*
X140941468Y-65512806D01*
X140941468Y-65512803D01*
X140848165Y-65262647D01*
X140720211Y-65028316D01*
X140621393Y-64896311D01*
X140583363Y-64845508D01*
X140558552Y-64778988D01*
X140573644Y-64709613D01*
X140583357Y-64694498D01*
X140720211Y-64511684D01*
X140848165Y-64277353D01*
X140941468Y-64027197D01*
X140998221Y-63766309D01*
X141017268Y-63500000D01*
X140998221Y-63233691D01*
X140949112Y-63007942D01*
X140941470Y-62972811D01*
X140941470Y-62972810D01*
X140941468Y-62972806D01*
X140941468Y-62972803D01*
X140848165Y-62722647D01*
X140720211Y-62488316D01*
X140583362Y-62305508D01*
X140558552Y-62238989D01*
X140573643Y-62169615D01*
X140583363Y-62154491D01*
X140720211Y-61971684D01*
X140848165Y-61737353D01*
X140941468Y-61487197D01*
X140998221Y-61226309D01*
X141017268Y-60960000D01*
X140998221Y-60693691D01*
X140941902Y-60434796D01*
X140941470Y-60432811D01*
X140941470Y-60432810D01*
X140941468Y-60432806D01*
X140941468Y-60432803D01*
X140848165Y-60182647D01*
X140720211Y-59948316D01*
X140560210Y-59734580D01*
X140371420Y-59545790D01*
X140371417Y-59545788D01*
X140371414Y-59545785D01*
X140284963Y-59481069D01*
X140157684Y-59385789D01*
X140029728Y-59315920D01*
X139923352Y-59257834D01*
X139673189Y-59164529D01*
X139412311Y-59107779D01*
X139412313Y-59107779D01*
X139146000Y-59088732D01*
X138879687Y-59107779D01*
X138618811Y-59164529D01*
X138618810Y-59164529D01*
X138368647Y-59257834D01*
X138134316Y-59385789D01*
X137920585Y-59545785D01*
X137920576Y-59545793D01*
X137731793Y-59734576D01*
X137731785Y-59734585D01*
X137571789Y-59948316D01*
X137443834Y-60182647D01*
X137350529Y-60432810D01*
X137350529Y-60432811D01*
X137293779Y-60693687D01*
X137274732Y-60959999D01*
X137293779Y-61226312D01*
X137350529Y-61487188D01*
X137350529Y-61487189D01*
X137443834Y-61737352D01*
X137443835Y-61737353D01*
X137571789Y-61971684D01*
X137607382Y-62019230D01*
X137708636Y-62154491D01*
X137733447Y-62221012D01*
X137718355Y-62290386D01*
X137708636Y-62305509D01*
X137571789Y-62488316D01*
X137443834Y-62722647D01*
X137350529Y-62972810D01*
X137350529Y-62972811D01*
X137293779Y-63233687D01*
X137274732Y-63500000D01*
X137293779Y-63766312D01*
X137350529Y-64027188D01*
X137350529Y-64027189D01*
X137443834Y-64277352D01*
X137443835Y-64277353D01*
X137571789Y-64511684D01*
X137663849Y-64634661D01*
X137708636Y-64694490D01*
X137733447Y-64761010D01*
X137718356Y-64830384D01*
X137708637Y-64845507D01*
X137571788Y-65028317D01*
X137443834Y-65262647D01*
X137350529Y-65512810D01*
X137350529Y-65512811D01*
X137293779Y-65773687D01*
X137274732Y-66039999D01*
X137293779Y-66306312D01*
X137350529Y-66567188D01*
X137350529Y-66567189D01*
X137443834Y-66817352D01*
X137478250Y-66880379D01*
X137571789Y-67051684D01*
X137637657Y-67139673D01*
X137708636Y-67234491D01*
X137733447Y-67301012D01*
X137718355Y-67370386D01*
X137708636Y-67385509D01*
X137571789Y-67568316D01*
X137443834Y-67802647D01*
X137350529Y-68052810D01*
X137350529Y-68052811D01*
X137293779Y-68313687D01*
X137274732Y-68580000D01*
X137293779Y-68846312D01*
X137350529Y-69107188D01*
X137350529Y-69107189D01*
X137443834Y-69357352D01*
X137443835Y-69357353D01*
X137571789Y-69591684D01*
X137659959Y-69709465D01*
X137708636Y-69774490D01*
X137733447Y-69841010D01*
X137718356Y-69910384D01*
X137708636Y-69925508D01*
X137620009Y-70043899D01*
X137563173Y-70086446D01*
X137492357Y-70091510D01*
X137430046Y-70057485D01*
X135148357Y-67775796D01*
X132815905Y-65443343D01*
X132781879Y-65381031D01*
X132779000Y-65354248D01*
X132779000Y-65071792D01*
X132799002Y-65003671D01*
X132815904Y-64982697D01*
X132833652Y-64964950D01*
X132963479Y-64777554D01*
X133057760Y-64569989D01*
X133082806Y-64470589D01*
X133118845Y-64409423D01*
X133182234Y-64377449D01*
X133252847Y-64384822D01*
X133308264Y-64429200D01*
X133323958Y-64462893D01*
X133324363Y-64462738D01*
X133326595Y-64468555D01*
X133326690Y-64468757D01*
X133326728Y-64468899D01*
X133411187Y-64634658D01*
X133411188Y-64634661D01*
X133528263Y-64779236D01*
X133672838Y-64896311D01*
X133672841Y-64896312D01*
X133838597Y-64980769D01*
X134018289Y-65028917D01*
X134095561Y-65035000D01*
X134316000Y-65035000D01*
X134316000Y-63754000D01*
X134824000Y-63754000D01*
X134824000Y-65035000D01*
X135044439Y-65035000D01*
X135121710Y-65028917D01*
X135301402Y-64980769D01*
X135467158Y-64896312D01*
X135467161Y-64896311D01*
X135611736Y-64779236D01*
X135728811Y-64634661D01*
X135728812Y-64634658D01*
X135813269Y-64468902D01*
X135861417Y-64289210D01*
X135867500Y-64211938D01*
X135867500Y-63754000D01*
X134824000Y-63754000D01*
X134316000Y-63754000D01*
X134316000Y-61965000D01*
X134824000Y-61965000D01*
X134824000Y-63246000D01*
X135867500Y-63246000D01*
X135867500Y-62788061D01*
X135861417Y-62710789D01*
X135813269Y-62531097D01*
X135728812Y-62365341D01*
X135728811Y-62365338D01*
X135611736Y-62220763D01*
X135467161Y-62103688D01*
X135467158Y-62103687D01*
X135301402Y-62019230D01*
X135121710Y-61971082D01*
X135044439Y-61965000D01*
X134824000Y-61965000D01*
X134316000Y-61965000D01*
X134095561Y-61965000D01*
X134018289Y-61971082D01*
X133838597Y-62019230D01*
X133672841Y-62103687D01*
X133672838Y-62103688D01*
X133528263Y-62220763D01*
X133411188Y-62365338D01*
X133411187Y-62365341D01*
X133326728Y-62531100D01*
X133326689Y-62531247D01*
X133326642Y-62531322D01*
X133324363Y-62537262D01*
X133323276Y-62536844D01*
X133289730Y-62591865D01*
X133225866Y-62622879D01*
X133155372Y-62614442D01*
X133100631Y-62569232D01*
X133082805Y-62529407D01*
X133072451Y-62488316D01*
X133057760Y-62430011D01*
X132963479Y-62222446D01*
X132833652Y-62035050D01*
X132833650Y-62035048D01*
X132833642Y-62035039D01*
X132672460Y-61873857D01*
X132672451Y-61873849D01*
X132672450Y-61873848D01*
X132485054Y-61744021D01*
X132277489Y-61649740D01*
X132194211Y-61628755D01*
X132133043Y-61592715D01*
X132101070Y-61529325D01*
X132099000Y-61506585D01*
X132099000Y-57917816D01*
X132119001Y-57849699D01*
X132135898Y-57828730D01*
X132179210Y-57785420D01*
X132339211Y-57571684D01*
X132467165Y-57337353D01*
X132560468Y-57087197D01*
X132617221Y-56826309D01*
X132636268Y-56560000D01*
X132617221Y-56293691D01*
X132568043Y-56067625D01*
X132560470Y-56032811D01*
X132560470Y-56032810D01*
X132560468Y-56032806D01*
X132560468Y-56032803D01*
X132467165Y-55782647D01*
X132339211Y-55548316D01*
X132179210Y-55334580D01*
X131990420Y-55145790D01*
X131990417Y-55145788D01*
X131990414Y-55145785D01*
X131895856Y-55075000D01*
X131776684Y-54985789D01*
X131648728Y-54915920D01*
X131542352Y-54857834D01*
X131292189Y-54764529D01*
X131031311Y-54707779D01*
X131031313Y-54707779D01*
X130818261Y-54692541D01*
X130765000Y-54688732D01*
X130764999Y-54688732D01*
X130498687Y-54707779D01*
X130237811Y-54764529D01*
X130237810Y-54764529D01*
X129987647Y-54857834D01*
X129753316Y-54985789D01*
X129570509Y-55122636D01*
X129503988Y-55147447D01*
X129434614Y-55132355D01*
X129419491Y-55122636D01*
X129324673Y-55051657D01*
X129236684Y-54985789D01*
X129108728Y-54915920D01*
X129002352Y-54857834D01*
X128752189Y-54764529D01*
X128491311Y-54707779D01*
X128491313Y-54707779D01*
X128278261Y-54692541D01*
X128225000Y-54688732D01*
X128224999Y-54688732D01*
X127958687Y-54707779D01*
X127697811Y-54764529D01*
X127697810Y-54764529D01*
X127447647Y-54857834D01*
X127213316Y-54985789D01*
X126999580Y-55145790D01*
X126998700Y-55146553D01*
X126998345Y-55146715D01*
X126995978Y-55148487D01*
X126995592Y-55147971D01*
X126934116Y-55176039D01*
X126863843Y-55165927D01*
X126852059Y-55159772D01*
X126789197Y-55122595D01*
X126635130Y-55077834D01*
X126635117Y-55077832D01*
X126599136Y-55075000D01*
X125939000Y-55075000D01*
X125939000Y-56126325D01*
X125827315Y-56075320D01*
X125720763Y-56060000D01*
X125649237Y-56060000D01*
X125542685Y-56075320D01*
X125431000Y-56126325D01*
X125431000Y-55075000D01*
X124770864Y-55075000D01*
X124734882Y-55077832D01*
X124734869Y-55077834D01*
X124580802Y-55122595D01*
X124442714Y-55204261D01*
X124442707Y-55204266D01*
X124329266Y-55317707D01*
X124329261Y-55317714D01*
X124247595Y-55455802D01*
X124202834Y-55609869D01*
X124202832Y-55609882D01*
X124200000Y-55645863D01*
X124200000Y-56306000D01*
X125253884Y-56306000D01*
X125225507Y-56350156D01*
X125185000Y-56488111D01*
X125185000Y-56631889D01*
X125225507Y-56769844D01*
X125253884Y-56814000D01*
X124200000Y-56814000D01*
X124200000Y-57474136D01*
X124202832Y-57510117D01*
X124202834Y-57510130D01*
X124247595Y-57664197D01*
X124329261Y-57802285D01*
X124329266Y-57802292D01*
X124442707Y-57915733D01*
X124442714Y-57915738D01*
X124580802Y-57997404D01*
X124673713Y-58024397D01*
X124733548Y-58062610D01*
X124763226Y-58127106D01*
X124753323Y-58197409D01*
X124748568Y-58206665D01*
X124724565Y-58258139D01*
X124722028Y-58263013D01*
X124694165Y-58311274D01*
X124675108Y-58363633D01*
X124673004Y-58368711D01*
X124649460Y-58419200D01*
X124649459Y-58419203D01*
X124635040Y-58473018D01*
X124633388Y-58478259D01*
X124614333Y-58530616D01*
X124604657Y-58585484D01*
X124603467Y-58590849D01*
X124589047Y-58644666D01*
X124584191Y-58700171D01*
X124583474Y-58705620D01*
X124573800Y-58760489D01*
X124573800Y-61341890D01*
X124553798Y-61410011D01*
X124527734Y-61439289D01*
X124412148Y-61534147D01*
X124285120Y-61688933D01*
X124190734Y-61865516D01*
X124190732Y-61865522D01*
X124132606Y-62057136D01*
X124132606Y-62057139D01*
X124117900Y-62206457D01*
X124117900Y-63007942D01*
X124132606Y-63157260D01*
X124132606Y-63157263D01*
X124190732Y-63348877D01*
X124190734Y-63348883D01*
X124285120Y-63525466D01*
X124285122Y-63525469D01*
X124412148Y-63680252D01*
X124566931Y-63807278D01*
X124566933Y-63807279D01*
X124734560Y-63896878D01*
X124785208Y-63946630D01*
X124800918Y-64015867D01*
X124776702Y-64082606D01*
X124734560Y-64119122D01*
X124566933Y-64208720D01*
X124412148Y-64335748D01*
X124285120Y-64490533D01*
X124190734Y-64667116D01*
X124190732Y-64667122D01*
X124132606Y-64858736D01*
X124132606Y-64858739D01*
X124117900Y-65008057D01*
X124117900Y-65809542D01*
X124132606Y-65958860D01*
X124132606Y-65958863D01*
X124184696Y-66130578D01*
X124190733Y-66150480D01*
X124227642Y-66219532D01*
X124242114Y-66289036D01*
X124216711Y-66355333D01*
X124205615Y-66368022D01*
X118284544Y-72289095D01*
X118222232Y-72323121D01*
X118195449Y-72326000D01*
X117966083Y-72326000D01*
X117897962Y-72305998D01*
X117851469Y-72252342D01*
X117841365Y-72182068D01*
X117858580Y-72135921D01*
X117858054Y-72135634D01*
X117860053Y-72131972D01*
X117860092Y-72131869D01*
X117860204Y-72131693D01*
X117860211Y-72131684D01*
X117988165Y-71897353D01*
X118081468Y-71647197D01*
X118138221Y-71386309D01*
X118157268Y-71120000D01*
X118138221Y-70853691D01*
X118081468Y-70592803D01*
X117988165Y-70342647D01*
X117860211Y-70108316D01*
X117723362Y-69925508D01*
X117698552Y-69858989D01*
X117713643Y-69789615D01*
X117723363Y-69774491D01*
X117723364Y-69774490D01*
X117860211Y-69591684D01*
X117988165Y-69357353D01*
X118081468Y-69107197D01*
X118138221Y-68846309D01*
X118157268Y-68580000D01*
X118138221Y-68313691D01*
X118081468Y-68052803D01*
X117988165Y-67802647D01*
X117860211Y-67568316D01*
X117723362Y-67385508D01*
X117698552Y-67318989D01*
X117713643Y-67249615D01*
X117723363Y-67234491D01*
X117860211Y-67051684D01*
X117988165Y-66817353D01*
X118081468Y-66567197D01*
X118138221Y-66306309D01*
X118157268Y-66040000D01*
X118138221Y-65773691D01*
X118092867Y-65565203D01*
X118081470Y-65512811D01*
X118081470Y-65512810D01*
X118081468Y-65512806D01*
X118081468Y-65512803D01*
X117988165Y-65262647D01*
X117860211Y-65028316D01*
X117723362Y-64845508D01*
X117698552Y-64778989D01*
X117713643Y-64709615D01*
X117723363Y-64694491D01*
X117743851Y-64667122D01*
X117860211Y-64511684D01*
X117988165Y-64277353D01*
X118081468Y-64027197D01*
X118138221Y-63766309D01*
X118157268Y-63500000D01*
X118138221Y-63233691D01*
X118089112Y-63007942D01*
X118081470Y-62972811D01*
X118081470Y-62972810D01*
X118081468Y-62972806D01*
X118081468Y-62972803D01*
X117988165Y-62722647D01*
X117860211Y-62488316D01*
X117723362Y-62305508D01*
X117698552Y-62238989D01*
X117713643Y-62169615D01*
X117723363Y-62154491D01*
X117860211Y-61971684D01*
X117988165Y-61737353D01*
X118081468Y-61487197D01*
X118138221Y-61226309D01*
X118157268Y-60960000D01*
X118138221Y-60693691D01*
X118081902Y-60434796D01*
X118081470Y-60432811D01*
X118081470Y-60432810D01*
X118081468Y-60432806D01*
X118081468Y-60432803D01*
X117988165Y-60182647D01*
X117860211Y-59948316D01*
X117700210Y-59734580D01*
X117511420Y-59545790D01*
X117511417Y-59545788D01*
X117511414Y-59545785D01*
X117424963Y-59481069D01*
X117297684Y-59385789D01*
X117169729Y-59315920D01*
X117063352Y-59257834D01*
X116813189Y-59164529D01*
X116552311Y-59107779D01*
X116552313Y-59107779D01*
X116339261Y-59092541D01*
X116286000Y-59088732D01*
X116285999Y-59088732D01*
X116019687Y-59107779D01*
X115758811Y-59164529D01*
X115758810Y-59164529D01*
X115508647Y-59257834D01*
X115274316Y-59385789D01*
X115060585Y-59545785D01*
X115060576Y-59545793D01*
X114871793Y-59734576D01*
X114871785Y-59734585D01*
X114711789Y-59948316D01*
X114583834Y-60182647D01*
X114490529Y-60432810D01*
X114490529Y-60432811D01*
X114433779Y-60693687D01*
X114414732Y-60960000D01*
X114433779Y-61226312D01*
X114490529Y-61487188D01*
X114490529Y-61487189D01*
X114583834Y-61737352D01*
X114583835Y-61737353D01*
X114711789Y-61971684D01*
X114747382Y-62019230D01*
X114848636Y-62154491D01*
X114873447Y-62221012D01*
X114858355Y-62290386D01*
X114848636Y-62305509D01*
X114711789Y-62488316D01*
X114583834Y-62722647D01*
X114490529Y-62972810D01*
X114490529Y-62972811D01*
X114433779Y-63233687D01*
X114414732Y-63499999D01*
X114433779Y-63766312D01*
X114490529Y-64027188D01*
X114490529Y-64027189D01*
X114583834Y-64277352D01*
X114583835Y-64277353D01*
X114711789Y-64511684D01*
X114803849Y-64634661D01*
X114848636Y-64694490D01*
X114873447Y-64761010D01*
X114858356Y-64830384D01*
X114848637Y-64845507D01*
X114711788Y-65028317D01*
X114583834Y-65262647D01*
X114490529Y-65512810D01*
X114490529Y-65512811D01*
X114433779Y-65773687D01*
X114414732Y-66039999D01*
X114433779Y-66306312D01*
X114490529Y-66567188D01*
X114490529Y-66567189D01*
X114583834Y-66817352D01*
X114618250Y-66880379D01*
X114711789Y-67051684D01*
X114777657Y-67139673D01*
X114848636Y-67234491D01*
X114873447Y-67301012D01*
X114858355Y-67370386D01*
X114848636Y-67385509D01*
X114711789Y-67568316D01*
X114583834Y-67802647D01*
X114490529Y-68052810D01*
X114490529Y-68052811D01*
X114433779Y-68313687D01*
X114414732Y-68580000D01*
X114433779Y-68846312D01*
X114490529Y-69107188D01*
X114490529Y-69107189D01*
X114583834Y-69357352D01*
X114583835Y-69357353D01*
X114711789Y-69591684D01*
X114777657Y-69679673D01*
X114848636Y-69774491D01*
X114873447Y-69841012D01*
X114858355Y-69910386D01*
X114848636Y-69925509D01*
X114711789Y-70108316D01*
X114583834Y-70342647D01*
X114490529Y-70592810D01*
X114490529Y-70592811D01*
X114433779Y-70853687D01*
X114414732Y-71120000D01*
X114433779Y-71386312D01*
X114490529Y-71647188D01*
X114490529Y-71647189D01*
X114583834Y-71897352D01*
X114583835Y-71897353D01*
X114711789Y-72131684D01*
X114714961Y-72135921D01*
X114848636Y-72314491D01*
X114873447Y-72381012D01*
X114858355Y-72450386D01*
X114848636Y-72465509D01*
X114711789Y-72648316D01*
X114583834Y-72882647D01*
X114490529Y-73132810D01*
X114490529Y-73132811D01*
X114433779Y-73393687D01*
X114414732Y-73659999D01*
X114433779Y-73926312D01*
X114490529Y-74187188D01*
X114490529Y-74187189D01*
X114583834Y-74437352D01*
X114583835Y-74437353D01*
X114711789Y-74671684D01*
X114798665Y-74787736D01*
X114848636Y-74854490D01*
X114873447Y-74921010D01*
X114858356Y-74990384D01*
X114848637Y-75005507D01*
X114711788Y-75188317D01*
X114583834Y-75422647D01*
X114490529Y-75672810D01*
X114490529Y-75672811D01*
X114433779Y-75933687D01*
X114414732Y-76200000D01*
X114433779Y-76466312D01*
X114490529Y-76727188D01*
X114490529Y-76727189D01*
X114583834Y-76977352D01*
X114583835Y-76977353D01*
X114711789Y-77211684D01*
X114777657Y-77299673D01*
X114848636Y-77394491D01*
X114873447Y-77461012D01*
X114858355Y-77530386D01*
X114848636Y-77545509D01*
X114711789Y-77728316D01*
X114583834Y-77962647D01*
X114490529Y-78212810D01*
X114490529Y-78212811D01*
X114433779Y-78473687D01*
X114414732Y-78739999D01*
X114433779Y-79006312D01*
X114490529Y-79267188D01*
X114490529Y-79267189D01*
X114583834Y-79517352D01*
X114583835Y-79517353D01*
X114711789Y-79751684D01*
X114777657Y-79839673D01*
X114848636Y-79934491D01*
X114873447Y-80001012D01*
X114858355Y-80070386D01*
X114848636Y-80085509D01*
X114711789Y-80268316D01*
X114583834Y-80502647D01*
X114490529Y-80752810D01*
X114490529Y-80752811D01*
X114433779Y-81013687D01*
X114414732Y-81280000D01*
X101000000Y-81280000D01*
X101000000Y-70056178D01*
X101020002Y-69988057D01*
X101073658Y-69941564D01*
X101102575Y-69932375D01*
X101302324Y-69894580D01*
X101562411Y-69845369D01*
X102069597Y-69709468D01*
X102565209Y-69536046D01*
X103046476Y-69326072D01*
X103046487Y-69326065D01*
X103046496Y-69326062D01*
X103198527Y-69245710D01*
X103510705Y-69080719D01*
X103955301Y-68801361D01*
X104377778Y-68489559D01*
X104775772Y-68147058D01*
X105147058Y-67775772D01*
X105489559Y-67377778D01*
X105801361Y-66955301D01*
X106080719Y-66510705D01*
X106278743Y-66136027D01*
X106326062Y-66046496D01*
X106326065Y-66046487D01*
X106326072Y-66046476D01*
X106536046Y-65565209D01*
X106709468Y-65069597D01*
X106845369Y-64562411D01*
X106942987Y-64046487D01*
X107001777Y-63524711D01*
X107021410Y-63000000D01*
X107001777Y-62475289D01*
X106942987Y-61953513D01*
X106845369Y-61437589D01*
X106709468Y-60930403D01*
X106536046Y-60434791D01*
X106326072Y-59953524D01*
X106326069Y-59953519D01*
X106326062Y-59953503D01*
X106110579Y-59545793D01*
X106080719Y-59489295D01*
X105876657Y-59164532D01*
X105801366Y-59044706D01*
X105801354Y-59044689D01*
X105489561Y-58622224D01*
X105489548Y-58622208D01*
X105178386Y-58260632D01*
X105147058Y-58224228D01*
X105147045Y-58224215D01*
X105147034Y-58224203D01*
X104775796Y-57852965D01*
X104775784Y-57852954D01*
X104775772Y-57852942D01*
X104689864Y-57779012D01*
X104377791Y-57510451D01*
X104377775Y-57510438D01*
X103955310Y-57198645D01*
X103955293Y-57198633D01*
X103510720Y-56919290D01*
X103510712Y-56919285D01*
X103510705Y-56919281D01*
X103456813Y-56890798D01*
X103046496Y-56673937D01*
X103046470Y-56673925D01*
X102747595Y-56543528D01*
X102565209Y-56463954D01*
X102565202Y-56463951D01*
X102565200Y-56463950D01*
X102069605Y-56290534D01*
X101562412Y-56154631D01*
X101102575Y-56067625D01*
X101039361Y-56035308D01*
X101003653Y-55973944D01*
X101000000Y-55943822D01*
X101000000Y-51126000D01*
X101020002Y-51057879D01*
X101073658Y-51011386D01*
X101126000Y-51000000D01*
X148874000Y-51000000D01*
X148942121Y-51020002D01*
G37*
%TD.AperFunction*%
%TD*%
%TA.AperFunction,Conductor*%
%TO.N,Net-(J4-Pin_1)*%
G36*
X98942121Y-51020002D02*
G01*
X98988614Y-51073658D01*
X99000000Y-51126000D01*
X99000000Y-55943822D01*
X98979998Y-56011943D01*
X98926342Y-56058436D01*
X98897425Y-56067625D01*
X98437587Y-56154631D01*
X97930394Y-56290534D01*
X97434799Y-56463950D01*
X97434796Y-56463952D01*
X96953529Y-56673925D01*
X96953503Y-56673937D01*
X96489300Y-56919278D01*
X96489279Y-56919290D01*
X96044706Y-57198633D01*
X96044689Y-57198645D01*
X95622224Y-57510438D01*
X95622208Y-57510451D01*
X95224239Y-57852932D01*
X95224203Y-57852965D01*
X94852965Y-58224203D01*
X94852932Y-58224239D01*
X94510451Y-58622208D01*
X94510438Y-58622224D01*
X94198645Y-59044689D01*
X94198633Y-59044706D01*
X93919290Y-59489279D01*
X93919278Y-59489300D01*
X93673937Y-59953503D01*
X93673925Y-59953529D01*
X93573963Y-60182647D01*
X93464822Y-60432803D01*
X93463952Y-60434796D01*
X93463950Y-60434799D01*
X93290534Y-60930394D01*
X93154631Y-61437587D01*
X93057013Y-61953512D01*
X92998222Y-62475288D01*
X92978590Y-62999999D01*
X92998222Y-63524711D01*
X93057013Y-64046487D01*
X93154631Y-64562412D01*
X93290534Y-65069605D01*
X93463950Y-65565200D01*
X93463951Y-65565202D01*
X93463954Y-65565209D01*
X93565441Y-65797820D01*
X93673925Y-66046470D01*
X93673937Y-66046496D01*
X93919278Y-66510699D01*
X93919290Y-66510720D01*
X94198633Y-66955293D01*
X94198645Y-66955310D01*
X94510438Y-67377775D01*
X94510451Y-67377791D01*
X94723087Y-67624878D01*
X94852942Y-67775772D01*
X94852954Y-67775784D01*
X94852965Y-67775796D01*
X95224203Y-68147034D01*
X95224215Y-68147045D01*
X95224228Y-68147058D01*
X95346780Y-68252522D01*
X95622208Y-68489548D01*
X95622224Y-68489561D01*
X96044689Y-68801354D01*
X96044706Y-68801366D01*
X96489279Y-69080709D01*
X96489295Y-69080719D01*
X96660588Y-69171250D01*
X96953503Y-69326062D01*
X96953519Y-69326069D01*
X96953524Y-69326072D01*
X97434791Y-69536046D01*
X97434798Y-69536048D01*
X97434799Y-69536049D01*
X97593795Y-69591684D01*
X97930403Y-69709468D01*
X98437589Y-69845369D01*
X98697676Y-69894580D01*
X98897425Y-69932375D01*
X98960639Y-69964692D01*
X98996347Y-70026056D01*
X99000000Y-70056178D01*
X99000000Y-90522229D01*
X98979998Y-90590350D01*
X98926342Y-90636843D01*
X98886351Y-90647622D01*
X98770239Y-90659059D01*
X98161933Y-90759490D01*
X97561520Y-90899487D01*
X96971555Y-91078452D01*
X96971547Y-91078454D01*
X96394535Y-91295626D01*
X95832962Y-91550071D01*
X95832945Y-91550080D01*
X95289227Y-91840704D01*
X94765671Y-92166272D01*
X94765667Y-92166274D01*
X94264529Y-92525385D01*
X94264528Y-92525386D01*
X93787943Y-92916509D01*
X93337962Y-93337962D01*
X92916509Y-93787943D01*
X92525386Y-94264528D01*
X92525385Y-94264529D01*
X92166274Y-94765667D01*
X92166272Y-94765671D01*
X91840704Y-95289227D01*
X91550080Y-95832945D01*
X91550071Y-95832962D01*
X91295626Y-96394535D01*
X91078454Y-96971547D01*
X91078452Y-96971555D01*
X90899487Y-97561520D01*
X90759490Y-98161933D01*
X90659060Y-98770235D01*
X90659057Y-98770251D01*
X90647623Y-98886350D01*
X90621040Y-98952183D01*
X90563086Y-98993192D01*
X90522230Y-99000000D01*
X70056178Y-99000000D01*
X69988057Y-98979998D01*
X69941564Y-98926342D01*
X69932375Y-98897425D01*
X69897659Y-98713953D01*
X69845369Y-98437589D01*
X69709468Y-97930403D01*
X69580392Y-97561525D01*
X69536049Y-97434799D01*
X69536048Y-97434798D01*
X69536046Y-97434791D01*
X69326072Y-96953524D01*
X69326069Y-96953519D01*
X69326062Y-96953503D01*
X69171250Y-96660588D01*
X69080719Y-96489295D01*
X69080709Y-96489279D01*
X68801366Y-96044706D01*
X68801354Y-96044689D01*
X68489561Y-95622224D01*
X68489548Y-95622208D01*
X68147067Y-95224239D01*
X68147058Y-95224228D01*
X68147045Y-95224215D01*
X68147034Y-95224203D01*
X67775796Y-94852965D01*
X67775784Y-94852954D01*
X67775772Y-94852942D01*
X67674361Y-94765671D01*
X67377791Y-94510451D01*
X67377775Y-94510438D01*
X66955310Y-94198645D01*
X66955293Y-94198633D01*
X66510720Y-93919290D01*
X66510712Y-93919285D01*
X66510705Y-93919281D01*
X66465089Y-93895172D01*
X66046496Y-93673937D01*
X66046470Y-93673925D01*
X65862513Y-93593666D01*
X65565209Y-93463954D01*
X65565202Y-93463951D01*
X65565200Y-93463950D01*
X65069605Y-93290534D01*
X64562412Y-93154631D01*
X64046487Y-93057013D01*
X63524711Y-92998222D01*
X63018923Y-92979298D01*
X63000000Y-92978590D01*
X62999999Y-92978590D01*
X62475288Y-92998222D01*
X61953512Y-93057013D01*
X61437587Y-93154631D01*
X60930394Y-93290534D01*
X60434799Y-93463950D01*
X60434796Y-93463952D01*
X59953529Y-93673925D01*
X59953503Y-93673937D01*
X59489300Y-93919278D01*
X59489279Y-93919290D01*
X59044706Y-94198633D01*
X59044689Y-94198645D01*
X58622224Y-94510438D01*
X58622208Y-94510451D01*
X58224239Y-94852932D01*
X58224203Y-94852965D01*
X57852965Y-95224203D01*
X57852932Y-95224239D01*
X57510451Y-95622208D01*
X57510438Y-95622224D01*
X57198645Y-96044689D01*
X57198633Y-96044706D01*
X56919290Y-96489279D01*
X56919278Y-96489300D01*
X56673937Y-96953503D01*
X56673925Y-96953529D01*
X56463952Y-97434796D01*
X56463950Y-97434799D01*
X56290534Y-97930394D01*
X56154631Y-98437587D01*
X56067625Y-98897425D01*
X56035308Y-98960639D01*
X55973944Y-98996347D01*
X55943822Y-99000000D01*
X51126000Y-99000000D01*
X51057879Y-98979998D01*
X51011386Y-98926342D01*
X51000000Y-98874000D01*
X51000000Y-81280000D01*
X59042732Y-81280000D01*
X59061779Y-81546312D01*
X59118529Y-81807188D01*
X59118529Y-81807189D01*
X59211832Y-82057346D01*
X59211837Y-82057357D01*
X59285426Y-82192128D01*
X59300517Y-82261502D01*
X59275705Y-82328022D01*
X59272239Y-82332444D01*
X59214722Y-82402529D01*
X59214721Y-82402531D01*
X59120334Y-82579116D01*
X59120332Y-82579122D01*
X59062206Y-82770736D01*
X59062206Y-82770739D01*
X59047500Y-82920057D01*
X59047500Y-84719942D01*
X59062206Y-84869260D01*
X59062206Y-84869263D01*
X59120332Y-85060877D01*
X59120334Y-85060883D01*
X59214720Y-85237466D01*
X59214722Y-85237469D01*
X59341748Y-85392252D01*
X59496531Y-85519278D01*
X59673120Y-85613667D01*
X59864731Y-85671792D01*
X59864736Y-85671792D01*
X59864738Y-85671793D01*
X59974069Y-85682560D01*
X60014066Y-85686500D01*
X60014075Y-85686500D01*
X61813925Y-85686500D01*
X61813934Y-85686500D01*
X61911179Y-85676922D01*
X61963260Y-85671793D01*
X61963263Y-85671793D01*
X61963264Y-85671792D01*
X61963269Y-85671792D01*
X62154880Y-85613667D01*
X62331469Y-85519278D01*
X62486252Y-85392252D01*
X62613278Y-85237469D01*
X62707667Y-85060880D01*
X62765792Y-84869269D01*
X62780500Y-84719934D01*
X62780500Y-82920066D01*
X62765793Y-82770739D01*
X62765793Y-82770736D01*
X62765792Y-82770733D01*
X62765792Y-82770731D01*
X62707667Y-82579120D01*
X62613278Y-82402531D01*
X62555759Y-82332444D01*
X62528007Y-82267097D01*
X62539989Y-82197119D01*
X62542572Y-82192128D01*
X62616165Y-82057353D01*
X62709468Y-81807197D01*
X62766221Y-81546309D01*
X62785268Y-81280000D01*
X62766221Y-81013691D01*
X62709468Y-80752803D01*
X62616165Y-80502647D01*
X62488211Y-80268316D01*
X62351362Y-80085508D01*
X62326552Y-80018989D01*
X62341643Y-79949615D01*
X62351363Y-79934491D01*
X62488211Y-79751684D01*
X62616165Y-79517353D01*
X62709468Y-79267197D01*
X62766221Y-79006309D01*
X62785268Y-78740000D01*
X62766221Y-78473691D01*
X62709468Y-78212803D01*
X62616165Y-77962647D01*
X62488211Y-77728316D01*
X62351362Y-77545508D01*
X62326552Y-77478989D01*
X62341643Y-77409615D01*
X62351363Y-77394491D01*
X62488211Y-77211684D01*
X62616165Y-76977353D01*
X62709468Y-76727197D01*
X62766221Y-76466309D01*
X62785268Y-76200000D01*
X62766221Y-75933691D01*
X62709468Y-75672803D01*
X62616165Y-75422647D01*
X62488211Y-75188316D01*
X62488208Y-75188312D01*
X62488092Y-75188131D01*
X62488071Y-75188060D01*
X62486054Y-75184366D01*
X62486857Y-75183927D01*
X62468083Y-75120013D01*
X62488078Y-75051890D01*
X62541729Y-75005392D01*
X62594083Y-74994000D01*
X63108707Y-74994000D01*
X63108710Y-74994000D01*
X63163582Y-74984324D01*
X63169014Y-74983609D01*
X63224532Y-74978752D01*
X63278374Y-74964324D01*
X63283692Y-74963145D01*
X63333060Y-74954440D01*
X63338578Y-74953468D01*
X63338579Y-74953468D01*
X63338580Y-74953467D01*
X63338583Y-74953467D01*
X63390935Y-74934411D01*
X63396175Y-74932760D01*
X63449998Y-74918339D01*
X63500491Y-74894792D01*
X63505552Y-74892695D01*
X63557927Y-74873634D01*
X63606208Y-74845757D01*
X63611042Y-74843241D01*
X63661548Y-74819691D01*
X63707197Y-74787725D01*
X63711794Y-74784797D01*
X63760074Y-74756923D01*
X63802768Y-74721096D01*
X63807111Y-74717765D01*
X63852754Y-74685807D01*
X64077311Y-74461250D01*
X64077324Y-74461235D01*
X70580467Y-67958094D01*
X70623829Y-67914732D01*
X70624721Y-67912592D01*
X70653766Y-67871110D01*
X70657108Y-67866754D01*
X70692923Y-67824074D01*
X70710903Y-67792929D01*
X70762281Y-67743937D01*
X70783445Y-67735354D01*
X70836480Y-67719267D01*
X71013069Y-67624878D01*
X71167852Y-67497852D01*
X71294878Y-67343069D01*
X71389267Y-67166480D01*
X71447392Y-66974869D01*
X71462100Y-66825534D01*
X71462100Y-66024066D01*
X71447393Y-65874739D01*
X71447393Y-65874736D01*
X71447392Y-65874733D01*
X71447392Y-65874731D01*
X71389267Y-65683120D01*
X71367692Y-65642757D01*
X71294879Y-65506533D01*
X71294878Y-65506531D01*
X71167852Y-65351748D01*
X71013069Y-65224722D01*
X71013067Y-65224721D01*
X71013066Y-65224720D01*
X70918178Y-65174002D01*
X70845438Y-65135121D01*
X70794791Y-65085370D01*
X70779081Y-65016133D01*
X70803297Y-64949394D01*
X70845438Y-64912878D01*
X71013069Y-64823278D01*
X71167852Y-64696252D01*
X71294878Y-64541469D01*
X71389267Y-64364880D01*
X71447392Y-64173269D01*
X71462100Y-64023934D01*
X71462100Y-63222466D01*
X71450700Y-63106714D01*
X71447393Y-63073139D01*
X71447393Y-63073136D01*
X71447392Y-63073133D01*
X71447392Y-63073131D01*
X71389267Y-62881520D01*
X71358306Y-62823597D01*
X71304275Y-62722511D01*
X71294878Y-62704931D01*
X71167852Y-62550148D01*
X71013069Y-62423122D01*
X71013068Y-62423121D01*
X71013065Y-62423119D01*
X71013063Y-62423118D01*
X70996603Y-62414320D01*
X70945955Y-62364567D01*
X70930000Y-62303199D01*
X70930000Y-59278751D01*
X70950002Y-59210630D01*
X70966900Y-59189660D01*
X71738241Y-58418318D01*
X71800552Y-58384295D01*
X71818339Y-58381737D01*
X72021309Y-58367221D01*
X72282188Y-58310470D01*
X72282189Y-58310470D01*
X72282190Y-58310469D01*
X72282197Y-58310468D01*
X72532353Y-58217165D01*
X72766684Y-58089211D01*
X72766693Y-58089204D01*
X72766869Y-58089092D01*
X72766939Y-58089071D01*
X72770634Y-58087054D01*
X72771072Y-58087857D01*
X72834987Y-58069083D01*
X72903110Y-58089078D01*
X72949608Y-58142729D01*
X72961000Y-58195083D01*
X72961000Y-62931710D01*
X72970673Y-62986578D01*
X72971391Y-62992027D01*
X72976247Y-63047532D01*
X72990667Y-63101348D01*
X72991857Y-63106714D01*
X73001533Y-63161583D01*
X73020584Y-63213928D01*
X73022237Y-63219170D01*
X73036658Y-63272990D01*
X73036664Y-63273005D01*
X73060203Y-63323485D01*
X73062307Y-63328564D01*
X73081365Y-63380926D01*
X73109227Y-63429184D01*
X73111765Y-63434060D01*
X73135309Y-63484548D01*
X73135311Y-63484550D01*
X73135312Y-63484553D01*
X73150419Y-63506128D01*
X73167262Y-63530182D01*
X73170212Y-63534811D01*
X73198076Y-63583073D01*
X73198077Y-63583074D01*
X73233888Y-63625752D01*
X73237234Y-63630113D01*
X73269192Y-63675753D01*
X73269194Y-63675755D01*
X73328248Y-63734810D01*
X73328254Y-63734815D01*
X73556595Y-63963155D01*
X73590620Y-64025468D01*
X73593500Y-64052251D01*
X73593500Y-64507542D01*
X73604037Y-64641425D01*
X73604037Y-64641428D01*
X73604038Y-64641429D01*
X73659739Y-64862485D01*
X73659742Y-64862494D01*
X73754018Y-65070049D01*
X73754020Y-65070052D01*
X73754021Y-65070054D01*
X73865392Y-65230810D01*
X73883849Y-65257451D01*
X73883857Y-65257460D01*
X74045039Y-65418642D01*
X74045048Y-65418650D01*
X74045050Y-65418652D01*
X74232446Y-65548479D01*
X74440011Y-65642760D01*
X74660788Y-65698390D01*
X74721955Y-65734430D01*
X74753929Y-65797820D01*
X74756000Y-65820571D01*
X74756000Y-66092710D01*
X74765673Y-66147578D01*
X74766391Y-66153027D01*
X74771247Y-66208532D01*
X74785667Y-66262348D01*
X74786857Y-66267714D01*
X74796533Y-66322583D01*
X74815584Y-66374928D01*
X74817237Y-66380170D01*
X74831658Y-66433990D01*
X74831664Y-66434005D01*
X74855203Y-66484485D01*
X74857307Y-66489564D01*
X74876365Y-66541926D01*
X74904227Y-66590184D01*
X74906765Y-66595060D01*
X74930309Y-66645548D01*
X74930311Y-66645550D01*
X74930312Y-66645553D01*
X74945419Y-66667128D01*
X74962262Y-66691182D01*
X74965212Y-66695811D01*
X74993076Y-66744073D01*
X74993077Y-66744074D01*
X75028887Y-66786750D01*
X75032235Y-66791113D01*
X75064194Y-66836756D01*
X75064196Y-66836758D01*
X75084864Y-66857425D01*
X75105533Y-66878094D01*
X78570086Y-70342647D01*
X81870678Y-73643239D01*
X81904704Y-73705551D01*
X81907262Y-73723345D01*
X81921779Y-73926312D01*
X81978529Y-74187188D01*
X81978529Y-74187189D01*
X82071834Y-74437352D01*
X82117375Y-74520754D01*
X82199789Y-74671684D01*
X82286665Y-74787736D01*
X82336636Y-74854490D01*
X82361447Y-74921010D01*
X82346356Y-74990384D01*
X82336637Y-75005507D01*
X82199788Y-75188317D01*
X82071834Y-75422647D01*
X81978529Y-75672810D01*
X81978529Y-75672811D01*
X81921779Y-75933687D01*
X81902732Y-76200000D01*
X81921779Y-76466312D01*
X81978529Y-76727188D01*
X81978529Y-76727189D01*
X82071834Y-76977352D01*
X82071835Y-76977353D01*
X82199789Y-77211684D01*
X82265657Y-77299673D01*
X82336636Y-77394491D01*
X82361447Y-77461012D01*
X82346355Y-77530386D01*
X82336636Y-77545509D01*
X82199789Y-77728316D01*
X82071834Y-77962647D01*
X81978529Y-78212810D01*
X81978529Y-78212811D01*
X81921779Y-78473687D01*
X81902732Y-78739999D01*
X81921779Y-79006312D01*
X81978529Y-79267188D01*
X81978529Y-79267189D01*
X82071834Y-79517352D01*
X82071835Y-79517353D01*
X82199789Y-79751684D01*
X82265657Y-79839673D01*
X82336636Y-79934491D01*
X82361447Y-80001012D01*
X82346355Y-80070386D01*
X82336636Y-80085509D01*
X82199789Y-80268316D01*
X82071834Y-80502647D01*
X81978529Y-80752810D01*
X81978529Y-80752811D01*
X81921779Y-81013687D01*
X81902732Y-81280000D01*
X81921779Y-81546312D01*
X81978529Y-81807188D01*
X81978529Y-81807189D01*
X82071832Y-82057346D01*
X82071837Y-82057357D01*
X82145426Y-82192128D01*
X82160517Y-82261502D01*
X82135705Y-82328022D01*
X82132239Y-82332444D01*
X82074722Y-82402529D01*
X82074721Y-82402531D01*
X81980334Y-82579116D01*
X81980332Y-82579122D01*
X81922206Y-82770736D01*
X81922206Y-82770739D01*
X81907500Y-82920057D01*
X81907500Y-84719942D01*
X81922206Y-84869260D01*
X81922206Y-84869263D01*
X81980332Y-85060877D01*
X81980334Y-85060883D01*
X82074720Y-85237466D01*
X82074722Y-85237469D01*
X82201748Y-85392252D01*
X82356531Y-85519278D01*
X82533120Y-85613667D01*
X82724731Y-85671792D01*
X82724736Y-85671792D01*
X82724738Y-85671793D01*
X82834069Y-85682560D01*
X82874066Y-85686500D01*
X82874075Y-85686500D01*
X84673925Y-85686500D01*
X84673934Y-85686500D01*
X84771179Y-85676922D01*
X84823260Y-85671793D01*
X84823263Y-85671793D01*
X84823264Y-85671792D01*
X84823269Y-85671792D01*
X85014880Y-85613667D01*
X85191469Y-85519278D01*
X85346252Y-85392252D01*
X85473278Y-85237469D01*
X85567667Y-85060880D01*
X85625792Y-84869269D01*
X85640500Y-84719934D01*
X85640500Y-82920066D01*
X85625793Y-82770739D01*
X85625793Y-82770736D01*
X85625792Y-82770733D01*
X85625792Y-82770731D01*
X85567667Y-82579120D01*
X85473278Y-82402531D01*
X85415759Y-82332444D01*
X85388007Y-82267097D01*
X85399989Y-82197119D01*
X85402572Y-82192128D01*
X85476165Y-82057353D01*
X85569468Y-81807197D01*
X85626221Y-81546309D01*
X85645268Y-81280000D01*
X85626221Y-81013691D01*
X85569468Y-80752803D01*
X85476165Y-80502647D01*
X85348211Y-80268316D01*
X85211362Y-80085508D01*
X85186552Y-80018989D01*
X85201643Y-79949615D01*
X85211363Y-79934491D01*
X85348211Y-79751684D01*
X85476165Y-79517353D01*
X85569468Y-79267197D01*
X85626221Y-79006309D01*
X85645268Y-78740000D01*
X85626221Y-78473691D01*
X85569468Y-78212803D01*
X85476165Y-77962647D01*
X85348211Y-77728316D01*
X85211362Y-77545508D01*
X85186552Y-77478989D01*
X85201643Y-77409615D01*
X85211363Y-77394491D01*
X85348211Y-77211684D01*
X85476165Y-76977353D01*
X85569468Y-76727197D01*
X85626221Y-76466309D01*
X85645268Y-76200000D01*
X85626221Y-75933691D01*
X85569468Y-75672803D01*
X85476165Y-75422647D01*
X85348211Y-75188316D01*
X85246084Y-75051890D01*
X85211363Y-75005508D01*
X85186552Y-74938988D01*
X85201644Y-74869613D01*
X85211357Y-74854498D01*
X85348211Y-74671684D01*
X85476165Y-74437353D01*
X85569468Y-74187197D01*
X85626221Y-73926309D01*
X85645268Y-73660000D01*
X85626221Y-73393691D01*
X85569468Y-73132803D01*
X85476165Y-72882647D01*
X85348211Y-72648316D01*
X85211362Y-72465508D01*
X85186552Y-72398989D01*
X85201643Y-72329615D01*
X85211363Y-72314491D01*
X85348211Y-72131684D01*
X85476165Y-71897353D01*
X85569468Y-71647197D01*
X85626221Y-71386309D01*
X85645268Y-71120000D01*
X85626221Y-70853691D01*
X85569468Y-70592803D01*
X85476165Y-70342647D01*
X85348211Y-70108316D01*
X85224447Y-69942987D01*
X85211363Y-69925508D01*
X85186552Y-69858988D01*
X85201644Y-69789613D01*
X85211357Y-69774498D01*
X85348211Y-69591684D01*
X85476165Y-69357353D01*
X85569468Y-69107197D01*
X85626221Y-68846309D01*
X85645268Y-68580000D01*
X85626221Y-68313691D01*
X85569468Y-68052803D01*
X85476165Y-67802647D01*
X85348211Y-67568316D01*
X85211362Y-67385508D01*
X85186552Y-67318989D01*
X85201643Y-67249615D01*
X85211363Y-67234491D01*
X85262273Y-67166483D01*
X85348211Y-67051684D01*
X85476165Y-66817353D01*
X85569468Y-66567197D01*
X85626221Y-66306309D01*
X85645268Y-66040000D01*
X85626221Y-65773691D01*
X85580867Y-65565203D01*
X85569470Y-65512811D01*
X85569470Y-65512810D01*
X85569468Y-65512806D01*
X85569468Y-65512803D01*
X85476165Y-65262647D01*
X85348211Y-65028316D01*
X85211362Y-64845507D01*
X85186552Y-64778989D01*
X85201643Y-64709615D01*
X85211363Y-64694491D01*
X85211364Y-64694490D01*
X85348211Y-64511684D01*
X85476165Y-64277353D01*
X85569468Y-64027197D01*
X85626221Y-63766309D01*
X85645268Y-63500000D01*
X85626221Y-63233691D01*
X85597431Y-63101348D01*
X85569470Y-62972811D01*
X85569470Y-62972810D01*
X85569468Y-62972806D01*
X85569468Y-62972803D01*
X85476165Y-62722647D01*
X85348211Y-62488316D01*
X85227863Y-62327550D01*
X85211363Y-62305508D01*
X85186552Y-62238988D01*
X85201644Y-62169613D01*
X85211357Y-62154498D01*
X85348211Y-61971684D01*
X85476165Y-61737353D01*
X85569468Y-61487197D01*
X85626221Y-61226309D01*
X85645268Y-60960000D01*
X85626221Y-60693691D01*
X85569902Y-60434796D01*
X85569470Y-60432811D01*
X85569470Y-60432810D01*
X85569468Y-60432806D01*
X85569468Y-60432803D01*
X85476165Y-60182647D01*
X85348211Y-59948316D01*
X85188210Y-59734580D01*
X84999420Y-59545790D01*
X84999417Y-59545788D01*
X84999414Y-59545785D01*
X84912963Y-59481069D01*
X84785684Y-59385789D01*
X84589658Y-59278751D01*
X84551352Y-59257834D01*
X84301189Y-59164529D01*
X84040311Y-59107779D01*
X84040313Y-59107779D01*
X83827261Y-59092541D01*
X83774000Y-59088732D01*
X83773999Y-59088732D01*
X83507687Y-59107779D01*
X83246811Y-59164529D01*
X83246810Y-59164529D01*
X82996647Y-59257834D01*
X82762316Y-59385789D01*
X82548585Y-59545785D01*
X82548576Y-59545793D01*
X82359793Y-59734576D01*
X82359785Y-59734585D01*
X82199789Y-59948316D01*
X82071834Y-60182647D01*
X81978529Y-60432810D01*
X81978529Y-60432811D01*
X81921779Y-60693687D01*
X81902732Y-60960000D01*
X81921779Y-61226312D01*
X81978529Y-61487188D01*
X81978529Y-61487189D01*
X82071834Y-61737352D01*
X82104888Y-61797885D01*
X82199789Y-61971684D01*
X82326782Y-62141327D01*
X82336636Y-62154490D01*
X82361447Y-62221010D01*
X82346356Y-62290384D01*
X82336637Y-62305507D01*
X82199788Y-62488317D01*
X82071834Y-62722647D01*
X81978529Y-62972810D01*
X81978529Y-62972811D01*
X81921779Y-63233687D01*
X81902732Y-63499999D01*
X81921779Y-63766312D01*
X81978529Y-64027188D01*
X81978529Y-64027189D01*
X82071834Y-64277352D01*
X82119628Y-64364880D01*
X82199789Y-64511684D01*
X82237763Y-64562411D01*
X82336636Y-64694490D01*
X82361447Y-64761010D01*
X82346356Y-64830384D01*
X82336637Y-64845507D01*
X82199788Y-65028317D01*
X82071834Y-65262647D01*
X81978529Y-65512810D01*
X81978529Y-65512811D01*
X81921779Y-65773687D01*
X81902732Y-66039999D01*
X81921779Y-66306312D01*
X81978529Y-66567188D01*
X81978529Y-66567189D01*
X82071834Y-66817352D01*
X82082431Y-66836758D01*
X82199789Y-67051684D01*
X82265657Y-67139673D01*
X82336636Y-67234491D01*
X82361447Y-67301012D01*
X82346355Y-67370386D01*
X82336636Y-67385509D01*
X82199789Y-67568316D01*
X82071834Y-67802647D01*
X81978529Y-68052810D01*
X81978529Y-68052811D01*
X81921779Y-68313687D01*
X81902732Y-68580000D01*
X81921779Y-68846312D01*
X81978529Y-69107188D01*
X81978529Y-69107189D01*
X82071834Y-69357352D01*
X82071835Y-69357353D01*
X82199789Y-69591684D01*
X82287959Y-69709465D01*
X82336636Y-69774490D01*
X82361447Y-69841010D01*
X82346356Y-69910384D01*
X82336636Y-69925508D01*
X82248009Y-70043899D01*
X82191173Y-70086446D01*
X82120357Y-70091510D01*
X82058046Y-70057485D01*
X77460905Y-65460344D01*
X77426879Y-65398032D01*
X77424000Y-65371249D01*
X77424000Y-65355528D01*
X77444002Y-65287407D01*
X77497658Y-65240914D01*
X77567932Y-65230810D01*
X77607204Y-65243262D01*
X77666095Y-65273269D01*
X77845789Y-65321417D01*
X77923061Y-65327500D01*
X78143500Y-65327500D01*
X78143500Y-64046500D01*
X78651500Y-64046500D01*
X78651500Y-65327500D01*
X78871939Y-65327500D01*
X78949210Y-65321417D01*
X79128902Y-65273269D01*
X79294658Y-65188812D01*
X79294661Y-65188811D01*
X79439236Y-65071736D01*
X79556311Y-64927161D01*
X79556312Y-64927158D01*
X79640769Y-64761402D01*
X79688917Y-64581710D01*
X79695000Y-64504438D01*
X79695000Y-64046500D01*
X78651500Y-64046500D01*
X78143500Y-64046500D01*
X78143500Y-62257500D01*
X78651500Y-62257500D01*
X78651500Y-63538500D01*
X79695000Y-63538500D01*
X79695000Y-63080561D01*
X79688917Y-63003289D01*
X79640769Y-62823597D01*
X79556312Y-62657841D01*
X79556311Y-62657838D01*
X79439236Y-62513263D01*
X79294661Y-62396188D01*
X79294658Y-62396187D01*
X79128902Y-62311730D01*
X78949210Y-62263582D01*
X78871939Y-62257500D01*
X78651500Y-62257500D01*
X78143500Y-62257500D01*
X77923061Y-62257500D01*
X77845789Y-62263582D01*
X77666097Y-62311730D01*
X77500341Y-62396187D01*
X77500338Y-62396188D01*
X77355763Y-62513263D01*
X77238688Y-62657838D01*
X77238687Y-62657841D01*
X77154228Y-62823600D01*
X77154189Y-62823747D01*
X77154142Y-62823822D01*
X77151863Y-62829762D01*
X77150776Y-62829344D01*
X77117230Y-62884365D01*
X77053366Y-62915379D01*
X76982872Y-62906942D01*
X76928131Y-62861732D01*
X76910305Y-62821907D01*
X76885261Y-62722516D01*
X76885260Y-62722511D01*
X76790979Y-62514946D01*
X76661152Y-62327550D01*
X76661150Y-62327548D01*
X76661142Y-62327539D01*
X76499960Y-62166357D01*
X76499951Y-62166349D01*
X76482835Y-62154491D01*
X76312554Y-62036521D01*
X76312552Y-62036520D01*
X76312549Y-62036518D01*
X76104994Y-61942242D01*
X76104991Y-61942241D01*
X76104989Y-61942240D01*
X75883925Y-61886537D01*
X75750042Y-61876000D01*
X75750039Y-61876000D01*
X75747574Y-61875806D01*
X75747622Y-61875185D01*
X75682757Y-61853330D01*
X75638414Y-61797885D01*
X75629000Y-61750097D01*
X75629000Y-57872820D01*
X75649002Y-57804699D01*
X75665906Y-57783724D01*
X75681086Y-57768542D01*
X75709210Y-57740420D01*
X75869211Y-57526684D01*
X75997165Y-57292353D01*
X76090468Y-57042197D01*
X76147221Y-56781309D01*
X76166268Y-56515000D01*
X76147221Y-56248691D01*
X76107832Y-56067625D01*
X76090470Y-55987811D01*
X76090470Y-55987810D01*
X76090468Y-55987806D01*
X76090468Y-55987803D01*
X75997165Y-55737647D01*
X75869211Y-55503316D01*
X75709210Y-55289580D01*
X75520420Y-55100790D01*
X75520417Y-55100788D01*
X75520414Y-55100785D01*
X75425856Y-55030000D01*
X75306684Y-54940789D01*
X75178729Y-54870920D01*
X75072352Y-54812834D01*
X74822189Y-54719529D01*
X74561311Y-54662779D01*
X74561313Y-54662779D01*
X74295000Y-54643732D01*
X74028687Y-54662779D01*
X73767811Y-54719529D01*
X73767810Y-54719529D01*
X73517647Y-54812834D01*
X73283316Y-54940789D01*
X73100509Y-55077636D01*
X73033988Y-55102447D01*
X72964614Y-55087355D01*
X72949491Y-55077636D01*
X72854673Y-55006657D01*
X72766684Y-54940789D01*
X72638728Y-54870920D01*
X72532352Y-54812834D01*
X72282189Y-54719529D01*
X72021311Y-54662779D01*
X72021313Y-54662779D01*
X71755000Y-54643732D01*
X71488687Y-54662779D01*
X71227811Y-54719529D01*
X71227810Y-54719529D01*
X70977647Y-54812834D01*
X70743316Y-54940789D01*
X70529580Y-55100790D01*
X70528700Y-55101553D01*
X70528345Y-55101715D01*
X70525978Y-55103487D01*
X70525592Y-55102971D01*
X70464116Y-55131039D01*
X70393843Y-55120927D01*
X70382059Y-55114772D01*
X70319197Y-55077595D01*
X70165130Y-55032834D01*
X70165117Y-55032832D01*
X70129136Y-55030000D01*
X69469000Y-55030000D01*
X69469000Y-56081325D01*
X69357315Y-56030320D01*
X69250763Y-56015000D01*
X69179237Y-56015000D01*
X69072685Y-56030320D01*
X68961000Y-56081325D01*
X68961000Y-55030000D01*
X68300864Y-55030000D01*
X68264882Y-55032832D01*
X68264869Y-55032834D01*
X68110802Y-55077595D01*
X67972714Y-55159261D01*
X67972707Y-55159266D01*
X67859266Y-55272707D01*
X67859261Y-55272714D01*
X67777595Y-55410802D01*
X67732834Y-55564869D01*
X67732832Y-55564882D01*
X67730000Y-55600863D01*
X67730000Y-56261000D01*
X68783884Y-56261000D01*
X68755507Y-56305156D01*
X68715000Y-56443111D01*
X68715000Y-56586889D01*
X68755507Y-56724844D01*
X68783884Y-56769000D01*
X67730000Y-56769000D01*
X67730000Y-57429136D01*
X67732832Y-57465117D01*
X67732834Y-57465130D01*
X67777595Y-57619197D01*
X67859261Y-57757285D01*
X67859266Y-57757292D01*
X67972707Y-57870733D01*
X67972714Y-57870738D01*
X68110802Y-57952404D01*
X68264865Y-57997164D01*
X68265451Y-57997271D01*
X68265748Y-57997420D01*
X68271057Y-57998963D01*
X68270771Y-57999947D01*
X68328874Y-58029178D01*
X68364979Y-58090309D01*
X68362302Y-58161256D01*
X68357026Y-58174472D01*
X68337658Y-58216006D01*
X68323240Y-58269818D01*
X68321588Y-58275059D01*
X68302533Y-58327416D01*
X68292857Y-58382284D01*
X68291667Y-58387649D01*
X68277247Y-58441466D01*
X68272391Y-58496971D01*
X68271674Y-58502420D01*
X68262000Y-58557289D01*
X68262000Y-62303199D01*
X68241998Y-62371320D01*
X68195397Y-62414320D01*
X68178936Y-62423118D01*
X68178934Y-62423119D01*
X68024148Y-62550148D01*
X67897120Y-62704933D01*
X67802734Y-62881516D01*
X67802732Y-62881522D01*
X67744606Y-63073136D01*
X67744606Y-63073139D01*
X67729900Y-63222457D01*
X67729900Y-64023942D01*
X67744606Y-64173260D01*
X67744606Y-64173263D01*
X67802732Y-64364877D01*
X67802734Y-64364883D01*
X67897120Y-64541466D01*
X67897122Y-64541469D01*
X68024148Y-64696252D01*
X68178931Y-64823278D01*
X68178933Y-64823279D01*
X68346560Y-64912878D01*
X68397208Y-64962630D01*
X68412918Y-65031867D01*
X68388702Y-65098606D01*
X68346560Y-65135122D01*
X68178933Y-65224720D01*
X68024148Y-65351748D01*
X67897120Y-65506533D01*
X67802734Y-65683116D01*
X67802732Y-65683122D01*
X67744606Y-65874736D01*
X67744606Y-65874739D01*
X67729900Y-66024057D01*
X67729900Y-66825542D01*
X67742887Y-66957404D01*
X67729658Y-67027157D01*
X67706589Y-67058848D01*
X62875874Y-71889564D01*
X62813562Y-71923590D01*
X62742747Y-71918525D01*
X62685911Y-71875978D01*
X62661100Y-71809458D01*
X62668722Y-71756440D01*
X62709468Y-71647197D01*
X62766221Y-71386309D01*
X62785268Y-71120000D01*
X62766221Y-70853691D01*
X62709468Y-70592803D01*
X62616165Y-70342647D01*
X62488211Y-70108316D01*
X62351362Y-69925508D01*
X62326552Y-69858989D01*
X62341643Y-69789615D01*
X62351363Y-69774491D01*
X62351364Y-69774490D01*
X62488211Y-69591684D01*
X62616165Y-69357353D01*
X62709468Y-69107197D01*
X62766221Y-68846309D01*
X62785268Y-68580000D01*
X62766221Y-68313691D01*
X62709468Y-68052803D01*
X62616165Y-67802647D01*
X62488211Y-67568316D01*
X62351362Y-67385508D01*
X62326552Y-67318989D01*
X62341643Y-67249615D01*
X62351363Y-67234491D01*
X62402273Y-67166483D01*
X62488211Y-67051684D01*
X62616165Y-66817353D01*
X62709468Y-66567197D01*
X62766221Y-66306309D01*
X62785268Y-66040000D01*
X62766221Y-65773691D01*
X62720867Y-65565203D01*
X62709470Y-65512811D01*
X62709470Y-65512810D01*
X62709468Y-65512806D01*
X62709468Y-65512803D01*
X62616165Y-65262647D01*
X62488211Y-65028316D01*
X62351362Y-64845507D01*
X62326552Y-64778989D01*
X62341643Y-64709615D01*
X62351363Y-64694491D01*
X62351364Y-64694490D01*
X62488211Y-64511684D01*
X62616165Y-64277353D01*
X62709468Y-64027197D01*
X62766221Y-63766309D01*
X62785268Y-63500000D01*
X62766221Y-63233691D01*
X62737431Y-63101348D01*
X62709470Y-62972811D01*
X62709470Y-62972810D01*
X62709468Y-62972806D01*
X62709468Y-62972803D01*
X62616165Y-62722647D01*
X62488211Y-62488316D01*
X62367863Y-62327550D01*
X62351363Y-62305508D01*
X62326552Y-62238988D01*
X62341644Y-62169613D01*
X62351357Y-62154498D01*
X62488211Y-61971684D01*
X62616165Y-61737353D01*
X62709468Y-61487197D01*
X62766221Y-61226309D01*
X62785268Y-60960000D01*
X62766221Y-60693691D01*
X62709902Y-60434796D01*
X62709470Y-60432811D01*
X62709470Y-60432810D01*
X62709468Y-60432806D01*
X62709468Y-60432803D01*
X62616165Y-60182647D01*
X62488211Y-59948316D01*
X62328210Y-59734580D01*
X62139420Y-59545790D01*
X62139417Y-59545788D01*
X62139414Y-59545785D01*
X62052963Y-59481069D01*
X61925684Y-59385789D01*
X61729658Y-59278751D01*
X61691352Y-59257834D01*
X61441189Y-59164529D01*
X61180311Y-59107779D01*
X61180313Y-59107779D01*
X60914000Y-59088732D01*
X60647687Y-59107779D01*
X60386811Y-59164529D01*
X60386810Y-59164529D01*
X60136647Y-59257834D01*
X59902316Y-59385789D01*
X59688585Y-59545785D01*
X59688576Y-59545793D01*
X59499793Y-59734576D01*
X59499785Y-59734585D01*
X59339789Y-59948316D01*
X59211834Y-60182647D01*
X59118529Y-60432810D01*
X59118529Y-60432811D01*
X59061779Y-60693687D01*
X59042732Y-60959999D01*
X59061779Y-61226312D01*
X59118529Y-61487188D01*
X59118529Y-61487189D01*
X59211834Y-61737352D01*
X59244888Y-61797885D01*
X59339789Y-61971684D01*
X59405657Y-62059673D01*
X59476636Y-62154491D01*
X59501447Y-62221012D01*
X59486355Y-62290386D01*
X59476636Y-62305509D01*
X59339789Y-62488316D01*
X59211834Y-62722647D01*
X59118529Y-62972810D01*
X59118529Y-62972811D01*
X59061779Y-63233687D01*
X59042732Y-63499999D01*
X59061779Y-63766312D01*
X59118529Y-64027188D01*
X59118529Y-64027189D01*
X59211834Y-64277352D01*
X59259628Y-64364880D01*
X59339789Y-64511684D01*
X59377763Y-64562411D01*
X59476636Y-64694490D01*
X59501447Y-64761010D01*
X59486356Y-64830384D01*
X59476637Y-64845507D01*
X59339788Y-65028317D01*
X59211834Y-65262647D01*
X59118529Y-65512810D01*
X59118529Y-65512811D01*
X59061779Y-65773687D01*
X59042732Y-66039999D01*
X59061779Y-66306312D01*
X59118529Y-66567188D01*
X59118529Y-66567189D01*
X59211834Y-66817352D01*
X59222431Y-66836758D01*
X59339789Y-67051684D01*
X59405657Y-67139673D01*
X59476636Y-67234491D01*
X59501447Y-67301012D01*
X59486355Y-67370386D01*
X59476636Y-67385509D01*
X59339789Y-67568316D01*
X59211834Y-67802647D01*
X59118529Y-68052810D01*
X59118529Y-68052811D01*
X59061779Y-68313687D01*
X59042732Y-68580000D01*
X59061779Y-68846312D01*
X59118529Y-69107188D01*
X59118529Y-69107189D01*
X59211834Y-69357352D01*
X59211835Y-69357353D01*
X59339789Y-69591684D01*
X59405657Y-69679673D01*
X59476636Y-69774491D01*
X59501447Y-69841012D01*
X59486355Y-69910386D01*
X59476636Y-69925509D01*
X59339789Y-70108316D01*
X59211834Y-70342647D01*
X59118529Y-70592810D01*
X59118529Y-70592811D01*
X59061779Y-70853687D01*
X59042732Y-71120000D01*
X59061779Y-71386312D01*
X59118529Y-71647188D01*
X59118529Y-71647189D01*
X59211834Y-71897352D01*
X59226161Y-71923590D01*
X59339789Y-72131684D01*
X59405657Y-72219673D01*
X59476636Y-72314491D01*
X59501447Y-72381012D01*
X59486355Y-72450386D01*
X59476636Y-72465509D01*
X59339789Y-72648316D01*
X59211834Y-72882647D01*
X59118529Y-73132810D01*
X59118529Y-73132811D01*
X59061779Y-73393687D01*
X59042732Y-73660000D01*
X59061779Y-73926312D01*
X59118529Y-74187188D01*
X59118529Y-74187189D01*
X59211834Y-74437352D01*
X59257375Y-74520754D01*
X59339789Y-74671684D01*
X59426665Y-74787736D01*
X59476636Y-74854490D01*
X59501447Y-74921010D01*
X59486356Y-74990384D01*
X59476637Y-75005507D01*
X59339788Y-75188317D01*
X59211834Y-75422647D01*
X59118529Y-75672810D01*
X59118529Y-75672811D01*
X59061779Y-75933687D01*
X59042732Y-76199999D01*
X59061779Y-76466312D01*
X59118529Y-76727188D01*
X59118529Y-76727189D01*
X59211834Y-76977352D01*
X59211835Y-76977353D01*
X59339789Y-77211684D01*
X59405657Y-77299673D01*
X59476636Y-77394491D01*
X59501447Y-77461012D01*
X59486355Y-77530386D01*
X59476636Y-77545509D01*
X59339789Y-77728316D01*
X59211834Y-77962647D01*
X59118529Y-78212810D01*
X59118529Y-78212811D01*
X59061779Y-78473687D01*
X59042732Y-78739999D01*
X59061779Y-79006312D01*
X59118529Y-79267188D01*
X59118529Y-79267189D01*
X59211834Y-79517352D01*
X59211835Y-79517353D01*
X59339789Y-79751684D01*
X59405657Y-79839673D01*
X59476636Y-79934491D01*
X59501447Y-80001012D01*
X59486355Y-80070386D01*
X59476636Y-80085509D01*
X59339789Y-80268316D01*
X59211834Y-80502647D01*
X59118529Y-80752810D01*
X59118529Y-80752811D01*
X59061779Y-81013687D01*
X59042732Y-81280000D01*
X51000000Y-81280000D01*
X51000000Y-51126000D01*
X51020002Y-51057879D01*
X51073658Y-51011386D01*
X51126000Y-51000000D01*
X98874000Y-51000000D01*
X98942121Y-51020002D01*
G37*
%TD.AperFunction*%
%TD*%
%TA.AperFunction,Conductor*%
%TO.N,Net-(J1-Pin_1)*%
G36*
X130011943Y-101020002D02*
G01*
X130058436Y-101073658D01*
X130067625Y-101102575D01*
X130154631Y-101562412D01*
X130290534Y-102069605D01*
X130463950Y-102565200D01*
X130463951Y-102565202D01*
X130463954Y-102565209D01*
X130593666Y-102862513D01*
X130673925Y-103046470D01*
X130673937Y-103046496D01*
X130919278Y-103510699D01*
X130919290Y-103510720D01*
X131198633Y-103955293D01*
X131198645Y-103955310D01*
X131510438Y-104377775D01*
X131510451Y-104377791D01*
X131779012Y-104689864D01*
X131852942Y-104775772D01*
X131852954Y-104775784D01*
X131852965Y-104775796D01*
X132224203Y-105147034D01*
X132224215Y-105147045D01*
X132224228Y-105147058D01*
X132325638Y-105234328D01*
X132622208Y-105489548D01*
X132622224Y-105489561D01*
X133044689Y-105801354D01*
X133044706Y-105801366D01*
X133489279Y-106080709D01*
X133489295Y-106080719D01*
X133660588Y-106171250D01*
X133953503Y-106326062D01*
X133953519Y-106326069D01*
X133953524Y-106326072D01*
X134434791Y-106536046D01*
X134434798Y-106536048D01*
X134434799Y-106536049D01*
X134930394Y-106709465D01*
X134930403Y-106709468D01*
X135437589Y-106845369D01*
X135953513Y-106942987D01*
X136416498Y-106995152D01*
X136475288Y-107001777D01*
X136494920Y-107002511D01*
X137000000Y-107021410D01*
X137524711Y-107001777D01*
X138046487Y-106942987D01*
X138562411Y-106845369D01*
X139069597Y-106709468D01*
X139565209Y-106536046D01*
X140046476Y-106326072D01*
X140046487Y-106326065D01*
X140046496Y-106326062D01*
X140262204Y-106212056D01*
X140510705Y-106080719D01*
X140955301Y-105801361D01*
X141377778Y-105489559D01*
X141775772Y-105147058D01*
X142147058Y-104775772D01*
X142489559Y-104377778D01*
X142801361Y-103955301D01*
X143080719Y-103510705D01*
X143245710Y-103198527D01*
X143326062Y-103046496D01*
X143326065Y-103046487D01*
X143326072Y-103046476D01*
X143536046Y-102565209D01*
X143709468Y-102069597D01*
X143845369Y-101562411D01*
X143908312Y-101229748D01*
X143932375Y-101102575D01*
X143964692Y-101039361D01*
X144026056Y-101003653D01*
X144056178Y-101000000D01*
X148874000Y-101000000D01*
X148942121Y-101020002D01*
X148988614Y-101073658D01*
X149000000Y-101126000D01*
X149000000Y-148874000D01*
X148979998Y-148942121D01*
X148926342Y-148988614D01*
X148874000Y-149000000D01*
X101126000Y-149000000D01*
X101057879Y-148979998D01*
X101011386Y-148926342D01*
X101000000Y-148874000D01*
X101000000Y-144056178D01*
X101020002Y-143988057D01*
X101073658Y-143941564D01*
X101102575Y-143932375D01*
X101257671Y-143903028D01*
X101562411Y-143845369D01*
X102069597Y-143709468D01*
X102565209Y-143536046D01*
X103046476Y-143326072D01*
X103046487Y-143326065D01*
X103046496Y-143326062D01*
X103239223Y-143224202D01*
X103510705Y-143080719D01*
X103955301Y-142801361D01*
X104377778Y-142489559D01*
X104775772Y-142147058D01*
X105147058Y-141775772D01*
X105489559Y-141377778D01*
X105801361Y-140955301D01*
X106080719Y-140510705D01*
X106245710Y-140198527D01*
X106326062Y-140046496D01*
X106326065Y-140046487D01*
X106326072Y-140046476D01*
X106536046Y-139565209D01*
X106709468Y-139069597D01*
X106845369Y-138562411D01*
X106942987Y-138046487D01*
X107001777Y-137524711D01*
X107021410Y-137000000D01*
X107008389Y-136651999D01*
X114414732Y-136651999D01*
X114433779Y-136918312D01*
X114490529Y-137179188D01*
X114490529Y-137179189D01*
X114583832Y-137429346D01*
X114583837Y-137429357D01*
X114657426Y-137564128D01*
X114672517Y-137633502D01*
X114647705Y-137700022D01*
X114644239Y-137704444D01*
X114586722Y-137774529D01*
X114586721Y-137774531D01*
X114492334Y-137951116D01*
X114492332Y-137951122D01*
X114434206Y-138142736D01*
X114434206Y-138142739D01*
X114419500Y-138292057D01*
X114419500Y-140091942D01*
X114434206Y-140241260D01*
X114434206Y-140241263D01*
X114492332Y-140432877D01*
X114492334Y-140432883D01*
X114521243Y-140486967D01*
X114586722Y-140609469D01*
X114713748Y-140764252D01*
X114868531Y-140891278D01*
X115045120Y-140985667D01*
X115236731Y-141043792D01*
X115236736Y-141043792D01*
X115236738Y-141043793D01*
X115346069Y-141054560D01*
X115386066Y-141058500D01*
X115386075Y-141058500D01*
X117185925Y-141058500D01*
X117185934Y-141058500D01*
X117283179Y-141048922D01*
X117335260Y-141043793D01*
X117335263Y-141043793D01*
X117335264Y-141043792D01*
X117335269Y-141043792D01*
X117526880Y-140985667D01*
X117703469Y-140891278D01*
X117858252Y-140764252D01*
X117985278Y-140609469D01*
X118079667Y-140432880D01*
X118137792Y-140241269D01*
X118152500Y-140091934D01*
X118152500Y-138292066D01*
X118137793Y-138142739D01*
X118137793Y-138142736D01*
X118137792Y-138142733D01*
X118137792Y-138142731D01*
X118079667Y-137951120D01*
X117985278Y-137774531D01*
X117927759Y-137704444D01*
X117900007Y-137639097D01*
X117911989Y-137569119D01*
X117914572Y-137564128D01*
X117988165Y-137429353D01*
X118081468Y-137179197D01*
X118138221Y-136918309D01*
X118157268Y-136652000D01*
X118138221Y-136385691D01*
X118085644Y-136144000D01*
X118081470Y-136124811D01*
X118081470Y-136124810D01*
X118081468Y-136124806D01*
X118081468Y-136124803D01*
X117988165Y-135874647D01*
X117860211Y-135640316D01*
X117723362Y-135457508D01*
X117698552Y-135390989D01*
X117713643Y-135321615D01*
X117723363Y-135306491D01*
X117860211Y-135123684D01*
X117988165Y-134889353D01*
X118081468Y-134639197D01*
X118138221Y-134378309D01*
X118157268Y-134112000D01*
X118138221Y-133845691D01*
X118081468Y-133584803D01*
X117988165Y-133334647D01*
X117860211Y-133100316D01*
X117772220Y-132982774D01*
X117723363Y-132917508D01*
X117698552Y-132850988D01*
X117713644Y-132781613D01*
X117723357Y-132766498D01*
X117860211Y-132583684D01*
X117988165Y-132349353D01*
X118081468Y-132099197D01*
X118138221Y-131838309D01*
X118157268Y-131572000D01*
X118138221Y-131305691D01*
X118081468Y-131044803D01*
X117988165Y-130794647D01*
X117860211Y-130560316D01*
X117860208Y-130560312D01*
X117860092Y-130560131D01*
X117860071Y-130560060D01*
X117858054Y-130556366D01*
X117858857Y-130555927D01*
X117840083Y-130492013D01*
X117860078Y-130423890D01*
X117913729Y-130377392D01*
X117966083Y-130366000D01*
X120117049Y-130366000D01*
X120185170Y-130386002D01*
X120206144Y-130402905D01*
X122819300Y-133016061D01*
X122853326Y-133078373D01*
X122855598Y-133117506D01*
X122847900Y-133195659D01*
X122847900Y-133997142D01*
X122862606Y-134146460D01*
X122862606Y-134146463D01*
X122920732Y-134338077D01*
X122920734Y-134338083D01*
X123015120Y-134514666D01*
X123015122Y-134514669D01*
X123142148Y-134669452D01*
X123296931Y-134796478D01*
X123464561Y-134886078D01*
X123515208Y-134935829D01*
X123530918Y-135005065D01*
X123506702Y-135071805D01*
X123464561Y-135108321D01*
X123373777Y-135156847D01*
X123296931Y-135197922D01*
X123164638Y-135306491D01*
X123142148Y-135324948D01*
X123015120Y-135479733D01*
X122920734Y-135656316D01*
X122920732Y-135656322D01*
X122862606Y-135847936D01*
X122862606Y-135847939D01*
X122847900Y-135997257D01*
X122847900Y-136798742D01*
X122862606Y-136948060D01*
X122862606Y-136948063D01*
X122920732Y-137139677D01*
X122920734Y-137139683D01*
X123010204Y-137307069D01*
X123015122Y-137316269D01*
X123142148Y-137471052D01*
X123296931Y-137598078D01*
X123296933Y-137598079D01*
X123460253Y-137685376D01*
X123473520Y-137692467D01*
X123665131Y-137750592D01*
X123665136Y-137750592D01*
X123665138Y-137750593D01*
X123774469Y-137761360D01*
X123814466Y-137765300D01*
X124142549Y-137765300D01*
X124210670Y-137785302D01*
X124231644Y-137802205D01*
X126854095Y-140424655D01*
X126888121Y-140486967D01*
X126891000Y-140513750D01*
X126891000Y-141979355D01*
X126870998Y-142047476D01*
X126817342Y-142093969D01*
X126747068Y-142104073D01*
X126729847Y-142100352D01*
X126635131Y-142072834D01*
X126635117Y-142072832D01*
X126599136Y-142070000D01*
X125939000Y-142070000D01*
X125939000Y-143121325D01*
X125827315Y-143070320D01*
X125720763Y-143055000D01*
X125649237Y-143055000D01*
X125542685Y-143070320D01*
X125431000Y-143121325D01*
X125431000Y-142070000D01*
X124770864Y-142070000D01*
X124734882Y-142072832D01*
X124734869Y-142072834D01*
X124580802Y-142117595D01*
X124442714Y-142199261D01*
X124442707Y-142199266D01*
X124329266Y-142312707D01*
X124329261Y-142312714D01*
X124247595Y-142450802D01*
X124202834Y-142604869D01*
X124202832Y-142604882D01*
X124200000Y-142640863D01*
X124200000Y-143301000D01*
X125253884Y-143301000D01*
X125225507Y-143345156D01*
X125185000Y-143483111D01*
X125185000Y-143626889D01*
X125225507Y-143764844D01*
X125253884Y-143809000D01*
X124200000Y-143809000D01*
X124200000Y-144469136D01*
X124202832Y-144505117D01*
X124202834Y-144505130D01*
X124247595Y-144659197D01*
X124329261Y-144797285D01*
X124329266Y-144797292D01*
X124442707Y-144910733D01*
X124442714Y-144910738D01*
X124580802Y-144992404D01*
X124734869Y-145037165D01*
X124734882Y-145037167D01*
X124770863Y-145039999D01*
X124770865Y-145040000D01*
X125431000Y-145040000D01*
X125431000Y-143988674D01*
X125542685Y-144039680D01*
X125649237Y-144055000D01*
X125720763Y-144055000D01*
X125827315Y-144039680D01*
X125939000Y-143988674D01*
X125939000Y-145040000D01*
X126599135Y-145040000D01*
X126599136Y-145039999D01*
X126635117Y-145037167D01*
X126635130Y-145037165D01*
X126789195Y-144992404D01*
X126852058Y-144955227D01*
X126920874Y-144937767D01*
X126988205Y-144960283D01*
X126998723Y-144968467D01*
X126999575Y-144969205D01*
X126999580Y-144969210D01*
X127213316Y-145129211D01*
X127447647Y-145257165D01*
X127697803Y-145350468D01*
X127697806Y-145350468D01*
X127697810Y-145350470D01*
X127848788Y-145383313D01*
X127958691Y-145407221D01*
X128225000Y-145426268D01*
X128491309Y-145407221D01*
X128752188Y-145350470D01*
X128752189Y-145350470D01*
X128752190Y-145350469D01*
X128752197Y-145350468D01*
X129002353Y-145257165D01*
X129236684Y-145129211D01*
X129419491Y-144992362D01*
X129486011Y-144967552D01*
X129555385Y-144982643D01*
X129570507Y-144992361D01*
X129753316Y-145129211D01*
X129987647Y-145257165D01*
X130237803Y-145350468D01*
X130237806Y-145350468D01*
X130237810Y-145350470D01*
X130388788Y-145383313D01*
X130498691Y-145407221D01*
X130765000Y-145426268D01*
X131031309Y-145407221D01*
X131292188Y-145350470D01*
X131292189Y-145350470D01*
X131292190Y-145350469D01*
X131292197Y-145350468D01*
X131542353Y-145257165D01*
X131776684Y-145129211D01*
X131990420Y-144969210D01*
X132179210Y-144780420D01*
X132339211Y-144566684D01*
X132467165Y-144332353D01*
X132560468Y-144082197D01*
X132617221Y-143821309D01*
X132636268Y-143555000D01*
X132617221Y-143288691D01*
X132569717Y-143070320D01*
X132560470Y-143027811D01*
X132560470Y-143027810D01*
X132560468Y-143027806D01*
X132560468Y-143027803D01*
X132467165Y-142777647D01*
X132339211Y-142543316D01*
X132179210Y-142329580D01*
X132135905Y-142286275D01*
X132101879Y-142223963D01*
X132099000Y-142197180D01*
X132099000Y-137685376D01*
X132119002Y-137617255D01*
X132145064Y-137587979D01*
X132298752Y-137461852D01*
X132425778Y-137307069D01*
X132520167Y-137130480D01*
X132578292Y-136938869D01*
X132589226Y-136827850D01*
X132615808Y-136762019D01*
X132673762Y-136721008D01*
X132714619Y-136714200D01*
X132917981Y-136714200D01*
X132986102Y-136734202D01*
X133032595Y-136787858D01*
X133043592Y-136830312D01*
X133044332Y-136839718D01*
X133044334Y-136839730D01*
X133089095Y-136993797D01*
X133170761Y-137131885D01*
X133170766Y-137131892D01*
X133284207Y-137245333D01*
X133284214Y-137245338D01*
X133422302Y-137327004D01*
X133576369Y-137371765D01*
X133576382Y-137371767D01*
X133612363Y-137374599D01*
X133612365Y-137374600D01*
X133773300Y-137374600D01*
X133773300Y-136144000D01*
X134281300Y-136144000D01*
X134281300Y-137374600D01*
X134442235Y-137374600D01*
X134442236Y-137374599D01*
X134478217Y-137371767D01*
X134478230Y-137371765D01*
X134632297Y-137327004D01*
X134770385Y-137245338D01*
X134770392Y-137245333D01*
X134883833Y-137131892D01*
X134883838Y-137131885D01*
X134965504Y-136993797D01*
X135010265Y-136839730D01*
X135010267Y-136839717D01*
X135013099Y-136803736D01*
X135013100Y-136803735D01*
X135013100Y-136144000D01*
X134281300Y-136144000D01*
X133773300Y-136144000D01*
X133773300Y-135762000D01*
X133793302Y-135693879D01*
X133846958Y-135647386D01*
X133899300Y-135636000D01*
X135013100Y-135636000D01*
X135013100Y-134976264D01*
X135013099Y-134976263D01*
X135010267Y-134940282D01*
X135010265Y-134940269D01*
X134965504Y-134786202D01*
X134883838Y-134648114D01*
X134883833Y-134648107D01*
X134770392Y-134534666D01*
X134770385Y-134534661D01*
X134632302Y-134452998D01*
X134631642Y-134452713D01*
X134631206Y-134452350D01*
X134625470Y-134448958D01*
X134626017Y-134448032D01*
X134577066Y-134407304D01*
X134555702Y-134339598D01*
X134574335Y-134271090D01*
X134592579Y-134247981D01*
X137079230Y-131761329D01*
X137141540Y-131727306D01*
X137212355Y-131732370D01*
X137269191Y-131774917D01*
X137291290Y-131834118D01*
X137293138Y-131833853D01*
X137293779Y-131838311D01*
X137350529Y-132099188D01*
X137350529Y-132099189D01*
X137443834Y-132349352D01*
X137443835Y-132349353D01*
X137571789Y-132583684D01*
X137642493Y-132678133D01*
X137708636Y-132766490D01*
X137733447Y-132833010D01*
X137718356Y-132902384D01*
X137708637Y-132917507D01*
X137571788Y-133100317D01*
X137443834Y-133334647D01*
X137350529Y-133584810D01*
X137350529Y-133584811D01*
X137293779Y-133845687D01*
X137274732Y-134112000D01*
X137293779Y-134378312D01*
X137350529Y-134639188D01*
X137350529Y-134639189D01*
X137443834Y-134889352D01*
X137471637Y-134940269D01*
X137571789Y-135123684D01*
X137627363Y-135197922D01*
X137708636Y-135306491D01*
X137733447Y-135373012D01*
X137718355Y-135442386D01*
X137708636Y-135457509D01*
X137571789Y-135640316D01*
X137443834Y-135874647D01*
X137350529Y-136124810D01*
X137350529Y-136124811D01*
X137293779Y-136385687D01*
X137274732Y-136651999D01*
X137293779Y-136918312D01*
X137350529Y-137179188D01*
X137350529Y-137179189D01*
X137443832Y-137429346D01*
X137443837Y-137429357D01*
X137517426Y-137564128D01*
X137532517Y-137633502D01*
X137507705Y-137700022D01*
X137504239Y-137704444D01*
X137446722Y-137774529D01*
X137446721Y-137774531D01*
X137352334Y-137951116D01*
X137352332Y-137951122D01*
X137294206Y-138142736D01*
X137294206Y-138142739D01*
X137279500Y-138292057D01*
X137279500Y-140091942D01*
X137294206Y-140241260D01*
X137294206Y-140241263D01*
X137352332Y-140432877D01*
X137352334Y-140432883D01*
X137381243Y-140486967D01*
X137446722Y-140609469D01*
X137573748Y-140764252D01*
X137728531Y-140891278D01*
X137905120Y-140985667D01*
X138096731Y-141043792D01*
X138096736Y-141043792D01*
X138096738Y-141043793D01*
X138206069Y-141054560D01*
X138246066Y-141058500D01*
X138246075Y-141058500D01*
X140045925Y-141058500D01*
X140045934Y-141058500D01*
X140143179Y-141048922D01*
X140195260Y-141043793D01*
X140195263Y-141043793D01*
X140195264Y-141043792D01*
X140195269Y-141043792D01*
X140386880Y-140985667D01*
X140563469Y-140891278D01*
X140718252Y-140764252D01*
X140845278Y-140609469D01*
X140939667Y-140432880D01*
X140997792Y-140241269D01*
X141012500Y-140091934D01*
X141012500Y-138292066D01*
X140997793Y-138142739D01*
X140997793Y-138142736D01*
X140997792Y-138142733D01*
X140997792Y-138142731D01*
X140939667Y-137951120D01*
X140845278Y-137774531D01*
X140787759Y-137704444D01*
X140760007Y-137639097D01*
X140771989Y-137569119D01*
X140774572Y-137564128D01*
X140848165Y-137429353D01*
X140941468Y-137179197D01*
X140998221Y-136918309D01*
X141017268Y-136652000D01*
X140998221Y-136385691D01*
X140945644Y-136144000D01*
X140941470Y-136124811D01*
X140941470Y-136124810D01*
X140941468Y-136124806D01*
X140941468Y-136124803D01*
X140848165Y-135874647D01*
X140720211Y-135640316D01*
X140583362Y-135457508D01*
X140558552Y-135390989D01*
X140573643Y-135321615D01*
X140583363Y-135306491D01*
X140720211Y-135123684D01*
X140848165Y-134889353D01*
X140941468Y-134639197D01*
X140998221Y-134378309D01*
X141017268Y-134112000D01*
X140998221Y-133845691D01*
X140941468Y-133584803D01*
X140848165Y-133334647D01*
X140720211Y-133100316D01*
X140583362Y-132917508D01*
X140558552Y-132850989D01*
X140573643Y-132781615D01*
X140583363Y-132766491D01*
X140583364Y-132766490D01*
X140720211Y-132583684D01*
X140848165Y-132349353D01*
X140941468Y-132099197D01*
X140998221Y-131838309D01*
X141017268Y-131572000D01*
X140998221Y-131305691D01*
X140941468Y-131044803D01*
X140848165Y-130794647D01*
X140720211Y-130560316D01*
X140618084Y-130423890D01*
X140583363Y-130377508D01*
X140558552Y-130310988D01*
X140573644Y-130241613D01*
X140583357Y-130226498D01*
X140720211Y-130043684D01*
X140848165Y-129809353D01*
X140941468Y-129559197D01*
X140998221Y-129298309D01*
X141017268Y-129032000D01*
X140998221Y-128765691D01*
X140941468Y-128504803D01*
X140848165Y-128254647D01*
X140720211Y-128020316D01*
X140632220Y-127902774D01*
X140583363Y-127837508D01*
X140558552Y-127770988D01*
X140573644Y-127701613D01*
X140583357Y-127686498D01*
X140720211Y-127503684D01*
X140848165Y-127269353D01*
X140941468Y-127019197D01*
X140998221Y-126758309D01*
X141017268Y-126492000D01*
X140998221Y-126225691D01*
X140941468Y-125964803D01*
X140848165Y-125714647D01*
X140720211Y-125480316D01*
X140583362Y-125297507D01*
X140558552Y-125230989D01*
X140573643Y-125161615D01*
X140583363Y-125146491D01*
X140583364Y-125146490D01*
X140720211Y-124963684D01*
X140848165Y-124729353D01*
X140941468Y-124479197D01*
X140998221Y-124218309D01*
X141017268Y-123952000D01*
X140998221Y-123685691D01*
X140941468Y-123424803D01*
X140848165Y-123174647D01*
X140720211Y-122940316D01*
X140583362Y-122757508D01*
X140558552Y-122690989D01*
X140573643Y-122621615D01*
X140583363Y-122606491D01*
X140583364Y-122606490D01*
X140720211Y-122423684D01*
X140848165Y-122189353D01*
X140941468Y-121939197D01*
X140998221Y-121678309D01*
X141017268Y-121412000D01*
X140998221Y-121145691D01*
X140941468Y-120884803D01*
X140848165Y-120634647D01*
X140720211Y-120400316D01*
X140583362Y-120217508D01*
X140558552Y-120150989D01*
X140573643Y-120081615D01*
X140583363Y-120066491D01*
X140720211Y-119883684D01*
X140848165Y-119649353D01*
X140941468Y-119399197D01*
X140998221Y-119138309D01*
X141017268Y-118872000D01*
X140998221Y-118605691D01*
X140941468Y-118344803D01*
X140848165Y-118094647D01*
X140720211Y-117860316D01*
X140583362Y-117677507D01*
X140558552Y-117610989D01*
X140573643Y-117541615D01*
X140583363Y-117526491D01*
X140583364Y-117526490D01*
X140720211Y-117343684D01*
X140848165Y-117109353D01*
X140941468Y-116859197D01*
X140998221Y-116598309D01*
X141017268Y-116332000D01*
X140998221Y-116065691D01*
X140941468Y-115804803D01*
X140848165Y-115554647D01*
X140720211Y-115320316D01*
X140560210Y-115106580D01*
X140371420Y-114917790D01*
X140371417Y-114917788D01*
X140371414Y-114917785D01*
X140284963Y-114853069D01*
X140157684Y-114757789D01*
X140029728Y-114687920D01*
X139923352Y-114629834D01*
X139673189Y-114536529D01*
X139412311Y-114479779D01*
X139412313Y-114479779D01*
X139199261Y-114464541D01*
X139146000Y-114460732D01*
X139145999Y-114460732D01*
X138879687Y-114479779D01*
X138618811Y-114536529D01*
X138618810Y-114536529D01*
X138368647Y-114629834D01*
X138134316Y-114757789D01*
X137920585Y-114917785D01*
X137920576Y-114917793D01*
X137731793Y-115106576D01*
X137731785Y-115106585D01*
X137571789Y-115320316D01*
X137443834Y-115554647D01*
X137350529Y-115804810D01*
X137350529Y-115804811D01*
X137293779Y-116065687D01*
X137274732Y-116332000D01*
X137293779Y-116598312D01*
X137350529Y-116859188D01*
X137350529Y-116859189D01*
X137443834Y-117109352D01*
X137443835Y-117109353D01*
X137571789Y-117343684D01*
X137637657Y-117431673D01*
X137708636Y-117526491D01*
X137733447Y-117593012D01*
X137718355Y-117662386D01*
X137708636Y-117677509D01*
X137571789Y-117860316D01*
X137443834Y-118094647D01*
X137350529Y-118344810D01*
X137350529Y-118344811D01*
X137293779Y-118605687D01*
X137274732Y-118871999D01*
X137293779Y-119138312D01*
X137350529Y-119399188D01*
X137350529Y-119399189D01*
X137443834Y-119649352D01*
X137443835Y-119649353D01*
X137571789Y-119883684D01*
X137637657Y-119971673D01*
X137708636Y-120066491D01*
X137733447Y-120133012D01*
X137718355Y-120202386D01*
X137708636Y-120217509D01*
X137571789Y-120400316D01*
X137443834Y-120634647D01*
X137350529Y-120884810D01*
X137350529Y-120884811D01*
X137293779Y-121145687D01*
X137274732Y-121412000D01*
X137293779Y-121678312D01*
X137350529Y-121939188D01*
X137350529Y-121939189D01*
X137443834Y-122189352D01*
X137443835Y-122189353D01*
X137571789Y-122423684D01*
X137698782Y-122593327D01*
X137708636Y-122606490D01*
X137733447Y-122673010D01*
X137718356Y-122742384D01*
X137708637Y-122757507D01*
X137571788Y-122940317D01*
X137443834Y-123174647D01*
X137350529Y-123424810D01*
X137350529Y-123424811D01*
X137293779Y-123685687D01*
X137274732Y-123951999D01*
X137293779Y-124218312D01*
X137350529Y-124479188D01*
X137350529Y-124479189D01*
X137443834Y-124729352D01*
X137443835Y-124729353D01*
X137571789Y-124963684D01*
X137637657Y-125051673D01*
X137708636Y-125146491D01*
X137733447Y-125213012D01*
X137718355Y-125282386D01*
X137708636Y-125297509D01*
X137571789Y-125480316D01*
X137443834Y-125714647D01*
X137350529Y-125964810D01*
X137350529Y-125964811D01*
X137293779Y-126225687D01*
X137274732Y-126491999D01*
X137293779Y-126758312D01*
X137350529Y-127019188D01*
X137350529Y-127019189D01*
X137443834Y-127269352D01*
X137443835Y-127269353D01*
X137571789Y-127503684D01*
X137609020Y-127553419D01*
X137633831Y-127619938D01*
X137618740Y-127689312D01*
X137568538Y-127739514D01*
X137551247Y-127747328D01*
X137523054Y-127757590D01*
X137517813Y-127759241D01*
X137503650Y-127763036D01*
X137464004Y-127773660D01*
X137463994Y-127773664D01*
X137413511Y-127797205D01*
X137408431Y-127799309D01*
X137356078Y-127818363D01*
X137356072Y-127818367D01*
X137307813Y-127846229D01*
X137302937Y-127848767D01*
X137252453Y-127872307D01*
X137252451Y-127872309D01*
X137206817Y-127904261D01*
X137202183Y-127907213D01*
X137153934Y-127935070D01*
X137153925Y-127935077D01*
X137111238Y-127970894D01*
X137106879Y-127974238D01*
X137061246Y-128006192D01*
X137061245Y-128006193D01*
X136960378Y-128107058D01*
X136960374Y-128107064D01*
X131080444Y-133986995D01*
X131018132Y-134021021D01*
X130991349Y-134023900D01*
X130824957Y-134023900D01*
X130675639Y-134038606D01*
X130675636Y-134038606D01*
X130484022Y-134096732D01*
X130484016Y-134096734D01*
X130307433Y-134191120D01*
X130152648Y-134318148D01*
X130025620Y-134472933D01*
X129931234Y-134649516D01*
X129931232Y-134649522D01*
X129873106Y-134841136D01*
X129873106Y-134841139D01*
X129858400Y-134990457D01*
X129858400Y-135156847D01*
X129838398Y-135224968D01*
X129821496Y-135245942D01*
X129739190Y-135328248D01*
X129707237Y-135373882D01*
X129703891Y-135378243D01*
X129668076Y-135420926D01*
X129640215Y-135469181D01*
X129637262Y-135473817D01*
X129605309Y-135519450D01*
X129581765Y-135569939D01*
X129579228Y-135574813D01*
X129551365Y-135623074D01*
X129532308Y-135675433D01*
X129530204Y-135680511D01*
X129506660Y-135731000D01*
X129506659Y-135731003D01*
X129492240Y-135784818D01*
X129490588Y-135790059D01*
X129471533Y-135842416D01*
X129461857Y-135897284D01*
X129460667Y-135902649D01*
X129446247Y-135956466D01*
X129441391Y-136011971D01*
X129440674Y-136017420D01*
X129431000Y-136072289D01*
X129431000Y-138924248D01*
X129410998Y-138992369D01*
X129357342Y-139038862D01*
X129287068Y-139048966D01*
X129222488Y-139019472D01*
X129215905Y-139013343D01*
X129084105Y-138881543D01*
X129084074Y-138881514D01*
X126617005Y-136414444D01*
X126582979Y-136352132D01*
X126580100Y-136325349D01*
X126580100Y-135997275D01*
X126580099Y-135997257D01*
X126565393Y-135847939D01*
X126565393Y-135847936D01*
X126565392Y-135847933D01*
X126565392Y-135847931D01*
X126507267Y-135656320D01*
X126412878Y-135479731D01*
X126285852Y-135324948D01*
X126131069Y-135197922D01*
X126131067Y-135197921D01*
X126131066Y-135197920D01*
X125963439Y-135108321D01*
X125912791Y-135058568D01*
X125897081Y-134989332D01*
X125921297Y-134922593D01*
X125963437Y-134886079D01*
X126131069Y-134796478D01*
X126285852Y-134669452D01*
X126412878Y-134514669D01*
X126507267Y-134338080D01*
X126565392Y-134146469D01*
X126570291Y-134096733D01*
X126580099Y-133997142D01*
X126580100Y-133997134D01*
X126580100Y-133195666D01*
X126565393Y-133046339D01*
X126565393Y-133046336D01*
X126565392Y-133046333D01*
X126565392Y-133046331D01*
X126507267Y-132854720D01*
X126500467Y-132841999D01*
X126412879Y-132678133D01*
X126412878Y-132678131D01*
X126285852Y-132523348D01*
X126131069Y-132396322D01*
X126131067Y-132396321D01*
X126131066Y-132396320D01*
X125954483Y-132301934D01*
X125954468Y-132301928D01*
X125772327Y-132246676D01*
X125712946Y-132207761D01*
X125694708Y-132179351D01*
X125691490Y-132172450D01*
X125691489Y-132172449D01*
X125688713Y-132168484D01*
X125659528Y-132126804D01*
X125656597Y-132122203D01*
X125628724Y-132073927D01*
X125592908Y-132031243D01*
X125589561Y-132026881D01*
X125557613Y-131981254D01*
X125557609Y-131981249D01*
X125557607Y-131981246D01*
X125392554Y-131816193D01*
X125374831Y-131798470D01*
X125374830Y-131798470D01*
X125374828Y-131798468D01*
X121623894Y-128047533D01*
X121623893Y-128047532D01*
X121596677Y-128020316D01*
X121582558Y-128006196D01*
X121582556Y-128006194D01*
X121536913Y-127974235D01*
X121532550Y-127970887D01*
X121489874Y-127935077D01*
X121489873Y-127935076D01*
X121441613Y-127907213D01*
X121441605Y-127907208D01*
X121436982Y-127904262D01*
X121412928Y-127887419D01*
X121391353Y-127872312D01*
X121391350Y-127872311D01*
X121391348Y-127872309D01*
X121340860Y-127848765D01*
X121335984Y-127846227D01*
X121287726Y-127818365D01*
X121235364Y-127799307D01*
X121230285Y-127797203D01*
X121179805Y-127773664D01*
X121179801Y-127773662D01*
X121179798Y-127773661D01*
X121179796Y-127773660D01*
X121179790Y-127773658D01*
X121125970Y-127759237D01*
X121120728Y-127757584D01*
X121068383Y-127738533D01*
X121068384Y-127738533D01*
X121013514Y-127728857D01*
X121008148Y-127727667D01*
X120954332Y-127713247D01*
X120898827Y-127708391D01*
X120893378Y-127707673D01*
X120838511Y-127698000D01*
X120838510Y-127698000D01*
X120780047Y-127698000D01*
X117966083Y-127698000D01*
X117897962Y-127677998D01*
X117851469Y-127624342D01*
X117841365Y-127554068D01*
X117858580Y-127507921D01*
X117858054Y-127507634D01*
X117860053Y-127503972D01*
X117860092Y-127503869D01*
X117860204Y-127503693D01*
X117860211Y-127503684D01*
X117988165Y-127269353D01*
X118081468Y-127019197D01*
X118138221Y-126758309D01*
X118157268Y-126492000D01*
X118138221Y-126225691D01*
X118081468Y-125964803D01*
X117988165Y-125714647D01*
X117860211Y-125480316D01*
X117723362Y-125297507D01*
X117698552Y-125230989D01*
X117713643Y-125161615D01*
X117723363Y-125146491D01*
X117723364Y-125146490D01*
X117860211Y-124963684D01*
X117988165Y-124729353D01*
X118081468Y-124479197D01*
X118138221Y-124218309D01*
X118157268Y-123952000D01*
X118138221Y-123685691D01*
X118081468Y-123424803D01*
X117988165Y-123174647D01*
X117860211Y-122940316D01*
X117772220Y-122822774D01*
X117723363Y-122757508D01*
X117698552Y-122690988D01*
X117713644Y-122621613D01*
X117723357Y-122606498D01*
X117860211Y-122423684D01*
X117988165Y-122189353D01*
X118081468Y-121939197D01*
X118138221Y-121678309D01*
X118157268Y-121412000D01*
X118138221Y-121145691D01*
X118081468Y-120884803D01*
X117988165Y-120634647D01*
X117860211Y-120400316D01*
X117723362Y-120217508D01*
X117698552Y-120150989D01*
X117713643Y-120081615D01*
X117723363Y-120066491D01*
X117860211Y-119883684D01*
X117988165Y-119649353D01*
X118081468Y-119399197D01*
X118138221Y-119138309D01*
X118157268Y-118872000D01*
X118138221Y-118605691D01*
X118081468Y-118344803D01*
X117988165Y-118094647D01*
X117860211Y-117860316D01*
X117723362Y-117677507D01*
X117698552Y-117610989D01*
X117713643Y-117541615D01*
X117723363Y-117526491D01*
X117723364Y-117526490D01*
X117860211Y-117343684D01*
X117988165Y-117109353D01*
X118081468Y-116859197D01*
X118138221Y-116598309D01*
X118157268Y-116332000D01*
X118138221Y-116065691D01*
X118081468Y-115804803D01*
X117988165Y-115554647D01*
X117860211Y-115320316D01*
X117700210Y-115106580D01*
X117511420Y-114917790D01*
X117511417Y-114917788D01*
X117511414Y-114917785D01*
X117424963Y-114853069D01*
X117297684Y-114757789D01*
X117169728Y-114687920D01*
X117063352Y-114629834D01*
X116813189Y-114536529D01*
X116552311Y-114479779D01*
X116552313Y-114479779D01*
X116286000Y-114460732D01*
X116019687Y-114479779D01*
X115758811Y-114536529D01*
X115758810Y-114536529D01*
X115508647Y-114629834D01*
X115274316Y-114757789D01*
X115060585Y-114917785D01*
X115060576Y-114917793D01*
X114871793Y-115106576D01*
X114871785Y-115106585D01*
X114711789Y-115320316D01*
X114583834Y-115554647D01*
X114490529Y-115804810D01*
X114490529Y-115804811D01*
X114433779Y-116065687D01*
X114414732Y-116332000D01*
X114433779Y-116598312D01*
X114490529Y-116859188D01*
X114490529Y-116859189D01*
X114583834Y-117109352D01*
X114583835Y-117109353D01*
X114711789Y-117343684D01*
X114838782Y-117513327D01*
X114848636Y-117526490D01*
X114873447Y-117593010D01*
X114858356Y-117662384D01*
X114848637Y-117677507D01*
X114711788Y-117860317D01*
X114583834Y-118094647D01*
X114490529Y-118344810D01*
X114490529Y-118344811D01*
X114433779Y-118605687D01*
X114414732Y-118871999D01*
X114433779Y-119138312D01*
X114490529Y-119399188D01*
X114490529Y-119399189D01*
X114583834Y-119649352D01*
X114583835Y-119649353D01*
X114711789Y-119883684D01*
X114777657Y-119971673D01*
X114848636Y-120066491D01*
X114873447Y-120133012D01*
X114858355Y-120202386D01*
X114848636Y-120217509D01*
X114711789Y-120400316D01*
X114583834Y-120634647D01*
X114490529Y-120884810D01*
X114490529Y-120884811D01*
X114433779Y-121145687D01*
X114414732Y-121412000D01*
X114433779Y-121678312D01*
X114490529Y-121939188D01*
X114490529Y-121939189D01*
X114583834Y-122189352D01*
X114583835Y-122189353D01*
X114711789Y-122423684D01*
X114777657Y-122511673D01*
X114848636Y-122606491D01*
X114873447Y-122673012D01*
X114858355Y-122742386D01*
X114848636Y-122757509D01*
X114711789Y-122940316D01*
X114583834Y-123174647D01*
X114490529Y-123424810D01*
X114490529Y-123424811D01*
X114433779Y-123685687D01*
X114414732Y-123951999D01*
X114433779Y-124218312D01*
X114490529Y-124479188D01*
X114490529Y-124479189D01*
X114583834Y-124729352D01*
X114583835Y-124729353D01*
X114711789Y-124963684D01*
X114838782Y-125133327D01*
X114848636Y-125146490D01*
X114873447Y-125213010D01*
X114858356Y-125282384D01*
X114848637Y-125297507D01*
X114711788Y-125480317D01*
X114583834Y-125714647D01*
X114490529Y-125964810D01*
X114490529Y-125964811D01*
X114433779Y-126225687D01*
X114414732Y-126491999D01*
X114433779Y-126758312D01*
X114490529Y-127019188D01*
X114490529Y-127019189D01*
X114583834Y-127269352D01*
X114583835Y-127269353D01*
X114711789Y-127503684D01*
X114749506Y-127554068D01*
X114848636Y-127686491D01*
X114873447Y-127753012D01*
X114858355Y-127822386D01*
X114848636Y-127837509D01*
X114711789Y-128020316D01*
X114583834Y-128254647D01*
X114490529Y-128504810D01*
X114490529Y-128504811D01*
X114433779Y-128765687D01*
X114414732Y-129032000D01*
X114433779Y-129298312D01*
X114490529Y-129559188D01*
X114490529Y-129559189D01*
X114583834Y-129809352D01*
X114583835Y-129809353D01*
X114711789Y-130043684D01*
X114794843Y-130154631D01*
X114848636Y-130226490D01*
X114873447Y-130293010D01*
X114858356Y-130362384D01*
X114848637Y-130377507D01*
X114711788Y-130560317D01*
X114583834Y-130794647D01*
X114490529Y-131044810D01*
X114490529Y-131044811D01*
X114433779Y-131305687D01*
X114414732Y-131571999D01*
X114433779Y-131838312D01*
X114490529Y-132099188D01*
X114490529Y-132099189D01*
X114583834Y-132349352D01*
X114583835Y-132349353D01*
X114711789Y-132583684D01*
X114782493Y-132678133D01*
X114848636Y-132766490D01*
X114873447Y-132833010D01*
X114858356Y-132902384D01*
X114848637Y-132917507D01*
X114711788Y-133100317D01*
X114583834Y-133334647D01*
X114490529Y-133584810D01*
X114490529Y-133584811D01*
X114433779Y-133845687D01*
X114414732Y-134112000D01*
X114433779Y-134378312D01*
X114490529Y-134639188D01*
X114490529Y-134639189D01*
X114583834Y-134889352D01*
X114611637Y-134940269D01*
X114711789Y-135123684D01*
X114767363Y-135197922D01*
X114848636Y-135306491D01*
X114873447Y-135373012D01*
X114858355Y-135442386D01*
X114848636Y-135457509D01*
X114711789Y-135640316D01*
X114583834Y-135874647D01*
X114490529Y-136124810D01*
X114490529Y-136124811D01*
X114433779Y-136385687D01*
X114414732Y-136651999D01*
X107008389Y-136651999D01*
X107001777Y-136475289D01*
X106942987Y-135953513D01*
X106845369Y-135437589D01*
X106709468Y-134930403D01*
X106678232Y-134841136D01*
X106536049Y-134434799D01*
X106536048Y-134434798D01*
X106536046Y-134434791D01*
X106326072Y-133953524D01*
X106326069Y-133953519D01*
X106326062Y-133953503D01*
X106131200Y-133584810D01*
X106080719Y-133489295D01*
X106080709Y-133489279D01*
X105801366Y-133044706D01*
X105801354Y-133044689D01*
X105489561Y-132622224D01*
X105489548Y-132622208D01*
X105160666Y-132240041D01*
X105147058Y-132224228D01*
X105147045Y-132224215D01*
X105147034Y-132224203D01*
X104775796Y-131852965D01*
X104775784Y-131852954D01*
X104775772Y-131852942D01*
X104629780Y-131727306D01*
X104377791Y-131510451D01*
X104377775Y-131510438D01*
X103955310Y-131198645D01*
X103955293Y-131198633D01*
X103510720Y-130919290D01*
X103510712Y-130919285D01*
X103510705Y-130919281D01*
X103465089Y-130895172D01*
X103046496Y-130673937D01*
X103046470Y-130673925D01*
X102786076Y-130560317D01*
X102565209Y-130463954D01*
X102565202Y-130463951D01*
X102565200Y-130463950D01*
X102069605Y-130290534D01*
X101562412Y-130154631D01*
X101102575Y-130067625D01*
X101039361Y-130035308D01*
X101003653Y-129973944D01*
X101000000Y-129943822D01*
X101000000Y-109477769D01*
X101020002Y-109409648D01*
X101073658Y-109363155D01*
X101113647Y-109352377D01*
X101229758Y-109340941D01*
X101838052Y-109240512D01*
X101838062Y-109240509D01*
X101838066Y-109240509D01*
X102438479Y-109100512D01*
X102585970Y-109055770D01*
X103028456Y-108921544D01*
X103605469Y-108704372D01*
X104167042Y-108449926D01*
X104710772Y-108159296D01*
X105234329Y-107833728D01*
X105735473Y-107474613D01*
X106212056Y-107083492D01*
X106662038Y-106662038D01*
X107083492Y-106212056D01*
X107474613Y-105735473D01*
X107833728Y-105234329D01*
X108159296Y-104710772D01*
X108449926Y-104167042D01*
X108704372Y-103605469D01*
X108921544Y-103028456D01*
X109100513Y-102438475D01*
X109128931Y-102316592D01*
X109240509Y-101838066D01*
X109240509Y-101838062D01*
X109240512Y-101838052D01*
X109340941Y-101229758D01*
X109340942Y-101229748D01*
X109352377Y-101113650D01*
X109378960Y-101047817D01*
X109436914Y-101006808D01*
X109477770Y-101000000D01*
X129943822Y-101000000D01*
X130011943Y-101020002D01*
G37*
%TD.AperFunction*%
%TD*%
%TA.AperFunction,Conductor*%
%TO.N,Net-(J2-Pin_1)*%
G36*
X56011943Y-101020002D02*
G01*
X56058436Y-101073658D01*
X56067625Y-101102575D01*
X56154631Y-101562412D01*
X56290534Y-102069605D01*
X56463950Y-102565200D01*
X56463951Y-102565202D01*
X56463954Y-102565209D01*
X56593666Y-102862513D01*
X56673925Y-103046470D01*
X56673937Y-103046496D01*
X56919278Y-103510699D01*
X56919290Y-103510720D01*
X57198633Y-103955293D01*
X57198645Y-103955310D01*
X57510438Y-104377775D01*
X57510451Y-104377791D01*
X57779012Y-104689864D01*
X57852942Y-104775772D01*
X57852954Y-104775784D01*
X57852965Y-104775796D01*
X58224203Y-105147034D01*
X58224215Y-105147045D01*
X58224228Y-105147058D01*
X58325638Y-105234328D01*
X58622208Y-105489548D01*
X58622224Y-105489561D01*
X59044689Y-105801354D01*
X59044706Y-105801366D01*
X59489279Y-106080709D01*
X59489295Y-106080719D01*
X59660588Y-106171250D01*
X59953503Y-106326062D01*
X59953519Y-106326069D01*
X59953524Y-106326072D01*
X60434791Y-106536046D01*
X60434798Y-106536048D01*
X60434799Y-106536049D01*
X60930394Y-106709465D01*
X60930403Y-106709468D01*
X61437589Y-106845369D01*
X61953513Y-106942987D01*
X62416497Y-106995152D01*
X62475288Y-107001777D01*
X62494920Y-107002511D01*
X63000000Y-107021410D01*
X63524711Y-107001777D01*
X64046487Y-106942987D01*
X64562411Y-106845369D01*
X65069597Y-106709468D01*
X65565209Y-106536046D01*
X66046476Y-106326072D01*
X66046487Y-106326065D01*
X66046496Y-106326062D01*
X66262204Y-106212056D01*
X66510705Y-106080719D01*
X66955301Y-105801361D01*
X67377778Y-105489559D01*
X67775772Y-105147058D01*
X68147058Y-104775772D01*
X68489559Y-104377778D01*
X68801361Y-103955301D01*
X69080719Y-103510705D01*
X69245710Y-103198527D01*
X69326062Y-103046496D01*
X69326065Y-103046487D01*
X69326072Y-103046476D01*
X69536046Y-102565209D01*
X69709468Y-102069597D01*
X69845369Y-101562411D01*
X69908312Y-101229748D01*
X69932375Y-101102575D01*
X69964692Y-101039361D01*
X70026056Y-101003653D01*
X70056178Y-101000000D01*
X90522230Y-101000000D01*
X90590351Y-101020002D01*
X90636844Y-101073658D01*
X90647623Y-101113650D01*
X90659057Y-101229748D01*
X90659060Y-101229764D01*
X90759490Y-101838066D01*
X90899487Y-102438479D01*
X91078452Y-103028444D01*
X91078454Y-103028452D01*
X91295626Y-103605464D01*
X91550071Y-104167037D01*
X91550074Y-104167042D01*
X91840704Y-104710772D01*
X92166272Y-105234329D01*
X92525387Y-105735473D01*
X92916508Y-106212056D01*
X93337962Y-106662038D01*
X93787944Y-107083492D01*
X94264527Y-107474613D01*
X94765671Y-107833728D01*
X95289228Y-108159296D01*
X95832958Y-108449926D01*
X96394531Y-108704372D01*
X96971544Y-108921544D01*
X97204359Y-108992167D01*
X97561520Y-109100512D01*
X98161933Y-109240509D01*
X98161940Y-109240510D01*
X98161948Y-109240512D01*
X98770242Y-109340941D01*
X98886351Y-109352376D01*
X98952182Y-109378958D01*
X98993192Y-109436912D01*
X99000000Y-109477769D01*
X99000000Y-129943822D01*
X98979998Y-130011943D01*
X98926342Y-130058436D01*
X98897425Y-130067625D01*
X98437587Y-130154631D01*
X97930394Y-130290534D01*
X97434799Y-130463950D01*
X97434796Y-130463952D01*
X96953529Y-130673925D01*
X96953503Y-130673937D01*
X96489300Y-130919278D01*
X96489279Y-130919290D01*
X96044706Y-131198633D01*
X96044689Y-131198645D01*
X95622224Y-131510438D01*
X95622208Y-131510451D01*
X95224239Y-131852932D01*
X95224203Y-131852965D01*
X94852965Y-132224203D01*
X94852932Y-132224239D01*
X94510451Y-132622208D01*
X94510438Y-132622224D01*
X94198645Y-133044689D01*
X94198633Y-133044706D01*
X93919290Y-133489279D01*
X93919278Y-133489300D01*
X93673937Y-133953503D01*
X93673925Y-133953529D01*
X93502056Y-134347459D01*
X93488596Y-134378312D01*
X93463952Y-134434796D01*
X93463950Y-134434799D01*
X93290534Y-134930394D01*
X93154631Y-135437587D01*
X93057013Y-135953512D01*
X92998222Y-136475288D01*
X92978590Y-137000000D01*
X92998222Y-137524711D01*
X93057013Y-138046487D01*
X93154631Y-138562412D01*
X93290534Y-139069605D01*
X93463950Y-139565200D01*
X93463951Y-139565202D01*
X93463954Y-139565209D01*
X93593666Y-139862513D01*
X93673925Y-140046470D01*
X93673937Y-140046496D01*
X93878149Y-140432880D01*
X93915203Y-140502990D01*
X93919278Y-140510699D01*
X93919290Y-140510720D01*
X94198633Y-140955293D01*
X94198645Y-140955310D01*
X94510438Y-141377775D01*
X94510451Y-141377791D01*
X94779012Y-141689864D01*
X94852942Y-141775772D01*
X94852954Y-141775784D01*
X94852965Y-141775796D01*
X95224203Y-142147034D01*
X95224215Y-142147045D01*
X95224228Y-142147058D01*
X95290826Y-142204370D01*
X95622208Y-142489548D01*
X95622224Y-142489561D01*
X96044689Y-142801354D01*
X96044706Y-142801366D01*
X96333475Y-142982811D01*
X96489295Y-143080719D01*
X96660588Y-143171250D01*
X96953503Y-143326062D01*
X96953519Y-143326069D01*
X96953524Y-143326072D01*
X97434791Y-143536046D01*
X97434798Y-143536048D01*
X97434799Y-143536049D01*
X97930394Y-143709465D01*
X97930403Y-143709468D01*
X98437589Y-143845369D01*
X98713953Y-143897659D01*
X98897425Y-143932375D01*
X98960639Y-143964692D01*
X98996347Y-144026056D01*
X99000000Y-144056178D01*
X99000000Y-148874000D01*
X98979998Y-148942121D01*
X98926342Y-148988614D01*
X98874000Y-149000000D01*
X51126000Y-149000000D01*
X51057879Y-148979998D01*
X51011386Y-148926342D01*
X51000000Y-148874000D01*
X51000000Y-136652000D01*
X59042732Y-136652000D01*
X59061779Y-136918312D01*
X59118529Y-137179188D01*
X59118529Y-137179189D01*
X59211832Y-137429346D01*
X59211837Y-137429357D01*
X59285426Y-137564128D01*
X59300517Y-137633502D01*
X59275705Y-137700022D01*
X59272239Y-137704444D01*
X59214722Y-137774529D01*
X59214721Y-137774531D01*
X59120334Y-137951116D01*
X59120332Y-137951122D01*
X59062206Y-138142736D01*
X59062206Y-138142739D01*
X59047500Y-138292057D01*
X59047500Y-140091942D01*
X59062206Y-140241260D01*
X59062206Y-140241263D01*
X59120332Y-140432877D01*
X59120334Y-140432883D01*
X59214720Y-140609466D01*
X59214722Y-140609469D01*
X59341748Y-140764252D01*
X59496531Y-140891278D01*
X59673120Y-140985667D01*
X59864731Y-141043792D01*
X59864736Y-141043792D01*
X59864738Y-141043793D01*
X59974069Y-141054560D01*
X60014066Y-141058500D01*
X60014075Y-141058500D01*
X61813925Y-141058500D01*
X61813934Y-141058500D01*
X61911179Y-141048922D01*
X61963260Y-141043793D01*
X61963263Y-141043793D01*
X61963264Y-141043792D01*
X61963269Y-141043792D01*
X62154880Y-140985667D01*
X62331469Y-140891278D01*
X62486252Y-140764252D01*
X62613278Y-140609469D01*
X62707667Y-140432880D01*
X62765792Y-140241269D01*
X62780500Y-140091934D01*
X62780500Y-138292066D01*
X62766622Y-138151154D01*
X62765793Y-138142739D01*
X62765793Y-138142736D01*
X62765792Y-138142733D01*
X62765792Y-138142731D01*
X62707667Y-137951120D01*
X62613278Y-137774531D01*
X62555759Y-137704444D01*
X62528007Y-137639097D01*
X62539989Y-137569119D01*
X62542572Y-137564128D01*
X62616165Y-137429353D01*
X62709468Y-137179197D01*
X62766221Y-136918309D01*
X62785268Y-136652000D01*
X62766221Y-136385691D01*
X62709468Y-136124803D01*
X62616165Y-135874647D01*
X62488211Y-135640316D01*
X62351362Y-135457508D01*
X62326552Y-135390989D01*
X62341643Y-135321615D01*
X62351363Y-135306491D01*
X62488211Y-135123684D01*
X62616165Y-134889353D01*
X62709468Y-134639197D01*
X62766221Y-134378309D01*
X62785268Y-134112000D01*
X62766221Y-133845691D01*
X62709468Y-133584803D01*
X62616165Y-133334647D01*
X62488211Y-133100316D01*
X62351362Y-132917507D01*
X62326552Y-132850989D01*
X62341643Y-132781615D01*
X62351363Y-132766491D01*
X62351364Y-132766490D01*
X62488211Y-132583684D01*
X62616165Y-132349353D01*
X62709468Y-132099197D01*
X62766221Y-131838309D01*
X62785268Y-131572000D01*
X62766221Y-131305691D01*
X62709468Y-131044803D01*
X62616165Y-130794647D01*
X62488211Y-130560316D01*
X62488208Y-130560312D01*
X62488092Y-130560131D01*
X62488071Y-130560060D01*
X62486054Y-130556366D01*
X62486857Y-130555927D01*
X62468083Y-130492013D01*
X62488078Y-130423890D01*
X62541729Y-130377392D01*
X62594083Y-130366000D01*
X63221049Y-130366000D01*
X63289170Y-130386002D01*
X63310144Y-130402905D01*
X66003936Y-133096697D01*
X66037962Y-133159009D01*
X66032897Y-133229824D01*
X65996430Y-133280877D01*
X65996524Y-133280971D01*
X65995962Y-133281532D01*
X65994783Y-133283184D01*
X65992151Y-133285344D01*
X65865120Y-133440133D01*
X65770734Y-133616716D01*
X65770732Y-133616722D01*
X65712606Y-133808336D01*
X65712606Y-133808339D01*
X65697900Y-133957657D01*
X65697900Y-134759142D01*
X65712606Y-134908460D01*
X65712606Y-134908463D01*
X65770732Y-135100077D01*
X65770734Y-135100083D01*
X65786024Y-135128688D01*
X65865122Y-135276669D01*
X65992148Y-135431452D01*
X66146931Y-135558478D01*
X66146933Y-135558479D01*
X66314560Y-135648078D01*
X66365208Y-135697830D01*
X66380918Y-135767067D01*
X66356702Y-135833806D01*
X66314560Y-135870322D01*
X66146933Y-135959920D01*
X65992148Y-136086948D01*
X65865120Y-136241733D01*
X65770734Y-136418316D01*
X65770732Y-136418322D01*
X65712606Y-136609936D01*
X65712606Y-136609939D01*
X65697900Y-136759257D01*
X65697900Y-137560742D01*
X65712606Y-137710060D01*
X65712606Y-137710063D01*
X65770732Y-137901677D01*
X65770734Y-137901683D01*
X65855357Y-138060000D01*
X65865122Y-138078269D01*
X65992148Y-138233052D01*
X66146931Y-138360078D01*
X66323520Y-138454467D01*
X66515131Y-138512592D01*
X66515136Y-138512592D01*
X66515138Y-138512593D01*
X66624469Y-138523360D01*
X66664466Y-138527300D01*
X66815078Y-138527300D01*
X66883199Y-138547302D01*
X66907974Y-138568175D01*
X66909737Y-138570099D01*
X70149545Y-141809905D01*
X70183570Y-141872217D01*
X70178506Y-141943032D01*
X70135959Y-141999868D01*
X70069439Y-142024679D01*
X70060450Y-142025000D01*
X69469000Y-142025000D01*
X69469000Y-143076325D01*
X69357315Y-143025320D01*
X69250763Y-143010000D01*
X69179237Y-143010000D01*
X69072685Y-143025320D01*
X68961000Y-143076325D01*
X68961000Y-142025000D01*
X68300864Y-142025000D01*
X68264882Y-142027832D01*
X68264869Y-142027834D01*
X68110802Y-142072595D01*
X67972714Y-142154261D01*
X67972707Y-142154266D01*
X67859266Y-142267707D01*
X67859261Y-142267714D01*
X67777595Y-142405802D01*
X67732834Y-142559869D01*
X67732832Y-142559882D01*
X67730000Y-142595863D01*
X67730000Y-143256000D01*
X68783884Y-143256000D01*
X68755507Y-143300156D01*
X68715000Y-143438111D01*
X68715000Y-143581889D01*
X68755507Y-143719844D01*
X68783884Y-143764000D01*
X67730000Y-143764000D01*
X67730000Y-144424136D01*
X67732832Y-144460117D01*
X67732834Y-144460130D01*
X67777595Y-144614197D01*
X67859261Y-144752285D01*
X67859266Y-144752292D01*
X67972707Y-144865733D01*
X67972714Y-144865738D01*
X68110802Y-144947404D01*
X68264869Y-144992165D01*
X68264882Y-144992167D01*
X68300863Y-144994999D01*
X68300865Y-144995000D01*
X68961000Y-144995000D01*
X68961000Y-143943674D01*
X69072685Y-143994680D01*
X69179237Y-144010000D01*
X69250763Y-144010000D01*
X69357315Y-143994680D01*
X69469000Y-143943674D01*
X69469000Y-144995000D01*
X70129135Y-144995000D01*
X70129136Y-144994999D01*
X70165117Y-144992167D01*
X70165130Y-144992165D01*
X70319195Y-144947404D01*
X70382058Y-144910227D01*
X70450874Y-144892767D01*
X70518205Y-144915283D01*
X70528723Y-144923467D01*
X70529575Y-144924205D01*
X70529580Y-144924210D01*
X70743316Y-145084211D01*
X70977647Y-145212165D01*
X71227803Y-145305468D01*
X71227806Y-145305468D01*
X71227810Y-145305470D01*
X71378788Y-145338313D01*
X71488691Y-145362221D01*
X71755000Y-145381268D01*
X72021309Y-145362221D01*
X72282188Y-145305470D01*
X72282189Y-145305470D01*
X72282190Y-145305469D01*
X72282197Y-145305468D01*
X72532353Y-145212165D01*
X72766684Y-145084211D01*
X72949491Y-144947362D01*
X73016011Y-144922552D01*
X73085385Y-144937643D01*
X73100507Y-144947361D01*
X73283316Y-145084211D01*
X73517647Y-145212165D01*
X73767803Y-145305468D01*
X73767806Y-145305468D01*
X73767810Y-145305470D01*
X73918788Y-145338313D01*
X74028691Y-145362221D01*
X74295000Y-145381268D01*
X74561309Y-145362221D01*
X74822188Y-145305470D01*
X74822189Y-145305470D01*
X74822190Y-145305469D01*
X74822197Y-145305468D01*
X75072353Y-145212165D01*
X75306684Y-145084211D01*
X75520420Y-144924210D01*
X75709210Y-144735420D01*
X75869211Y-144521684D01*
X75997165Y-144287353D01*
X76090468Y-144037197D01*
X76147221Y-143776309D01*
X76166268Y-143510000D01*
X76147221Y-143243691D01*
X76111769Y-143080721D01*
X76090470Y-142982811D01*
X76090470Y-142982810D01*
X76090468Y-142982806D01*
X76090468Y-142982803D01*
X75997165Y-142732647D01*
X75869211Y-142498316D01*
X75709210Y-142284580D01*
X75665905Y-142241274D01*
X75631879Y-142178963D01*
X75629000Y-142152180D01*
X75629000Y-138380608D01*
X75649002Y-138312487D01*
X75683244Y-138277036D01*
X75864950Y-138151152D01*
X76026152Y-137989950D01*
X76155979Y-137802554D01*
X76250260Y-137594989D01*
X76275306Y-137495589D01*
X76311345Y-137434423D01*
X76374734Y-137402449D01*
X76445347Y-137409822D01*
X76500764Y-137454200D01*
X76516458Y-137487893D01*
X76516863Y-137487738D01*
X76519095Y-137493555D01*
X76519190Y-137493757D01*
X76519228Y-137493899D01*
X76603687Y-137659658D01*
X76603688Y-137659661D01*
X76720763Y-137804236D01*
X76865338Y-137921311D01*
X76865341Y-137921312D01*
X77031097Y-138005769D01*
X77210789Y-138053917D01*
X77288061Y-138060000D01*
X77508500Y-138060000D01*
X77508500Y-136779000D01*
X78016500Y-136779000D01*
X78016500Y-138060000D01*
X78236939Y-138060000D01*
X78314210Y-138053917D01*
X78493902Y-138005769D01*
X78659658Y-137921312D01*
X78659661Y-137921311D01*
X78804236Y-137804236D01*
X78921311Y-137659661D01*
X78921312Y-137659658D01*
X79005769Y-137493902D01*
X79053917Y-137314210D01*
X79060000Y-137236938D01*
X79060000Y-136779000D01*
X78016500Y-136779000D01*
X77508500Y-136779000D01*
X77508500Y-136397000D01*
X77528502Y-136328879D01*
X77582158Y-136282386D01*
X77634500Y-136271000D01*
X79060000Y-136271000D01*
X79060000Y-135813061D01*
X79053917Y-135735789D01*
X79005769Y-135556097D01*
X78921312Y-135390341D01*
X78921311Y-135390338D01*
X78804236Y-135245763D01*
X78659661Y-135128688D01*
X78659658Y-135128687D01*
X78493902Y-135044229D01*
X78318985Y-134997361D01*
X78258362Y-134960409D01*
X78227341Y-134896549D01*
X78235769Y-134826054D01*
X78262499Y-134786561D01*
X81696650Y-131352409D01*
X81758960Y-131318385D01*
X81829775Y-131323450D01*
X81886611Y-131365997D01*
X81911422Y-131432517D01*
X81911422Y-131450494D01*
X81902732Y-131571999D01*
X81921779Y-131838312D01*
X81978529Y-132099188D01*
X81978529Y-132099189D01*
X82071834Y-132349352D01*
X82112388Y-132423621D01*
X82199789Y-132583684D01*
X82295810Y-132711953D01*
X82336636Y-132766490D01*
X82361447Y-132833010D01*
X82346356Y-132902384D01*
X82336637Y-132917507D01*
X82199788Y-133100317D01*
X82071834Y-133334647D01*
X81978529Y-133584810D01*
X81978529Y-133584811D01*
X81921779Y-133845687D01*
X81902732Y-134112000D01*
X81921779Y-134378312D01*
X81978529Y-134639188D01*
X81978529Y-134639189D01*
X82071834Y-134889352D01*
X82082273Y-134908469D01*
X82199789Y-135123684D01*
X82265657Y-135211673D01*
X82336636Y-135306491D01*
X82361447Y-135373012D01*
X82346355Y-135442386D01*
X82336636Y-135457509D01*
X82199789Y-135640316D01*
X82071834Y-135874647D01*
X81978529Y-136124810D01*
X81978529Y-136124811D01*
X81921779Y-136385687D01*
X81902732Y-136651999D01*
X81921779Y-136918312D01*
X81978529Y-137179188D01*
X81978529Y-137179189D01*
X82071832Y-137429346D01*
X82071837Y-137429357D01*
X82145426Y-137564128D01*
X82160517Y-137633502D01*
X82135705Y-137700022D01*
X82132239Y-137704444D01*
X82074722Y-137774529D01*
X82074721Y-137774531D01*
X81980334Y-137951116D01*
X81980332Y-137951122D01*
X81922206Y-138142736D01*
X81922206Y-138142739D01*
X81907500Y-138292057D01*
X81907500Y-140091942D01*
X81922206Y-140241260D01*
X81922206Y-140241263D01*
X81980332Y-140432877D01*
X81980334Y-140432883D01*
X82074720Y-140609466D01*
X82074722Y-140609469D01*
X82201748Y-140764252D01*
X82356531Y-140891278D01*
X82533120Y-140985667D01*
X82724731Y-141043792D01*
X82724736Y-141043792D01*
X82724738Y-141043793D01*
X82834069Y-141054560D01*
X82874066Y-141058500D01*
X82874075Y-141058500D01*
X84673925Y-141058500D01*
X84673934Y-141058500D01*
X84771179Y-141048922D01*
X84823260Y-141043793D01*
X84823263Y-141043793D01*
X84823264Y-141043792D01*
X84823269Y-141043792D01*
X85014880Y-140985667D01*
X85191469Y-140891278D01*
X85346252Y-140764252D01*
X85473278Y-140609469D01*
X85567667Y-140432880D01*
X85625792Y-140241269D01*
X85640500Y-140091934D01*
X85640500Y-138292066D01*
X85626622Y-138151154D01*
X85625793Y-138142739D01*
X85625793Y-138142736D01*
X85625792Y-138142733D01*
X85625792Y-138142731D01*
X85567667Y-137951120D01*
X85473278Y-137774531D01*
X85415759Y-137704444D01*
X85388007Y-137639097D01*
X85399989Y-137569119D01*
X85402572Y-137564128D01*
X85476165Y-137429353D01*
X85569468Y-137179197D01*
X85626221Y-136918309D01*
X85645268Y-136652000D01*
X85626221Y-136385691D01*
X85569468Y-136124803D01*
X85476165Y-135874647D01*
X85348211Y-135640316D01*
X85211362Y-135457508D01*
X85186552Y-135390989D01*
X85201643Y-135321615D01*
X85211363Y-135306491D01*
X85348211Y-135123684D01*
X85476165Y-134889353D01*
X85569468Y-134639197D01*
X85626221Y-134378309D01*
X85645268Y-134112000D01*
X85626221Y-133845691D01*
X85569468Y-133584803D01*
X85476165Y-133334647D01*
X85348211Y-133100316D01*
X85211362Y-132917507D01*
X85186552Y-132850989D01*
X85201643Y-132781615D01*
X85211363Y-132766491D01*
X85211364Y-132766490D01*
X85348211Y-132583684D01*
X85476165Y-132349353D01*
X85569468Y-132099197D01*
X85626221Y-131838309D01*
X85645268Y-131572000D01*
X85626221Y-131305691D01*
X85569468Y-131044803D01*
X85476165Y-130794647D01*
X85348211Y-130560316D01*
X85246084Y-130423890D01*
X85211363Y-130377508D01*
X85186552Y-130310988D01*
X85201644Y-130241613D01*
X85211357Y-130226498D01*
X85348211Y-130043684D01*
X85476165Y-129809353D01*
X85569468Y-129559197D01*
X85626221Y-129298309D01*
X85645268Y-129032000D01*
X85626221Y-128765691D01*
X85569468Y-128504803D01*
X85476165Y-128254647D01*
X85348211Y-128020316D01*
X85260220Y-127902774D01*
X85211363Y-127837508D01*
X85186552Y-127770988D01*
X85201644Y-127701613D01*
X85211357Y-127686498D01*
X85348211Y-127503684D01*
X85476165Y-127269353D01*
X85569468Y-127019197D01*
X85626221Y-126758309D01*
X85645268Y-126492000D01*
X85626221Y-126225691D01*
X85569468Y-125964803D01*
X85476165Y-125714647D01*
X85348211Y-125480316D01*
X85211362Y-125297508D01*
X85186552Y-125230989D01*
X85201643Y-125161615D01*
X85211363Y-125146491D01*
X85348211Y-124963684D01*
X85476165Y-124729353D01*
X85569468Y-124479197D01*
X85626221Y-124218309D01*
X85645268Y-123952000D01*
X85626221Y-123685691D01*
X85569468Y-123424803D01*
X85476165Y-123174647D01*
X85348211Y-122940316D01*
X85211362Y-122757507D01*
X85186552Y-122690989D01*
X85201643Y-122621615D01*
X85211363Y-122606491D01*
X85211364Y-122606490D01*
X85348211Y-122423684D01*
X85476165Y-122189353D01*
X85569468Y-121939197D01*
X85626221Y-121678309D01*
X85645268Y-121412000D01*
X85626221Y-121145691D01*
X85569468Y-120884803D01*
X85476165Y-120634647D01*
X85348211Y-120400316D01*
X85211362Y-120217508D01*
X85186552Y-120150989D01*
X85201643Y-120081615D01*
X85211363Y-120066491D01*
X85348211Y-119883684D01*
X85476165Y-119649353D01*
X85569468Y-119399197D01*
X85626221Y-119138309D01*
X85645268Y-118872000D01*
X85626221Y-118605691D01*
X85569468Y-118344803D01*
X85476165Y-118094647D01*
X85348211Y-117860316D01*
X85211362Y-117677508D01*
X85186552Y-117610989D01*
X85201643Y-117541615D01*
X85211363Y-117526491D01*
X85211364Y-117526490D01*
X85348211Y-117343684D01*
X85476165Y-117109353D01*
X85569468Y-116859197D01*
X85626221Y-116598309D01*
X85645268Y-116332000D01*
X85626221Y-116065691D01*
X85569468Y-115804803D01*
X85476165Y-115554647D01*
X85348211Y-115320316D01*
X85188210Y-115106580D01*
X84999420Y-114917790D01*
X84999417Y-114917788D01*
X84999414Y-114917785D01*
X84912963Y-114853069D01*
X84785684Y-114757789D01*
X84657728Y-114687920D01*
X84551352Y-114629834D01*
X84301189Y-114536529D01*
X84040311Y-114479779D01*
X84040313Y-114479779D01*
X83827261Y-114464541D01*
X83774000Y-114460732D01*
X83773999Y-114460732D01*
X83507687Y-114479779D01*
X83246811Y-114536529D01*
X83246810Y-114536529D01*
X82996647Y-114629834D01*
X82762316Y-114757789D01*
X82548585Y-114917785D01*
X82548576Y-114917793D01*
X82359793Y-115106576D01*
X82359785Y-115106585D01*
X82199789Y-115320316D01*
X82071834Y-115554647D01*
X81978529Y-115804810D01*
X81978529Y-115804811D01*
X81921779Y-116065687D01*
X81902732Y-116332000D01*
X81921779Y-116598312D01*
X81978529Y-116859188D01*
X81978529Y-116859189D01*
X82071834Y-117109352D01*
X82071835Y-117109353D01*
X82199789Y-117343684D01*
X82326782Y-117513327D01*
X82336636Y-117526490D01*
X82361447Y-117593010D01*
X82346356Y-117662384D01*
X82336637Y-117677507D01*
X82199788Y-117860317D01*
X82071834Y-118094647D01*
X81978529Y-118344810D01*
X81978529Y-118344811D01*
X81921779Y-118605687D01*
X81902732Y-118871999D01*
X81921779Y-119138312D01*
X81978529Y-119399188D01*
X81978529Y-119399189D01*
X82071834Y-119649352D01*
X82071835Y-119649353D01*
X82199789Y-119883684D01*
X82265657Y-119971673D01*
X82336636Y-120066491D01*
X82361447Y-120133012D01*
X82346355Y-120202386D01*
X82336636Y-120217509D01*
X82199789Y-120400316D01*
X82071834Y-120634647D01*
X81978529Y-120884810D01*
X81978529Y-120884811D01*
X81921779Y-121145687D01*
X81902732Y-121412000D01*
X81921779Y-121678312D01*
X81978529Y-121939188D01*
X81978529Y-121939189D01*
X82071834Y-122189352D01*
X82071835Y-122189353D01*
X82199789Y-122423684D01*
X82265657Y-122511673D01*
X82336636Y-122606491D01*
X82361447Y-122673012D01*
X82346355Y-122742386D01*
X82336636Y-122757509D01*
X82199789Y-122940316D01*
X82071834Y-123174647D01*
X81978529Y-123424810D01*
X81978529Y-123424811D01*
X81921779Y-123685687D01*
X81902732Y-123951999D01*
X81921779Y-124218312D01*
X81978529Y-124479188D01*
X81978529Y-124479189D01*
X82071834Y-124729352D01*
X82071835Y-124729353D01*
X82199789Y-124963684D01*
X82265657Y-125051673D01*
X82336636Y-125146491D01*
X82361447Y-125213012D01*
X82346355Y-125282386D01*
X82336636Y-125297509D01*
X82199789Y-125480316D01*
X82071834Y-125714647D01*
X81978529Y-125964810D01*
X81978529Y-125964811D01*
X81921779Y-126225687D01*
X81902732Y-126491999D01*
X81921779Y-126758312D01*
X81978529Y-127019188D01*
X81978529Y-127019189D01*
X82071834Y-127269352D01*
X82199789Y-127503684D01*
X82199908Y-127503869D01*
X82199928Y-127503939D01*
X82201946Y-127507634D01*
X82201142Y-127508072D01*
X82219917Y-127571987D01*
X82199922Y-127640110D01*
X82146271Y-127686608D01*
X82093917Y-127698000D01*
X82013790Y-127698000D01*
X81998543Y-127700688D01*
X81958928Y-127707673D01*
X81953477Y-127708391D01*
X81897972Y-127713247D01*
X81897959Y-127713249D01*
X81844148Y-127727667D01*
X81838783Y-127728857D01*
X81783914Y-127738533D01*
X81731559Y-127757588D01*
X81726316Y-127759241D01*
X81672504Y-127773660D01*
X81672498Y-127773662D01*
X81622007Y-127797206D01*
X81616930Y-127799309D01*
X81577864Y-127813529D01*
X81564573Y-127818367D01*
X81522640Y-127842576D01*
X81516317Y-127846227D01*
X81511442Y-127848764D01*
X81460947Y-127872311D01*
X81415313Y-127904264D01*
X81410677Y-127907218D01*
X81362431Y-127935073D01*
X81362421Y-127935080D01*
X81319743Y-127970891D01*
X81315382Y-127974237D01*
X81269748Y-128006190D01*
X81210682Y-128065256D01*
X74704344Y-134571595D01*
X74642032Y-134605621D01*
X74615249Y-134608500D01*
X74159958Y-134608500D01*
X74026075Y-134619037D01*
X74026071Y-134619037D01*
X74026070Y-134619038D01*
X73805014Y-134674739D01*
X73805005Y-134674742D01*
X73597450Y-134769018D01*
X73410048Y-134898849D01*
X73410039Y-134898857D01*
X73248857Y-135060039D01*
X73248849Y-135060048D01*
X73119018Y-135247450D01*
X73024742Y-135455005D01*
X73024739Y-135455014D01*
X72976092Y-135648078D01*
X72969037Y-135676075D01*
X72968367Y-135684594D01*
X72958499Y-135809961D01*
X72958500Y-137240041D01*
X72960806Y-137269343D01*
X72961000Y-137274288D01*
X72961000Y-140544048D01*
X72940998Y-140612169D01*
X72887342Y-140658662D01*
X72817068Y-140668766D01*
X72752488Y-140639272D01*
X72745905Y-140633143D01*
X72614105Y-140501343D01*
X72614074Y-140501314D01*
X69467005Y-137354244D01*
X69432979Y-137291932D01*
X69430100Y-137265149D01*
X69430100Y-136759275D01*
X69430099Y-136759257D01*
X69415393Y-136609939D01*
X69415393Y-136609936D01*
X69415392Y-136609933D01*
X69415392Y-136609931D01*
X69357267Y-136418320D01*
X69262878Y-136241731D01*
X69135852Y-136086948D01*
X68981069Y-135959922D01*
X68981067Y-135959921D01*
X68981066Y-135959920D01*
X68821531Y-135874647D01*
X68813438Y-135870321D01*
X68762791Y-135820570D01*
X68747081Y-135751333D01*
X68771297Y-135684594D01*
X68813438Y-135648078D01*
X68981069Y-135558478D01*
X69135852Y-135431452D01*
X69262878Y-135276669D01*
X69357267Y-135100080D01*
X69415392Y-134908469D01*
X69416340Y-134898849D01*
X69429126Y-134769021D01*
X69430100Y-134759134D01*
X69430100Y-133957666D01*
X69415393Y-133808339D01*
X69415393Y-133808336D01*
X69415392Y-133808333D01*
X69415392Y-133808331D01*
X69357267Y-133616720D01*
X69262878Y-133440131D01*
X69135852Y-133285348D01*
X68981069Y-133158322D01*
X68981068Y-133158321D01*
X68981065Y-133158319D01*
X68981063Y-133158318D01*
X68964603Y-133149520D01*
X68913955Y-133099767D01*
X68898000Y-133038399D01*
X68898000Y-132653489D01*
X68895928Y-132641741D01*
X68888324Y-132598619D01*
X68887608Y-132593180D01*
X68886777Y-132583683D01*
X68882752Y-132537668D01*
X68868328Y-132483839D01*
X68867143Y-132478497D01*
X68857467Y-132423616D01*
X68838414Y-132371269D01*
X68836760Y-132366023D01*
X68832293Y-132349352D01*
X68822339Y-132312202D01*
X68798784Y-132261690D01*
X68796689Y-132256630D01*
X68777633Y-132204273D01*
X68749772Y-132156017D01*
X68747233Y-132151139D01*
X68723691Y-132100652D01*
X68691728Y-132055006D01*
X68688781Y-132050379D01*
X68660925Y-132002128D01*
X68660923Y-132002125D01*
X68625111Y-131959447D01*
X68621763Y-131955084D01*
X68606656Y-131933510D01*
X68589807Y-131909446D01*
X68442476Y-131762115D01*
X68442473Y-131762110D01*
X64745617Y-128065256D01*
X64745616Y-128065254D01*
X64686555Y-128006194D01*
X64686553Y-128006192D01*
X64640913Y-127974234D01*
X64636552Y-127970888D01*
X64593874Y-127935077D01*
X64593873Y-127935076D01*
X64567020Y-127919572D01*
X64545605Y-127907208D01*
X64540982Y-127904262D01*
X64516928Y-127887419D01*
X64495353Y-127872312D01*
X64495350Y-127872311D01*
X64495348Y-127872309D01*
X64444857Y-127848764D01*
X64439984Y-127846227D01*
X64391726Y-127818365D01*
X64339364Y-127799307D01*
X64334285Y-127797203D01*
X64283805Y-127773664D01*
X64283801Y-127773662D01*
X64283798Y-127773661D01*
X64283796Y-127773660D01*
X64283790Y-127773658D01*
X64229970Y-127759237D01*
X64224728Y-127757584D01*
X64172383Y-127738533D01*
X64172384Y-127738533D01*
X64117514Y-127728857D01*
X64112148Y-127727667D01*
X64058332Y-127713247D01*
X64002827Y-127708391D01*
X63997378Y-127707673D01*
X63942511Y-127698000D01*
X63942510Y-127698000D01*
X63884047Y-127698000D01*
X62594083Y-127698000D01*
X62525962Y-127677998D01*
X62479469Y-127624342D01*
X62469365Y-127554068D01*
X62486580Y-127507921D01*
X62486054Y-127507634D01*
X62488053Y-127503972D01*
X62488092Y-127503869D01*
X62488204Y-127503693D01*
X62488211Y-127503684D01*
X62616165Y-127269353D01*
X62709468Y-127019197D01*
X62766221Y-126758309D01*
X62785268Y-126492000D01*
X62766221Y-126225691D01*
X62709468Y-125964803D01*
X62616165Y-125714647D01*
X62488211Y-125480316D01*
X62351362Y-125297508D01*
X62326552Y-125230989D01*
X62341643Y-125161615D01*
X62351363Y-125146491D01*
X62488211Y-124963684D01*
X62616165Y-124729353D01*
X62709468Y-124479197D01*
X62766221Y-124218309D01*
X62785268Y-123952000D01*
X62766221Y-123685691D01*
X62709468Y-123424803D01*
X62616165Y-123174647D01*
X62488211Y-122940316D01*
X62351362Y-122757507D01*
X62326552Y-122690989D01*
X62341643Y-122621615D01*
X62351363Y-122606491D01*
X62351364Y-122606490D01*
X62488211Y-122423684D01*
X62616165Y-122189353D01*
X62709468Y-121939197D01*
X62766221Y-121678309D01*
X62785268Y-121412000D01*
X62766221Y-121145691D01*
X62709468Y-120884803D01*
X62616165Y-120634647D01*
X62488211Y-120400316D01*
X62351362Y-120217508D01*
X62326552Y-120150989D01*
X62341643Y-120081615D01*
X62351363Y-120066491D01*
X62488211Y-119883684D01*
X62616165Y-119649353D01*
X62709468Y-119399197D01*
X62766221Y-119138309D01*
X62785268Y-118872000D01*
X62766221Y-118605691D01*
X62709468Y-118344803D01*
X62616165Y-118094647D01*
X62488211Y-117860316D01*
X62400220Y-117742774D01*
X62351363Y-117677508D01*
X62326552Y-117610988D01*
X62341644Y-117541613D01*
X62351357Y-117526498D01*
X62488211Y-117343684D01*
X62616165Y-117109353D01*
X62709468Y-116859197D01*
X62766221Y-116598309D01*
X62785268Y-116332000D01*
X62766221Y-116065691D01*
X62709468Y-115804803D01*
X62616165Y-115554647D01*
X62488211Y-115320316D01*
X62328210Y-115106580D01*
X62139420Y-114917790D01*
X62139417Y-114917788D01*
X62139414Y-114917785D01*
X62052963Y-114853069D01*
X61925684Y-114757789D01*
X61797728Y-114687920D01*
X61691352Y-114629834D01*
X61441189Y-114536529D01*
X61180311Y-114479779D01*
X61180313Y-114479779D01*
X60914000Y-114460732D01*
X60647687Y-114479779D01*
X60386811Y-114536529D01*
X60386810Y-114536529D01*
X60136647Y-114629834D01*
X59902316Y-114757789D01*
X59688585Y-114917785D01*
X59688576Y-114917793D01*
X59499793Y-115106576D01*
X59499785Y-115106585D01*
X59339789Y-115320316D01*
X59211834Y-115554647D01*
X59118529Y-115804810D01*
X59118529Y-115804811D01*
X59061779Y-116065687D01*
X59042732Y-116332000D01*
X59061779Y-116598312D01*
X59118529Y-116859188D01*
X59118529Y-116859189D01*
X59211834Y-117109352D01*
X59211835Y-117109353D01*
X59339789Y-117343684D01*
X59466782Y-117513327D01*
X59476636Y-117526490D01*
X59501447Y-117593010D01*
X59486356Y-117662384D01*
X59476637Y-117677507D01*
X59339788Y-117860317D01*
X59211834Y-118094647D01*
X59118529Y-118344810D01*
X59118529Y-118344811D01*
X59061779Y-118605687D01*
X59042732Y-118872000D01*
X59061779Y-119138312D01*
X59118529Y-119399188D01*
X59118529Y-119399189D01*
X59211834Y-119649352D01*
X59211835Y-119649353D01*
X59339789Y-119883684D01*
X59405657Y-119971673D01*
X59476636Y-120066491D01*
X59501447Y-120133012D01*
X59486355Y-120202386D01*
X59476636Y-120217509D01*
X59339789Y-120400316D01*
X59211834Y-120634647D01*
X59118529Y-120884810D01*
X59118529Y-120884811D01*
X59061779Y-121145687D01*
X59042732Y-121411999D01*
X59061779Y-121678312D01*
X59118529Y-121939188D01*
X59118529Y-121939189D01*
X59211834Y-122189352D01*
X59211835Y-122189353D01*
X59339789Y-122423684D01*
X59466782Y-122593327D01*
X59476636Y-122606490D01*
X59501447Y-122673010D01*
X59486356Y-122742384D01*
X59476637Y-122757507D01*
X59339788Y-122940317D01*
X59211834Y-123174647D01*
X59118529Y-123424810D01*
X59118529Y-123424811D01*
X59061779Y-123685687D01*
X59042732Y-123952000D01*
X59061779Y-124218312D01*
X59118529Y-124479188D01*
X59118529Y-124479189D01*
X59211834Y-124729352D01*
X59211835Y-124729353D01*
X59339789Y-124963684D01*
X59405657Y-125051673D01*
X59476636Y-125146491D01*
X59501447Y-125213012D01*
X59486355Y-125282386D01*
X59476636Y-125297509D01*
X59339789Y-125480316D01*
X59211834Y-125714647D01*
X59118529Y-125964810D01*
X59118529Y-125964811D01*
X59061779Y-126225687D01*
X59042732Y-126491999D01*
X59061779Y-126758312D01*
X59118529Y-127019188D01*
X59118529Y-127019189D01*
X59211834Y-127269352D01*
X59211835Y-127269353D01*
X59339789Y-127503684D01*
X59377506Y-127554068D01*
X59476636Y-127686491D01*
X59501447Y-127753012D01*
X59486355Y-127822386D01*
X59476636Y-127837509D01*
X59339789Y-128020316D01*
X59211834Y-128254647D01*
X59118529Y-128504810D01*
X59118529Y-128504811D01*
X59061779Y-128765687D01*
X59042732Y-129032000D01*
X59061779Y-129298312D01*
X59118529Y-129559188D01*
X59118529Y-129559189D01*
X59211834Y-129809352D01*
X59211835Y-129809353D01*
X59339789Y-130043684D01*
X59422843Y-130154631D01*
X59476636Y-130226490D01*
X59501447Y-130293010D01*
X59486356Y-130362384D01*
X59476637Y-130377507D01*
X59339788Y-130560317D01*
X59211834Y-130794647D01*
X59118529Y-131044810D01*
X59118529Y-131044811D01*
X59061779Y-131305687D01*
X59042732Y-131572000D01*
X59061779Y-131838312D01*
X59118529Y-132099188D01*
X59118529Y-132099189D01*
X59211834Y-132349352D01*
X59252388Y-132423621D01*
X59339789Y-132583684D01*
X59435810Y-132711953D01*
X59476636Y-132766490D01*
X59501447Y-132833010D01*
X59486356Y-132902384D01*
X59476637Y-132917507D01*
X59339788Y-133100317D01*
X59211834Y-133334647D01*
X59118529Y-133584810D01*
X59118529Y-133584811D01*
X59061779Y-133845687D01*
X59042732Y-134111999D01*
X59061779Y-134378312D01*
X59118529Y-134639188D01*
X59118529Y-134639189D01*
X59211834Y-134889352D01*
X59222273Y-134908469D01*
X59339789Y-135123684D01*
X59405657Y-135211673D01*
X59476636Y-135306491D01*
X59501447Y-135373012D01*
X59486355Y-135442386D01*
X59476636Y-135457509D01*
X59339789Y-135640316D01*
X59211834Y-135874647D01*
X59118529Y-136124810D01*
X59118529Y-136124811D01*
X59061779Y-136385687D01*
X59042732Y-136652000D01*
X51000000Y-136652000D01*
X51000000Y-101126000D01*
X51020002Y-101057879D01*
X51073658Y-101011386D01*
X51126000Y-101000000D01*
X55943822Y-101000000D01*
X56011943Y-101020002D01*
G37*
%TD.AperFunction*%
%TD*%
M02*
