%TF.GenerationSoftware,KiCad,Pcbnew,7.0.5-0*%
%TF.CreationDate,2023-07-18T13:45:42-04:00*%
%TF.ProjectId,quad_sipm,71756164-5f73-4697-906d-2e6b69636164,rev?*%
%TF.SameCoordinates,Original*%
%TF.FileFunction,Copper,L1,Top*%
%TF.FilePolarity,Positive*%
%FSLAX46Y46*%
G04 Gerber Fmt 4.6, Leading zero omitted, Abs format (unit mm)*
G04 Created by KiCad (PCBNEW 7.0.5-0) date 2023-07-18 13:45:42*
%MOMM*%
%LPD*%
G01*
G04 APERTURE LIST*
%TA.AperFunction,ComponentPad*%
%ADD10R,1.397000X1.397000*%
%TD*%
%TA.AperFunction,ComponentPad*%
%ADD11C,1.397000*%
%TD*%
%TA.AperFunction,ComponentPad*%
%ADD12C,3.962400*%
%TD*%
%TA.AperFunction,ComponentPad*%
%ADD13C,1.320800*%
%TD*%
%TA.AperFunction,Conductor*%
%ADD14C,0.068580*%
%TD*%
G04 APERTURE END LIST*
D10*
%TO.P,U3,1,1*%
%TO.N,/31-*%
X130352800Y-116052600D03*
D11*
%TO.P,U3,2,2*%
%TO.N,/31+*%
X130352800Y-118592600D03*
%TO.P,U3,3,3*%
%TO.N,/30-*%
X127812800Y-116052600D03*
%TO.P,U3,4,4*%
%TO.N,/30+*%
X127812800Y-118592600D03*
%TO.P,U3,5,5*%
%TO.N,/29-*%
X125272800Y-116052600D03*
%TO.P,U3,6,6*%
%TO.N,/29+*%
X125272800Y-118592600D03*
%TO.P,U3,7,7*%
%TO.N,/28-*%
X122732800Y-116052600D03*
%TO.P,U3,8,8*%
%TO.N,/28+*%
X122732800Y-118592600D03*
%TO.P,U3,9,9*%
%TO.N,/27-*%
X120192800Y-116052600D03*
%TO.P,U3,10,10*%
%TO.N,/27+*%
X120192800Y-118592600D03*
%TO.P,U3,11,11*%
%TO.N,/26-*%
X117652800Y-116052600D03*
%TO.P,U3,12,12*%
%TO.N,/26+*%
X117652800Y-118592600D03*
%TO.P,U3,13,13*%
%TO.N,/25-*%
X115112800Y-116052600D03*
%TO.P,U3,14,14*%
%TO.N,/25+*%
X115112800Y-118592600D03*
%TO.P,U3,15,15*%
%TO.N,/24-*%
X112572800Y-116052600D03*
%TO.P,U3,16,16*%
%TO.N,/24+*%
X112572800Y-118592600D03*
D12*
%TO.P,U3,17*%
%TO.N,N/C*%
X136245600Y-117856000D03*
%TO.P,U3,18*%
X106680000Y-117856000D03*
%TD*%
D10*
%TO.P,U4,1,1*%
%TO.N,/15-*%
X135864600Y-83616800D03*
D11*
%TO.P,U4,2,2*%
%TO.N,/15+*%
X138404600Y-83616800D03*
%TO.P,U4,3,3*%
%TO.N,/14-*%
X135864600Y-86156800D03*
%TO.P,U4,4,4*%
%TO.N,/14+*%
X138404600Y-86156800D03*
%TO.P,U4,5,5*%
%TO.N,/13-*%
X135864600Y-88696800D03*
%TO.P,U4,6,6*%
%TO.N,/13+*%
X138404600Y-88696800D03*
%TO.P,U4,7,7*%
%TO.N,/12-*%
X135864600Y-91236800D03*
%TO.P,U4,8,8*%
%TO.N,/12+*%
X138404600Y-91236800D03*
%TO.P,U4,9,9*%
%TO.N,/11-*%
X135864600Y-93776800D03*
%TO.P,U4,10,10*%
%TO.N,/11+*%
X138404600Y-93776800D03*
%TO.P,U4,11,11*%
%TO.N,/10-*%
X135864600Y-96316800D03*
%TO.P,U4,12,12*%
%TO.N,/10+*%
X138404600Y-96316800D03*
%TO.P,U4,13,13*%
%TO.N,/9-*%
X135864600Y-98856800D03*
%TO.P,U4,14,14*%
%TO.N,/9+*%
X138404600Y-98856800D03*
%TO.P,U4,15,15*%
%TO.N,/8-*%
X135864600Y-101396800D03*
%TO.P,U4,16,16*%
%TO.N,/8+*%
X138404600Y-101396800D03*
D12*
%TO.P,U4,17*%
%TO.N,N/C*%
X137668000Y-77724000D03*
%TO.P,U4,18*%
X137668000Y-107289600D03*
%TD*%
%TO.P,U2,18*%
%TO.N,N/C*%
X63906400Y-117856000D03*
%TO.P,U2,17*%
X93472000Y-117856000D03*
D11*
%TO.P,U2,16,16*%
%TO.N,/16+*%
X69799200Y-118592600D03*
%TO.P,U2,15,15*%
%TO.N,/16-*%
X69799200Y-116052600D03*
%TO.P,U2,14,14*%
%TO.N,/17+*%
X72339200Y-118592600D03*
%TO.P,U2,13,13*%
%TO.N,/17-*%
X72339200Y-116052600D03*
%TO.P,U2,12,12*%
%TO.N,/18+*%
X74879200Y-118592600D03*
%TO.P,U2,11,11*%
%TO.N,/18-*%
X74879200Y-116052600D03*
%TO.P,U2,10,10*%
%TO.N,/19+*%
X77419200Y-118592600D03*
%TO.P,U2,9,9*%
%TO.N,/19-*%
X77419200Y-116052600D03*
%TO.P,U2,8,8*%
%TO.N,/20+*%
X79959200Y-118592600D03*
%TO.P,U2,7,7*%
%TO.N,/20-*%
X79959200Y-116052600D03*
%TO.P,U2,6,6*%
%TO.N,/21+*%
X82499200Y-118592600D03*
%TO.P,U2,5,5*%
%TO.N,/21-*%
X82499200Y-116052600D03*
%TO.P,U2,4,4*%
%TO.N,/22+*%
X85039200Y-118592600D03*
%TO.P,U2,3,3*%
%TO.N,/22-*%
X85039200Y-116052600D03*
%TO.P,U2,2,2*%
%TO.N,/23+*%
X87579200Y-118592600D03*
D10*
%TO.P,U2,1,1*%
%TO.N,/23-*%
X87579200Y-116052600D03*
%TD*%
%TO.P,U1,1,1*%
%TO.N,/7-*%
X64287400Y-101396800D03*
D11*
%TO.P,U1,2,2*%
%TO.N,/7+*%
X61747400Y-101396800D03*
%TO.P,U1,3,3*%
%TO.N,/6-*%
X64287400Y-98856800D03*
%TO.P,U1,4,4*%
%TO.N,/6+*%
X61747400Y-98856800D03*
%TO.P,U1,5,5*%
%TO.N,/5-*%
X64287400Y-96316800D03*
%TO.P,U1,6,6*%
%TO.N,/5+*%
X61747400Y-96316800D03*
%TO.P,U1,7,7*%
%TO.N,/4-*%
X64287400Y-93776800D03*
%TO.P,U1,8,8*%
%TO.N,/4+*%
X61747400Y-93776800D03*
%TO.P,U1,9,9*%
%TO.N,/3-*%
X64287400Y-91236800D03*
%TO.P,U1,10,10*%
%TO.N,/3+*%
X61747400Y-91236800D03*
%TO.P,U1,11,11*%
%TO.N,/2-*%
X64287400Y-88696800D03*
%TO.P,U1,12,12*%
%TO.N,/2+*%
X61747400Y-88696800D03*
%TO.P,U1,13,13*%
%TO.N,/1-*%
X64287400Y-86156800D03*
%TO.P,U1,14,14*%
%TO.N,/1+*%
X61747400Y-86156800D03*
%TO.P,U1,15,15*%
%TO.N,/0-*%
X64287400Y-83616800D03*
%TO.P,U1,16,16*%
%TO.N,/0+*%
X61747400Y-83616800D03*
D12*
%TO.P,U1,17*%
%TO.N,N/C*%
X62484000Y-107289600D03*
%TO.P,U1,18*%
X62484000Y-77724000D03*
%TD*%
D13*
%TO.P,J1,1,1*%
%TO.N,/0+*%
X78867000Y-67437000D03*
%TO.P,J1,2,2*%
%TO.N,/16+*%
X78867000Y-63627000D03*
%TO.P,J1,3,3*%
%TO.N,/0-*%
X80137000Y-65532000D03*
%TO.P,J1,4,4*%
%TO.N,/16-*%
X80137000Y-61722000D03*
%TO.P,J1,5,5*%
%TO.N,/1+*%
X81407000Y-67437000D03*
%TO.P,J1,6,6*%
%TO.N,/17+*%
X81407000Y-63627000D03*
%TO.P,J1,7,7*%
%TO.N,/1-*%
X82677000Y-65532000D03*
%TO.P,J1,8,8*%
%TO.N,/17-*%
X82677000Y-61722000D03*
%TO.P,J1,9,9*%
%TO.N,/2+*%
X83947000Y-67437000D03*
%TO.P,J1,10,10*%
%TO.N,/18+*%
X83947000Y-63627000D03*
%TO.P,J1,11,11*%
%TO.N,/2-*%
X85217000Y-65532000D03*
%TO.P,J1,12,12*%
%TO.N,/18-*%
X85217000Y-61722000D03*
%TO.P,J1,13,13*%
%TO.N,/3+*%
X86487000Y-67437000D03*
%TO.P,J1,14,14*%
%TO.N,/19+*%
X86487000Y-63627000D03*
%TO.P,J1,15,15*%
%TO.N,/3-*%
X87757000Y-65532000D03*
%TO.P,J1,16,16*%
%TO.N,/19-*%
X87757000Y-61722000D03*
%TO.P,J1,17,17*%
%TO.N,/4+*%
X89027000Y-67437000D03*
%TO.P,J1,18,18*%
%TO.N,/20+*%
X89027000Y-63627000D03*
%TO.P,J1,19,19*%
%TO.N,/4-*%
X90297000Y-65532000D03*
%TO.P,J1,20,20*%
%TO.N,/20-*%
X90297000Y-61722000D03*
%TO.P,J1,21,21*%
%TO.N,/5+*%
X91567000Y-67437000D03*
%TO.P,J1,22,22*%
%TO.N,/21+*%
X91567000Y-63627000D03*
%TO.P,J1,23,23*%
%TO.N,/5-*%
X92837000Y-65532000D03*
%TO.P,J1,24,24*%
%TO.N,/21-*%
X92837000Y-61722000D03*
%TO.P,J1,25,25*%
%TO.N,/6+*%
X94107000Y-67437000D03*
%TO.P,J1,26,26*%
%TO.N,/22+*%
X94107000Y-63627000D03*
%TO.P,J1,27,27*%
%TO.N,/6-*%
X95377000Y-65532000D03*
%TO.P,J1,28,28*%
%TO.N,/22-*%
X95377000Y-61722000D03*
%TO.P,J1,29,29*%
%TO.N,/7+*%
X96647000Y-67437000D03*
%TO.P,J1,30,30*%
%TO.N,/23+*%
X96647000Y-63627000D03*
%TO.P,J1,31,31*%
%TO.N,/7-*%
X97917000Y-65532000D03*
%TO.P,J1,32,32*%
%TO.N,/23-*%
X97917000Y-61722000D03*
%TO.P,J1,33,33*%
%TO.N,/8+*%
X99187000Y-67437000D03*
%TO.P,J1,34,34*%
%TO.N,/24+*%
X99187000Y-63627000D03*
%TO.P,J1,35,35*%
%TO.N,/8-*%
X100457000Y-65532000D03*
%TO.P,J1,36,36*%
%TO.N,/24-*%
X100457000Y-61722000D03*
%TO.P,J1,37,37*%
%TO.N,/9+*%
X101727000Y-67437000D03*
%TO.P,J1,38,38*%
%TO.N,/25+*%
X101727000Y-63627000D03*
%TO.P,J1,39,39*%
%TO.N,/9-*%
X102997000Y-65532000D03*
%TO.P,J1,40,40*%
%TO.N,/25-*%
X102997000Y-61722000D03*
%TO.P,J1,41,41*%
%TO.N,/10+*%
X104267000Y-67437000D03*
%TO.P,J1,42,42*%
%TO.N,/26+*%
X104267000Y-63627000D03*
%TO.P,J1,43,43*%
%TO.N,/10-*%
X105537000Y-65532000D03*
%TO.P,J1,44,44*%
%TO.N,/26-*%
X105537000Y-61722000D03*
%TO.P,J1,45,45*%
%TO.N,/11+*%
X106807000Y-67437000D03*
%TO.P,J1,46,46*%
%TO.N,/27+*%
X106807000Y-63627000D03*
%TO.P,J1,47,47*%
%TO.N,/11-*%
X108077000Y-65532000D03*
%TO.P,J1,48,48*%
%TO.N,/27-*%
X108077000Y-61722000D03*
%TO.P,J1,49,49*%
%TO.N,/12+*%
X109347000Y-67437000D03*
%TO.P,J1,50,50*%
%TO.N,/28+*%
X109347000Y-63627000D03*
%TO.P,J1,51,51*%
%TO.N,/12-*%
X110617000Y-65532000D03*
%TO.P,J1,52,52*%
%TO.N,/28-*%
X110617000Y-61722000D03*
%TO.P,J1,53,53*%
%TO.N,/13+*%
X111887000Y-67437000D03*
%TO.P,J1,54,54*%
%TO.N,/29+*%
X111887000Y-63627000D03*
%TO.P,J1,55,55*%
%TO.N,/13-*%
X113157000Y-65532000D03*
%TO.P,J1,56,56*%
%TO.N,/29-*%
X113157000Y-61722000D03*
%TO.P,J1,57,57*%
%TO.N,/14+*%
X114427000Y-67437000D03*
%TO.P,J1,58,58*%
%TO.N,/30+*%
X114427000Y-63627000D03*
%TO.P,J1,59,59*%
%TO.N,/14-*%
X115697000Y-65532000D03*
%TO.P,J1,60,60*%
%TO.N,/30-*%
X115697000Y-61722000D03*
%TO.P,J1,61,61*%
%TO.N,/15+*%
X116967000Y-67437000D03*
%TO.P,J1,62,62*%
%TO.N,/31+*%
X116967000Y-63627000D03*
%TO.P,J1,63,63*%
%TO.N,/15-*%
X118237000Y-65532000D03*
%TO.P,J1,64,64*%
%TO.N,/31-*%
X118237000Y-61722000D03*
%TO.P,J1,65,65*%
%TO.N,unconnected-(J1-Pad65)*%
X119507000Y-67437000D03*
%TO.P,J1,66,66*%
%TO.N,unconnected-(J1-Pad66)*%
X119507000Y-63627000D03*
%TO.P,J1,67,67*%
%TO.N,unconnected-(J1-Pad67)*%
X120777000Y-65532000D03*
%TO.P,J1,68,68*%
%TO.N,unconnected-(J1-Pad68)*%
X120777000Y-61722000D03*
%TD*%
D14*
%TO.N,/2+*%
X75692000Y-87884000D02*
X65659000Y-87884000D01*
X83947000Y-79629000D02*
X75692000Y-87884000D01*
X65659000Y-87884000D02*
X65405000Y-87630000D01*
X65405000Y-87630000D02*
X62983250Y-87630000D01*
X83947000Y-67437000D02*
X83947000Y-79629000D01*
X62983250Y-87630000D02*
X61713250Y-88900000D01*
%TO.N,/14+*%
X136931400Y-87630000D02*
X127254000Y-87630000D01*
X127127000Y-87503000D02*
X114427000Y-74803000D01*
X127254000Y-87630000D02*
X127127000Y-87503000D01*
X138404600Y-86156800D02*
X136931400Y-87630000D01*
X114427000Y-74803000D02*
X114427000Y-67437000D01*
%TO.N,/7+*%
X61713250Y-101600000D02*
X62983250Y-100330000D01*
X75803100Y-100472900D02*
X96647000Y-79629000D01*
X66040000Y-100330000D02*
X66182900Y-100472900D01*
X66182900Y-100472900D02*
X75803100Y-100472900D01*
X62983250Y-100330000D02*
X66040000Y-100330000D01*
X96647000Y-79629000D02*
X96647000Y-67437000D01*
%TO.N,/4+*%
X89027000Y-67437000D02*
X89027000Y-79629000D01*
X66311500Y-92981500D02*
X66040000Y-92710000D01*
X75674500Y-92981500D02*
X66311500Y-92981500D01*
X89027000Y-79629000D02*
X75674500Y-92981500D01*
X66040000Y-92710000D02*
X62983250Y-92710000D01*
X62983250Y-92710000D02*
X61713250Y-93980000D01*
%TO.N,/11+*%
X127063500Y-94551500D02*
X106807000Y-74295000D01*
X127127000Y-94615000D02*
X127063500Y-94551500D01*
X138404600Y-93776800D02*
X136931400Y-95250000D01*
X136931400Y-95250000D02*
X134620000Y-95250000D01*
X133985000Y-94615000D02*
X127127000Y-94615000D01*
X134620000Y-95250000D02*
X133985000Y-94615000D01*
%TO.N,/10+*%
X125095000Y-97155000D02*
X104267000Y-76327000D01*
X137471810Y-97249590D02*
X133444590Y-97249590D01*
X138404600Y-96316800D02*
X137471810Y-97249590D01*
X133444590Y-97249590D02*
X133350000Y-97155000D01*
X133350000Y-97155000D02*
X125095000Y-97155000D01*
%TO.N,/12+*%
X136931400Y-92710000D02*
X133985000Y-92710000D01*
X133985000Y-92710000D02*
X133350000Y-92075000D01*
X138404600Y-91236800D02*
X136931400Y-92710000D01*
X133350000Y-92075000D02*
X127298400Y-92075000D01*
X127298400Y-92075000D02*
X109220000Y-73996600D01*
X109220000Y-73996600D02*
X109220000Y-69215000D01*
X109220000Y-69215000D02*
X109347000Y-69088000D01*
X109347000Y-69088000D02*
X109347000Y-67437000D01*
%TO.N,/13+*%
X135112100Y-90312900D02*
X135255000Y-90170000D01*
X127904900Y-90312900D02*
X135112100Y-90312900D01*
X135255000Y-90170000D02*
X136931400Y-90170000D01*
X136931400Y-90170000D02*
X138404600Y-88696800D01*
%TO.N,/15+*%
X128422400Y-84302600D02*
X116967000Y-72847200D01*
X138404600Y-83616800D02*
X136931400Y-85090000D01*
X133985000Y-84455000D02*
X128574800Y-84455000D01*
X128574800Y-84455000D02*
X128422400Y-84302600D01*
X136931400Y-85090000D02*
X134620000Y-85090000D01*
X134620000Y-85090000D02*
X133985000Y-84455000D01*
X116967000Y-72847200D02*
X116967000Y-67437000D01*
%TO.N,/13+*%
X127904900Y-90312900D02*
X111887000Y-74295000D01*
X111887000Y-74295000D02*
X111887000Y-67437000D01*
%TO.N,/11+*%
X106807000Y-74295000D02*
X106807000Y-67437000D01*
%TO.N,/10+*%
X104267000Y-76327000D02*
X104267000Y-67437000D01*
%TO.N,/9+*%
X138404600Y-98856800D02*
X137406100Y-99855300D01*
X137406100Y-99855300D02*
X123731300Y-99855300D01*
X123731300Y-99855300D02*
X101727000Y-77851000D01*
X101727000Y-77851000D02*
X101727000Y-67437000D01*
%TO.N,/8+*%
X138404600Y-101396800D02*
X137406100Y-102395300D01*
X137406100Y-102395300D02*
X124783007Y-102395300D01*
X124783007Y-102395300D02*
X99187000Y-76799293D01*
X99187000Y-76799293D02*
X99187000Y-67437000D01*
%TO.N,/0+*%
X61747400Y-83616800D02*
X63068200Y-82296000D01*
X63068200Y-82296000D02*
X73939400Y-82296000D01*
X73939400Y-82296000D02*
X78867000Y-77368400D01*
X78867000Y-77368400D02*
X78867000Y-67437000D01*
%TO.N,/6+*%
X61713250Y-99060000D02*
X63254750Y-97518500D01*
X63254750Y-97518500D02*
X75709500Y-97518500D01*
X75709500Y-97518500D02*
X94107000Y-79121000D01*
X94107000Y-79121000D02*
X94107000Y-67437000D01*
%TO.N,/5+*%
X61713250Y-96520000D02*
X63254750Y-94978500D01*
X91567000Y-79121000D02*
X91567000Y-67437000D01*
X63254750Y-94978500D02*
X75709500Y-94978500D01*
X75709500Y-94978500D02*
X91567000Y-79121000D01*
%TO.N,/3+*%
X86487000Y-67437000D02*
X86487000Y-79629000D01*
X63254750Y-89898500D02*
X61713250Y-91440000D01*
X86487000Y-79629000D02*
X76217500Y-89898500D01*
X76217500Y-89898500D02*
X63254750Y-89898500D01*
%TO.N,/1+*%
X61713250Y-86360000D02*
X63254750Y-84818500D01*
X63254750Y-84818500D02*
X75709500Y-84818500D01*
X75709500Y-84818500D02*
X81407000Y-79121000D01*
X81407000Y-79121000D02*
X81407000Y-67437000D01*
%TD*%
M02*
