%TF.GenerationSoftware,KiCad,Pcbnew,7.0.5-0*%
%TF.CreationDate,2023-07-18T13:45:43-04:00*%
%TF.ProjectId,quad_sipm,71756164-5f73-4697-906d-2e6b69636164,rev?*%
%TF.SameCoordinates,Original*%
%TF.FileFunction,Legend,Bot*%
%TF.FilePolarity,Positive*%
%FSLAX46Y46*%
G04 Gerber Fmt 4.6, Leading zero omitted, Abs format (unit mm)*
G04 Created by KiCad (PCBNEW 7.0.5-0) date 2023-07-18 13:45:43*
%MOMM*%
%LPD*%
G01*
G04 APERTURE LIST*
%ADD10C,0.150000*%
%ADD11C,0.203200*%
%ADD12C,0.508000*%
G04 APERTURE END LIST*
D10*
X118630458Y-59321819D02*
X118011411Y-59321819D01*
X118011411Y-59321819D02*
X118344744Y-59702771D01*
X118344744Y-59702771D02*
X118201887Y-59702771D01*
X118201887Y-59702771D02*
X118106649Y-59750390D01*
X118106649Y-59750390D02*
X118059030Y-59798009D01*
X118059030Y-59798009D02*
X118011411Y-59893247D01*
X118011411Y-59893247D02*
X118011411Y-60131342D01*
X118011411Y-60131342D02*
X118059030Y-60226580D01*
X118059030Y-60226580D02*
X118106649Y-60274200D01*
X118106649Y-60274200D02*
X118201887Y-60321819D01*
X118201887Y-60321819D02*
X118487601Y-60321819D01*
X118487601Y-60321819D02*
X118582839Y-60274200D01*
X118582839Y-60274200D02*
X118630458Y-60226580D01*
X117059030Y-60321819D02*
X117630458Y-60321819D01*
X117344744Y-60321819D02*
X117344744Y-59321819D01*
X117344744Y-59321819D02*
X117439982Y-59464676D01*
X117439982Y-59464676D02*
X117535220Y-59559914D01*
X117535220Y-59559914D02*
X117630458Y-59607533D01*
X116630458Y-59940866D02*
X115868554Y-59940866D01*
X116995411Y-69465819D02*
X117566839Y-69465819D01*
X117281125Y-69465819D02*
X117281125Y-68465819D01*
X117281125Y-68465819D02*
X117376363Y-68608676D01*
X117376363Y-68608676D02*
X117471601Y-68703914D01*
X117471601Y-68703914D02*
X117566839Y-68751533D01*
X116090649Y-68465819D02*
X116566839Y-68465819D01*
X116566839Y-68465819D02*
X116614458Y-68942009D01*
X116614458Y-68942009D02*
X116566839Y-68894390D01*
X116566839Y-68894390D02*
X116471601Y-68846771D01*
X116471601Y-68846771D02*
X116233506Y-68846771D01*
X116233506Y-68846771D02*
X116138268Y-68894390D01*
X116138268Y-68894390D02*
X116090649Y-68942009D01*
X116090649Y-68942009D02*
X116043030Y-69037247D01*
X116043030Y-69037247D02*
X116043030Y-69275342D01*
X116043030Y-69275342D02*
X116090649Y-69370580D01*
X116090649Y-69370580D02*
X116138268Y-69418200D01*
X116138268Y-69418200D02*
X116233506Y-69465819D01*
X116233506Y-69465819D02*
X116471601Y-69465819D01*
X116471601Y-69465819D02*
X116566839Y-69418200D01*
X116566839Y-69418200D02*
X116614458Y-69370580D01*
X115614458Y-69084866D02*
X114852554Y-69084866D01*
X115233506Y-69465819D02*
X115233506Y-68703914D01*
X77879411Y-61845819D02*
X78450839Y-61845819D01*
X78165125Y-61845819D02*
X78165125Y-60845819D01*
X78165125Y-60845819D02*
X78260363Y-60988676D01*
X78260363Y-60988676D02*
X78355601Y-61083914D01*
X78355601Y-61083914D02*
X78450839Y-61131533D01*
X77022268Y-60845819D02*
X77212744Y-60845819D01*
X77212744Y-60845819D02*
X77307982Y-60893438D01*
X77307982Y-60893438D02*
X77355601Y-60941057D01*
X77355601Y-60941057D02*
X77450839Y-61083914D01*
X77450839Y-61083914D02*
X77498458Y-61274390D01*
X77498458Y-61274390D02*
X77498458Y-61655342D01*
X77498458Y-61655342D02*
X77450839Y-61750580D01*
X77450839Y-61750580D02*
X77403220Y-61798200D01*
X77403220Y-61798200D02*
X77307982Y-61845819D01*
X77307982Y-61845819D02*
X77117506Y-61845819D01*
X77117506Y-61845819D02*
X77022268Y-61798200D01*
X77022268Y-61798200D02*
X76974649Y-61750580D01*
X76974649Y-61750580D02*
X76927030Y-61655342D01*
X76927030Y-61655342D02*
X76927030Y-61417247D01*
X76927030Y-61417247D02*
X76974649Y-61322009D01*
X76974649Y-61322009D02*
X77022268Y-61274390D01*
X77022268Y-61274390D02*
X77117506Y-61226771D01*
X77117506Y-61226771D02*
X77307982Y-61226771D01*
X77307982Y-61226771D02*
X77403220Y-61274390D01*
X77403220Y-61274390D02*
X77450839Y-61322009D01*
X77450839Y-61322009D02*
X77498458Y-61417247D01*
X76498458Y-61464866D02*
X75736554Y-61464866D01*
X76863411Y-63877819D02*
X77434839Y-63877819D01*
X77149125Y-63877819D02*
X77149125Y-62877819D01*
X77149125Y-62877819D02*
X77244363Y-63020676D01*
X77244363Y-63020676D02*
X77339601Y-63115914D01*
X77339601Y-63115914D02*
X77434839Y-63163533D01*
X76006268Y-62877819D02*
X76196744Y-62877819D01*
X76196744Y-62877819D02*
X76291982Y-62925438D01*
X76291982Y-62925438D02*
X76339601Y-62973057D01*
X76339601Y-62973057D02*
X76434839Y-63115914D01*
X76434839Y-63115914D02*
X76482458Y-63306390D01*
X76482458Y-63306390D02*
X76482458Y-63687342D01*
X76482458Y-63687342D02*
X76434839Y-63782580D01*
X76434839Y-63782580D02*
X76387220Y-63830200D01*
X76387220Y-63830200D02*
X76291982Y-63877819D01*
X76291982Y-63877819D02*
X76101506Y-63877819D01*
X76101506Y-63877819D02*
X76006268Y-63830200D01*
X76006268Y-63830200D02*
X75958649Y-63782580D01*
X75958649Y-63782580D02*
X75911030Y-63687342D01*
X75911030Y-63687342D02*
X75911030Y-63449247D01*
X75911030Y-63449247D02*
X75958649Y-63354009D01*
X75958649Y-63354009D02*
X76006268Y-63306390D01*
X76006268Y-63306390D02*
X76101506Y-63258771D01*
X76101506Y-63258771D02*
X76291982Y-63258771D01*
X76291982Y-63258771D02*
X76387220Y-63306390D01*
X76387220Y-63306390D02*
X76434839Y-63354009D01*
X76434839Y-63354009D02*
X76482458Y-63449247D01*
X75482458Y-63496866D02*
X74720554Y-63496866D01*
X75101506Y-63877819D02*
X75101506Y-63115914D01*
X77704744Y-64909819D02*
X77609506Y-64909819D01*
X77609506Y-64909819D02*
X77514268Y-64957438D01*
X77514268Y-64957438D02*
X77466649Y-65005057D01*
X77466649Y-65005057D02*
X77419030Y-65100295D01*
X77419030Y-65100295D02*
X77371411Y-65290771D01*
X77371411Y-65290771D02*
X77371411Y-65528866D01*
X77371411Y-65528866D02*
X77419030Y-65719342D01*
X77419030Y-65719342D02*
X77466649Y-65814580D01*
X77466649Y-65814580D02*
X77514268Y-65862200D01*
X77514268Y-65862200D02*
X77609506Y-65909819D01*
X77609506Y-65909819D02*
X77704744Y-65909819D01*
X77704744Y-65909819D02*
X77799982Y-65862200D01*
X77799982Y-65862200D02*
X77847601Y-65814580D01*
X77847601Y-65814580D02*
X77895220Y-65719342D01*
X77895220Y-65719342D02*
X77942839Y-65528866D01*
X77942839Y-65528866D02*
X77942839Y-65290771D01*
X77942839Y-65290771D02*
X77895220Y-65100295D01*
X77895220Y-65100295D02*
X77847601Y-65005057D01*
X77847601Y-65005057D02*
X77799982Y-64957438D01*
X77799982Y-64957438D02*
X77704744Y-64909819D01*
X76942839Y-65528866D02*
X76180935Y-65528866D01*
X76688744Y-66941819D02*
X76593506Y-66941819D01*
X76593506Y-66941819D02*
X76498268Y-66989438D01*
X76498268Y-66989438D02*
X76450649Y-67037057D01*
X76450649Y-67037057D02*
X76403030Y-67132295D01*
X76403030Y-67132295D02*
X76355411Y-67322771D01*
X76355411Y-67322771D02*
X76355411Y-67560866D01*
X76355411Y-67560866D02*
X76403030Y-67751342D01*
X76403030Y-67751342D02*
X76450649Y-67846580D01*
X76450649Y-67846580D02*
X76498268Y-67894200D01*
X76498268Y-67894200D02*
X76593506Y-67941819D01*
X76593506Y-67941819D02*
X76688744Y-67941819D01*
X76688744Y-67941819D02*
X76783982Y-67894200D01*
X76783982Y-67894200D02*
X76831601Y-67846580D01*
X76831601Y-67846580D02*
X76879220Y-67751342D01*
X76879220Y-67751342D02*
X76926839Y-67560866D01*
X76926839Y-67560866D02*
X76926839Y-67322771D01*
X76926839Y-67322771D02*
X76879220Y-67132295D01*
X76879220Y-67132295D02*
X76831601Y-67037057D01*
X76831601Y-67037057D02*
X76783982Y-66989438D01*
X76783982Y-66989438D02*
X76688744Y-66941819D01*
X75926839Y-67560866D02*
X75164935Y-67560866D01*
X75545887Y-67941819D02*
X75545887Y-67179914D01*
D11*
X122221744Y-100936290D02*
X121949601Y-101027004D01*
X121949601Y-101027004D02*
X121858887Y-101117718D01*
X121858887Y-101117718D02*
X121768173Y-101299147D01*
X121768173Y-101299147D02*
X121768173Y-101571290D01*
X121768173Y-101571290D02*
X121858887Y-101752718D01*
X121858887Y-101752718D02*
X121949601Y-101843433D01*
X121949601Y-101843433D02*
X122131030Y-101934147D01*
X122131030Y-101934147D02*
X122856744Y-101934147D01*
X122856744Y-101934147D02*
X122856744Y-100029147D01*
X122856744Y-100029147D02*
X122221744Y-100029147D01*
X122221744Y-100029147D02*
X122040316Y-100119861D01*
X122040316Y-100119861D02*
X121949601Y-100210575D01*
X121949601Y-100210575D02*
X121858887Y-100392004D01*
X121858887Y-100392004D02*
X121858887Y-100573433D01*
X121858887Y-100573433D02*
X121949601Y-100754861D01*
X121949601Y-100754861D02*
X122040316Y-100845575D01*
X122040316Y-100845575D02*
X122221744Y-100936290D01*
X122221744Y-100936290D02*
X122856744Y-100936290D01*
X120679601Y-101934147D02*
X120861030Y-101843433D01*
X120861030Y-101843433D02*
X120951744Y-101752718D01*
X120951744Y-101752718D02*
X121042458Y-101571290D01*
X121042458Y-101571290D02*
X121042458Y-101027004D01*
X121042458Y-101027004D02*
X120951744Y-100845575D01*
X120951744Y-100845575D02*
X120861030Y-100754861D01*
X120861030Y-100754861D02*
X120679601Y-100664147D01*
X120679601Y-100664147D02*
X120407458Y-100664147D01*
X120407458Y-100664147D02*
X120226030Y-100754861D01*
X120226030Y-100754861D02*
X120135316Y-100845575D01*
X120135316Y-100845575D02*
X120044601Y-101027004D01*
X120044601Y-101027004D02*
X120044601Y-101571290D01*
X120044601Y-101571290D02*
X120135316Y-101752718D01*
X120135316Y-101752718D02*
X120226030Y-101843433D01*
X120226030Y-101843433D02*
X120407458Y-101934147D01*
X120407458Y-101934147D02*
X120679601Y-101934147D01*
X119318887Y-101843433D02*
X119137459Y-101934147D01*
X119137459Y-101934147D02*
X118774602Y-101934147D01*
X118774602Y-101934147D02*
X118593173Y-101843433D01*
X118593173Y-101843433D02*
X118502459Y-101662004D01*
X118502459Y-101662004D02*
X118502459Y-101571290D01*
X118502459Y-101571290D02*
X118593173Y-101389861D01*
X118593173Y-101389861D02*
X118774602Y-101299147D01*
X118774602Y-101299147D02*
X119046745Y-101299147D01*
X119046745Y-101299147D02*
X119228173Y-101208433D01*
X119228173Y-101208433D02*
X119318887Y-101027004D01*
X119318887Y-101027004D02*
X119318887Y-100936290D01*
X119318887Y-100936290D02*
X119228173Y-100754861D01*
X119228173Y-100754861D02*
X119046745Y-100664147D01*
X119046745Y-100664147D02*
X118774602Y-100664147D01*
X118774602Y-100664147D02*
X118593173Y-100754861D01*
X117958173Y-100664147D02*
X117232459Y-100664147D01*
X117686030Y-100029147D02*
X117686030Y-101662004D01*
X117686030Y-101662004D02*
X117595316Y-101843433D01*
X117595316Y-101843433D02*
X117413887Y-101934147D01*
X117413887Y-101934147D02*
X117232459Y-101934147D01*
X116325316Y-101934147D02*
X116506745Y-101843433D01*
X116506745Y-101843433D02*
X116597459Y-101752718D01*
X116597459Y-101752718D02*
X116688173Y-101571290D01*
X116688173Y-101571290D02*
X116688173Y-101027004D01*
X116688173Y-101027004D02*
X116597459Y-100845575D01*
X116597459Y-100845575D02*
X116506745Y-100754861D01*
X116506745Y-100754861D02*
X116325316Y-100664147D01*
X116325316Y-100664147D02*
X116053173Y-100664147D01*
X116053173Y-100664147D02*
X115871745Y-100754861D01*
X115871745Y-100754861D02*
X115781031Y-100845575D01*
X115781031Y-100845575D02*
X115690316Y-101027004D01*
X115690316Y-101027004D02*
X115690316Y-101571290D01*
X115690316Y-101571290D02*
X115781031Y-101752718D01*
X115781031Y-101752718D02*
X115871745Y-101843433D01*
X115871745Y-101843433D02*
X116053173Y-101934147D01*
X116053173Y-101934147D02*
X116325316Y-101934147D01*
X114873888Y-100664147D02*
X114873888Y-101934147D01*
X114873888Y-100845575D02*
X114783174Y-100754861D01*
X114783174Y-100754861D02*
X114601745Y-100664147D01*
X114601745Y-100664147D02*
X114329602Y-100664147D01*
X114329602Y-100664147D02*
X114148174Y-100754861D01*
X114148174Y-100754861D02*
X114057460Y-100936290D01*
X114057460Y-100936290D02*
X114057460Y-101934147D01*
X111698888Y-100029147D02*
X111698888Y-101571290D01*
X111698888Y-101571290D02*
X111608174Y-101752718D01*
X111608174Y-101752718D02*
X111517460Y-101843433D01*
X111517460Y-101843433D02*
X111336031Y-101934147D01*
X111336031Y-101934147D02*
X110973174Y-101934147D01*
X110973174Y-101934147D02*
X110791745Y-101843433D01*
X110791745Y-101843433D02*
X110701031Y-101752718D01*
X110701031Y-101752718D02*
X110610317Y-101571290D01*
X110610317Y-101571290D02*
X110610317Y-100029147D01*
X109703174Y-100664147D02*
X109703174Y-101934147D01*
X109703174Y-100845575D02*
X109612460Y-100754861D01*
X109612460Y-100754861D02*
X109431031Y-100664147D01*
X109431031Y-100664147D02*
X109158888Y-100664147D01*
X109158888Y-100664147D02*
X108977460Y-100754861D01*
X108977460Y-100754861D02*
X108886746Y-100936290D01*
X108886746Y-100936290D02*
X108886746Y-101934147D01*
X107979603Y-101934147D02*
X107979603Y-100664147D01*
X107979603Y-100029147D02*
X108070317Y-100119861D01*
X108070317Y-100119861D02*
X107979603Y-100210575D01*
X107979603Y-100210575D02*
X107888889Y-100119861D01*
X107888889Y-100119861D02*
X107979603Y-100029147D01*
X107979603Y-100029147D02*
X107979603Y-100210575D01*
X107253889Y-100664147D02*
X106800317Y-101934147D01*
X106800317Y-101934147D02*
X106346746Y-100664147D01*
X104895317Y-101843433D02*
X105076745Y-101934147D01*
X105076745Y-101934147D02*
X105439603Y-101934147D01*
X105439603Y-101934147D02*
X105621031Y-101843433D01*
X105621031Y-101843433D02*
X105711745Y-101662004D01*
X105711745Y-101662004D02*
X105711745Y-100936290D01*
X105711745Y-100936290D02*
X105621031Y-100754861D01*
X105621031Y-100754861D02*
X105439603Y-100664147D01*
X105439603Y-100664147D02*
X105076745Y-100664147D01*
X105076745Y-100664147D02*
X104895317Y-100754861D01*
X104895317Y-100754861D02*
X104804603Y-100936290D01*
X104804603Y-100936290D02*
X104804603Y-101117718D01*
X104804603Y-101117718D02*
X105711745Y-101299147D01*
X103988174Y-101934147D02*
X103988174Y-100664147D01*
X103988174Y-101027004D02*
X103897460Y-100845575D01*
X103897460Y-100845575D02*
X103806746Y-100754861D01*
X103806746Y-100754861D02*
X103625317Y-100664147D01*
X103625317Y-100664147D02*
X103443888Y-100664147D01*
X102899602Y-101843433D02*
X102718174Y-101934147D01*
X102718174Y-101934147D02*
X102355317Y-101934147D01*
X102355317Y-101934147D02*
X102173888Y-101843433D01*
X102173888Y-101843433D02*
X102083174Y-101662004D01*
X102083174Y-101662004D02*
X102083174Y-101571290D01*
X102083174Y-101571290D02*
X102173888Y-101389861D01*
X102173888Y-101389861D02*
X102355317Y-101299147D01*
X102355317Y-101299147D02*
X102627460Y-101299147D01*
X102627460Y-101299147D02*
X102808888Y-101208433D01*
X102808888Y-101208433D02*
X102899602Y-101027004D01*
X102899602Y-101027004D02*
X102899602Y-100936290D01*
X102899602Y-100936290D02*
X102808888Y-100754861D01*
X102808888Y-100754861D02*
X102627460Y-100664147D01*
X102627460Y-100664147D02*
X102355317Y-100664147D01*
X102355317Y-100664147D02*
X102173888Y-100754861D01*
X101266745Y-101934147D02*
X101266745Y-100664147D01*
X101266745Y-100029147D02*
X101357459Y-100119861D01*
X101357459Y-100119861D02*
X101266745Y-100210575D01*
X101266745Y-100210575D02*
X101176031Y-100119861D01*
X101176031Y-100119861D02*
X101266745Y-100029147D01*
X101266745Y-100029147D02*
X101266745Y-100210575D01*
X100631745Y-100664147D02*
X99906031Y-100664147D01*
X100359602Y-100029147D02*
X100359602Y-101662004D01*
X100359602Y-101662004D02*
X100268888Y-101843433D01*
X100268888Y-101843433D02*
X100087459Y-101934147D01*
X100087459Y-101934147D02*
X99906031Y-101934147D01*
X99452460Y-100664147D02*
X98998888Y-101934147D01*
X98545317Y-100664147D02*
X98998888Y-101934147D01*
X98998888Y-101934147D02*
X99180317Y-102387718D01*
X99180317Y-102387718D02*
X99271031Y-102478433D01*
X99271031Y-102478433D02*
X99452460Y-102569147D01*
X96368173Y-100936290D02*
X95733173Y-100936290D01*
X95461030Y-101934147D02*
X96368173Y-101934147D01*
X96368173Y-101934147D02*
X96368173Y-100029147D01*
X96368173Y-100029147D02*
X95461030Y-100029147D01*
X94644602Y-101934147D02*
X94644602Y-100029147D01*
X94644602Y-100029147D02*
X94191031Y-100029147D01*
X94191031Y-100029147D02*
X93918888Y-100119861D01*
X93918888Y-100119861D02*
X93737459Y-100301290D01*
X93737459Y-100301290D02*
X93646745Y-100482718D01*
X93646745Y-100482718D02*
X93556031Y-100845575D01*
X93556031Y-100845575D02*
X93556031Y-101117718D01*
X93556031Y-101117718D02*
X93646745Y-101480575D01*
X93646745Y-101480575D02*
X93737459Y-101662004D01*
X93737459Y-101662004D02*
X93918888Y-101843433D01*
X93918888Y-101843433D02*
X94191031Y-101934147D01*
X94191031Y-101934147D02*
X94644602Y-101934147D01*
X92104602Y-100936290D02*
X92739602Y-100936290D01*
X92739602Y-101934147D02*
X92739602Y-100029147D01*
X92739602Y-100029147D02*
X91832459Y-100029147D01*
X122856744Y-105001197D02*
X122856744Y-103096197D01*
X122856744Y-103096197D02*
X122403173Y-103096197D01*
X122403173Y-103096197D02*
X122131030Y-103186911D01*
X122131030Y-103186911D02*
X121949601Y-103368340D01*
X121949601Y-103368340D02*
X121858887Y-103549768D01*
X121858887Y-103549768D02*
X121768173Y-103912625D01*
X121768173Y-103912625D02*
X121768173Y-104184768D01*
X121768173Y-104184768D02*
X121858887Y-104547625D01*
X121858887Y-104547625D02*
X121949601Y-104729054D01*
X121949601Y-104729054D02*
X122131030Y-104910483D01*
X122131030Y-104910483D02*
X122403173Y-105001197D01*
X122403173Y-105001197D02*
X122856744Y-105001197D01*
X120135316Y-105001197D02*
X120135316Y-104003340D01*
X120135316Y-104003340D02*
X120226030Y-103821911D01*
X120226030Y-103821911D02*
X120407458Y-103731197D01*
X120407458Y-103731197D02*
X120770316Y-103731197D01*
X120770316Y-103731197D02*
X120951744Y-103821911D01*
X120135316Y-104910483D02*
X120316744Y-105001197D01*
X120316744Y-105001197D02*
X120770316Y-105001197D01*
X120770316Y-105001197D02*
X120951744Y-104910483D01*
X120951744Y-104910483D02*
X121042458Y-104729054D01*
X121042458Y-104729054D02*
X121042458Y-104547625D01*
X121042458Y-104547625D02*
X120951744Y-104366197D01*
X120951744Y-104366197D02*
X120770316Y-104275483D01*
X120770316Y-104275483D02*
X120316744Y-104275483D01*
X120316744Y-104275483D02*
X120135316Y-104184768D01*
X119228173Y-105001197D02*
X119228173Y-103731197D01*
X119228173Y-104094054D02*
X119137459Y-103912625D01*
X119137459Y-103912625D02*
X119046745Y-103821911D01*
X119046745Y-103821911D02*
X118865316Y-103731197D01*
X118865316Y-103731197D02*
X118683887Y-103731197D01*
X118048887Y-105001197D02*
X118048887Y-103096197D01*
X117867459Y-104275483D02*
X117323173Y-105001197D01*
X117323173Y-103731197D02*
X118048887Y-104456911D01*
X115236744Y-105182625D02*
X115418173Y-105091911D01*
X115418173Y-105091911D02*
X115599601Y-104910483D01*
X115599601Y-104910483D02*
X115871744Y-104638340D01*
X115871744Y-104638340D02*
X116053173Y-104547625D01*
X116053173Y-104547625D02*
X116234601Y-104547625D01*
X116143887Y-105001197D02*
X116325316Y-104910483D01*
X116325316Y-104910483D02*
X116506744Y-104729054D01*
X116506744Y-104729054D02*
X116597458Y-104366197D01*
X116597458Y-104366197D02*
X116597458Y-103731197D01*
X116597458Y-103731197D02*
X116506744Y-103368340D01*
X116506744Y-103368340D02*
X116325316Y-103186911D01*
X116325316Y-103186911D02*
X116143887Y-103096197D01*
X116143887Y-103096197D02*
X115781030Y-103096197D01*
X115781030Y-103096197D02*
X115599601Y-103186911D01*
X115599601Y-103186911D02*
X115418173Y-103368340D01*
X115418173Y-103368340D02*
X115327458Y-103731197D01*
X115327458Y-103731197D02*
X115327458Y-104366197D01*
X115327458Y-104366197D02*
X115418173Y-104729054D01*
X115418173Y-104729054D02*
X115599601Y-104910483D01*
X115599601Y-104910483D02*
X115781030Y-105001197D01*
X115781030Y-105001197D02*
X116143887Y-105001197D01*
X113694602Y-103731197D02*
X113694602Y-105001197D01*
X114511030Y-103731197D02*
X114511030Y-104729054D01*
X114511030Y-104729054D02*
X114420316Y-104910483D01*
X114420316Y-104910483D02*
X114238887Y-105001197D01*
X114238887Y-105001197D02*
X113966744Y-105001197D01*
X113966744Y-105001197D02*
X113785316Y-104910483D01*
X113785316Y-104910483D02*
X113694602Y-104819768D01*
X112061745Y-104910483D02*
X112243173Y-105001197D01*
X112243173Y-105001197D02*
X112606031Y-105001197D01*
X112606031Y-105001197D02*
X112787459Y-104910483D01*
X112787459Y-104910483D02*
X112878173Y-104729054D01*
X112878173Y-104729054D02*
X112878173Y-104003340D01*
X112878173Y-104003340D02*
X112787459Y-103821911D01*
X112787459Y-103821911D02*
X112606031Y-103731197D01*
X112606031Y-103731197D02*
X112243173Y-103731197D01*
X112243173Y-103731197D02*
X112061745Y-103821911D01*
X112061745Y-103821911D02*
X111971031Y-104003340D01*
X111971031Y-104003340D02*
X111971031Y-104184768D01*
X111971031Y-104184768D02*
X112878173Y-104366197D01*
X111245316Y-104910483D02*
X111063888Y-105001197D01*
X111063888Y-105001197D02*
X110701031Y-105001197D01*
X110701031Y-105001197D02*
X110519602Y-104910483D01*
X110519602Y-104910483D02*
X110428888Y-104729054D01*
X110428888Y-104729054D02*
X110428888Y-104638340D01*
X110428888Y-104638340D02*
X110519602Y-104456911D01*
X110519602Y-104456911D02*
X110701031Y-104366197D01*
X110701031Y-104366197D02*
X110973174Y-104366197D01*
X110973174Y-104366197D02*
X111154602Y-104275483D01*
X111154602Y-104275483D02*
X111245316Y-104094054D01*
X111245316Y-104094054D02*
X111245316Y-104003340D01*
X111245316Y-104003340D02*
X111154602Y-103821911D01*
X111154602Y-103821911D02*
X110973174Y-103731197D01*
X110973174Y-103731197D02*
X110701031Y-103731197D01*
X110701031Y-103731197D02*
X110519602Y-103821911D01*
X109884602Y-103731197D02*
X109158888Y-103731197D01*
X109612459Y-103096197D02*
X109612459Y-104729054D01*
X109612459Y-104729054D02*
X109521745Y-104910483D01*
X109521745Y-104910483D02*
X109340316Y-105001197D01*
X109340316Y-105001197D02*
X109158888Y-105001197D01*
X107072459Y-104003340D02*
X106437459Y-104003340D01*
X106165316Y-105001197D02*
X107072459Y-105001197D01*
X107072459Y-105001197D02*
X107072459Y-103096197D01*
X107072459Y-103096197D02*
X106165316Y-103096197D01*
X104260317Y-104819768D02*
X104351031Y-104910483D01*
X104351031Y-104910483D02*
X104623174Y-105001197D01*
X104623174Y-105001197D02*
X104804602Y-105001197D01*
X104804602Y-105001197D02*
X105076745Y-104910483D01*
X105076745Y-104910483D02*
X105258174Y-104729054D01*
X105258174Y-104729054D02*
X105348888Y-104547625D01*
X105348888Y-104547625D02*
X105439602Y-104184768D01*
X105439602Y-104184768D02*
X105439602Y-103912625D01*
X105439602Y-103912625D02*
X105348888Y-103549768D01*
X105348888Y-103549768D02*
X105258174Y-103368340D01*
X105258174Y-103368340D02*
X105076745Y-103186911D01*
X105076745Y-103186911D02*
X104804602Y-103096197D01*
X104804602Y-103096197D02*
X104623174Y-103096197D01*
X104623174Y-103096197D02*
X104351031Y-103186911D01*
X104351031Y-103186911D02*
X104260317Y-103277625D01*
X102536745Y-105001197D02*
X103443888Y-105001197D01*
X103443888Y-105001197D02*
X103443888Y-103096197D01*
X100722459Y-103096197D02*
X99633888Y-103096197D01*
X100178173Y-105001197D02*
X100178173Y-103096197D01*
X98998887Y-105001197D02*
X98998887Y-103731197D01*
X98998887Y-104094054D02*
X98908173Y-103912625D01*
X98908173Y-103912625D02*
X98817459Y-103821911D01*
X98817459Y-103821911D02*
X98636030Y-103731197D01*
X98636030Y-103731197D02*
X98454601Y-103731197D01*
X97819601Y-105001197D02*
X97819601Y-103731197D01*
X97819601Y-103096197D02*
X97910315Y-103186911D01*
X97910315Y-103186911D02*
X97819601Y-103277625D01*
X97819601Y-103277625D02*
X97728887Y-103186911D01*
X97728887Y-103186911D02*
X97819601Y-103096197D01*
X97819601Y-103096197D02*
X97819601Y-103277625D01*
X96096030Y-103731197D02*
X96096030Y-105273340D01*
X96096030Y-105273340D02*
X96186744Y-105454768D01*
X96186744Y-105454768D02*
X96277458Y-105545483D01*
X96277458Y-105545483D02*
X96458887Y-105636197D01*
X96458887Y-105636197D02*
X96731030Y-105636197D01*
X96731030Y-105636197D02*
X96912458Y-105545483D01*
X96096030Y-104910483D02*
X96277458Y-105001197D01*
X96277458Y-105001197D02*
X96640315Y-105001197D01*
X96640315Y-105001197D02*
X96821744Y-104910483D01*
X96821744Y-104910483D02*
X96912458Y-104819768D01*
X96912458Y-104819768D02*
X97003172Y-104638340D01*
X97003172Y-104638340D02*
X97003172Y-104094054D01*
X97003172Y-104094054D02*
X96912458Y-103912625D01*
X96912458Y-103912625D02*
X96821744Y-103821911D01*
X96821744Y-103821911D02*
X96640315Y-103731197D01*
X96640315Y-103731197D02*
X96277458Y-103731197D01*
X96277458Y-103731197D02*
X96096030Y-103821911D01*
X94372459Y-103731197D02*
X94372459Y-105273340D01*
X94372459Y-105273340D02*
X94463173Y-105454768D01*
X94463173Y-105454768D02*
X94553887Y-105545483D01*
X94553887Y-105545483D02*
X94735316Y-105636197D01*
X94735316Y-105636197D02*
X95007459Y-105636197D01*
X95007459Y-105636197D02*
X95188887Y-105545483D01*
X94372459Y-104910483D02*
X94553887Y-105001197D01*
X94553887Y-105001197D02*
X94916744Y-105001197D01*
X94916744Y-105001197D02*
X95098173Y-104910483D01*
X95098173Y-104910483D02*
X95188887Y-104819768D01*
X95188887Y-104819768D02*
X95279601Y-104638340D01*
X95279601Y-104638340D02*
X95279601Y-104094054D01*
X95279601Y-104094054D02*
X95188887Y-103912625D01*
X95188887Y-103912625D02*
X95098173Y-103821911D01*
X95098173Y-103821911D02*
X94916744Y-103731197D01*
X94916744Y-103731197D02*
X94553887Y-103731197D01*
X94553887Y-103731197D02*
X94372459Y-103821911D01*
X92739602Y-104910483D02*
X92921030Y-105001197D01*
X92921030Y-105001197D02*
X93283888Y-105001197D01*
X93283888Y-105001197D02*
X93465316Y-104910483D01*
X93465316Y-104910483D02*
X93556030Y-104729054D01*
X93556030Y-104729054D02*
X93556030Y-104003340D01*
X93556030Y-104003340D02*
X93465316Y-103821911D01*
X93465316Y-103821911D02*
X93283888Y-103731197D01*
X93283888Y-103731197D02*
X92921030Y-103731197D01*
X92921030Y-103731197D02*
X92739602Y-103821911D01*
X92739602Y-103821911D02*
X92648888Y-104003340D01*
X92648888Y-104003340D02*
X92648888Y-104184768D01*
X92648888Y-104184768D02*
X93556030Y-104366197D01*
X91832459Y-105001197D02*
X91832459Y-103731197D01*
X91832459Y-104094054D02*
X91741745Y-103912625D01*
X91741745Y-103912625D02*
X91651031Y-103821911D01*
X91651031Y-103821911D02*
X91469602Y-103731197D01*
X91469602Y-103731197D02*
X91288173Y-103731197D01*
X89201744Y-105001197D02*
X89201744Y-103096197D01*
X89201744Y-103096197D02*
X88476030Y-103096197D01*
X88476030Y-103096197D02*
X88294601Y-103186911D01*
X88294601Y-103186911D02*
X88203887Y-103277625D01*
X88203887Y-103277625D02*
X88113173Y-103459054D01*
X88113173Y-103459054D02*
X88113173Y-103731197D01*
X88113173Y-103731197D02*
X88203887Y-103912625D01*
X88203887Y-103912625D02*
X88294601Y-104003340D01*
X88294601Y-104003340D02*
X88476030Y-104094054D01*
X88476030Y-104094054D02*
X89201744Y-104094054D01*
X86480316Y-105001197D02*
X86480316Y-104003340D01*
X86480316Y-104003340D02*
X86571030Y-103821911D01*
X86571030Y-103821911D02*
X86752458Y-103731197D01*
X86752458Y-103731197D02*
X87115316Y-103731197D01*
X87115316Y-103731197D02*
X87296744Y-103821911D01*
X86480316Y-104910483D02*
X86661744Y-105001197D01*
X86661744Y-105001197D02*
X87115316Y-105001197D01*
X87115316Y-105001197D02*
X87296744Y-104910483D01*
X87296744Y-104910483D02*
X87387458Y-104729054D01*
X87387458Y-104729054D02*
X87387458Y-104547625D01*
X87387458Y-104547625D02*
X87296744Y-104366197D01*
X87296744Y-104366197D02*
X87115316Y-104275483D01*
X87115316Y-104275483D02*
X86661744Y-104275483D01*
X86661744Y-104275483D02*
X86480316Y-104184768D01*
X85845316Y-103731197D02*
X85119602Y-103731197D01*
X85573173Y-103096197D02*
X85573173Y-104729054D01*
X85573173Y-104729054D02*
X85482459Y-104910483D01*
X85482459Y-104910483D02*
X85301030Y-105001197D01*
X85301030Y-105001197D02*
X85119602Y-105001197D01*
X83668174Y-104910483D02*
X83849602Y-105001197D01*
X83849602Y-105001197D02*
X84212459Y-105001197D01*
X84212459Y-105001197D02*
X84393888Y-104910483D01*
X84393888Y-104910483D02*
X84484602Y-104819768D01*
X84484602Y-104819768D02*
X84575316Y-104638340D01*
X84575316Y-104638340D02*
X84575316Y-104094054D01*
X84575316Y-104094054D02*
X84484602Y-103912625D01*
X84484602Y-103912625D02*
X84393888Y-103821911D01*
X84393888Y-103821911D02*
X84212459Y-103731197D01*
X84212459Y-103731197D02*
X83849602Y-103731197D01*
X83849602Y-103731197D02*
X83668174Y-103821911D01*
X82851745Y-105001197D02*
X82851745Y-103096197D01*
X82035317Y-105001197D02*
X82035317Y-104003340D01*
X82035317Y-104003340D02*
X82126031Y-103821911D01*
X82126031Y-103821911D02*
X82307459Y-103731197D01*
X82307459Y-103731197D02*
X82579602Y-103731197D01*
X82579602Y-103731197D02*
X82761031Y-103821911D01*
X82761031Y-103821911D02*
X82851745Y-103912625D01*
X79676745Y-105001197D02*
X79676745Y-103096197D01*
X79676745Y-103096197D02*
X78951031Y-103096197D01*
X78951031Y-103096197D02*
X78769602Y-103186911D01*
X78769602Y-103186911D02*
X78678888Y-103277625D01*
X78678888Y-103277625D02*
X78588174Y-103459054D01*
X78588174Y-103459054D02*
X78588174Y-103731197D01*
X78588174Y-103731197D02*
X78678888Y-103912625D01*
X78678888Y-103912625D02*
X78769602Y-104003340D01*
X78769602Y-104003340D02*
X78951031Y-104094054D01*
X78951031Y-104094054D02*
X79676745Y-104094054D01*
X76955317Y-105001197D02*
X76955317Y-104003340D01*
X76955317Y-104003340D02*
X77046031Y-103821911D01*
X77046031Y-103821911D02*
X77227459Y-103731197D01*
X77227459Y-103731197D02*
X77590317Y-103731197D01*
X77590317Y-103731197D02*
X77771745Y-103821911D01*
X76955317Y-104910483D02*
X77136745Y-105001197D01*
X77136745Y-105001197D02*
X77590317Y-105001197D01*
X77590317Y-105001197D02*
X77771745Y-104910483D01*
X77771745Y-104910483D02*
X77862459Y-104729054D01*
X77862459Y-104729054D02*
X77862459Y-104547625D01*
X77862459Y-104547625D02*
X77771745Y-104366197D01*
X77771745Y-104366197D02*
X77590317Y-104275483D01*
X77590317Y-104275483D02*
X77136745Y-104275483D01*
X77136745Y-104275483D02*
X76955317Y-104184768D01*
X76048174Y-103731197D02*
X76048174Y-105001197D01*
X76048174Y-103912625D02*
X75957460Y-103821911D01*
X75957460Y-103821911D02*
X75776031Y-103731197D01*
X75776031Y-103731197D02*
X75503888Y-103731197D01*
X75503888Y-103731197D02*
X75322460Y-103821911D01*
X75322460Y-103821911D02*
X75231746Y-104003340D01*
X75231746Y-104003340D02*
X75231746Y-105001197D01*
X73598889Y-104910483D02*
X73780317Y-105001197D01*
X73780317Y-105001197D02*
X74143175Y-105001197D01*
X74143175Y-105001197D02*
X74324603Y-104910483D01*
X74324603Y-104910483D02*
X74415317Y-104729054D01*
X74415317Y-104729054D02*
X74415317Y-104003340D01*
X74415317Y-104003340D02*
X74324603Y-103821911D01*
X74324603Y-103821911D02*
X74143175Y-103731197D01*
X74143175Y-103731197D02*
X73780317Y-103731197D01*
X73780317Y-103731197D02*
X73598889Y-103821911D01*
X73598889Y-103821911D02*
X73508175Y-104003340D01*
X73508175Y-104003340D02*
X73508175Y-104184768D01*
X73508175Y-104184768D02*
X74415317Y-104366197D01*
X72419603Y-105001197D02*
X72601032Y-104910483D01*
X72601032Y-104910483D02*
X72691746Y-104729054D01*
X72691746Y-104729054D02*
X72691746Y-103096197D01*
X122947458Y-106344675D02*
X122856744Y-106253961D01*
X122856744Y-106253961D02*
X122675316Y-106163247D01*
X122675316Y-106163247D02*
X122221744Y-106163247D01*
X122221744Y-106163247D02*
X122040316Y-106253961D01*
X122040316Y-106253961D02*
X121949601Y-106344675D01*
X121949601Y-106344675D02*
X121858887Y-106526104D01*
X121858887Y-106526104D02*
X121858887Y-106707533D01*
X121858887Y-106707533D02*
X121949601Y-106979675D01*
X121949601Y-106979675D02*
X123038173Y-108068247D01*
X123038173Y-108068247D02*
X121858887Y-108068247D01*
X120679601Y-106163247D02*
X120498172Y-106163247D01*
X120498172Y-106163247D02*
X120316744Y-106253961D01*
X120316744Y-106253961D02*
X120226030Y-106344675D01*
X120226030Y-106344675D02*
X120135315Y-106526104D01*
X120135315Y-106526104D02*
X120044601Y-106888961D01*
X120044601Y-106888961D02*
X120044601Y-107342533D01*
X120044601Y-107342533D02*
X120135315Y-107705390D01*
X120135315Y-107705390D02*
X120226030Y-107886818D01*
X120226030Y-107886818D02*
X120316744Y-107977533D01*
X120316744Y-107977533D02*
X120498172Y-108068247D01*
X120498172Y-108068247D02*
X120679601Y-108068247D01*
X120679601Y-108068247D02*
X120861030Y-107977533D01*
X120861030Y-107977533D02*
X120951744Y-107886818D01*
X120951744Y-107886818D02*
X121042458Y-107705390D01*
X121042458Y-107705390D02*
X121133172Y-107342533D01*
X121133172Y-107342533D02*
X121133172Y-106888961D01*
X121133172Y-106888961D02*
X121042458Y-106526104D01*
X121042458Y-106526104D02*
X120951744Y-106344675D01*
X120951744Y-106344675D02*
X120861030Y-106253961D01*
X120861030Y-106253961D02*
X120679601Y-106163247D01*
X119318886Y-106344675D02*
X119228172Y-106253961D01*
X119228172Y-106253961D02*
X119046744Y-106163247D01*
X119046744Y-106163247D02*
X118593172Y-106163247D01*
X118593172Y-106163247D02*
X118411744Y-106253961D01*
X118411744Y-106253961D02*
X118321029Y-106344675D01*
X118321029Y-106344675D02*
X118230315Y-106526104D01*
X118230315Y-106526104D02*
X118230315Y-106707533D01*
X118230315Y-106707533D02*
X118321029Y-106979675D01*
X118321029Y-106979675D02*
X119409601Y-108068247D01*
X119409601Y-108068247D02*
X118230315Y-108068247D01*
X117595315Y-106163247D02*
X116416029Y-106163247D01*
X116416029Y-106163247D02*
X117051029Y-106888961D01*
X117051029Y-106888961D02*
X116778886Y-106888961D01*
X116778886Y-106888961D02*
X116597458Y-106979675D01*
X116597458Y-106979675D02*
X116506743Y-107070390D01*
X116506743Y-107070390D02*
X116416029Y-107251818D01*
X116416029Y-107251818D02*
X116416029Y-107705390D01*
X116416029Y-107705390D02*
X116506743Y-107886818D01*
X116506743Y-107886818D02*
X116597458Y-107977533D01*
X116597458Y-107977533D02*
X116778886Y-108068247D01*
X116778886Y-108068247D02*
X117323172Y-108068247D01*
X117323172Y-108068247D02*
X117504600Y-107977533D01*
X117504600Y-107977533D02*
X117595315Y-107886818D01*
X115599600Y-107342533D02*
X114148172Y-107342533D01*
X112878172Y-106163247D02*
X112696743Y-106163247D01*
X112696743Y-106163247D02*
X112515315Y-106253961D01*
X112515315Y-106253961D02*
X112424601Y-106344675D01*
X112424601Y-106344675D02*
X112333886Y-106526104D01*
X112333886Y-106526104D02*
X112243172Y-106888961D01*
X112243172Y-106888961D02*
X112243172Y-107342533D01*
X112243172Y-107342533D02*
X112333886Y-107705390D01*
X112333886Y-107705390D02*
X112424601Y-107886818D01*
X112424601Y-107886818D02*
X112515315Y-107977533D01*
X112515315Y-107977533D02*
X112696743Y-108068247D01*
X112696743Y-108068247D02*
X112878172Y-108068247D01*
X112878172Y-108068247D02*
X113059601Y-107977533D01*
X113059601Y-107977533D02*
X113150315Y-107886818D01*
X113150315Y-107886818D02*
X113241029Y-107705390D01*
X113241029Y-107705390D02*
X113331743Y-107342533D01*
X113331743Y-107342533D02*
X113331743Y-106888961D01*
X113331743Y-106888961D02*
X113241029Y-106526104D01*
X113241029Y-106526104D02*
X113150315Y-106344675D01*
X113150315Y-106344675D02*
X113059601Y-106253961D01*
X113059601Y-106253961D02*
X112878172Y-106163247D01*
X111608172Y-106163247D02*
X110338172Y-106163247D01*
X110338172Y-106163247D02*
X111154600Y-108068247D01*
X105621028Y-108068247D02*
X106256028Y-107161104D01*
X106709599Y-108068247D02*
X106709599Y-106163247D01*
X106709599Y-106163247D02*
X105983885Y-106163247D01*
X105983885Y-106163247D02*
X105802456Y-106253961D01*
X105802456Y-106253961D02*
X105711742Y-106344675D01*
X105711742Y-106344675D02*
X105621028Y-106526104D01*
X105621028Y-106526104D02*
X105621028Y-106798247D01*
X105621028Y-106798247D02*
X105711742Y-106979675D01*
X105711742Y-106979675D02*
X105802456Y-107070390D01*
X105802456Y-107070390D02*
X105983885Y-107161104D01*
X105983885Y-107161104D02*
X106709599Y-107161104D01*
X104078885Y-107977533D02*
X104260313Y-108068247D01*
X104260313Y-108068247D02*
X104623171Y-108068247D01*
X104623171Y-108068247D02*
X104804599Y-107977533D01*
X104804599Y-107977533D02*
X104895313Y-107796104D01*
X104895313Y-107796104D02*
X104895313Y-107070390D01*
X104895313Y-107070390D02*
X104804599Y-106888961D01*
X104804599Y-106888961D02*
X104623171Y-106798247D01*
X104623171Y-106798247D02*
X104260313Y-106798247D01*
X104260313Y-106798247D02*
X104078885Y-106888961D01*
X104078885Y-106888961D02*
X103988171Y-107070390D01*
X103988171Y-107070390D02*
X103988171Y-107251818D01*
X103988171Y-107251818D02*
X104895313Y-107433247D01*
X103353171Y-106798247D02*
X102899599Y-108068247D01*
X102899599Y-108068247D02*
X102446028Y-106798247D01*
X99271027Y-108068247D02*
X100359598Y-108068247D01*
X99815313Y-108068247D02*
X99815313Y-106163247D01*
X99815313Y-106163247D02*
X99996741Y-106435390D01*
X99996741Y-106435390D02*
X100178170Y-106616818D01*
X100178170Y-106616818D02*
X100359598Y-106707533D01*
X98454598Y-107886818D02*
X98363884Y-107977533D01*
X98363884Y-107977533D02*
X98454598Y-108068247D01*
X98454598Y-108068247D02*
X98545312Y-107977533D01*
X98545312Y-107977533D02*
X98454598Y-107886818D01*
X98454598Y-107886818D02*
X98454598Y-108068247D01*
X97184598Y-106163247D02*
X97003169Y-106163247D01*
X97003169Y-106163247D02*
X96821741Y-106253961D01*
X96821741Y-106253961D02*
X96731027Y-106344675D01*
X96731027Y-106344675D02*
X96640312Y-106526104D01*
X96640312Y-106526104D02*
X96549598Y-106888961D01*
X96549598Y-106888961D02*
X96549598Y-107342533D01*
X96549598Y-107342533D02*
X96640312Y-107705390D01*
X96640312Y-107705390D02*
X96731027Y-107886818D01*
X96731027Y-107886818D02*
X96821741Y-107977533D01*
X96821741Y-107977533D02*
X97003169Y-108068247D01*
X97003169Y-108068247D02*
X97184598Y-108068247D01*
X97184598Y-108068247D02*
X97366027Y-107977533D01*
X97366027Y-107977533D02*
X97456741Y-107886818D01*
X97456741Y-107886818D02*
X97547455Y-107705390D01*
X97547455Y-107705390D02*
X97638169Y-107342533D01*
X97638169Y-107342533D02*
X97638169Y-106888961D01*
X97638169Y-106888961D02*
X97547455Y-106526104D01*
X97547455Y-106526104D02*
X97456741Y-106344675D01*
X97456741Y-106344675D02*
X97366027Y-106253961D01*
X97366027Y-106253961D02*
X97184598Y-106163247D01*
X122040316Y-111044583D02*
X122221744Y-111135297D01*
X122221744Y-111135297D02*
X122584601Y-111135297D01*
X122584601Y-111135297D02*
X122766030Y-111044583D01*
X122766030Y-111044583D02*
X122856744Y-110953868D01*
X122856744Y-110953868D02*
X122947458Y-110772440D01*
X122947458Y-110772440D02*
X122947458Y-110228154D01*
X122947458Y-110228154D02*
X122856744Y-110046725D01*
X122856744Y-110046725D02*
X122766030Y-109956011D01*
X122766030Y-109956011D02*
X122584601Y-109865297D01*
X122584601Y-109865297D02*
X122221744Y-109865297D01*
X122221744Y-109865297D02*
X122040316Y-109956011D01*
X121223887Y-111135297D02*
X121223887Y-109865297D01*
X121223887Y-110046725D02*
X121133173Y-109956011D01*
X121133173Y-109956011D02*
X120951744Y-109865297D01*
X120951744Y-109865297D02*
X120679601Y-109865297D01*
X120679601Y-109865297D02*
X120498173Y-109956011D01*
X120498173Y-109956011D02*
X120407459Y-110137440D01*
X120407459Y-110137440D02*
X120407459Y-111135297D01*
X120407459Y-110137440D02*
X120316744Y-109956011D01*
X120316744Y-109956011D02*
X120135316Y-109865297D01*
X120135316Y-109865297D02*
X119863173Y-109865297D01*
X119863173Y-109865297D02*
X119681744Y-109956011D01*
X119681744Y-109956011D02*
X119591030Y-110137440D01*
X119591030Y-110137440D02*
X119591030Y-111135297D01*
X118683887Y-111135297D02*
X118683887Y-109865297D01*
X118683887Y-109230297D02*
X118774601Y-109321011D01*
X118774601Y-109321011D02*
X118683887Y-109411725D01*
X118683887Y-109411725D02*
X118593173Y-109321011D01*
X118593173Y-109321011D02*
X118683887Y-109230297D01*
X118683887Y-109230297D02*
X118683887Y-109411725D01*
X117504601Y-111135297D02*
X117686030Y-111044583D01*
X117686030Y-111044583D02*
X117776744Y-110863154D01*
X117776744Y-110863154D02*
X117776744Y-109230297D01*
X116506744Y-111135297D02*
X116688173Y-111044583D01*
X116688173Y-111044583D02*
X116778887Y-110863154D01*
X116778887Y-110863154D02*
X116778887Y-109230297D01*
X115055316Y-111044583D02*
X115236744Y-111135297D01*
X115236744Y-111135297D02*
X115599602Y-111135297D01*
X115599602Y-111135297D02*
X115781030Y-111044583D01*
X115781030Y-111044583D02*
X115871744Y-110863154D01*
X115871744Y-110863154D02*
X115871744Y-110137440D01*
X115871744Y-110137440D02*
X115781030Y-109956011D01*
X115781030Y-109956011D02*
X115599602Y-109865297D01*
X115599602Y-109865297D02*
X115236744Y-109865297D01*
X115236744Y-109865297D02*
X115055316Y-109956011D01*
X115055316Y-109956011D02*
X114964602Y-110137440D01*
X114964602Y-110137440D02*
X114964602Y-110318868D01*
X114964602Y-110318868D02*
X115871744Y-110500297D01*
X114148173Y-111135297D02*
X114148173Y-109865297D01*
X114148173Y-110228154D02*
X114057459Y-110046725D01*
X114057459Y-110046725D02*
X113966745Y-109956011D01*
X113966745Y-109956011D02*
X113785316Y-109865297D01*
X113785316Y-109865297D02*
X113603887Y-109865297D01*
X112152459Y-109230297D02*
X112515316Y-109230297D01*
X112515316Y-109230297D02*
X112696744Y-109321011D01*
X112696744Y-109321011D02*
X112787459Y-109411725D01*
X112787459Y-109411725D02*
X112968887Y-109683868D01*
X112968887Y-109683868D02*
X113059601Y-110046725D01*
X113059601Y-110046725D02*
X113059601Y-110772440D01*
X113059601Y-110772440D02*
X112968887Y-110953868D01*
X112968887Y-110953868D02*
X112878173Y-111044583D01*
X112878173Y-111044583D02*
X112696744Y-111135297D01*
X112696744Y-111135297D02*
X112333887Y-111135297D01*
X112333887Y-111135297D02*
X112152459Y-111044583D01*
X112152459Y-111044583D02*
X112061744Y-110953868D01*
X112061744Y-110953868D02*
X111971030Y-110772440D01*
X111971030Y-110772440D02*
X111971030Y-110318868D01*
X111971030Y-110318868D02*
X112061744Y-110137440D01*
X112061744Y-110137440D02*
X112152459Y-110046725D01*
X112152459Y-110046725D02*
X112333887Y-109956011D01*
X112333887Y-109956011D02*
X112696744Y-109956011D01*
X112696744Y-109956011D02*
X112878173Y-110046725D01*
X112878173Y-110046725D02*
X112968887Y-110137440D01*
X112968887Y-110137440D02*
X113059601Y-110318868D01*
X109975315Y-110228154D02*
X110066030Y-110137440D01*
X110066030Y-110137440D02*
X110247458Y-110046725D01*
X110247458Y-110046725D02*
X110428887Y-110046725D01*
X110428887Y-110046725D02*
X110610315Y-110137440D01*
X110610315Y-110137440D02*
X110701030Y-110228154D01*
X110701030Y-110228154D02*
X110791744Y-110409583D01*
X110791744Y-110409583D02*
X110791744Y-110591011D01*
X110791744Y-110591011D02*
X110701030Y-110772440D01*
X110701030Y-110772440D02*
X110610315Y-110863154D01*
X110610315Y-110863154D02*
X110428887Y-110953868D01*
X110428887Y-110953868D02*
X110247458Y-110953868D01*
X110247458Y-110953868D02*
X110066030Y-110863154D01*
X110066030Y-110863154D02*
X109975315Y-110772440D01*
X109975315Y-110046725D02*
X109975315Y-110772440D01*
X109975315Y-110772440D02*
X109884601Y-110863154D01*
X109884601Y-110863154D02*
X109793887Y-110863154D01*
X109793887Y-110863154D02*
X109612458Y-110772440D01*
X109612458Y-110772440D02*
X109521744Y-110591011D01*
X109521744Y-110591011D02*
X109521744Y-110137440D01*
X109521744Y-110137440D02*
X109703173Y-109865297D01*
X109703173Y-109865297D02*
X109975315Y-109683868D01*
X109975315Y-109683868D02*
X110338173Y-109593154D01*
X110338173Y-109593154D02*
X110701030Y-109683868D01*
X110701030Y-109683868D02*
X110973173Y-109865297D01*
X110973173Y-109865297D02*
X111154601Y-110137440D01*
X111154601Y-110137440D02*
X111245315Y-110500297D01*
X111245315Y-110500297D02*
X111154601Y-110863154D01*
X111154601Y-110863154D02*
X110973173Y-111135297D01*
X110973173Y-111135297D02*
X110701030Y-111316725D01*
X110701030Y-111316725D02*
X110338173Y-111407440D01*
X110338173Y-111407440D02*
X109975315Y-111316725D01*
X109975315Y-111316725D02*
X109703173Y-111135297D01*
X108705315Y-111135297D02*
X108705315Y-109230297D01*
X108705315Y-109956011D02*
X108523887Y-109865297D01*
X108523887Y-109865297D02*
X108161029Y-109865297D01*
X108161029Y-109865297D02*
X107979601Y-109956011D01*
X107979601Y-109956011D02*
X107888887Y-110046725D01*
X107888887Y-110046725D02*
X107798172Y-110228154D01*
X107798172Y-110228154D02*
X107798172Y-110772440D01*
X107798172Y-110772440D02*
X107888887Y-110953868D01*
X107888887Y-110953868D02*
X107979601Y-111044583D01*
X107979601Y-111044583D02*
X108161029Y-111135297D01*
X108161029Y-111135297D02*
X108523887Y-111135297D01*
X108523887Y-111135297D02*
X108705315Y-111044583D01*
X106165316Y-109865297D02*
X106165316Y-111135297D01*
X106981744Y-109865297D02*
X106981744Y-110863154D01*
X106981744Y-110863154D02*
X106891030Y-111044583D01*
X106891030Y-111044583D02*
X106709601Y-111135297D01*
X106709601Y-111135297D02*
X106437458Y-111135297D01*
X106437458Y-111135297D02*
X106256030Y-111044583D01*
X106256030Y-111044583D02*
X106165316Y-110953868D01*
X105258173Y-110953868D02*
X105167459Y-111044583D01*
X105167459Y-111044583D02*
X105258173Y-111135297D01*
X105258173Y-111135297D02*
X105348887Y-111044583D01*
X105348887Y-111044583D02*
X105258173Y-110953868D01*
X105258173Y-110953868D02*
X105258173Y-111135297D01*
X103625316Y-111044583D02*
X103806744Y-111135297D01*
X103806744Y-111135297D02*
X104169602Y-111135297D01*
X104169602Y-111135297D02*
X104351030Y-111044583D01*
X104351030Y-111044583D02*
X104441744Y-110863154D01*
X104441744Y-110863154D02*
X104441744Y-110137440D01*
X104441744Y-110137440D02*
X104351030Y-109956011D01*
X104351030Y-109956011D02*
X104169602Y-109865297D01*
X104169602Y-109865297D02*
X103806744Y-109865297D01*
X103806744Y-109865297D02*
X103625316Y-109956011D01*
X103625316Y-109956011D02*
X103534602Y-110137440D01*
X103534602Y-110137440D02*
X103534602Y-110318868D01*
X103534602Y-110318868D02*
X104441744Y-110500297D01*
X101901745Y-111135297D02*
X101901745Y-109230297D01*
X101901745Y-111044583D02*
X102083173Y-111135297D01*
X102083173Y-111135297D02*
X102446030Y-111135297D01*
X102446030Y-111135297D02*
X102627459Y-111044583D01*
X102627459Y-111044583D02*
X102718173Y-110953868D01*
X102718173Y-110953868D02*
X102808887Y-110772440D01*
X102808887Y-110772440D02*
X102808887Y-110228154D01*
X102808887Y-110228154D02*
X102718173Y-110046725D01*
X102718173Y-110046725D02*
X102627459Y-109956011D01*
X102627459Y-109956011D02*
X102446030Y-109865297D01*
X102446030Y-109865297D02*
X102083173Y-109865297D01*
X102083173Y-109865297D02*
X101901745Y-109956011D01*
X100178174Y-109865297D02*
X100178174Y-111135297D01*
X100994602Y-109865297D02*
X100994602Y-110863154D01*
X100994602Y-110863154D02*
X100903888Y-111044583D01*
X100903888Y-111044583D02*
X100722459Y-111135297D01*
X100722459Y-111135297D02*
X100450316Y-111135297D01*
X100450316Y-111135297D02*
X100268888Y-111044583D01*
X100268888Y-111044583D02*
X100178174Y-110953868D01*
D10*
%TO.C,U3*%
X133161568Y-115277930D02*
X133066173Y-115277930D01*
X133066173Y-115277930D02*
X132970777Y-115325628D01*
X132970777Y-115325628D02*
X132923079Y-115373326D01*
X132923079Y-115373326D02*
X132875381Y-115468722D01*
X132875381Y-115468722D02*
X132827684Y-115659513D01*
X132827684Y-115659513D02*
X132827684Y-115898002D01*
X132827684Y-115898002D02*
X132875381Y-116088793D01*
X132875381Y-116088793D02*
X132923079Y-116184189D01*
X132923079Y-116184189D02*
X132970777Y-116231887D01*
X132970777Y-116231887D02*
X133066173Y-116279584D01*
X133066173Y-116279584D02*
X133161568Y-116279584D01*
X133161568Y-116279584D02*
X133256964Y-116231887D01*
X133256964Y-116231887D02*
X133304662Y-116184189D01*
X133304662Y-116184189D02*
X133352359Y-116088793D01*
X133352359Y-116088793D02*
X133400057Y-115898002D01*
X133400057Y-115898002D02*
X133400057Y-115659513D01*
X133400057Y-115659513D02*
X133352359Y-115468722D01*
X133352359Y-115468722D02*
X133304662Y-115373326D01*
X133304662Y-115373326D02*
X133256964Y-115325628D01*
X133256964Y-115325628D02*
X133161568Y-115277930D01*
X132398403Y-115898002D02*
X131635239Y-115898002D01*
X132016821Y-116279584D02*
X132016821Y-115516419D01*
X111189798Y-115786019D02*
X110522139Y-115786019D01*
X110522139Y-115786019D02*
X110951348Y-116787507D01*
X110140620Y-116405988D02*
X109377582Y-116405988D01*
X109759101Y-116787507D02*
X109759101Y-116024469D01*
X111188718Y-118326628D02*
X110521815Y-118326628D01*
X110521815Y-118326628D02*
X110950538Y-119326982D01*
X110140728Y-118945895D02*
X109378554Y-118945895D01*
X133254907Y-118326625D02*
X133159634Y-118326625D01*
X133159634Y-118326625D02*
X133064362Y-118374261D01*
X133064362Y-118374261D02*
X133016726Y-118421897D01*
X133016726Y-118421897D02*
X132969089Y-118517170D01*
X132969089Y-118517170D02*
X132921453Y-118707715D01*
X132921453Y-118707715D02*
X132921453Y-118945897D01*
X132921453Y-118945897D02*
X132969089Y-119136442D01*
X132969089Y-119136442D02*
X133016726Y-119231714D01*
X133016726Y-119231714D02*
X133064362Y-119279351D01*
X133064362Y-119279351D02*
X133159634Y-119326987D01*
X133159634Y-119326987D02*
X133254907Y-119326987D01*
X133254907Y-119326987D02*
X133350180Y-119279351D01*
X133350180Y-119279351D02*
X133397816Y-119231714D01*
X133397816Y-119231714D02*
X133445452Y-119136442D01*
X133445452Y-119136442D02*
X133493088Y-118945897D01*
X133493088Y-118945897D02*
X133493088Y-118707715D01*
X133493088Y-118707715D02*
X133445452Y-118517170D01*
X133445452Y-118517170D02*
X133397816Y-118421897D01*
X133397816Y-118421897D02*
X133350180Y-118374261D01*
X133350180Y-118374261D02*
X133254907Y-118326625D01*
X132492726Y-118945897D02*
X131730546Y-118945897D01*
%TO.C,U4*%
X134678290Y-80808031D02*
X134678290Y-80903426D01*
X134678290Y-80903426D02*
X134725988Y-80998822D01*
X134725988Y-80998822D02*
X134773686Y-81046520D01*
X134773686Y-81046520D02*
X134869082Y-81094218D01*
X134869082Y-81094218D02*
X135059873Y-81141915D01*
X135059873Y-81141915D02*
X135298362Y-81141915D01*
X135298362Y-81141915D02*
X135489153Y-81094218D01*
X135489153Y-81094218D02*
X135584549Y-81046520D01*
X135584549Y-81046520D02*
X135632247Y-80998822D01*
X135632247Y-80998822D02*
X135679944Y-80903426D01*
X135679944Y-80903426D02*
X135679944Y-80808031D01*
X135679944Y-80808031D02*
X135632247Y-80712635D01*
X135632247Y-80712635D02*
X135584549Y-80664937D01*
X135584549Y-80664937D02*
X135489153Y-80617240D01*
X135489153Y-80617240D02*
X135298362Y-80569542D01*
X135298362Y-80569542D02*
X135059873Y-80569542D01*
X135059873Y-80569542D02*
X134869082Y-80617240D01*
X134869082Y-80617240D02*
X134773686Y-80664937D01*
X134773686Y-80664937D02*
X134725988Y-80712635D01*
X134725988Y-80712635D02*
X134678290Y-80808031D01*
X135298362Y-81571196D02*
X135298362Y-82334361D01*
X135679944Y-81952778D02*
X134916779Y-81952778D01*
X134678889Y-102678201D02*
X134678889Y-103345860D01*
X134678889Y-103345860D02*
X135680377Y-102916651D01*
X135298858Y-103727379D02*
X135298858Y-104490418D01*
X135680377Y-104108898D02*
X134917339Y-104108898D01*
X137224004Y-102679281D02*
X137224004Y-103346184D01*
X137224004Y-103346184D02*
X138224358Y-102917461D01*
X137843271Y-103727271D02*
X137843271Y-104489446D01*
X137223996Y-80834492D02*
X137223996Y-80929765D01*
X137223996Y-80929765D02*
X137271632Y-81025037D01*
X137271632Y-81025037D02*
X137319268Y-81072674D01*
X137319268Y-81072674D02*
X137414541Y-81120310D01*
X137414541Y-81120310D02*
X137605086Y-81167946D01*
X137605086Y-81167946D02*
X137843268Y-81167946D01*
X137843268Y-81167946D02*
X138033813Y-81120310D01*
X138033813Y-81120310D02*
X138129085Y-81072674D01*
X138129085Y-81072674D02*
X138176722Y-81025037D01*
X138176722Y-81025037D02*
X138224358Y-80929765D01*
X138224358Y-80929765D02*
X138224358Y-80834492D01*
X138224358Y-80834492D02*
X138176722Y-80739220D01*
X138176722Y-80739220D02*
X138129085Y-80691583D01*
X138129085Y-80691583D02*
X138033813Y-80643947D01*
X138033813Y-80643947D02*
X137843268Y-80596311D01*
X137843268Y-80596311D02*
X137605086Y-80596311D01*
X137605086Y-80596311D02*
X137414541Y-80643947D01*
X137414541Y-80643947D02*
X137319268Y-80691583D01*
X137319268Y-80691583D02*
X137271632Y-80739220D01*
X137271632Y-80739220D02*
X137223996Y-80834492D01*
X137843268Y-81596673D02*
X137843268Y-82358854D01*
%TO.C,U2*%
X90361507Y-117411996D02*
X90266234Y-117411996D01*
X90266234Y-117411996D02*
X90170962Y-117459632D01*
X90170962Y-117459632D02*
X90123326Y-117507268D01*
X90123326Y-117507268D02*
X90075689Y-117602541D01*
X90075689Y-117602541D02*
X90028053Y-117793086D01*
X90028053Y-117793086D02*
X90028053Y-118031268D01*
X90028053Y-118031268D02*
X90075689Y-118221813D01*
X90075689Y-118221813D02*
X90123326Y-118317085D01*
X90123326Y-118317085D02*
X90170962Y-118364722D01*
X90170962Y-118364722D02*
X90266234Y-118412358D01*
X90266234Y-118412358D02*
X90361507Y-118412358D01*
X90361507Y-118412358D02*
X90456780Y-118364722D01*
X90456780Y-118364722D02*
X90504416Y-118317085D01*
X90504416Y-118317085D02*
X90552052Y-118221813D01*
X90552052Y-118221813D02*
X90599688Y-118031268D01*
X90599688Y-118031268D02*
X90599688Y-117793086D01*
X90599688Y-117793086D02*
X90552052Y-117602541D01*
X90552052Y-117602541D02*
X90504416Y-117507268D01*
X90504416Y-117507268D02*
X90456780Y-117459632D01*
X90456780Y-117459632D02*
X90361507Y-117411996D01*
X89599326Y-118031268D02*
X88837146Y-118031268D01*
X69024718Y-117412004D02*
X68357815Y-117412004D01*
X68357815Y-117412004D02*
X68786538Y-118412358D01*
X67976728Y-118031271D02*
X67214554Y-118031271D01*
X69025798Y-115278019D02*
X68358139Y-115278019D01*
X68358139Y-115278019D02*
X68787348Y-116279507D01*
X67976620Y-115897988D02*
X67213582Y-115897988D01*
X67595101Y-116279507D02*
X67595101Y-115516469D01*
X90387968Y-114866290D02*
X90292573Y-114866290D01*
X90292573Y-114866290D02*
X90197177Y-114913988D01*
X90197177Y-114913988D02*
X90149479Y-114961686D01*
X90149479Y-114961686D02*
X90101781Y-115057082D01*
X90101781Y-115057082D02*
X90054084Y-115247873D01*
X90054084Y-115247873D02*
X90054084Y-115486362D01*
X90054084Y-115486362D02*
X90101781Y-115677153D01*
X90101781Y-115677153D02*
X90149479Y-115772549D01*
X90149479Y-115772549D02*
X90197177Y-115820247D01*
X90197177Y-115820247D02*
X90292573Y-115867944D01*
X90292573Y-115867944D02*
X90387968Y-115867944D01*
X90387968Y-115867944D02*
X90483364Y-115820247D01*
X90483364Y-115820247D02*
X90531062Y-115772549D01*
X90531062Y-115772549D02*
X90578759Y-115677153D01*
X90578759Y-115677153D02*
X90626457Y-115486362D01*
X90626457Y-115486362D02*
X90626457Y-115247873D01*
X90626457Y-115247873D02*
X90578759Y-115057082D01*
X90578759Y-115057082D02*
X90531062Y-114961686D01*
X90531062Y-114961686D02*
X90483364Y-114913988D01*
X90483364Y-114913988D02*
X90387968Y-114866290D01*
X89624803Y-115486362D02*
X88861639Y-115486362D01*
X89243221Y-115867944D02*
X89243221Y-115104779D01*
%TO.C,U1*%
X64381570Y-102870031D02*
X64381570Y-102965426D01*
X64381570Y-102965426D02*
X64429268Y-103060822D01*
X64429268Y-103060822D02*
X64476966Y-103108520D01*
X64476966Y-103108520D02*
X64572362Y-103156218D01*
X64572362Y-103156218D02*
X64763153Y-103203915D01*
X64763153Y-103203915D02*
X65001642Y-103203915D01*
X65001642Y-103203915D02*
X65192433Y-103156218D01*
X65192433Y-103156218D02*
X65287829Y-103108520D01*
X65287829Y-103108520D02*
X65335527Y-103060822D01*
X65335527Y-103060822D02*
X65383224Y-102965426D01*
X65383224Y-102965426D02*
X65383224Y-102870031D01*
X65383224Y-102870031D02*
X65335527Y-102774635D01*
X65335527Y-102774635D02*
X65287829Y-102726937D01*
X65287829Y-102726937D02*
X65192433Y-102679240D01*
X65192433Y-102679240D02*
X65001642Y-102631542D01*
X65001642Y-102631542D02*
X64763153Y-102631542D01*
X64763153Y-102631542D02*
X64572362Y-102679240D01*
X64572362Y-102679240D02*
X64476966Y-102726937D01*
X64476966Y-102726937D02*
X64429268Y-102774635D01*
X64429268Y-102774635D02*
X64381570Y-102870031D01*
X65001642Y-103633196D02*
X65001642Y-104396361D01*
X65383224Y-104014778D02*
X64620059Y-104014778D01*
X64381149Y-80631001D02*
X64381149Y-81298660D01*
X64381149Y-81298660D02*
X65382637Y-80869451D01*
X65001118Y-81680179D02*
X65001118Y-82443218D01*
X65382637Y-82061698D02*
X64619599Y-82061698D01*
X61837252Y-80632081D02*
X61837252Y-81298984D01*
X61837252Y-81298984D02*
X62837606Y-80870261D01*
X62456519Y-81680071D02*
X62456519Y-82442246D01*
X61837254Y-102845292D02*
X61837254Y-102940565D01*
X61837254Y-102940565D02*
X61884890Y-103035837D01*
X61884890Y-103035837D02*
X61932526Y-103083474D01*
X61932526Y-103083474D02*
X62027799Y-103131110D01*
X62027799Y-103131110D02*
X62218344Y-103178746D01*
X62218344Y-103178746D02*
X62456526Y-103178746D01*
X62456526Y-103178746D02*
X62647071Y-103131110D01*
X62647071Y-103131110D02*
X62742343Y-103083474D01*
X62742343Y-103083474D02*
X62789980Y-103035837D01*
X62789980Y-103035837D02*
X62837616Y-102940565D01*
X62837616Y-102940565D02*
X62837616Y-102845292D01*
X62837616Y-102845292D02*
X62789980Y-102750020D01*
X62789980Y-102750020D02*
X62742343Y-102702383D01*
X62742343Y-102702383D02*
X62647071Y-102654747D01*
X62647071Y-102654747D02*
X62456526Y-102607111D01*
X62456526Y-102607111D02*
X62218344Y-102607111D01*
X62218344Y-102607111D02*
X62027799Y-102654747D01*
X62027799Y-102654747D02*
X61932526Y-102702383D01*
X61932526Y-102702383D02*
X61884890Y-102750020D01*
X61884890Y-102750020D02*
X61837254Y-102845292D01*
X62456526Y-103607473D02*
X62456526Y-104369654D01*
D12*
%TO.C,J1*%
X70286004Y-67437000D02*
G75*
G03*
X70286004Y-67437000I-381000J0D01*
G01*
%TD*%
M02*
