M48
; DRILL file {KiCad 7.0.5-0} date 2023 July 18, Tuesday 13:45:39
; FORMAT={-:-/ absolute / inch / decimal}
; #@! TF.CreationDate,2023-07-18T13:45:39-04:00
; #@! TF.GenerationSoftware,Kicad,Pcbnew,7.0.5-0
; #@! TF.FileFunction,Plated,1,4,PTH
FMAT,2
INCH
; #@! TA.AperFunction,Plated,PTH,ComponentDrill
T1C0.0320
; #@! TA.AperFunction,Plated,PTH,ComponentDrill
T2C0.0350
; #@! TA.AperFunction,Plated,PTH,ComponentDrill
T3C0.1160
%
G90
G05
T1
X3.105Y-2.505
X3.105Y-2.655
X3.155Y-2.43
X3.155Y-2.58
X3.205Y-2.505
X3.205Y-2.655
X3.255Y-2.43
X3.255Y-2.58
X3.305Y-2.505
X3.305Y-2.655
X3.355Y-2.43
X3.355Y-2.58
X3.405Y-2.505
X3.405Y-2.655
X3.455Y-2.43
X3.455Y-2.58
X3.505Y-2.505
X3.505Y-2.655
X3.555Y-2.43
X3.555Y-2.58
X3.605Y-2.505
X3.605Y-2.655
X3.655Y-2.43
X3.655Y-2.58
X3.705Y-2.505
X3.705Y-2.655
X3.755Y-2.43
X3.755Y-2.58
X3.805Y-2.505
X3.805Y-2.655
X3.855Y-2.43
X3.855Y-2.58
X3.905Y-2.505
X3.905Y-2.655
X3.955Y-2.43
X3.955Y-2.58
X4.005Y-2.505
X4.005Y-2.655
X4.055Y-2.43
X4.055Y-2.58
X4.105Y-2.505
X4.105Y-2.655
X4.155Y-2.43
X4.155Y-2.58
X4.205Y-2.505
X4.205Y-2.655
X4.255Y-2.43
X4.255Y-2.58
X4.305Y-2.505
X4.305Y-2.655
X4.355Y-2.43
X4.355Y-2.58
X4.405Y-2.505
X4.405Y-2.655
X4.455Y-2.43
X4.455Y-2.58
X4.505Y-2.505
X4.505Y-2.655
X4.555Y-2.43
X4.555Y-2.58
X4.605Y-2.505
X4.605Y-2.655
X4.655Y-2.43
X4.655Y-2.58
X4.705Y-2.505
X4.705Y-2.655
X4.755Y-2.43
X4.755Y-2.58
T2
X2.431Y-3.292
X2.431Y-3.392
X2.431Y-3.492
X2.431Y-3.592
X2.431Y-3.692
X2.431Y-3.792
X2.431Y-3.892
X2.431Y-3.992
X2.531Y-3.292
X2.531Y-3.392
X2.531Y-3.492
X2.531Y-3.592
X2.531Y-3.692
X2.531Y-3.792
X2.531Y-3.892
X2.531Y-3.992
X2.748Y-4.569
X2.748Y-4.669
X2.848Y-4.569
X2.848Y-4.669
X2.948Y-4.569
X2.948Y-4.669
X3.048Y-4.569
X3.048Y-4.669
X3.148Y-4.569
X3.148Y-4.669
X3.248Y-4.569
X3.248Y-4.669
X3.348Y-4.569
X3.348Y-4.669
X3.448Y-4.569
X3.448Y-4.669
X4.432Y-4.569
X4.432Y-4.669
X4.532Y-4.569
X4.532Y-4.669
X4.632Y-4.569
X4.632Y-4.669
X4.732Y-4.569
X4.732Y-4.669
X4.832Y-4.569
X4.832Y-4.669
X4.932Y-4.569
X4.932Y-4.669
X5.032Y-4.569
X5.032Y-4.669
X5.132Y-4.569
X5.132Y-4.669
X5.349Y-3.292
X5.349Y-3.392
X5.349Y-3.492
X5.349Y-3.592
X5.349Y-3.692
X5.349Y-3.792
X5.349Y-3.892
X5.349Y-3.992
X5.449Y-3.292
X5.449Y-3.392
X5.449Y-3.492
X5.449Y-3.592
X5.449Y-3.692
X5.449Y-3.792
X5.449Y-3.892
X5.449Y-3.992
T3
X2.46Y-3.06
X2.46Y-4.224
X2.516Y-4.64
X3.68Y-4.64
X4.2Y-4.64
X5.364Y-4.64
X5.42Y-3.06
X5.42Y-4.224
T0
M30
