%TF.GenerationSoftware,KiCad,Pcbnew,7.0.5-0*%
%TF.CreationDate,2023-07-18T13:45:43-04:00*%
%TF.ProjectId,quad_sipm,71756164-5f73-4697-906d-2e6b69636164,rev?*%
%TF.SameCoordinates,Original*%
%TF.FileFunction,Legend,Top*%
%TF.FilePolarity,Positive*%
%FSLAX46Y46*%
G04 Gerber Fmt 4.6, Leading zero omitted, Abs format (unit mm)*
G04 Created by KiCad (PCBNEW 7.0.5-0) date 2023-07-18 13:45:43*
%MOMM*%
%LPD*%
G01*
G04 APERTURE LIST*
%ADD10C,0.150000*%
%ADD11C,0.152400*%
%ADD12C,0.508000*%
G04 APERTURE END LIST*
D10*
%TO.C,U3*%
X119912977Y-132596594D02*
X119912977Y-133925036D01*
X119912977Y-133925036D02*
X119991120Y-134081323D01*
X119991120Y-134081323D02*
X120069264Y-134159467D01*
X120069264Y-134159467D02*
X120225551Y-134237610D01*
X120225551Y-134237610D02*
X120538126Y-134237610D01*
X120538126Y-134237610D02*
X120694413Y-134159467D01*
X120694413Y-134159467D02*
X120772556Y-134081323D01*
X120772556Y-134081323D02*
X120850700Y-133925036D01*
X120850700Y-133925036D02*
X120850700Y-132596594D01*
X121475849Y-132596594D02*
X122491716Y-132596594D01*
X122491716Y-132596594D02*
X121944711Y-133221743D01*
X121944711Y-133221743D02*
X122179142Y-133221743D01*
X122179142Y-133221743D02*
X122335429Y-133299887D01*
X122335429Y-133299887D02*
X122413573Y-133378030D01*
X122413573Y-133378030D02*
X122491716Y-133534318D01*
X122491716Y-133534318D02*
X122491716Y-133925036D01*
X122491716Y-133925036D02*
X122413573Y-134081323D01*
X122413573Y-134081323D02*
X122335429Y-134159467D01*
X122335429Y-134159467D02*
X122179142Y-134237610D01*
X122179142Y-134237610D02*
X121710280Y-134237610D01*
X121710280Y-134237610D02*
X121553993Y-134159467D01*
X121553993Y-134159467D02*
X121475849Y-134081323D01*
%TO.C,U4*%
X152408594Y-94056622D02*
X153737036Y-94056622D01*
X153737036Y-94056622D02*
X153893323Y-93978479D01*
X153893323Y-93978479D02*
X153971467Y-93900335D01*
X153971467Y-93900335D02*
X154049610Y-93744048D01*
X154049610Y-93744048D02*
X154049610Y-93431473D01*
X154049610Y-93431473D02*
X153971467Y-93275186D01*
X153971467Y-93275186D02*
X153893323Y-93197043D01*
X153893323Y-93197043D02*
X153737036Y-93118899D01*
X153737036Y-93118899D02*
X152408594Y-93118899D01*
X152955599Y-91634170D02*
X154049610Y-91634170D01*
X152330451Y-92024888D02*
X153502605Y-92415606D01*
X153502605Y-92415606D02*
X153502605Y-91399739D01*
%TO.C,U2*%
X77139377Y-132596594D02*
X77139377Y-133925036D01*
X77139377Y-133925036D02*
X77217520Y-134081323D01*
X77217520Y-134081323D02*
X77295664Y-134159467D01*
X77295664Y-134159467D02*
X77451951Y-134237610D01*
X77451951Y-134237610D02*
X77764526Y-134237610D01*
X77764526Y-134237610D02*
X77920813Y-134159467D01*
X77920813Y-134159467D02*
X77998956Y-134081323D01*
X77998956Y-134081323D02*
X78077100Y-133925036D01*
X78077100Y-133925036D02*
X78077100Y-132596594D01*
X78780393Y-132752881D02*
X78858537Y-132674738D01*
X78858537Y-132674738D02*
X79014824Y-132596594D01*
X79014824Y-132596594D02*
X79405542Y-132596594D01*
X79405542Y-132596594D02*
X79561829Y-132674738D01*
X79561829Y-132674738D02*
X79639973Y-132752881D01*
X79639973Y-132752881D02*
X79718116Y-132909169D01*
X79718116Y-132909169D02*
X79718116Y-133065456D01*
X79718116Y-133065456D02*
X79639973Y-133299887D01*
X79639973Y-133299887D02*
X78702249Y-134237610D01*
X78702249Y-134237610D02*
X79718116Y-134237610D01*
%TO.C,U1*%
X45964104Y-93457572D02*
X47292546Y-93457572D01*
X47292546Y-93457572D02*
X47448833Y-93379429D01*
X47448833Y-93379429D02*
X47526977Y-93301285D01*
X47526977Y-93301285D02*
X47605120Y-93144998D01*
X47605120Y-93144998D02*
X47605120Y-92832423D01*
X47605120Y-92832423D02*
X47526977Y-92676136D01*
X47526977Y-92676136D02*
X47448833Y-92597993D01*
X47448833Y-92597993D02*
X47292546Y-92519849D01*
X47292546Y-92519849D02*
X45964104Y-92519849D01*
X47605120Y-90878833D02*
X47605120Y-91816556D01*
X47605120Y-91347694D02*
X45964104Y-91347694D01*
X45964104Y-91347694D02*
X46198535Y-91503982D01*
X46198535Y-91503982D02*
X46354822Y-91660269D01*
X46354822Y-91660269D02*
X46432966Y-91816556D01*
%TO.C,J1*%
X99742666Y-72606819D02*
X99742666Y-73321104D01*
X99742666Y-73321104D02*
X99695047Y-73463961D01*
X99695047Y-73463961D02*
X99599809Y-73559200D01*
X99599809Y-73559200D02*
X99456952Y-73606819D01*
X99456952Y-73606819D02*
X99361714Y-73606819D01*
X100742666Y-73606819D02*
X100171238Y-73606819D01*
X100456952Y-73606819D02*
X100456952Y-72606819D01*
X100456952Y-72606819D02*
X100361714Y-72749676D01*
X100361714Y-72749676D02*
X100266476Y-72844914D01*
X100266476Y-72844914D02*
X100171238Y-72892533D01*
D11*
%TO.C,U3*%
X141325600Y-132054600D02*
X141325600Y-114757200D01*
X141325600Y-114757200D02*
X101600000Y-114757200D01*
X101600000Y-132054600D02*
X141325600Y-132054600D01*
X101600000Y-114757200D02*
X101600000Y-132054600D01*
D12*
X129971800Y-114147600D02*
G75*
G03*
X130733800Y-114147600I381000J0D01*
G01*
X130733800Y-114147600D02*
G75*
G03*
X129971800Y-114147600I-381000J0D01*
G01*
D11*
%TO.C,U4*%
X151866600Y-72644000D02*
X134569200Y-72644000D01*
X134569200Y-72644000D02*
X134569200Y-112369600D01*
X151866600Y-112369600D02*
X151866600Y-72644000D01*
X134569200Y-112369600D02*
X151866600Y-112369600D01*
D12*
X133959600Y-83997800D02*
G75*
G03*
X133959600Y-83235800I0J381000D01*
G01*
X133959600Y-83235800D02*
G75*
G03*
X133959600Y-83997800I0J-381000D01*
G01*
%TO.C,U2*%
X87960200Y-114147600D02*
G75*
G03*
X87198200Y-114147600I-381000J0D01*
G01*
X87198200Y-114147600D02*
G75*
G03*
X87960200Y-114147600I381000J0D01*
G01*
D11*
X58826400Y-114757200D02*
X58826400Y-132054600D01*
X58826400Y-132054600D02*
X98552000Y-132054600D01*
X98552000Y-114757200D02*
X58826400Y-114757200D01*
X98552000Y-132054600D02*
X98552000Y-114757200D01*
%TO.C,U1*%
X48285400Y-112369600D02*
X65582800Y-112369600D01*
X65582800Y-112369600D02*
X65582800Y-72644000D01*
X48285400Y-72644000D02*
X48285400Y-112369600D01*
X65582800Y-72644000D02*
X48285400Y-72644000D01*
D12*
X66192400Y-101015800D02*
G75*
G03*
X66192400Y-101777800I0J-381000D01*
G01*
X66192400Y-101777800D02*
G75*
G03*
X66192400Y-101015800I0J381000D01*
G01*
D11*
%TO.C,J1*%
X70540017Y-52805000D02*
X70540017Y-70458000D01*
X70540017Y-70458000D02*
X129103983Y-70458000D01*
X129103983Y-52805000D02*
X70540017Y-52805000D01*
X129103983Y-70458000D02*
X129103983Y-52805000D01*
D12*
X70286004Y-67437000D02*
G75*
G03*
X70286004Y-67437000I-381000J0D01*
G01*
%TD*%
M02*
