%TF.GenerationSoftware,KiCad,Pcbnew,7.0.5-0*%
%TF.CreationDate,2023-07-18T13:45:43-04:00*%
%TF.ProjectId,quad_sipm,71756164-5f73-4697-906d-2e6b69636164,rev?*%
%TF.SameCoordinates,Original*%
%TF.FileFunction,Copper,L4,Bot*%
%TF.FilePolarity,Positive*%
%FSLAX46Y46*%
G04 Gerber Fmt 4.6, Leading zero omitted, Abs format (unit mm)*
G04 Created by KiCad (PCBNEW 7.0.5-0) date 2023-07-18 13:45:43*
%MOMM*%
%LPD*%
G01*
G04 APERTURE LIST*
%TA.AperFunction,ComponentPad*%
%ADD10R,1.397000X1.397000*%
%TD*%
%TA.AperFunction,ComponentPad*%
%ADD11C,1.397000*%
%TD*%
%TA.AperFunction,ComponentPad*%
%ADD12C,3.962400*%
%TD*%
%TA.AperFunction,ComponentPad*%
%ADD13C,1.320800*%
%TD*%
%TA.AperFunction,Conductor*%
%ADD14C,0.068580*%
%TD*%
G04 APERTURE END LIST*
D10*
%TO.P,U3,1,1*%
%TO.N,/31-*%
X130352800Y-116052600D03*
D11*
%TO.P,U3,2,2*%
%TO.N,/31+*%
X130352800Y-118592600D03*
%TO.P,U3,3,3*%
%TO.N,/30-*%
X127812800Y-116052600D03*
%TO.P,U3,4,4*%
%TO.N,/30+*%
X127812800Y-118592600D03*
%TO.P,U3,5,5*%
%TO.N,/29-*%
X125272800Y-116052600D03*
%TO.P,U3,6,6*%
%TO.N,/29+*%
X125272800Y-118592600D03*
%TO.P,U3,7,7*%
%TO.N,/28-*%
X122732800Y-116052600D03*
%TO.P,U3,8,8*%
%TO.N,/28+*%
X122732800Y-118592600D03*
%TO.P,U3,9,9*%
%TO.N,/27-*%
X120192800Y-116052600D03*
%TO.P,U3,10,10*%
%TO.N,/27+*%
X120192800Y-118592600D03*
%TO.P,U3,11,11*%
%TO.N,/26-*%
X117652800Y-116052600D03*
%TO.P,U3,12,12*%
%TO.N,/26+*%
X117652800Y-118592600D03*
%TO.P,U3,13,13*%
%TO.N,/25-*%
X115112800Y-116052600D03*
%TO.P,U3,14,14*%
%TO.N,/25+*%
X115112800Y-118592600D03*
%TO.P,U3,15,15*%
%TO.N,/24-*%
X112572800Y-116052600D03*
%TO.P,U3,16,16*%
%TO.N,/24+*%
X112572800Y-118592600D03*
D12*
%TO.P,U3,17*%
%TO.N,N/C*%
X136245600Y-117856000D03*
%TO.P,U3,18*%
X106680000Y-117856000D03*
%TD*%
D10*
%TO.P,U4,1,1*%
%TO.N,/15-*%
X135864600Y-83616800D03*
D11*
%TO.P,U4,2,2*%
%TO.N,/15+*%
X138404600Y-83616800D03*
%TO.P,U4,3,3*%
%TO.N,/14-*%
X135864600Y-86156800D03*
%TO.P,U4,4,4*%
%TO.N,/14+*%
X138404600Y-86156800D03*
%TO.P,U4,5,5*%
%TO.N,/13-*%
X135864600Y-88696800D03*
%TO.P,U4,6,6*%
%TO.N,/13+*%
X138404600Y-88696800D03*
%TO.P,U4,7,7*%
%TO.N,/12-*%
X135864600Y-91236800D03*
%TO.P,U4,8,8*%
%TO.N,/12+*%
X138404600Y-91236800D03*
%TO.P,U4,9,9*%
%TO.N,/11-*%
X135864600Y-93776800D03*
%TO.P,U4,10,10*%
%TO.N,/11+*%
X138404600Y-93776800D03*
%TO.P,U4,11,11*%
%TO.N,/10-*%
X135864600Y-96316800D03*
%TO.P,U4,12,12*%
%TO.N,/10+*%
X138404600Y-96316800D03*
%TO.P,U4,13,13*%
%TO.N,/9-*%
X135864600Y-98856800D03*
%TO.P,U4,14,14*%
%TO.N,/9+*%
X138404600Y-98856800D03*
%TO.P,U4,15,15*%
%TO.N,/8-*%
X135864600Y-101396800D03*
%TO.P,U4,16,16*%
%TO.N,/8+*%
X138404600Y-101396800D03*
D12*
%TO.P,U4,17*%
%TO.N,N/C*%
X137668000Y-77724000D03*
%TO.P,U4,18*%
X137668000Y-107289600D03*
%TD*%
%TO.P,U2,18*%
%TO.N,N/C*%
X63906400Y-117856000D03*
%TO.P,U2,17*%
X93472000Y-117856000D03*
D11*
%TO.P,U2,16,16*%
%TO.N,/16+*%
X69799200Y-118592600D03*
%TO.P,U2,15,15*%
%TO.N,/16-*%
X69799200Y-116052600D03*
%TO.P,U2,14,14*%
%TO.N,/17+*%
X72339200Y-118592600D03*
%TO.P,U2,13,13*%
%TO.N,/17-*%
X72339200Y-116052600D03*
%TO.P,U2,12,12*%
%TO.N,/18+*%
X74879200Y-118592600D03*
%TO.P,U2,11,11*%
%TO.N,/18-*%
X74879200Y-116052600D03*
%TO.P,U2,10,10*%
%TO.N,/19+*%
X77419200Y-118592600D03*
%TO.P,U2,9,9*%
%TO.N,/19-*%
X77419200Y-116052600D03*
%TO.P,U2,8,8*%
%TO.N,/20+*%
X79959200Y-118592600D03*
%TO.P,U2,7,7*%
%TO.N,/20-*%
X79959200Y-116052600D03*
%TO.P,U2,6,6*%
%TO.N,/21+*%
X82499200Y-118592600D03*
%TO.P,U2,5,5*%
%TO.N,/21-*%
X82499200Y-116052600D03*
%TO.P,U2,4,4*%
%TO.N,/22+*%
X85039200Y-118592600D03*
%TO.P,U2,3,3*%
%TO.N,/22-*%
X85039200Y-116052600D03*
%TO.P,U2,2,2*%
%TO.N,/23+*%
X87579200Y-118592600D03*
D10*
%TO.P,U2,1,1*%
%TO.N,/23-*%
X87579200Y-116052600D03*
%TD*%
%TO.P,U1,1,1*%
%TO.N,/7-*%
X64287400Y-101396800D03*
D11*
%TO.P,U1,2,2*%
%TO.N,/7+*%
X61747400Y-101396800D03*
%TO.P,U1,3,3*%
%TO.N,/6-*%
X64287400Y-98856800D03*
%TO.P,U1,4,4*%
%TO.N,/6+*%
X61747400Y-98856800D03*
%TO.P,U1,5,5*%
%TO.N,/5-*%
X64287400Y-96316800D03*
%TO.P,U1,6,6*%
%TO.N,/5+*%
X61747400Y-96316800D03*
%TO.P,U1,7,7*%
%TO.N,/4-*%
X64287400Y-93776800D03*
%TO.P,U1,8,8*%
%TO.N,/4+*%
X61747400Y-93776800D03*
%TO.P,U1,9,9*%
%TO.N,/3-*%
X64287400Y-91236800D03*
%TO.P,U1,10,10*%
%TO.N,/3+*%
X61747400Y-91236800D03*
%TO.P,U1,11,11*%
%TO.N,/2-*%
X64287400Y-88696800D03*
%TO.P,U1,12,12*%
%TO.N,/2+*%
X61747400Y-88696800D03*
%TO.P,U1,13,13*%
%TO.N,/1-*%
X64287400Y-86156800D03*
%TO.P,U1,14,14*%
%TO.N,/1+*%
X61747400Y-86156800D03*
%TO.P,U1,15,15*%
%TO.N,/0-*%
X64287400Y-83616800D03*
%TO.P,U1,16,16*%
%TO.N,/0+*%
X61747400Y-83616800D03*
D12*
%TO.P,U1,17*%
%TO.N,N/C*%
X62484000Y-107289600D03*
%TO.P,U1,18*%
X62484000Y-77724000D03*
%TD*%
D13*
%TO.P,J1,1,1*%
%TO.N,/0+*%
X78867000Y-67437000D03*
%TO.P,J1,2,2*%
%TO.N,/16+*%
X78867000Y-63627000D03*
%TO.P,J1,3,3*%
%TO.N,/0-*%
X80137000Y-65532000D03*
%TO.P,J1,4,4*%
%TO.N,/16-*%
X80137000Y-61722000D03*
%TO.P,J1,5,5*%
%TO.N,/1+*%
X81407000Y-67437000D03*
%TO.P,J1,6,6*%
%TO.N,/17+*%
X81407000Y-63627000D03*
%TO.P,J1,7,7*%
%TO.N,/1-*%
X82677000Y-65532000D03*
%TO.P,J1,8,8*%
%TO.N,/17-*%
X82677000Y-61722000D03*
%TO.P,J1,9,9*%
%TO.N,/2+*%
X83947000Y-67437000D03*
%TO.P,J1,10,10*%
%TO.N,/18+*%
X83947000Y-63627000D03*
%TO.P,J1,11,11*%
%TO.N,/2-*%
X85217000Y-65532000D03*
%TO.P,J1,12,12*%
%TO.N,/18-*%
X85217000Y-61722000D03*
%TO.P,J1,13,13*%
%TO.N,/3+*%
X86487000Y-67437000D03*
%TO.P,J1,14,14*%
%TO.N,/19+*%
X86487000Y-63627000D03*
%TO.P,J1,15,15*%
%TO.N,/3-*%
X87757000Y-65532000D03*
%TO.P,J1,16,16*%
%TO.N,/19-*%
X87757000Y-61722000D03*
%TO.P,J1,17,17*%
%TO.N,/4+*%
X89027000Y-67437000D03*
%TO.P,J1,18,18*%
%TO.N,/20+*%
X89027000Y-63627000D03*
%TO.P,J1,19,19*%
%TO.N,/4-*%
X90297000Y-65532000D03*
%TO.P,J1,20,20*%
%TO.N,/20-*%
X90297000Y-61722000D03*
%TO.P,J1,21,21*%
%TO.N,/5+*%
X91567000Y-67437000D03*
%TO.P,J1,22,22*%
%TO.N,/21+*%
X91567000Y-63627000D03*
%TO.P,J1,23,23*%
%TO.N,/5-*%
X92837000Y-65532000D03*
%TO.P,J1,24,24*%
%TO.N,/21-*%
X92837000Y-61722000D03*
%TO.P,J1,25,25*%
%TO.N,/6+*%
X94107000Y-67437000D03*
%TO.P,J1,26,26*%
%TO.N,/22+*%
X94107000Y-63627000D03*
%TO.P,J1,27,27*%
%TO.N,/6-*%
X95377000Y-65532000D03*
%TO.P,J1,28,28*%
%TO.N,/22-*%
X95377000Y-61722000D03*
%TO.P,J1,29,29*%
%TO.N,/7+*%
X96647000Y-67437000D03*
%TO.P,J1,30,30*%
%TO.N,/23+*%
X96647000Y-63627000D03*
%TO.P,J1,31,31*%
%TO.N,/7-*%
X97917000Y-65532000D03*
%TO.P,J1,32,32*%
%TO.N,/23-*%
X97917000Y-61722000D03*
%TO.P,J1,33,33*%
%TO.N,/8+*%
X99187000Y-67437000D03*
%TO.P,J1,34,34*%
%TO.N,/24+*%
X99187000Y-63627000D03*
%TO.P,J1,35,35*%
%TO.N,/8-*%
X100457000Y-65532000D03*
%TO.P,J1,36,36*%
%TO.N,/24-*%
X100457000Y-61722000D03*
%TO.P,J1,37,37*%
%TO.N,/9+*%
X101727000Y-67437000D03*
%TO.P,J1,38,38*%
%TO.N,/25+*%
X101727000Y-63627000D03*
%TO.P,J1,39,39*%
%TO.N,/9-*%
X102997000Y-65532000D03*
%TO.P,J1,40,40*%
%TO.N,/25-*%
X102997000Y-61722000D03*
%TO.P,J1,41,41*%
%TO.N,/10+*%
X104267000Y-67437000D03*
%TO.P,J1,42,42*%
%TO.N,/26+*%
X104267000Y-63627000D03*
%TO.P,J1,43,43*%
%TO.N,/10-*%
X105537000Y-65532000D03*
%TO.P,J1,44,44*%
%TO.N,/26-*%
X105537000Y-61722000D03*
%TO.P,J1,45,45*%
%TO.N,/11+*%
X106807000Y-67437000D03*
%TO.P,J1,46,46*%
%TO.N,/27+*%
X106807000Y-63627000D03*
%TO.P,J1,47,47*%
%TO.N,/11-*%
X108077000Y-65532000D03*
%TO.P,J1,48,48*%
%TO.N,/27-*%
X108077000Y-61722000D03*
%TO.P,J1,49,49*%
%TO.N,/12+*%
X109347000Y-67437000D03*
%TO.P,J1,50,50*%
%TO.N,/28+*%
X109347000Y-63627000D03*
%TO.P,J1,51,51*%
%TO.N,/12-*%
X110617000Y-65532000D03*
%TO.P,J1,52,52*%
%TO.N,/28-*%
X110617000Y-61722000D03*
%TO.P,J1,53,53*%
%TO.N,/13+*%
X111887000Y-67437000D03*
%TO.P,J1,54,54*%
%TO.N,/29+*%
X111887000Y-63627000D03*
%TO.P,J1,55,55*%
%TO.N,/13-*%
X113157000Y-65532000D03*
%TO.P,J1,56,56*%
%TO.N,/29-*%
X113157000Y-61722000D03*
%TO.P,J1,57,57*%
%TO.N,/14+*%
X114427000Y-67437000D03*
%TO.P,J1,58,58*%
%TO.N,/30+*%
X114427000Y-63627000D03*
%TO.P,J1,59,59*%
%TO.N,/14-*%
X115697000Y-65532000D03*
%TO.P,J1,60,60*%
%TO.N,/30-*%
X115697000Y-61722000D03*
%TO.P,J1,61,61*%
%TO.N,/15+*%
X116967000Y-67437000D03*
%TO.P,J1,62,62*%
%TO.N,/31+*%
X116967000Y-63627000D03*
%TO.P,J1,63,63*%
%TO.N,/15-*%
X118237000Y-65532000D03*
%TO.P,J1,64,64*%
%TO.N,/31-*%
X118237000Y-61722000D03*
%TO.P,J1,65,65*%
%TO.N,unconnected-(J1-Pad65)*%
X119507000Y-67437000D03*
%TO.P,J1,66,66*%
%TO.N,unconnected-(J1-Pad66)*%
X119507000Y-63627000D03*
%TO.P,J1,67,67*%
%TO.N,unconnected-(J1-Pad67)*%
X120777000Y-65532000D03*
%TO.P,J1,68,68*%
%TO.N,unconnected-(J1-Pad68)*%
X120777000Y-61722000D03*
%TD*%
D14*
%TO.N,/24+*%
X111252000Y-117271800D02*
X111252000Y-103632000D01*
X112572800Y-118592600D02*
X111252000Y-117271800D01*
X111252000Y-103632000D02*
X100766600Y-93146600D01*
X100766600Y-93146600D02*
X100766600Y-67199811D01*
X100766600Y-67199811D02*
X99187000Y-65620211D01*
X99187000Y-65620211D02*
X99187000Y-63627000D01*
%TO.N,/25+*%
X115112800Y-118592600D02*
X114114300Y-117594100D01*
X114114300Y-117594100D02*
X114114300Y-102545672D01*
X114114300Y-102545672D02*
X102687400Y-91118772D01*
X102687400Y-91118772D02*
X102687400Y-66580611D01*
X102687400Y-66580611D02*
X101727000Y-65620211D01*
X101727000Y-65620211D02*
X101727000Y-63627000D01*
%TO.N,/26+*%
X117652800Y-118592600D02*
X116654300Y-117594100D01*
X116654300Y-117594100D02*
X116654300Y-104519986D01*
X116654300Y-104519986D02*
X105664000Y-93529686D01*
X105664000Y-93529686D02*
X105664000Y-67017211D01*
X105664000Y-67017211D02*
X104267000Y-65620211D01*
X104267000Y-65620211D02*
X104267000Y-63627000D01*
%TO.N,/27+*%
X120192800Y-118592600D02*
X119194653Y-117594453D01*
X119194653Y-106494653D02*
X107767400Y-95067400D01*
X107767400Y-66619400D02*
X106807000Y-65659000D01*
X119194653Y-117594453D02*
X119194653Y-106494653D01*
X107767400Y-95067400D02*
X107767400Y-66619400D01*
X106807000Y-65659000D02*
X106807000Y-63627000D01*
%TO.N,/28+*%
X122732800Y-118592600D02*
X121734300Y-117594100D01*
X121734300Y-108018300D02*
X110307400Y-96591400D01*
X121734300Y-117594100D02*
X121734300Y-108018300D01*
X109347000Y-65620211D02*
X109347000Y-63627000D01*
X110307400Y-96591400D02*
X110307400Y-66580611D01*
X110307400Y-66580611D02*
X109347000Y-65620211D01*
%TO.N,/29+*%
X125272800Y-118592600D02*
X124274653Y-117594453D01*
X124274653Y-117594453D02*
X124274653Y-109092339D01*
X111887000Y-65659000D02*
X111887000Y-63627000D01*
X124274653Y-109092339D02*
X112847400Y-97665086D01*
X112847400Y-97665086D02*
X112847400Y-66619400D01*
X112847400Y-66619400D02*
X111887000Y-65659000D01*
%TO.N,/30+*%
X127812800Y-118592600D02*
X126814300Y-117594100D01*
X126814300Y-117594100D02*
X126814300Y-111066300D01*
X126814300Y-111066300D02*
X115387400Y-99639400D01*
X115387400Y-99639400D02*
X115387400Y-66580611D01*
X114427000Y-65620211D02*
X114427000Y-63627000D01*
X115387400Y-66580611D02*
X114427000Y-65620211D01*
%TO.N,/31+*%
X130352800Y-118592600D02*
X128811300Y-117051100D01*
X128811300Y-117051100D02*
X128811300Y-112327004D01*
X128811300Y-112327004D02*
X117927400Y-101443104D01*
X117927400Y-101443104D02*
X117927400Y-66580611D01*
X117927400Y-66580611D02*
X116967000Y-65620211D01*
X116967000Y-65620211D02*
X116967000Y-63627000D01*
%TO.N,/23+*%
X88900000Y-117271800D02*
X88900000Y-103124000D01*
X96647000Y-65620211D02*
X96647000Y-63627000D01*
X87579200Y-118592600D02*
X88900000Y-117271800D01*
X88900000Y-103124000D02*
X95067400Y-96956600D01*
X95067400Y-96956600D02*
X95067400Y-67199811D01*
X95067400Y-67199811D02*
X96647000Y-65620211D01*
%TO.N,/22+*%
X85039200Y-118592600D02*
X86037700Y-117594100D01*
X86037700Y-117594100D02*
X86037700Y-103503986D01*
X94107000Y-65620211D02*
X94107000Y-63627000D01*
X86037700Y-103503986D02*
X92527400Y-97014286D01*
X92527400Y-67199811D02*
X94107000Y-65620211D01*
X92527400Y-97014286D02*
X92527400Y-67199811D01*
%TO.N,/21+*%
X82499200Y-118592600D02*
X83497700Y-117594100D01*
X90606600Y-66873400D02*
X91567000Y-65913000D01*
X83497700Y-117594100D02*
X83497700Y-105478300D01*
X83497700Y-105478300D02*
X90606600Y-98369400D01*
X90606600Y-98369400D02*
X90606600Y-66873400D01*
X91567000Y-65913000D02*
X91567000Y-63627000D01*
%TO.N,/20+*%
X79959200Y-118592600D02*
X80957700Y-117594100D01*
X80957700Y-106494300D02*
X88066600Y-99385400D01*
X80957700Y-117594100D02*
X80957700Y-106494300D01*
X88066600Y-99385400D02*
X88066600Y-66873400D01*
X89027000Y-65913000D02*
X89027000Y-63627000D01*
X88066600Y-66873400D02*
X89027000Y-65913000D01*
%TO.N,/19+*%
X77419200Y-118592600D02*
X78417700Y-117594100D01*
X78417700Y-117594100D02*
X78417700Y-108018300D01*
X78417700Y-108018300D02*
X85344000Y-101092000D01*
X85344000Y-101092000D02*
X85344000Y-66763211D01*
X85344000Y-66763211D02*
X86487000Y-65620211D01*
X86487000Y-65620211D02*
X86487000Y-63627000D01*
%TO.N,/18+*%
X74879200Y-118592600D02*
X76420700Y-117051100D01*
X76420700Y-117051100D02*
X76420700Y-108606672D01*
X76420700Y-108606672D02*
X82804000Y-102223372D01*
X82804000Y-102223372D02*
X82804000Y-66763211D01*
X82804000Y-66763211D02*
X83947000Y-65620211D01*
X83947000Y-65620211D02*
X83947000Y-63627000D01*
%TO.N,/17+*%
X72339200Y-118592600D02*
X73337700Y-117594100D01*
X73337700Y-117594100D02*
X73337700Y-111123986D01*
X80264000Y-66763211D02*
X81407000Y-65620211D01*
X73337700Y-111123986D02*
X80264000Y-104197686D01*
X80264000Y-104197686D02*
X80264000Y-66763211D01*
X81407000Y-65620211D02*
X81407000Y-63627000D01*
%TO.N,/16+*%
X69799200Y-118592600D02*
X68800700Y-117594100D01*
X76708000Y-107188000D02*
X76708000Y-65786000D01*
X68800700Y-117594100D02*
X68800700Y-115095300D01*
X76708000Y-65786000D02*
X78867000Y-63627000D01*
X68800700Y-115095300D02*
X76708000Y-107188000D01*
%TD*%
M02*
