%TF.GenerationSoftware,KiCad,Pcbnew,7.0.5-0*%
%TF.CreationDate,2023-07-24T12:13:10-04:00*%
%TF.ProjectId,quad_sipm,71756164-5f73-4697-906d-2e6b69636164,rev?*%
%TF.SameCoordinates,Original*%
%TF.FileFunction,Soldermask,Bot*%
%TF.FilePolarity,Negative*%
%FSLAX46Y46*%
G04 Gerber Fmt 4.6, Leading zero omitted, Abs format (unit mm)*
G04 Created by KiCad (PCBNEW 7.0.5-0) date 2023-07-24 12:13:10*
%MOMM*%
%LPD*%
G01*
G04 APERTURE LIST*
G04 Aperture macros list*
%AMRoundRect*
0 Rectangle with rounded corners*
0 $1 Rounding radius*
0 $2 $3 $4 $5 $6 $7 $8 $9 X,Y pos of 4 corners*
0 Add a 4 corners polygon primitive as box body*
4,1,4,$2,$3,$4,$5,$6,$7,$8,$9,$2,$3,0*
0 Add four circle primitives for the rounded corners*
1,1,$1+$1,$2,$3*
1,1,$1+$1,$4,$5*
1,1,$1+$1,$6,$7*
1,1,$1+$1,$8,$9*
0 Add four rect primitives between the rounded corners*
20,1,$1+$1,$2,$3,$4,$5,0*
20,1,$1+$1,$4,$5,$6,$7,0*
20,1,$1+$1,$6,$7,$8,$9,0*
20,1,$1+$1,$8,$9,$2,$3,0*%
G04 Aperture macros list end*
%ADD10C,16.800000*%
%ADD11C,12.000000*%
%ADD12C,1.524000*%
%ADD13R,1.700000X1.700000*%
%ADD14O,1.700000X1.700000*%
%ADD15RoundRect,0.250000X0.412500X0.650000X-0.412500X0.650000X-0.412500X-0.650000X0.412500X-0.650000X0*%
%ADD16R,0.939800X0.558800*%
%ADD17R,2.184400X4.292600*%
G04 APERTURE END LIST*
D10*
%TO.C,H2*%
X100000000Y-100000000D03*
%TD*%
D11*
%TO.C,H3*%
X100000000Y-137000000D03*
%TD*%
%TO.C,H4*%
X137000000Y-100000000D03*
%TD*%
%TO.C,H5*%
X63000000Y-100000000D03*
%TD*%
%TO.C,H1*%
X100000000Y-63000000D03*
%TD*%
D12*
%TO.C,D1*%
X131335000Y-127635000D03*
X124035000Y-127635000D03*
%TD*%
%TO.C,D2*%
X76090000Y-127635000D03*
X68790000Y-127635000D03*
%TD*%
%TO.C,D4*%
X76090000Y-72390000D03*
X68790000Y-72390000D03*
%TD*%
%TO.C,D3*%
X131335000Y-72390000D03*
X124035000Y-72390000D03*
%TD*%
D13*
%TO.C,J1*%
X125685000Y-143555000D03*
D14*
X128225000Y-143555000D03*
X130765000Y-143555000D03*
%TD*%
D15*
%TO.C,C4*%
X78397500Y-63792500D03*
X75272500Y-63792500D03*
%TD*%
D13*
%TO.C,J3*%
X125685000Y-56560000D03*
D14*
X128225000Y-56560000D03*
X130765000Y-56560000D03*
%TD*%
D13*
%TO.C,J4*%
X69215000Y-56515000D03*
D14*
X71755000Y-56515000D03*
X74295000Y-56515000D03*
%TD*%
D15*
%TO.C,C3*%
X134570000Y-63500000D03*
X131445000Y-63500000D03*
%TD*%
D13*
%TO.C,J2*%
X69215000Y-143510000D03*
D14*
X71755000Y-143510000D03*
X74295000Y-143510000D03*
%TD*%
D15*
%TO.C,C1*%
X134620000Y-135255000D03*
X131495000Y-135255000D03*
%TD*%
%TO.C,C2*%
X77762500Y-136525000D03*
X74637500Y-136525000D03*
%TD*%
D16*
%TO.C,U3*%
X126365000Y-60680600D03*
X126365000Y-66319400D03*
D17*
X126365000Y-63500000D03*
%TD*%
D16*
%TO.C,U2*%
X125095000Y-139979400D03*
X125095000Y-134340600D03*
D17*
X125095000Y-137160000D03*
%TD*%
D16*
%TO.C,U4*%
X69215000Y-60680600D03*
X69215000Y-66319400D03*
D17*
X69215000Y-63500000D03*
%TD*%
D16*
%TO.C,U1*%
X69850000Y-139979400D03*
X69850000Y-134340600D03*
D17*
X69850000Y-137160000D03*
%TD*%
M02*
