%TF.GenerationSoftware,KiCad,Pcbnew,7.0.5-0*%
%TF.CreationDate,2023-07-24T12:13:10-04:00*%
%TF.ProjectId,quad_sipm,71756164-5f73-4697-906d-2e6b69636164,rev?*%
%TF.SameCoordinates,Original*%
%TF.FileFunction,Legend,Bot*%
%TF.FilePolarity,Positive*%
%FSLAX46Y46*%
G04 Gerber Fmt 4.6, Leading zero omitted, Abs format (unit mm)*
G04 Created by KiCad (PCBNEW 7.0.5-0) date 2023-07-24 12:13:10*
%MOMM*%
%LPD*%
G01*
G04 APERTURE LIST*
%ADD10C,0.150000*%
%ADD11C,0.203200*%
%ADD12C,0.120000*%
%ADD13C,0.152400*%
G04 APERTURE END LIST*
D10*
X124597438Y-53601904D02*
X124549819Y-53506666D01*
X124549819Y-53506666D02*
X124549819Y-53363809D01*
X124549819Y-53363809D02*
X124597438Y-53220952D01*
X124597438Y-53220952D02*
X124692676Y-53125714D01*
X124692676Y-53125714D02*
X124787914Y-53078095D01*
X124787914Y-53078095D02*
X124978390Y-53030476D01*
X124978390Y-53030476D02*
X125121247Y-53030476D01*
X125121247Y-53030476D02*
X125311723Y-53078095D01*
X125311723Y-53078095D02*
X125406961Y-53125714D01*
X125406961Y-53125714D02*
X125502200Y-53220952D01*
X125502200Y-53220952D02*
X125549819Y-53363809D01*
X125549819Y-53363809D02*
X125549819Y-53459047D01*
X125549819Y-53459047D02*
X125502200Y-53601904D01*
X125502200Y-53601904D02*
X125454580Y-53649523D01*
X125454580Y-53649523D02*
X125121247Y-53649523D01*
X125121247Y-53649523D02*
X125121247Y-53459047D01*
X131899819Y-53078095D02*
X130899819Y-53078095D01*
X131899819Y-53649523D02*
X131328390Y-53220952D01*
X130899819Y-53649523D02*
X131471247Y-53078095D01*
X128439104Y-53101905D02*
X128439104Y-53578095D01*
X128724819Y-53006667D02*
X127724819Y-53340000D01*
X127724819Y-53340000D02*
X128724819Y-53673333D01*
X68717438Y-146983220D02*
X68669819Y-146887982D01*
X68669819Y-146887982D02*
X68669819Y-146745125D01*
X68669819Y-146745125D02*
X68717438Y-146602268D01*
X68717438Y-146602268D02*
X68812676Y-146507030D01*
X68812676Y-146507030D02*
X68907914Y-146459411D01*
X68907914Y-146459411D02*
X69098390Y-146411792D01*
X69098390Y-146411792D02*
X69241247Y-146411792D01*
X69241247Y-146411792D02*
X69431723Y-146459411D01*
X69431723Y-146459411D02*
X69526961Y-146507030D01*
X69526961Y-146507030D02*
X69622200Y-146602268D01*
X69622200Y-146602268D02*
X69669819Y-146745125D01*
X69669819Y-146745125D02*
X69669819Y-146840363D01*
X69669819Y-146840363D02*
X69622200Y-146983220D01*
X69622200Y-146983220D02*
X69574580Y-147030839D01*
X69574580Y-147030839D02*
X69241247Y-147030839D01*
X69241247Y-147030839D02*
X69241247Y-146840363D01*
X71924104Y-146554649D02*
X71924104Y-147030839D01*
X72209819Y-146459411D02*
X71209819Y-146792744D01*
X71209819Y-146792744D02*
X72209819Y-147126077D01*
X75384819Y-53078095D02*
X74384819Y-53078095D01*
X75384819Y-53649523D02*
X74813390Y-53220952D01*
X74384819Y-53649523D02*
X74956247Y-53078095D01*
X71924104Y-53101905D02*
X71924104Y-53578095D01*
X72209819Y-53006667D02*
X71209819Y-53340000D01*
X71209819Y-53340000D02*
X72209819Y-53673333D01*
X74749819Y-146423095D02*
X73749819Y-146423095D01*
X74749819Y-146994523D02*
X74178390Y-146565952D01*
X73749819Y-146994523D02*
X74321247Y-146423095D01*
X128439104Y-146446905D02*
X128439104Y-146923095D01*
X128724819Y-146351667D02*
X127724819Y-146685000D01*
X127724819Y-146685000D02*
X128724819Y-147018333D01*
X125232438Y-146983220D02*
X125184819Y-146887982D01*
X125184819Y-146887982D02*
X125184819Y-146745125D01*
X125184819Y-146745125D02*
X125232438Y-146602268D01*
X125232438Y-146602268D02*
X125327676Y-146507030D01*
X125327676Y-146507030D02*
X125422914Y-146459411D01*
X125422914Y-146459411D02*
X125613390Y-146411792D01*
X125613390Y-146411792D02*
X125756247Y-146411792D01*
X125756247Y-146411792D02*
X125946723Y-146459411D01*
X125946723Y-146459411D02*
X126041961Y-146507030D01*
X126041961Y-146507030D02*
X126137200Y-146602268D01*
X126137200Y-146602268D02*
X126184819Y-146745125D01*
X126184819Y-146745125D02*
X126184819Y-146840363D01*
X126184819Y-146840363D02*
X126137200Y-146983220D01*
X126137200Y-146983220D02*
X126089580Y-147030839D01*
X126089580Y-147030839D02*
X125756247Y-147030839D01*
X125756247Y-147030839D02*
X125756247Y-146840363D01*
X131899819Y-146423095D02*
X130899819Y-146423095D01*
X131899819Y-146994523D02*
X131328390Y-146565952D01*
X130899819Y-146994523D02*
X131471247Y-146423095D01*
D11*
X142287744Y-80625815D02*
X142015601Y-80716529D01*
X142015601Y-80716529D02*
X141924887Y-80807243D01*
X141924887Y-80807243D02*
X141834173Y-80988672D01*
X141834173Y-80988672D02*
X141834173Y-81260815D01*
X141834173Y-81260815D02*
X141924887Y-81442243D01*
X141924887Y-81442243D02*
X142015601Y-81532958D01*
X142015601Y-81532958D02*
X142197030Y-81623672D01*
X142197030Y-81623672D02*
X142922744Y-81623672D01*
X142922744Y-81623672D02*
X142922744Y-79718672D01*
X142922744Y-79718672D02*
X142287744Y-79718672D01*
X142287744Y-79718672D02*
X142106316Y-79809386D01*
X142106316Y-79809386D02*
X142015601Y-79900100D01*
X142015601Y-79900100D02*
X141924887Y-80081529D01*
X141924887Y-80081529D02*
X141924887Y-80262958D01*
X141924887Y-80262958D02*
X142015601Y-80444386D01*
X142015601Y-80444386D02*
X142106316Y-80535100D01*
X142106316Y-80535100D02*
X142287744Y-80625815D01*
X142287744Y-80625815D02*
X142922744Y-80625815D01*
X140745601Y-81623672D02*
X140927030Y-81532958D01*
X140927030Y-81532958D02*
X141017744Y-81442243D01*
X141017744Y-81442243D02*
X141108458Y-81260815D01*
X141108458Y-81260815D02*
X141108458Y-80716529D01*
X141108458Y-80716529D02*
X141017744Y-80535100D01*
X141017744Y-80535100D02*
X140927030Y-80444386D01*
X140927030Y-80444386D02*
X140745601Y-80353672D01*
X140745601Y-80353672D02*
X140473458Y-80353672D01*
X140473458Y-80353672D02*
X140292030Y-80444386D01*
X140292030Y-80444386D02*
X140201316Y-80535100D01*
X140201316Y-80535100D02*
X140110601Y-80716529D01*
X140110601Y-80716529D02*
X140110601Y-81260815D01*
X140110601Y-81260815D02*
X140201316Y-81442243D01*
X140201316Y-81442243D02*
X140292030Y-81532958D01*
X140292030Y-81532958D02*
X140473458Y-81623672D01*
X140473458Y-81623672D02*
X140745601Y-81623672D01*
X139384887Y-81532958D02*
X139203459Y-81623672D01*
X139203459Y-81623672D02*
X138840602Y-81623672D01*
X138840602Y-81623672D02*
X138659173Y-81532958D01*
X138659173Y-81532958D02*
X138568459Y-81351529D01*
X138568459Y-81351529D02*
X138568459Y-81260815D01*
X138568459Y-81260815D02*
X138659173Y-81079386D01*
X138659173Y-81079386D02*
X138840602Y-80988672D01*
X138840602Y-80988672D02*
X139112745Y-80988672D01*
X139112745Y-80988672D02*
X139294173Y-80897958D01*
X139294173Y-80897958D02*
X139384887Y-80716529D01*
X139384887Y-80716529D02*
X139384887Y-80625815D01*
X139384887Y-80625815D02*
X139294173Y-80444386D01*
X139294173Y-80444386D02*
X139112745Y-80353672D01*
X139112745Y-80353672D02*
X138840602Y-80353672D01*
X138840602Y-80353672D02*
X138659173Y-80444386D01*
X138024173Y-80353672D02*
X137298459Y-80353672D01*
X137752030Y-79718672D02*
X137752030Y-81351529D01*
X137752030Y-81351529D02*
X137661316Y-81532958D01*
X137661316Y-81532958D02*
X137479887Y-81623672D01*
X137479887Y-81623672D02*
X137298459Y-81623672D01*
X136391316Y-81623672D02*
X136572745Y-81532958D01*
X136572745Y-81532958D02*
X136663459Y-81442243D01*
X136663459Y-81442243D02*
X136754173Y-81260815D01*
X136754173Y-81260815D02*
X136754173Y-80716529D01*
X136754173Y-80716529D02*
X136663459Y-80535100D01*
X136663459Y-80535100D02*
X136572745Y-80444386D01*
X136572745Y-80444386D02*
X136391316Y-80353672D01*
X136391316Y-80353672D02*
X136119173Y-80353672D01*
X136119173Y-80353672D02*
X135937745Y-80444386D01*
X135937745Y-80444386D02*
X135847031Y-80535100D01*
X135847031Y-80535100D02*
X135756316Y-80716529D01*
X135756316Y-80716529D02*
X135756316Y-81260815D01*
X135756316Y-81260815D02*
X135847031Y-81442243D01*
X135847031Y-81442243D02*
X135937745Y-81532958D01*
X135937745Y-81532958D02*
X136119173Y-81623672D01*
X136119173Y-81623672D02*
X136391316Y-81623672D01*
X134939888Y-80353672D02*
X134939888Y-81623672D01*
X134939888Y-80535100D02*
X134849174Y-80444386D01*
X134849174Y-80444386D02*
X134667745Y-80353672D01*
X134667745Y-80353672D02*
X134395602Y-80353672D01*
X134395602Y-80353672D02*
X134214174Y-80444386D01*
X134214174Y-80444386D02*
X134123460Y-80625815D01*
X134123460Y-80625815D02*
X134123460Y-81623672D01*
X131764888Y-79718672D02*
X131764888Y-81260815D01*
X131764888Y-81260815D02*
X131674174Y-81442243D01*
X131674174Y-81442243D02*
X131583460Y-81532958D01*
X131583460Y-81532958D02*
X131402031Y-81623672D01*
X131402031Y-81623672D02*
X131039174Y-81623672D01*
X131039174Y-81623672D02*
X130857745Y-81532958D01*
X130857745Y-81532958D02*
X130767031Y-81442243D01*
X130767031Y-81442243D02*
X130676317Y-81260815D01*
X130676317Y-81260815D02*
X130676317Y-79718672D01*
X129769174Y-80353672D02*
X129769174Y-81623672D01*
X129769174Y-80535100D02*
X129678460Y-80444386D01*
X129678460Y-80444386D02*
X129497031Y-80353672D01*
X129497031Y-80353672D02*
X129224888Y-80353672D01*
X129224888Y-80353672D02*
X129043460Y-80444386D01*
X129043460Y-80444386D02*
X128952746Y-80625815D01*
X128952746Y-80625815D02*
X128952746Y-81623672D01*
X128045603Y-81623672D02*
X128045603Y-80353672D01*
X128045603Y-79718672D02*
X128136317Y-79809386D01*
X128136317Y-79809386D02*
X128045603Y-79900100D01*
X128045603Y-79900100D02*
X127954889Y-79809386D01*
X127954889Y-79809386D02*
X128045603Y-79718672D01*
X128045603Y-79718672D02*
X128045603Y-79900100D01*
X127319889Y-80353672D02*
X126866317Y-81623672D01*
X126866317Y-81623672D02*
X126412746Y-80353672D01*
X124961317Y-81532958D02*
X125142745Y-81623672D01*
X125142745Y-81623672D02*
X125505603Y-81623672D01*
X125505603Y-81623672D02*
X125687031Y-81532958D01*
X125687031Y-81532958D02*
X125777745Y-81351529D01*
X125777745Y-81351529D02*
X125777745Y-80625815D01*
X125777745Y-80625815D02*
X125687031Y-80444386D01*
X125687031Y-80444386D02*
X125505603Y-80353672D01*
X125505603Y-80353672D02*
X125142745Y-80353672D01*
X125142745Y-80353672D02*
X124961317Y-80444386D01*
X124961317Y-80444386D02*
X124870603Y-80625815D01*
X124870603Y-80625815D02*
X124870603Y-80807243D01*
X124870603Y-80807243D02*
X125777745Y-80988672D01*
X124054174Y-81623672D02*
X124054174Y-80353672D01*
X124054174Y-80716529D02*
X123963460Y-80535100D01*
X123963460Y-80535100D02*
X123872746Y-80444386D01*
X123872746Y-80444386D02*
X123691317Y-80353672D01*
X123691317Y-80353672D02*
X123509888Y-80353672D01*
X122965602Y-81532958D02*
X122784174Y-81623672D01*
X122784174Y-81623672D02*
X122421317Y-81623672D01*
X122421317Y-81623672D02*
X122239888Y-81532958D01*
X122239888Y-81532958D02*
X122149174Y-81351529D01*
X122149174Y-81351529D02*
X122149174Y-81260815D01*
X122149174Y-81260815D02*
X122239888Y-81079386D01*
X122239888Y-81079386D02*
X122421317Y-80988672D01*
X122421317Y-80988672D02*
X122693460Y-80988672D01*
X122693460Y-80988672D02*
X122874888Y-80897958D01*
X122874888Y-80897958D02*
X122965602Y-80716529D01*
X122965602Y-80716529D02*
X122965602Y-80625815D01*
X122965602Y-80625815D02*
X122874888Y-80444386D01*
X122874888Y-80444386D02*
X122693460Y-80353672D01*
X122693460Y-80353672D02*
X122421317Y-80353672D01*
X122421317Y-80353672D02*
X122239888Y-80444386D01*
X121332745Y-81623672D02*
X121332745Y-80353672D01*
X121332745Y-79718672D02*
X121423459Y-79809386D01*
X121423459Y-79809386D02*
X121332745Y-79900100D01*
X121332745Y-79900100D02*
X121242031Y-79809386D01*
X121242031Y-79809386D02*
X121332745Y-79718672D01*
X121332745Y-79718672D02*
X121332745Y-79900100D01*
X120697745Y-80353672D02*
X119972031Y-80353672D01*
X120425602Y-79718672D02*
X120425602Y-81351529D01*
X120425602Y-81351529D02*
X120334888Y-81532958D01*
X120334888Y-81532958D02*
X120153459Y-81623672D01*
X120153459Y-81623672D02*
X119972031Y-81623672D01*
X119518460Y-80353672D02*
X119064888Y-81623672D01*
X118611317Y-80353672D02*
X119064888Y-81623672D01*
X119064888Y-81623672D02*
X119246317Y-82077243D01*
X119246317Y-82077243D02*
X119337031Y-82167958D01*
X119337031Y-82167958D02*
X119518460Y-82258672D01*
X116434173Y-80625815D02*
X115799173Y-80625815D01*
X115527030Y-81623672D02*
X116434173Y-81623672D01*
X116434173Y-81623672D02*
X116434173Y-79718672D01*
X116434173Y-79718672D02*
X115527030Y-79718672D01*
X114710602Y-81623672D02*
X114710602Y-79718672D01*
X114710602Y-79718672D02*
X114257031Y-79718672D01*
X114257031Y-79718672D02*
X113984888Y-79809386D01*
X113984888Y-79809386D02*
X113803459Y-79990815D01*
X113803459Y-79990815D02*
X113712745Y-80172243D01*
X113712745Y-80172243D02*
X113622031Y-80535100D01*
X113622031Y-80535100D02*
X113622031Y-80807243D01*
X113622031Y-80807243D02*
X113712745Y-81170100D01*
X113712745Y-81170100D02*
X113803459Y-81351529D01*
X113803459Y-81351529D02*
X113984888Y-81532958D01*
X113984888Y-81532958D02*
X114257031Y-81623672D01*
X114257031Y-81623672D02*
X114710602Y-81623672D01*
X112170602Y-80625815D02*
X112805602Y-80625815D01*
X112805602Y-81623672D02*
X112805602Y-79718672D01*
X112805602Y-79718672D02*
X111898459Y-79718672D01*
X142922744Y-84690722D02*
X142922744Y-82785722D01*
X142922744Y-82785722D02*
X142469173Y-82785722D01*
X142469173Y-82785722D02*
X142197030Y-82876436D01*
X142197030Y-82876436D02*
X142015601Y-83057865D01*
X142015601Y-83057865D02*
X141924887Y-83239293D01*
X141924887Y-83239293D02*
X141834173Y-83602150D01*
X141834173Y-83602150D02*
X141834173Y-83874293D01*
X141834173Y-83874293D02*
X141924887Y-84237150D01*
X141924887Y-84237150D02*
X142015601Y-84418579D01*
X142015601Y-84418579D02*
X142197030Y-84600008D01*
X142197030Y-84600008D02*
X142469173Y-84690722D01*
X142469173Y-84690722D02*
X142922744Y-84690722D01*
X140201316Y-84690722D02*
X140201316Y-83692865D01*
X140201316Y-83692865D02*
X140292030Y-83511436D01*
X140292030Y-83511436D02*
X140473458Y-83420722D01*
X140473458Y-83420722D02*
X140836316Y-83420722D01*
X140836316Y-83420722D02*
X141017744Y-83511436D01*
X140201316Y-84600008D02*
X140382744Y-84690722D01*
X140382744Y-84690722D02*
X140836316Y-84690722D01*
X140836316Y-84690722D02*
X141017744Y-84600008D01*
X141017744Y-84600008D02*
X141108458Y-84418579D01*
X141108458Y-84418579D02*
X141108458Y-84237150D01*
X141108458Y-84237150D02*
X141017744Y-84055722D01*
X141017744Y-84055722D02*
X140836316Y-83965008D01*
X140836316Y-83965008D02*
X140382744Y-83965008D01*
X140382744Y-83965008D02*
X140201316Y-83874293D01*
X139294173Y-84690722D02*
X139294173Y-83420722D01*
X139294173Y-83783579D02*
X139203459Y-83602150D01*
X139203459Y-83602150D02*
X139112745Y-83511436D01*
X139112745Y-83511436D02*
X138931316Y-83420722D01*
X138931316Y-83420722D02*
X138749887Y-83420722D01*
X138114887Y-84690722D02*
X138114887Y-82785722D01*
X137933459Y-83965008D02*
X137389173Y-84690722D01*
X137389173Y-83420722D02*
X138114887Y-84146436D01*
X135302744Y-84872150D02*
X135484173Y-84781436D01*
X135484173Y-84781436D02*
X135665601Y-84600008D01*
X135665601Y-84600008D02*
X135937744Y-84327865D01*
X135937744Y-84327865D02*
X136119173Y-84237150D01*
X136119173Y-84237150D02*
X136300601Y-84237150D01*
X136209887Y-84690722D02*
X136391316Y-84600008D01*
X136391316Y-84600008D02*
X136572744Y-84418579D01*
X136572744Y-84418579D02*
X136663458Y-84055722D01*
X136663458Y-84055722D02*
X136663458Y-83420722D01*
X136663458Y-83420722D02*
X136572744Y-83057865D01*
X136572744Y-83057865D02*
X136391316Y-82876436D01*
X136391316Y-82876436D02*
X136209887Y-82785722D01*
X136209887Y-82785722D02*
X135847030Y-82785722D01*
X135847030Y-82785722D02*
X135665601Y-82876436D01*
X135665601Y-82876436D02*
X135484173Y-83057865D01*
X135484173Y-83057865D02*
X135393458Y-83420722D01*
X135393458Y-83420722D02*
X135393458Y-84055722D01*
X135393458Y-84055722D02*
X135484173Y-84418579D01*
X135484173Y-84418579D02*
X135665601Y-84600008D01*
X135665601Y-84600008D02*
X135847030Y-84690722D01*
X135847030Y-84690722D02*
X136209887Y-84690722D01*
X133760602Y-83420722D02*
X133760602Y-84690722D01*
X134577030Y-83420722D02*
X134577030Y-84418579D01*
X134577030Y-84418579D02*
X134486316Y-84600008D01*
X134486316Y-84600008D02*
X134304887Y-84690722D01*
X134304887Y-84690722D02*
X134032744Y-84690722D01*
X134032744Y-84690722D02*
X133851316Y-84600008D01*
X133851316Y-84600008D02*
X133760602Y-84509293D01*
X132127745Y-84600008D02*
X132309173Y-84690722D01*
X132309173Y-84690722D02*
X132672031Y-84690722D01*
X132672031Y-84690722D02*
X132853459Y-84600008D01*
X132853459Y-84600008D02*
X132944173Y-84418579D01*
X132944173Y-84418579D02*
X132944173Y-83692865D01*
X132944173Y-83692865D02*
X132853459Y-83511436D01*
X132853459Y-83511436D02*
X132672031Y-83420722D01*
X132672031Y-83420722D02*
X132309173Y-83420722D01*
X132309173Y-83420722D02*
X132127745Y-83511436D01*
X132127745Y-83511436D02*
X132037031Y-83692865D01*
X132037031Y-83692865D02*
X132037031Y-83874293D01*
X132037031Y-83874293D02*
X132944173Y-84055722D01*
X131311316Y-84600008D02*
X131129888Y-84690722D01*
X131129888Y-84690722D02*
X130767031Y-84690722D01*
X130767031Y-84690722D02*
X130585602Y-84600008D01*
X130585602Y-84600008D02*
X130494888Y-84418579D01*
X130494888Y-84418579D02*
X130494888Y-84327865D01*
X130494888Y-84327865D02*
X130585602Y-84146436D01*
X130585602Y-84146436D02*
X130767031Y-84055722D01*
X130767031Y-84055722D02*
X131039174Y-84055722D01*
X131039174Y-84055722D02*
X131220602Y-83965008D01*
X131220602Y-83965008D02*
X131311316Y-83783579D01*
X131311316Y-83783579D02*
X131311316Y-83692865D01*
X131311316Y-83692865D02*
X131220602Y-83511436D01*
X131220602Y-83511436D02*
X131039174Y-83420722D01*
X131039174Y-83420722D02*
X130767031Y-83420722D01*
X130767031Y-83420722D02*
X130585602Y-83511436D01*
X129950602Y-83420722D02*
X129224888Y-83420722D01*
X129678459Y-82785722D02*
X129678459Y-84418579D01*
X129678459Y-84418579D02*
X129587745Y-84600008D01*
X129587745Y-84600008D02*
X129406316Y-84690722D01*
X129406316Y-84690722D02*
X129224888Y-84690722D01*
X127138459Y-83692865D02*
X126503459Y-83692865D01*
X126231316Y-84690722D02*
X127138459Y-84690722D01*
X127138459Y-84690722D02*
X127138459Y-82785722D01*
X127138459Y-82785722D02*
X126231316Y-82785722D01*
X125414888Y-84690722D02*
X125414888Y-82785722D01*
X125414888Y-82785722D02*
X124779888Y-84146436D01*
X124779888Y-84146436D02*
X124144888Y-82785722D01*
X124144888Y-82785722D02*
X124144888Y-84690722D01*
X122149174Y-84509293D02*
X122239888Y-84600008D01*
X122239888Y-84600008D02*
X122512031Y-84690722D01*
X122512031Y-84690722D02*
X122693459Y-84690722D01*
X122693459Y-84690722D02*
X122965602Y-84600008D01*
X122965602Y-84600008D02*
X123147031Y-84418579D01*
X123147031Y-84418579D02*
X123237745Y-84237150D01*
X123237745Y-84237150D02*
X123328459Y-83874293D01*
X123328459Y-83874293D02*
X123328459Y-83602150D01*
X123328459Y-83602150D02*
X123237745Y-83239293D01*
X123237745Y-83239293D02*
X123147031Y-83057865D01*
X123147031Y-83057865D02*
X122965602Y-82876436D01*
X122965602Y-82876436D02*
X122693459Y-82785722D01*
X122693459Y-82785722D02*
X122512031Y-82785722D01*
X122512031Y-82785722D02*
X122239888Y-82876436D01*
X122239888Y-82876436D02*
X122149174Y-82967150D01*
X121423459Y-84146436D02*
X120516317Y-84146436D01*
X121604888Y-84690722D02*
X120969888Y-82785722D01*
X120969888Y-82785722D02*
X120334888Y-84690722D01*
X118792745Y-84690722D02*
X119699888Y-84690722D01*
X119699888Y-84690722D02*
X119699888Y-82785722D01*
X115436316Y-84872150D02*
X115617745Y-84781436D01*
X115617745Y-84781436D02*
X115799173Y-84600008D01*
X115799173Y-84600008D02*
X116071316Y-84327865D01*
X116071316Y-84327865D02*
X116252745Y-84237150D01*
X116252745Y-84237150D02*
X116434173Y-84237150D01*
X116343459Y-84690722D02*
X116524888Y-84600008D01*
X116524888Y-84600008D02*
X116706316Y-84418579D01*
X116706316Y-84418579D02*
X116797030Y-84055722D01*
X116797030Y-84055722D02*
X116797030Y-83420722D01*
X116797030Y-83420722D02*
X116706316Y-83057865D01*
X116706316Y-83057865D02*
X116524888Y-82876436D01*
X116524888Y-82876436D02*
X116343459Y-82785722D01*
X116343459Y-82785722D02*
X115980602Y-82785722D01*
X115980602Y-82785722D02*
X115799173Y-82876436D01*
X115799173Y-82876436D02*
X115617745Y-83057865D01*
X115617745Y-83057865D02*
X115527030Y-83420722D01*
X115527030Y-83420722D02*
X115527030Y-84055722D01*
X115527030Y-84055722D02*
X115617745Y-84418579D01*
X115617745Y-84418579D02*
X115799173Y-84600008D01*
X115799173Y-84600008D02*
X115980602Y-84690722D01*
X115980602Y-84690722D02*
X116343459Y-84690722D01*
X113894174Y-83420722D02*
X113894174Y-84690722D01*
X114710602Y-83420722D02*
X114710602Y-84418579D01*
X114710602Y-84418579D02*
X114619888Y-84600008D01*
X114619888Y-84600008D02*
X114438459Y-84690722D01*
X114438459Y-84690722D02*
X114166316Y-84690722D01*
X114166316Y-84690722D02*
X113984888Y-84600008D01*
X113984888Y-84600008D02*
X113894174Y-84509293D01*
X112170603Y-84690722D02*
X112170603Y-83692865D01*
X112170603Y-83692865D02*
X112261317Y-83511436D01*
X112261317Y-83511436D02*
X112442745Y-83420722D01*
X112442745Y-83420722D02*
X112805603Y-83420722D01*
X112805603Y-83420722D02*
X112987031Y-83511436D01*
X112170603Y-84600008D02*
X112352031Y-84690722D01*
X112352031Y-84690722D02*
X112805603Y-84690722D01*
X112805603Y-84690722D02*
X112987031Y-84600008D01*
X112987031Y-84600008D02*
X113077745Y-84418579D01*
X113077745Y-84418579D02*
X113077745Y-84237150D01*
X113077745Y-84237150D02*
X112987031Y-84055722D01*
X112987031Y-84055722D02*
X112805603Y-83965008D01*
X112805603Y-83965008D02*
X112352031Y-83965008D01*
X112352031Y-83965008D02*
X112170603Y-83874293D01*
X110447032Y-84690722D02*
X110447032Y-82785722D01*
X110447032Y-84600008D02*
X110628460Y-84690722D01*
X110628460Y-84690722D02*
X110991317Y-84690722D01*
X110991317Y-84690722D02*
X111172746Y-84600008D01*
X111172746Y-84600008D02*
X111263460Y-84509293D01*
X111263460Y-84509293D02*
X111354174Y-84327865D01*
X111354174Y-84327865D02*
X111354174Y-83783579D01*
X111354174Y-83783579D02*
X111263460Y-83602150D01*
X111263460Y-83602150D02*
X111172746Y-83511436D01*
X111172746Y-83511436D02*
X110991317Y-83420722D01*
X110991317Y-83420722D02*
X110628460Y-83420722D01*
X110628460Y-83420722D02*
X110447032Y-83511436D01*
X108179174Y-84600008D02*
X107907032Y-84690722D01*
X107907032Y-84690722D02*
X107453460Y-84690722D01*
X107453460Y-84690722D02*
X107272032Y-84600008D01*
X107272032Y-84600008D02*
X107181317Y-84509293D01*
X107181317Y-84509293D02*
X107090603Y-84327865D01*
X107090603Y-84327865D02*
X107090603Y-84146436D01*
X107090603Y-84146436D02*
X107181317Y-83965008D01*
X107181317Y-83965008D02*
X107272032Y-83874293D01*
X107272032Y-83874293D02*
X107453460Y-83783579D01*
X107453460Y-83783579D02*
X107816317Y-83692865D01*
X107816317Y-83692865D02*
X107997746Y-83602150D01*
X107997746Y-83602150D02*
X108088460Y-83511436D01*
X108088460Y-83511436D02*
X108179174Y-83330008D01*
X108179174Y-83330008D02*
X108179174Y-83148579D01*
X108179174Y-83148579D02*
X108088460Y-82967150D01*
X108088460Y-82967150D02*
X107997746Y-82876436D01*
X107997746Y-82876436D02*
X107816317Y-82785722D01*
X107816317Y-82785722D02*
X107362746Y-82785722D01*
X107362746Y-82785722D02*
X107090603Y-82876436D01*
X106274174Y-84690722D02*
X106274174Y-83420722D01*
X106274174Y-82785722D02*
X106364888Y-82876436D01*
X106364888Y-82876436D02*
X106274174Y-82967150D01*
X106274174Y-82967150D02*
X106183460Y-82876436D01*
X106183460Y-82876436D02*
X106274174Y-82785722D01*
X106274174Y-82785722D02*
X106274174Y-82967150D01*
X105367031Y-84690722D02*
X105367031Y-82785722D01*
X105367031Y-82785722D02*
X104641317Y-82785722D01*
X104641317Y-82785722D02*
X104459888Y-82876436D01*
X104459888Y-82876436D02*
X104369174Y-82967150D01*
X104369174Y-82967150D02*
X104278460Y-83148579D01*
X104278460Y-83148579D02*
X104278460Y-83420722D01*
X104278460Y-83420722D02*
X104369174Y-83602150D01*
X104369174Y-83602150D02*
X104459888Y-83692865D01*
X104459888Y-83692865D02*
X104641317Y-83783579D01*
X104641317Y-83783579D02*
X105367031Y-83783579D01*
X103462031Y-84690722D02*
X103462031Y-82785722D01*
X103462031Y-82785722D02*
X102827031Y-84146436D01*
X102827031Y-84146436D02*
X102192031Y-82785722D01*
X102192031Y-82785722D02*
X102192031Y-84690722D01*
X143013458Y-86034200D02*
X142922744Y-85943486D01*
X142922744Y-85943486D02*
X142741316Y-85852772D01*
X142741316Y-85852772D02*
X142287744Y-85852772D01*
X142287744Y-85852772D02*
X142106316Y-85943486D01*
X142106316Y-85943486D02*
X142015601Y-86034200D01*
X142015601Y-86034200D02*
X141924887Y-86215629D01*
X141924887Y-86215629D02*
X141924887Y-86397058D01*
X141924887Y-86397058D02*
X142015601Y-86669200D01*
X142015601Y-86669200D02*
X143104173Y-87757772D01*
X143104173Y-87757772D02*
X141924887Y-87757772D01*
X140745601Y-85852772D02*
X140564172Y-85852772D01*
X140564172Y-85852772D02*
X140382744Y-85943486D01*
X140382744Y-85943486D02*
X140292030Y-86034200D01*
X140292030Y-86034200D02*
X140201315Y-86215629D01*
X140201315Y-86215629D02*
X140110601Y-86578486D01*
X140110601Y-86578486D02*
X140110601Y-87032058D01*
X140110601Y-87032058D02*
X140201315Y-87394915D01*
X140201315Y-87394915D02*
X140292030Y-87576343D01*
X140292030Y-87576343D02*
X140382744Y-87667058D01*
X140382744Y-87667058D02*
X140564172Y-87757772D01*
X140564172Y-87757772D02*
X140745601Y-87757772D01*
X140745601Y-87757772D02*
X140927030Y-87667058D01*
X140927030Y-87667058D02*
X141017744Y-87576343D01*
X141017744Y-87576343D02*
X141108458Y-87394915D01*
X141108458Y-87394915D02*
X141199172Y-87032058D01*
X141199172Y-87032058D02*
X141199172Y-86578486D01*
X141199172Y-86578486D02*
X141108458Y-86215629D01*
X141108458Y-86215629D02*
X141017744Y-86034200D01*
X141017744Y-86034200D02*
X140927030Y-85943486D01*
X140927030Y-85943486D02*
X140745601Y-85852772D01*
X139384886Y-86034200D02*
X139294172Y-85943486D01*
X139294172Y-85943486D02*
X139112744Y-85852772D01*
X139112744Y-85852772D02*
X138659172Y-85852772D01*
X138659172Y-85852772D02*
X138477744Y-85943486D01*
X138477744Y-85943486D02*
X138387029Y-86034200D01*
X138387029Y-86034200D02*
X138296315Y-86215629D01*
X138296315Y-86215629D02*
X138296315Y-86397058D01*
X138296315Y-86397058D02*
X138387029Y-86669200D01*
X138387029Y-86669200D02*
X139475601Y-87757772D01*
X139475601Y-87757772D02*
X138296315Y-87757772D01*
X137661315Y-85852772D02*
X136482029Y-85852772D01*
X136482029Y-85852772D02*
X137117029Y-86578486D01*
X137117029Y-86578486D02*
X136844886Y-86578486D01*
X136844886Y-86578486D02*
X136663458Y-86669200D01*
X136663458Y-86669200D02*
X136572743Y-86759915D01*
X136572743Y-86759915D02*
X136482029Y-86941343D01*
X136482029Y-86941343D02*
X136482029Y-87394915D01*
X136482029Y-87394915D02*
X136572743Y-87576343D01*
X136572743Y-87576343D02*
X136663458Y-87667058D01*
X136663458Y-87667058D02*
X136844886Y-87757772D01*
X136844886Y-87757772D02*
X137389172Y-87757772D01*
X137389172Y-87757772D02*
X137570600Y-87667058D01*
X137570600Y-87667058D02*
X137661315Y-87576343D01*
X135665600Y-87032058D02*
X134214172Y-87032058D01*
X132944172Y-85852772D02*
X132762743Y-85852772D01*
X132762743Y-85852772D02*
X132581315Y-85943486D01*
X132581315Y-85943486D02*
X132490601Y-86034200D01*
X132490601Y-86034200D02*
X132399886Y-86215629D01*
X132399886Y-86215629D02*
X132309172Y-86578486D01*
X132309172Y-86578486D02*
X132309172Y-87032058D01*
X132309172Y-87032058D02*
X132399886Y-87394915D01*
X132399886Y-87394915D02*
X132490601Y-87576343D01*
X132490601Y-87576343D02*
X132581315Y-87667058D01*
X132581315Y-87667058D02*
X132762743Y-87757772D01*
X132762743Y-87757772D02*
X132944172Y-87757772D01*
X132944172Y-87757772D02*
X133125601Y-87667058D01*
X133125601Y-87667058D02*
X133216315Y-87576343D01*
X133216315Y-87576343D02*
X133307029Y-87394915D01*
X133307029Y-87394915D02*
X133397743Y-87032058D01*
X133397743Y-87032058D02*
X133397743Y-86578486D01*
X133397743Y-86578486D02*
X133307029Y-86215629D01*
X133307029Y-86215629D02*
X133216315Y-86034200D01*
X133216315Y-86034200D02*
X133125601Y-85943486D01*
X133125601Y-85943486D02*
X132944172Y-85852772D01*
X131674172Y-85852772D02*
X130404172Y-85852772D01*
X130404172Y-85852772D02*
X131220600Y-87757772D01*
X125687028Y-87757772D02*
X126322028Y-86850629D01*
X126775599Y-87757772D02*
X126775599Y-85852772D01*
X126775599Y-85852772D02*
X126049885Y-85852772D01*
X126049885Y-85852772D02*
X125868456Y-85943486D01*
X125868456Y-85943486D02*
X125777742Y-86034200D01*
X125777742Y-86034200D02*
X125687028Y-86215629D01*
X125687028Y-86215629D02*
X125687028Y-86487772D01*
X125687028Y-86487772D02*
X125777742Y-86669200D01*
X125777742Y-86669200D02*
X125868456Y-86759915D01*
X125868456Y-86759915D02*
X126049885Y-86850629D01*
X126049885Y-86850629D02*
X126775599Y-86850629D01*
X124144885Y-87667058D02*
X124326313Y-87757772D01*
X124326313Y-87757772D02*
X124689171Y-87757772D01*
X124689171Y-87757772D02*
X124870599Y-87667058D01*
X124870599Y-87667058D02*
X124961313Y-87485629D01*
X124961313Y-87485629D02*
X124961313Y-86759915D01*
X124961313Y-86759915D02*
X124870599Y-86578486D01*
X124870599Y-86578486D02*
X124689171Y-86487772D01*
X124689171Y-86487772D02*
X124326313Y-86487772D01*
X124326313Y-86487772D02*
X124144885Y-86578486D01*
X124144885Y-86578486D02*
X124054171Y-86759915D01*
X124054171Y-86759915D02*
X124054171Y-86941343D01*
X124054171Y-86941343D02*
X124961313Y-87122772D01*
X123419171Y-86487772D02*
X122965599Y-87757772D01*
X122965599Y-87757772D02*
X122512028Y-86487772D01*
X119427741Y-85852772D02*
X120334884Y-85852772D01*
X120334884Y-85852772D02*
X120425598Y-86759915D01*
X120425598Y-86759915D02*
X120334884Y-86669200D01*
X120334884Y-86669200D02*
X120153456Y-86578486D01*
X120153456Y-86578486D02*
X119699884Y-86578486D01*
X119699884Y-86578486D02*
X119518456Y-86669200D01*
X119518456Y-86669200D02*
X119427741Y-86759915D01*
X119427741Y-86759915D02*
X119337027Y-86941343D01*
X119337027Y-86941343D02*
X119337027Y-87394915D01*
X119337027Y-87394915D02*
X119427741Y-87576343D01*
X119427741Y-87576343D02*
X119518456Y-87667058D01*
X119518456Y-87667058D02*
X119699884Y-87757772D01*
X119699884Y-87757772D02*
X120153456Y-87757772D01*
X120153456Y-87757772D02*
X120334884Y-87667058D01*
X120334884Y-87667058D02*
X120425598Y-87576343D01*
X118520598Y-87576343D02*
X118429884Y-87667058D01*
X118429884Y-87667058D02*
X118520598Y-87757772D01*
X118520598Y-87757772D02*
X118611312Y-87667058D01*
X118611312Y-87667058D02*
X118520598Y-87576343D01*
X118520598Y-87576343D02*
X118520598Y-87757772D01*
X116797027Y-86487772D02*
X116797027Y-87757772D01*
X117250598Y-85762058D02*
X117704169Y-87122772D01*
X117704169Y-87122772D02*
X116524884Y-87122772D01*
D10*
X68162438Y-53565588D02*
X68114819Y-53470350D01*
X68114819Y-53470350D02*
X68114819Y-53327493D01*
X68114819Y-53327493D02*
X68162438Y-53184636D01*
X68162438Y-53184636D02*
X68257676Y-53089398D01*
X68257676Y-53089398D02*
X68352914Y-53041779D01*
X68352914Y-53041779D02*
X68543390Y-52994160D01*
X68543390Y-52994160D02*
X68686247Y-52994160D01*
X68686247Y-52994160D02*
X68876723Y-53041779D01*
X68876723Y-53041779D02*
X68971961Y-53089398D01*
X68971961Y-53089398D02*
X69067200Y-53184636D01*
X69067200Y-53184636D02*
X69114819Y-53327493D01*
X69114819Y-53327493D02*
X69114819Y-53422731D01*
X69114819Y-53422731D02*
X69067200Y-53565588D01*
X69067200Y-53565588D02*
X69019580Y-53613207D01*
X69019580Y-53613207D02*
X68686247Y-53613207D01*
X68686247Y-53613207D02*
X68686247Y-53422731D01*
%TO.C,J1*%
X121374819Y-143176666D02*
X122089104Y-143176666D01*
X122089104Y-143176666D02*
X122231961Y-143129047D01*
X122231961Y-143129047D02*
X122327200Y-143033809D01*
X122327200Y-143033809D02*
X122374819Y-142890952D01*
X122374819Y-142890952D02*
X122374819Y-142795714D01*
X122374819Y-144176666D02*
X122374819Y-143605238D01*
X122374819Y-143890952D02*
X121374819Y-143890952D01*
X121374819Y-143890952D02*
X121517676Y-143795714D01*
X121517676Y-143795714D02*
X121612914Y-143700476D01*
X121612914Y-143700476D02*
X121660533Y-143605238D01*
%TO.C,C4*%
X77001666Y-62302080D02*
X77049285Y-62349700D01*
X77049285Y-62349700D02*
X77192142Y-62397319D01*
X77192142Y-62397319D02*
X77287380Y-62397319D01*
X77287380Y-62397319D02*
X77430237Y-62349700D01*
X77430237Y-62349700D02*
X77525475Y-62254461D01*
X77525475Y-62254461D02*
X77573094Y-62159223D01*
X77573094Y-62159223D02*
X77620713Y-61968747D01*
X77620713Y-61968747D02*
X77620713Y-61825890D01*
X77620713Y-61825890D02*
X77573094Y-61635414D01*
X77573094Y-61635414D02*
X77525475Y-61540176D01*
X77525475Y-61540176D02*
X77430237Y-61444938D01*
X77430237Y-61444938D02*
X77287380Y-61397319D01*
X77287380Y-61397319D02*
X77192142Y-61397319D01*
X77192142Y-61397319D02*
X77049285Y-61444938D01*
X77049285Y-61444938D02*
X77001666Y-61492557D01*
X76144523Y-61730652D02*
X76144523Y-62397319D01*
X76382618Y-61349700D02*
X76620713Y-62063985D01*
X76620713Y-62063985D02*
X76001666Y-62063985D01*
%TO.C,J3*%
X121374819Y-56181666D02*
X122089104Y-56181666D01*
X122089104Y-56181666D02*
X122231961Y-56134047D01*
X122231961Y-56134047D02*
X122327200Y-56038809D01*
X122327200Y-56038809D02*
X122374819Y-55895952D01*
X122374819Y-55895952D02*
X122374819Y-55800714D01*
X121374819Y-56562619D02*
X121374819Y-57181666D01*
X121374819Y-57181666D02*
X121755771Y-56848333D01*
X121755771Y-56848333D02*
X121755771Y-56991190D01*
X121755771Y-56991190D02*
X121803390Y-57086428D01*
X121803390Y-57086428D02*
X121851009Y-57134047D01*
X121851009Y-57134047D02*
X121946247Y-57181666D01*
X121946247Y-57181666D02*
X122184342Y-57181666D01*
X122184342Y-57181666D02*
X122279580Y-57134047D01*
X122279580Y-57134047D02*
X122327200Y-57086428D01*
X122327200Y-57086428D02*
X122374819Y-56991190D01*
X122374819Y-56991190D02*
X122374819Y-56705476D01*
X122374819Y-56705476D02*
X122327200Y-56610238D01*
X122327200Y-56610238D02*
X122279580Y-56562619D01*
%TO.C,J4*%
X64859819Y-56181666D02*
X65574104Y-56181666D01*
X65574104Y-56181666D02*
X65716961Y-56134047D01*
X65716961Y-56134047D02*
X65812200Y-56038809D01*
X65812200Y-56038809D02*
X65859819Y-55895952D01*
X65859819Y-55895952D02*
X65859819Y-55800714D01*
X65193152Y-57086428D02*
X65859819Y-57086428D01*
X64812200Y-56848333D02*
X65526485Y-56610238D01*
X65526485Y-56610238D02*
X65526485Y-57229285D01*
%TO.C,C3*%
X133174166Y-62009580D02*
X133221785Y-62057200D01*
X133221785Y-62057200D02*
X133364642Y-62104819D01*
X133364642Y-62104819D02*
X133459880Y-62104819D01*
X133459880Y-62104819D02*
X133602737Y-62057200D01*
X133602737Y-62057200D02*
X133697975Y-61961961D01*
X133697975Y-61961961D02*
X133745594Y-61866723D01*
X133745594Y-61866723D02*
X133793213Y-61676247D01*
X133793213Y-61676247D02*
X133793213Y-61533390D01*
X133793213Y-61533390D02*
X133745594Y-61342914D01*
X133745594Y-61342914D02*
X133697975Y-61247676D01*
X133697975Y-61247676D02*
X133602737Y-61152438D01*
X133602737Y-61152438D02*
X133459880Y-61104819D01*
X133459880Y-61104819D02*
X133364642Y-61104819D01*
X133364642Y-61104819D02*
X133221785Y-61152438D01*
X133221785Y-61152438D02*
X133174166Y-61200057D01*
X132840832Y-61104819D02*
X132221785Y-61104819D01*
X132221785Y-61104819D02*
X132555118Y-61485771D01*
X132555118Y-61485771D02*
X132412261Y-61485771D01*
X132412261Y-61485771D02*
X132317023Y-61533390D01*
X132317023Y-61533390D02*
X132269404Y-61581009D01*
X132269404Y-61581009D02*
X132221785Y-61676247D01*
X132221785Y-61676247D02*
X132221785Y-61914342D01*
X132221785Y-61914342D02*
X132269404Y-62009580D01*
X132269404Y-62009580D02*
X132317023Y-62057200D01*
X132317023Y-62057200D02*
X132412261Y-62104819D01*
X132412261Y-62104819D02*
X132697975Y-62104819D01*
X132697975Y-62104819D02*
X132793213Y-62057200D01*
X132793213Y-62057200D02*
X132840832Y-62009580D01*
%TO.C,J2*%
X64224819Y-143131666D02*
X64939104Y-143131666D01*
X64939104Y-143131666D02*
X65081961Y-143084047D01*
X65081961Y-143084047D02*
X65177200Y-142988809D01*
X65177200Y-142988809D02*
X65224819Y-142845952D01*
X65224819Y-142845952D02*
X65224819Y-142750714D01*
X64320057Y-143560238D02*
X64272438Y-143607857D01*
X64272438Y-143607857D02*
X64224819Y-143703095D01*
X64224819Y-143703095D02*
X64224819Y-143941190D01*
X64224819Y-143941190D02*
X64272438Y-144036428D01*
X64272438Y-144036428D02*
X64320057Y-144084047D01*
X64320057Y-144084047D02*
X64415295Y-144131666D01*
X64415295Y-144131666D02*
X64510533Y-144131666D01*
X64510533Y-144131666D02*
X64653390Y-144084047D01*
X64653390Y-144084047D02*
X65224819Y-143512619D01*
X65224819Y-143512619D02*
X65224819Y-144131666D01*
%TO.C,C1*%
X133224166Y-133764580D02*
X133271785Y-133812200D01*
X133271785Y-133812200D02*
X133414642Y-133859819D01*
X133414642Y-133859819D02*
X133509880Y-133859819D01*
X133509880Y-133859819D02*
X133652737Y-133812200D01*
X133652737Y-133812200D02*
X133747975Y-133716961D01*
X133747975Y-133716961D02*
X133795594Y-133621723D01*
X133795594Y-133621723D02*
X133843213Y-133431247D01*
X133843213Y-133431247D02*
X133843213Y-133288390D01*
X133843213Y-133288390D02*
X133795594Y-133097914D01*
X133795594Y-133097914D02*
X133747975Y-133002676D01*
X133747975Y-133002676D02*
X133652737Y-132907438D01*
X133652737Y-132907438D02*
X133509880Y-132859819D01*
X133509880Y-132859819D02*
X133414642Y-132859819D01*
X133414642Y-132859819D02*
X133271785Y-132907438D01*
X133271785Y-132907438D02*
X133224166Y-132955057D01*
X132271785Y-133859819D02*
X132843213Y-133859819D01*
X132557499Y-133859819D02*
X132557499Y-132859819D01*
X132557499Y-132859819D02*
X132652737Y-133002676D01*
X132652737Y-133002676D02*
X132747975Y-133097914D01*
X132747975Y-133097914D02*
X132843213Y-133145533D01*
%TO.C,C2*%
X76366666Y-135034580D02*
X76414285Y-135082200D01*
X76414285Y-135082200D02*
X76557142Y-135129819D01*
X76557142Y-135129819D02*
X76652380Y-135129819D01*
X76652380Y-135129819D02*
X76795237Y-135082200D01*
X76795237Y-135082200D02*
X76890475Y-134986961D01*
X76890475Y-134986961D02*
X76938094Y-134891723D01*
X76938094Y-134891723D02*
X76985713Y-134701247D01*
X76985713Y-134701247D02*
X76985713Y-134558390D01*
X76985713Y-134558390D02*
X76938094Y-134367914D01*
X76938094Y-134367914D02*
X76890475Y-134272676D01*
X76890475Y-134272676D02*
X76795237Y-134177438D01*
X76795237Y-134177438D02*
X76652380Y-134129819D01*
X76652380Y-134129819D02*
X76557142Y-134129819D01*
X76557142Y-134129819D02*
X76414285Y-134177438D01*
X76414285Y-134177438D02*
X76366666Y-134225057D01*
X75985713Y-134225057D02*
X75938094Y-134177438D01*
X75938094Y-134177438D02*
X75842856Y-134129819D01*
X75842856Y-134129819D02*
X75604761Y-134129819D01*
X75604761Y-134129819D02*
X75509523Y-134177438D01*
X75509523Y-134177438D02*
X75461904Y-134225057D01*
X75461904Y-134225057D02*
X75414285Y-134320295D01*
X75414285Y-134320295D02*
X75414285Y-134415533D01*
X75414285Y-134415533D02*
X75461904Y-134558390D01*
X75461904Y-134558390D02*
X76033332Y-135129819D01*
X76033332Y-135129819D02*
X75414285Y-135129819D01*
%TO.C,U3*%
X125819819Y-62738095D02*
X126629342Y-62738095D01*
X126629342Y-62738095D02*
X126724580Y-62785714D01*
X126724580Y-62785714D02*
X126772200Y-62833333D01*
X126772200Y-62833333D02*
X126819819Y-62928571D01*
X126819819Y-62928571D02*
X126819819Y-63119047D01*
X126819819Y-63119047D02*
X126772200Y-63214285D01*
X126772200Y-63214285D02*
X126724580Y-63261904D01*
X126724580Y-63261904D02*
X126629342Y-63309523D01*
X126629342Y-63309523D02*
X125819819Y-63309523D01*
X125819819Y-63690476D02*
X125819819Y-64309523D01*
X125819819Y-64309523D02*
X126200771Y-63976190D01*
X126200771Y-63976190D02*
X126200771Y-64119047D01*
X126200771Y-64119047D02*
X126248390Y-64214285D01*
X126248390Y-64214285D02*
X126296009Y-64261904D01*
X126296009Y-64261904D02*
X126391247Y-64309523D01*
X126391247Y-64309523D02*
X126629342Y-64309523D01*
X126629342Y-64309523D02*
X126724580Y-64261904D01*
X126724580Y-64261904D02*
X126772200Y-64214285D01*
X126772200Y-64214285D02*
X126819819Y-64119047D01*
X126819819Y-64119047D02*
X126819819Y-63833333D01*
X126819819Y-63833333D02*
X126772200Y-63738095D01*
X126772200Y-63738095D02*
X126724580Y-63690476D01*
%TO.C,U2*%
X125640180Y-137921904D02*
X124830657Y-137921904D01*
X124830657Y-137921904D02*
X124735419Y-137874285D01*
X124735419Y-137874285D02*
X124687800Y-137826666D01*
X124687800Y-137826666D02*
X124640180Y-137731428D01*
X124640180Y-137731428D02*
X124640180Y-137540952D01*
X124640180Y-137540952D02*
X124687800Y-137445714D01*
X124687800Y-137445714D02*
X124735419Y-137398095D01*
X124735419Y-137398095D02*
X124830657Y-137350476D01*
X124830657Y-137350476D02*
X125640180Y-137350476D01*
X125544942Y-136921904D02*
X125592561Y-136874285D01*
X125592561Y-136874285D02*
X125640180Y-136779047D01*
X125640180Y-136779047D02*
X125640180Y-136540952D01*
X125640180Y-136540952D02*
X125592561Y-136445714D01*
X125592561Y-136445714D02*
X125544942Y-136398095D01*
X125544942Y-136398095D02*
X125449704Y-136350476D01*
X125449704Y-136350476D02*
X125354466Y-136350476D01*
X125354466Y-136350476D02*
X125211609Y-136398095D01*
X125211609Y-136398095D02*
X124640180Y-136969523D01*
X124640180Y-136969523D02*
X124640180Y-136350476D01*
%TO.C,U4*%
X68669819Y-62738095D02*
X69479342Y-62738095D01*
X69479342Y-62738095D02*
X69574580Y-62785714D01*
X69574580Y-62785714D02*
X69622200Y-62833333D01*
X69622200Y-62833333D02*
X69669819Y-62928571D01*
X69669819Y-62928571D02*
X69669819Y-63119047D01*
X69669819Y-63119047D02*
X69622200Y-63214285D01*
X69622200Y-63214285D02*
X69574580Y-63261904D01*
X69574580Y-63261904D02*
X69479342Y-63309523D01*
X69479342Y-63309523D02*
X68669819Y-63309523D01*
X69003152Y-64214285D02*
X69669819Y-64214285D01*
X68622200Y-63976190D02*
X69336485Y-63738095D01*
X69336485Y-63738095D02*
X69336485Y-64357142D01*
%TO.C,U1*%
X70395180Y-137921904D02*
X69585657Y-137921904D01*
X69585657Y-137921904D02*
X69490419Y-137874285D01*
X69490419Y-137874285D02*
X69442800Y-137826666D01*
X69442800Y-137826666D02*
X69395180Y-137731428D01*
X69395180Y-137731428D02*
X69395180Y-137540952D01*
X69395180Y-137540952D02*
X69442800Y-137445714D01*
X69442800Y-137445714D02*
X69490419Y-137398095D01*
X69490419Y-137398095D02*
X69585657Y-137350476D01*
X69585657Y-137350476D02*
X70395180Y-137350476D01*
X69395180Y-136350476D02*
X69395180Y-136921904D01*
X69395180Y-136636190D02*
X70395180Y-136636190D01*
X70395180Y-136636190D02*
X70252323Y-136731428D01*
X70252323Y-136731428D02*
X70157085Y-136826666D01*
X70157085Y-136826666D02*
X70109466Y-136921904D01*
D12*
%TO.C,J1*%
X128270000Y-142180000D02*
X126940000Y-142180000D01*
X126955000Y-142225000D02*
X132095000Y-142225000D01*
X126955000Y-142225000D02*
X126955000Y-144885000D01*
X132095000Y-142225000D02*
X132095000Y-144885000D01*
X122945000Y-142235000D02*
X122970000Y-146310000D01*
X126955000Y-144885000D02*
X132095000Y-144885000D01*
%TO.C,C4*%
X77546252Y-64702500D02*
X76123748Y-64702500D01*
X77546252Y-62882500D02*
X76123748Y-62882500D01*
%TO.C,J3*%
X128270000Y-55185000D02*
X126940000Y-55185000D01*
X126955000Y-55230000D02*
X132095000Y-55230000D01*
X126955000Y-55230000D02*
X126955000Y-57890000D01*
X132095000Y-55230000D02*
X132095000Y-57890000D01*
X122945000Y-55240000D02*
X122970000Y-59315000D01*
X126955000Y-57890000D02*
X132095000Y-57890000D01*
%TO.C,J4*%
X71800000Y-55140000D02*
X70470000Y-55140000D01*
X70485000Y-55185000D02*
X75625000Y-55185000D01*
X70485000Y-55185000D02*
X70485000Y-57845000D01*
X75625000Y-55185000D02*
X75625000Y-57845000D01*
X66475000Y-55195000D02*
X66500000Y-59270000D01*
X70485000Y-57845000D02*
X75625000Y-57845000D01*
%TO.C,C3*%
X133718752Y-64410000D02*
X132296248Y-64410000D01*
X133718752Y-62590000D02*
X132296248Y-62590000D01*
%TO.C,J2*%
X71800000Y-142135000D02*
X70470000Y-142135000D01*
X70485000Y-142180000D02*
X75625000Y-142180000D01*
X70485000Y-142180000D02*
X70485000Y-144840000D01*
X75625000Y-142180000D02*
X75625000Y-144840000D01*
X66475000Y-142190000D02*
X66500000Y-146265000D01*
X70485000Y-144840000D02*
X75625000Y-144840000D01*
%TO.C,C1*%
X133768752Y-136165000D02*
X132346248Y-136165000D01*
X133768752Y-134345000D02*
X132346248Y-134345000D01*
%TO.C,C2*%
X76911252Y-137435000D02*
X75488748Y-137435000D01*
X76911252Y-135615000D02*
X75488748Y-135615000D01*
D13*
%TO.C,U3*%
X124637800Y-60274200D02*
X125587550Y-60274200D01*
X127142450Y-60274200D02*
X128092200Y-60274200D01*
X128092200Y-60274200D02*
X128092200Y-66725800D01*
X124637800Y-66725800D02*
X124637800Y-60274200D01*
X125587550Y-66725800D02*
X124637800Y-66725800D01*
X128092200Y-66725800D02*
X127142450Y-66725800D01*
%TO.C,U2*%
X126822200Y-140385800D02*
X125872450Y-140385800D01*
X124317550Y-140385800D02*
X123367800Y-140385800D01*
X123367800Y-140385800D02*
X123367800Y-133934200D01*
X126822200Y-133934200D02*
X126822200Y-140385800D01*
X125872450Y-133934200D02*
X126822200Y-133934200D01*
X123367800Y-133934200D02*
X124317550Y-133934200D01*
%TO.C,U4*%
X67487800Y-60274200D02*
X68437550Y-60274200D01*
X69992450Y-60274200D02*
X70942200Y-60274200D01*
X70942200Y-60274200D02*
X70942200Y-66725800D01*
X67487800Y-66725800D02*
X67487800Y-60274200D01*
X68437550Y-66725800D02*
X67487800Y-66725800D01*
X70942200Y-66725800D02*
X69992450Y-66725800D01*
%TO.C,U1*%
X71577200Y-140385800D02*
X70627450Y-140385800D01*
X69072550Y-140385800D02*
X68122800Y-140385800D01*
X68122800Y-140385800D02*
X68122800Y-133934200D01*
X71577200Y-133934200D02*
X71577200Y-140385800D01*
X70627450Y-133934200D02*
X71577200Y-133934200D01*
X68122800Y-133934200D02*
X69072550Y-133934200D01*
%TD*%
M02*
