%TF.GenerationSoftware,KiCad,Pcbnew,7.0.5-0*%
%TF.CreationDate,2023-06-21T09:58:00-04:00*%
%TF.ProjectId,chip_carrier,63686970-5f63-4617-9272-6965722e6b69,rev?*%
%TF.SameCoordinates,Original*%
%TF.FileFunction,Legend,Top*%
%TF.FilePolarity,Positive*%
%FSLAX46Y46*%
G04 Gerber Fmt 4.6, Leading zero omitted, Abs format (unit mm)*
G04 Created by KiCad (PCBNEW 7.0.5-0) date 2023-06-21 09:58:00*
%MOMM*%
%LPD*%
G01*
G04 APERTURE LIST*
%ADD10C,0.150000*%
%ADD11C,0.100000*%
%ADD12C,0.120000*%
G04 APERTURE END LIST*
D10*
%TO.C,D1*%
X87141905Y-70724819D02*
X87141905Y-69724819D01*
X87141905Y-69724819D02*
X87380000Y-69724819D01*
X87380000Y-69724819D02*
X87522857Y-69772438D01*
X87522857Y-69772438D02*
X87618095Y-69867676D01*
X87618095Y-69867676D02*
X87665714Y-69962914D01*
X87665714Y-69962914D02*
X87713333Y-70153390D01*
X87713333Y-70153390D02*
X87713333Y-70296247D01*
X87713333Y-70296247D02*
X87665714Y-70486723D01*
X87665714Y-70486723D02*
X87618095Y-70581961D01*
X87618095Y-70581961D02*
X87522857Y-70677200D01*
X87522857Y-70677200D02*
X87380000Y-70724819D01*
X87380000Y-70724819D02*
X87141905Y-70724819D01*
X88665714Y-70724819D02*
X88094286Y-70724819D01*
X88380000Y-70724819D02*
X88380000Y-69724819D01*
X88380000Y-69724819D02*
X88284762Y-69867676D01*
X88284762Y-69867676D02*
X88189524Y-69962914D01*
X88189524Y-69962914D02*
X88094286Y-70010533D01*
D11*
%TO.C,J2*%
X90897419Y-61293333D02*
X91611704Y-61293333D01*
X91611704Y-61293333D02*
X91754561Y-61340952D01*
X91754561Y-61340952D02*
X91849800Y-61436190D01*
X91849800Y-61436190D02*
X91897419Y-61579047D01*
X91897419Y-61579047D02*
X91897419Y-61674285D01*
X90992657Y-60864761D02*
X90945038Y-60817142D01*
X90945038Y-60817142D02*
X90897419Y-60721904D01*
X90897419Y-60721904D02*
X90897419Y-60483809D01*
X90897419Y-60483809D02*
X90945038Y-60388571D01*
X90945038Y-60388571D02*
X90992657Y-60340952D01*
X90992657Y-60340952D02*
X91087895Y-60293333D01*
X91087895Y-60293333D02*
X91183133Y-60293333D01*
X91183133Y-60293333D02*
X91325990Y-60340952D01*
X91325990Y-60340952D02*
X91897419Y-60912380D01*
X91897419Y-60912380D02*
X91897419Y-60293333D01*
%TO.C,J1*%
X81822580Y-60626666D02*
X81108295Y-60626666D01*
X81108295Y-60626666D02*
X80965438Y-60579047D01*
X80965438Y-60579047D02*
X80870200Y-60483809D01*
X80870200Y-60483809D02*
X80822580Y-60340952D01*
X80822580Y-60340952D02*
X80822580Y-60245714D01*
X80822580Y-61626666D02*
X80822580Y-61055238D01*
X80822580Y-61340952D02*
X81822580Y-61340952D01*
X81822580Y-61340952D02*
X81679723Y-61245714D01*
X81679723Y-61245714D02*
X81584485Y-61150476D01*
X81584485Y-61150476D02*
X81536866Y-61055238D01*
D12*
%TO.C,D1*%
X89630000Y-69270000D02*
X89630000Y-62770000D01*
X89630000Y-62770000D02*
X83130000Y-62770000D01*
X83130000Y-69270000D02*
X89630000Y-69270000D01*
X83130000Y-62770000D02*
X83130000Y-69270000D01*
%TD*%
M02*
