%TF.GenerationSoftware,KiCad,Pcbnew,7.0.5-0*%
%TF.CreationDate,2023-08-23T15:32:02-04:00*%
%TF.ProjectId,quad_sipm,71756164-5f73-4697-906d-2e6b69636164,6.3*%
%TF.SameCoordinates,Original*%
%TF.FileFunction,Soldermask,Bot*%
%TF.FilePolarity,Negative*%
%FSLAX46Y46*%
G04 Gerber Fmt 4.6, Leading zero omitted, Abs format (unit mm)*
G04 Created by KiCad (PCBNEW 7.0.5-0) date 2023-08-23 15:32:02*
%MOMM*%
%LPD*%
G01*
G04 APERTURE LIST*
G04 Aperture macros list*
%AMRoundRect*
0 Rectangle with rounded corners*
0 $1 Rounding radius*
0 $2 $3 $4 $5 $6 $7 $8 $9 X,Y pos of 4 corners*
0 Add a 4 corners polygon primitive as box body*
4,1,4,$2,$3,$4,$5,$6,$7,$8,$9,$2,$3,0*
0 Add four circle primitives for the rounded corners*
1,1,$1+$1,$2,$3*
1,1,$1+$1,$4,$5*
1,1,$1+$1,$6,$7*
1,1,$1+$1,$8,$9*
0 Add four rect primitives between the rounded corners*
20,1,$1+$1,$2,$3,$4,$5,0*
20,1,$1+$1,$4,$5,$6,$7,0*
20,1,$1+$1,$6,$7,$8,$9,0*
20,1,$1+$1,$8,$9,$2,$3,0*%
G04 Aperture macros list end*
%ADD10C,16.800000*%
%ADD11C,12.000000*%
%ADD12R,1.700000X1.700000*%
%ADD13O,1.700000X1.700000*%
%ADD14RoundRect,0.250000X0.412500X0.650000X-0.412500X0.650000X-0.412500X-0.650000X0.412500X-0.650000X0*%
%ADD15R,0.701600X1.699200*%
%ADD16R,1.699200X0.701600*%
%ADD17R,0.803200X1.750000*%
G04 APERTURE END LIST*
D10*
%TO.C,H2*%
X100000000Y-100000000D03*
%TD*%
D11*
%TO.C,H3*%
X100000000Y-137000000D03*
%TD*%
%TO.C,H4*%
X137000000Y-100000000D03*
%TD*%
%TO.C,H5*%
X63000000Y-100000000D03*
%TD*%
%TO.C,H1*%
X100000000Y-63000000D03*
%TD*%
D12*
%TO.C,J7*%
X139146000Y-83820000D03*
D13*
X139146000Y-81280000D03*
X139146000Y-78740000D03*
X139146000Y-76200000D03*
X139146000Y-73660000D03*
X139146000Y-71120000D03*
X139146000Y-68580000D03*
X139146000Y-66040000D03*
X139146000Y-63500000D03*
X139146000Y-60960000D03*
D12*
X116286000Y-83820000D03*
D13*
X116286000Y-81280000D03*
X116286000Y-78740000D03*
X116286000Y-76200000D03*
X116286000Y-73660000D03*
X116286000Y-71120000D03*
X116286000Y-68580000D03*
X116286000Y-66040000D03*
X116286000Y-63500000D03*
X116286000Y-60960000D03*
%TD*%
D12*
%TO.C,J8*%
X83774000Y-83820000D03*
D13*
X83774000Y-81280000D03*
X83774000Y-78740000D03*
X83774000Y-76200000D03*
X83774000Y-73660000D03*
X83774000Y-71120000D03*
X83774000Y-68580000D03*
X83774000Y-66040000D03*
X83774000Y-63500000D03*
X83774000Y-60960000D03*
D12*
X60914000Y-83820000D03*
D13*
X60914000Y-81280000D03*
X60914000Y-78740000D03*
X60914000Y-76200000D03*
X60914000Y-73660000D03*
X60914000Y-71120000D03*
X60914000Y-68580000D03*
X60914000Y-66040000D03*
X60914000Y-63500000D03*
X60914000Y-60960000D03*
%TD*%
D12*
%TO.C,J6*%
X83774000Y-139192000D03*
D13*
X83774000Y-136652000D03*
X83774000Y-134112000D03*
X83774000Y-131572000D03*
X83774000Y-129032000D03*
X83774000Y-126492000D03*
X83774000Y-123952000D03*
X83774000Y-121412000D03*
X83774000Y-118872000D03*
X83774000Y-116332000D03*
D12*
X60914000Y-139192000D03*
D13*
X60914000Y-136652000D03*
X60914000Y-134112000D03*
X60914000Y-131572000D03*
X60914000Y-129032000D03*
X60914000Y-126492000D03*
X60914000Y-123952000D03*
X60914000Y-121412000D03*
X60914000Y-118872000D03*
X60914000Y-116332000D03*
%TD*%
D12*
%TO.C,J5*%
X139146000Y-139192000D03*
D13*
X139146000Y-136652000D03*
X139146000Y-134112000D03*
X139146000Y-131572000D03*
X139146000Y-129032000D03*
X139146000Y-126492000D03*
X139146000Y-123952000D03*
X139146000Y-121412000D03*
X139146000Y-118872000D03*
X139146000Y-116332000D03*
D12*
X116286000Y-139192000D03*
D13*
X116286000Y-136652000D03*
X116286000Y-134112000D03*
X116286000Y-131572000D03*
X116286000Y-129032000D03*
X116286000Y-126492000D03*
X116286000Y-123952000D03*
X116286000Y-121412000D03*
X116286000Y-118872000D03*
X116286000Y-116332000D03*
%TD*%
D12*
%TO.C,J1*%
X125685000Y-143555000D03*
D13*
X128225000Y-143555000D03*
X130765000Y-143555000D03*
%TD*%
D14*
%TO.C,C4*%
X78397500Y-63792500D03*
X75272500Y-63792500D03*
%TD*%
D12*
%TO.C,J3*%
X125685000Y-56560000D03*
D13*
X128225000Y-56560000D03*
X130765000Y-56560000D03*
%TD*%
D12*
%TO.C,J4*%
X69215000Y-56515000D03*
D13*
X71755000Y-56515000D03*
X74295000Y-56515000D03*
%TD*%
D14*
%TO.C,C3*%
X134570000Y-63500000D03*
X131445000Y-63500000D03*
%TD*%
D12*
%TO.C,J2*%
X69215000Y-143510000D03*
D13*
X71755000Y-143510000D03*
X74295000Y-143510000D03*
%TD*%
D15*
%TO.C,C1*%
X134293200Y-134428200D03*
X131491600Y-134428200D03*
%TD*%
D14*
%TO.C,C2*%
X78524500Y-134620000D03*
X75399500Y-134620000D03*
%TD*%
D16*
%TO.C,R4*%
X65532000Y-133350000D03*
X65532000Y-130548400D03*
%TD*%
%TO.C,R1*%
X121666000Y-133226800D03*
X121666000Y-130425200D03*
%TD*%
%TO.C,R2*%
X124460000Y-69334400D03*
X124460000Y-72136000D03*
%TD*%
D17*
%TO.C,R6*%
X127672800Y-136968200D03*
X124769600Y-136968200D03*
%TD*%
D16*
%TO.C,R3*%
X68072000Y-69342000D03*
X68072000Y-72143600D03*
%TD*%
D17*
%TO.C,R7*%
X71120000Y-65278000D03*
X68216800Y-65278000D03*
%TD*%
%TO.C,R5*%
X71301600Y-136398000D03*
X68398400Y-136398000D03*
%TD*%
%TO.C,R8*%
X127254000Y-64770000D03*
X124350800Y-64770000D03*
%TD*%
M02*
