%TF.GenerationSoftware,KiCad,Pcbnew,7.0.5-0*%
%TF.CreationDate,2023-08-23T15:32:02-04:00*%
%TF.ProjectId,quad_sipm,71756164-5f73-4697-906d-2e6b69636164,6.3*%
%TF.SameCoordinates,Original*%
%TF.FileFunction,Legend,Bot*%
%TF.FilePolarity,Positive*%
%FSLAX46Y46*%
G04 Gerber Fmt 4.6, Leading zero omitted, Abs format (unit mm)*
G04 Created by KiCad (PCBNEW 7.0.5-0) date 2023-08-23 15:32:02*
%MOMM*%
%LPD*%
G01*
G04 APERTURE LIST*
%ADD10C,0.150000*%
%ADD11C,0.203200*%
%ADD12C,0.120000*%
%ADD13C,0.152400*%
G04 APERTURE END LIST*
D10*
X124597438Y-53601904D02*
X124549819Y-53506666D01*
X124549819Y-53506666D02*
X124549819Y-53363809D01*
X124549819Y-53363809D02*
X124597438Y-53220952D01*
X124597438Y-53220952D02*
X124692676Y-53125714D01*
X124692676Y-53125714D02*
X124787914Y-53078095D01*
X124787914Y-53078095D02*
X124978390Y-53030476D01*
X124978390Y-53030476D02*
X125121247Y-53030476D01*
X125121247Y-53030476D02*
X125311723Y-53078095D01*
X125311723Y-53078095D02*
X125406961Y-53125714D01*
X125406961Y-53125714D02*
X125502200Y-53220952D01*
X125502200Y-53220952D02*
X125549819Y-53363809D01*
X125549819Y-53363809D02*
X125549819Y-53459047D01*
X125549819Y-53459047D02*
X125502200Y-53601904D01*
X125502200Y-53601904D02*
X125454580Y-53649523D01*
X125454580Y-53649523D02*
X125121247Y-53649523D01*
X125121247Y-53649523D02*
X125121247Y-53459047D01*
X131899819Y-53078095D02*
X130899819Y-53078095D01*
X131899819Y-53649523D02*
X131328390Y-53220952D01*
X130899819Y-53649523D02*
X131471247Y-53078095D01*
X128439104Y-53101905D02*
X128439104Y-53578095D01*
X128724819Y-53006667D02*
X127724819Y-53340000D01*
X127724819Y-53340000D02*
X128724819Y-53673333D01*
X68717438Y-146983220D02*
X68669819Y-146887982D01*
X68669819Y-146887982D02*
X68669819Y-146745125D01*
X68669819Y-146745125D02*
X68717438Y-146602268D01*
X68717438Y-146602268D02*
X68812676Y-146507030D01*
X68812676Y-146507030D02*
X68907914Y-146459411D01*
X68907914Y-146459411D02*
X69098390Y-146411792D01*
X69098390Y-146411792D02*
X69241247Y-146411792D01*
X69241247Y-146411792D02*
X69431723Y-146459411D01*
X69431723Y-146459411D02*
X69526961Y-146507030D01*
X69526961Y-146507030D02*
X69622200Y-146602268D01*
X69622200Y-146602268D02*
X69669819Y-146745125D01*
X69669819Y-146745125D02*
X69669819Y-146840363D01*
X69669819Y-146840363D02*
X69622200Y-146983220D01*
X69622200Y-146983220D02*
X69574580Y-147030839D01*
X69574580Y-147030839D02*
X69241247Y-147030839D01*
X69241247Y-147030839D02*
X69241247Y-146840363D01*
X71924104Y-146554649D02*
X71924104Y-147030839D01*
X72209819Y-146459411D02*
X71209819Y-146792744D01*
X71209819Y-146792744D02*
X72209819Y-147126077D01*
X75384819Y-53078095D02*
X74384819Y-53078095D01*
X75384819Y-53649523D02*
X74813390Y-53220952D01*
X74384819Y-53649523D02*
X74956247Y-53078095D01*
X71924104Y-53101905D02*
X71924104Y-53578095D01*
X72209819Y-53006667D02*
X71209819Y-53340000D01*
X71209819Y-53340000D02*
X72209819Y-53673333D01*
X74749819Y-146423095D02*
X73749819Y-146423095D01*
X74749819Y-146994523D02*
X74178390Y-146565952D01*
X73749819Y-146994523D02*
X74321247Y-146423095D01*
X128439104Y-146446905D02*
X128439104Y-146923095D01*
X128724819Y-146351667D02*
X127724819Y-146685000D01*
X127724819Y-146685000D02*
X128724819Y-147018333D01*
X125232438Y-146983220D02*
X125184819Y-146887982D01*
X125184819Y-146887982D02*
X125184819Y-146745125D01*
X125184819Y-146745125D02*
X125232438Y-146602268D01*
X125232438Y-146602268D02*
X125327676Y-146507030D01*
X125327676Y-146507030D02*
X125422914Y-146459411D01*
X125422914Y-146459411D02*
X125613390Y-146411792D01*
X125613390Y-146411792D02*
X125756247Y-146411792D01*
X125756247Y-146411792D02*
X125946723Y-146459411D01*
X125946723Y-146459411D02*
X126041961Y-146507030D01*
X126041961Y-146507030D02*
X126137200Y-146602268D01*
X126137200Y-146602268D02*
X126184819Y-146745125D01*
X126184819Y-146745125D02*
X126184819Y-146840363D01*
X126184819Y-146840363D02*
X126137200Y-146983220D01*
X126137200Y-146983220D02*
X126089580Y-147030839D01*
X126089580Y-147030839D02*
X125756247Y-147030839D01*
X125756247Y-147030839D02*
X125756247Y-146840363D01*
X131899819Y-146423095D02*
X130899819Y-146423095D01*
X131899819Y-146994523D02*
X131328390Y-146565952D01*
X130899819Y-146994523D02*
X131471247Y-146423095D01*
D11*
X146157744Y-86810410D02*
X145900601Y-86891362D01*
X145900601Y-86891362D02*
X145814887Y-86972314D01*
X145814887Y-86972314D02*
X145729173Y-87134219D01*
X145729173Y-87134219D02*
X145729173Y-87377076D01*
X145729173Y-87377076D02*
X145814887Y-87538981D01*
X145814887Y-87538981D02*
X145900601Y-87619934D01*
X145900601Y-87619934D02*
X146072030Y-87700886D01*
X146072030Y-87700886D02*
X146757744Y-87700886D01*
X146757744Y-87700886D02*
X146757744Y-86000886D01*
X146757744Y-86000886D02*
X146157744Y-86000886D01*
X146157744Y-86000886D02*
X145986316Y-86081838D01*
X145986316Y-86081838D02*
X145900601Y-86162791D01*
X145900601Y-86162791D02*
X145814887Y-86324695D01*
X145814887Y-86324695D02*
X145814887Y-86486600D01*
X145814887Y-86486600D02*
X145900601Y-86648505D01*
X145900601Y-86648505D02*
X145986316Y-86729457D01*
X145986316Y-86729457D02*
X146157744Y-86810410D01*
X146157744Y-86810410D02*
X146757744Y-86810410D01*
X144957744Y-86000886D02*
X144957744Y-87377076D01*
X144957744Y-87377076D02*
X144872030Y-87538981D01*
X144872030Y-87538981D02*
X144786316Y-87619934D01*
X144786316Y-87619934D02*
X144614887Y-87700886D01*
X144614887Y-87700886D02*
X144272030Y-87700886D01*
X144272030Y-87700886D02*
X144100601Y-87619934D01*
X144100601Y-87619934D02*
X144014887Y-87538981D01*
X144014887Y-87538981D02*
X143929173Y-87377076D01*
X143929173Y-87377076D02*
X143929173Y-86000886D01*
X141700601Y-87700886D02*
X141700601Y-86000886D01*
X141700601Y-86000886D02*
X141272030Y-86000886D01*
X141272030Y-86000886D02*
X141014887Y-86081838D01*
X141014887Y-86081838D02*
X140843458Y-86243743D01*
X140843458Y-86243743D02*
X140757744Y-86405648D01*
X140757744Y-86405648D02*
X140672030Y-86729457D01*
X140672030Y-86729457D02*
X140672030Y-86972314D01*
X140672030Y-86972314D02*
X140757744Y-87296124D01*
X140757744Y-87296124D02*
X140843458Y-87458029D01*
X140843458Y-87458029D02*
X141014887Y-87619934D01*
X141014887Y-87619934D02*
X141272030Y-87700886D01*
X141272030Y-87700886D02*
X141700601Y-87700886D01*
X139129173Y-87700886D02*
X139129173Y-86810410D01*
X139129173Y-86810410D02*
X139214887Y-86648505D01*
X139214887Y-86648505D02*
X139386315Y-86567553D01*
X139386315Y-86567553D02*
X139729173Y-86567553D01*
X139729173Y-86567553D02*
X139900601Y-86648505D01*
X139129173Y-87619934D02*
X139300601Y-87700886D01*
X139300601Y-87700886D02*
X139729173Y-87700886D01*
X139729173Y-87700886D02*
X139900601Y-87619934D01*
X139900601Y-87619934D02*
X139986315Y-87458029D01*
X139986315Y-87458029D02*
X139986315Y-87296124D01*
X139986315Y-87296124D02*
X139900601Y-87134219D01*
X139900601Y-87134219D02*
X139729173Y-87053267D01*
X139729173Y-87053267D02*
X139300601Y-87053267D01*
X139300601Y-87053267D02*
X139129173Y-86972314D01*
X138272030Y-87700886D02*
X138272030Y-86567553D01*
X138272030Y-86891362D02*
X138186316Y-86729457D01*
X138186316Y-86729457D02*
X138100602Y-86648505D01*
X138100602Y-86648505D02*
X137929173Y-86567553D01*
X137929173Y-86567553D02*
X137757744Y-86567553D01*
X137157744Y-87700886D02*
X137157744Y-86000886D01*
X136986316Y-87053267D02*
X136472030Y-87700886D01*
X136472030Y-86567553D02*
X137157744Y-87215172D01*
X134500601Y-87862791D02*
X134672030Y-87781838D01*
X134672030Y-87781838D02*
X134843458Y-87619934D01*
X134843458Y-87619934D02*
X135100601Y-87377076D01*
X135100601Y-87377076D02*
X135272030Y-87296124D01*
X135272030Y-87296124D02*
X135443458Y-87296124D01*
X135357744Y-87700886D02*
X135529173Y-87619934D01*
X135529173Y-87619934D02*
X135700601Y-87458029D01*
X135700601Y-87458029D02*
X135786315Y-87134219D01*
X135786315Y-87134219D02*
X135786315Y-86567553D01*
X135786315Y-86567553D02*
X135700601Y-86243743D01*
X135700601Y-86243743D02*
X135529173Y-86081838D01*
X135529173Y-86081838D02*
X135357744Y-86000886D01*
X135357744Y-86000886D02*
X135014887Y-86000886D01*
X135014887Y-86000886D02*
X134843458Y-86081838D01*
X134843458Y-86081838D02*
X134672030Y-86243743D01*
X134672030Y-86243743D02*
X134586315Y-86567553D01*
X134586315Y-86567553D02*
X134586315Y-87134219D01*
X134586315Y-87134219D02*
X134672030Y-87458029D01*
X134672030Y-87458029D02*
X134843458Y-87619934D01*
X134843458Y-87619934D02*
X135014887Y-87700886D01*
X135014887Y-87700886D02*
X135357744Y-87700886D01*
X133043459Y-86567553D02*
X133043459Y-87700886D01*
X133814887Y-86567553D02*
X133814887Y-87458029D01*
X133814887Y-87458029D02*
X133729173Y-87619934D01*
X133729173Y-87619934D02*
X133557744Y-87700886D01*
X133557744Y-87700886D02*
X133300601Y-87700886D01*
X133300601Y-87700886D02*
X133129173Y-87619934D01*
X133129173Y-87619934D02*
X133043459Y-87538981D01*
X131500602Y-87619934D02*
X131672030Y-87700886D01*
X131672030Y-87700886D02*
X132014888Y-87700886D01*
X132014888Y-87700886D02*
X132186316Y-87619934D01*
X132186316Y-87619934D02*
X132272030Y-87458029D01*
X132272030Y-87458029D02*
X132272030Y-86810410D01*
X132272030Y-86810410D02*
X132186316Y-86648505D01*
X132186316Y-86648505D02*
X132014888Y-86567553D01*
X132014888Y-86567553D02*
X131672030Y-86567553D01*
X131672030Y-86567553D02*
X131500602Y-86648505D01*
X131500602Y-86648505D02*
X131414888Y-86810410D01*
X131414888Y-86810410D02*
X131414888Y-86972314D01*
X131414888Y-86972314D02*
X132272030Y-87134219D01*
X130729173Y-87619934D02*
X130557745Y-87700886D01*
X130557745Y-87700886D02*
X130214888Y-87700886D01*
X130214888Y-87700886D02*
X130043459Y-87619934D01*
X130043459Y-87619934D02*
X129957745Y-87458029D01*
X129957745Y-87458029D02*
X129957745Y-87377076D01*
X129957745Y-87377076D02*
X130043459Y-87215172D01*
X130043459Y-87215172D02*
X130214888Y-87134219D01*
X130214888Y-87134219D02*
X130472031Y-87134219D01*
X130472031Y-87134219D02*
X130643459Y-87053267D01*
X130643459Y-87053267D02*
X130729173Y-86891362D01*
X130729173Y-86891362D02*
X130729173Y-86810410D01*
X130729173Y-86810410D02*
X130643459Y-86648505D01*
X130643459Y-86648505D02*
X130472031Y-86567553D01*
X130472031Y-86567553D02*
X130214888Y-86567553D01*
X130214888Y-86567553D02*
X130043459Y-86648505D01*
X129443459Y-86567553D02*
X128757745Y-86567553D01*
X129186316Y-86000886D02*
X129186316Y-87458029D01*
X129186316Y-87458029D02*
X129100602Y-87619934D01*
X129100602Y-87619934D02*
X128929173Y-87700886D01*
X128929173Y-87700886D02*
X128757745Y-87700886D01*
X146757744Y-89547410D02*
X146157744Y-89547410D01*
X145900601Y-90437886D02*
X146757744Y-90437886D01*
X146757744Y-90437886D02*
X146757744Y-88737886D01*
X146757744Y-88737886D02*
X145900601Y-88737886D01*
X145129173Y-90437886D02*
X145129173Y-88737886D01*
X145129173Y-88737886D02*
X144529173Y-89952172D01*
X144529173Y-89952172D02*
X143929173Y-88737886D01*
X143929173Y-88737886D02*
X143929173Y-90437886D01*
X142043459Y-90275981D02*
X142129173Y-90356934D01*
X142129173Y-90356934D02*
X142386316Y-90437886D01*
X142386316Y-90437886D02*
X142557744Y-90437886D01*
X142557744Y-90437886D02*
X142814887Y-90356934D01*
X142814887Y-90356934D02*
X142986316Y-90195029D01*
X142986316Y-90195029D02*
X143072030Y-90033124D01*
X143072030Y-90033124D02*
X143157744Y-89709314D01*
X143157744Y-89709314D02*
X143157744Y-89466457D01*
X143157744Y-89466457D02*
X143072030Y-89142648D01*
X143072030Y-89142648D02*
X142986316Y-88980743D01*
X142986316Y-88980743D02*
X142814887Y-88818838D01*
X142814887Y-88818838D02*
X142557744Y-88737886D01*
X142557744Y-88737886D02*
X142386316Y-88737886D01*
X142386316Y-88737886D02*
X142129173Y-88818838D01*
X142129173Y-88818838D02*
X142043459Y-88899791D01*
X141357744Y-89952172D02*
X140500602Y-89952172D01*
X141529173Y-90437886D02*
X140929173Y-88737886D01*
X140929173Y-88737886D02*
X140329173Y-90437886D01*
X138872030Y-90437886D02*
X139729173Y-90437886D01*
X139729173Y-90437886D02*
X139729173Y-88737886D01*
X135700601Y-90599791D02*
X135872030Y-90518838D01*
X135872030Y-90518838D02*
X136043458Y-90356934D01*
X136043458Y-90356934D02*
X136300601Y-90114076D01*
X136300601Y-90114076D02*
X136472030Y-90033124D01*
X136472030Y-90033124D02*
X136643458Y-90033124D01*
X136557744Y-90437886D02*
X136729173Y-90356934D01*
X136729173Y-90356934D02*
X136900601Y-90195029D01*
X136900601Y-90195029D02*
X136986315Y-89871219D01*
X136986315Y-89871219D02*
X136986315Y-89304553D01*
X136986315Y-89304553D02*
X136900601Y-88980743D01*
X136900601Y-88980743D02*
X136729173Y-88818838D01*
X136729173Y-88818838D02*
X136557744Y-88737886D01*
X136557744Y-88737886D02*
X136214887Y-88737886D01*
X136214887Y-88737886D02*
X136043458Y-88818838D01*
X136043458Y-88818838D02*
X135872030Y-88980743D01*
X135872030Y-88980743D02*
X135786315Y-89304553D01*
X135786315Y-89304553D02*
X135786315Y-89871219D01*
X135786315Y-89871219D02*
X135872030Y-90195029D01*
X135872030Y-90195029D02*
X136043458Y-90356934D01*
X136043458Y-90356934D02*
X136214887Y-90437886D01*
X136214887Y-90437886D02*
X136557744Y-90437886D01*
X134243459Y-89304553D02*
X134243459Y-90437886D01*
X135014887Y-89304553D02*
X135014887Y-90195029D01*
X135014887Y-90195029D02*
X134929173Y-90356934D01*
X134929173Y-90356934D02*
X134757744Y-90437886D01*
X134757744Y-90437886D02*
X134500601Y-90437886D01*
X134500601Y-90437886D02*
X134329173Y-90356934D01*
X134329173Y-90356934D02*
X134243459Y-90275981D01*
X132614888Y-90437886D02*
X132614888Y-89547410D01*
X132614888Y-89547410D02*
X132700602Y-89385505D01*
X132700602Y-89385505D02*
X132872030Y-89304553D01*
X132872030Y-89304553D02*
X133214888Y-89304553D01*
X133214888Y-89304553D02*
X133386316Y-89385505D01*
X132614888Y-90356934D02*
X132786316Y-90437886D01*
X132786316Y-90437886D02*
X133214888Y-90437886D01*
X133214888Y-90437886D02*
X133386316Y-90356934D01*
X133386316Y-90356934D02*
X133472030Y-90195029D01*
X133472030Y-90195029D02*
X133472030Y-90033124D01*
X133472030Y-90033124D02*
X133386316Y-89871219D01*
X133386316Y-89871219D02*
X133214888Y-89790267D01*
X133214888Y-89790267D02*
X132786316Y-89790267D01*
X132786316Y-89790267D02*
X132614888Y-89709314D01*
X130986317Y-90437886D02*
X130986317Y-88737886D01*
X130986317Y-90356934D02*
X131157745Y-90437886D01*
X131157745Y-90437886D02*
X131500602Y-90437886D01*
X131500602Y-90437886D02*
X131672031Y-90356934D01*
X131672031Y-90356934D02*
X131757745Y-90275981D01*
X131757745Y-90275981D02*
X131843459Y-90114076D01*
X131843459Y-90114076D02*
X131843459Y-89628362D01*
X131843459Y-89628362D02*
X131757745Y-89466457D01*
X131757745Y-89466457D02*
X131672031Y-89385505D01*
X131672031Y-89385505D02*
X131500602Y-89304553D01*
X131500602Y-89304553D02*
X131157745Y-89304553D01*
X131157745Y-89304553D02*
X130986317Y-89385505D01*
X128843459Y-90356934D02*
X128586317Y-90437886D01*
X128586317Y-90437886D02*
X128157745Y-90437886D01*
X128157745Y-90437886D02*
X127986317Y-90356934D01*
X127986317Y-90356934D02*
X127900602Y-90275981D01*
X127900602Y-90275981D02*
X127814888Y-90114076D01*
X127814888Y-90114076D02*
X127814888Y-89952172D01*
X127814888Y-89952172D02*
X127900602Y-89790267D01*
X127900602Y-89790267D02*
X127986317Y-89709314D01*
X127986317Y-89709314D02*
X128157745Y-89628362D01*
X128157745Y-89628362D02*
X128500602Y-89547410D01*
X128500602Y-89547410D02*
X128672031Y-89466457D01*
X128672031Y-89466457D02*
X128757745Y-89385505D01*
X128757745Y-89385505D02*
X128843459Y-89223600D01*
X128843459Y-89223600D02*
X128843459Y-89061695D01*
X128843459Y-89061695D02*
X128757745Y-88899791D01*
X128757745Y-88899791D02*
X128672031Y-88818838D01*
X128672031Y-88818838D02*
X128500602Y-88737886D01*
X128500602Y-88737886D02*
X128072031Y-88737886D01*
X128072031Y-88737886D02*
X127814888Y-88818838D01*
X127043459Y-90437886D02*
X127043459Y-89304553D01*
X127043459Y-88737886D02*
X127129173Y-88818838D01*
X127129173Y-88818838D02*
X127043459Y-88899791D01*
X127043459Y-88899791D02*
X126957745Y-88818838D01*
X126957745Y-88818838D02*
X127043459Y-88737886D01*
X127043459Y-88737886D02*
X127043459Y-88899791D01*
X126186316Y-90437886D02*
X126186316Y-88737886D01*
X126186316Y-88737886D02*
X125500602Y-88737886D01*
X125500602Y-88737886D02*
X125329173Y-88818838D01*
X125329173Y-88818838D02*
X125243459Y-88899791D01*
X125243459Y-88899791D02*
X125157745Y-89061695D01*
X125157745Y-89061695D02*
X125157745Y-89304553D01*
X125157745Y-89304553D02*
X125243459Y-89466457D01*
X125243459Y-89466457D02*
X125329173Y-89547410D01*
X125329173Y-89547410D02*
X125500602Y-89628362D01*
X125500602Y-89628362D02*
X126186316Y-89628362D01*
X124386316Y-90437886D02*
X124386316Y-88737886D01*
X124386316Y-88737886D02*
X123786316Y-89952172D01*
X123786316Y-89952172D02*
X123186316Y-88737886D01*
X123186316Y-88737886D02*
X123186316Y-90437886D01*
X120957744Y-90437886D02*
X120957744Y-88737886D01*
X120957744Y-88737886D02*
X120357744Y-89952172D01*
X120357744Y-89952172D02*
X119757744Y-88737886D01*
X119757744Y-88737886D02*
X119757744Y-90437886D01*
X118643458Y-90437886D02*
X118814887Y-90356934D01*
X118814887Y-90356934D02*
X118900601Y-90275981D01*
X118900601Y-90275981D02*
X118986315Y-90114076D01*
X118986315Y-90114076D02*
X118986315Y-89628362D01*
X118986315Y-89628362D02*
X118900601Y-89466457D01*
X118900601Y-89466457D02*
X118814887Y-89385505D01*
X118814887Y-89385505D02*
X118643458Y-89304553D01*
X118643458Y-89304553D02*
X118386315Y-89304553D01*
X118386315Y-89304553D02*
X118214887Y-89385505D01*
X118214887Y-89385505D02*
X118129173Y-89466457D01*
X118129173Y-89466457D02*
X118043458Y-89628362D01*
X118043458Y-89628362D02*
X118043458Y-90114076D01*
X118043458Y-90114076D02*
X118129173Y-90275981D01*
X118129173Y-90275981D02*
X118214887Y-90356934D01*
X118214887Y-90356934D02*
X118386315Y-90437886D01*
X118386315Y-90437886D02*
X118643458Y-90437886D01*
X117529173Y-89304553D02*
X116843459Y-89304553D01*
X117272030Y-88737886D02*
X117272030Y-90195029D01*
X117272030Y-90195029D02*
X117186316Y-90356934D01*
X117186316Y-90356934D02*
X117014887Y-90437886D01*
X117014887Y-90437886D02*
X116843459Y-90437886D01*
X116243459Y-90437886D02*
X116243459Y-88737886D01*
X115472031Y-90437886D02*
X115472031Y-89547410D01*
X115472031Y-89547410D02*
X115557745Y-89385505D01*
X115557745Y-89385505D02*
X115729173Y-89304553D01*
X115729173Y-89304553D02*
X115986316Y-89304553D01*
X115986316Y-89304553D02*
X116157745Y-89385505D01*
X116157745Y-89385505D02*
X116243459Y-89466457D01*
X113929174Y-90356934D02*
X114100602Y-90437886D01*
X114100602Y-90437886D02*
X114443460Y-90437886D01*
X114443460Y-90437886D02*
X114614888Y-90356934D01*
X114614888Y-90356934D02*
X114700602Y-90195029D01*
X114700602Y-90195029D02*
X114700602Y-89547410D01*
X114700602Y-89547410D02*
X114614888Y-89385505D01*
X114614888Y-89385505D02*
X114443460Y-89304553D01*
X114443460Y-89304553D02*
X114100602Y-89304553D01*
X114100602Y-89304553D02*
X113929174Y-89385505D01*
X113929174Y-89385505D02*
X113843460Y-89547410D01*
X113843460Y-89547410D02*
X113843460Y-89709314D01*
X113843460Y-89709314D02*
X114700602Y-89871219D01*
X113072031Y-90437886D02*
X113072031Y-89304553D01*
X113072031Y-89628362D02*
X112986317Y-89466457D01*
X112986317Y-89466457D02*
X112900603Y-89385505D01*
X112900603Y-89385505D02*
X112729174Y-89304553D01*
X112729174Y-89304553D02*
X112557745Y-89304553D01*
X111957745Y-90437886D02*
X111957745Y-88737886D01*
X111957745Y-89385505D02*
X111786317Y-89304553D01*
X111786317Y-89304553D02*
X111443459Y-89304553D01*
X111443459Y-89304553D02*
X111272031Y-89385505D01*
X111272031Y-89385505D02*
X111186317Y-89466457D01*
X111186317Y-89466457D02*
X111100602Y-89628362D01*
X111100602Y-89628362D02*
X111100602Y-90114076D01*
X111100602Y-90114076D02*
X111186317Y-90275981D01*
X111186317Y-90275981D02*
X111272031Y-90356934D01*
X111272031Y-90356934D02*
X111443459Y-90437886D01*
X111443459Y-90437886D02*
X111786317Y-90437886D01*
X111786317Y-90437886D02*
X111957745Y-90356934D01*
X110072031Y-90437886D02*
X110243460Y-90356934D01*
X110243460Y-90356934D02*
X110329174Y-90275981D01*
X110329174Y-90275981D02*
X110414888Y-90114076D01*
X110414888Y-90114076D02*
X110414888Y-89628362D01*
X110414888Y-89628362D02*
X110329174Y-89466457D01*
X110329174Y-89466457D02*
X110243460Y-89385505D01*
X110243460Y-89385505D02*
X110072031Y-89304553D01*
X110072031Y-89304553D02*
X109814888Y-89304553D01*
X109814888Y-89304553D02*
X109643460Y-89385505D01*
X109643460Y-89385505D02*
X109557746Y-89466457D01*
X109557746Y-89466457D02*
X109472031Y-89628362D01*
X109472031Y-89628362D02*
X109472031Y-90114076D01*
X109472031Y-90114076D02*
X109557746Y-90275981D01*
X109557746Y-90275981D02*
X109643460Y-90356934D01*
X109643460Y-90356934D02*
X109814888Y-90437886D01*
X109814888Y-90437886D02*
X110072031Y-90437886D01*
X107929175Y-90437886D02*
X107929175Y-89547410D01*
X107929175Y-89547410D02*
X108014889Y-89385505D01*
X108014889Y-89385505D02*
X108186317Y-89304553D01*
X108186317Y-89304553D02*
X108529175Y-89304553D01*
X108529175Y-89304553D02*
X108700603Y-89385505D01*
X107929175Y-90356934D02*
X108100603Y-90437886D01*
X108100603Y-90437886D02*
X108529175Y-90437886D01*
X108529175Y-90437886D02*
X108700603Y-90356934D01*
X108700603Y-90356934D02*
X108786317Y-90195029D01*
X108786317Y-90195029D02*
X108786317Y-90033124D01*
X108786317Y-90033124D02*
X108700603Y-89871219D01*
X108700603Y-89871219D02*
X108529175Y-89790267D01*
X108529175Y-89790267D02*
X108100603Y-89790267D01*
X108100603Y-89790267D02*
X107929175Y-89709314D01*
X107072032Y-90437886D02*
X107072032Y-89304553D01*
X107072032Y-89628362D02*
X106986318Y-89466457D01*
X106986318Y-89466457D02*
X106900604Y-89385505D01*
X106900604Y-89385505D02*
X106729175Y-89304553D01*
X106729175Y-89304553D02*
X106557746Y-89304553D01*
X105186318Y-90437886D02*
X105186318Y-88737886D01*
X105186318Y-90356934D02*
X105357746Y-90437886D01*
X105357746Y-90437886D02*
X105700603Y-90437886D01*
X105700603Y-90437886D02*
X105872032Y-90356934D01*
X105872032Y-90356934D02*
X105957746Y-90275981D01*
X105957746Y-90275981D02*
X106043460Y-90114076D01*
X106043460Y-90114076D02*
X106043460Y-89628362D01*
X106043460Y-89628362D02*
X105957746Y-89466457D01*
X105957746Y-89466457D02*
X105872032Y-89385505D01*
X105872032Y-89385505D02*
X105700603Y-89304553D01*
X105700603Y-89304553D02*
X105357746Y-89304553D01*
X105357746Y-89304553D02*
X105186318Y-89385505D01*
X146843458Y-91636791D02*
X146757744Y-91555838D01*
X146757744Y-91555838D02*
X146586316Y-91474886D01*
X146586316Y-91474886D02*
X146157744Y-91474886D01*
X146157744Y-91474886D02*
X145986316Y-91555838D01*
X145986316Y-91555838D02*
X145900601Y-91636791D01*
X145900601Y-91636791D02*
X145814887Y-91798695D01*
X145814887Y-91798695D02*
X145814887Y-91960600D01*
X145814887Y-91960600D02*
X145900601Y-92203457D01*
X145900601Y-92203457D02*
X146929173Y-93174886D01*
X146929173Y-93174886D02*
X145814887Y-93174886D01*
X144700601Y-91474886D02*
X144529172Y-91474886D01*
X144529172Y-91474886D02*
X144357744Y-91555838D01*
X144357744Y-91555838D02*
X144272030Y-91636791D01*
X144272030Y-91636791D02*
X144186315Y-91798695D01*
X144186315Y-91798695D02*
X144100601Y-92122505D01*
X144100601Y-92122505D02*
X144100601Y-92527267D01*
X144100601Y-92527267D02*
X144186315Y-92851076D01*
X144186315Y-92851076D02*
X144272030Y-93012981D01*
X144272030Y-93012981D02*
X144357744Y-93093934D01*
X144357744Y-93093934D02*
X144529172Y-93174886D01*
X144529172Y-93174886D02*
X144700601Y-93174886D01*
X144700601Y-93174886D02*
X144872030Y-93093934D01*
X144872030Y-93093934D02*
X144957744Y-93012981D01*
X144957744Y-93012981D02*
X145043458Y-92851076D01*
X145043458Y-92851076D02*
X145129172Y-92527267D01*
X145129172Y-92527267D02*
X145129172Y-92122505D01*
X145129172Y-92122505D02*
X145043458Y-91798695D01*
X145043458Y-91798695D02*
X144957744Y-91636791D01*
X144957744Y-91636791D02*
X144872030Y-91555838D01*
X144872030Y-91555838D02*
X144700601Y-91474886D01*
X143414886Y-91636791D02*
X143329172Y-91555838D01*
X143329172Y-91555838D02*
X143157744Y-91474886D01*
X143157744Y-91474886D02*
X142729172Y-91474886D01*
X142729172Y-91474886D02*
X142557744Y-91555838D01*
X142557744Y-91555838D02*
X142472029Y-91636791D01*
X142472029Y-91636791D02*
X142386315Y-91798695D01*
X142386315Y-91798695D02*
X142386315Y-91960600D01*
X142386315Y-91960600D02*
X142472029Y-92203457D01*
X142472029Y-92203457D02*
X143500601Y-93174886D01*
X143500601Y-93174886D02*
X142386315Y-93174886D01*
X141786315Y-91474886D02*
X140672029Y-91474886D01*
X140672029Y-91474886D02*
X141272029Y-92122505D01*
X141272029Y-92122505D02*
X141014886Y-92122505D01*
X141014886Y-92122505D02*
X140843458Y-92203457D01*
X140843458Y-92203457D02*
X140757743Y-92284410D01*
X140757743Y-92284410D02*
X140672029Y-92446314D01*
X140672029Y-92446314D02*
X140672029Y-92851076D01*
X140672029Y-92851076D02*
X140757743Y-93012981D01*
X140757743Y-93012981D02*
X140843458Y-93093934D01*
X140843458Y-93093934D02*
X141014886Y-93174886D01*
X141014886Y-93174886D02*
X141529172Y-93174886D01*
X141529172Y-93174886D02*
X141700600Y-93093934D01*
X141700600Y-93093934D02*
X141786315Y-93012981D01*
X139900600Y-92527267D02*
X138529172Y-92527267D01*
X137329172Y-91474886D02*
X137157743Y-91474886D01*
X137157743Y-91474886D02*
X136986315Y-91555838D01*
X136986315Y-91555838D02*
X136900601Y-91636791D01*
X136900601Y-91636791D02*
X136814886Y-91798695D01*
X136814886Y-91798695D02*
X136729172Y-92122505D01*
X136729172Y-92122505D02*
X136729172Y-92527267D01*
X136729172Y-92527267D02*
X136814886Y-92851076D01*
X136814886Y-92851076D02*
X136900601Y-93012981D01*
X136900601Y-93012981D02*
X136986315Y-93093934D01*
X136986315Y-93093934D02*
X137157743Y-93174886D01*
X137157743Y-93174886D02*
X137329172Y-93174886D01*
X137329172Y-93174886D02*
X137500601Y-93093934D01*
X137500601Y-93093934D02*
X137586315Y-93012981D01*
X137586315Y-93012981D02*
X137672029Y-92851076D01*
X137672029Y-92851076D02*
X137757743Y-92527267D01*
X137757743Y-92527267D02*
X137757743Y-92122505D01*
X137757743Y-92122505D02*
X137672029Y-91798695D01*
X137672029Y-91798695D02*
X137586315Y-91636791D01*
X137586315Y-91636791D02*
X137500601Y-91555838D01*
X137500601Y-91555838D02*
X137329172Y-91474886D01*
X135700600Y-92203457D02*
X135872029Y-92122505D01*
X135872029Y-92122505D02*
X135957743Y-92041553D01*
X135957743Y-92041553D02*
X136043457Y-91879648D01*
X136043457Y-91879648D02*
X136043457Y-91798695D01*
X136043457Y-91798695D02*
X135957743Y-91636791D01*
X135957743Y-91636791D02*
X135872029Y-91555838D01*
X135872029Y-91555838D02*
X135700600Y-91474886D01*
X135700600Y-91474886D02*
X135357743Y-91474886D01*
X135357743Y-91474886D02*
X135186315Y-91555838D01*
X135186315Y-91555838D02*
X135100600Y-91636791D01*
X135100600Y-91636791D02*
X135014886Y-91798695D01*
X135014886Y-91798695D02*
X135014886Y-91879648D01*
X135014886Y-91879648D02*
X135100600Y-92041553D01*
X135100600Y-92041553D02*
X135186315Y-92122505D01*
X135186315Y-92122505D02*
X135357743Y-92203457D01*
X135357743Y-92203457D02*
X135700600Y-92203457D01*
X135700600Y-92203457D02*
X135872029Y-92284410D01*
X135872029Y-92284410D02*
X135957743Y-92365362D01*
X135957743Y-92365362D02*
X136043457Y-92527267D01*
X136043457Y-92527267D02*
X136043457Y-92851076D01*
X136043457Y-92851076D02*
X135957743Y-93012981D01*
X135957743Y-93012981D02*
X135872029Y-93093934D01*
X135872029Y-93093934D02*
X135700600Y-93174886D01*
X135700600Y-93174886D02*
X135357743Y-93174886D01*
X135357743Y-93174886D02*
X135186315Y-93093934D01*
X135186315Y-93093934D02*
X135100600Y-93012981D01*
X135100600Y-93012981D02*
X135014886Y-92851076D01*
X135014886Y-92851076D02*
X135014886Y-92527267D01*
X135014886Y-92527267D02*
X135100600Y-92365362D01*
X135100600Y-92365362D02*
X135186315Y-92284410D01*
X135186315Y-92284410D02*
X135357743Y-92203457D01*
X130472028Y-93174886D02*
X131072028Y-92365362D01*
X131500599Y-93174886D02*
X131500599Y-91474886D01*
X131500599Y-91474886D02*
X130814885Y-91474886D01*
X130814885Y-91474886D02*
X130643456Y-91555838D01*
X130643456Y-91555838D02*
X130557742Y-91636791D01*
X130557742Y-91636791D02*
X130472028Y-91798695D01*
X130472028Y-91798695D02*
X130472028Y-92041553D01*
X130472028Y-92041553D02*
X130557742Y-92203457D01*
X130557742Y-92203457D02*
X130643456Y-92284410D01*
X130643456Y-92284410D02*
X130814885Y-92365362D01*
X130814885Y-92365362D02*
X131500599Y-92365362D01*
X129014885Y-93093934D02*
X129186313Y-93174886D01*
X129186313Y-93174886D02*
X129529171Y-93174886D01*
X129529171Y-93174886D02*
X129700599Y-93093934D01*
X129700599Y-93093934D02*
X129786313Y-92932029D01*
X129786313Y-92932029D02*
X129786313Y-92284410D01*
X129786313Y-92284410D02*
X129700599Y-92122505D01*
X129700599Y-92122505D02*
X129529171Y-92041553D01*
X129529171Y-92041553D02*
X129186313Y-92041553D01*
X129186313Y-92041553D02*
X129014885Y-92122505D01*
X129014885Y-92122505D02*
X128929171Y-92284410D01*
X128929171Y-92284410D02*
X128929171Y-92446314D01*
X128929171Y-92446314D02*
X129786313Y-92608219D01*
X128329171Y-92041553D02*
X127900599Y-93174886D01*
X127900599Y-93174886D02*
X127472028Y-92041553D01*
X124643456Y-91474886D02*
X124986313Y-91474886D01*
X124986313Y-91474886D02*
X125157741Y-91555838D01*
X125157741Y-91555838D02*
X125243456Y-91636791D01*
X125243456Y-91636791D02*
X125414884Y-91879648D01*
X125414884Y-91879648D02*
X125500598Y-92203457D01*
X125500598Y-92203457D02*
X125500598Y-92851076D01*
X125500598Y-92851076D02*
X125414884Y-93012981D01*
X125414884Y-93012981D02*
X125329170Y-93093934D01*
X125329170Y-93093934D02*
X125157741Y-93174886D01*
X125157741Y-93174886D02*
X124814884Y-93174886D01*
X124814884Y-93174886D02*
X124643456Y-93093934D01*
X124643456Y-93093934D02*
X124557741Y-93012981D01*
X124557741Y-93012981D02*
X124472027Y-92851076D01*
X124472027Y-92851076D02*
X124472027Y-92446314D01*
X124472027Y-92446314D02*
X124557741Y-92284410D01*
X124557741Y-92284410D02*
X124643456Y-92203457D01*
X124643456Y-92203457D02*
X124814884Y-92122505D01*
X124814884Y-92122505D02*
X125157741Y-92122505D01*
X125157741Y-92122505D02*
X125329170Y-92203457D01*
X125329170Y-92203457D02*
X125414884Y-92284410D01*
X125414884Y-92284410D02*
X125500598Y-92446314D01*
X123700598Y-93012981D02*
X123614884Y-93093934D01*
X123614884Y-93093934D02*
X123700598Y-93174886D01*
X123700598Y-93174886D02*
X123786312Y-93093934D01*
X123786312Y-93093934D02*
X123700598Y-93012981D01*
X123700598Y-93012981D02*
X123700598Y-93174886D01*
X123014884Y-91474886D02*
X121900598Y-91474886D01*
X121900598Y-91474886D02*
X122500598Y-92122505D01*
X122500598Y-92122505D02*
X122243455Y-92122505D01*
X122243455Y-92122505D02*
X122072027Y-92203457D01*
X122072027Y-92203457D02*
X121986312Y-92284410D01*
X121986312Y-92284410D02*
X121900598Y-92446314D01*
X121900598Y-92446314D02*
X121900598Y-92851076D01*
X121900598Y-92851076D02*
X121986312Y-93012981D01*
X121986312Y-93012981D02*
X122072027Y-93093934D01*
X122072027Y-93093934D02*
X122243455Y-93174886D01*
X122243455Y-93174886D02*
X122757741Y-93174886D01*
X122757741Y-93174886D02*
X122929169Y-93093934D01*
X122929169Y-93093934D02*
X123014884Y-93012981D01*
D10*
X68162438Y-53565588D02*
X68114819Y-53470350D01*
X68114819Y-53470350D02*
X68114819Y-53327493D01*
X68114819Y-53327493D02*
X68162438Y-53184636D01*
X68162438Y-53184636D02*
X68257676Y-53089398D01*
X68257676Y-53089398D02*
X68352914Y-53041779D01*
X68352914Y-53041779D02*
X68543390Y-52994160D01*
X68543390Y-52994160D02*
X68686247Y-52994160D01*
X68686247Y-52994160D02*
X68876723Y-53041779D01*
X68876723Y-53041779D02*
X68971961Y-53089398D01*
X68971961Y-53089398D02*
X69067200Y-53184636D01*
X69067200Y-53184636D02*
X69114819Y-53327493D01*
X69114819Y-53327493D02*
X69114819Y-53422731D01*
X69114819Y-53422731D02*
X69067200Y-53565588D01*
X69067200Y-53565588D02*
X69019580Y-53613207D01*
X69019580Y-53613207D02*
X68686247Y-53613207D01*
X68686247Y-53613207D02*
X68686247Y-53422731D01*
%TO.C,J1*%
X121374819Y-143176666D02*
X122089104Y-143176666D01*
X122089104Y-143176666D02*
X122231961Y-143129047D01*
X122231961Y-143129047D02*
X122327200Y-143033809D01*
X122327200Y-143033809D02*
X122374819Y-142890952D01*
X122374819Y-142890952D02*
X122374819Y-142795714D01*
X122374819Y-144176666D02*
X122374819Y-143605238D01*
X122374819Y-143890952D02*
X121374819Y-143890952D01*
X121374819Y-143890952D02*
X121517676Y-143795714D01*
X121517676Y-143795714D02*
X121612914Y-143700476D01*
X121612914Y-143700476D02*
X121660533Y-143605238D01*
%TO.C,C4*%
X77001666Y-61827580D02*
X77049285Y-61875200D01*
X77049285Y-61875200D02*
X77192142Y-61922819D01*
X77192142Y-61922819D02*
X77287380Y-61922819D01*
X77287380Y-61922819D02*
X77430237Y-61875200D01*
X77430237Y-61875200D02*
X77525475Y-61779961D01*
X77525475Y-61779961D02*
X77573094Y-61684723D01*
X77573094Y-61684723D02*
X77620713Y-61494247D01*
X77620713Y-61494247D02*
X77620713Y-61351390D01*
X77620713Y-61351390D02*
X77573094Y-61160914D01*
X77573094Y-61160914D02*
X77525475Y-61065676D01*
X77525475Y-61065676D02*
X77430237Y-60970438D01*
X77430237Y-60970438D02*
X77287380Y-60922819D01*
X77287380Y-60922819D02*
X77192142Y-60922819D01*
X77192142Y-60922819D02*
X77049285Y-60970438D01*
X77049285Y-60970438D02*
X77001666Y-61018057D01*
X76144523Y-61256152D02*
X76144523Y-61922819D01*
X76382618Y-60875200D02*
X76620713Y-61589485D01*
X76620713Y-61589485D02*
X76001666Y-61589485D01*
%TO.C,J3*%
X121374819Y-56181666D02*
X122089104Y-56181666D01*
X122089104Y-56181666D02*
X122231961Y-56134047D01*
X122231961Y-56134047D02*
X122327200Y-56038809D01*
X122327200Y-56038809D02*
X122374819Y-55895952D01*
X122374819Y-55895952D02*
X122374819Y-55800714D01*
X121374819Y-56562619D02*
X121374819Y-57181666D01*
X121374819Y-57181666D02*
X121755771Y-56848333D01*
X121755771Y-56848333D02*
X121755771Y-56991190D01*
X121755771Y-56991190D02*
X121803390Y-57086428D01*
X121803390Y-57086428D02*
X121851009Y-57134047D01*
X121851009Y-57134047D02*
X121946247Y-57181666D01*
X121946247Y-57181666D02*
X122184342Y-57181666D01*
X122184342Y-57181666D02*
X122279580Y-57134047D01*
X122279580Y-57134047D02*
X122327200Y-57086428D01*
X122327200Y-57086428D02*
X122374819Y-56991190D01*
X122374819Y-56991190D02*
X122374819Y-56705476D01*
X122374819Y-56705476D02*
X122327200Y-56610238D01*
X122327200Y-56610238D02*
X122279580Y-56562619D01*
%TO.C,J4*%
X64859819Y-56181666D02*
X65574104Y-56181666D01*
X65574104Y-56181666D02*
X65716961Y-56134047D01*
X65716961Y-56134047D02*
X65812200Y-56038809D01*
X65812200Y-56038809D02*
X65859819Y-55895952D01*
X65859819Y-55895952D02*
X65859819Y-55800714D01*
X65193152Y-57086428D02*
X65859819Y-57086428D01*
X64812200Y-56848333D02*
X65526485Y-56610238D01*
X65526485Y-56610238D02*
X65526485Y-57229285D01*
%TO.C,C3*%
X133770666Y-61319580D02*
X133818285Y-61367200D01*
X133818285Y-61367200D02*
X133961142Y-61414819D01*
X133961142Y-61414819D02*
X134056380Y-61414819D01*
X134056380Y-61414819D02*
X134199237Y-61367200D01*
X134199237Y-61367200D02*
X134294475Y-61271961D01*
X134294475Y-61271961D02*
X134342094Y-61176723D01*
X134342094Y-61176723D02*
X134389713Y-60986247D01*
X134389713Y-60986247D02*
X134389713Y-60843390D01*
X134389713Y-60843390D02*
X134342094Y-60652914D01*
X134342094Y-60652914D02*
X134294475Y-60557676D01*
X134294475Y-60557676D02*
X134199237Y-60462438D01*
X134199237Y-60462438D02*
X134056380Y-60414819D01*
X134056380Y-60414819D02*
X133961142Y-60414819D01*
X133961142Y-60414819D02*
X133818285Y-60462438D01*
X133818285Y-60462438D02*
X133770666Y-60510057D01*
X133437332Y-60414819D02*
X132818285Y-60414819D01*
X132818285Y-60414819D02*
X133151618Y-60795771D01*
X133151618Y-60795771D02*
X133008761Y-60795771D01*
X133008761Y-60795771D02*
X132913523Y-60843390D01*
X132913523Y-60843390D02*
X132865904Y-60891009D01*
X132865904Y-60891009D02*
X132818285Y-60986247D01*
X132818285Y-60986247D02*
X132818285Y-61224342D01*
X132818285Y-61224342D02*
X132865904Y-61319580D01*
X132865904Y-61319580D02*
X132913523Y-61367200D01*
X132913523Y-61367200D02*
X133008761Y-61414819D01*
X133008761Y-61414819D02*
X133294475Y-61414819D01*
X133294475Y-61414819D02*
X133389713Y-61367200D01*
X133389713Y-61367200D02*
X133437332Y-61319580D01*
%TO.C,J2*%
X64224819Y-143131666D02*
X64939104Y-143131666D01*
X64939104Y-143131666D02*
X65081961Y-143084047D01*
X65081961Y-143084047D02*
X65177200Y-142988809D01*
X65177200Y-142988809D02*
X65224819Y-142845952D01*
X65224819Y-142845952D02*
X65224819Y-142750714D01*
X64320057Y-143560238D02*
X64272438Y-143607857D01*
X64272438Y-143607857D02*
X64224819Y-143703095D01*
X64224819Y-143703095D02*
X64224819Y-143941190D01*
X64224819Y-143941190D02*
X64272438Y-144036428D01*
X64272438Y-144036428D02*
X64320057Y-144084047D01*
X64320057Y-144084047D02*
X64415295Y-144131666D01*
X64415295Y-144131666D02*
X64510533Y-144131666D01*
X64510533Y-144131666D02*
X64653390Y-144084047D01*
X64653390Y-144084047D02*
X65224819Y-143512619D01*
X65224819Y-143512619D02*
X65224819Y-144131666D01*
%TO.C,C1*%
X133059066Y-134787780D02*
X133106685Y-134835400D01*
X133106685Y-134835400D02*
X133249542Y-134883019D01*
X133249542Y-134883019D02*
X133344780Y-134883019D01*
X133344780Y-134883019D02*
X133487637Y-134835400D01*
X133487637Y-134835400D02*
X133582875Y-134740161D01*
X133582875Y-134740161D02*
X133630494Y-134644923D01*
X133630494Y-134644923D02*
X133678113Y-134454447D01*
X133678113Y-134454447D02*
X133678113Y-134311590D01*
X133678113Y-134311590D02*
X133630494Y-134121114D01*
X133630494Y-134121114D02*
X133582875Y-134025876D01*
X133582875Y-134025876D02*
X133487637Y-133930638D01*
X133487637Y-133930638D02*
X133344780Y-133883019D01*
X133344780Y-133883019D02*
X133249542Y-133883019D01*
X133249542Y-133883019D02*
X133106685Y-133930638D01*
X133106685Y-133930638D02*
X133059066Y-133978257D01*
X132106685Y-134883019D02*
X132678113Y-134883019D01*
X132392399Y-134883019D02*
X132392399Y-133883019D01*
X132392399Y-133883019D02*
X132487637Y-134025876D01*
X132487637Y-134025876D02*
X132582875Y-134121114D01*
X132582875Y-134121114D02*
X132678113Y-134168733D01*
%TO.C,C2*%
X76620666Y-131042580D02*
X76668285Y-131090200D01*
X76668285Y-131090200D02*
X76811142Y-131137819D01*
X76811142Y-131137819D02*
X76906380Y-131137819D01*
X76906380Y-131137819D02*
X77049237Y-131090200D01*
X77049237Y-131090200D02*
X77144475Y-130994961D01*
X77144475Y-130994961D02*
X77192094Y-130899723D01*
X77192094Y-130899723D02*
X77239713Y-130709247D01*
X77239713Y-130709247D02*
X77239713Y-130566390D01*
X77239713Y-130566390D02*
X77192094Y-130375914D01*
X77192094Y-130375914D02*
X77144475Y-130280676D01*
X77144475Y-130280676D02*
X77049237Y-130185438D01*
X77049237Y-130185438D02*
X76906380Y-130137819D01*
X76906380Y-130137819D02*
X76811142Y-130137819D01*
X76811142Y-130137819D02*
X76668285Y-130185438D01*
X76668285Y-130185438D02*
X76620666Y-130233057D01*
X76239713Y-130233057D02*
X76192094Y-130185438D01*
X76192094Y-130185438D02*
X76096856Y-130137819D01*
X76096856Y-130137819D02*
X75858761Y-130137819D01*
X75858761Y-130137819D02*
X75763523Y-130185438D01*
X75763523Y-130185438D02*
X75715904Y-130233057D01*
X75715904Y-130233057D02*
X75668285Y-130328295D01*
X75668285Y-130328295D02*
X75668285Y-130423533D01*
X75668285Y-130423533D02*
X75715904Y-130566390D01*
X75715904Y-130566390D02*
X76287332Y-131137819D01*
X76287332Y-131137819D02*
X75668285Y-131137819D01*
%TO.C,R4*%
X65077180Y-132115866D02*
X65553371Y-132449199D01*
X65077180Y-132687294D02*
X66077180Y-132687294D01*
X66077180Y-132687294D02*
X66077180Y-132306342D01*
X66077180Y-132306342D02*
X66029561Y-132211104D01*
X66029561Y-132211104D02*
X65981942Y-132163485D01*
X65981942Y-132163485D02*
X65886704Y-132115866D01*
X65886704Y-132115866D02*
X65743847Y-132115866D01*
X65743847Y-132115866D02*
X65648609Y-132163485D01*
X65648609Y-132163485D02*
X65600990Y-132211104D01*
X65600990Y-132211104D02*
X65553371Y-132306342D01*
X65553371Y-132306342D02*
X65553371Y-132687294D01*
X65743847Y-131258723D02*
X65077180Y-131258723D01*
X66124800Y-131496818D02*
X65410514Y-131734913D01*
X65410514Y-131734913D02*
X65410514Y-131115866D01*
%TO.C,R1*%
X121211180Y-131992666D02*
X121687371Y-132325999D01*
X121211180Y-132564094D02*
X122211180Y-132564094D01*
X122211180Y-132564094D02*
X122211180Y-132183142D01*
X122211180Y-132183142D02*
X122163561Y-132087904D01*
X122163561Y-132087904D02*
X122115942Y-132040285D01*
X122115942Y-132040285D02*
X122020704Y-131992666D01*
X122020704Y-131992666D02*
X121877847Y-131992666D01*
X121877847Y-131992666D02*
X121782609Y-132040285D01*
X121782609Y-132040285D02*
X121734990Y-132087904D01*
X121734990Y-132087904D02*
X121687371Y-132183142D01*
X121687371Y-132183142D02*
X121687371Y-132564094D01*
X121211180Y-131040285D02*
X121211180Y-131611713D01*
X121211180Y-131325999D02*
X122211180Y-131325999D01*
X122211180Y-131325999D02*
X122068323Y-131421237D01*
X122068323Y-131421237D02*
X121973085Y-131516475D01*
X121973085Y-131516475D02*
X121925466Y-131611713D01*
%TO.C,R2*%
X124914819Y-70568533D02*
X124438628Y-70235200D01*
X124914819Y-69997105D02*
X123914819Y-69997105D01*
X123914819Y-69997105D02*
X123914819Y-70378057D01*
X123914819Y-70378057D02*
X123962438Y-70473295D01*
X123962438Y-70473295D02*
X124010057Y-70520914D01*
X124010057Y-70520914D02*
X124105295Y-70568533D01*
X124105295Y-70568533D02*
X124248152Y-70568533D01*
X124248152Y-70568533D02*
X124343390Y-70520914D01*
X124343390Y-70520914D02*
X124391009Y-70473295D01*
X124391009Y-70473295D02*
X124438628Y-70378057D01*
X124438628Y-70378057D02*
X124438628Y-69997105D01*
X124010057Y-70949486D02*
X123962438Y-70997105D01*
X123962438Y-70997105D02*
X123914819Y-71092343D01*
X123914819Y-71092343D02*
X123914819Y-71330438D01*
X123914819Y-71330438D02*
X123962438Y-71425676D01*
X123962438Y-71425676D02*
X124010057Y-71473295D01*
X124010057Y-71473295D02*
X124105295Y-71520914D01*
X124105295Y-71520914D02*
X124200533Y-71520914D01*
X124200533Y-71520914D02*
X124343390Y-71473295D01*
X124343390Y-71473295D02*
X124914819Y-70901867D01*
X124914819Y-70901867D02*
X124914819Y-71520914D01*
%TO.C,R6*%
X126387866Y-137423019D02*
X126721199Y-136946828D01*
X126959294Y-137423019D02*
X126959294Y-136423019D01*
X126959294Y-136423019D02*
X126578342Y-136423019D01*
X126578342Y-136423019D02*
X126483104Y-136470638D01*
X126483104Y-136470638D02*
X126435485Y-136518257D01*
X126435485Y-136518257D02*
X126387866Y-136613495D01*
X126387866Y-136613495D02*
X126387866Y-136756352D01*
X126387866Y-136756352D02*
X126435485Y-136851590D01*
X126435485Y-136851590D02*
X126483104Y-136899209D01*
X126483104Y-136899209D02*
X126578342Y-136946828D01*
X126578342Y-136946828D02*
X126959294Y-136946828D01*
X125530723Y-136423019D02*
X125721199Y-136423019D01*
X125721199Y-136423019D02*
X125816437Y-136470638D01*
X125816437Y-136470638D02*
X125864056Y-136518257D01*
X125864056Y-136518257D02*
X125959294Y-136661114D01*
X125959294Y-136661114D02*
X126006913Y-136851590D01*
X126006913Y-136851590D02*
X126006913Y-137232542D01*
X126006913Y-137232542D02*
X125959294Y-137327780D01*
X125959294Y-137327780D02*
X125911675Y-137375400D01*
X125911675Y-137375400D02*
X125816437Y-137423019D01*
X125816437Y-137423019D02*
X125625961Y-137423019D01*
X125625961Y-137423019D02*
X125530723Y-137375400D01*
X125530723Y-137375400D02*
X125483104Y-137327780D01*
X125483104Y-137327780D02*
X125435485Y-137232542D01*
X125435485Y-137232542D02*
X125435485Y-136994447D01*
X125435485Y-136994447D02*
X125483104Y-136899209D01*
X125483104Y-136899209D02*
X125530723Y-136851590D01*
X125530723Y-136851590D02*
X125625961Y-136803971D01*
X125625961Y-136803971D02*
X125816437Y-136803971D01*
X125816437Y-136803971D02*
X125911675Y-136851590D01*
X125911675Y-136851590D02*
X125959294Y-136899209D01*
X125959294Y-136899209D02*
X126006913Y-136994447D01*
%TO.C,R3*%
X68526819Y-70576133D02*
X68050628Y-70242800D01*
X68526819Y-70004705D02*
X67526819Y-70004705D01*
X67526819Y-70004705D02*
X67526819Y-70385657D01*
X67526819Y-70385657D02*
X67574438Y-70480895D01*
X67574438Y-70480895D02*
X67622057Y-70528514D01*
X67622057Y-70528514D02*
X67717295Y-70576133D01*
X67717295Y-70576133D02*
X67860152Y-70576133D01*
X67860152Y-70576133D02*
X67955390Y-70528514D01*
X67955390Y-70528514D02*
X68003009Y-70480895D01*
X68003009Y-70480895D02*
X68050628Y-70385657D01*
X68050628Y-70385657D02*
X68050628Y-70004705D01*
X67526819Y-70909467D02*
X67526819Y-71528514D01*
X67526819Y-71528514D02*
X67907771Y-71195181D01*
X67907771Y-71195181D02*
X67907771Y-71338038D01*
X67907771Y-71338038D02*
X67955390Y-71433276D01*
X67955390Y-71433276D02*
X68003009Y-71480895D01*
X68003009Y-71480895D02*
X68098247Y-71528514D01*
X68098247Y-71528514D02*
X68336342Y-71528514D01*
X68336342Y-71528514D02*
X68431580Y-71480895D01*
X68431580Y-71480895D02*
X68479200Y-71433276D01*
X68479200Y-71433276D02*
X68526819Y-71338038D01*
X68526819Y-71338038D02*
X68526819Y-71052324D01*
X68526819Y-71052324D02*
X68479200Y-70957086D01*
X68479200Y-70957086D02*
X68431580Y-70909467D01*
%TO.C,R7*%
X69835066Y-65732819D02*
X70168399Y-65256628D01*
X70406494Y-65732819D02*
X70406494Y-64732819D01*
X70406494Y-64732819D02*
X70025542Y-64732819D01*
X70025542Y-64732819D02*
X69930304Y-64780438D01*
X69930304Y-64780438D02*
X69882685Y-64828057D01*
X69882685Y-64828057D02*
X69835066Y-64923295D01*
X69835066Y-64923295D02*
X69835066Y-65066152D01*
X69835066Y-65066152D02*
X69882685Y-65161390D01*
X69882685Y-65161390D02*
X69930304Y-65209009D01*
X69930304Y-65209009D02*
X70025542Y-65256628D01*
X70025542Y-65256628D02*
X70406494Y-65256628D01*
X69501732Y-64732819D02*
X68835066Y-64732819D01*
X68835066Y-64732819D02*
X69263637Y-65732819D01*
%TO.C,R5*%
X70016666Y-136852819D02*
X70349999Y-136376628D01*
X70588094Y-136852819D02*
X70588094Y-135852819D01*
X70588094Y-135852819D02*
X70207142Y-135852819D01*
X70207142Y-135852819D02*
X70111904Y-135900438D01*
X70111904Y-135900438D02*
X70064285Y-135948057D01*
X70064285Y-135948057D02*
X70016666Y-136043295D01*
X70016666Y-136043295D02*
X70016666Y-136186152D01*
X70016666Y-136186152D02*
X70064285Y-136281390D01*
X70064285Y-136281390D02*
X70111904Y-136329009D01*
X70111904Y-136329009D02*
X70207142Y-136376628D01*
X70207142Y-136376628D02*
X70588094Y-136376628D01*
X69111904Y-135852819D02*
X69588094Y-135852819D01*
X69588094Y-135852819D02*
X69635713Y-136329009D01*
X69635713Y-136329009D02*
X69588094Y-136281390D01*
X69588094Y-136281390D02*
X69492856Y-136233771D01*
X69492856Y-136233771D02*
X69254761Y-136233771D01*
X69254761Y-136233771D02*
X69159523Y-136281390D01*
X69159523Y-136281390D02*
X69111904Y-136329009D01*
X69111904Y-136329009D02*
X69064285Y-136424247D01*
X69064285Y-136424247D02*
X69064285Y-136662342D01*
X69064285Y-136662342D02*
X69111904Y-136757580D01*
X69111904Y-136757580D02*
X69159523Y-136805200D01*
X69159523Y-136805200D02*
X69254761Y-136852819D01*
X69254761Y-136852819D02*
X69492856Y-136852819D01*
X69492856Y-136852819D02*
X69588094Y-136805200D01*
X69588094Y-136805200D02*
X69635713Y-136757580D01*
%TO.C,R8*%
X125969066Y-65224819D02*
X126302399Y-64748628D01*
X126540494Y-65224819D02*
X126540494Y-64224819D01*
X126540494Y-64224819D02*
X126159542Y-64224819D01*
X126159542Y-64224819D02*
X126064304Y-64272438D01*
X126064304Y-64272438D02*
X126016685Y-64320057D01*
X126016685Y-64320057D02*
X125969066Y-64415295D01*
X125969066Y-64415295D02*
X125969066Y-64558152D01*
X125969066Y-64558152D02*
X126016685Y-64653390D01*
X126016685Y-64653390D02*
X126064304Y-64701009D01*
X126064304Y-64701009D02*
X126159542Y-64748628D01*
X126159542Y-64748628D02*
X126540494Y-64748628D01*
X125397637Y-64653390D02*
X125492875Y-64605771D01*
X125492875Y-64605771D02*
X125540494Y-64558152D01*
X125540494Y-64558152D02*
X125588113Y-64462914D01*
X125588113Y-64462914D02*
X125588113Y-64415295D01*
X125588113Y-64415295D02*
X125540494Y-64320057D01*
X125540494Y-64320057D02*
X125492875Y-64272438D01*
X125492875Y-64272438D02*
X125397637Y-64224819D01*
X125397637Y-64224819D02*
X125207161Y-64224819D01*
X125207161Y-64224819D02*
X125111923Y-64272438D01*
X125111923Y-64272438D02*
X125064304Y-64320057D01*
X125064304Y-64320057D02*
X125016685Y-64415295D01*
X125016685Y-64415295D02*
X125016685Y-64462914D01*
X125016685Y-64462914D02*
X125064304Y-64558152D01*
X125064304Y-64558152D02*
X125111923Y-64605771D01*
X125111923Y-64605771D02*
X125207161Y-64653390D01*
X125207161Y-64653390D02*
X125397637Y-64653390D01*
X125397637Y-64653390D02*
X125492875Y-64701009D01*
X125492875Y-64701009D02*
X125540494Y-64748628D01*
X125540494Y-64748628D02*
X125588113Y-64843866D01*
X125588113Y-64843866D02*
X125588113Y-65034342D01*
X125588113Y-65034342D02*
X125540494Y-65129580D01*
X125540494Y-65129580D02*
X125492875Y-65177200D01*
X125492875Y-65177200D02*
X125397637Y-65224819D01*
X125397637Y-65224819D02*
X125207161Y-65224819D01*
X125207161Y-65224819D02*
X125111923Y-65177200D01*
X125111923Y-65177200D02*
X125064304Y-65129580D01*
X125064304Y-65129580D02*
X125016685Y-65034342D01*
X125016685Y-65034342D02*
X125016685Y-64843866D01*
X125016685Y-64843866D02*
X125064304Y-64748628D01*
X125064304Y-64748628D02*
X125111923Y-64701009D01*
X125111923Y-64701009D02*
X125207161Y-64653390D01*
D12*
%TO.C,J1*%
X128270000Y-142180000D02*
X126940000Y-142180000D01*
X132095000Y-142225000D02*
X132095000Y-144885000D01*
X126955000Y-142225000D02*
X132095000Y-142225000D01*
X126955000Y-142225000D02*
X126955000Y-144885000D01*
X122945000Y-142235000D02*
X122970000Y-146310000D01*
X126955000Y-144885000D02*
X132095000Y-144885000D01*
%TO.C,C4*%
X77546252Y-64702500D02*
X76123748Y-64702500D01*
X77546252Y-62882500D02*
X76123748Y-62882500D01*
%TO.C,J3*%
X128270000Y-55185000D02*
X126940000Y-55185000D01*
X132095000Y-55230000D02*
X132095000Y-57890000D01*
X126955000Y-55230000D02*
X132095000Y-55230000D01*
X126955000Y-55230000D02*
X126955000Y-57890000D01*
X122945000Y-55240000D02*
X122970000Y-59315000D01*
X126955000Y-57890000D02*
X132095000Y-57890000D01*
%TO.C,J4*%
X71800000Y-55140000D02*
X70470000Y-55140000D01*
X75625000Y-55185000D02*
X75625000Y-57845000D01*
X70485000Y-55185000D02*
X75625000Y-55185000D01*
X70485000Y-55185000D02*
X70485000Y-57845000D01*
X66475000Y-55195000D02*
X66500000Y-59270000D01*
X70485000Y-57845000D02*
X75625000Y-57845000D01*
%TO.C,C3*%
X133718752Y-64410000D02*
X132296248Y-64410000D01*
X133718752Y-62590000D02*
X132296248Y-62590000D01*
%TO.C,J2*%
X71800000Y-142135000D02*
X70470000Y-142135000D01*
X75625000Y-142180000D02*
X75625000Y-144840000D01*
X70485000Y-142180000D02*
X75625000Y-142180000D01*
X70485000Y-142180000D02*
X70485000Y-144840000D01*
X66475000Y-142190000D02*
X66500000Y-146265000D01*
X70485000Y-144840000D02*
X75625000Y-144840000D01*
D13*
%TO.C,C1*%
X133646613Y-135430200D02*
X132138187Y-135430200D01*
X132138187Y-133426200D02*
X133646613Y-133426200D01*
D12*
%TO.C,C2*%
X77673252Y-135530000D02*
X76250748Y-135530000D01*
X77673252Y-133710000D02*
X76250748Y-133710000D01*
D13*
%TO.C,R4*%
X64530000Y-132703413D02*
X64530000Y-131194987D01*
X66534000Y-131194987D02*
X66534000Y-132703413D01*
%TO.C,R1*%
X120664000Y-132580213D02*
X120664000Y-131071787D01*
X122668000Y-131071787D02*
X122668000Y-132580213D01*
%TO.C,R2*%
X125462000Y-69980987D02*
X125462000Y-71489413D01*
X123458000Y-71489413D02*
X123458000Y-69980987D01*
%TO.C,R6*%
X126963650Y-137970200D02*
X125478750Y-137970200D01*
X125478750Y-135966200D02*
X126963650Y-135966200D01*
%TO.C,R3*%
X69074000Y-69988587D02*
X69074000Y-71497013D01*
X67070000Y-71497013D02*
X67070000Y-69988587D01*
%TO.C,R7*%
X70410850Y-66280000D02*
X68925950Y-66280000D01*
X68925950Y-64276000D02*
X70410850Y-64276000D01*
%TO.C,R5*%
X70592450Y-137400000D02*
X69107550Y-137400000D01*
X69107550Y-135396000D02*
X70592450Y-135396000D01*
%TO.C,R8*%
X126544850Y-65772000D02*
X125059950Y-65772000D01*
X125059950Y-63768000D02*
X126544850Y-63768000D01*
%TD*%
M02*
