%TF.GenerationSoftware,KiCad,Pcbnew,7.0.5-0*%
%TF.CreationDate,2023-08-23T15:32:02-04:00*%
%TF.ProjectId,quad_sipm,71756164-5f73-4697-906d-2e6b69636164,6.3*%
%TF.SameCoordinates,Original*%
%TF.FileFunction,Soldermask,Top*%
%TF.FilePolarity,Negative*%
%FSLAX46Y46*%
G04 Gerber Fmt 4.6, Leading zero omitted, Abs format (unit mm)*
G04 Created by KiCad (PCBNEW 7.0.5-0) date 2023-08-23 15:32:02*
%MOMM*%
%LPD*%
G01*
G04 APERTURE LIST*
%ADD10C,16.800000*%
%ADD11C,12.000000*%
%ADD12R,1.700000X1.700000*%
%ADD13O,1.700000X1.700000*%
G04 APERTURE END LIST*
D10*
%TO.C,H2*%
X100000000Y-100000000D03*
%TD*%
D11*
%TO.C,H3*%
X100000000Y-137000000D03*
%TD*%
%TO.C,H4*%
X137000000Y-100000000D03*
%TD*%
%TO.C,H5*%
X63000000Y-100000000D03*
%TD*%
%TO.C,H1*%
X100000000Y-63000000D03*
%TD*%
D12*
%TO.C,J7*%
X139146000Y-83820000D03*
D13*
X139146000Y-81280000D03*
X139146000Y-78740000D03*
X139146000Y-76200000D03*
X139146000Y-73660000D03*
X139146000Y-71120000D03*
X139146000Y-68580000D03*
X139146000Y-66040000D03*
X139146000Y-63500000D03*
X139146000Y-60960000D03*
D12*
X116286000Y-83820000D03*
D13*
X116286000Y-81280000D03*
X116286000Y-78740000D03*
X116286000Y-76200000D03*
X116286000Y-73660000D03*
X116286000Y-71120000D03*
X116286000Y-68580000D03*
X116286000Y-66040000D03*
X116286000Y-63500000D03*
X116286000Y-60960000D03*
%TD*%
D12*
%TO.C,J8*%
X83774000Y-83820000D03*
D13*
X83774000Y-81280000D03*
X83774000Y-78740000D03*
X83774000Y-76200000D03*
X83774000Y-73660000D03*
X83774000Y-71120000D03*
X83774000Y-68580000D03*
X83774000Y-66040000D03*
X83774000Y-63500000D03*
X83774000Y-60960000D03*
D12*
X60914000Y-83820000D03*
D13*
X60914000Y-81280000D03*
X60914000Y-78740000D03*
X60914000Y-76200000D03*
X60914000Y-73660000D03*
X60914000Y-71120000D03*
X60914000Y-68580000D03*
X60914000Y-66040000D03*
X60914000Y-63500000D03*
X60914000Y-60960000D03*
%TD*%
D12*
%TO.C,J6*%
X83774000Y-139192000D03*
D13*
X83774000Y-136652000D03*
X83774000Y-134112000D03*
X83774000Y-131572000D03*
X83774000Y-129032000D03*
X83774000Y-126492000D03*
X83774000Y-123952000D03*
X83774000Y-121412000D03*
X83774000Y-118872000D03*
X83774000Y-116332000D03*
D12*
X60914000Y-139192000D03*
D13*
X60914000Y-136652000D03*
X60914000Y-134112000D03*
X60914000Y-131572000D03*
X60914000Y-129032000D03*
X60914000Y-126492000D03*
X60914000Y-123952000D03*
X60914000Y-121412000D03*
X60914000Y-118872000D03*
X60914000Y-116332000D03*
%TD*%
D12*
%TO.C,J5*%
X139146000Y-139192000D03*
D13*
X139146000Y-136652000D03*
X139146000Y-134112000D03*
X139146000Y-131572000D03*
X139146000Y-129032000D03*
X139146000Y-126492000D03*
X139146000Y-123952000D03*
X139146000Y-121412000D03*
X139146000Y-118872000D03*
X139146000Y-116332000D03*
D12*
X116286000Y-139192000D03*
D13*
X116286000Y-136652000D03*
X116286000Y-134112000D03*
X116286000Y-131572000D03*
X116286000Y-129032000D03*
X116286000Y-126492000D03*
X116286000Y-123952000D03*
X116286000Y-121412000D03*
X116286000Y-118872000D03*
X116286000Y-116332000D03*
%TD*%
D12*
%TO.C,J1*%
X125685000Y-143555000D03*
D13*
X128225000Y-143555000D03*
X130765000Y-143555000D03*
%TD*%
D12*
%TO.C,J3*%
X125685000Y-56560000D03*
D13*
X128225000Y-56560000D03*
X130765000Y-56560000D03*
%TD*%
D12*
%TO.C,J4*%
X69215000Y-56515000D03*
D13*
X71755000Y-56515000D03*
X74295000Y-56515000D03*
%TD*%
D12*
%TO.C,J2*%
X69215000Y-143510000D03*
D13*
X71755000Y-143510000D03*
X74295000Y-143510000D03*
%TD*%
M02*
