%TF.GenerationSoftware,KiCad,Pcbnew,7.0.5-0*%
%TF.CreationDate,2023-08-23T15:32:02-04:00*%
%TF.ProjectId,quad_sipm,71756164-5f73-4697-906d-2e6b69636164,6.3*%
%TF.SameCoordinates,Original*%
%TF.FileFunction,Copper,L2,Bot*%
%TF.FilePolarity,Positive*%
%FSLAX46Y46*%
G04 Gerber Fmt 4.6, Leading zero omitted, Abs format (unit mm)*
G04 Created by KiCad (PCBNEW 7.0.5-0) date 2023-08-23 15:32:02*
%MOMM*%
%LPD*%
G01*
G04 APERTURE LIST*
G04 Aperture macros list*
%AMRoundRect*
0 Rectangle with rounded corners*
0 $1 Rounding radius*
0 $2 $3 $4 $5 $6 $7 $8 $9 X,Y pos of 4 corners*
0 Add a 4 corners polygon primitive as box body*
4,1,4,$2,$3,$4,$5,$6,$7,$8,$9,$2,$3,0*
0 Add four circle primitives for the rounded corners*
1,1,$1+$1,$2,$3*
1,1,$1+$1,$4,$5*
1,1,$1+$1,$6,$7*
1,1,$1+$1,$8,$9*
0 Add four rect primitives between the rounded corners*
20,1,$1+$1,$2,$3,$4,$5,0*
20,1,$1+$1,$4,$5,$6,$7,0*
20,1,$1+$1,$6,$7,$8,$9,0*
20,1,$1+$1,$8,$9,$2,$3,0*%
G04 Aperture macros list end*
%TA.AperFunction,ComponentPad*%
%ADD10C,16.800000*%
%TD*%
%TA.AperFunction,ComponentPad*%
%ADD11C,12.000000*%
%TD*%
%TA.AperFunction,ComponentPad*%
%ADD12R,1.700000X1.700000*%
%TD*%
%TA.AperFunction,ComponentPad*%
%ADD13O,1.700000X1.700000*%
%TD*%
%TA.AperFunction,SMDPad,CuDef*%
%ADD14RoundRect,0.250000X0.412500X0.650000X-0.412500X0.650000X-0.412500X-0.650000X0.412500X-0.650000X0*%
%TD*%
%TA.AperFunction,SMDPad,CuDef*%
%ADD15R,0.701600X1.699200*%
%TD*%
%TA.AperFunction,SMDPad,CuDef*%
%ADD16R,1.699200X0.701600*%
%TD*%
%TA.AperFunction,SMDPad,CuDef*%
%ADD17R,0.803200X1.750000*%
%TD*%
%TA.AperFunction,Conductor*%
%ADD18C,0.635000*%
%TD*%
G04 APERTURE END LIST*
D10*
%TO.P,H2,1*%
%TO.N,N/C*%
X100000000Y-100000000D03*
%TD*%
D11*
%TO.P,H3,1*%
%TO.N,N/C*%
X100000000Y-137000000D03*
%TD*%
%TO.P,H4,1*%
%TO.N,N/C*%
X137000000Y-100000000D03*
%TD*%
%TO.P,H5,1*%
%TO.N,N/C*%
X63000000Y-100000000D03*
%TD*%
%TO.P,H1,1*%
%TO.N,N/C*%
X100000000Y-63000000D03*
%TD*%
D12*
%TO.P,J7,1,Pin_1*%
%TO.N,unconnected-(J7-Pin_1-Pad1)*%
X139146000Y-83820000D03*
D13*
%TO.P,J7,2,Pin_2*%
%TO.N,unconnected-(J7-Pin_2-Pad2)*%
X139146000Y-81280000D03*
%TO.P,J7,3,Pin_3*%
%TO.N,unconnected-(J7-Pin_3-Pad3)*%
X139146000Y-78740000D03*
%TO.P,J7,4,Pin_4*%
%TO.N,unconnected-(J7-Pin_4-Pad4)*%
X139146000Y-76200000D03*
%TO.P,J7,5,Pin_5*%
%TO.N,Net-(J3-Pin_3)*%
X139146000Y-73660000D03*
%TO.P,J7,6,Pin_6*%
%TO.N,unconnected-(J7-Pin_6-Pad6)*%
X139146000Y-71120000D03*
%TO.P,J7,7,Pin_7*%
%TO.N,unconnected-(J7-Pin_7-Pad7)*%
X139146000Y-68580000D03*
%TO.P,J7,8,Pin_8*%
%TO.N,unconnected-(J7-Pin_8-Pad8)*%
X139146000Y-66040000D03*
%TO.P,J7,9,Pin_9*%
%TO.N,unconnected-(J7-Pin_9-Pad9)*%
X139146000Y-63500000D03*
%TO.P,J7,10,Pin_10*%
%TO.N,unconnected-(J7-Pin_10-Pad10)*%
X139146000Y-60960000D03*
D12*
%TO.P,J7,11,Pin_1*%
%TO.N,unconnected-(J7-Pin_1-Pad11)*%
X116286000Y-83820000D03*
D13*
%TO.P,J7,12,Pin_2*%
%TO.N,unconnected-(J7-Pin_2-Pad12)*%
X116286000Y-81280000D03*
%TO.P,J7,13,Pin_3*%
%TO.N,unconnected-(J7-Pin_3-Pad13)*%
X116286000Y-78740000D03*
%TO.P,J7,14,Pin_4*%
%TO.N,unconnected-(J7-Pin_4-Pad14)*%
X116286000Y-76200000D03*
%TO.P,J7,15,Pin_5*%
%TO.N,Net-(J7-Pin_5-Pad15)*%
X116286000Y-73660000D03*
%TO.P,J7,16,Pin_6*%
%TO.N,unconnected-(J7-Pin_6-Pad16)*%
X116286000Y-71120000D03*
%TO.P,J7,17,Pin_7*%
%TO.N,unconnected-(J7-Pin_7-Pad17)*%
X116286000Y-68580000D03*
%TO.P,J7,18,Pin_8*%
%TO.N,unconnected-(J7-Pin_8-Pad18)*%
X116286000Y-66040000D03*
%TO.P,J7,19,Pin_9*%
%TO.N,unconnected-(J7-Pin_9-Pad19)*%
X116286000Y-63500000D03*
%TO.P,J7,20,Pin_10*%
%TO.N,unconnected-(J7-Pin_10-Pad20)*%
X116286000Y-60960000D03*
%TD*%
D12*
%TO.P,J8,1,Pin_1*%
%TO.N,unconnected-(J8-Pin_1-Pad1)*%
X83774000Y-83820000D03*
D13*
%TO.P,J8,2,Pin_2*%
%TO.N,unconnected-(J8-Pin_2-Pad2)*%
X83774000Y-81280000D03*
%TO.P,J8,3,Pin_3*%
%TO.N,unconnected-(J8-Pin_3-Pad3)*%
X83774000Y-78740000D03*
%TO.P,J8,4,Pin_4*%
%TO.N,unconnected-(J8-Pin_4-Pad4)*%
X83774000Y-76200000D03*
%TO.P,J8,5,Pin_5*%
%TO.N,Net-(J4-Pin_3)*%
X83774000Y-73660000D03*
%TO.P,J8,6,Pin_6*%
%TO.N,unconnected-(J8-Pin_6-Pad6)*%
X83774000Y-71120000D03*
%TO.P,J8,7,Pin_7*%
%TO.N,unconnected-(J8-Pin_7-Pad7)*%
X83774000Y-68580000D03*
%TO.P,J8,8,Pin_8*%
%TO.N,unconnected-(J8-Pin_8-Pad8)*%
X83774000Y-66040000D03*
%TO.P,J8,9,Pin_9*%
%TO.N,unconnected-(J8-Pin_9-Pad9)*%
X83774000Y-63500000D03*
%TO.P,J8,10,Pin_10*%
%TO.N,unconnected-(J8-Pin_10-Pad10)*%
X83774000Y-60960000D03*
D12*
%TO.P,J8,11,Pin_1*%
%TO.N,unconnected-(J8-Pin_1-Pad11)*%
X60914000Y-83820000D03*
D13*
%TO.P,J8,12,Pin_2*%
%TO.N,unconnected-(J8-Pin_2-Pad12)*%
X60914000Y-81280000D03*
%TO.P,J8,13,Pin_3*%
%TO.N,unconnected-(J8-Pin_3-Pad13)*%
X60914000Y-78740000D03*
%TO.P,J8,14,Pin_4*%
%TO.N,unconnected-(J8-Pin_4-Pad14)*%
X60914000Y-76200000D03*
%TO.P,J8,15,Pin_5*%
%TO.N,Net-(J8-Pin_5-Pad15)*%
X60914000Y-73660000D03*
%TO.P,J8,16,Pin_6*%
%TO.N,unconnected-(J8-Pin_6-Pad16)*%
X60914000Y-71120000D03*
%TO.P,J8,17,Pin_7*%
%TO.N,unconnected-(J8-Pin_7-Pad17)*%
X60914000Y-68580000D03*
%TO.P,J8,18,Pin_8*%
%TO.N,unconnected-(J8-Pin_8-Pad18)*%
X60914000Y-66040000D03*
%TO.P,J8,19,Pin_9*%
%TO.N,unconnected-(J8-Pin_9-Pad19)*%
X60914000Y-63500000D03*
%TO.P,J8,20,Pin_10*%
%TO.N,unconnected-(J8-Pin_10-Pad20)*%
X60914000Y-60960000D03*
%TD*%
D12*
%TO.P,J6,1,Pin_1*%
%TO.N,unconnected-(J6-Pin_1-Pad1)*%
X83774000Y-139192000D03*
D13*
%TO.P,J6,2,Pin_2*%
%TO.N,unconnected-(J6-Pin_2-Pad2)*%
X83774000Y-136652000D03*
%TO.P,J6,3,Pin_3*%
%TO.N,unconnected-(J6-Pin_3-Pad3)*%
X83774000Y-134112000D03*
%TO.P,J6,4,Pin_4*%
%TO.N,unconnected-(J6-Pin_4-Pad4)*%
X83774000Y-131572000D03*
%TO.P,J6,5,Pin_5*%
%TO.N,Net-(J2-Pin_3)*%
X83774000Y-129032000D03*
%TO.P,J6,6,Pin_6*%
%TO.N,unconnected-(J6-Pin_6-Pad6)*%
X83774000Y-126492000D03*
%TO.P,J6,7,Pin_7*%
%TO.N,unconnected-(J6-Pin_7-Pad7)*%
X83774000Y-123952000D03*
%TO.P,J6,8,Pin_8*%
%TO.N,unconnected-(J6-Pin_8-Pad8)*%
X83774000Y-121412000D03*
%TO.P,J6,9,Pin_9*%
%TO.N,unconnected-(J6-Pin_9-Pad9)*%
X83774000Y-118872000D03*
%TO.P,J6,10,Pin_10*%
%TO.N,unconnected-(J6-Pin_10-Pad10)*%
X83774000Y-116332000D03*
D12*
%TO.P,J6,11,Pin_1*%
%TO.N,unconnected-(J6-Pin_1-Pad11)*%
X60914000Y-139192000D03*
D13*
%TO.P,J6,12,Pin_2*%
%TO.N,unconnected-(J6-Pin_2-Pad12)*%
X60914000Y-136652000D03*
%TO.P,J6,13,Pin_3*%
%TO.N,unconnected-(J6-Pin_3-Pad13)*%
X60914000Y-134112000D03*
%TO.P,J6,14,Pin_4*%
%TO.N,unconnected-(J6-Pin_4-Pad14)*%
X60914000Y-131572000D03*
%TO.P,J6,15,Pin_5*%
%TO.N,Net-(J6-Pin_5-Pad15)*%
X60914000Y-129032000D03*
%TO.P,J6,16,Pin_6*%
%TO.N,unconnected-(J6-Pin_6-Pad16)*%
X60914000Y-126492000D03*
%TO.P,J6,17,Pin_7*%
%TO.N,unconnected-(J6-Pin_7-Pad17)*%
X60914000Y-123952000D03*
%TO.P,J6,18,Pin_8*%
%TO.N,unconnected-(J6-Pin_8-Pad18)*%
X60914000Y-121412000D03*
%TO.P,J6,19,Pin_9*%
%TO.N,unconnected-(J6-Pin_9-Pad19)*%
X60914000Y-118872000D03*
%TO.P,J6,20,Pin_10*%
%TO.N,unconnected-(J6-Pin_10-Pad20)*%
X60914000Y-116332000D03*
%TD*%
D12*
%TO.P,J5,1,Pin_1*%
%TO.N,unconnected-(J5-Pin_1-Pad1)*%
X139146000Y-139192000D03*
D13*
%TO.P,J5,2,Pin_2*%
%TO.N,unconnected-(J5-Pin_2-Pad2)*%
X139146000Y-136652000D03*
%TO.P,J5,3,Pin_3*%
%TO.N,unconnected-(J5-Pin_3-Pad3)*%
X139146000Y-134112000D03*
%TO.P,J5,4,Pin_4*%
%TO.N,unconnected-(J5-Pin_4-Pad4)*%
X139146000Y-131572000D03*
%TO.P,J5,5,Pin_5*%
%TO.N,Net-(J1-Pin_3)*%
X139146000Y-129032000D03*
%TO.P,J5,6,Pin_6*%
%TO.N,unconnected-(J5-Pin_6-Pad6)*%
X139146000Y-126492000D03*
%TO.P,J5,7,Pin_7*%
%TO.N,unconnected-(J5-Pin_7-Pad7)*%
X139146000Y-123952000D03*
%TO.P,J5,8,Pin_8*%
%TO.N,unconnected-(J5-Pin_8-Pad8)*%
X139146000Y-121412000D03*
%TO.P,J5,9,Pin_9*%
%TO.N,unconnected-(J5-Pin_9-Pad9)*%
X139146000Y-118872000D03*
%TO.P,J5,10,Pin_10*%
%TO.N,unconnected-(J5-Pin_10-Pad10)*%
X139146000Y-116332000D03*
D12*
%TO.P,J5,11,Pin_1*%
%TO.N,unconnected-(J5-Pin_1-Pad11)*%
X116286000Y-139192000D03*
D13*
%TO.P,J5,12,Pin_2*%
%TO.N,unconnected-(J5-Pin_2-Pad12)*%
X116286000Y-136652000D03*
%TO.P,J5,13,Pin_3*%
%TO.N,unconnected-(J5-Pin_3-Pad13)*%
X116286000Y-134112000D03*
%TO.P,J5,14,Pin_4*%
%TO.N,unconnected-(J5-Pin_4-Pad14)*%
X116286000Y-131572000D03*
%TO.P,J5,15,Pin_5*%
%TO.N,Net-(J5-Pin_5-Pad15)*%
X116286000Y-129032000D03*
%TO.P,J5,16,Pin_6*%
%TO.N,unconnected-(J5-Pin_6-Pad16)*%
X116286000Y-126492000D03*
%TO.P,J5,17,Pin_7*%
%TO.N,unconnected-(J5-Pin_7-Pad17)*%
X116286000Y-123952000D03*
%TO.P,J5,18,Pin_8*%
%TO.N,unconnected-(J5-Pin_8-Pad18)*%
X116286000Y-121412000D03*
%TO.P,J5,19,Pin_9*%
%TO.N,unconnected-(J5-Pin_9-Pad19)*%
X116286000Y-118872000D03*
%TO.P,J5,20,Pin_10*%
%TO.N,unconnected-(J5-Pin_10-Pad20)*%
X116286000Y-116332000D03*
%TD*%
D12*
%TO.P,J1,1,Pin_1*%
%TO.N,Net-(J1-Pin_1)*%
X125685000Y-143555000D03*
D13*
%TO.P,J1,2,Pin_2*%
%TO.N,Net-(J1-Pin_2)*%
X128225000Y-143555000D03*
%TO.P,J1,3,Pin_3*%
%TO.N,Net-(J1-Pin_3)*%
X130765000Y-143555000D03*
%TD*%
D14*
%TO.P,C4,1*%
%TO.N,Net-(J4-Pin_1)*%
X78397500Y-63792500D03*
%TO.P,C4,2*%
%TO.N,Net-(J4-Pin_3)*%
X75272500Y-63792500D03*
%TD*%
D12*
%TO.P,J3,1,Pin_1*%
%TO.N,Net-(J3-Pin_1)*%
X125685000Y-56560000D03*
D13*
%TO.P,J3,2,Pin_2*%
%TO.N,Net-(J3-Pin_2)*%
X128225000Y-56560000D03*
%TO.P,J3,3,Pin_3*%
%TO.N,Net-(J3-Pin_3)*%
X130765000Y-56560000D03*
%TD*%
D12*
%TO.P,J4,1,Pin_1*%
%TO.N,Net-(J4-Pin_1)*%
X69215000Y-56515000D03*
D13*
%TO.P,J4,2,Pin_2*%
%TO.N,Net-(J4-Pin_2)*%
X71755000Y-56515000D03*
%TO.P,J4,3,Pin_3*%
%TO.N,Net-(J4-Pin_3)*%
X74295000Y-56515000D03*
%TD*%
D14*
%TO.P,C3,1*%
%TO.N,Net-(J3-Pin_1)*%
X134570000Y-63500000D03*
%TO.P,C3,2*%
%TO.N,Net-(J3-Pin_3)*%
X131445000Y-63500000D03*
%TD*%
D12*
%TO.P,J2,1,Pin_1*%
%TO.N,Net-(J2-Pin_1)*%
X69215000Y-143510000D03*
D13*
%TO.P,J2,2,Pin_2*%
%TO.N,Net-(J2-Pin_2)*%
X71755000Y-143510000D03*
%TO.P,J2,3,Pin_3*%
%TO.N,Net-(J2-Pin_3)*%
X74295000Y-143510000D03*
%TD*%
D15*
%TO.P,C1,1*%
%TO.N,Net-(J1-Pin_1)*%
X134293200Y-134428200D03*
%TO.P,C1,2*%
%TO.N,Net-(J1-Pin_3)*%
X131491600Y-134428200D03*
%TD*%
D14*
%TO.P,C2,1*%
%TO.N,Net-(J2-Pin_1)*%
X78524500Y-134620000D03*
%TO.P,C2,2*%
%TO.N,Net-(J2-Pin_3)*%
X75399500Y-134620000D03*
%TD*%
D16*
%TO.P,R4,1*%
%TO.N,Net-(J2-Pin_2)*%
X65532000Y-133350000D03*
%TO.P,R4,2*%
%TO.N,Net-(J6-Pin_5-Pad15)*%
X65532000Y-130548400D03*
%TD*%
%TO.P,R1,1*%
%TO.N,Net-(J1-Pin_2)*%
X121666000Y-133226800D03*
%TO.P,R1,2*%
%TO.N,Net-(J5-Pin_5-Pad15)*%
X121666000Y-130425200D03*
%TD*%
%TO.P,R2,1*%
%TO.N,Net-(J3-Pin_2)*%
X124460000Y-69334400D03*
%TO.P,R2,2*%
%TO.N,Net-(J7-Pin_5-Pad15)*%
X124460000Y-72136000D03*
%TD*%
D17*
%TO.P,R6,1*%
%TO.N,Net-(J1-Pin_1)*%
X127672800Y-136968200D03*
%TO.P,R6,2*%
%TO.N,Net-(J1-Pin_2)*%
X124769600Y-136968200D03*
%TD*%
D16*
%TO.P,R3,1*%
%TO.N,Net-(J4-Pin_2)*%
X68072000Y-69342000D03*
%TO.P,R3,2*%
%TO.N,Net-(J8-Pin_5-Pad15)*%
X68072000Y-72143600D03*
%TD*%
D17*
%TO.P,R7,1*%
%TO.N,Net-(J4-Pin_1)*%
X71120000Y-65278000D03*
%TO.P,R7,2*%
%TO.N,Net-(J4-Pin_2)*%
X68216800Y-65278000D03*
%TD*%
%TO.P,R5,1*%
%TO.N,Net-(J2-Pin_1)*%
X71301600Y-136398000D03*
%TO.P,R5,2*%
%TO.N,Net-(J2-Pin_2)*%
X68398400Y-136398000D03*
%TD*%
%TO.P,R8,1*%
%TO.N,Net-(J3-Pin_1)*%
X127254000Y-64770000D03*
%TO.P,R8,2*%
%TO.N,Net-(J3-Pin_2)*%
X124350800Y-64770000D03*
%TD*%
D18*
%TO.N,Net-(J2-Pin_2)*%
X71755000Y-143510000D02*
X68398400Y-140153400D01*
X68398400Y-140153400D02*
X68398400Y-136398000D01*
X65532000Y-133350000D02*
X65532000Y-133531600D01*
X65532000Y-133531600D02*
X68398400Y-136398000D01*
%TO.N,Net-(J3-Pin_2)*%
X124350800Y-64770000D02*
X124350800Y-60434200D01*
X124350800Y-69225200D02*
X124460000Y-69334400D01*
X124350800Y-64770000D02*
X124350800Y-69225200D01*
X124350800Y-60434200D02*
X128225000Y-56560000D01*
%TO.N,Net-(J4-Pin_2)*%
X71755000Y-56515000D02*
X68216800Y-60053200D01*
X68216800Y-60053200D02*
X68216800Y-65278000D01*
X68072000Y-65422800D02*
X68216800Y-65278000D01*
X68072000Y-69342000D02*
X68072000Y-65422800D01*
%TO.N,Net-(J1-Pin_2)*%
X124769600Y-140099600D02*
X124769600Y-136968200D01*
X121666000Y-133864600D02*
X124769600Y-136968200D01*
X121666000Y-133226800D02*
X121666000Y-133864600D01*
X128225000Y-143555000D02*
X124769600Y-140099600D01*
%TO.N,Net-(J1-Pin_3)*%
X139146000Y-129032000D02*
X136016186Y-129032000D01*
X136016186Y-129032000D02*
X131491600Y-133556586D01*
X131491600Y-142828400D02*
X130765000Y-143555000D01*
X131491600Y-134428200D02*
X131491600Y-142828400D01*
X131491600Y-133556586D02*
X131491600Y-134428200D01*
%TO.N,Net-(J2-Pin_3)*%
X80987500Y-129032000D02*
X75399500Y-134620000D01*
X83774000Y-129032000D02*
X80987500Y-129032000D01*
X75399500Y-142405500D02*
X74295000Y-143510000D01*
X75399500Y-134620000D02*
X75399500Y-142405500D01*
%TO.N,Net-(J3-Pin_3)*%
X130765000Y-62820000D02*
X131445000Y-63500000D01*
X130765000Y-56560000D02*
X130765000Y-62820000D01*
X131445000Y-65959000D02*
X131445000Y-63500000D01*
X131445000Y-65959000D02*
X139146000Y-73660000D01*
%TO.N,Net-(J4-Pin_3)*%
X74295000Y-56515000D02*
X74295000Y-62815000D01*
X76090000Y-64610000D02*
X75272500Y-63792500D01*
X76090000Y-65976000D02*
X76090000Y-64610000D01*
X83774000Y-73660000D02*
X76090000Y-65976000D01*
X74295000Y-62815000D02*
X75272500Y-63792500D01*
%TO.N,Net-(J5-Pin_5-Pad15)*%
X116286000Y-129032000D02*
X120272800Y-129032000D01*
X120272800Y-129032000D02*
X121666000Y-130425200D01*
%TO.N,Net-(J6-Pin_5-Pad15)*%
X60914000Y-129032000D02*
X64015600Y-129032000D01*
X64015600Y-129032000D02*
X65532000Y-130548400D01*
%TO.N,Net-(J7-Pin_5-Pad15)*%
X122936000Y-73660000D02*
X124460000Y-72136000D01*
X116286000Y-73660000D02*
X122936000Y-73660000D01*
%TO.N,Net-(J8-Pin_5-Pad15)*%
X66555600Y-73660000D02*
X68072000Y-72143600D01*
X60914000Y-73660000D02*
X66555600Y-73660000D01*
%TD*%
%TA.AperFunction,Conductor*%
%TO.N,Net-(J3-Pin_1)*%
G36*
X148942121Y-51020002D02*
G01*
X148988614Y-51073658D01*
X149000000Y-51126000D01*
X149000000Y-98874000D01*
X148979998Y-98942121D01*
X148926342Y-98988614D01*
X148874000Y-99000000D01*
X144056178Y-99000000D01*
X143988057Y-98979998D01*
X143941564Y-98926342D01*
X143932375Y-98897425D01*
X143897659Y-98713953D01*
X143845369Y-98437589D01*
X143709468Y-97930403D01*
X143580392Y-97561525D01*
X143536049Y-97434799D01*
X143536048Y-97434798D01*
X143536046Y-97434791D01*
X143326072Y-96953524D01*
X143326069Y-96953519D01*
X143326062Y-96953503D01*
X143171250Y-96660588D01*
X143080719Y-96489295D01*
X143080709Y-96489279D01*
X142801366Y-96044706D01*
X142801354Y-96044689D01*
X142489561Y-95622224D01*
X142489548Y-95622208D01*
X142147067Y-95224239D01*
X142147058Y-95224228D01*
X142147045Y-95224215D01*
X142147034Y-95224203D01*
X141775796Y-94852965D01*
X141775784Y-94852954D01*
X141775772Y-94852942D01*
X141674361Y-94765671D01*
X141377791Y-94510451D01*
X141377775Y-94510438D01*
X140955310Y-94198645D01*
X140955293Y-94198633D01*
X140510720Y-93919290D01*
X140510712Y-93919285D01*
X140510705Y-93919281D01*
X140465089Y-93895172D01*
X140046496Y-93673937D01*
X140046470Y-93673925D01*
X139862513Y-93593666D01*
X139565209Y-93463954D01*
X139565202Y-93463951D01*
X139565200Y-93463950D01*
X139069605Y-93290534D01*
X138562412Y-93154631D01*
X138046487Y-93057013D01*
X137524711Y-92998222D01*
X137000000Y-92978590D01*
X136475288Y-92998222D01*
X135953512Y-93057013D01*
X135437587Y-93154631D01*
X134930394Y-93290534D01*
X134434799Y-93463950D01*
X134434796Y-93463952D01*
X133953529Y-93673925D01*
X133953503Y-93673937D01*
X133489300Y-93919278D01*
X133489279Y-93919290D01*
X133044706Y-94198633D01*
X133044689Y-94198645D01*
X132622224Y-94510438D01*
X132622208Y-94510451D01*
X132224239Y-94852932D01*
X132224203Y-94852965D01*
X131852965Y-95224203D01*
X131852932Y-95224239D01*
X131510451Y-95622208D01*
X131510438Y-95622224D01*
X131198645Y-96044689D01*
X131198633Y-96044706D01*
X130919290Y-96489279D01*
X130919278Y-96489300D01*
X130673937Y-96953503D01*
X130673925Y-96953529D01*
X130463952Y-97434796D01*
X130463950Y-97434799D01*
X130290534Y-97930394D01*
X130154631Y-98437587D01*
X130067625Y-98897425D01*
X130035308Y-98960639D01*
X129973944Y-98996347D01*
X129943822Y-99000000D01*
X109477770Y-99000000D01*
X109409649Y-98979998D01*
X109363156Y-98926342D01*
X109352377Y-98886350D01*
X109340942Y-98770251D01*
X109340941Y-98770249D01*
X109340941Y-98770242D01*
X109240512Y-98161948D01*
X109186523Y-97930403D01*
X109100512Y-97561520D01*
X108921547Y-96971555D01*
X108921545Y-96971547D01*
X108740040Y-96489300D01*
X108704372Y-96394531D01*
X108449926Y-95832958D01*
X108159296Y-95289228D01*
X107833728Y-94765671D01*
X107474613Y-94264527D01*
X107083492Y-93787944D01*
X106662038Y-93337962D01*
X106212056Y-92916508D01*
X105735473Y-92525387D01*
X105234329Y-92166272D01*
X104710772Y-91840704D01*
X104710771Y-91840703D01*
X104167054Y-91550080D01*
X104167037Y-91550071D01*
X103754548Y-91363174D01*
X103605469Y-91295628D01*
X103605464Y-91295626D01*
X103028452Y-91078454D01*
X103028444Y-91078452D01*
X102438479Y-90899487D01*
X101838066Y-90759490D01*
X101229760Y-90659059D01*
X101113649Y-90647622D01*
X101047817Y-90621039D01*
X101006807Y-90563084D01*
X101000000Y-90522229D01*
X101000000Y-81280000D01*
X114414732Y-81280000D01*
X114433779Y-81546312D01*
X114490529Y-81807188D01*
X114490529Y-81807189D01*
X114583832Y-82057346D01*
X114583837Y-82057357D01*
X114657426Y-82192128D01*
X114672517Y-82261502D01*
X114647705Y-82328022D01*
X114644239Y-82332444D01*
X114586722Y-82402529D01*
X114586721Y-82402531D01*
X114492334Y-82579116D01*
X114492332Y-82579122D01*
X114434206Y-82770736D01*
X114434206Y-82770739D01*
X114419500Y-82920057D01*
X114419500Y-84719942D01*
X114434206Y-84869260D01*
X114434206Y-84869263D01*
X114492332Y-85060877D01*
X114492334Y-85060883D01*
X114586720Y-85237466D01*
X114586722Y-85237469D01*
X114713748Y-85392252D01*
X114868531Y-85519278D01*
X115045120Y-85613667D01*
X115236731Y-85671792D01*
X115236736Y-85671792D01*
X115236738Y-85671793D01*
X115346069Y-85682560D01*
X115386066Y-85686500D01*
X115386075Y-85686500D01*
X117185925Y-85686500D01*
X117185934Y-85686500D01*
X117283179Y-85676922D01*
X117335260Y-85671793D01*
X117335263Y-85671793D01*
X117335264Y-85671792D01*
X117335269Y-85671792D01*
X117526880Y-85613667D01*
X117703469Y-85519278D01*
X117858252Y-85392252D01*
X117985278Y-85237469D01*
X118079667Y-85060880D01*
X118137792Y-84869269D01*
X118152500Y-84719934D01*
X118152500Y-82920066D01*
X118137793Y-82770739D01*
X118137793Y-82770736D01*
X118137792Y-82770733D01*
X118137792Y-82770731D01*
X118079667Y-82579120D01*
X117985278Y-82402531D01*
X117927759Y-82332444D01*
X117900007Y-82267097D01*
X117911989Y-82197119D01*
X117914572Y-82192128D01*
X117988165Y-82057353D01*
X118081468Y-81807197D01*
X118138221Y-81546309D01*
X118157268Y-81280000D01*
X118138221Y-81013691D01*
X118081468Y-80752803D01*
X117988165Y-80502647D01*
X117860211Y-80268316D01*
X117723362Y-80085508D01*
X117698552Y-80018989D01*
X117713643Y-79949615D01*
X117723363Y-79934491D01*
X117860211Y-79751684D01*
X117988165Y-79517353D01*
X118081468Y-79267197D01*
X118138221Y-79006309D01*
X118157268Y-78740000D01*
X118138221Y-78473691D01*
X118081468Y-78212803D01*
X117988165Y-77962647D01*
X117860211Y-77728316D01*
X117723362Y-77545508D01*
X117698552Y-77478989D01*
X117713643Y-77409615D01*
X117723363Y-77394491D01*
X117860211Y-77211684D01*
X117988165Y-76977353D01*
X118081468Y-76727197D01*
X118138221Y-76466309D01*
X118157268Y-76200000D01*
X118138221Y-75933691D01*
X118081468Y-75672803D01*
X117988165Y-75422647D01*
X117860211Y-75188316D01*
X117860208Y-75188312D01*
X117860092Y-75188131D01*
X117860071Y-75188060D01*
X117858054Y-75184366D01*
X117858857Y-75183927D01*
X117840083Y-75120013D01*
X117860078Y-75051890D01*
X117913729Y-75005392D01*
X117966083Y-74994000D01*
X123052707Y-74994000D01*
X123052710Y-74994000D01*
X123107582Y-74984324D01*
X123113014Y-74983609D01*
X123168532Y-74978752D01*
X123222374Y-74964324D01*
X123227692Y-74963145D01*
X123277060Y-74954440D01*
X123282578Y-74953468D01*
X123282579Y-74953468D01*
X123282580Y-74953467D01*
X123282583Y-74953467D01*
X123334935Y-74934411D01*
X123340175Y-74932760D01*
X123393998Y-74918339D01*
X123444491Y-74894792D01*
X123449552Y-74892695D01*
X123501927Y-74873634D01*
X123550208Y-74845757D01*
X123555042Y-74843241D01*
X123605548Y-74819691D01*
X123651197Y-74787725D01*
X123655794Y-74784797D01*
X123704074Y-74756923D01*
X123746768Y-74721096D01*
X123751111Y-74717765D01*
X123796754Y-74685807D01*
X124021302Y-74461259D01*
X124021313Y-74461246D01*
X124942358Y-73540202D01*
X125004668Y-73506179D01*
X125031451Y-73503300D01*
X125359525Y-73503300D01*
X125359534Y-73503300D01*
X125456779Y-73493722D01*
X125508860Y-73488593D01*
X125508863Y-73488593D01*
X125508864Y-73488592D01*
X125508869Y-73488592D01*
X125700480Y-73430467D01*
X125877069Y-73336078D01*
X126031852Y-73209052D01*
X126158878Y-73054269D01*
X126253267Y-72877680D01*
X126311392Y-72686069D01*
X126326100Y-72536734D01*
X126326100Y-71735266D01*
X126311393Y-71585939D01*
X126311393Y-71585936D01*
X126311392Y-71585933D01*
X126311392Y-71585931D01*
X126253267Y-71394320D01*
X126158878Y-71217731D01*
X126031852Y-71062948D01*
X125877069Y-70935922D01*
X125877067Y-70935921D01*
X125877066Y-70935920D01*
X125723218Y-70853687D01*
X125709438Y-70846321D01*
X125658791Y-70796570D01*
X125643081Y-70727333D01*
X125667297Y-70660594D01*
X125709438Y-70624078D01*
X125877069Y-70534478D01*
X126031852Y-70407452D01*
X126158878Y-70252669D01*
X126253267Y-70076080D01*
X126311392Y-69884469D01*
X126326100Y-69735134D01*
X126326100Y-68933666D01*
X126311393Y-68784339D01*
X126311393Y-68784336D01*
X126311392Y-68784333D01*
X126311392Y-68784331D01*
X126253267Y-68592720D01*
X126246467Y-68579999D01*
X126158879Y-68416133D01*
X126158878Y-68416131D01*
X126031852Y-68261348D01*
X125877069Y-68134322D01*
X125877067Y-68134321D01*
X125877066Y-68134320D01*
X125751404Y-68067152D01*
X125700756Y-68017399D01*
X125684800Y-67956030D01*
X125684800Y-66088144D01*
X125694394Y-66039920D01*
X125696065Y-66035885D01*
X125696067Y-66035880D01*
X125754192Y-65844269D01*
X125763957Y-65745126D01*
X125767628Y-65707851D01*
X125794210Y-65642018D01*
X125852164Y-65601008D01*
X125893021Y-65594200D01*
X126091882Y-65594200D01*
X126160003Y-65614202D01*
X126206496Y-65667858D01*
X126217494Y-65710314D01*
X126220233Y-65745126D01*
X126220234Y-65745130D01*
X126264995Y-65899197D01*
X126346661Y-66037285D01*
X126346666Y-66037292D01*
X126460107Y-66150733D01*
X126460114Y-66150738D01*
X126598202Y-66232404D01*
X126752269Y-66277165D01*
X126752282Y-66277167D01*
X126788263Y-66279999D01*
X126788265Y-66280000D01*
X127000000Y-66280000D01*
X127000000Y-65024000D01*
X127508000Y-65024000D01*
X127508000Y-66280000D01*
X127719735Y-66280000D01*
X127719736Y-66279999D01*
X127755717Y-66277167D01*
X127755730Y-66277165D01*
X127909797Y-66232404D01*
X128047885Y-66150738D01*
X128047892Y-66150733D01*
X128161333Y-66037292D01*
X128161338Y-66037285D01*
X128243004Y-65899197D01*
X128287765Y-65745130D01*
X128287767Y-65745117D01*
X128290599Y-65709136D01*
X128290600Y-65709135D01*
X128290600Y-65024000D01*
X127508000Y-65024000D01*
X127000000Y-65024000D01*
X127000000Y-63260000D01*
X127508000Y-63260000D01*
X127508000Y-64516000D01*
X128290600Y-64516000D01*
X128290600Y-63830864D01*
X128290599Y-63830863D01*
X128287767Y-63794882D01*
X128287765Y-63794869D01*
X128243004Y-63640802D01*
X128161338Y-63502714D01*
X128161333Y-63502707D01*
X128047892Y-63389266D01*
X128047885Y-63389261D01*
X127909797Y-63307595D01*
X127755730Y-63262834D01*
X127755717Y-63262832D01*
X127719736Y-63260000D01*
X127508000Y-63260000D01*
X127000000Y-63260000D01*
X126788264Y-63260000D01*
X126752282Y-63262832D01*
X126752269Y-63262834D01*
X126598202Y-63307595D01*
X126460114Y-63389261D01*
X126460107Y-63389266D01*
X126346666Y-63502707D01*
X126346661Y-63502714D01*
X126264995Y-63640802D01*
X126220234Y-63794869D01*
X126220233Y-63794873D01*
X126217494Y-63829686D01*
X126192208Y-63896028D01*
X126135070Y-63938167D01*
X126091882Y-63945800D01*
X125893021Y-63945800D01*
X125824900Y-63925798D01*
X125778407Y-63872142D01*
X125767628Y-63832149D01*
X125754193Y-63695739D01*
X125754191Y-63695727D01*
X125696068Y-63504123D01*
X125694394Y-63500081D01*
X125684800Y-63451860D01*
X125684800Y-61038949D01*
X125704802Y-60970828D01*
X125721700Y-60949859D01*
X128208241Y-58463318D01*
X128270551Y-58429294D01*
X128288338Y-58426737D01*
X128491309Y-58412221D01*
X128752188Y-58355470D01*
X128752189Y-58355470D01*
X128752190Y-58355469D01*
X128752197Y-58355468D01*
X129002353Y-58262165D01*
X129236684Y-58134211D01*
X129236690Y-58134206D01*
X129236874Y-58134089D01*
X129236945Y-58134067D01*
X129240634Y-58132054D01*
X129241072Y-58132856D01*
X129304994Y-58114084D01*
X129373116Y-58134084D01*
X129419611Y-58187737D01*
X129430999Y-58240084D01*
X129431000Y-62703290D01*
X129431000Y-62936710D01*
X129440673Y-62991578D01*
X129441391Y-62997027D01*
X129446247Y-63052532D01*
X129460667Y-63106348D01*
X129461857Y-63111714D01*
X129471533Y-63166583D01*
X129490584Y-63218928D01*
X129492237Y-63224170D01*
X129506658Y-63277990D01*
X129506664Y-63278005D01*
X129530203Y-63328485D01*
X129532307Y-63333564D01*
X129551365Y-63385926D01*
X129579227Y-63434184D01*
X129581765Y-63439060D01*
X129605309Y-63489548D01*
X129605311Y-63489550D01*
X129605312Y-63489553D01*
X129612677Y-63500071D01*
X129637262Y-63535182D01*
X129640212Y-63539811D01*
X129668076Y-63588073D01*
X129668077Y-63588074D01*
X129703887Y-63630750D01*
X129707235Y-63635113D01*
X129742349Y-63685261D01*
X129740456Y-63686586D01*
X129764980Y-63742559D01*
X129766000Y-63758560D01*
X129766000Y-64215042D01*
X129776537Y-64348925D01*
X129776537Y-64348928D01*
X129776538Y-64348929D01*
X129832239Y-64569985D01*
X129832242Y-64569994D01*
X129926518Y-64777549D01*
X129926520Y-64777552D01*
X129926521Y-64777554D01*
X130056348Y-64964950D01*
X130074094Y-64982696D01*
X130108120Y-65045006D01*
X130111000Y-65071792D01*
X130111000Y-66075710D01*
X130120673Y-66130578D01*
X130121391Y-66136027D01*
X130126247Y-66191532D01*
X130140667Y-66245348D01*
X130141857Y-66250714D01*
X130151533Y-66305583D01*
X130170584Y-66357928D01*
X130172237Y-66363170D01*
X130186658Y-66416990D01*
X130186664Y-66417005D01*
X130210203Y-66467485D01*
X130212307Y-66472564D01*
X130231365Y-66524926D01*
X130259227Y-66573184D01*
X130261765Y-66578060D01*
X130285309Y-66628548D01*
X130285311Y-66628550D01*
X130285312Y-66628553D01*
X130300419Y-66650128D01*
X130317262Y-66674182D01*
X130320212Y-66678811D01*
X130348076Y-66727073D01*
X130348077Y-66727074D01*
X130383887Y-66769750D01*
X130387235Y-66774113D01*
X130419193Y-66819754D01*
X130442808Y-66843368D01*
X130442813Y-66843375D01*
X137242678Y-73643239D01*
X137276704Y-73705551D01*
X137279262Y-73723345D01*
X137293779Y-73926312D01*
X137350529Y-74187188D01*
X137350529Y-74187189D01*
X137443834Y-74437352D01*
X137489375Y-74520754D01*
X137571789Y-74671684D01*
X137658665Y-74787736D01*
X137708636Y-74854490D01*
X137733447Y-74921010D01*
X137718356Y-74990384D01*
X137708637Y-75005507D01*
X137571788Y-75188317D01*
X137443834Y-75422647D01*
X137350529Y-75672810D01*
X137350529Y-75672811D01*
X137293779Y-75933687D01*
X137274732Y-76200000D01*
X137293779Y-76466312D01*
X137350529Y-76727188D01*
X137350529Y-76727189D01*
X137443834Y-76977352D01*
X137443835Y-76977353D01*
X137571789Y-77211684D01*
X137637657Y-77299673D01*
X137708636Y-77394491D01*
X137733447Y-77461012D01*
X137718355Y-77530386D01*
X137708636Y-77545509D01*
X137571789Y-77728316D01*
X137443834Y-77962647D01*
X137350529Y-78212810D01*
X137350529Y-78212811D01*
X137293779Y-78473687D01*
X137274732Y-78739999D01*
X137293779Y-79006312D01*
X137350529Y-79267188D01*
X137350529Y-79267189D01*
X137443834Y-79517352D01*
X137443835Y-79517353D01*
X137571789Y-79751684D01*
X137637657Y-79839673D01*
X137708636Y-79934491D01*
X137733447Y-80001012D01*
X137718355Y-80070386D01*
X137708636Y-80085509D01*
X137571789Y-80268316D01*
X137443834Y-80502647D01*
X137350529Y-80752810D01*
X137350529Y-80752811D01*
X137293779Y-81013687D01*
X137274732Y-81280000D01*
X137293779Y-81546312D01*
X137350529Y-81807188D01*
X137350529Y-81807189D01*
X137443832Y-82057346D01*
X137443837Y-82057357D01*
X137517426Y-82192128D01*
X137532517Y-82261502D01*
X137507705Y-82328022D01*
X137504239Y-82332444D01*
X137446722Y-82402529D01*
X137446721Y-82402531D01*
X137352334Y-82579116D01*
X137352332Y-82579122D01*
X137294206Y-82770736D01*
X137294206Y-82770739D01*
X137279500Y-82920057D01*
X137279500Y-84719942D01*
X137294206Y-84869260D01*
X137294206Y-84869263D01*
X137352332Y-85060877D01*
X137352334Y-85060883D01*
X137446720Y-85237466D01*
X137446722Y-85237469D01*
X137573748Y-85392252D01*
X137728531Y-85519278D01*
X137905120Y-85613667D01*
X138096731Y-85671792D01*
X138096736Y-85671792D01*
X138096738Y-85671793D01*
X138206069Y-85682560D01*
X138246066Y-85686500D01*
X138246075Y-85686500D01*
X140045925Y-85686500D01*
X140045934Y-85686500D01*
X140143179Y-85676922D01*
X140195260Y-85671793D01*
X140195263Y-85671793D01*
X140195264Y-85671792D01*
X140195269Y-85671792D01*
X140386880Y-85613667D01*
X140563469Y-85519278D01*
X140718252Y-85392252D01*
X140845278Y-85237469D01*
X140939667Y-85060880D01*
X140997792Y-84869269D01*
X141012500Y-84719934D01*
X141012500Y-82920066D01*
X140997793Y-82770739D01*
X140997793Y-82770736D01*
X140997792Y-82770733D01*
X140997792Y-82770731D01*
X140939667Y-82579120D01*
X140845278Y-82402531D01*
X140787759Y-82332444D01*
X140760007Y-82267097D01*
X140771989Y-82197119D01*
X140774572Y-82192128D01*
X140848165Y-82057353D01*
X140941468Y-81807197D01*
X140998221Y-81546309D01*
X141017268Y-81280000D01*
X140998221Y-81013691D01*
X140941468Y-80752803D01*
X140848165Y-80502647D01*
X140720211Y-80268316D01*
X140583362Y-80085508D01*
X140558552Y-80018989D01*
X140573643Y-79949615D01*
X140583363Y-79934491D01*
X140720211Y-79751684D01*
X140848165Y-79517353D01*
X140941468Y-79267197D01*
X140998221Y-79006309D01*
X141017268Y-78740000D01*
X140998221Y-78473691D01*
X140941468Y-78212803D01*
X140848165Y-77962647D01*
X140720211Y-77728316D01*
X140583362Y-77545508D01*
X140558552Y-77478989D01*
X140573643Y-77409615D01*
X140583363Y-77394491D01*
X140720211Y-77211684D01*
X140848165Y-76977353D01*
X140941468Y-76727197D01*
X140998221Y-76466309D01*
X141017268Y-76200000D01*
X140998221Y-75933691D01*
X140941468Y-75672803D01*
X140848165Y-75422647D01*
X140720211Y-75188316D01*
X140583362Y-75005507D01*
X140558552Y-74938989D01*
X140573643Y-74869615D01*
X140583363Y-74854491D01*
X140633335Y-74787736D01*
X140720211Y-74671684D01*
X140848165Y-74437353D01*
X140941468Y-74187197D01*
X140998221Y-73926309D01*
X141017268Y-73660000D01*
X140998221Y-73393691D01*
X140941468Y-73132803D01*
X140848165Y-72882647D01*
X140720211Y-72648316D01*
X140583362Y-72465508D01*
X140558552Y-72398989D01*
X140573643Y-72329615D01*
X140583363Y-72314491D01*
X140629887Y-72252342D01*
X140720211Y-72131684D01*
X140848165Y-71897353D01*
X140941468Y-71647197D01*
X140998221Y-71386309D01*
X141017268Y-71120000D01*
X140998221Y-70853691D01*
X140961958Y-70686992D01*
X140941470Y-70592811D01*
X140941470Y-70592810D01*
X140941468Y-70592806D01*
X140941468Y-70592803D01*
X140848165Y-70342647D01*
X140720211Y-70108316D01*
X140583362Y-69925508D01*
X140558552Y-69858989D01*
X140573643Y-69789615D01*
X140583363Y-69774491D01*
X140583364Y-69774490D01*
X140720211Y-69591684D01*
X140848165Y-69357353D01*
X140941468Y-69107197D01*
X140998221Y-68846309D01*
X141017268Y-68580000D01*
X140998221Y-68313691D01*
X140961967Y-68147034D01*
X140941470Y-68052811D01*
X140941470Y-68052810D01*
X140941468Y-68052806D01*
X140941468Y-68052803D01*
X140848165Y-67802647D01*
X140720211Y-67568316D01*
X140583362Y-67385508D01*
X140558552Y-67318989D01*
X140573643Y-67249615D01*
X140583363Y-67234491D01*
X140720211Y-67051684D01*
X140848165Y-66817353D01*
X140941468Y-66567197D01*
X140998221Y-66306309D01*
X141017268Y-66040000D01*
X140998221Y-65773691D01*
X140952867Y-65565203D01*
X140941470Y-65512811D01*
X140941470Y-65512810D01*
X140941468Y-65512806D01*
X140941468Y-65512803D01*
X140848165Y-65262647D01*
X140720211Y-65028316D01*
X140621393Y-64896311D01*
X140583363Y-64845508D01*
X140558552Y-64778988D01*
X140573644Y-64709613D01*
X140583357Y-64694498D01*
X140720211Y-64511684D01*
X140848165Y-64277353D01*
X140941468Y-64027197D01*
X140998221Y-63766309D01*
X141017268Y-63500000D01*
X140998221Y-63233691D01*
X140958812Y-63052532D01*
X140941470Y-62972811D01*
X140941470Y-62972810D01*
X140941468Y-62972806D01*
X140941468Y-62972803D01*
X140848165Y-62722647D01*
X140720211Y-62488316D01*
X140583362Y-62305508D01*
X140558552Y-62238989D01*
X140573643Y-62169615D01*
X140583363Y-62154491D01*
X140720211Y-61971684D01*
X140848165Y-61737353D01*
X140941468Y-61487197D01*
X140998221Y-61226309D01*
X141017268Y-60960000D01*
X140998221Y-60693691D01*
X140941902Y-60434796D01*
X140941470Y-60432811D01*
X140941470Y-60432810D01*
X140941468Y-60432806D01*
X140941468Y-60432803D01*
X140848165Y-60182647D01*
X140720211Y-59948316D01*
X140560210Y-59734580D01*
X140371420Y-59545790D01*
X140371417Y-59545788D01*
X140371414Y-59545785D01*
X140284963Y-59481069D01*
X140157684Y-59385789D01*
X140029728Y-59315920D01*
X139923352Y-59257834D01*
X139673189Y-59164529D01*
X139412311Y-59107779D01*
X139412313Y-59107779D01*
X139146000Y-59088732D01*
X138879687Y-59107779D01*
X138618811Y-59164529D01*
X138618810Y-59164529D01*
X138368647Y-59257834D01*
X138134316Y-59385789D01*
X137920585Y-59545785D01*
X137920576Y-59545793D01*
X137731793Y-59734576D01*
X137731785Y-59734585D01*
X137571789Y-59948316D01*
X137443834Y-60182647D01*
X137350529Y-60432810D01*
X137350529Y-60432811D01*
X137293779Y-60693687D01*
X137293779Y-60693691D01*
X137274732Y-60960000D01*
X137276646Y-60986760D01*
X137293779Y-61226312D01*
X137350529Y-61487188D01*
X137350529Y-61487189D01*
X137443834Y-61737352D01*
X137443835Y-61737353D01*
X137571789Y-61971684D01*
X137607382Y-62019230D01*
X137708636Y-62154491D01*
X137733447Y-62221012D01*
X137718355Y-62290386D01*
X137708636Y-62305509D01*
X137571789Y-62488316D01*
X137443834Y-62722647D01*
X137350529Y-62972810D01*
X137350529Y-62972811D01*
X137293779Y-63233687D01*
X137274732Y-63500000D01*
X137293779Y-63766312D01*
X137350529Y-64027188D01*
X137350529Y-64027189D01*
X137443834Y-64277352D01*
X137443835Y-64277353D01*
X137571789Y-64511684D01*
X137663849Y-64634661D01*
X137708636Y-64694490D01*
X137733447Y-64761010D01*
X137718356Y-64830384D01*
X137708637Y-64845507D01*
X137571788Y-65028317D01*
X137443834Y-65262647D01*
X137350529Y-65512810D01*
X137350529Y-65512811D01*
X137293779Y-65773687D01*
X137274732Y-66039999D01*
X137293779Y-66306312D01*
X137350529Y-66567188D01*
X137350529Y-66567189D01*
X137443834Y-66817352D01*
X137443835Y-66817353D01*
X137571789Y-67051684D01*
X137637657Y-67139673D01*
X137708636Y-67234491D01*
X137733447Y-67301012D01*
X137718355Y-67370386D01*
X137708636Y-67385509D01*
X137571789Y-67568316D01*
X137443834Y-67802647D01*
X137350529Y-68052810D01*
X137350529Y-68052811D01*
X137293779Y-68313687D01*
X137274732Y-68580000D01*
X137293779Y-68846312D01*
X137350529Y-69107188D01*
X137350529Y-69107189D01*
X137443834Y-69357352D01*
X137443835Y-69357353D01*
X137571789Y-69591684D01*
X137698782Y-69761327D01*
X137708636Y-69774490D01*
X137733447Y-69841010D01*
X137718356Y-69910384D01*
X137708636Y-69925508D01*
X137620009Y-70043899D01*
X137563173Y-70086446D01*
X137492357Y-70091510D01*
X137430046Y-70057485D01*
X135148357Y-67775796D01*
X132815905Y-65443343D01*
X132781879Y-65381031D01*
X132779000Y-65354248D01*
X132779000Y-65071792D01*
X132799002Y-65003671D01*
X132815904Y-64982697D01*
X132833652Y-64964950D01*
X132963479Y-64777554D01*
X133057760Y-64569989D01*
X133082806Y-64470589D01*
X133118845Y-64409423D01*
X133182234Y-64377449D01*
X133252847Y-64384822D01*
X133308264Y-64429200D01*
X133323958Y-64462893D01*
X133324363Y-64462738D01*
X133326595Y-64468555D01*
X133326690Y-64468757D01*
X133326728Y-64468899D01*
X133411187Y-64634658D01*
X133411188Y-64634661D01*
X133528263Y-64779236D01*
X133672838Y-64896311D01*
X133672841Y-64896312D01*
X133838597Y-64980769D01*
X134018289Y-65028917D01*
X134095561Y-65035000D01*
X134316000Y-65035000D01*
X134316000Y-63754000D01*
X134824000Y-63754000D01*
X134824000Y-65035000D01*
X135044439Y-65035000D01*
X135121710Y-65028917D01*
X135301402Y-64980769D01*
X135467158Y-64896312D01*
X135467161Y-64896311D01*
X135611736Y-64779236D01*
X135728811Y-64634661D01*
X135728812Y-64634658D01*
X135813269Y-64468902D01*
X135861417Y-64289210D01*
X135867500Y-64211938D01*
X135867500Y-63754000D01*
X134824000Y-63754000D01*
X134316000Y-63754000D01*
X134316000Y-61965000D01*
X134824000Y-61965000D01*
X134824000Y-63246000D01*
X135867500Y-63246000D01*
X135867500Y-62788061D01*
X135861417Y-62710789D01*
X135813269Y-62531097D01*
X135728812Y-62365341D01*
X135728811Y-62365338D01*
X135611736Y-62220763D01*
X135467161Y-62103688D01*
X135467158Y-62103687D01*
X135301402Y-62019230D01*
X135121710Y-61971082D01*
X135044439Y-61965000D01*
X134824000Y-61965000D01*
X134316000Y-61965000D01*
X134095561Y-61965000D01*
X134018289Y-61971082D01*
X133838597Y-62019230D01*
X133672841Y-62103687D01*
X133672838Y-62103688D01*
X133528263Y-62220763D01*
X133411188Y-62365338D01*
X133411187Y-62365341D01*
X133326728Y-62531100D01*
X133326689Y-62531247D01*
X133326642Y-62531322D01*
X133324363Y-62537262D01*
X133323276Y-62536844D01*
X133289730Y-62591865D01*
X133225866Y-62622879D01*
X133155372Y-62614442D01*
X133100631Y-62569232D01*
X133082805Y-62529407D01*
X133072451Y-62488316D01*
X133057760Y-62430011D01*
X132963479Y-62222446D01*
X132833652Y-62035050D01*
X132833650Y-62035048D01*
X132833642Y-62035039D01*
X132672460Y-61873857D01*
X132672451Y-61873849D01*
X132672450Y-61873848D01*
X132485054Y-61744021D01*
X132277489Y-61649740D01*
X132194211Y-61628755D01*
X132133043Y-61592715D01*
X132101070Y-61529325D01*
X132099000Y-61506585D01*
X132099000Y-57917816D01*
X132119001Y-57849699D01*
X132135898Y-57828730D01*
X132179210Y-57785420D01*
X132339211Y-57571684D01*
X132467165Y-57337353D01*
X132560468Y-57087197D01*
X132617221Y-56826309D01*
X132636268Y-56560000D01*
X132617221Y-56293691D01*
X132568043Y-56067625D01*
X132560470Y-56032811D01*
X132560470Y-56032810D01*
X132560468Y-56032806D01*
X132560468Y-56032803D01*
X132467165Y-55782647D01*
X132339211Y-55548316D01*
X132179210Y-55334580D01*
X131990420Y-55145790D01*
X131990417Y-55145788D01*
X131990414Y-55145785D01*
X131895856Y-55075000D01*
X131776684Y-54985789D01*
X131648728Y-54915920D01*
X131542352Y-54857834D01*
X131292189Y-54764529D01*
X131031311Y-54707779D01*
X131031313Y-54707779D01*
X130818261Y-54692541D01*
X130765000Y-54688732D01*
X130764999Y-54688732D01*
X130498687Y-54707779D01*
X130237811Y-54764529D01*
X130237810Y-54764529D01*
X129987647Y-54857834D01*
X129753316Y-54985789D01*
X129570509Y-55122636D01*
X129503988Y-55147447D01*
X129434614Y-55132355D01*
X129419491Y-55122636D01*
X129324673Y-55051657D01*
X129236684Y-54985789D01*
X129108728Y-54915920D01*
X129002352Y-54857834D01*
X128752189Y-54764529D01*
X128491311Y-54707779D01*
X128491313Y-54707779D01*
X128278261Y-54692541D01*
X128225000Y-54688732D01*
X128224999Y-54688732D01*
X127958687Y-54707779D01*
X127697811Y-54764529D01*
X127697810Y-54764529D01*
X127447647Y-54857834D01*
X127213316Y-54985789D01*
X126999580Y-55145790D01*
X126998700Y-55146553D01*
X126998345Y-55146715D01*
X126995978Y-55148487D01*
X126995592Y-55147971D01*
X126934116Y-55176039D01*
X126863843Y-55165927D01*
X126852059Y-55159772D01*
X126789197Y-55122595D01*
X126635130Y-55077834D01*
X126635117Y-55077832D01*
X126599136Y-55075000D01*
X125939000Y-55075000D01*
X125939000Y-56126325D01*
X125827315Y-56075320D01*
X125720763Y-56060000D01*
X125649237Y-56060000D01*
X125542685Y-56075320D01*
X125431000Y-56126325D01*
X125431000Y-55075000D01*
X124770864Y-55075000D01*
X124734882Y-55077832D01*
X124734869Y-55077834D01*
X124580802Y-55122595D01*
X124442714Y-55204261D01*
X124442707Y-55204266D01*
X124329266Y-55317707D01*
X124329261Y-55317714D01*
X124247595Y-55455802D01*
X124202834Y-55609869D01*
X124202832Y-55609882D01*
X124200000Y-55645863D01*
X124200000Y-56306000D01*
X125253884Y-56306000D01*
X125225507Y-56350156D01*
X125185000Y-56488111D01*
X125185000Y-56631889D01*
X125225507Y-56769844D01*
X125253884Y-56814000D01*
X124200000Y-56814000D01*
X124200000Y-57474136D01*
X124202832Y-57510117D01*
X124202834Y-57510130D01*
X124247595Y-57664197D01*
X124329261Y-57802285D01*
X124329266Y-57802292D01*
X124442707Y-57915733D01*
X124442714Y-57915738D01*
X124580803Y-57997404D01*
X124624347Y-58010055D01*
X124684183Y-58048267D01*
X124713861Y-58112763D01*
X124703958Y-58183066D01*
X124678290Y-58220147D01*
X123472323Y-59426114D01*
X123472321Y-59426117D01*
X123325000Y-59573437D01*
X123324991Y-59573447D01*
X123293037Y-59619082D01*
X123289691Y-59623443D01*
X123253876Y-59666126D01*
X123226015Y-59714381D01*
X123223062Y-59719017D01*
X123191109Y-59764650D01*
X123167565Y-59815139D01*
X123165028Y-59820013D01*
X123137165Y-59868274D01*
X123118108Y-59920633D01*
X123116004Y-59925711D01*
X123092460Y-59976200D01*
X123092459Y-59976203D01*
X123078040Y-60030018D01*
X123076388Y-60035259D01*
X123057333Y-60087616D01*
X123047657Y-60142484D01*
X123046467Y-60147849D01*
X123032047Y-60201666D01*
X123027191Y-60257171D01*
X123026474Y-60262620D01*
X123016800Y-60317489D01*
X123016800Y-63451855D01*
X123007210Y-63500071D01*
X123005530Y-63504125D01*
X122947408Y-63695727D01*
X122947406Y-63695739D01*
X122932700Y-63845057D01*
X122932700Y-65694942D01*
X122947406Y-65844260D01*
X122947406Y-65844263D01*
X123005534Y-66035885D01*
X123007206Y-66039920D01*
X123016800Y-66088144D01*
X123016800Y-68096172D01*
X122996798Y-68164293D01*
X122970734Y-68193571D01*
X122888148Y-68261347D01*
X122761120Y-68416133D01*
X122666734Y-68592716D01*
X122666732Y-68592722D01*
X122608606Y-68784336D01*
X122608606Y-68784339D01*
X122593900Y-68933657D01*
X122593900Y-69735142D01*
X122608606Y-69884460D01*
X122608606Y-69884463D01*
X122666732Y-70076077D01*
X122666734Y-70076083D01*
X122715394Y-70167119D01*
X122761122Y-70252669D01*
X122888148Y-70407452D01*
X123042931Y-70534478D01*
X123042933Y-70534479D01*
X123210560Y-70624078D01*
X123261208Y-70673830D01*
X123276918Y-70743067D01*
X123252702Y-70809806D01*
X123210560Y-70846322D01*
X123042933Y-70935920D01*
X122888148Y-71062948D01*
X122761120Y-71217733D01*
X122666734Y-71394316D01*
X122666732Y-71394322D01*
X122608606Y-71585936D01*
X122608606Y-71585939D01*
X122593900Y-71735257D01*
X122593900Y-72063348D01*
X122573898Y-72131469D01*
X122556995Y-72152442D01*
X122420342Y-72289096D01*
X122358033Y-72323120D01*
X122331249Y-72326000D01*
X117966083Y-72326000D01*
X117897962Y-72305998D01*
X117851469Y-72252342D01*
X117841365Y-72182068D01*
X117858580Y-72135921D01*
X117858054Y-72135634D01*
X117860053Y-72131972D01*
X117860092Y-72131869D01*
X117860204Y-72131693D01*
X117860211Y-72131684D01*
X117988165Y-71897353D01*
X118081468Y-71647197D01*
X118138221Y-71386309D01*
X118157268Y-71120000D01*
X118138221Y-70853691D01*
X118101958Y-70686992D01*
X118081470Y-70592811D01*
X118081470Y-70592810D01*
X118081468Y-70592806D01*
X118081468Y-70592803D01*
X117988165Y-70342647D01*
X117860211Y-70108316D01*
X117723362Y-69925508D01*
X117698552Y-69858989D01*
X117713643Y-69789615D01*
X117723363Y-69774491D01*
X117723364Y-69774490D01*
X117860211Y-69591684D01*
X117988165Y-69357353D01*
X118081468Y-69107197D01*
X118138221Y-68846309D01*
X118157268Y-68580000D01*
X118138221Y-68313691D01*
X118101967Y-68147034D01*
X118081470Y-68052811D01*
X118081470Y-68052810D01*
X118081468Y-68052806D01*
X118081468Y-68052803D01*
X117988165Y-67802647D01*
X117860211Y-67568316D01*
X117723362Y-67385508D01*
X117698552Y-67318989D01*
X117713643Y-67249615D01*
X117723363Y-67234491D01*
X117860211Y-67051684D01*
X117988165Y-66817353D01*
X118081468Y-66567197D01*
X118138221Y-66306309D01*
X118157268Y-66040000D01*
X118138221Y-65773691D01*
X118092867Y-65565203D01*
X118081470Y-65512811D01*
X118081470Y-65512810D01*
X118081468Y-65512806D01*
X118081468Y-65512803D01*
X117988165Y-65262647D01*
X117860211Y-65028316D01*
X117723362Y-64845508D01*
X117698552Y-64778989D01*
X117713643Y-64709615D01*
X117723363Y-64694491D01*
X117768151Y-64634661D01*
X117860211Y-64511684D01*
X117988165Y-64277353D01*
X118081468Y-64027197D01*
X118138221Y-63766309D01*
X118157268Y-63500000D01*
X118138221Y-63233691D01*
X118098812Y-63052532D01*
X118081470Y-62972811D01*
X118081470Y-62972810D01*
X118081468Y-62972806D01*
X118081468Y-62972803D01*
X117988165Y-62722647D01*
X117860211Y-62488316D01*
X117723362Y-62305508D01*
X117698552Y-62238989D01*
X117713643Y-62169615D01*
X117723363Y-62154491D01*
X117860211Y-61971684D01*
X117988165Y-61737353D01*
X118081468Y-61487197D01*
X118138221Y-61226309D01*
X118157268Y-60960000D01*
X118138221Y-60693691D01*
X118081902Y-60434796D01*
X118081470Y-60432811D01*
X118081470Y-60432810D01*
X118081468Y-60432806D01*
X118081468Y-60432803D01*
X117988165Y-60182647D01*
X117860211Y-59948316D01*
X117700210Y-59734580D01*
X117511420Y-59545790D01*
X117511417Y-59545788D01*
X117511414Y-59545785D01*
X117424963Y-59481069D01*
X117297684Y-59385789D01*
X117169729Y-59315920D01*
X117063352Y-59257834D01*
X116813189Y-59164529D01*
X116552311Y-59107779D01*
X116552313Y-59107779D01*
X116339261Y-59092541D01*
X116286000Y-59088732D01*
X116285999Y-59088732D01*
X116019687Y-59107779D01*
X115758811Y-59164529D01*
X115758810Y-59164529D01*
X115508647Y-59257834D01*
X115274316Y-59385789D01*
X115060585Y-59545785D01*
X115060576Y-59545793D01*
X114871793Y-59734576D01*
X114871785Y-59734585D01*
X114711789Y-59948316D01*
X114583834Y-60182647D01*
X114490529Y-60432810D01*
X114490529Y-60432811D01*
X114433779Y-60693687D01*
X114414732Y-60960000D01*
X114433779Y-61226312D01*
X114490529Y-61487188D01*
X114490529Y-61487189D01*
X114583834Y-61737352D01*
X114583835Y-61737353D01*
X114711789Y-61971684D01*
X114747382Y-62019230D01*
X114848636Y-62154491D01*
X114873447Y-62221012D01*
X114858355Y-62290386D01*
X114848636Y-62305509D01*
X114711789Y-62488316D01*
X114583834Y-62722647D01*
X114490529Y-62972810D01*
X114490529Y-62972811D01*
X114433779Y-63233687D01*
X114414732Y-63499999D01*
X114433779Y-63766312D01*
X114490529Y-64027188D01*
X114490529Y-64027189D01*
X114583834Y-64277352D01*
X114583835Y-64277353D01*
X114711789Y-64511684D01*
X114803849Y-64634661D01*
X114848636Y-64694490D01*
X114873447Y-64761010D01*
X114858356Y-64830384D01*
X114848637Y-64845507D01*
X114711788Y-65028317D01*
X114583834Y-65262647D01*
X114490529Y-65512810D01*
X114490529Y-65512811D01*
X114433779Y-65773687D01*
X114414732Y-66039999D01*
X114433779Y-66306312D01*
X114490529Y-66567188D01*
X114490529Y-66567189D01*
X114583834Y-66817352D01*
X114583835Y-66817353D01*
X114711789Y-67051684D01*
X114777657Y-67139673D01*
X114848636Y-67234491D01*
X114873447Y-67301012D01*
X114858355Y-67370386D01*
X114848636Y-67385509D01*
X114711789Y-67568316D01*
X114583834Y-67802647D01*
X114490529Y-68052810D01*
X114490529Y-68052811D01*
X114433779Y-68313687D01*
X114414732Y-68580000D01*
X114433779Y-68846312D01*
X114490529Y-69107188D01*
X114490529Y-69107189D01*
X114583834Y-69357352D01*
X114583835Y-69357353D01*
X114711789Y-69591684D01*
X114777657Y-69679673D01*
X114848636Y-69774491D01*
X114873447Y-69841012D01*
X114858355Y-69910386D01*
X114848636Y-69925509D01*
X114711789Y-70108316D01*
X114583834Y-70342647D01*
X114490529Y-70592810D01*
X114490529Y-70592811D01*
X114433779Y-70853687D01*
X114414732Y-71120000D01*
X114433779Y-71386312D01*
X114490529Y-71647188D01*
X114490529Y-71647189D01*
X114583834Y-71897352D01*
X114583835Y-71897353D01*
X114711789Y-72131684D01*
X114749506Y-72182068D01*
X114848636Y-72314491D01*
X114873447Y-72381012D01*
X114858355Y-72450386D01*
X114848636Y-72465509D01*
X114711789Y-72648316D01*
X114583834Y-72882647D01*
X114490529Y-73132810D01*
X114490529Y-73132811D01*
X114433779Y-73393687D01*
X114414732Y-73659999D01*
X114433779Y-73926312D01*
X114490529Y-74187188D01*
X114490529Y-74187189D01*
X114583834Y-74437352D01*
X114629375Y-74520754D01*
X114711789Y-74671684D01*
X114798665Y-74787736D01*
X114848636Y-74854490D01*
X114873447Y-74921010D01*
X114858356Y-74990384D01*
X114848637Y-75005507D01*
X114711788Y-75188317D01*
X114583834Y-75422647D01*
X114490529Y-75672810D01*
X114490529Y-75672811D01*
X114433779Y-75933687D01*
X114414732Y-76200000D01*
X114433779Y-76466312D01*
X114490529Y-76727188D01*
X114490529Y-76727189D01*
X114583834Y-76977352D01*
X114583835Y-76977353D01*
X114711789Y-77211684D01*
X114777657Y-77299673D01*
X114848636Y-77394491D01*
X114873447Y-77461012D01*
X114858355Y-77530386D01*
X114848636Y-77545509D01*
X114711789Y-77728316D01*
X114583834Y-77962647D01*
X114490529Y-78212810D01*
X114490529Y-78212811D01*
X114433779Y-78473687D01*
X114414732Y-78739999D01*
X114433779Y-79006312D01*
X114490529Y-79267188D01*
X114490529Y-79267189D01*
X114583834Y-79517352D01*
X114583835Y-79517353D01*
X114711789Y-79751684D01*
X114777657Y-79839673D01*
X114848636Y-79934491D01*
X114873447Y-80001012D01*
X114858355Y-80070386D01*
X114848636Y-80085509D01*
X114711789Y-80268316D01*
X114583834Y-80502647D01*
X114490529Y-80752810D01*
X114490529Y-80752811D01*
X114433779Y-81013687D01*
X114414732Y-81280000D01*
X101000000Y-81280000D01*
X101000000Y-70056178D01*
X101020002Y-69988057D01*
X101073658Y-69941564D01*
X101102575Y-69932375D01*
X101302324Y-69894580D01*
X101562411Y-69845369D01*
X102069597Y-69709468D01*
X102565209Y-69536046D01*
X103046476Y-69326072D01*
X103046487Y-69326065D01*
X103046496Y-69326062D01*
X103198527Y-69245710D01*
X103510705Y-69080719D01*
X103955301Y-68801361D01*
X104377778Y-68489559D01*
X104775772Y-68147058D01*
X105147058Y-67775772D01*
X105489559Y-67377778D01*
X105801361Y-66955301D01*
X106080719Y-66510705D01*
X106270968Y-66150738D01*
X106326062Y-66046496D01*
X106326065Y-66046487D01*
X106326072Y-66046476D01*
X106536046Y-65565209D01*
X106709468Y-65069597D01*
X106845369Y-64562411D01*
X106942987Y-64046487D01*
X107001777Y-63524711D01*
X107021410Y-63000000D01*
X107001777Y-62475289D01*
X106942987Y-61953513D01*
X106845369Y-61437589D01*
X106709468Y-60930403D01*
X106536046Y-60434791D01*
X106326072Y-59953524D01*
X106326069Y-59953519D01*
X106326062Y-59953503D01*
X106171250Y-59660588D01*
X106080719Y-59489295D01*
X105876657Y-59164532D01*
X105801366Y-59044706D01*
X105801354Y-59044689D01*
X105489561Y-58622224D01*
X105489548Y-58622208D01*
X105147067Y-58224239D01*
X105147058Y-58224228D01*
X105147045Y-58224215D01*
X105147034Y-58224203D01*
X104775796Y-57852965D01*
X104775784Y-57852954D01*
X104775772Y-57852942D01*
X104689864Y-57779012D01*
X104377791Y-57510451D01*
X104377775Y-57510438D01*
X103955310Y-57198645D01*
X103955293Y-57198633D01*
X103510720Y-56919290D01*
X103510712Y-56919285D01*
X103510705Y-56919281D01*
X103456813Y-56890798D01*
X103046496Y-56673937D01*
X103046470Y-56673925D01*
X102747595Y-56543528D01*
X102565209Y-56463954D01*
X102565202Y-56463951D01*
X102565200Y-56463950D01*
X102069605Y-56290534D01*
X101562412Y-56154631D01*
X101102575Y-56067625D01*
X101039361Y-56035308D01*
X101003653Y-55973944D01*
X101000000Y-55943822D01*
X101000000Y-51126000D01*
X101020002Y-51057879D01*
X101073658Y-51011386D01*
X101126000Y-51000000D01*
X148874000Y-51000000D01*
X148942121Y-51020002D01*
G37*
%TD.AperFunction*%
%TD*%
%TA.AperFunction,Conductor*%
%TO.N,Net-(J4-Pin_1)*%
G36*
X98942121Y-51020002D02*
G01*
X98988614Y-51073658D01*
X99000000Y-51126000D01*
X99000000Y-55943822D01*
X98979998Y-56011943D01*
X98926342Y-56058436D01*
X98897425Y-56067625D01*
X98437587Y-56154631D01*
X97930394Y-56290534D01*
X97434799Y-56463950D01*
X97434796Y-56463952D01*
X96953529Y-56673925D01*
X96953503Y-56673937D01*
X96489300Y-56919278D01*
X96489279Y-56919290D01*
X96044706Y-57198633D01*
X96044689Y-57198645D01*
X95622224Y-57510438D01*
X95622208Y-57510451D01*
X95224239Y-57852932D01*
X95224203Y-57852965D01*
X94852965Y-58224203D01*
X94852932Y-58224239D01*
X94510451Y-58622208D01*
X94510438Y-58622224D01*
X94198645Y-59044689D01*
X94198633Y-59044706D01*
X93919290Y-59489279D01*
X93919278Y-59489300D01*
X93673937Y-59953503D01*
X93673925Y-59953529D01*
X93573963Y-60182647D01*
X93464822Y-60432803D01*
X93463952Y-60434796D01*
X93463950Y-60434799D01*
X93290534Y-60930394D01*
X93154631Y-61437587D01*
X93057013Y-61953512D01*
X92998222Y-62475288D01*
X92978590Y-62999999D01*
X92998222Y-63524711D01*
X93057013Y-64046487D01*
X93154631Y-64562412D01*
X93290534Y-65069605D01*
X93463950Y-65565200D01*
X93463951Y-65565202D01*
X93463954Y-65565209D01*
X93565441Y-65797820D01*
X93673925Y-66046470D01*
X93673937Y-66046496D01*
X93919278Y-66510699D01*
X93919290Y-66510720D01*
X94198633Y-66955293D01*
X94198645Y-66955310D01*
X94510438Y-67377775D01*
X94510451Y-67377791D01*
X94779012Y-67689864D01*
X94852942Y-67775772D01*
X94852954Y-67775784D01*
X94852965Y-67775796D01*
X95224203Y-68147034D01*
X95224215Y-68147045D01*
X95224228Y-68147058D01*
X95346780Y-68252522D01*
X95622208Y-68489548D01*
X95622224Y-68489561D01*
X96044689Y-68801354D01*
X96044706Y-68801366D01*
X96489279Y-69080709D01*
X96489295Y-69080719D01*
X96660588Y-69171250D01*
X96953503Y-69326062D01*
X96953519Y-69326069D01*
X96953524Y-69326072D01*
X97434791Y-69536046D01*
X97434798Y-69536048D01*
X97434799Y-69536049D01*
X97593795Y-69591684D01*
X97930403Y-69709468D01*
X98437589Y-69845369D01*
X98684357Y-69892060D01*
X98897425Y-69932375D01*
X98960639Y-69964692D01*
X98996347Y-70026056D01*
X99000000Y-70056178D01*
X99000000Y-90522229D01*
X98979998Y-90590350D01*
X98926342Y-90636843D01*
X98886351Y-90647622D01*
X98770239Y-90659059D01*
X98161933Y-90759490D01*
X97561520Y-90899487D01*
X96971555Y-91078452D01*
X96971547Y-91078454D01*
X96394535Y-91295626D01*
X95832962Y-91550071D01*
X95832945Y-91550080D01*
X95289227Y-91840704D01*
X94765671Y-92166272D01*
X94765667Y-92166274D01*
X94264529Y-92525385D01*
X94264528Y-92525386D01*
X93787943Y-92916509D01*
X93337962Y-93337962D01*
X92916509Y-93787943D01*
X92525386Y-94264528D01*
X92525385Y-94264529D01*
X92166274Y-94765667D01*
X92166272Y-94765671D01*
X91840704Y-95289227D01*
X91550080Y-95832945D01*
X91550071Y-95832962D01*
X91295626Y-96394535D01*
X91078454Y-96971547D01*
X91078452Y-96971555D01*
X90899487Y-97561520D01*
X90759490Y-98161933D01*
X90659060Y-98770235D01*
X90659057Y-98770251D01*
X90647623Y-98886350D01*
X90621040Y-98952183D01*
X90563086Y-98993192D01*
X90522230Y-99000000D01*
X70056178Y-99000000D01*
X69988057Y-98979998D01*
X69941564Y-98926342D01*
X69932375Y-98897425D01*
X69897659Y-98713953D01*
X69845369Y-98437589D01*
X69709468Y-97930403D01*
X69580392Y-97561525D01*
X69536049Y-97434799D01*
X69536048Y-97434798D01*
X69536046Y-97434791D01*
X69326072Y-96953524D01*
X69326069Y-96953519D01*
X69326062Y-96953503D01*
X69171250Y-96660588D01*
X69080719Y-96489295D01*
X69080709Y-96489279D01*
X68801366Y-96044706D01*
X68801354Y-96044689D01*
X68489561Y-95622224D01*
X68489548Y-95622208D01*
X68147067Y-95224239D01*
X68147058Y-95224228D01*
X68147045Y-95224215D01*
X68147034Y-95224203D01*
X67775796Y-94852965D01*
X67775784Y-94852954D01*
X67775772Y-94852942D01*
X67674361Y-94765671D01*
X67377791Y-94510451D01*
X67377775Y-94510438D01*
X66955310Y-94198645D01*
X66955293Y-94198633D01*
X66510720Y-93919290D01*
X66510712Y-93919285D01*
X66510705Y-93919281D01*
X66465089Y-93895172D01*
X66046496Y-93673937D01*
X66046470Y-93673925D01*
X65862513Y-93593666D01*
X65565209Y-93463954D01*
X65565202Y-93463951D01*
X65565200Y-93463950D01*
X65069605Y-93290534D01*
X64562412Y-93154631D01*
X64046487Y-93057013D01*
X63524711Y-92998222D01*
X63018923Y-92979298D01*
X63000000Y-92978590D01*
X62999999Y-92978590D01*
X62475288Y-92998222D01*
X61953512Y-93057013D01*
X61437587Y-93154631D01*
X60930394Y-93290534D01*
X60434799Y-93463950D01*
X60434796Y-93463952D01*
X59953529Y-93673925D01*
X59953503Y-93673937D01*
X59489300Y-93919278D01*
X59489279Y-93919290D01*
X59044706Y-94198633D01*
X59044689Y-94198645D01*
X58622224Y-94510438D01*
X58622208Y-94510451D01*
X58224239Y-94852932D01*
X58224203Y-94852965D01*
X57852965Y-95224203D01*
X57852932Y-95224239D01*
X57510451Y-95622208D01*
X57510438Y-95622224D01*
X57198645Y-96044689D01*
X57198633Y-96044706D01*
X56919290Y-96489279D01*
X56919278Y-96489300D01*
X56673937Y-96953503D01*
X56673925Y-96953529D01*
X56463952Y-97434796D01*
X56463950Y-97434799D01*
X56290534Y-97930394D01*
X56154631Y-98437587D01*
X56067625Y-98897425D01*
X56035308Y-98960639D01*
X55973944Y-98996347D01*
X55943822Y-99000000D01*
X51126000Y-99000000D01*
X51057879Y-98979998D01*
X51011386Y-98926342D01*
X51000000Y-98874000D01*
X51000000Y-81280000D01*
X59042732Y-81280000D01*
X59061779Y-81546312D01*
X59118529Y-81807188D01*
X59118529Y-81807189D01*
X59211832Y-82057346D01*
X59211837Y-82057357D01*
X59285426Y-82192128D01*
X59300517Y-82261502D01*
X59275705Y-82328022D01*
X59272239Y-82332444D01*
X59214722Y-82402529D01*
X59214721Y-82402531D01*
X59120334Y-82579116D01*
X59120332Y-82579122D01*
X59062206Y-82770736D01*
X59062206Y-82770739D01*
X59047500Y-82920057D01*
X59047500Y-84719942D01*
X59062206Y-84869260D01*
X59062206Y-84869263D01*
X59120332Y-85060877D01*
X59120334Y-85060883D01*
X59214720Y-85237466D01*
X59214722Y-85237469D01*
X59341748Y-85392252D01*
X59496531Y-85519278D01*
X59673120Y-85613667D01*
X59864731Y-85671792D01*
X59864736Y-85671792D01*
X59864738Y-85671793D01*
X59974069Y-85682560D01*
X60014066Y-85686500D01*
X60014075Y-85686500D01*
X61813925Y-85686500D01*
X61813934Y-85686500D01*
X61911179Y-85676922D01*
X61963260Y-85671793D01*
X61963263Y-85671793D01*
X61963264Y-85671792D01*
X61963269Y-85671792D01*
X62154880Y-85613667D01*
X62331469Y-85519278D01*
X62486252Y-85392252D01*
X62613278Y-85237469D01*
X62707667Y-85060880D01*
X62765792Y-84869269D01*
X62780500Y-84719934D01*
X62780500Y-82920066D01*
X62765793Y-82770739D01*
X62765793Y-82770736D01*
X62765792Y-82770733D01*
X62765792Y-82770731D01*
X62707667Y-82579120D01*
X62613278Y-82402531D01*
X62555759Y-82332444D01*
X62528007Y-82267097D01*
X62539989Y-82197119D01*
X62542572Y-82192128D01*
X62616165Y-82057353D01*
X62709468Y-81807197D01*
X62766221Y-81546309D01*
X62785268Y-81280000D01*
X62766221Y-81013691D01*
X62709468Y-80752803D01*
X62616165Y-80502647D01*
X62488211Y-80268316D01*
X62351362Y-80085508D01*
X62326552Y-80018989D01*
X62341643Y-79949615D01*
X62351363Y-79934491D01*
X62488211Y-79751684D01*
X62616165Y-79517353D01*
X62709468Y-79267197D01*
X62766221Y-79006309D01*
X62785268Y-78740000D01*
X62766221Y-78473691D01*
X62709468Y-78212803D01*
X62616165Y-77962647D01*
X62488211Y-77728316D01*
X62351362Y-77545508D01*
X62326552Y-77478989D01*
X62341643Y-77409615D01*
X62351363Y-77394491D01*
X62488211Y-77211684D01*
X62616165Y-76977353D01*
X62709468Y-76727197D01*
X62766221Y-76466309D01*
X62785268Y-76200000D01*
X62766221Y-75933691D01*
X62709468Y-75672803D01*
X62616165Y-75422647D01*
X62488211Y-75188316D01*
X62488208Y-75188312D01*
X62488092Y-75188131D01*
X62488071Y-75188060D01*
X62486054Y-75184366D01*
X62486857Y-75183927D01*
X62468083Y-75120013D01*
X62488078Y-75051890D01*
X62541729Y-75005392D01*
X62594083Y-74994000D01*
X66672307Y-74994000D01*
X66672310Y-74994000D01*
X66727182Y-74984324D01*
X66732614Y-74983609D01*
X66788132Y-74978752D01*
X66841974Y-74964324D01*
X66847292Y-74963145D01*
X66896660Y-74954440D01*
X66902178Y-74953468D01*
X66902179Y-74953468D01*
X66902180Y-74953467D01*
X66902183Y-74953467D01*
X66954535Y-74934411D01*
X66959775Y-74932760D01*
X67013598Y-74918339D01*
X67064091Y-74894792D01*
X67069152Y-74892695D01*
X67121527Y-74873634D01*
X67169808Y-74845757D01*
X67174642Y-74843241D01*
X67225148Y-74819691D01*
X67270797Y-74787725D01*
X67275394Y-74784797D01*
X67323674Y-74756923D01*
X67366368Y-74721096D01*
X67370711Y-74717765D01*
X67416354Y-74685807D01*
X67599125Y-74503036D01*
X67599126Y-74503033D01*
X68554358Y-73547802D01*
X68616668Y-73513779D01*
X68643451Y-73510900D01*
X68971525Y-73510900D01*
X68971534Y-73510900D01*
X69068779Y-73501322D01*
X69120860Y-73496193D01*
X69120863Y-73496193D01*
X69120864Y-73496192D01*
X69120869Y-73496192D01*
X69312480Y-73438067D01*
X69489069Y-73343678D01*
X69643852Y-73216652D01*
X69770878Y-73061869D01*
X69865267Y-72885280D01*
X69923392Y-72693669D01*
X69938100Y-72544334D01*
X69938100Y-71742866D01*
X69923393Y-71593539D01*
X69923393Y-71593536D01*
X69923392Y-71593533D01*
X69923392Y-71593531D01*
X69865267Y-71401920D01*
X69770878Y-71225331D01*
X69643852Y-71070548D01*
X69489069Y-70943522D01*
X69489067Y-70943521D01*
X69489066Y-70943520D01*
X69394178Y-70892802D01*
X69321438Y-70853921D01*
X69270791Y-70804170D01*
X69255081Y-70734933D01*
X69279297Y-70668194D01*
X69321438Y-70631678D01*
X69489069Y-70542078D01*
X69643852Y-70415052D01*
X69770878Y-70260269D01*
X69865267Y-70083680D01*
X69923392Y-69892069D01*
X69938100Y-69742734D01*
X69938100Y-68941266D01*
X69923393Y-68791939D01*
X69923393Y-68791936D01*
X69923392Y-68791933D01*
X69923392Y-68791931D01*
X69865267Y-68600320D01*
X69770878Y-68423731D01*
X69643852Y-68268948D01*
X69489069Y-68141922D01*
X69489068Y-68141921D01*
X69489065Y-68141919D01*
X69489063Y-68141918D01*
X69472603Y-68133120D01*
X69421955Y-68083367D01*
X69406000Y-68021999D01*
X69406000Y-66840706D01*
X69426002Y-66772585D01*
X69434593Y-66760782D01*
X69467678Y-66720469D01*
X69562067Y-66543880D01*
X69620192Y-66352269D01*
X69629957Y-66253126D01*
X69633628Y-66215851D01*
X69660210Y-66150018D01*
X69718164Y-66109008D01*
X69759021Y-66102200D01*
X69957882Y-66102200D01*
X70026003Y-66122202D01*
X70072496Y-66175858D01*
X70083494Y-66218314D01*
X70086233Y-66253126D01*
X70086234Y-66253130D01*
X70130995Y-66407197D01*
X70212661Y-66545285D01*
X70212666Y-66545292D01*
X70326107Y-66658733D01*
X70326114Y-66658738D01*
X70464202Y-66740404D01*
X70618269Y-66785165D01*
X70618282Y-66785167D01*
X70654263Y-66787999D01*
X70654265Y-66788000D01*
X70866000Y-66788000D01*
X70866000Y-65532000D01*
X71374000Y-65532000D01*
X71374000Y-66788000D01*
X71585735Y-66788000D01*
X71585736Y-66787999D01*
X71621717Y-66785167D01*
X71621730Y-66785165D01*
X71775797Y-66740404D01*
X71913885Y-66658738D01*
X71913892Y-66658733D01*
X72027333Y-66545292D01*
X72027338Y-66545285D01*
X72109004Y-66407197D01*
X72153765Y-66253130D01*
X72153767Y-66253117D01*
X72156599Y-66217136D01*
X72156600Y-66217135D01*
X72156600Y-65532000D01*
X71374000Y-65532000D01*
X70866000Y-65532000D01*
X70866000Y-63768000D01*
X71374000Y-63768000D01*
X71374000Y-65024000D01*
X72156600Y-65024000D01*
X72156600Y-64338864D01*
X72156599Y-64338863D01*
X72153767Y-64302882D01*
X72153765Y-64302869D01*
X72109004Y-64148802D01*
X72027338Y-64010714D01*
X72027333Y-64010707D01*
X71913892Y-63897266D01*
X71913885Y-63897261D01*
X71775797Y-63815595D01*
X71621730Y-63770834D01*
X71621717Y-63770832D01*
X71585736Y-63768000D01*
X71374000Y-63768000D01*
X70866000Y-63768000D01*
X70654264Y-63768000D01*
X70618282Y-63770832D01*
X70618269Y-63770834D01*
X70464202Y-63815595D01*
X70326114Y-63897261D01*
X70326107Y-63897266D01*
X70212666Y-64010707D01*
X70212661Y-64010714D01*
X70130995Y-64148802D01*
X70086234Y-64302869D01*
X70086233Y-64302873D01*
X70083494Y-64337686D01*
X70058208Y-64404028D01*
X70001070Y-64446167D01*
X69957882Y-64453800D01*
X69759021Y-64453800D01*
X69690900Y-64433798D01*
X69644407Y-64380142D01*
X69633628Y-64340149D01*
X69620193Y-64203739D01*
X69620191Y-64203727D01*
X69562069Y-64012125D01*
X69560390Y-64008071D01*
X69550800Y-63959855D01*
X69550800Y-60657950D01*
X69570802Y-60589829D01*
X69587700Y-60568860D01*
X71738241Y-58418318D01*
X71800551Y-58384295D01*
X71818338Y-58381737D01*
X72021309Y-58367221D01*
X72282188Y-58310470D01*
X72282189Y-58310470D01*
X72282190Y-58310469D01*
X72282197Y-58310468D01*
X72532353Y-58217165D01*
X72766684Y-58089211D01*
X72766693Y-58089204D01*
X72766869Y-58089092D01*
X72766939Y-58089071D01*
X72770634Y-58087054D01*
X72771072Y-58087857D01*
X72834987Y-58069083D01*
X72903110Y-58089078D01*
X72949608Y-58142729D01*
X72961000Y-58195083D01*
X72961000Y-62931710D01*
X72970673Y-62986578D01*
X72971391Y-62992027D01*
X72976247Y-63047532D01*
X72990667Y-63101348D01*
X72991857Y-63106714D01*
X73001533Y-63161583D01*
X73020584Y-63213928D01*
X73022237Y-63219170D01*
X73036658Y-63272990D01*
X73036664Y-63273005D01*
X73060203Y-63323485D01*
X73062307Y-63328564D01*
X73081365Y-63380926D01*
X73109227Y-63429184D01*
X73111765Y-63434060D01*
X73135309Y-63484548D01*
X73135311Y-63484550D01*
X73135312Y-63484553D01*
X73150419Y-63506128D01*
X73167262Y-63530182D01*
X73170212Y-63534811D01*
X73198076Y-63583073D01*
X73198077Y-63583074D01*
X73233888Y-63625752D01*
X73237234Y-63630113D01*
X73269192Y-63675753D01*
X73269194Y-63675755D01*
X73328248Y-63734810D01*
X73328254Y-63734815D01*
X73556595Y-63963155D01*
X73590620Y-64025468D01*
X73593500Y-64052251D01*
X73593500Y-64507542D01*
X73604037Y-64641425D01*
X73604037Y-64641428D01*
X73604038Y-64641429D01*
X73659739Y-64862485D01*
X73659742Y-64862494D01*
X73754018Y-65070049D01*
X73754020Y-65070052D01*
X73754021Y-65070054D01*
X73837305Y-65190268D01*
X73883849Y-65257451D01*
X73883857Y-65257460D01*
X74045039Y-65418642D01*
X74045048Y-65418650D01*
X74045050Y-65418652D01*
X74232446Y-65548479D01*
X74440011Y-65642760D01*
X74660788Y-65698390D01*
X74721955Y-65734430D01*
X74753929Y-65797820D01*
X74756000Y-65820571D01*
X74756000Y-66092710D01*
X74765673Y-66147578D01*
X74766391Y-66153027D01*
X74771247Y-66208532D01*
X74785667Y-66262348D01*
X74786857Y-66267714D01*
X74796533Y-66322583D01*
X74815584Y-66374928D01*
X74817237Y-66380170D01*
X74831658Y-66433990D01*
X74831664Y-66434005D01*
X74855203Y-66484485D01*
X74857307Y-66489564D01*
X74876365Y-66541926D01*
X74904227Y-66590184D01*
X74906765Y-66595060D01*
X74930309Y-66645548D01*
X74930311Y-66645550D01*
X74930312Y-66645553D01*
X74945419Y-66667128D01*
X74962262Y-66691182D01*
X74965208Y-66695805D01*
X74993077Y-66744074D01*
X75027558Y-66785167D01*
X75028887Y-66786750D01*
X75032235Y-66791113D01*
X75064194Y-66836756D01*
X75064196Y-66836758D01*
X75084864Y-66857425D01*
X75105533Y-66878094D01*
X78570086Y-70342647D01*
X81870678Y-73643239D01*
X81904704Y-73705551D01*
X81907262Y-73723345D01*
X81921779Y-73926312D01*
X81978529Y-74187188D01*
X81978529Y-74187189D01*
X82071834Y-74437352D01*
X82117375Y-74520753D01*
X82199789Y-74671684D01*
X82286665Y-74787736D01*
X82336636Y-74854490D01*
X82361447Y-74921010D01*
X82346356Y-74990384D01*
X82336637Y-75005507D01*
X82199788Y-75188317D01*
X82071834Y-75422647D01*
X81978529Y-75672810D01*
X81978529Y-75672811D01*
X81921779Y-75933687D01*
X81902732Y-76200000D01*
X81921779Y-76466312D01*
X81978529Y-76727188D01*
X81978529Y-76727189D01*
X82071834Y-76977352D01*
X82071835Y-76977353D01*
X82199789Y-77211684D01*
X82265657Y-77299673D01*
X82336636Y-77394491D01*
X82361447Y-77461012D01*
X82346355Y-77530386D01*
X82336636Y-77545509D01*
X82199789Y-77728316D01*
X82071834Y-77962647D01*
X81978529Y-78212810D01*
X81978529Y-78212811D01*
X81921779Y-78473687D01*
X81902732Y-78739999D01*
X81921779Y-79006312D01*
X81978529Y-79267188D01*
X81978529Y-79267189D01*
X82071834Y-79517352D01*
X82071835Y-79517353D01*
X82199789Y-79751684D01*
X82265657Y-79839673D01*
X82336636Y-79934491D01*
X82361447Y-80001012D01*
X82346355Y-80070386D01*
X82336636Y-80085509D01*
X82199789Y-80268316D01*
X82071834Y-80502647D01*
X81978529Y-80752810D01*
X81978529Y-80752811D01*
X81921779Y-81013687D01*
X81902732Y-81280000D01*
X81921779Y-81546312D01*
X81978529Y-81807188D01*
X81978529Y-81807189D01*
X82071832Y-82057346D01*
X82071837Y-82057357D01*
X82145426Y-82192128D01*
X82160517Y-82261502D01*
X82135705Y-82328022D01*
X82132239Y-82332444D01*
X82074722Y-82402529D01*
X82074721Y-82402531D01*
X81980334Y-82579116D01*
X81980332Y-82579122D01*
X81922206Y-82770736D01*
X81922206Y-82770739D01*
X81907500Y-82920057D01*
X81907500Y-84719942D01*
X81922206Y-84869260D01*
X81922206Y-84869263D01*
X81980332Y-85060877D01*
X81980334Y-85060883D01*
X82074720Y-85237466D01*
X82074722Y-85237469D01*
X82201748Y-85392252D01*
X82356531Y-85519278D01*
X82533120Y-85613667D01*
X82724731Y-85671792D01*
X82724736Y-85671792D01*
X82724738Y-85671793D01*
X82834069Y-85682560D01*
X82874066Y-85686500D01*
X82874075Y-85686500D01*
X84673925Y-85686500D01*
X84673934Y-85686500D01*
X84771179Y-85676922D01*
X84823260Y-85671793D01*
X84823263Y-85671793D01*
X84823264Y-85671792D01*
X84823269Y-85671792D01*
X85014880Y-85613667D01*
X85191469Y-85519278D01*
X85346252Y-85392252D01*
X85473278Y-85237469D01*
X85567667Y-85060880D01*
X85625792Y-84869269D01*
X85640500Y-84719934D01*
X85640500Y-82920066D01*
X85625793Y-82770739D01*
X85625793Y-82770736D01*
X85625792Y-82770733D01*
X85625792Y-82770731D01*
X85567667Y-82579120D01*
X85473278Y-82402531D01*
X85415759Y-82332444D01*
X85388007Y-82267097D01*
X85399989Y-82197119D01*
X85402572Y-82192128D01*
X85476165Y-82057353D01*
X85569468Y-81807197D01*
X85626221Y-81546309D01*
X85645268Y-81280000D01*
X85626221Y-81013691D01*
X85569468Y-80752803D01*
X85476165Y-80502647D01*
X85348211Y-80268316D01*
X85211362Y-80085508D01*
X85186552Y-80018989D01*
X85201643Y-79949615D01*
X85211363Y-79934491D01*
X85348211Y-79751684D01*
X85476165Y-79517353D01*
X85569468Y-79267197D01*
X85626221Y-79006309D01*
X85645268Y-78740000D01*
X85626221Y-78473691D01*
X85569468Y-78212803D01*
X85476165Y-77962647D01*
X85348211Y-77728316D01*
X85211362Y-77545508D01*
X85186552Y-77478989D01*
X85201643Y-77409615D01*
X85211363Y-77394491D01*
X85348211Y-77211684D01*
X85476165Y-76977353D01*
X85569468Y-76727197D01*
X85626221Y-76466309D01*
X85645268Y-76200000D01*
X85626221Y-75933691D01*
X85569468Y-75672803D01*
X85476165Y-75422647D01*
X85348211Y-75188316D01*
X85246084Y-75051890D01*
X85211363Y-75005508D01*
X85186552Y-74938988D01*
X85201644Y-74869613D01*
X85211357Y-74854498D01*
X85348211Y-74671684D01*
X85476165Y-74437353D01*
X85569468Y-74187197D01*
X85626221Y-73926309D01*
X85645268Y-73660000D01*
X85626221Y-73393691D01*
X85569468Y-73132803D01*
X85476165Y-72882647D01*
X85348211Y-72648316D01*
X85211362Y-72465508D01*
X85186552Y-72398989D01*
X85201643Y-72329615D01*
X85211363Y-72314491D01*
X85257887Y-72252342D01*
X85348211Y-72131684D01*
X85476165Y-71897353D01*
X85569468Y-71647197D01*
X85626221Y-71386309D01*
X85645268Y-71120000D01*
X85626221Y-70853691D01*
X85588748Y-70681430D01*
X85569470Y-70592811D01*
X85569470Y-70592810D01*
X85569468Y-70592806D01*
X85569468Y-70592803D01*
X85476165Y-70342647D01*
X85348211Y-70108316D01*
X85224447Y-69942987D01*
X85211363Y-69925508D01*
X85186552Y-69858988D01*
X85201644Y-69789613D01*
X85211357Y-69774498D01*
X85348211Y-69591684D01*
X85476165Y-69357353D01*
X85569468Y-69107197D01*
X85626221Y-68846309D01*
X85645268Y-68580000D01*
X85626221Y-68313691D01*
X85569468Y-68052803D01*
X85476165Y-67802647D01*
X85348211Y-67568316D01*
X85211362Y-67385508D01*
X85186552Y-67318989D01*
X85201643Y-67249615D01*
X85211363Y-67234491D01*
X85348211Y-67051684D01*
X85476165Y-66817353D01*
X85569468Y-66567197D01*
X85626221Y-66306309D01*
X85645268Y-66040000D01*
X85626221Y-65773691D01*
X85580867Y-65565203D01*
X85569470Y-65512811D01*
X85569470Y-65512810D01*
X85569468Y-65512806D01*
X85569468Y-65512803D01*
X85476165Y-65262647D01*
X85348211Y-65028316D01*
X85211362Y-64845507D01*
X85186552Y-64778989D01*
X85201643Y-64709615D01*
X85211363Y-64694491D01*
X85211364Y-64694490D01*
X85348211Y-64511684D01*
X85476165Y-64277353D01*
X85569468Y-64027197D01*
X85626221Y-63766309D01*
X85645268Y-63500000D01*
X85626221Y-63233691D01*
X85597431Y-63101348D01*
X85569470Y-62972811D01*
X85569470Y-62972810D01*
X85569468Y-62972806D01*
X85569468Y-62972803D01*
X85476165Y-62722647D01*
X85348211Y-62488316D01*
X85227863Y-62327550D01*
X85211363Y-62305508D01*
X85186552Y-62238988D01*
X85201644Y-62169613D01*
X85211357Y-62154498D01*
X85348211Y-61971684D01*
X85476165Y-61737353D01*
X85569468Y-61487197D01*
X85626221Y-61226309D01*
X85645268Y-60960000D01*
X85626221Y-60693691D01*
X85603627Y-60589829D01*
X85569470Y-60432811D01*
X85569470Y-60432810D01*
X85569468Y-60432806D01*
X85569468Y-60432803D01*
X85476165Y-60182647D01*
X85348211Y-59948316D01*
X85188210Y-59734580D01*
X84999420Y-59545790D01*
X84999417Y-59545788D01*
X84999414Y-59545785D01*
X84912963Y-59481069D01*
X84785684Y-59385789D01*
X84601333Y-59285126D01*
X84551352Y-59257834D01*
X84301189Y-59164529D01*
X84040311Y-59107779D01*
X84040313Y-59107779D01*
X83827261Y-59092541D01*
X83774000Y-59088732D01*
X83773999Y-59088732D01*
X83507687Y-59107779D01*
X83246811Y-59164529D01*
X83246810Y-59164529D01*
X82996647Y-59257834D01*
X82762316Y-59385789D01*
X82548585Y-59545785D01*
X82548576Y-59545793D01*
X82359793Y-59734576D01*
X82359785Y-59734585D01*
X82199789Y-59948316D01*
X82071834Y-60182647D01*
X81978529Y-60432810D01*
X81978529Y-60432811D01*
X81921779Y-60693687D01*
X81902732Y-60960000D01*
X81921779Y-61226312D01*
X81978529Y-61487188D01*
X81978529Y-61487189D01*
X82071834Y-61737352D01*
X82104888Y-61797885D01*
X82199789Y-61971684D01*
X82326782Y-62141327D01*
X82336636Y-62154490D01*
X82361447Y-62221010D01*
X82346356Y-62290384D01*
X82336637Y-62305507D01*
X82199788Y-62488317D01*
X82071834Y-62722647D01*
X81978529Y-62972810D01*
X81978529Y-62972811D01*
X81921779Y-63233687D01*
X81902732Y-63499999D01*
X81921779Y-63766312D01*
X81978529Y-64027188D01*
X81978529Y-64027189D01*
X82071834Y-64277352D01*
X82095666Y-64320996D01*
X82199789Y-64511684D01*
X82237763Y-64562411D01*
X82336636Y-64694490D01*
X82361447Y-64761010D01*
X82346356Y-64830384D01*
X82336637Y-64845507D01*
X82199788Y-65028317D01*
X82071834Y-65262647D01*
X81978529Y-65512810D01*
X81978529Y-65512811D01*
X81921779Y-65773687D01*
X81902732Y-66039999D01*
X81921779Y-66306312D01*
X81978529Y-66567188D01*
X81978529Y-66567189D01*
X82071834Y-66817352D01*
X82105001Y-66878093D01*
X82199789Y-67051684D01*
X82265657Y-67139673D01*
X82336636Y-67234491D01*
X82361447Y-67301012D01*
X82346355Y-67370386D01*
X82336636Y-67385509D01*
X82199789Y-67568316D01*
X82071834Y-67802647D01*
X81978529Y-68052810D01*
X81978529Y-68052811D01*
X81921779Y-68313687D01*
X81902732Y-68580000D01*
X81921779Y-68846312D01*
X81978529Y-69107188D01*
X81978529Y-69107189D01*
X82071834Y-69357352D01*
X82071835Y-69357353D01*
X82199789Y-69591684D01*
X82287959Y-69709465D01*
X82336636Y-69774490D01*
X82361447Y-69841010D01*
X82346356Y-69910384D01*
X82336636Y-69925508D01*
X82248009Y-70043899D01*
X82191173Y-70086446D01*
X82120357Y-70091510D01*
X82058046Y-70057485D01*
X77460905Y-65460344D01*
X77426879Y-65398032D01*
X77424000Y-65371249D01*
X77424000Y-65355528D01*
X77444002Y-65287407D01*
X77497658Y-65240914D01*
X77567932Y-65230810D01*
X77607204Y-65243262D01*
X77666095Y-65273269D01*
X77845789Y-65321417D01*
X77923061Y-65327500D01*
X78143500Y-65327500D01*
X78143500Y-64046500D01*
X78651500Y-64046500D01*
X78651500Y-65327500D01*
X78871939Y-65327500D01*
X78949210Y-65321417D01*
X79128902Y-65273269D01*
X79294658Y-65188812D01*
X79294661Y-65188811D01*
X79439236Y-65071736D01*
X79556311Y-64927161D01*
X79556312Y-64927158D01*
X79640769Y-64761402D01*
X79688917Y-64581710D01*
X79695000Y-64504438D01*
X79695000Y-64046500D01*
X78651500Y-64046500D01*
X78143500Y-64046500D01*
X78143500Y-62257500D01*
X78651500Y-62257500D01*
X78651500Y-63538500D01*
X79695000Y-63538500D01*
X79695000Y-63080561D01*
X79688917Y-63003289D01*
X79640769Y-62823597D01*
X79556312Y-62657841D01*
X79556311Y-62657838D01*
X79439236Y-62513263D01*
X79294661Y-62396188D01*
X79294658Y-62396187D01*
X79128902Y-62311730D01*
X78949210Y-62263582D01*
X78871939Y-62257500D01*
X78651500Y-62257500D01*
X78143500Y-62257500D01*
X77923061Y-62257500D01*
X77845789Y-62263582D01*
X77666097Y-62311730D01*
X77500341Y-62396187D01*
X77500338Y-62396188D01*
X77355763Y-62513263D01*
X77238688Y-62657838D01*
X77238687Y-62657841D01*
X77154228Y-62823600D01*
X77154189Y-62823747D01*
X77154142Y-62823822D01*
X77151863Y-62829762D01*
X77150776Y-62829344D01*
X77117230Y-62884365D01*
X77053366Y-62915379D01*
X76982872Y-62906942D01*
X76928131Y-62861732D01*
X76910305Y-62821907D01*
X76885261Y-62722516D01*
X76885260Y-62722511D01*
X76790979Y-62514946D01*
X76661152Y-62327550D01*
X76661150Y-62327548D01*
X76661142Y-62327539D01*
X76499960Y-62166357D01*
X76499951Y-62166349D01*
X76482835Y-62154491D01*
X76312554Y-62036521D01*
X76312552Y-62036520D01*
X76312549Y-62036518D01*
X76104994Y-61942242D01*
X76104991Y-61942241D01*
X76104989Y-61942240D01*
X75883925Y-61886537D01*
X75750042Y-61876000D01*
X75750039Y-61876000D01*
X75747574Y-61875806D01*
X75747622Y-61875185D01*
X75682757Y-61853330D01*
X75638414Y-61797885D01*
X75629000Y-61750097D01*
X75629000Y-57872820D01*
X75649002Y-57804699D01*
X75665906Y-57783724D01*
X75681086Y-57768542D01*
X75709210Y-57740420D01*
X75869211Y-57526684D01*
X75997165Y-57292353D01*
X76090468Y-57042197D01*
X76147221Y-56781309D01*
X76166268Y-56515000D01*
X76147221Y-56248691D01*
X76107832Y-56067625D01*
X76090470Y-55987811D01*
X76090470Y-55987810D01*
X76090468Y-55987806D01*
X76090468Y-55987803D01*
X75997165Y-55737647D01*
X75869211Y-55503316D01*
X75709210Y-55289580D01*
X75520420Y-55100790D01*
X75520417Y-55100788D01*
X75520414Y-55100785D01*
X75425856Y-55030000D01*
X75306684Y-54940789D01*
X75178729Y-54870920D01*
X75072352Y-54812834D01*
X74822189Y-54719529D01*
X74561311Y-54662779D01*
X74561313Y-54662779D01*
X74295000Y-54643732D01*
X74028687Y-54662779D01*
X73767811Y-54719529D01*
X73767810Y-54719529D01*
X73517647Y-54812834D01*
X73283316Y-54940789D01*
X73100509Y-55077636D01*
X73033988Y-55102447D01*
X72964614Y-55087355D01*
X72949491Y-55077636D01*
X72854673Y-55006657D01*
X72766684Y-54940789D01*
X72638728Y-54870920D01*
X72532352Y-54812834D01*
X72282189Y-54719529D01*
X72021311Y-54662779D01*
X72021313Y-54662779D01*
X71755000Y-54643732D01*
X71488687Y-54662779D01*
X71227811Y-54719529D01*
X71227810Y-54719529D01*
X70977647Y-54812834D01*
X70743316Y-54940789D01*
X70529580Y-55100790D01*
X70528700Y-55101553D01*
X70528345Y-55101715D01*
X70525978Y-55103487D01*
X70525592Y-55102971D01*
X70464116Y-55131039D01*
X70393843Y-55120927D01*
X70382059Y-55114772D01*
X70319197Y-55077595D01*
X70165130Y-55032834D01*
X70165117Y-55032832D01*
X70129136Y-55030000D01*
X69469000Y-55030000D01*
X69469000Y-56081325D01*
X69357315Y-56030320D01*
X69250763Y-56015000D01*
X69179237Y-56015000D01*
X69072685Y-56030320D01*
X68961000Y-56081325D01*
X68961000Y-55030000D01*
X68300864Y-55030000D01*
X68264882Y-55032832D01*
X68264869Y-55032834D01*
X68110802Y-55077595D01*
X67972714Y-55159261D01*
X67972707Y-55159266D01*
X67859266Y-55272707D01*
X67859261Y-55272714D01*
X67777595Y-55410802D01*
X67732834Y-55564869D01*
X67732832Y-55564882D01*
X67730000Y-55600863D01*
X67730000Y-56261000D01*
X68783884Y-56261000D01*
X68755507Y-56305156D01*
X68715000Y-56443111D01*
X68715000Y-56586889D01*
X68755507Y-56724844D01*
X68783884Y-56769000D01*
X67730000Y-56769000D01*
X67730000Y-57429136D01*
X67732832Y-57465117D01*
X67732834Y-57465130D01*
X67777595Y-57619197D01*
X67859261Y-57757285D01*
X67859266Y-57757292D01*
X67972707Y-57870733D01*
X67972714Y-57870738D01*
X68110802Y-57952404D01*
X68154347Y-57965055D01*
X68214182Y-58003268D01*
X68243860Y-58067764D01*
X68233957Y-58138067D01*
X68208289Y-58175147D01*
X67319148Y-59064287D01*
X67319140Y-59064298D01*
X67191000Y-59192437D01*
X67190991Y-59192447D01*
X67159037Y-59238082D01*
X67155691Y-59242443D01*
X67119876Y-59285126D01*
X67092015Y-59333381D01*
X67089062Y-59338017D01*
X67057109Y-59383650D01*
X67033565Y-59434139D01*
X67031028Y-59439013D01*
X67003165Y-59487274D01*
X66984108Y-59539633D01*
X66982004Y-59544711D01*
X66958460Y-59595200D01*
X66958459Y-59595203D01*
X66944040Y-59649018D01*
X66942388Y-59654259D01*
X66923333Y-59706616D01*
X66913657Y-59761484D01*
X66912467Y-59766849D01*
X66898047Y-59820666D01*
X66893191Y-59876171D01*
X66892474Y-59881620D01*
X66882800Y-59936489D01*
X66882800Y-63959855D01*
X66873210Y-64008071D01*
X66871530Y-64012125D01*
X66813408Y-64203727D01*
X66813406Y-64203739D01*
X66798700Y-64353057D01*
X66798700Y-64998589D01*
X66791102Y-65041681D01*
X66778533Y-65076215D01*
X66768857Y-65131084D01*
X66767667Y-65136449D01*
X66753247Y-65190266D01*
X66748391Y-65245771D01*
X66747674Y-65251220D01*
X66738000Y-65306089D01*
X66738000Y-68021999D01*
X66717998Y-68090120D01*
X66671397Y-68133120D01*
X66654936Y-68141918D01*
X66654934Y-68141919D01*
X66500148Y-68268948D01*
X66373120Y-68423733D01*
X66278734Y-68600316D01*
X66278732Y-68600322D01*
X66220606Y-68791936D01*
X66220606Y-68791939D01*
X66205900Y-68941257D01*
X66205900Y-69742742D01*
X66220606Y-69892060D01*
X66220606Y-69892063D01*
X66278732Y-70083677D01*
X66278734Y-70083683D01*
X66280211Y-70086446D01*
X66373122Y-70260269D01*
X66500148Y-70415052D01*
X66654931Y-70542078D01*
X66654933Y-70542079D01*
X66822560Y-70631678D01*
X66873208Y-70681430D01*
X66888918Y-70750667D01*
X66864702Y-70817406D01*
X66822560Y-70853922D01*
X66654933Y-70943520D01*
X66500148Y-71070548D01*
X66373120Y-71225333D01*
X66278734Y-71401916D01*
X66278732Y-71401922D01*
X66220606Y-71593536D01*
X66220606Y-71593539D01*
X66205900Y-71742857D01*
X66205900Y-72070949D01*
X66185898Y-72139070D01*
X66168995Y-72160044D01*
X66039944Y-72289095D01*
X65977632Y-72323121D01*
X65950849Y-72326000D01*
X62594083Y-72326000D01*
X62525962Y-72305998D01*
X62479469Y-72252342D01*
X62469365Y-72182068D01*
X62486580Y-72135921D01*
X62486054Y-72135634D01*
X62488053Y-72131972D01*
X62488092Y-72131869D01*
X62488204Y-72131693D01*
X62488211Y-72131684D01*
X62616165Y-71897353D01*
X62709468Y-71647197D01*
X62766221Y-71386309D01*
X62785268Y-71120000D01*
X62766221Y-70853691D01*
X62728748Y-70681430D01*
X62709470Y-70592811D01*
X62709470Y-70592810D01*
X62709468Y-70592806D01*
X62709468Y-70592803D01*
X62616165Y-70342647D01*
X62488211Y-70108316D01*
X62351362Y-69925508D01*
X62326552Y-69858989D01*
X62341643Y-69789615D01*
X62351363Y-69774491D01*
X62375136Y-69742734D01*
X62488211Y-69591684D01*
X62616165Y-69357353D01*
X62709468Y-69107197D01*
X62766221Y-68846309D01*
X62785268Y-68580000D01*
X62766221Y-68313691D01*
X62709468Y-68052803D01*
X62616165Y-67802647D01*
X62488211Y-67568316D01*
X62351362Y-67385508D01*
X62326552Y-67318989D01*
X62341643Y-67249615D01*
X62351363Y-67234491D01*
X62488211Y-67051684D01*
X62616165Y-66817353D01*
X62709468Y-66567197D01*
X62766221Y-66306309D01*
X62785268Y-66040000D01*
X62766221Y-65773691D01*
X62720867Y-65565203D01*
X62709470Y-65512811D01*
X62709470Y-65512810D01*
X62709468Y-65512806D01*
X62709468Y-65512803D01*
X62616165Y-65262647D01*
X62488211Y-65028316D01*
X62351362Y-64845507D01*
X62326552Y-64778989D01*
X62341643Y-64709615D01*
X62351363Y-64694491D01*
X62351364Y-64694490D01*
X62488211Y-64511684D01*
X62616165Y-64277353D01*
X62709468Y-64027197D01*
X62766221Y-63766309D01*
X62785268Y-63500000D01*
X62766221Y-63233691D01*
X62737431Y-63101348D01*
X62709470Y-62972811D01*
X62709470Y-62972810D01*
X62709468Y-62972806D01*
X62709468Y-62972803D01*
X62616165Y-62722647D01*
X62488211Y-62488316D01*
X62367863Y-62327550D01*
X62351363Y-62305508D01*
X62326552Y-62238988D01*
X62341644Y-62169613D01*
X62351357Y-62154498D01*
X62488211Y-61971684D01*
X62616165Y-61737353D01*
X62709468Y-61487197D01*
X62766221Y-61226309D01*
X62785268Y-60960000D01*
X62766221Y-60693691D01*
X62743627Y-60589829D01*
X62709470Y-60432811D01*
X62709470Y-60432810D01*
X62709468Y-60432806D01*
X62709468Y-60432803D01*
X62616165Y-60182647D01*
X62488211Y-59948316D01*
X62328210Y-59734580D01*
X62139420Y-59545790D01*
X62139417Y-59545788D01*
X62139414Y-59545785D01*
X62052963Y-59481069D01*
X61925684Y-59385789D01*
X61741333Y-59285126D01*
X61691352Y-59257834D01*
X61441189Y-59164529D01*
X61180311Y-59107779D01*
X61180313Y-59107779D01*
X60914000Y-59088732D01*
X60647687Y-59107779D01*
X60386811Y-59164529D01*
X60386810Y-59164529D01*
X60136647Y-59257834D01*
X59902316Y-59385789D01*
X59688585Y-59545785D01*
X59688576Y-59545793D01*
X59499793Y-59734576D01*
X59499785Y-59734585D01*
X59339789Y-59948316D01*
X59211834Y-60182647D01*
X59118529Y-60432810D01*
X59118529Y-60432811D01*
X59061779Y-60693687D01*
X59042732Y-60959999D01*
X59061779Y-61226312D01*
X59118529Y-61487188D01*
X59118529Y-61487189D01*
X59211834Y-61737352D01*
X59244888Y-61797885D01*
X59339789Y-61971684D01*
X59405657Y-62059673D01*
X59476636Y-62154491D01*
X59501447Y-62221012D01*
X59486355Y-62290386D01*
X59476636Y-62305509D01*
X59339789Y-62488316D01*
X59211834Y-62722647D01*
X59118529Y-62972810D01*
X59118529Y-62972811D01*
X59061779Y-63233687D01*
X59042732Y-63499999D01*
X59061779Y-63766312D01*
X59118529Y-64027188D01*
X59118529Y-64027189D01*
X59211834Y-64277352D01*
X59235666Y-64320996D01*
X59339789Y-64511684D01*
X59377763Y-64562411D01*
X59476636Y-64694490D01*
X59501447Y-64761010D01*
X59486356Y-64830384D01*
X59476637Y-64845507D01*
X59339788Y-65028317D01*
X59211834Y-65262647D01*
X59118529Y-65512810D01*
X59118529Y-65512811D01*
X59061779Y-65773687D01*
X59042732Y-66039999D01*
X59061779Y-66306312D01*
X59118529Y-66567188D01*
X59118529Y-66567189D01*
X59211834Y-66817352D01*
X59245001Y-66878093D01*
X59339789Y-67051684D01*
X59405657Y-67139673D01*
X59476636Y-67234491D01*
X59501447Y-67301012D01*
X59486355Y-67370386D01*
X59476636Y-67385509D01*
X59339789Y-67568316D01*
X59211834Y-67802647D01*
X59118529Y-68052810D01*
X59118529Y-68052811D01*
X59061779Y-68313687D01*
X59042732Y-68580000D01*
X59061779Y-68846312D01*
X59118529Y-69107188D01*
X59118529Y-69107189D01*
X59211834Y-69357352D01*
X59211835Y-69357353D01*
X59339789Y-69591684D01*
X59405657Y-69679673D01*
X59476636Y-69774491D01*
X59501447Y-69841012D01*
X59486355Y-69910386D01*
X59476636Y-69925509D01*
X59339789Y-70108316D01*
X59211834Y-70342647D01*
X59118529Y-70592810D01*
X59118529Y-70592811D01*
X59061779Y-70853687D01*
X59042732Y-71120000D01*
X59061779Y-71386312D01*
X59118529Y-71647188D01*
X59118529Y-71647189D01*
X59211834Y-71897352D01*
X59211835Y-71897353D01*
X59339789Y-72131684D01*
X59377506Y-72182068D01*
X59476636Y-72314491D01*
X59501447Y-72381012D01*
X59486355Y-72450386D01*
X59476636Y-72465509D01*
X59339789Y-72648316D01*
X59211834Y-72882647D01*
X59118529Y-73132810D01*
X59118529Y-73132811D01*
X59061779Y-73393687D01*
X59042732Y-73660000D01*
X59061779Y-73926312D01*
X59118529Y-74187188D01*
X59118529Y-74187189D01*
X59211834Y-74437352D01*
X59257375Y-74520753D01*
X59339789Y-74671684D01*
X59426665Y-74787736D01*
X59476636Y-74854490D01*
X59501447Y-74921010D01*
X59486356Y-74990384D01*
X59476637Y-75005507D01*
X59339788Y-75188317D01*
X59211834Y-75422647D01*
X59118529Y-75672810D01*
X59118529Y-75672811D01*
X59061779Y-75933687D01*
X59042732Y-76199999D01*
X59061779Y-76466312D01*
X59118529Y-76727188D01*
X59118529Y-76727189D01*
X59211834Y-76977352D01*
X59211835Y-76977353D01*
X59339789Y-77211684D01*
X59405657Y-77299673D01*
X59476636Y-77394491D01*
X59501447Y-77461012D01*
X59486355Y-77530386D01*
X59476636Y-77545509D01*
X59339789Y-77728316D01*
X59211834Y-77962647D01*
X59118529Y-78212810D01*
X59118529Y-78212811D01*
X59061779Y-78473687D01*
X59042732Y-78739999D01*
X59061779Y-79006312D01*
X59118529Y-79267188D01*
X59118529Y-79267189D01*
X59211834Y-79517352D01*
X59211835Y-79517353D01*
X59339789Y-79751684D01*
X59405657Y-79839673D01*
X59476636Y-79934491D01*
X59501447Y-80001012D01*
X59486355Y-80070386D01*
X59476636Y-80085509D01*
X59339789Y-80268316D01*
X59211834Y-80502647D01*
X59118529Y-80752810D01*
X59118529Y-80752811D01*
X59061779Y-81013687D01*
X59042732Y-81280000D01*
X51000000Y-81280000D01*
X51000000Y-51126000D01*
X51020002Y-51057879D01*
X51073658Y-51011386D01*
X51126000Y-51000000D01*
X98874000Y-51000000D01*
X98942121Y-51020002D01*
G37*
%TD.AperFunction*%
%TD*%
%TA.AperFunction,Conductor*%
%TO.N,Net-(J1-Pin_1)*%
G36*
X130011943Y-101020002D02*
G01*
X130058436Y-101073658D01*
X130067625Y-101102575D01*
X130154631Y-101562412D01*
X130290534Y-102069605D01*
X130463950Y-102565200D01*
X130463951Y-102565202D01*
X130463954Y-102565209D01*
X130593666Y-102862513D01*
X130673925Y-103046470D01*
X130673937Y-103046496D01*
X130919278Y-103510699D01*
X130919290Y-103510720D01*
X131198633Y-103955293D01*
X131198645Y-103955310D01*
X131510438Y-104377775D01*
X131510451Y-104377791D01*
X131779012Y-104689864D01*
X131852942Y-104775772D01*
X131852954Y-104775784D01*
X131852965Y-104775796D01*
X132224203Y-105147034D01*
X132224215Y-105147045D01*
X132224228Y-105147058D01*
X132325638Y-105234328D01*
X132622208Y-105489548D01*
X132622224Y-105489561D01*
X133044689Y-105801354D01*
X133044706Y-105801366D01*
X133489279Y-106080709D01*
X133489295Y-106080719D01*
X133660588Y-106171250D01*
X133953503Y-106326062D01*
X133953519Y-106326069D01*
X133953524Y-106326072D01*
X134434791Y-106536046D01*
X134434798Y-106536048D01*
X134434799Y-106536049D01*
X134930394Y-106709465D01*
X134930403Y-106709468D01*
X135437589Y-106845369D01*
X135953513Y-106942987D01*
X136416498Y-106995152D01*
X136475288Y-107001777D01*
X136494920Y-107002511D01*
X137000000Y-107021410D01*
X137524711Y-107001777D01*
X138046487Y-106942987D01*
X138562411Y-106845369D01*
X139069597Y-106709468D01*
X139565209Y-106536046D01*
X140046476Y-106326072D01*
X140046487Y-106326065D01*
X140046496Y-106326062D01*
X140262204Y-106212056D01*
X140510705Y-106080719D01*
X140955301Y-105801361D01*
X141377778Y-105489559D01*
X141775772Y-105147058D01*
X142147058Y-104775772D01*
X142489559Y-104377778D01*
X142801361Y-103955301D01*
X143080719Y-103510705D01*
X143245710Y-103198527D01*
X143326062Y-103046496D01*
X143326065Y-103046487D01*
X143326072Y-103046476D01*
X143536046Y-102565209D01*
X143709468Y-102069597D01*
X143845369Y-101562411D01*
X143908312Y-101229748D01*
X143932375Y-101102575D01*
X143964692Y-101039361D01*
X144026056Y-101003653D01*
X144056178Y-101000000D01*
X148874000Y-101000000D01*
X148942121Y-101020002D01*
X148988614Y-101073658D01*
X149000000Y-101126000D01*
X149000000Y-148874000D01*
X148979998Y-148942121D01*
X148926342Y-148988614D01*
X148874000Y-149000000D01*
X101126000Y-149000000D01*
X101057879Y-148979998D01*
X101011386Y-148926342D01*
X101000000Y-148874000D01*
X101000000Y-144056178D01*
X101020002Y-143988057D01*
X101073658Y-143941564D01*
X101102575Y-143932375D01*
X101257671Y-143903028D01*
X101562411Y-143845369D01*
X102069597Y-143709468D01*
X102565209Y-143536046D01*
X103046476Y-143326072D01*
X103046487Y-143326065D01*
X103046496Y-143326062D01*
X103332330Y-143174993D01*
X103510705Y-143080719D01*
X103955301Y-142801361D01*
X104377778Y-142489559D01*
X104775772Y-142147058D01*
X105147058Y-141775772D01*
X105489559Y-141377778D01*
X105801361Y-140955301D01*
X106080719Y-140510705D01*
X106245710Y-140198527D01*
X106326062Y-140046496D01*
X106326065Y-140046487D01*
X106326072Y-140046476D01*
X106536046Y-139565209D01*
X106709468Y-139069597D01*
X106845369Y-138562411D01*
X106942987Y-138046487D01*
X107001777Y-137524711D01*
X107021410Y-137000000D01*
X107008389Y-136651999D01*
X114414732Y-136651999D01*
X114433779Y-136918312D01*
X114490529Y-137179188D01*
X114490529Y-137179189D01*
X114583832Y-137429346D01*
X114583837Y-137429357D01*
X114657426Y-137564128D01*
X114672517Y-137633502D01*
X114647705Y-137700022D01*
X114644239Y-137704444D01*
X114586722Y-137774529D01*
X114586721Y-137774531D01*
X114492334Y-137951116D01*
X114492332Y-137951122D01*
X114434206Y-138142736D01*
X114434206Y-138142739D01*
X114419500Y-138292057D01*
X114419500Y-140091942D01*
X114434206Y-140241260D01*
X114434206Y-140241263D01*
X114492332Y-140432877D01*
X114492334Y-140432883D01*
X114533928Y-140510699D01*
X114586722Y-140609469D01*
X114713748Y-140764252D01*
X114868531Y-140891278D01*
X114868533Y-140891279D01*
X114997766Y-140960356D01*
X115045120Y-140985667D01*
X115236731Y-141043792D01*
X115236736Y-141043792D01*
X115236738Y-141043793D01*
X115346069Y-141054560D01*
X115386066Y-141058500D01*
X115386075Y-141058500D01*
X117185925Y-141058500D01*
X117185934Y-141058500D01*
X117283179Y-141048922D01*
X117335260Y-141043793D01*
X117335263Y-141043793D01*
X117335264Y-141043792D01*
X117335269Y-141043792D01*
X117526880Y-140985667D01*
X117703469Y-140891278D01*
X117858252Y-140764252D01*
X117985278Y-140609469D01*
X118079667Y-140432880D01*
X118137792Y-140241269D01*
X118152500Y-140091934D01*
X118152500Y-138292066D01*
X118137793Y-138142739D01*
X118137793Y-138142736D01*
X118137792Y-138142733D01*
X118137792Y-138142731D01*
X118079667Y-137951120D01*
X117985278Y-137774531D01*
X117927759Y-137704444D01*
X117900007Y-137639097D01*
X117911989Y-137569119D01*
X117914572Y-137564128D01*
X117988165Y-137429353D01*
X118081468Y-137179197D01*
X118138221Y-136918309D01*
X118157268Y-136652000D01*
X118138221Y-136385691D01*
X118081468Y-136124803D01*
X117988165Y-135874647D01*
X117860211Y-135640316D01*
X117723362Y-135457508D01*
X117698552Y-135390989D01*
X117713643Y-135321615D01*
X117723363Y-135306491D01*
X117728058Y-135300219D01*
X117860211Y-135123684D01*
X117988165Y-134889353D01*
X118081468Y-134639197D01*
X118138221Y-134378309D01*
X118157268Y-134112000D01*
X118138221Y-133845691D01*
X118119303Y-133758728D01*
X118081470Y-133584811D01*
X118081470Y-133584810D01*
X118081468Y-133584806D01*
X118081468Y-133584803D01*
X117988165Y-133334647D01*
X117860211Y-133100316D01*
X117745992Y-132947737D01*
X117723363Y-132917508D01*
X117698552Y-132850988D01*
X117713644Y-132781613D01*
X117723357Y-132766498D01*
X117860211Y-132583684D01*
X117988165Y-132349353D01*
X118081468Y-132099197D01*
X118138221Y-131838309D01*
X118157268Y-131572000D01*
X118138221Y-131305691D01*
X118081468Y-131044803D01*
X117988165Y-130794647D01*
X117860211Y-130560316D01*
X117860208Y-130560312D01*
X117860092Y-130560131D01*
X117860071Y-130560060D01*
X117858054Y-130556366D01*
X117858857Y-130555927D01*
X117840083Y-130492013D01*
X117860078Y-130423890D01*
X117913729Y-130377392D01*
X117966083Y-130366000D01*
X119668048Y-130366000D01*
X119736169Y-130386002D01*
X119757136Y-130402897D01*
X119762988Y-130408748D01*
X119797018Y-130471057D01*
X119799900Y-130497851D01*
X119799900Y-130825942D01*
X119814606Y-130975260D01*
X119814606Y-130975263D01*
X119872732Y-131166877D01*
X119872734Y-131166883D01*
X119946927Y-131305687D01*
X119967122Y-131343469D01*
X120094148Y-131498252D01*
X120248931Y-131625278D01*
X120248933Y-131625279D01*
X120416560Y-131714878D01*
X120467208Y-131764630D01*
X120482918Y-131833867D01*
X120458702Y-131900606D01*
X120416560Y-131937122D01*
X120248933Y-132026720D01*
X120094148Y-132153748D01*
X119967120Y-132308533D01*
X119872734Y-132485116D01*
X119872732Y-132485122D01*
X119814606Y-132676736D01*
X119814606Y-132676739D01*
X119799900Y-132826057D01*
X119799900Y-133627542D01*
X119814606Y-133776860D01*
X119814606Y-133776863D01*
X119872732Y-133968477D01*
X119872734Y-133968483D01*
X119949446Y-134112000D01*
X119967122Y-134145069D01*
X120094148Y-134299852D01*
X120248931Y-134426878D01*
X120425520Y-134521267D01*
X120473930Y-134535951D01*
X120533311Y-134574865D01*
X120546473Y-134593524D01*
X120569076Y-134632672D01*
X120569077Y-134632674D01*
X120604888Y-134675352D01*
X120608234Y-134679713D01*
X120640192Y-134725353D01*
X120640194Y-134725355D01*
X120699253Y-134784415D01*
X120699256Y-134784417D01*
X122009067Y-136094228D01*
X123314595Y-137399755D01*
X123348620Y-137462067D01*
X123351500Y-137488850D01*
X123351500Y-137893142D01*
X123366206Y-138042460D01*
X123366206Y-138042463D01*
X123424334Y-138234085D01*
X123426006Y-138238120D01*
X123435600Y-138286344D01*
X123435600Y-140216310D01*
X123445273Y-140271178D01*
X123445991Y-140276627D01*
X123450847Y-140332132D01*
X123465267Y-140385948D01*
X123466457Y-140391314D01*
X123476133Y-140446183D01*
X123495184Y-140498528D01*
X123496837Y-140503770D01*
X123511258Y-140557590D01*
X123511264Y-140557605D01*
X123534803Y-140608085D01*
X123536907Y-140613164D01*
X123555965Y-140665526D01*
X123583827Y-140713784D01*
X123586365Y-140718660D01*
X123609909Y-140769148D01*
X123609911Y-140769150D01*
X123609912Y-140769153D01*
X123625019Y-140790728D01*
X123641862Y-140814782D01*
X123644812Y-140819411D01*
X123672676Y-140867673D01*
X123672677Y-140867674D01*
X123708487Y-140910350D01*
X123711835Y-140914713D01*
X123743794Y-140960356D01*
X123743796Y-140960358D01*
X123764464Y-140981025D01*
X123785133Y-141001694D01*
X124435117Y-141651678D01*
X124678291Y-141894852D01*
X124712317Y-141957164D01*
X124707252Y-142027979D01*
X124664705Y-142084815D01*
X124624350Y-142104944D01*
X124580801Y-142117596D01*
X124442714Y-142199261D01*
X124442707Y-142199266D01*
X124329266Y-142312707D01*
X124329261Y-142312714D01*
X124247595Y-142450802D01*
X124202834Y-142604869D01*
X124202832Y-142604882D01*
X124200000Y-142640863D01*
X124200000Y-143301000D01*
X125253884Y-143301000D01*
X125225507Y-143345156D01*
X125185000Y-143483111D01*
X125185000Y-143626889D01*
X125225507Y-143764844D01*
X125253884Y-143809000D01*
X124200000Y-143809000D01*
X124200000Y-144469136D01*
X124202832Y-144505117D01*
X124202834Y-144505130D01*
X124247595Y-144659197D01*
X124329261Y-144797285D01*
X124329266Y-144797292D01*
X124442707Y-144910733D01*
X124442714Y-144910738D01*
X124580802Y-144992404D01*
X124734869Y-145037165D01*
X124734882Y-145037167D01*
X124770863Y-145039999D01*
X124770865Y-145040000D01*
X125431000Y-145040000D01*
X125431000Y-143988674D01*
X125542685Y-144039680D01*
X125649237Y-144055000D01*
X125720763Y-144055000D01*
X125827315Y-144039680D01*
X125939000Y-143988674D01*
X125939000Y-145040000D01*
X126599135Y-145040000D01*
X126599136Y-145039999D01*
X126635117Y-145037167D01*
X126635130Y-145037165D01*
X126789195Y-144992404D01*
X126852058Y-144955227D01*
X126920874Y-144937767D01*
X126988205Y-144960283D01*
X126998723Y-144968467D01*
X126999575Y-144969205D01*
X126999580Y-144969210D01*
X127213316Y-145129211D01*
X127447647Y-145257165D01*
X127697803Y-145350468D01*
X127697806Y-145350468D01*
X127697810Y-145350470D01*
X127848788Y-145383313D01*
X127958691Y-145407221D01*
X128225000Y-145426268D01*
X128491309Y-145407221D01*
X128752188Y-145350470D01*
X128752189Y-145350470D01*
X128752190Y-145350469D01*
X128752197Y-145350468D01*
X129002353Y-145257165D01*
X129236684Y-145129211D01*
X129419491Y-144992362D01*
X129486011Y-144967552D01*
X129555385Y-144982643D01*
X129570507Y-144992361D01*
X129753316Y-145129211D01*
X129987647Y-145257165D01*
X130237803Y-145350468D01*
X130237806Y-145350468D01*
X130237810Y-145350470D01*
X130388788Y-145383313D01*
X130498691Y-145407221D01*
X130765000Y-145426268D01*
X131031309Y-145407221D01*
X131292188Y-145350470D01*
X131292189Y-145350470D01*
X131292190Y-145350469D01*
X131292197Y-145350468D01*
X131542353Y-145257165D01*
X131776684Y-145129211D01*
X131990420Y-144969210D01*
X132179210Y-144780420D01*
X132339211Y-144566684D01*
X132467165Y-144332353D01*
X132560468Y-144082197D01*
X132617221Y-143821309D01*
X132636268Y-143555000D01*
X132636267Y-143554998D01*
X132636589Y-143550510D01*
X132638172Y-143550623D01*
X132650734Y-143503762D01*
X132648965Y-143502937D01*
X132658209Y-143483111D01*
X132674846Y-143447431D01*
X132677364Y-143442595D01*
X132705234Y-143394326D01*
X132724299Y-143341940D01*
X132726386Y-143336904D01*
X132749939Y-143286398D01*
X132764357Y-143232584D01*
X132766010Y-143227343D01*
X132785065Y-143174993D01*
X132785066Y-143174988D01*
X132785068Y-143174983D01*
X132794745Y-143120094D01*
X132795927Y-143114762D01*
X132810352Y-143060932D01*
X132815207Y-143005428D01*
X132815925Y-142999977D01*
X132825600Y-142945108D01*
X132825600Y-142711690D01*
X132825600Y-139494849D01*
X132825600Y-135557040D01*
X132831023Y-135520480D01*
X132844192Y-135477069D01*
X132845772Y-135461032D01*
X132853957Y-135377917D01*
X132855126Y-135366050D01*
X132881708Y-135300219D01*
X132939662Y-135259208D01*
X132980519Y-135252400D01*
X133183881Y-135252400D01*
X133252002Y-135272402D01*
X133298495Y-135326058D01*
X133309492Y-135368512D01*
X133310232Y-135377918D01*
X133310234Y-135377930D01*
X133354995Y-135531997D01*
X133436661Y-135670085D01*
X133436666Y-135670092D01*
X133550107Y-135783533D01*
X133550114Y-135783538D01*
X133688202Y-135865204D01*
X133842269Y-135909965D01*
X133842282Y-135909967D01*
X133878263Y-135912799D01*
X133878265Y-135912800D01*
X134039200Y-135912800D01*
X134039200Y-134682200D01*
X134547200Y-134682200D01*
X134547200Y-135912800D01*
X134708135Y-135912800D01*
X134708136Y-135912799D01*
X134744117Y-135909967D01*
X134744130Y-135909965D01*
X134898197Y-135865204D01*
X135036285Y-135783538D01*
X135036292Y-135783533D01*
X135149733Y-135670092D01*
X135149738Y-135670085D01*
X135231404Y-135531997D01*
X135276165Y-135377930D01*
X135276167Y-135377917D01*
X135278999Y-135341936D01*
X135279000Y-135341935D01*
X135279000Y-134682200D01*
X134547200Y-134682200D01*
X134039200Y-134682200D01*
X134039200Y-132947737D01*
X134040415Y-132943600D01*
X134547200Y-132943600D01*
X134547200Y-134174200D01*
X135279000Y-134174200D01*
X135279000Y-133514464D01*
X135278999Y-133514463D01*
X135276167Y-133478482D01*
X135276165Y-133478469D01*
X135231404Y-133324402D01*
X135149738Y-133186314D01*
X135149733Y-133186307D01*
X135036292Y-133072866D01*
X135036285Y-133072861D01*
X134898197Y-132991195D01*
X134744130Y-132946434D01*
X134744117Y-132946432D01*
X134708136Y-132943600D01*
X134547200Y-132943600D01*
X134040415Y-132943600D01*
X134059202Y-132879616D01*
X134076105Y-132858642D01*
X136531842Y-130402905D01*
X136594154Y-130368879D01*
X136620937Y-130366000D01*
X137465917Y-130366000D01*
X137534038Y-130386002D01*
X137580531Y-130439658D01*
X137590635Y-130509932D01*
X137573419Y-130556078D01*
X137573946Y-130556366D01*
X137571946Y-130560027D01*
X137571908Y-130560131D01*
X137571789Y-130560315D01*
X137443834Y-130794647D01*
X137350529Y-131044810D01*
X137350529Y-131044811D01*
X137293779Y-131305687D01*
X137274732Y-131571999D01*
X137293779Y-131838312D01*
X137350529Y-132099188D01*
X137350529Y-132099189D01*
X137443834Y-132349352D01*
X137443835Y-132349353D01*
X137571789Y-132583684D01*
X137655742Y-132695832D01*
X137708636Y-132766490D01*
X137733447Y-132833010D01*
X137718356Y-132902384D01*
X137708637Y-132917507D01*
X137571788Y-133100317D01*
X137443834Y-133334647D01*
X137350529Y-133584810D01*
X137350529Y-133584811D01*
X137293779Y-133845687D01*
X137274732Y-134112000D01*
X137293779Y-134378312D01*
X137350529Y-134639188D01*
X137350529Y-134639189D01*
X137443834Y-134889352D01*
X137443835Y-134889353D01*
X137571789Y-135123684D01*
X137637657Y-135211673D01*
X137708636Y-135306491D01*
X137733447Y-135373012D01*
X137718355Y-135442386D01*
X137708636Y-135457509D01*
X137571789Y-135640316D01*
X137443834Y-135874647D01*
X137350529Y-136124810D01*
X137350529Y-136124811D01*
X137293779Y-136385687D01*
X137274732Y-136651999D01*
X137293779Y-136918312D01*
X137350529Y-137179188D01*
X137350529Y-137179189D01*
X137443832Y-137429346D01*
X137443837Y-137429357D01*
X137517426Y-137564128D01*
X137532517Y-137633502D01*
X137507705Y-137700022D01*
X137504239Y-137704444D01*
X137446722Y-137774529D01*
X137446721Y-137774531D01*
X137352334Y-137951116D01*
X137352332Y-137951122D01*
X137294206Y-138142736D01*
X137294206Y-138142739D01*
X137279500Y-138292057D01*
X137279500Y-140091942D01*
X137294206Y-140241260D01*
X137294206Y-140241263D01*
X137352332Y-140432877D01*
X137352334Y-140432883D01*
X137393928Y-140510699D01*
X137446722Y-140609469D01*
X137573748Y-140764252D01*
X137728531Y-140891278D01*
X137728533Y-140891279D01*
X137857766Y-140960356D01*
X137905120Y-140985667D01*
X138096731Y-141043792D01*
X138096736Y-141043792D01*
X138096738Y-141043793D01*
X138206069Y-141054560D01*
X138246066Y-141058500D01*
X138246075Y-141058500D01*
X140045925Y-141058500D01*
X140045934Y-141058500D01*
X140143179Y-141048922D01*
X140195260Y-141043793D01*
X140195263Y-141043793D01*
X140195264Y-141043792D01*
X140195269Y-141043792D01*
X140386880Y-140985667D01*
X140563469Y-140891278D01*
X140718252Y-140764252D01*
X140845278Y-140609469D01*
X140939667Y-140432880D01*
X140997792Y-140241269D01*
X141012500Y-140091934D01*
X141012500Y-138292066D01*
X140997793Y-138142739D01*
X140997793Y-138142736D01*
X140997792Y-138142733D01*
X140997792Y-138142731D01*
X140939667Y-137951120D01*
X140845278Y-137774531D01*
X140787759Y-137704444D01*
X140760007Y-137639097D01*
X140771989Y-137569119D01*
X140774572Y-137564128D01*
X140848165Y-137429353D01*
X140941468Y-137179197D01*
X140998221Y-136918309D01*
X141017268Y-136652000D01*
X140998221Y-136385691D01*
X140941468Y-136124803D01*
X140848165Y-135874647D01*
X140720211Y-135640316D01*
X140583362Y-135457508D01*
X140558552Y-135390989D01*
X140573643Y-135321615D01*
X140583363Y-135306491D01*
X140588058Y-135300219D01*
X140720211Y-135123684D01*
X140848165Y-134889353D01*
X140941468Y-134639197D01*
X140998221Y-134378309D01*
X141017268Y-134112000D01*
X140998221Y-133845691D01*
X140979303Y-133758728D01*
X140941470Y-133584811D01*
X140941470Y-133584810D01*
X140941468Y-133584806D01*
X140941468Y-133584803D01*
X140848165Y-133334647D01*
X140720211Y-133100316D01*
X140583362Y-132917508D01*
X140558552Y-132850989D01*
X140573643Y-132781615D01*
X140583363Y-132766491D01*
X140583364Y-132766490D01*
X140720211Y-132583684D01*
X140848165Y-132349353D01*
X140941468Y-132099197D01*
X140998221Y-131838309D01*
X141017268Y-131572000D01*
X140998221Y-131305691D01*
X140941468Y-131044803D01*
X140848165Y-130794647D01*
X140720211Y-130560316D01*
X140618084Y-130423890D01*
X140583363Y-130377508D01*
X140558552Y-130310988D01*
X140573644Y-130241613D01*
X140583357Y-130226498D01*
X140720211Y-130043684D01*
X140848165Y-129809353D01*
X140941468Y-129559197D01*
X140998221Y-129298309D01*
X141017268Y-129032000D01*
X140998221Y-128765691D01*
X140941468Y-128504803D01*
X140848165Y-128254647D01*
X140720211Y-128020316D01*
X140632220Y-127902774D01*
X140583363Y-127837508D01*
X140558552Y-127770988D01*
X140573644Y-127701613D01*
X140583357Y-127686498D01*
X140720211Y-127503684D01*
X140848165Y-127269353D01*
X140941468Y-127019197D01*
X140998221Y-126758309D01*
X141017268Y-126492000D01*
X140998221Y-126225691D01*
X140941468Y-125964803D01*
X140848165Y-125714647D01*
X140720211Y-125480316D01*
X140583362Y-125297507D01*
X140558552Y-125230989D01*
X140573643Y-125161615D01*
X140583363Y-125146491D01*
X140583364Y-125146490D01*
X140720211Y-124963684D01*
X140848165Y-124729353D01*
X140941468Y-124479197D01*
X140998221Y-124218309D01*
X141017268Y-123952000D01*
X140998221Y-123685691D01*
X140941468Y-123424803D01*
X140848165Y-123174647D01*
X140720211Y-122940316D01*
X140583362Y-122757508D01*
X140558552Y-122690989D01*
X140573643Y-122621615D01*
X140583363Y-122606491D01*
X140583364Y-122606490D01*
X140720211Y-122423684D01*
X140848165Y-122189353D01*
X140941468Y-121939197D01*
X140998221Y-121678309D01*
X141017268Y-121412000D01*
X140998221Y-121145691D01*
X140941468Y-120884803D01*
X140848165Y-120634647D01*
X140720211Y-120400316D01*
X140583362Y-120217508D01*
X140558552Y-120150989D01*
X140573643Y-120081615D01*
X140583363Y-120066491D01*
X140720211Y-119883684D01*
X140848165Y-119649353D01*
X140941468Y-119399197D01*
X140998221Y-119138309D01*
X141017268Y-118872000D01*
X140998221Y-118605691D01*
X140941468Y-118344803D01*
X140848165Y-118094647D01*
X140720211Y-117860316D01*
X140583362Y-117677507D01*
X140558552Y-117610989D01*
X140573643Y-117541615D01*
X140583363Y-117526491D01*
X140583364Y-117526490D01*
X140720211Y-117343684D01*
X140848165Y-117109353D01*
X140941468Y-116859197D01*
X140998221Y-116598309D01*
X141017268Y-116332000D01*
X140998221Y-116065691D01*
X140941468Y-115804803D01*
X140848165Y-115554647D01*
X140720211Y-115320316D01*
X140560210Y-115106580D01*
X140371420Y-114917790D01*
X140371417Y-114917788D01*
X140371414Y-114917785D01*
X140284963Y-114853069D01*
X140157684Y-114757789D01*
X140029728Y-114687920D01*
X139923352Y-114629834D01*
X139673189Y-114536529D01*
X139412311Y-114479779D01*
X139412313Y-114479779D01*
X139199261Y-114464541D01*
X139146000Y-114460732D01*
X139145999Y-114460732D01*
X138879687Y-114479779D01*
X138618811Y-114536529D01*
X138618810Y-114536529D01*
X138368647Y-114629834D01*
X138134316Y-114757789D01*
X137920585Y-114917785D01*
X137920576Y-114917793D01*
X137731793Y-115106576D01*
X137731785Y-115106585D01*
X137571789Y-115320316D01*
X137443834Y-115554647D01*
X137350529Y-115804810D01*
X137350529Y-115804811D01*
X137293779Y-116065687D01*
X137274732Y-116332000D01*
X137293779Y-116598312D01*
X137350529Y-116859188D01*
X137350529Y-116859189D01*
X137443834Y-117109352D01*
X137443835Y-117109353D01*
X137571789Y-117343684D01*
X137637657Y-117431673D01*
X137708636Y-117526491D01*
X137733447Y-117593012D01*
X137718355Y-117662386D01*
X137708636Y-117677509D01*
X137571789Y-117860316D01*
X137443834Y-118094647D01*
X137350529Y-118344810D01*
X137350529Y-118344811D01*
X137293779Y-118605687D01*
X137274732Y-118871999D01*
X137293779Y-119138312D01*
X137350529Y-119399188D01*
X137350529Y-119399189D01*
X137443834Y-119649352D01*
X137443835Y-119649353D01*
X137571789Y-119883684D01*
X137637657Y-119971673D01*
X137708636Y-120066491D01*
X137733447Y-120133012D01*
X137718355Y-120202386D01*
X137708636Y-120217509D01*
X137571789Y-120400316D01*
X137443834Y-120634647D01*
X137350529Y-120884810D01*
X137350529Y-120884811D01*
X137293779Y-121145687D01*
X137274732Y-121412000D01*
X137293779Y-121678312D01*
X137350529Y-121939188D01*
X137350529Y-121939189D01*
X137443834Y-122189352D01*
X137443835Y-122189353D01*
X137571789Y-122423684D01*
X137698782Y-122593327D01*
X137708636Y-122606490D01*
X137733447Y-122673010D01*
X137718356Y-122742384D01*
X137708637Y-122757507D01*
X137571788Y-122940317D01*
X137443834Y-123174647D01*
X137350529Y-123424810D01*
X137350529Y-123424811D01*
X137293779Y-123685687D01*
X137274732Y-123951999D01*
X137293779Y-124218312D01*
X137350529Y-124479188D01*
X137350529Y-124479189D01*
X137443834Y-124729352D01*
X137443835Y-124729353D01*
X137571789Y-124963684D01*
X137637657Y-125051673D01*
X137708636Y-125146491D01*
X137733447Y-125213012D01*
X137718355Y-125282386D01*
X137708636Y-125297509D01*
X137571789Y-125480316D01*
X137443834Y-125714647D01*
X137350529Y-125964810D01*
X137350529Y-125964811D01*
X137293779Y-126225687D01*
X137274732Y-126491999D01*
X137293779Y-126758312D01*
X137350529Y-127019188D01*
X137350529Y-127019189D01*
X137443834Y-127269352D01*
X137571789Y-127503684D01*
X137571908Y-127503869D01*
X137571928Y-127503939D01*
X137573946Y-127507634D01*
X137573142Y-127508072D01*
X137591917Y-127571987D01*
X137571922Y-127640110D01*
X137518271Y-127686608D01*
X137465917Y-127698000D01*
X135899475Y-127698000D01*
X135844606Y-127707674D01*
X135839157Y-127708391D01*
X135783652Y-127713247D01*
X135729835Y-127727667D01*
X135724470Y-127728857D01*
X135669600Y-127738533D01*
X135669598Y-127738534D01*
X135617256Y-127757584D01*
X135612015Y-127759237D01*
X135558188Y-127773660D01*
X135507693Y-127797206D01*
X135502615Y-127799309D01*
X135450261Y-127818364D01*
X135450261Y-127818365D01*
X135401999Y-127846229D01*
X135397123Y-127848767D01*
X135346639Y-127872307D01*
X135346637Y-127872309D01*
X135301003Y-127904261D01*
X135296369Y-127907213D01*
X135248120Y-127935070D01*
X135248111Y-127935077D01*
X135205424Y-127970894D01*
X135201065Y-127974238D01*
X135155431Y-128006193D01*
X135155426Y-128006197D01*
X135127870Y-128033754D01*
X135114092Y-128047533D01*
X134395938Y-128765687D01*
X130571317Y-132590305D01*
X130571313Y-132590311D01*
X130465800Y-132695823D01*
X130465791Y-132695833D01*
X130433837Y-132741468D01*
X130430491Y-132745829D01*
X130394676Y-132788512D01*
X130366815Y-132836767D01*
X130363862Y-132841403D01*
X130331909Y-132887036D01*
X130308365Y-132937525D01*
X130305828Y-132942399D01*
X130277965Y-132990660D01*
X130258908Y-133043019D01*
X130256804Y-133048097D01*
X130233265Y-133098575D01*
X130233260Y-133098591D01*
X130225436Y-133127788D01*
X130214853Y-133154567D01*
X130197135Y-133187716D01*
X130197128Y-133187732D01*
X130139008Y-133379327D01*
X130139006Y-133379339D01*
X130124300Y-133528657D01*
X130124300Y-135327742D01*
X130139006Y-135477060D01*
X130139008Y-135477069D01*
X130152174Y-135520470D01*
X130157600Y-135557047D01*
X130157600Y-141701962D01*
X130137598Y-141770083D01*
X130083942Y-141816576D01*
X130075633Y-141820017D01*
X129987655Y-141852831D01*
X129987648Y-141852834D01*
X129753317Y-141980788D01*
X129570507Y-142117637D01*
X129503987Y-142142447D01*
X129434613Y-142127355D01*
X129419490Y-142117636D01*
X129299722Y-142027979D01*
X129236684Y-141980789D01*
X129079302Y-141894852D01*
X129002352Y-141852834D01*
X128752189Y-141759529D01*
X128491311Y-141702779D01*
X128491312Y-141702779D01*
X128288345Y-141688262D01*
X128221825Y-141663451D01*
X128208239Y-141651678D01*
X126140505Y-139583944D01*
X126106479Y-139521632D01*
X126103600Y-139494849D01*
X126103600Y-138286344D01*
X126113194Y-138238120D01*
X126114865Y-138234085D01*
X126142575Y-138142739D01*
X126172992Y-138042469D01*
X126181989Y-137951120D01*
X126186428Y-137906051D01*
X126213010Y-137840218D01*
X126270964Y-137799208D01*
X126311821Y-137792400D01*
X126510682Y-137792400D01*
X126578803Y-137812402D01*
X126625296Y-137866058D01*
X126636294Y-137908514D01*
X126639033Y-137943326D01*
X126639034Y-137943330D01*
X126683795Y-138097397D01*
X126765461Y-138235485D01*
X126765466Y-138235492D01*
X126878907Y-138348933D01*
X126878914Y-138348938D01*
X127017002Y-138430604D01*
X127171069Y-138475365D01*
X127171082Y-138475367D01*
X127207063Y-138478199D01*
X127207065Y-138478200D01*
X127418800Y-138478200D01*
X127418800Y-137222200D01*
X127926800Y-137222200D01*
X127926800Y-138478200D01*
X128138535Y-138478200D01*
X128138536Y-138478199D01*
X128174517Y-138475367D01*
X128174530Y-138475365D01*
X128328597Y-138430604D01*
X128466685Y-138348938D01*
X128466692Y-138348933D01*
X128580133Y-138235492D01*
X128580138Y-138235485D01*
X128661804Y-138097397D01*
X128706565Y-137943330D01*
X128706567Y-137943317D01*
X128709399Y-137907336D01*
X128709400Y-137907335D01*
X128709400Y-137222200D01*
X127926800Y-137222200D01*
X127418800Y-137222200D01*
X127418800Y-135458200D01*
X127926800Y-135458200D01*
X127926800Y-136714200D01*
X128709400Y-136714200D01*
X128709400Y-136029064D01*
X128709399Y-136029063D01*
X128706567Y-135993082D01*
X128706565Y-135993069D01*
X128661804Y-135839002D01*
X128580138Y-135700914D01*
X128580133Y-135700907D01*
X128466692Y-135587466D01*
X128466685Y-135587461D01*
X128328597Y-135505795D01*
X128174530Y-135461034D01*
X128174517Y-135461032D01*
X128138536Y-135458200D01*
X127926800Y-135458200D01*
X127418800Y-135458200D01*
X127207064Y-135458200D01*
X127171082Y-135461032D01*
X127171069Y-135461034D01*
X127017002Y-135505795D01*
X126878914Y-135587461D01*
X126878907Y-135587466D01*
X126765466Y-135700907D01*
X126765461Y-135700914D01*
X126683795Y-135839002D01*
X126639034Y-135993069D01*
X126639033Y-135993073D01*
X126636294Y-136027886D01*
X126611008Y-136094228D01*
X126553870Y-136136367D01*
X126510682Y-136144000D01*
X126311821Y-136144000D01*
X126243700Y-136123998D01*
X126197207Y-136070342D01*
X126186428Y-136030349D01*
X126172993Y-135893939D01*
X126172993Y-135893936D01*
X126172992Y-135893933D01*
X126172992Y-135893931D01*
X126114867Y-135702320D01*
X126114115Y-135700914D01*
X126020479Y-135525733D01*
X126020478Y-135525731D01*
X125893452Y-135370948D01*
X125738669Y-135243922D01*
X125738667Y-135243921D01*
X125738666Y-135243920D01*
X125562083Y-135149534D01*
X125562077Y-135149532D01*
X125528721Y-135139413D01*
X125370469Y-135091408D01*
X125370466Y-135091407D01*
X125370461Y-135091406D01*
X125221142Y-135076700D01*
X125221134Y-135076700D01*
X124816851Y-135076700D01*
X124748730Y-135056698D01*
X124727756Y-135039795D01*
X123554818Y-133866857D01*
X123520792Y-133804545D01*
X123518520Y-133765412D01*
X123532099Y-133627540D01*
X123532100Y-133627534D01*
X123532100Y-132826066D01*
X123526232Y-132766490D01*
X123517393Y-132676739D01*
X123517393Y-132676736D01*
X123517392Y-132676733D01*
X123517392Y-132676731D01*
X123459267Y-132485120D01*
X123364878Y-132308531D01*
X123237852Y-132153748D01*
X123083069Y-132026722D01*
X123083067Y-132026721D01*
X123083066Y-132026720D01*
X122988178Y-131976002D01*
X122915438Y-131937121D01*
X122864791Y-131887370D01*
X122849081Y-131818133D01*
X122873297Y-131751394D01*
X122915438Y-131714878D01*
X123083069Y-131625278D01*
X123237852Y-131498252D01*
X123364878Y-131343469D01*
X123459267Y-131166880D01*
X123517392Y-130975269D01*
X123532100Y-130825934D01*
X123532100Y-130024466D01*
X123517393Y-129875139D01*
X123517393Y-129875136D01*
X123517392Y-129875133D01*
X123517392Y-129875131D01*
X123459267Y-129683520D01*
X123364878Y-129506931D01*
X123237852Y-129352148D01*
X123083069Y-129225122D01*
X123083067Y-129225121D01*
X123083066Y-129225120D01*
X122906483Y-129130734D01*
X122906477Y-129130732D01*
X122873121Y-129120613D01*
X122714869Y-129072608D01*
X122714866Y-129072607D01*
X122714861Y-129072606D01*
X122565542Y-129057900D01*
X122565534Y-129057900D01*
X122237451Y-129057900D01*
X122169330Y-129037898D01*
X122148356Y-129020995D01*
X121893048Y-128765687D01*
X121174894Y-128047533D01*
X121174893Y-128047532D01*
X121147677Y-128020316D01*
X121133558Y-128006196D01*
X121133556Y-128006194D01*
X121087913Y-127974235D01*
X121083550Y-127970887D01*
X121040874Y-127935077D01*
X121040873Y-127935076D01*
X120992613Y-127907213D01*
X120992605Y-127907208D01*
X120987982Y-127904262D01*
X120963928Y-127887419D01*
X120942353Y-127872312D01*
X120942350Y-127872311D01*
X120942348Y-127872309D01*
X120891860Y-127848765D01*
X120886984Y-127846227D01*
X120838726Y-127818365D01*
X120786364Y-127799307D01*
X120781285Y-127797203D01*
X120730805Y-127773664D01*
X120730801Y-127773662D01*
X120730798Y-127773661D01*
X120730796Y-127773660D01*
X120730790Y-127773658D01*
X120676970Y-127759237D01*
X120671728Y-127757584D01*
X120619383Y-127738533D01*
X120619384Y-127738533D01*
X120564514Y-127728857D01*
X120559148Y-127727667D01*
X120505332Y-127713247D01*
X120449827Y-127708391D01*
X120444378Y-127707673D01*
X120389511Y-127698000D01*
X120389510Y-127698000D01*
X120331047Y-127698000D01*
X117966083Y-127698000D01*
X117897962Y-127677998D01*
X117851469Y-127624342D01*
X117841365Y-127554068D01*
X117858580Y-127507921D01*
X117858054Y-127507634D01*
X117860053Y-127503972D01*
X117860092Y-127503869D01*
X117860204Y-127503693D01*
X117860211Y-127503684D01*
X117988165Y-127269353D01*
X118081468Y-127019197D01*
X118138221Y-126758309D01*
X118157268Y-126492000D01*
X118138221Y-126225691D01*
X118081468Y-125964803D01*
X117988165Y-125714647D01*
X117860211Y-125480316D01*
X117723362Y-125297507D01*
X117698552Y-125230989D01*
X117713643Y-125161615D01*
X117723363Y-125146491D01*
X117723364Y-125146490D01*
X117860211Y-124963684D01*
X117988165Y-124729353D01*
X118081468Y-124479197D01*
X118138221Y-124218309D01*
X118157268Y-123952000D01*
X118138221Y-123685691D01*
X118081468Y-123424803D01*
X117988165Y-123174647D01*
X117860211Y-122940316D01*
X117772220Y-122822774D01*
X117723363Y-122757508D01*
X117698552Y-122690988D01*
X117713644Y-122621613D01*
X117723357Y-122606498D01*
X117860211Y-122423684D01*
X117988165Y-122189353D01*
X118081468Y-121939197D01*
X118138221Y-121678309D01*
X118157268Y-121412000D01*
X118138221Y-121145691D01*
X118081468Y-120884803D01*
X117988165Y-120634647D01*
X117860211Y-120400316D01*
X117723362Y-120217508D01*
X117698552Y-120150989D01*
X117713643Y-120081615D01*
X117723363Y-120066491D01*
X117860211Y-119883684D01*
X117988165Y-119649353D01*
X118081468Y-119399197D01*
X118138221Y-119138309D01*
X118157268Y-118872000D01*
X118138221Y-118605691D01*
X118081468Y-118344803D01*
X117988165Y-118094647D01*
X117860211Y-117860316D01*
X117723362Y-117677507D01*
X117698552Y-117610989D01*
X117713643Y-117541615D01*
X117723363Y-117526491D01*
X117723364Y-117526490D01*
X117860211Y-117343684D01*
X117988165Y-117109353D01*
X118081468Y-116859197D01*
X118138221Y-116598309D01*
X118157268Y-116332000D01*
X118138221Y-116065691D01*
X118081468Y-115804803D01*
X117988165Y-115554647D01*
X117860211Y-115320316D01*
X117700210Y-115106580D01*
X117511420Y-114917790D01*
X117511417Y-114917788D01*
X117511414Y-114917785D01*
X117424963Y-114853069D01*
X117297684Y-114757789D01*
X117169728Y-114687920D01*
X117063352Y-114629834D01*
X116813189Y-114536529D01*
X116552311Y-114479779D01*
X116552313Y-114479779D01*
X116286000Y-114460732D01*
X116019687Y-114479779D01*
X115758811Y-114536529D01*
X115758810Y-114536529D01*
X115508647Y-114629834D01*
X115274316Y-114757789D01*
X115060585Y-114917785D01*
X115060576Y-114917793D01*
X114871793Y-115106576D01*
X114871785Y-115106585D01*
X114711789Y-115320316D01*
X114583834Y-115554647D01*
X114490529Y-115804810D01*
X114490529Y-115804811D01*
X114433779Y-116065687D01*
X114414732Y-116332000D01*
X114433779Y-116598312D01*
X114490529Y-116859188D01*
X114490529Y-116859189D01*
X114583834Y-117109352D01*
X114583835Y-117109353D01*
X114711789Y-117343684D01*
X114838782Y-117513327D01*
X114848636Y-117526490D01*
X114873447Y-117593010D01*
X114858356Y-117662384D01*
X114848637Y-117677507D01*
X114711788Y-117860317D01*
X114583834Y-118094647D01*
X114490529Y-118344810D01*
X114490529Y-118344811D01*
X114433779Y-118605687D01*
X114414732Y-118871999D01*
X114433779Y-119138312D01*
X114490529Y-119399188D01*
X114490529Y-119399189D01*
X114583834Y-119649352D01*
X114583835Y-119649353D01*
X114711789Y-119883684D01*
X114777657Y-119971673D01*
X114848636Y-120066491D01*
X114873447Y-120133012D01*
X114858355Y-120202386D01*
X114848636Y-120217509D01*
X114711789Y-120400316D01*
X114583834Y-120634647D01*
X114490529Y-120884810D01*
X114490529Y-120884811D01*
X114433779Y-121145687D01*
X114414732Y-121412000D01*
X114433779Y-121678312D01*
X114490529Y-121939188D01*
X114490529Y-121939189D01*
X114583834Y-122189352D01*
X114583835Y-122189353D01*
X114711789Y-122423684D01*
X114777657Y-122511673D01*
X114848636Y-122606491D01*
X114873447Y-122673012D01*
X114858355Y-122742386D01*
X114848636Y-122757509D01*
X114711789Y-122940316D01*
X114583834Y-123174647D01*
X114490529Y-123424810D01*
X114490529Y-123424811D01*
X114433779Y-123685687D01*
X114414732Y-123951999D01*
X114433779Y-124218312D01*
X114490529Y-124479188D01*
X114490529Y-124479189D01*
X114583834Y-124729352D01*
X114583835Y-124729353D01*
X114711789Y-124963684D01*
X114838782Y-125133327D01*
X114848636Y-125146490D01*
X114873447Y-125213010D01*
X114858356Y-125282384D01*
X114848637Y-125297507D01*
X114711788Y-125480317D01*
X114583834Y-125714647D01*
X114490529Y-125964810D01*
X114490529Y-125964811D01*
X114433779Y-126225687D01*
X114414732Y-126491999D01*
X114433779Y-126758312D01*
X114490529Y-127019188D01*
X114490529Y-127019189D01*
X114583834Y-127269352D01*
X114583835Y-127269353D01*
X114711789Y-127503684D01*
X114749506Y-127554068D01*
X114848636Y-127686491D01*
X114873447Y-127753012D01*
X114858355Y-127822386D01*
X114848636Y-127837509D01*
X114711789Y-128020316D01*
X114583834Y-128254647D01*
X114490529Y-128504810D01*
X114490529Y-128504811D01*
X114433779Y-128765687D01*
X114414732Y-129032000D01*
X114433779Y-129298312D01*
X114490529Y-129559188D01*
X114490529Y-129559189D01*
X114583834Y-129809352D01*
X114583835Y-129809353D01*
X114711789Y-130043684D01*
X114794843Y-130154631D01*
X114848636Y-130226490D01*
X114873447Y-130293010D01*
X114858356Y-130362384D01*
X114848637Y-130377507D01*
X114711788Y-130560317D01*
X114583834Y-130794647D01*
X114490529Y-131044810D01*
X114490529Y-131044811D01*
X114433779Y-131305687D01*
X114414732Y-131571999D01*
X114433779Y-131838312D01*
X114490529Y-132099188D01*
X114490529Y-132099189D01*
X114583834Y-132349352D01*
X114583835Y-132349353D01*
X114711789Y-132583684D01*
X114795742Y-132695832D01*
X114848636Y-132766490D01*
X114873447Y-132833010D01*
X114858356Y-132902384D01*
X114848637Y-132917507D01*
X114711788Y-133100317D01*
X114583834Y-133334647D01*
X114490529Y-133584810D01*
X114490529Y-133584811D01*
X114433779Y-133845687D01*
X114414732Y-134112000D01*
X114433779Y-134378312D01*
X114490529Y-134639188D01*
X114490529Y-134639189D01*
X114583834Y-134889352D01*
X114583835Y-134889353D01*
X114711789Y-135123684D01*
X114777657Y-135211673D01*
X114848636Y-135306491D01*
X114873447Y-135373012D01*
X114858355Y-135442386D01*
X114848636Y-135457509D01*
X114711789Y-135640316D01*
X114583834Y-135874647D01*
X114490529Y-136124810D01*
X114490529Y-136124811D01*
X114433779Y-136385687D01*
X114414732Y-136651999D01*
X107008389Y-136651999D01*
X107001777Y-136475289D01*
X106942987Y-135953513D01*
X106845369Y-135437589D01*
X106709468Y-134930403D01*
X106575978Y-134548909D01*
X106536049Y-134434799D01*
X106536048Y-134434798D01*
X106536046Y-134434791D01*
X106326072Y-133953524D01*
X106326069Y-133953519D01*
X106326062Y-133953503D01*
X106153775Y-133627524D01*
X106080719Y-133489295D01*
X106011622Y-133379327D01*
X105801366Y-133044706D01*
X105801354Y-133044689D01*
X105489561Y-132622224D01*
X105489548Y-132622208D01*
X105147067Y-132224239D01*
X105147058Y-132224228D01*
X105147045Y-132224215D01*
X105147034Y-132224203D01*
X104775796Y-131852965D01*
X104775784Y-131852954D01*
X104775772Y-131852942D01*
X104688446Y-131777792D01*
X104377791Y-131510451D01*
X104377775Y-131510438D01*
X103955310Y-131198645D01*
X103955293Y-131198633D01*
X103510720Y-130919290D01*
X103510712Y-130919285D01*
X103510705Y-130919281D01*
X103465089Y-130895172D01*
X103046496Y-130673937D01*
X103046470Y-130673925D01*
X102786076Y-130560317D01*
X102565209Y-130463954D01*
X102565202Y-130463951D01*
X102565200Y-130463950D01*
X102069605Y-130290534D01*
X101562412Y-130154631D01*
X101102575Y-130067625D01*
X101039361Y-130035308D01*
X101003653Y-129973944D01*
X101000000Y-129943822D01*
X101000000Y-109477769D01*
X101020002Y-109409648D01*
X101073658Y-109363155D01*
X101113647Y-109352377D01*
X101229758Y-109340941D01*
X101838052Y-109240512D01*
X101838062Y-109240509D01*
X101838066Y-109240509D01*
X102438479Y-109100512D01*
X102585970Y-109055770D01*
X103028456Y-108921544D01*
X103605469Y-108704372D01*
X104167042Y-108449926D01*
X104710772Y-108159296D01*
X105234329Y-107833728D01*
X105735473Y-107474613D01*
X106212056Y-107083492D01*
X106662038Y-106662038D01*
X107083492Y-106212056D01*
X107474613Y-105735473D01*
X107833728Y-105234329D01*
X108159296Y-104710772D01*
X108449926Y-104167042D01*
X108704372Y-103605469D01*
X108921544Y-103028456D01*
X109100513Y-102438475D01*
X109128931Y-102316592D01*
X109240509Y-101838066D01*
X109240509Y-101838062D01*
X109240512Y-101838052D01*
X109340941Y-101229758D01*
X109340942Y-101229748D01*
X109352377Y-101113650D01*
X109378960Y-101047817D01*
X109436914Y-101006808D01*
X109477770Y-101000000D01*
X129943822Y-101000000D01*
X130011943Y-101020002D01*
G37*
%TD.AperFunction*%
%TD*%
%TA.AperFunction,Conductor*%
%TO.N,Net-(J2-Pin_1)*%
G36*
X56011943Y-101020002D02*
G01*
X56058436Y-101073658D01*
X56067625Y-101102575D01*
X56154631Y-101562412D01*
X56290534Y-102069605D01*
X56463950Y-102565200D01*
X56463951Y-102565202D01*
X56463954Y-102565209D01*
X56593666Y-102862513D01*
X56673925Y-103046470D01*
X56673937Y-103046496D01*
X56919278Y-103510699D01*
X56919290Y-103510720D01*
X57198633Y-103955293D01*
X57198645Y-103955310D01*
X57510438Y-104377775D01*
X57510451Y-104377791D01*
X57779012Y-104689864D01*
X57852942Y-104775772D01*
X57852954Y-104775784D01*
X57852965Y-104775796D01*
X58224203Y-105147034D01*
X58224215Y-105147045D01*
X58224228Y-105147058D01*
X58325638Y-105234328D01*
X58622208Y-105489548D01*
X58622224Y-105489561D01*
X59044689Y-105801354D01*
X59044706Y-105801366D01*
X59489279Y-106080709D01*
X59489295Y-106080719D01*
X59660588Y-106171250D01*
X59953503Y-106326062D01*
X59953519Y-106326069D01*
X59953524Y-106326072D01*
X60434791Y-106536046D01*
X60434798Y-106536048D01*
X60434799Y-106536049D01*
X60930394Y-106709465D01*
X60930403Y-106709468D01*
X61437589Y-106845369D01*
X61953513Y-106942987D01*
X62416497Y-106995152D01*
X62475288Y-107001777D01*
X62494920Y-107002511D01*
X63000000Y-107021410D01*
X63524711Y-107001777D01*
X64046487Y-106942987D01*
X64562411Y-106845369D01*
X65069597Y-106709468D01*
X65565209Y-106536046D01*
X66046476Y-106326072D01*
X66046487Y-106326065D01*
X66046496Y-106326062D01*
X66262204Y-106212056D01*
X66510705Y-106080719D01*
X66955301Y-105801361D01*
X67377778Y-105489559D01*
X67775772Y-105147058D01*
X68147058Y-104775772D01*
X68489559Y-104377778D01*
X68801361Y-103955301D01*
X69080719Y-103510705D01*
X69245710Y-103198527D01*
X69326062Y-103046496D01*
X69326065Y-103046487D01*
X69326072Y-103046476D01*
X69536046Y-102565209D01*
X69709468Y-102069597D01*
X69845369Y-101562411D01*
X69908312Y-101229748D01*
X69932375Y-101102575D01*
X69964692Y-101039361D01*
X70026056Y-101003653D01*
X70056178Y-101000000D01*
X90522230Y-101000000D01*
X90590351Y-101020002D01*
X90636844Y-101073658D01*
X90647623Y-101113650D01*
X90659057Y-101229748D01*
X90659060Y-101229764D01*
X90759490Y-101838066D01*
X90899487Y-102438479D01*
X91078452Y-103028444D01*
X91078454Y-103028452D01*
X91295626Y-103605464D01*
X91550071Y-104167037D01*
X91550074Y-104167042D01*
X91840704Y-104710772D01*
X92166272Y-105234329D01*
X92525387Y-105735473D01*
X92916508Y-106212056D01*
X93337962Y-106662038D01*
X93787944Y-107083492D01*
X94264527Y-107474613D01*
X94765671Y-107833728D01*
X95289228Y-108159296D01*
X95832958Y-108449926D01*
X96394531Y-108704372D01*
X96971544Y-108921544D01*
X97204359Y-108992167D01*
X97561520Y-109100512D01*
X98161933Y-109240509D01*
X98161940Y-109240510D01*
X98161948Y-109240512D01*
X98770242Y-109340941D01*
X98886351Y-109352376D01*
X98952182Y-109378958D01*
X98993192Y-109436912D01*
X99000000Y-109477769D01*
X99000000Y-129943822D01*
X98979998Y-130011943D01*
X98926342Y-130058436D01*
X98897425Y-130067625D01*
X98437587Y-130154631D01*
X97930394Y-130290534D01*
X97434799Y-130463950D01*
X97434796Y-130463952D01*
X96953529Y-130673925D01*
X96953503Y-130673937D01*
X96489300Y-130919278D01*
X96489279Y-130919290D01*
X96044706Y-131198633D01*
X96044689Y-131198645D01*
X95622224Y-131510438D01*
X95622208Y-131510451D01*
X95224239Y-131852932D01*
X95224203Y-131852965D01*
X94852965Y-132224203D01*
X94852932Y-132224239D01*
X94510451Y-132622208D01*
X94510438Y-132622224D01*
X94198645Y-133044689D01*
X94198633Y-133044706D01*
X93919290Y-133489279D01*
X93919278Y-133489300D01*
X93673937Y-133953503D01*
X93673925Y-133953529D01*
X93502056Y-134347459D01*
X93488596Y-134378312D01*
X93463952Y-134434796D01*
X93463950Y-134434799D01*
X93290534Y-134930394D01*
X93154631Y-135437587D01*
X93057013Y-135953512D01*
X92998222Y-136475288D01*
X92978590Y-137000000D01*
X92998222Y-137524711D01*
X93057013Y-138046487D01*
X93154631Y-138562412D01*
X93290534Y-139069605D01*
X93463950Y-139565200D01*
X93463951Y-139565202D01*
X93463954Y-139565209D01*
X93495601Y-139637744D01*
X93673925Y-140046470D01*
X93673937Y-140046496D01*
X93919278Y-140510699D01*
X93919290Y-140510720D01*
X94198633Y-140955293D01*
X94198645Y-140955310D01*
X94510438Y-141377775D01*
X94510451Y-141377791D01*
X94736023Y-141639910D01*
X94852942Y-141775772D01*
X94852954Y-141775784D01*
X94852965Y-141775796D01*
X95224203Y-142147034D01*
X95224215Y-142147045D01*
X95224228Y-142147058D01*
X95232604Y-142154266D01*
X95622208Y-142489548D01*
X95622224Y-142489561D01*
X96044689Y-142801354D01*
X96044706Y-142801366D01*
X96480268Y-143075047D01*
X96489295Y-143080719D01*
X96573688Y-143125322D01*
X96953503Y-143326062D01*
X96953519Y-143326069D01*
X96953524Y-143326072D01*
X97434791Y-143536046D01*
X97434798Y-143536048D01*
X97434799Y-143536049D01*
X97930394Y-143709465D01*
X97930403Y-143709468D01*
X98437589Y-143845369D01*
X98713953Y-143897659D01*
X98897425Y-143932375D01*
X98960639Y-143964692D01*
X98996347Y-144026056D01*
X99000000Y-144056178D01*
X99000000Y-148874000D01*
X98979998Y-148942121D01*
X98926342Y-148988614D01*
X98874000Y-149000000D01*
X51126000Y-149000000D01*
X51057879Y-148979998D01*
X51011386Y-148926342D01*
X51000000Y-148874000D01*
X51000000Y-136652000D01*
X59042732Y-136652000D01*
X59061779Y-136918312D01*
X59118529Y-137179188D01*
X59118529Y-137179189D01*
X59211832Y-137429346D01*
X59211837Y-137429357D01*
X59285426Y-137564128D01*
X59300517Y-137633502D01*
X59275705Y-137700022D01*
X59272239Y-137704444D01*
X59214722Y-137774529D01*
X59214721Y-137774531D01*
X59120334Y-137951116D01*
X59120332Y-137951122D01*
X59062206Y-138142736D01*
X59062206Y-138142739D01*
X59047500Y-138292057D01*
X59047500Y-140091942D01*
X59062206Y-140241260D01*
X59062206Y-140241263D01*
X59120332Y-140432877D01*
X59120334Y-140432883D01*
X59186981Y-140557570D01*
X59214722Y-140609469D01*
X59341748Y-140764252D01*
X59496531Y-140891278D01*
X59496533Y-140891279D01*
X59632864Y-140964150D01*
X59673120Y-140985667D01*
X59864731Y-141043792D01*
X59864736Y-141043792D01*
X59864738Y-141043793D01*
X59974069Y-141054560D01*
X60014066Y-141058500D01*
X60014075Y-141058500D01*
X61813925Y-141058500D01*
X61813934Y-141058500D01*
X61911179Y-141048922D01*
X61963260Y-141043793D01*
X61963263Y-141043793D01*
X61963264Y-141043792D01*
X61963269Y-141043792D01*
X62154880Y-140985667D01*
X62331469Y-140891278D01*
X62486252Y-140764252D01*
X62613278Y-140609469D01*
X62707667Y-140432880D01*
X62765792Y-140241269D01*
X62780500Y-140091934D01*
X62780500Y-138292066D01*
X62765793Y-138142739D01*
X62765793Y-138142736D01*
X62765792Y-138142733D01*
X62765792Y-138142731D01*
X62707667Y-137951120D01*
X62683103Y-137905165D01*
X62613279Y-137774533D01*
X62613278Y-137774531D01*
X62555759Y-137704444D01*
X62528007Y-137639097D01*
X62539989Y-137569119D01*
X62542572Y-137564128D01*
X62616165Y-137429353D01*
X62709468Y-137179197D01*
X62766221Y-136918309D01*
X62785268Y-136652000D01*
X62766221Y-136385691D01*
X62713644Y-136144000D01*
X62709470Y-136124811D01*
X62709470Y-136124810D01*
X62709468Y-136124806D01*
X62709468Y-136124803D01*
X62616165Y-135874647D01*
X62488211Y-135640316D01*
X62351362Y-135457508D01*
X62326552Y-135390989D01*
X62341643Y-135321615D01*
X62351363Y-135306491D01*
X62488211Y-135123684D01*
X62616165Y-134889353D01*
X62709468Y-134639197D01*
X62766221Y-134378309D01*
X62785268Y-134112000D01*
X62766221Y-133845691D01*
X62745564Y-133750734D01*
X62709470Y-133584811D01*
X62709470Y-133584810D01*
X62709468Y-133584806D01*
X62709468Y-133584803D01*
X62616165Y-133334647D01*
X62488211Y-133100316D01*
X62351362Y-132917507D01*
X62326552Y-132850989D01*
X62341643Y-132781615D01*
X62351363Y-132766491D01*
X62351364Y-132766490D01*
X62488211Y-132583684D01*
X62616165Y-132349353D01*
X62709468Y-132099197D01*
X62766221Y-131838309D01*
X62785268Y-131572000D01*
X62766221Y-131305691D01*
X62742932Y-131198633D01*
X62709470Y-131044811D01*
X62709470Y-131044810D01*
X62709468Y-131044806D01*
X62709468Y-131044803D01*
X62616165Y-130794647D01*
X62488211Y-130560316D01*
X62488208Y-130560312D01*
X62488092Y-130560131D01*
X62488071Y-130560060D01*
X62486054Y-130556366D01*
X62486857Y-130555927D01*
X62468083Y-130492013D01*
X62488078Y-130423890D01*
X62541729Y-130377392D01*
X62594083Y-130366000D01*
X63410848Y-130366000D01*
X63478969Y-130386002D01*
X63499943Y-130402904D01*
X63628995Y-130531955D01*
X63663020Y-130594267D01*
X63665900Y-130621051D01*
X63665900Y-130949142D01*
X63680606Y-131098460D01*
X63680606Y-131098463D01*
X63738732Y-131290077D01*
X63738734Y-131290083D01*
X63747075Y-131305687D01*
X63833122Y-131466669D01*
X63960148Y-131621452D01*
X64114931Y-131748478D01*
X64282561Y-131838078D01*
X64333208Y-131887829D01*
X64348918Y-131957065D01*
X64324702Y-132023805D01*
X64282561Y-132060321D01*
X64187742Y-132111003D01*
X64114931Y-132149922D01*
X64024419Y-132224203D01*
X63960148Y-132276948D01*
X63833120Y-132431733D01*
X63738734Y-132608316D01*
X63738732Y-132608322D01*
X63680606Y-132799936D01*
X63680606Y-132799939D01*
X63665900Y-132949257D01*
X63665900Y-133750742D01*
X63680606Y-133900060D01*
X63680606Y-133900063D01*
X63738732Y-134091677D01*
X63738734Y-134091683D01*
X63749594Y-134112000D01*
X63833122Y-134268269D01*
X63960148Y-134423052D01*
X64114931Y-134550078D01*
X64114933Y-134550079D01*
X64281660Y-134639197D01*
X64291520Y-134644467D01*
X64483131Y-134702592D01*
X64483136Y-134702592D01*
X64483138Y-134702593D01*
X64592469Y-134713360D01*
X64632466Y-134717300D01*
X64778949Y-134717300D01*
X64847070Y-134737302D01*
X64868044Y-134754205D01*
X66943394Y-136829555D01*
X66977420Y-136891867D01*
X66980299Y-136918650D01*
X66980299Y-137322924D01*
X66980300Y-137322942D01*
X66995006Y-137472260D01*
X66995006Y-137472263D01*
X67053134Y-137663885D01*
X67054806Y-137667920D01*
X67064400Y-137716144D01*
X67064400Y-140270110D01*
X67074073Y-140324978D01*
X67074791Y-140330427D01*
X67079647Y-140385932D01*
X67094067Y-140439748D01*
X67095257Y-140445114D01*
X67104933Y-140499983D01*
X67123984Y-140552328D01*
X67125637Y-140557570D01*
X67140058Y-140611390D01*
X67140064Y-140611405D01*
X67163603Y-140661885D01*
X67165707Y-140666964D01*
X67184765Y-140719326D01*
X67212627Y-140767584D01*
X67215165Y-140772460D01*
X67238709Y-140822948D01*
X67238711Y-140822950D01*
X67238712Y-140822953D01*
X67253819Y-140844528D01*
X67270662Y-140868582D01*
X67273608Y-140873205D01*
X67285972Y-140894620D01*
X67301476Y-140921473D01*
X67301477Y-140921474D01*
X67337287Y-140964150D01*
X67340635Y-140968513D01*
X67372593Y-141014154D01*
X67396208Y-141037768D01*
X67396210Y-141037771D01*
X67413933Y-141055493D01*
X67413933Y-141055494D01*
X68208292Y-141849853D01*
X68242316Y-141912164D01*
X68237252Y-141982979D01*
X68194705Y-142039815D01*
X68154350Y-142059944D01*
X68110801Y-142072596D01*
X67972714Y-142154261D01*
X67972707Y-142154266D01*
X67859266Y-142267707D01*
X67859261Y-142267714D01*
X67777595Y-142405802D01*
X67732834Y-142559869D01*
X67732832Y-142559882D01*
X67730000Y-142595863D01*
X67730000Y-143256000D01*
X68783884Y-143256000D01*
X68755507Y-143300156D01*
X68715000Y-143438111D01*
X68715000Y-143581889D01*
X68755507Y-143719844D01*
X68783884Y-143764000D01*
X67730000Y-143764000D01*
X67730000Y-144424136D01*
X67732832Y-144460117D01*
X67732834Y-144460130D01*
X67777595Y-144614197D01*
X67859261Y-144752285D01*
X67859266Y-144752292D01*
X67972707Y-144865733D01*
X67972714Y-144865738D01*
X68110802Y-144947404D01*
X68264869Y-144992165D01*
X68264882Y-144992167D01*
X68300863Y-144994999D01*
X68300865Y-144995000D01*
X68961000Y-144995000D01*
X68961000Y-143943674D01*
X69072685Y-143994680D01*
X69179237Y-144010000D01*
X69250763Y-144010000D01*
X69357315Y-143994680D01*
X69469000Y-143943674D01*
X69469000Y-144995000D01*
X70129135Y-144995000D01*
X70129136Y-144994999D01*
X70165117Y-144992167D01*
X70165130Y-144992165D01*
X70319195Y-144947404D01*
X70382058Y-144910227D01*
X70450874Y-144892767D01*
X70518205Y-144915283D01*
X70528723Y-144923467D01*
X70529575Y-144924205D01*
X70529580Y-144924210D01*
X70743316Y-145084211D01*
X70977647Y-145212165D01*
X71227803Y-145305468D01*
X71227806Y-145305468D01*
X71227810Y-145305470D01*
X71378788Y-145338313D01*
X71488691Y-145362221D01*
X71755000Y-145381268D01*
X72021309Y-145362221D01*
X72282188Y-145305470D01*
X72282189Y-145305470D01*
X72282190Y-145305469D01*
X72282197Y-145305468D01*
X72532353Y-145212165D01*
X72766684Y-145084211D01*
X72949491Y-144947362D01*
X73016011Y-144922552D01*
X73085385Y-144937643D01*
X73100507Y-144947361D01*
X73283316Y-145084211D01*
X73517647Y-145212165D01*
X73767803Y-145305468D01*
X73767806Y-145305468D01*
X73767810Y-145305470D01*
X73918788Y-145338313D01*
X74028691Y-145362221D01*
X74295000Y-145381268D01*
X74561309Y-145362221D01*
X74822188Y-145305470D01*
X74822189Y-145305470D01*
X74822190Y-145305469D01*
X74822197Y-145305468D01*
X75072353Y-145212165D01*
X75306684Y-145084211D01*
X75520420Y-144924210D01*
X75709210Y-144735420D01*
X75869211Y-144521684D01*
X75997165Y-144287353D01*
X76090468Y-144037197D01*
X76147221Y-143776309D01*
X76161736Y-143573345D01*
X76186546Y-143506827D01*
X76198312Y-143493247D01*
X76383967Y-143307594D01*
X76383966Y-143307594D01*
X76425307Y-143266254D01*
X76425309Y-143266250D01*
X76427330Y-143264230D01*
X76428221Y-143262092D01*
X76457275Y-143220597D01*
X76460589Y-143216278D01*
X76496424Y-143173573D01*
X76524295Y-143125297D01*
X76527222Y-143120702D01*
X76559191Y-143075048D01*
X76582746Y-143024531D01*
X76585264Y-143019695D01*
X76613134Y-142971426D01*
X76632192Y-142919061D01*
X76634284Y-142914008D01*
X76657839Y-142863498D01*
X76672263Y-142809661D01*
X76673912Y-142804435D01*
X76692965Y-142752089D01*
X76692968Y-142752077D01*
X76702645Y-142697192D01*
X76703824Y-142691874D01*
X76718252Y-142638032D01*
X76723109Y-142582514D01*
X76723824Y-142577082D01*
X76733500Y-142522210D01*
X76733500Y-142288790D01*
X76733500Y-142288789D01*
X76733500Y-136191792D01*
X76753502Y-136123671D01*
X76770402Y-136102699D01*
X76788152Y-136084950D01*
X76917979Y-135897554D01*
X77012260Y-135689989D01*
X77037306Y-135590589D01*
X77073345Y-135529423D01*
X77136734Y-135497449D01*
X77207347Y-135504822D01*
X77262764Y-135549200D01*
X77278458Y-135582893D01*
X77278863Y-135582738D01*
X77281095Y-135588555D01*
X77281190Y-135588757D01*
X77281228Y-135588899D01*
X77365687Y-135754658D01*
X77365688Y-135754661D01*
X77482763Y-135899236D01*
X77627338Y-136016311D01*
X77627341Y-136016312D01*
X77793097Y-136100769D01*
X77972789Y-136148917D01*
X78050061Y-136155000D01*
X78270500Y-136155000D01*
X78270500Y-134874000D01*
X78778500Y-134874000D01*
X78778500Y-136155000D01*
X78998939Y-136155000D01*
X79076210Y-136148917D01*
X79255902Y-136100769D01*
X79421658Y-136016312D01*
X79421661Y-136016311D01*
X79566236Y-135899236D01*
X79683311Y-135754661D01*
X79683312Y-135754658D01*
X79767769Y-135588902D01*
X79815917Y-135409210D01*
X79822000Y-135331938D01*
X79822000Y-134874000D01*
X78778500Y-134874000D01*
X78270500Y-134874000D01*
X78270500Y-134492000D01*
X78290502Y-134423879D01*
X78344158Y-134377386D01*
X78396500Y-134366000D01*
X79822000Y-134366000D01*
X79822000Y-133908061D01*
X79815917Y-133830789D01*
X79767769Y-133651097D01*
X79683312Y-133485341D01*
X79683311Y-133485338D01*
X79566236Y-133340763D01*
X79421661Y-133223688D01*
X79421658Y-133223687D01*
X79255902Y-133139229D01*
X79080985Y-133092361D01*
X79020362Y-133055409D01*
X78989341Y-132991549D01*
X78997769Y-132921054D01*
X79024498Y-132881562D01*
X81503155Y-130402905D01*
X81565468Y-130368879D01*
X81592251Y-130366000D01*
X82093917Y-130366000D01*
X82162038Y-130386002D01*
X82208531Y-130439658D01*
X82218635Y-130509932D01*
X82201419Y-130556078D01*
X82201946Y-130556366D01*
X82199946Y-130560027D01*
X82199908Y-130560131D01*
X82199789Y-130560315D01*
X82071834Y-130794647D01*
X81978529Y-131044810D01*
X81978529Y-131044811D01*
X81921779Y-131305687D01*
X81902732Y-131572000D01*
X81921779Y-131838312D01*
X81978529Y-132099188D01*
X81978529Y-132099189D01*
X82071834Y-132349352D01*
X82071835Y-132349353D01*
X82199789Y-132583684D01*
X82287327Y-132700621D01*
X82336636Y-132766490D01*
X82361447Y-132833010D01*
X82346356Y-132902384D01*
X82336637Y-132917507D01*
X82199788Y-133100317D01*
X82071834Y-133334647D01*
X81978529Y-133584810D01*
X81978529Y-133584811D01*
X81921779Y-133845687D01*
X81902732Y-134112000D01*
X81921779Y-134378312D01*
X81978529Y-134639188D01*
X81978529Y-134639189D01*
X82071834Y-134889352D01*
X82094245Y-134930394D01*
X82199789Y-135123684D01*
X82206106Y-135132122D01*
X82336636Y-135306491D01*
X82361447Y-135373012D01*
X82346355Y-135442386D01*
X82336636Y-135457509D01*
X82199789Y-135640316D01*
X82071834Y-135874647D01*
X81978529Y-136124810D01*
X81978529Y-136124811D01*
X81921779Y-136385687D01*
X81902732Y-136651999D01*
X81921779Y-136918312D01*
X81978529Y-137179188D01*
X81978529Y-137179189D01*
X82071832Y-137429346D01*
X82071837Y-137429357D01*
X82145426Y-137564128D01*
X82160517Y-137633502D01*
X82135705Y-137700022D01*
X82132239Y-137704444D01*
X82074722Y-137774529D01*
X82074721Y-137774531D01*
X81980334Y-137951116D01*
X81980332Y-137951122D01*
X81922206Y-138142736D01*
X81922206Y-138142739D01*
X81907500Y-138292057D01*
X81907500Y-140091942D01*
X81922206Y-140241260D01*
X81922206Y-140241263D01*
X81980332Y-140432877D01*
X81980334Y-140432883D01*
X82046981Y-140557570D01*
X82074722Y-140609469D01*
X82201748Y-140764252D01*
X82356531Y-140891278D01*
X82356533Y-140891279D01*
X82492864Y-140964150D01*
X82533120Y-140985667D01*
X82724731Y-141043792D01*
X82724736Y-141043792D01*
X82724738Y-141043793D01*
X82834069Y-141054560D01*
X82874066Y-141058500D01*
X82874075Y-141058500D01*
X84673925Y-141058500D01*
X84673934Y-141058500D01*
X84771179Y-141048922D01*
X84823260Y-141043793D01*
X84823263Y-141043793D01*
X84823264Y-141043792D01*
X84823269Y-141043792D01*
X85014880Y-140985667D01*
X85191469Y-140891278D01*
X85346252Y-140764252D01*
X85473278Y-140609469D01*
X85567667Y-140432880D01*
X85625792Y-140241269D01*
X85640500Y-140091934D01*
X85640500Y-138292066D01*
X85625793Y-138142739D01*
X85625793Y-138142736D01*
X85625792Y-138142733D01*
X85625792Y-138142731D01*
X85567667Y-137951120D01*
X85543103Y-137905165D01*
X85473279Y-137774533D01*
X85473278Y-137774531D01*
X85415759Y-137704444D01*
X85388007Y-137639097D01*
X85399989Y-137569119D01*
X85402572Y-137564128D01*
X85476165Y-137429353D01*
X85569468Y-137179197D01*
X85626221Y-136918309D01*
X85645268Y-136652000D01*
X85626221Y-136385691D01*
X85573644Y-136144000D01*
X85569470Y-136124811D01*
X85569470Y-136124810D01*
X85569468Y-136124806D01*
X85569468Y-136124803D01*
X85476165Y-135874647D01*
X85348211Y-135640316D01*
X85211362Y-135457508D01*
X85186552Y-135390989D01*
X85201643Y-135321615D01*
X85211363Y-135306491D01*
X85348211Y-135123684D01*
X85476165Y-134889353D01*
X85569468Y-134639197D01*
X85626221Y-134378309D01*
X85645268Y-134112000D01*
X85626221Y-133845691D01*
X85605564Y-133750734D01*
X85569470Y-133584811D01*
X85569470Y-133584810D01*
X85569468Y-133584806D01*
X85569468Y-133584803D01*
X85476165Y-133334647D01*
X85348211Y-133100316D01*
X85211362Y-132917507D01*
X85186552Y-132850989D01*
X85201643Y-132781615D01*
X85211363Y-132766491D01*
X85211364Y-132766490D01*
X85348211Y-132583684D01*
X85476165Y-132349353D01*
X85569468Y-132099197D01*
X85626221Y-131838309D01*
X85645268Y-131572000D01*
X85626221Y-131305691D01*
X85602932Y-131198633D01*
X85569470Y-131044811D01*
X85569470Y-131044810D01*
X85569468Y-131044806D01*
X85569468Y-131044803D01*
X85476165Y-130794647D01*
X85348211Y-130560316D01*
X85246084Y-130423890D01*
X85211363Y-130377508D01*
X85186552Y-130310988D01*
X85201644Y-130241613D01*
X85211357Y-130226498D01*
X85348211Y-130043684D01*
X85476165Y-129809353D01*
X85569468Y-129559197D01*
X85626221Y-129298309D01*
X85645268Y-129032000D01*
X85626221Y-128765691D01*
X85569468Y-128504803D01*
X85476165Y-128254647D01*
X85348211Y-128020316D01*
X85260220Y-127902774D01*
X85211363Y-127837508D01*
X85186552Y-127770988D01*
X85201644Y-127701613D01*
X85211357Y-127686498D01*
X85348211Y-127503684D01*
X85476165Y-127269353D01*
X85569468Y-127019197D01*
X85626221Y-126758309D01*
X85645268Y-126492000D01*
X85626221Y-126225691D01*
X85569468Y-125964803D01*
X85476165Y-125714647D01*
X85348211Y-125480316D01*
X85211362Y-125297508D01*
X85186552Y-125230989D01*
X85201643Y-125161615D01*
X85211363Y-125146491D01*
X85348211Y-124963684D01*
X85476165Y-124729353D01*
X85569468Y-124479197D01*
X85626221Y-124218309D01*
X85645268Y-123952000D01*
X85626221Y-123685691D01*
X85569468Y-123424803D01*
X85476165Y-123174647D01*
X85348211Y-122940316D01*
X85211362Y-122757507D01*
X85186552Y-122690989D01*
X85201643Y-122621615D01*
X85211363Y-122606491D01*
X85211364Y-122606490D01*
X85348211Y-122423684D01*
X85476165Y-122189353D01*
X85569468Y-121939197D01*
X85626221Y-121678309D01*
X85645268Y-121412000D01*
X85626221Y-121145691D01*
X85569468Y-120884803D01*
X85476165Y-120634647D01*
X85348211Y-120400316D01*
X85211362Y-120217508D01*
X85186552Y-120150989D01*
X85201643Y-120081615D01*
X85211363Y-120066491D01*
X85348211Y-119883684D01*
X85476165Y-119649353D01*
X85569468Y-119399197D01*
X85626221Y-119138309D01*
X85645268Y-118872000D01*
X85626221Y-118605691D01*
X85569468Y-118344803D01*
X85476165Y-118094647D01*
X85348211Y-117860316D01*
X85211362Y-117677508D01*
X85186552Y-117610989D01*
X85201643Y-117541615D01*
X85211363Y-117526491D01*
X85211364Y-117526490D01*
X85348211Y-117343684D01*
X85476165Y-117109353D01*
X85569468Y-116859197D01*
X85626221Y-116598309D01*
X85645268Y-116332000D01*
X85626221Y-116065691D01*
X85569468Y-115804803D01*
X85476165Y-115554647D01*
X85348211Y-115320316D01*
X85188210Y-115106580D01*
X84999420Y-114917790D01*
X84999417Y-114917788D01*
X84999414Y-114917785D01*
X84912963Y-114853069D01*
X84785684Y-114757789D01*
X84657728Y-114687920D01*
X84551352Y-114629834D01*
X84301189Y-114536529D01*
X84040311Y-114479779D01*
X84040313Y-114479779D01*
X83827261Y-114464541D01*
X83774000Y-114460732D01*
X83773999Y-114460732D01*
X83507687Y-114479779D01*
X83246811Y-114536529D01*
X83246810Y-114536529D01*
X82996647Y-114629834D01*
X82762316Y-114757789D01*
X82548585Y-114917785D01*
X82548576Y-114917793D01*
X82359793Y-115106576D01*
X82359785Y-115106585D01*
X82199789Y-115320316D01*
X82071834Y-115554647D01*
X81978529Y-115804810D01*
X81978529Y-115804811D01*
X81921779Y-116065687D01*
X81902732Y-116332000D01*
X81921779Y-116598312D01*
X81978529Y-116859188D01*
X81978529Y-116859189D01*
X82071834Y-117109352D01*
X82071835Y-117109353D01*
X82199789Y-117343684D01*
X82326782Y-117513327D01*
X82336636Y-117526490D01*
X82361447Y-117593010D01*
X82346356Y-117662384D01*
X82336637Y-117677507D01*
X82199788Y-117860317D01*
X82071834Y-118094647D01*
X81978529Y-118344810D01*
X81978529Y-118344811D01*
X81921779Y-118605687D01*
X81902732Y-118871999D01*
X81921779Y-119138312D01*
X81978529Y-119399188D01*
X81978529Y-119399189D01*
X82071834Y-119649352D01*
X82071835Y-119649353D01*
X82199789Y-119883684D01*
X82265657Y-119971673D01*
X82336636Y-120066491D01*
X82361447Y-120133012D01*
X82346355Y-120202386D01*
X82336636Y-120217509D01*
X82199789Y-120400316D01*
X82071834Y-120634647D01*
X81978529Y-120884810D01*
X81978529Y-120884811D01*
X81921779Y-121145687D01*
X81902732Y-121412000D01*
X81921779Y-121678312D01*
X81978529Y-121939188D01*
X81978529Y-121939189D01*
X82071834Y-122189352D01*
X82071835Y-122189353D01*
X82199789Y-122423684D01*
X82265657Y-122511673D01*
X82336636Y-122606491D01*
X82361447Y-122673012D01*
X82346355Y-122742386D01*
X82336636Y-122757509D01*
X82199789Y-122940316D01*
X82071834Y-123174647D01*
X81978529Y-123424810D01*
X81978529Y-123424811D01*
X81921779Y-123685687D01*
X81902732Y-123951999D01*
X81921779Y-124218312D01*
X81978529Y-124479188D01*
X81978529Y-124479189D01*
X82071834Y-124729352D01*
X82071835Y-124729353D01*
X82199789Y-124963684D01*
X82265657Y-125051673D01*
X82336636Y-125146491D01*
X82361447Y-125213012D01*
X82346355Y-125282386D01*
X82336636Y-125297509D01*
X82199789Y-125480316D01*
X82071834Y-125714647D01*
X81978529Y-125964810D01*
X81978529Y-125964811D01*
X81921779Y-126225687D01*
X81902732Y-126491999D01*
X81921779Y-126758312D01*
X81978529Y-127019188D01*
X81978529Y-127019189D01*
X82071834Y-127269352D01*
X82199789Y-127503684D01*
X82199908Y-127503869D01*
X82199928Y-127503939D01*
X82201946Y-127507634D01*
X82201142Y-127508072D01*
X82219917Y-127571987D01*
X82199922Y-127640110D01*
X82146271Y-127686608D01*
X82093917Y-127698000D01*
X81104210Y-127698000D01*
X80870790Y-127698000D01*
X80855543Y-127700688D01*
X80815928Y-127707673D01*
X80810477Y-127708391D01*
X80754972Y-127713247D01*
X80754959Y-127713249D01*
X80701148Y-127727667D01*
X80695783Y-127728857D01*
X80640914Y-127738533D01*
X80588559Y-127757588D01*
X80583316Y-127759241D01*
X80529504Y-127773660D01*
X80529498Y-127773662D01*
X80479007Y-127797206D01*
X80473930Y-127799309D01*
X80434864Y-127813529D01*
X80421573Y-127818367D01*
X80379640Y-127842576D01*
X80373317Y-127846227D01*
X80368442Y-127848764D01*
X80317947Y-127872311D01*
X80272313Y-127904264D01*
X80267677Y-127907218D01*
X80219431Y-127935073D01*
X80219421Y-127935080D01*
X80176743Y-127970891D01*
X80172382Y-127974237D01*
X80126748Y-128006190D01*
X80126746Y-128006192D01*
X80025877Y-128107059D01*
X80025873Y-128107065D01*
X75466344Y-132666595D01*
X75404032Y-132700621D01*
X75377249Y-132703500D01*
X74921958Y-132703500D01*
X74788075Y-132714037D01*
X74788071Y-132714037D01*
X74788070Y-132714038D01*
X74567014Y-132769739D01*
X74567005Y-132769742D01*
X74359450Y-132864018D01*
X74172048Y-132993849D01*
X74172039Y-132993857D01*
X74010857Y-133155039D01*
X74010849Y-133155048D01*
X73881018Y-133342450D01*
X73786742Y-133550005D01*
X73786739Y-133550014D01*
X73761269Y-133651097D01*
X73731037Y-133771075D01*
X73726373Y-133830325D01*
X73720499Y-133904961D01*
X73720499Y-135335038D01*
X73723488Y-135373012D01*
X73731037Y-135468925D01*
X73731037Y-135468928D01*
X73731038Y-135468929D01*
X73786739Y-135689985D01*
X73786742Y-135689994D01*
X73881018Y-135897549D01*
X73881020Y-135897552D01*
X73881021Y-135897554D01*
X74010848Y-136084950D01*
X74028594Y-136102696D01*
X74062620Y-136165006D01*
X74065500Y-136191792D01*
X74065500Y-141548234D01*
X74045498Y-141616355D01*
X73991842Y-141662848D01*
X73966284Y-141671354D01*
X73767809Y-141714530D01*
X73767804Y-141714531D01*
X73767803Y-141714532D01*
X73719736Y-141732459D01*
X73517647Y-141807834D01*
X73283316Y-141935789D01*
X73100509Y-142072636D01*
X73033988Y-142097447D01*
X72964614Y-142082355D01*
X72949491Y-142072636D01*
X72829722Y-141982979D01*
X72766684Y-141935789D01*
X72609300Y-141849851D01*
X72532352Y-141807834D01*
X72282189Y-141714529D01*
X72021311Y-141657779D01*
X72021312Y-141657779D01*
X71818345Y-141643262D01*
X71751825Y-141618451D01*
X71738239Y-141606678D01*
X69769305Y-139637744D01*
X69735279Y-139575432D01*
X69732400Y-139548649D01*
X69732400Y-137716144D01*
X69741994Y-137667920D01*
X69743665Y-137663885D01*
X69743667Y-137663880D01*
X69801792Y-137472269D01*
X69801793Y-137472260D01*
X69815228Y-137335851D01*
X69841810Y-137270018D01*
X69899764Y-137229008D01*
X69940621Y-137222200D01*
X70139482Y-137222200D01*
X70207603Y-137242202D01*
X70254096Y-137295858D01*
X70265094Y-137338314D01*
X70267833Y-137373126D01*
X70267834Y-137373130D01*
X70312595Y-137527197D01*
X70394261Y-137665285D01*
X70394266Y-137665292D01*
X70507707Y-137778733D01*
X70507714Y-137778738D01*
X70645802Y-137860404D01*
X70799869Y-137905165D01*
X70799882Y-137905167D01*
X70835863Y-137907999D01*
X70835865Y-137908000D01*
X71047600Y-137908000D01*
X71047600Y-136652000D01*
X71555600Y-136652000D01*
X71555600Y-137908000D01*
X71767335Y-137908000D01*
X71767336Y-137907999D01*
X71803317Y-137905167D01*
X71803330Y-137905165D01*
X71957397Y-137860404D01*
X72095485Y-137778738D01*
X72095492Y-137778733D01*
X72208933Y-137665292D01*
X72208938Y-137665285D01*
X72290604Y-137527197D01*
X72335365Y-137373130D01*
X72335367Y-137373117D01*
X72338199Y-137337136D01*
X72338200Y-137337135D01*
X72338200Y-136652000D01*
X71555600Y-136652000D01*
X71047600Y-136652000D01*
X71047600Y-134888000D01*
X71555600Y-134888000D01*
X71555600Y-136144000D01*
X72338200Y-136144000D01*
X72338200Y-135458864D01*
X72338199Y-135458863D01*
X72335367Y-135422882D01*
X72335365Y-135422869D01*
X72290604Y-135268802D01*
X72208938Y-135130714D01*
X72208933Y-135130707D01*
X72095492Y-135017266D01*
X72095485Y-135017261D01*
X71957397Y-134935595D01*
X71803330Y-134890834D01*
X71803317Y-134890832D01*
X71767336Y-134888000D01*
X71555600Y-134888000D01*
X71047600Y-134888000D01*
X70835864Y-134888000D01*
X70799882Y-134890832D01*
X70799869Y-134890834D01*
X70645802Y-134935595D01*
X70507714Y-135017261D01*
X70507707Y-135017266D01*
X70394266Y-135130707D01*
X70394261Y-135130714D01*
X70312595Y-135268802D01*
X70267834Y-135422869D01*
X70267833Y-135422873D01*
X70265094Y-135457686D01*
X70239808Y-135524028D01*
X70182670Y-135566167D01*
X70139482Y-135573800D01*
X69940621Y-135573800D01*
X69872500Y-135553798D01*
X69826007Y-135500142D01*
X69815228Y-135460149D01*
X69801793Y-135323739D01*
X69801793Y-135323736D01*
X69801792Y-135323733D01*
X69801792Y-135323731D01*
X69743667Y-135132120D01*
X69742915Y-135130714D01*
X69649279Y-134955533D01*
X69649278Y-134955531D01*
X69522252Y-134800748D01*
X69367469Y-134673722D01*
X69367467Y-134673721D01*
X69367466Y-134673720D01*
X69190883Y-134579334D01*
X69190877Y-134579332D01*
X69094443Y-134550079D01*
X68999269Y-134521208D01*
X68999266Y-134521207D01*
X68999261Y-134521206D01*
X68849942Y-134506500D01*
X68849934Y-134506500D01*
X68445650Y-134506500D01*
X68377529Y-134486498D01*
X68356559Y-134469599D01*
X67435002Y-133548041D01*
X67400979Y-133485732D01*
X67398100Y-133458949D01*
X67398100Y-132949275D01*
X67398099Y-132949257D01*
X67383393Y-132799939D01*
X67383393Y-132799936D01*
X67383392Y-132799933D01*
X67383392Y-132799931D01*
X67325267Y-132608320D01*
X67230878Y-132431731D01*
X67103852Y-132276948D01*
X66949069Y-132149922D01*
X66949067Y-132149921D01*
X66949066Y-132149920D01*
X66781439Y-132060321D01*
X66730791Y-132010568D01*
X66715081Y-131941332D01*
X66739297Y-131874593D01*
X66781437Y-131838079D01*
X66949069Y-131748478D01*
X67103852Y-131621452D01*
X67230878Y-131466669D01*
X67325267Y-131290080D01*
X67383392Y-131098469D01*
X67398100Y-130949134D01*
X67398100Y-130147666D01*
X67383393Y-129998339D01*
X67383393Y-129998336D01*
X67383392Y-129998333D01*
X67383392Y-129998331D01*
X67325267Y-129806720D01*
X67230878Y-129630131D01*
X67103852Y-129475348D01*
X66949069Y-129348322D01*
X66949067Y-129348321D01*
X66949066Y-129348320D01*
X66772483Y-129253934D01*
X66772477Y-129253932D01*
X66739121Y-129243813D01*
X66580869Y-129195808D01*
X66580866Y-129195807D01*
X66580861Y-129195806D01*
X66431542Y-129181100D01*
X66431534Y-129181100D01*
X66103451Y-129181100D01*
X66035330Y-129161098D01*
X66014356Y-129144195D01*
X65635848Y-128765687D01*
X64917694Y-128047533D01*
X64890477Y-128020316D01*
X64876358Y-128006196D01*
X64876356Y-128006194D01*
X64830713Y-127974235D01*
X64826350Y-127970887D01*
X64783674Y-127935077D01*
X64783673Y-127935076D01*
X64756820Y-127919572D01*
X64735405Y-127907208D01*
X64730782Y-127904262D01*
X64706728Y-127887419D01*
X64685153Y-127872312D01*
X64685150Y-127872311D01*
X64685148Y-127872309D01*
X64634657Y-127848764D01*
X64629784Y-127846227D01*
X64581526Y-127818365D01*
X64529164Y-127799307D01*
X64524085Y-127797203D01*
X64473605Y-127773664D01*
X64473601Y-127773662D01*
X64473598Y-127773661D01*
X64473596Y-127773660D01*
X64473590Y-127773658D01*
X64419770Y-127759237D01*
X64414528Y-127757584D01*
X64362183Y-127738533D01*
X64362184Y-127738533D01*
X64307314Y-127728857D01*
X64301948Y-127727667D01*
X64248132Y-127713247D01*
X64192627Y-127708391D01*
X64187178Y-127707673D01*
X64132311Y-127698000D01*
X64132310Y-127698000D01*
X64073847Y-127698000D01*
X62594083Y-127698000D01*
X62525962Y-127677998D01*
X62479469Y-127624342D01*
X62469365Y-127554068D01*
X62486580Y-127507921D01*
X62486054Y-127507634D01*
X62488053Y-127503972D01*
X62488092Y-127503869D01*
X62488204Y-127503693D01*
X62488211Y-127503684D01*
X62616165Y-127269353D01*
X62709468Y-127019197D01*
X62766221Y-126758309D01*
X62785268Y-126492000D01*
X62766221Y-126225691D01*
X62709468Y-125964803D01*
X62616165Y-125714647D01*
X62488211Y-125480316D01*
X62351362Y-125297508D01*
X62326552Y-125230989D01*
X62341643Y-125161615D01*
X62351363Y-125146491D01*
X62488211Y-124963684D01*
X62616165Y-124729353D01*
X62709468Y-124479197D01*
X62766221Y-124218309D01*
X62785268Y-123952000D01*
X62766221Y-123685691D01*
X62709468Y-123424803D01*
X62616165Y-123174647D01*
X62488211Y-122940316D01*
X62351362Y-122757507D01*
X62326552Y-122690989D01*
X62341643Y-122621615D01*
X62351363Y-122606491D01*
X62351364Y-122606490D01*
X62488211Y-122423684D01*
X62616165Y-122189353D01*
X62709468Y-121939197D01*
X62766221Y-121678309D01*
X62785268Y-121412000D01*
X62766221Y-121145691D01*
X62709468Y-120884803D01*
X62616165Y-120634647D01*
X62488211Y-120400316D01*
X62351362Y-120217508D01*
X62326552Y-120150989D01*
X62341643Y-120081615D01*
X62351363Y-120066491D01*
X62488211Y-119883684D01*
X62616165Y-119649353D01*
X62709468Y-119399197D01*
X62766221Y-119138309D01*
X62785268Y-118872000D01*
X62766221Y-118605691D01*
X62709468Y-118344803D01*
X62616165Y-118094647D01*
X62488211Y-117860316D01*
X62400220Y-117742774D01*
X62351363Y-117677508D01*
X62326552Y-117610988D01*
X62341644Y-117541613D01*
X62351357Y-117526498D01*
X62488211Y-117343684D01*
X62616165Y-117109353D01*
X62709468Y-116859197D01*
X62766221Y-116598309D01*
X62785268Y-116332000D01*
X62766221Y-116065691D01*
X62709468Y-115804803D01*
X62616165Y-115554647D01*
X62488211Y-115320316D01*
X62328210Y-115106580D01*
X62139420Y-114917790D01*
X62139417Y-114917788D01*
X62139414Y-114917785D01*
X62052963Y-114853069D01*
X61925684Y-114757789D01*
X61797728Y-114687920D01*
X61691352Y-114629834D01*
X61441189Y-114536529D01*
X61180311Y-114479779D01*
X61180313Y-114479779D01*
X60914000Y-114460732D01*
X60647687Y-114479779D01*
X60386811Y-114536529D01*
X60386810Y-114536529D01*
X60136647Y-114629834D01*
X59902316Y-114757789D01*
X59688585Y-114917785D01*
X59688576Y-114917793D01*
X59499793Y-115106576D01*
X59499785Y-115106585D01*
X59339789Y-115320316D01*
X59211834Y-115554647D01*
X59118529Y-115804810D01*
X59118529Y-115804811D01*
X59061779Y-116065687D01*
X59042732Y-116332000D01*
X59061779Y-116598312D01*
X59118529Y-116859188D01*
X59118529Y-116859189D01*
X59211834Y-117109352D01*
X59211835Y-117109353D01*
X59339789Y-117343684D01*
X59466782Y-117513327D01*
X59476636Y-117526490D01*
X59501447Y-117593010D01*
X59486356Y-117662384D01*
X59476637Y-117677507D01*
X59339788Y-117860317D01*
X59211834Y-118094647D01*
X59118529Y-118344810D01*
X59118529Y-118344811D01*
X59061779Y-118605687D01*
X59042732Y-118872000D01*
X59061779Y-119138312D01*
X59118529Y-119399188D01*
X59118529Y-119399189D01*
X59211834Y-119649352D01*
X59211835Y-119649353D01*
X59339789Y-119883684D01*
X59405657Y-119971673D01*
X59476636Y-120066491D01*
X59501447Y-120133012D01*
X59486355Y-120202386D01*
X59476636Y-120217509D01*
X59339789Y-120400316D01*
X59211834Y-120634647D01*
X59118529Y-120884810D01*
X59118529Y-120884811D01*
X59061779Y-121145687D01*
X59042732Y-121411999D01*
X59061779Y-121678312D01*
X59118529Y-121939188D01*
X59118529Y-121939189D01*
X59211834Y-122189352D01*
X59211835Y-122189353D01*
X59339789Y-122423684D01*
X59466782Y-122593327D01*
X59476636Y-122606490D01*
X59501447Y-122673010D01*
X59486356Y-122742384D01*
X59476637Y-122757507D01*
X59339788Y-122940317D01*
X59211834Y-123174647D01*
X59118529Y-123424810D01*
X59118529Y-123424811D01*
X59061779Y-123685687D01*
X59042732Y-123952000D01*
X59061779Y-124218312D01*
X59118529Y-124479188D01*
X59118529Y-124479189D01*
X59211834Y-124729352D01*
X59211835Y-124729353D01*
X59339789Y-124963684D01*
X59405657Y-125051673D01*
X59476636Y-125146491D01*
X59501447Y-125213012D01*
X59486355Y-125282386D01*
X59476636Y-125297509D01*
X59339789Y-125480316D01*
X59211834Y-125714647D01*
X59118529Y-125964810D01*
X59118529Y-125964811D01*
X59061779Y-126225687D01*
X59042732Y-126491999D01*
X59061779Y-126758312D01*
X59118529Y-127019188D01*
X59118529Y-127019189D01*
X59211834Y-127269352D01*
X59211835Y-127269353D01*
X59339789Y-127503684D01*
X59377506Y-127554068D01*
X59476636Y-127686491D01*
X59501447Y-127753012D01*
X59486355Y-127822386D01*
X59476636Y-127837509D01*
X59339789Y-128020316D01*
X59211834Y-128254647D01*
X59118529Y-128504810D01*
X59118529Y-128504811D01*
X59061779Y-128765687D01*
X59042732Y-129032000D01*
X59061779Y-129298312D01*
X59118529Y-129559188D01*
X59118529Y-129559189D01*
X59211834Y-129809352D01*
X59211835Y-129809353D01*
X59339789Y-130043684D01*
X59417629Y-130147666D01*
X59476636Y-130226490D01*
X59501447Y-130293010D01*
X59486356Y-130362384D01*
X59476637Y-130377507D01*
X59339788Y-130560317D01*
X59211834Y-130794647D01*
X59118529Y-131044810D01*
X59118529Y-131044811D01*
X59061779Y-131305687D01*
X59042732Y-131572000D01*
X59061779Y-131838312D01*
X59118529Y-132099188D01*
X59118529Y-132099189D01*
X59211834Y-132349352D01*
X59211835Y-132349353D01*
X59339789Y-132583684D01*
X59427327Y-132700621D01*
X59476636Y-132766490D01*
X59501447Y-132833010D01*
X59486356Y-132902384D01*
X59476637Y-132917507D01*
X59339788Y-133100317D01*
X59211834Y-133334647D01*
X59118529Y-133584810D01*
X59118529Y-133584811D01*
X59061779Y-133845687D01*
X59042732Y-134111999D01*
X59061779Y-134378312D01*
X59118529Y-134639188D01*
X59118529Y-134639189D01*
X59211834Y-134889352D01*
X59234245Y-134930394D01*
X59339789Y-135123684D01*
X59346106Y-135132122D01*
X59476636Y-135306491D01*
X59501447Y-135373012D01*
X59486355Y-135442386D01*
X59476636Y-135457509D01*
X59339789Y-135640316D01*
X59211834Y-135874647D01*
X59118529Y-136124810D01*
X59118529Y-136124811D01*
X59061779Y-136385687D01*
X59042732Y-136652000D01*
X51000000Y-136652000D01*
X51000000Y-101126000D01*
X51020002Y-101057879D01*
X51073658Y-101011386D01*
X51126000Y-101000000D01*
X55943822Y-101000000D01*
X56011943Y-101020002D01*
G37*
%TD.AperFunction*%
%TD*%
M02*
