%TF.GenerationSoftware,KiCad,Pcbnew,7.0.5-0*%
%TF.CreationDate,2024-04-09T15:10:57-04:00*%
%TF.ProjectId,quad_sipm,71756164-5f73-4697-906d-2e6b69636164,rev?*%
%TF.SameCoordinates,Original*%
%TF.FileFunction,Legend,Top*%
%TF.FilePolarity,Positive*%
%FSLAX46Y46*%
G04 Gerber Fmt 4.6, Leading zero omitted, Abs format (unit mm)*
G04 Created by KiCad (PCBNEW 7.0.5-0) date 2024-04-09 15:10:57*
%MOMM*%
%LPD*%
G01*
G04 APERTURE LIST*
%ADD10C,0.120000*%
%ADD11C,0.150000*%
G04 APERTURE END LIST*
D10*
X51000000Y-100000000D02*
X149000000Y-100000000D01*
X100000000Y-51000000D02*
X100000000Y-149000000D01*
D11*
%TO.C,H2*%
X99238095Y-91054819D02*
X99238095Y-90054819D01*
X99238095Y-90531009D02*
X99809523Y-90531009D01*
X99809523Y-91054819D02*
X99809523Y-90054819D01*
X100238095Y-90150057D02*
X100285714Y-90102438D01*
X100285714Y-90102438D02*
X100380952Y-90054819D01*
X100380952Y-90054819D02*
X100619047Y-90054819D01*
X100619047Y-90054819D02*
X100714285Y-90102438D01*
X100714285Y-90102438D02*
X100761904Y-90150057D01*
X100761904Y-90150057D02*
X100809523Y-90245295D01*
X100809523Y-90245295D02*
X100809523Y-90340533D01*
X100809523Y-90340533D02*
X100761904Y-90483390D01*
X100761904Y-90483390D02*
X100190476Y-91054819D01*
X100190476Y-91054819D02*
X100809523Y-91054819D01*
%TO.C,H3*%
X99238095Y-128054819D02*
X99238095Y-127054819D01*
X99238095Y-127531009D02*
X99809523Y-127531009D01*
X99809523Y-128054819D02*
X99809523Y-127054819D01*
X100190476Y-127054819D02*
X100809523Y-127054819D01*
X100809523Y-127054819D02*
X100476190Y-127435771D01*
X100476190Y-127435771D02*
X100619047Y-127435771D01*
X100619047Y-127435771D02*
X100714285Y-127483390D01*
X100714285Y-127483390D02*
X100761904Y-127531009D01*
X100761904Y-127531009D02*
X100809523Y-127626247D01*
X100809523Y-127626247D02*
X100809523Y-127864342D01*
X100809523Y-127864342D02*
X100761904Y-127959580D01*
X100761904Y-127959580D02*
X100714285Y-128007200D01*
X100714285Y-128007200D02*
X100619047Y-128054819D01*
X100619047Y-128054819D02*
X100333333Y-128054819D01*
X100333333Y-128054819D02*
X100238095Y-128007200D01*
X100238095Y-128007200D02*
X100190476Y-127959580D01*
%TO.C,H4*%
X136238095Y-91054819D02*
X136238095Y-90054819D01*
X136238095Y-90531009D02*
X136809523Y-90531009D01*
X136809523Y-91054819D02*
X136809523Y-90054819D01*
X137714285Y-90388152D02*
X137714285Y-91054819D01*
X137476190Y-90007200D02*
X137238095Y-90721485D01*
X137238095Y-90721485D02*
X137857142Y-90721485D01*
%TO.C,H5*%
X62238095Y-91054819D02*
X62238095Y-90054819D01*
X62238095Y-90531009D02*
X62809523Y-90531009D01*
X62809523Y-91054819D02*
X62809523Y-90054819D01*
X63761904Y-90054819D02*
X63285714Y-90054819D01*
X63285714Y-90054819D02*
X63238095Y-90531009D01*
X63238095Y-90531009D02*
X63285714Y-90483390D01*
X63285714Y-90483390D02*
X63380952Y-90435771D01*
X63380952Y-90435771D02*
X63619047Y-90435771D01*
X63619047Y-90435771D02*
X63714285Y-90483390D01*
X63714285Y-90483390D02*
X63761904Y-90531009D01*
X63761904Y-90531009D02*
X63809523Y-90626247D01*
X63809523Y-90626247D02*
X63809523Y-90864342D01*
X63809523Y-90864342D02*
X63761904Y-90959580D01*
X63761904Y-90959580D02*
X63714285Y-91007200D01*
X63714285Y-91007200D02*
X63619047Y-91054819D01*
X63619047Y-91054819D02*
X63380952Y-91054819D01*
X63380952Y-91054819D02*
X63285714Y-91007200D01*
X63285714Y-91007200D02*
X63238095Y-90959580D01*
%TO.C,H1*%
X99238095Y-54054819D02*
X99238095Y-53054819D01*
X99238095Y-53531009D02*
X99809523Y-53531009D01*
X99809523Y-54054819D02*
X99809523Y-53054819D01*
X100809523Y-54054819D02*
X100238095Y-54054819D01*
X100523809Y-54054819D02*
X100523809Y-53054819D01*
X100523809Y-53054819D02*
X100428571Y-53197676D01*
X100428571Y-53197676D02*
X100333333Y-53292914D01*
X100333333Y-53292914D02*
X100238095Y-53340533D01*
%TD*%
M02*
