%TF.GenerationSoftware,KiCad,Pcbnew,7.0.5-0*%
%TF.CreationDate,2023-06-12T10:56:44-04:00*%
%TF.ProjectId,quad_sipm,71756164-5f73-4697-906d-2e6b69636164,rev?*%
%TF.SameCoordinates,Original*%
%TF.FileFunction,Legend,Bot*%
%TF.FilePolarity,Positive*%
%FSLAX46Y46*%
G04 Gerber Fmt 4.6, Leading zero omitted, Abs format (unit mm)*
G04 Created by KiCad (PCBNEW 7.0.5-0) date 2023-06-12 10:56:44*
%MOMM*%
%LPD*%
G01*
G04 APERTURE LIST*
%ADD10C,0.150000*%
%ADD11C,0.203200*%
%ADD12C,0.120000*%
%ADD13C,0.152400*%
G04 APERTURE END LIST*
D10*
X124597438Y-53601904D02*
X124549819Y-53506666D01*
X124549819Y-53506666D02*
X124549819Y-53363809D01*
X124549819Y-53363809D02*
X124597438Y-53220952D01*
X124597438Y-53220952D02*
X124692676Y-53125714D01*
X124692676Y-53125714D02*
X124787914Y-53078095D01*
X124787914Y-53078095D02*
X124978390Y-53030476D01*
X124978390Y-53030476D02*
X125121247Y-53030476D01*
X125121247Y-53030476D02*
X125311723Y-53078095D01*
X125311723Y-53078095D02*
X125406961Y-53125714D01*
X125406961Y-53125714D02*
X125502200Y-53220952D01*
X125502200Y-53220952D02*
X125549819Y-53363809D01*
X125549819Y-53363809D02*
X125549819Y-53459047D01*
X125549819Y-53459047D02*
X125502200Y-53601904D01*
X125502200Y-53601904D02*
X125454580Y-53649523D01*
X125454580Y-53649523D02*
X125121247Y-53649523D01*
X125121247Y-53649523D02*
X125121247Y-53459047D01*
X131899819Y-53078095D02*
X130899819Y-53078095D01*
X131899819Y-53649523D02*
X131328390Y-53220952D01*
X130899819Y-53649523D02*
X131471247Y-53078095D01*
X128439104Y-53101905D02*
X128439104Y-53578095D01*
X128724819Y-53006667D02*
X127724819Y-53340000D01*
X127724819Y-53340000D02*
X128724819Y-53673333D01*
X68717438Y-146983220D02*
X68669819Y-146887982D01*
X68669819Y-146887982D02*
X68669819Y-146745125D01*
X68669819Y-146745125D02*
X68717438Y-146602268D01*
X68717438Y-146602268D02*
X68812676Y-146507030D01*
X68812676Y-146507030D02*
X68907914Y-146459411D01*
X68907914Y-146459411D02*
X69098390Y-146411792D01*
X69098390Y-146411792D02*
X69241247Y-146411792D01*
X69241247Y-146411792D02*
X69431723Y-146459411D01*
X69431723Y-146459411D02*
X69526961Y-146507030D01*
X69526961Y-146507030D02*
X69622200Y-146602268D01*
X69622200Y-146602268D02*
X69669819Y-146745125D01*
X69669819Y-146745125D02*
X69669819Y-146840363D01*
X69669819Y-146840363D02*
X69622200Y-146983220D01*
X69622200Y-146983220D02*
X69574580Y-147030839D01*
X69574580Y-147030839D02*
X69241247Y-147030839D01*
X69241247Y-147030839D02*
X69241247Y-146840363D01*
X71924104Y-146554649D02*
X71924104Y-147030839D01*
X72209819Y-146459411D02*
X71209819Y-146792744D01*
X71209819Y-146792744D02*
X72209819Y-147126077D01*
X75384819Y-53078095D02*
X74384819Y-53078095D01*
X75384819Y-53649523D02*
X74813390Y-53220952D01*
X74384819Y-53649523D02*
X74956247Y-53078095D01*
X117069104Y-105261905D02*
X117069104Y-105738095D01*
X117354819Y-105166667D02*
X116354819Y-105500000D01*
X116354819Y-105500000D02*
X117354819Y-105833333D01*
X117354819Y-106166667D02*
X116354819Y-106166667D01*
X116354819Y-106166667D02*
X117354819Y-106738095D01*
X117354819Y-106738095D02*
X116354819Y-106738095D01*
X116354819Y-107404762D02*
X116354819Y-107595238D01*
X116354819Y-107595238D02*
X116402438Y-107690476D01*
X116402438Y-107690476D02*
X116497676Y-107785714D01*
X116497676Y-107785714D02*
X116688152Y-107833333D01*
X116688152Y-107833333D02*
X117021485Y-107833333D01*
X117021485Y-107833333D02*
X117211961Y-107785714D01*
X117211961Y-107785714D02*
X117307200Y-107690476D01*
X117307200Y-107690476D02*
X117354819Y-107595238D01*
X117354819Y-107595238D02*
X117354819Y-107404762D01*
X117354819Y-107404762D02*
X117307200Y-107309524D01*
X117307200Y-107309524D02*
X117211961Y-107214286D01*
X117211961Y-107214286D02*
X117021485Y-107166667D01*
X117021485Y-107166667D02*
X116688152Y-107166667D01*
X116688152Y-107166667D02*
X116497676Y-107214286D01*
X116497676Y-107214286D02*
X116402438Y-107309524D01*
X116402438Y-107309524D02*
X116354819Y-107404762D01*
X117354819Y-108261905D02*
X116354819Y-108261905D01*
X116354819Y-108261905D02*
X116354819Y-108500000D01*
X116354819Y-108500000D02*
X116402438Y-108642857D01*
X116402438Y-108642857D02*
X116497676Y-108738095D01*
X116497676Y-108738095D02*
X116592914Y-108785714D01*
X116592914Y-108785714D02*
X116783390Y-108833333D01*
X116783390Y-108833333D02*
X116926247Y-108833333D01*
X116926247Y-108833333D02*
X117116723Y-108785714D01*
X117116723Y-108785714D02*
X117211961Y-108738095D01*
X117211961Y-108738095D02*
X117307200Y-108642857D01*
X117307200Y-108642857D02*
X117354819Y-108500000D01*
X117354819Y-108500000D02*
X117354819Y-108261905D01*
X116831009Y-109261905D02*
X116831009Y-109595238D01*
X117354819Y-109738095D02*
X117354819Y-109261905D01*
X117354819Y-109261905D02*
X116354819Y-109261905D01*
X116354819Y-109261905D02*
X116354819Y-109738095D01*
X71924104Y-53101905D02*
X71924104Y-53578095D01*
X72209819Y-53006667D02*
X71209819Y-53340000D01*
X71209819Y-53340000D02*
X72209819Y-53673333D01*
X74749819Y-146423095D02*
X73749819Y-146423095D01*
X74749819Y-146994523D02*
X74178390Y-146565952D01*
X73749819Y-146994523D02*
X74321247Y-146423095D01*
X128439104Y-146446905D02*
X128439104Y-146923095D01*
X128724819Y-146351667D02*
X127724819Y-146685000D01*
X127724819Y-146685000D02*
X128724819Y-147018333D01*
X125232438Y-146983220D02*
X125184819Y-146887982D01*
X125184819Y-146887982D02*
X125184819Y-146745125D01*
X125184819Y-146745125D02*
X125232438Y-146602268D01*
X125232438Y-146602268D02*
X125327676Y-146507030D01*
X125327676Y-146507030D02*
X125422914Y-146459411D01*
X125422914Y-146459411D02*
X125613390Y-146411792D01*
X125613390Y-146411792D02*
X125756247Y-146411792D01*
X125756247Y-146411792D02*
X125946723Y-146459411D01*
X125946723Y-146459411D02*
X126041961Y-146507030D01*
X126041961Y-146507030D02*
X126137200Y-146602268D01*
X126137200Y-146602268D02*
X126184819Y-146745125D01*
X126184819Y-146745125D02*
X126184819Y-146840363D01*
X126184819Y-146840363D02*
X126137200Y-146983220D01*
X126137200Y-146983220D02*
X126089580Y-147030839D01*
X126089580Y-147030839D02*
X125756247Y-147030839D01*
X125756247Y-147030839D02*
X125756247Y-146840363D01*
X119659580Y-104299999D02*
X119707200Y-104252380D01*
X119707200Y-104252380D02*
X119754819Y-104109523D01*
X119754819Y-104109523D02*
X119754819Y-104014285D01*
X119754819Y-104014285D02*
X119707200Y-103871428D01*
X119707200Y-103871428D02*
X119611961Y-103776190D01*
X119611961Y-103776190D02*
X119516723Y-103728571D01*
X119516723Y-103728571D02*
X119326247Y-103680952D01*
X119326247Y-103680952D02*
X119183390Y-103680952D01*
X119183390Y-103680952D02*
X118992914Y-103728571D01*
X118992914Y-103728571D02*
X118897676Y-103776190D01*
X118897676Y-103776190D02*
X118802438Y-103871428D01*
X118802438Y-103871428D02*
X118754819Y-104014285D01*
X118754819Y-104014285D02*
X118754819Y-104109523D01*
X118754819Y-104109523D02*
X118802438Y-104252380D01*
X118802438Y-104252380D02*
X118850057Y-104299999D01*
X119469104Y-104680952D02*
X119469104Y-105157142D01*
X119754819Y-104585714D02*
X118754819Y-104919047D01*
X118754819Y-104919047D02*
X119754819Y-105252380D01*
X118754819Y-105442857D02*
X118754819Y-106014285D01*
X119754819Y-105728571D02*
X118754819Y-105728571D01*
X119754819Y-106347619D02*
X118754819Y-106347619D01*
X119231009Y-106347619D02*
X119231009Y-106919047D01*
X119754819Y-106919047D02*
X118754819Y-106919047D01*
X118754819Y-107585714D02*
X118754819Y-107776190D01*
X118754819Y-107776190D02*
X118802438Y-107871428D01*
X118802438Y-107871428D02*
X118897676Y-107966666D01*
X118897676Y-107966666D02*
X119088152Y-108014285D01*
X119088152Y-108014285D02*
X119421485Y-108014285D01*
X119421485Y-108014285D02*
X119611961Y-107966666D01*
X119611961Y-107966666D02*
X119707200Y-107871428D01*
X119707200Y-107871428D02*
X119754819Y-107776190D01*
X119754819Y-107776190D02*
X119754819Y-107585714D01*
X119754819Y-107585714D02*
X119707200Y-107490476D01*
X119707200Y-107490476D02*
X119611961Y-107395238D01*
X119611961Y-107395238D02*
X119421485Y-107347619D01*
X119421485Y-107347619D02*
X119088152Y-107347619D01*
X119088152Y-107347619D02*
X118897676Y-107395238D01*
X118897676Y-107395238D02*
X118802438Y-107490476D01*
X118802438Y-107490476D02*
X118754819Y-107585714D01*
X119754819Y-108442857D02*
X118754819Y-108442857D01*
X118754819Y-108442857D02*
X118754819Y-108680952D01*
X118754819Y-108680952D02*
X118802438Y-108823809D01*
X118802438Y-108823809D02*
X118897676Y-108919047D01*
X118897676Y-108919047D02*
X118992914Y-108966666D01*
X118992914Y-108966666D02*
X119183390Y-109014285D01*
X119183390Y-109014285D02*
X119326247Y-109014285D01*
X119326247Y-109014285D02*
X119516723Y-108966666D01*
X119516723Y-108966666D02*
X119611961Y-108919047D01*
X119611961Y-108919047D02*
X119707200Y-108823809D01*
X119707200Y-108823809D02*
X119754819Y-108680952D01*
X119754819Y-108680952D02*
X119754819Y-108442857D01*
X119231009Y-109442857D02*
X119231009Y-109776190D01*
X119754819Y-109919047D02*
X119754819Y-109442857D01*
X119754819Y-109442857D02*
X118754819Y-109442857D01*
X118754819Y-109442857D02*
X118754819Y-109919047D01*
X131899819Y-146423095D02*
X130899819Y-146423095D01*
X131899819Y-146994523D02*
X131328390Y-146565952D01*
X130899819Y-146994523D02*
X131471247Y-146423095D01*
D11*
X142777744Y-74272290D02*
X142505601Y-74363004D01*
X142505601Y-74363004D02*
X142414887Y-74453718D01*
X142414887Y-74453718D02*
X142324173Y-74635147D01*
X142324173Y-74635147D02*
X142324173Y-74907290D01*
X142324173Y-74907290D02*
X142414887Y-75088718D01*
X142414887Y-75088718D02*
X142505601Y-75179433D01*
X142505601Y-75179433D02*
X142687030Y-75270147D01*
X142687030Y-75270147D02*
X143412744Y-75270147D01*
X143412744Y-75270147D02*
X143412744Y-73365147D01*
X143412744Y-73365147D02*
X142777744Y-73365147D01*
X142777744Y-73365147D02*
X142596316Y-73455861D01*
X142596316Y-73455861D02*
X142505601Y-73546575D01*
X142505601Y-73546575D02*
X142414887Y-73728004D01*
X142414887Y-73728004D02*
X142414887Y-73909433D01*
X142414887Y-73909433D02*
X142505601Y-74090861D01*
X142505601Y-74090861D02*
X142596316Y-74181575D01*
X142596316Y-74181575D02*
X142777744Y-74272290D01*
X142777744Y-74272290D02*
X143412744Y-74272290D01*
X141235601Y-75270147D02*
X141417030Y-75179433D01*
X141417030Y-75179433D02*
X141507744Y-75088718D01*
X141507744Y-75088718D02*
X141598458Y-74907290D01*
X141598458Y-74907290D02*
X141598458Y-74363004D01*
X141598458Y-74363004D02*
X141507744Y-74181575D01*
X141507744Y-74181575D02*
X141417030Y-74090861D01*
X141417030Y-74090861D02*
X141235601Y-74000147D01*
X141235601Y-74000147D02*
X140963458Y-74000147D01*
X140963458Y-74000147D02*
X140782030Y-74090861D01*
X140782030Y-74090861D02*
X140691316Y-74181575D01*
X140691316Y-74181575D02*
X140600601Y-74363004D01*
X140600601Y-74363004D02*
X140600601Y-74907290D01*
X140600601Y-74907290D02*
X140691316Y-75088718D01*
X140691316Y-75088718D02*
X140782030Y-75179433D01*
X140782030Y-75179433D02*
X140963458Y-75270147D01*
X140963458Y-75270147D02*
X141235601Y-75270147D01*
X139874887Y-75179433D02*
X139693459Y-75270147D01*
X139693459Y-75270147D02*
X139330602Y-75270147D01*
X139330602Y-75270147D02*
X139149173Y-75179433D01*
X139149173Y-75179433D02*
X139058459Y-74998004D01*
X139058459Y-74998004D02*
X139058459Y-74907290D01*
X139058459Y-74907290D02*
X139149173Y-74725861D01*
X139149173Y-74725861D02*
X139330602Y-74635147D01*
X139330602Y-74635147D02*
X139602745Y-74635147D01*
X139602745Y-74635147D02*
X139784173Y-74544433D01*
X139784173Y-74544433D02*
X139874887Y-74363004D01*
X139874887Y-74363004D02*
X139874887Y-74272290D01*
X139874887Y-74272290D02*
X139784173Y-74090861D01*
X139784173Y-74090861D02*
X139602745Y-74000147D01*
X139602745Y-74000147D02*
X139330602Y-74000147D01*
X139330602Y-74000147D02*
X139149173Y-74090861D01*
X138514173Y-74000147D02*
X137788459Y-74000147D01*
X138242030Y-73365147D02*
X138242030Y-74998004D01*
X138242030Y-74998004D02*
X138151316Y-75179433D01*
X138151316Y-75179433D02*
X137969887Y-75270147D01*
X137969887Y-75270147D02*
X137788459Y-75270147D01*
X136881316Y-75270147D02*
X137062745Y-75179433D01*
X137062745Y-75179433D02*
X137153459Y-75088718D01*
X137153459Y-75088718D02*
X137244173Y-74907290D01*
X137244173Y-74907290D02*
X137244173Y-74363004D01*
X137244173Y-74363004D02*
X137153459Y-74181575D01*
X137153459Y-74181575D02*
X137062745Y-74090861D01*
X137062745Y-74090861D02*
X136881316Y-74000147D01*
X136881316Y-74000147D02*
X136609173Y-74000147D01*
X136609173Y-74000147D02*
X136427745Y-74090861D01*
X136427745Y-74090861D02*
X136337031Y-74181575D01*
X136337031Y-74181575D02*
X136246316Y-74363004D01*
X136246316Y-74363004D02*
X136246316Y-74907290D01*
X136246316Y-74907290D02*
X136337031Y-75088718D01*
X136337031Y-75088718D02*
X136427745Y-75179433D01*
X136427745Y-75179433D02*
X136609173Y-75270147D01*
X136609173Y-75270147D02*
X136881316Y-75270147D01*
X135429888Y-74000147D02*
X135429888Y-75270147D01*
X135429888Y-74181575D02*
X135339174Y-74090861D01*
X135339174Y-74090861D02*
X135157745Y-74000147D01*
X135157745Y-74000147D02*
X134885602Y-74000147D01*
X134885602Y-74000147D02*
X134704174Y-74090861D01*
X134704174Y-74090861D02*
X134613460Y-74272290D01*
X134613460Y-74272290D02*
X134613460Y-75270147D01*
X132254888Y-73365147D02*
X132254888Y-74907290D01*
X132254888Y-74907290D02*
X132164174Y-75088718D01*
X132164174Y-75088718D02*
X132073460Y-75179433D01*
X132073460Y-75179433D02*
X131892031Y-75270147D01*
X131892031Y-75270147D02*
X131529174Y-75270147D01*
X131529174Y-75270147D02*
X131347745Y-75179433D01*
X131347745Y-75179433D02*
X131257031Y-75088718D01*
X131257031Y-75088718D02*
X131166317Y-74907290D01*
X131166317Y-74907290D02*
X131166317Y-73365147D01*
X130259174Y-74000147D02*
X130259174Y-75270147D01*
X130259174Y-74181575D02*
X130168460Y-74090861D01*
X130168460Y-74090861D02*
X129987031Y-74000147D01*
X129987031Y-74000147D02*
X129714888Y-74000147D01*
X129714888Y-74000147D02*
X129533460Y-74090861D01*
X129533460Y-74090861D02*
X129442746Y-74272290D01*
X129442746Y-74272290D02*
X129442746Y-75270147D01*
X128535603Y-75270147D02*
X128535603Y-74000147D01*
X128535603Y-73365147D02*
X128626317Y-73455861D01*
X128626317Y-73455861D02*
X128535603Y-73546575D01*
X128535603Y-73546575D02*
X128444889Y-73455861D01*
X128444889Y-73455861D02*
X128535603Y-73365147D01*
X128535603Y-73365147D02*
X128535603Y-73546575D01*
X127809889Y-74000147D02*
X127356317Y-75270147D01*
X127356317Y-75270147D02*
X126902746Y-74000147D01*
X125451317Y-75179433D02*
X125632745Y-75270147D01*
X125632745Y-75270147D02*
X125995603Y-75270147D01*
X125995603Y-75270147D02*
X126177031Y-75179433D01*
X126177031Y-75179433D02*
X126267745Y-74998004D01*
X126267745Y-74998004D02*
X126267745Y-74272290D01*
X126267745Y-74272290D02*
X126177031Y-74090861D01*
X126177031Y-74090861D02*
X125995603Y-74000147D01*
X125995603Y-74000147D02*
X125632745Y-74000147D01*
X125632745Y-74000147D02*
X125451317Y-74090861D01*
X125451317Y-74090861D02*
X125360603Y-74272290D01*
X125360603Y-74272290D02*
X125360603Y-74453718D01*
X125360603Y-74453718D02*
X126267745Y-74635147D01*
X124544174Y-75270147D02*
X124544174Y-74000147D01*
X124544174Y-74363004D02*
X124453460Y-74181575D01*
X124453460Y-74181575D02*
X124362746Y-74090861D01*
X124362746Y-74090861D02*
X124181317Y-74000147D01*
X124181317Y-74000147D02*
X123999888Y-74000147D01*
X123455602Y-75179433D02*
X123274174Y-75270147D01*
X123274174Y-75270147D02*
X122911317Y-75270147D01*
X122911317Y-75270147D02*
X122729888Y-75179433D01*
X122729888Y-75179433D02*
X122639174Y-74998004D01*
X122639174Y-74998004D02*
X122639174Y-74907290D01*
X122639174Y-74907290D02*
X122729888Y-74725861D01*
X122729888Y-74725861D02*
X122911317Y-74635147D01*
X122911317Y-74635147D02*
X123183460Y-74635147D01*
X123183460Y-74635147D02*
X123364888Y-74544433D01*
X123364888Y-74544433D02*
X123455602Y-74363004D01*
X123455602Y-74363004D02*
X123455602Y-74272290D01*
X123455602Y-74272290D02*
X123364888Y-74090861D01*
X123364888Y-74090861D02*
X123183460Y-74000147D01*
X123183460Y-74000147D02*
X122911317Y-74000147D01*
X122911317Y-74000147D02*
X122729888Y-74090861D01*
X121822745Y-75270147D02*
X121822745Y-74000147D01*
X121822745Y-73365147D02*
X121913459Y-73455861D01*
X121913459Y-73455861D02*
X121822745Y-73546575D01*
X121822745Y-73546575D02*
X121732031Y-73455861D01*
X121732031Y-73455861D02*
X121822745Y-73365147D01*
X121822745Y-73365147D02*
X121822745Y-73546575D01*
X121187745Y-74000147D02*
X120462031Y-74000147D01*
X120915602Y-73365147D02*
X120915602Y-74998004D01*
X120915602Y-74998004D02*
X120824888Y-75179433D01*
X120824888Y-75179433D02*
X120643459Y-75270147D01*
X120643459Y-75270147D02*
X120462031Y-75270147D01*
X120008460Y-74000147D02*
X119554888Y-75270147D01*
X119101317Y-74000147D02*
X119554888Y-75270147D01*
X119554888Y-75270147D02*
X119736317Y-75723718D01*
X119736317Y-75723718D02*
X119827031Y-75814433D01*
X119827031Y-75814433D02*
X120008460Y-75905147D01*
X116924173Y-74272290D02*
X116289173Y-74272290D01*
X116017030Y-75270147D02*
X116924173Y-75270147D01*
X116924173Y-75270147D02*
X116924173Y-73365147D01*
X116924173Y-73365147D02*
X116017030Y-73365147D01*
X115200602Y-75270147D02*
X115200602Y-73365147D01*
X115200602Y-73365147D02*
X114747031Y-73365147D01*
X114747031Y-73365147D02*
X114474888Y-73455861D01*
X114474888Y-73455861D02*
X114293459Y-73637290D01*
X114293459Y-73637290D02*
X114202745Y-73818718D01*
X114202745Y-73818718D02*
X114112031Y-74181575D01*
X114112031Y-74181575D02*
X114112031Y-74453718D01*
X114112031Y-74453718D02*
X114202745Y-74816575D01*
X114202745Y-74816575D02*
X114293459Y-74998004D01*
X114293459Y-74998004D02*
X114474888Y-75179433D01*
X114474888Y-75179433D02*
X114747031Y-75270147D01*
X114747031Y-75270147D02*
X115200602Y-75270147D01*
X112660602Y-74272290D02*
X113295602Y-74272290D01*
X113295602Y-75270147D02*
X113295602Y-73365147D01*
X113295602Y-73365147D02*
X112388459Y-73365147D01*
X143412744Y-78337197D02*
X143412744Y-76432197D01*
X143412744Y-76432197D02*
X142959173Y-76432197D01*
X142959173Y-76432197D02*
X142687030Y-76522911D01*
X142687030Y-76522911D02*
X142505601Y-76704340D01*
X142505601Y-76704340D02*
X142414887Y-76885768D01*
X142414887Y-76885768D02*
X142324173Y-77248625D01*
X142324173Y-77248625D02*
X142324173Y-77520768D01*
X142324173Y-77520768D02*
X142414887Y-77883625D01*
X142414887Y-77883625D02*
X142505601Y-78065054D01*
X142505601Y-78065054D02*
X142687030Y-78246483D01*
X142687030Y-78246483D02*
X142959173Y-78337197D01*
X142959173Y-78337197D02*
X143412744Y-78337197D01*
X140691316Y-78337197D02*
X140691316Y-77339340D01*
X140691316Y-77339340D02*
X140782030Y-77157911D01*
X140782030Y-77157911D02*
X140963458Y-77067197D01*
X140963458Y-77067197D02*
X141326316Y-77067197D01*
X141326316Y-77067197D02*
X141507744Y-77157911D01*
X140691316Y-78246483D02*
X140872744Y-78337197D01*
X140872744Y-78337197D02*
X141326316Y-78337197D01*
X141326316Y-78337197D02*
X141507744Y-78246483D01*
X141507744Y-78246483D02*
X141598458Y-78065054D01*
X141598458Y-78065054D02*
X141598458Y-77883625D01*
X141598458Y-77883625D02*
X141507744Y-77702197D01*
X141507744Y-77702197D02*
X141326316Y-77611483D01*
X141326316Y-77611483D02*
X140872744Y-77611483D01*
X140872744Y-77611483D02*
X140691316Y-77520768D01*
X139784173Y-78337197D02*
X139784173Y-77067197D01*
X139784173Y-77430054D02*
X139693459Y-77248625D01*
X139693459Y-77248625D02*
X139602745Y-77157911D01*
X139602745Y-77157911D02*
X139421316Y-77067197D01*
X139421316Y-77067197D02*
X139239887Y-77067197D01*
X138604887Y-78337197D02*
X138604887Y-76432197D01*
X138423459Y-77611483D02*
X137879173Y-78337197D01*
X137879173Y-77067197D02*
X138604887Y-77792911D01*
X135792744Y-78518625D02*
X135974173Y-78427911D01*
X135974173Y-78427911D02*
X136155601Y-78246483D01*
X136155601Y-78246483D02*
X136427744Y-77974340D01*
X136427744Y-77974340D02*
X136609173Y-77883625D01*
X136609173Y-77883625D02*
X136790601Y-77883625D01*
X136699887Y-78337197D02*
X136881316Y-78246483D01*
X136881316Y-78246483D02*
X137062744Y-78065054D01*
X137062744Y-78065054D02*
X137153458Y-77702197D01*
X137153458Y-77702197D02*
X137153458Y-77067197D01*
X137153458Y-77067197D02*
X137062744Y-76704340D01*
X137062744Y-76704340D02*
X136881316Y-76522911D01*
X136881316Y-76522911D02*
X136699887Y-76432197D01*
X136699887Y-76432197D02*
X136337030Y-76432197D01*
X136337030Y-76432197D02*
X136155601Y-76522911D01*
X136155601Y-76522911D02*
X135974173Y-76704340D01*
X135974173Y-76704340D02*
X135883458Y-77067197D01*
X135883458Y-77067197D02*
X135883458Y-77702197D01*
X135883458Y-77702197D02*
X135974173Y-78065054D01*
X135974173Y-78065054D02*
X136155601Y-78246483D01*
X136155601Y-78246483D02*
X136337030Y-78337197D01*
X136337030Y-78337197D02*
X136699887Y-78337197D01*
X134250602Y-77067197D02*
X134250602Y-78337197D01*
X135067030Y-77067197D02*
X135067030Y-78065054D01*
X135067030Y-78065054D02*
X134976316Y-78246483D01*
X134976316Y-78246483D02*
X134794887Y-78337197D01*
X134794887Y-78337197D02*
X134522744Y-78337197D01*
X134522744Y-78337197D02*
X134341316Y-78246483D01*
X134341316Y-78246483D02*
X134250602Y-78155768D01*
X132617745Y-78246483D02*
X132799173Y-78337197D01*
X132799173Y-78337197D02*
X133162031Y-78337197D01*
X133162031Y-78337197D02*
X133343459Y-78246483D01*
X133343459Y-78246483D02*
X133434173Y-78065054D01*
X133434173Y-78065054D02*
X133434173Y-77339340D01*
X133434173Y-77339340D02*
X133343459Y-77157911D01*
X133343459Y-77157911D02*
X133162031Y-77067197D01*
X133162031Y-77067197D02*
X132799173Y-77067197D01*
X132799173Y-77067197D02*
X132617745Y-77157911D01*
X132617745Y-77157911D02*
X132527031Y-77339340D01*
X132527031Y-77339340D02*
X132527031Y-77520768D01*
X132527031Y-77520768D02*
X133434173Y-77702197D01*
X131801316Y-78246483D02*
X131619888Y-78337197D01*
X131619888Y-78337197D02*
X131257031Y-78337197D01*
X131257031Y-78337197D02*
X131075602Y-78246483D01*
X131075602Y-78246483D02*
X130984888Y-78065054D01*
X130984888Y-78065054D02*
X130984888Y-77974340D01*
X130984888Y-77974340D02*
X131075602Y-77792911D01*
X131075602Y-77792911D02*
X131257031Y-77702197D01*
X131257031Y-77702197D02*
X131529174Y-77702197D01*
X131529174Y-77702197D02*
X131710602Y-77611483D01*
X131710602Y-77611483D02*
X131801316Y-77430054D01*
X131801316Y-77430054D02*
X131801316Y-77339340D01*
X131801316Y-77339340D02*
X131710602Y-77157911D01*
X131710602Y-77157911D02*
X131529174Y-77067197D01*
X131529174Y-77067197D02*
X131257031Y-77067197D01*
X131257031Y-77067197D02*
X131075602Y-77157911D01*
X130440602Y-77067197D02*
X129714888Y-77067197D01*
X130168459Y-76432197D02*
X130168459Y-78065054D01*
X130168459Y-78065054D02*
X130077745Y-78246483D01*
X130077745Y-78246483D02*
X129896316Y-78337197D01*
X129896316Y-78337197D02*
X129714888Y-78337197D01*
X127628459Y-77339340D02*
X126993459Y-77339340D01*
X126721316Y-78337197D02*
X127628459Y-78337197D01*
X127628459Y-78337197D02*
X127628459Y-76432197D01*
X127628459Y-76432197D02*
X126721316Y-76432197D01*
X125904888Y-78337197D02*
X125904888Y-76432197D01*
X125904888Y-76432197D02*
X125269888Y-77792911D01*
X125269888Y-77792911D02*
X124634888Y-76432197D01*
X124634888Y-76432197D02*
X124634888Y-78337197D01*
X122639174Y-78155768D02*
X122729888Y-78246483D01*
X122729888Y-78246483D02*
X123002031Y-78337197D01*
X123002031Y-78337197D02*
X123183459Y-78337197D01*
X123183459Y-78337197D02*
X123455602Y-78246483D01*
X123455602Y-78246483D02*
X123637031Y-78065054D01*
X123637031Y-78065054D02*
X123727745Y-77883625D01*
X123727745Y-77883625D02*
X123818459Y-77520768D01*
X123818459Y-77520768D02*
X123818459Y-77248625D01*
X123818459Y-77248625D02*
X123727745Y-76885768D01*
X123727745Y-76885768D02*
X123637031Y-76704340D01*
X123637031Y-76704340D02*
X123455602Y-76522911D01*
X123455602Y-76522911D02*
X123183459Y-76432197D01*
X123183459Y-76432197D02*
X123002031Y-76432197D01*
X123002031Y-76432197D02*
X122729888Y-76522911D01*
X122729888Y-76522911D02*
X122639174Y-76613625D01*
X121913459Y-77792911D02*
X121006317Y-77792911D01*
X122094888Y-78337197D02*
X121459888Y-76432197D01*
X121459888Y-76432197D02*
X120824888Y-78337197D01*
X119282745Y-78337197D02*
X120189888Y-78337197D01*
X120189888Y-78337197D02*
X120189888Y-76432197D01*
X115926316Y-78518625D02*
X116107745Y-78427911D01*
X116107745Y-78427911D02*
X116289173Y-78246483D01*
X116289173Y-78246483D02*
X116561316Y-77974340D01*
X116561316Y-77974340D02*
X116742745Y-77883625D01*
X116742745Y-77883625D02*
X116924173Y-77883625D01*
X116833459Y-78337197D02*
X117014888Y-78246483D01*
X117014888Y-78246483D02*
X117196316Y-78065054D01*
X117196316Y-78065054D02*
X117287030Y-77702197D01*
X117287030Y-77702197D02*
X117287030Y-77067197D01*
X117287030Y-77067197D02*
X117196316Y-76704340D01*
X117196316Y-76704340D02*
X117014888Y-76522911D01*
X117014888Y-76522911D02*
X116833459Y-76432197D01*
X116833459Y-76432197D02*
X116470602Y-76432197D01*
X116470602Y-76432197D02*
X116289173Y-76522911D01*
X116289173Y-76522911D02*
X116107745Y-76704340D01*
X116107745Y-76704340D02*
X116017030Y-77067197D01*
X116017030Y-77067197D02*
X116017030Y-77702197D01*
X116017030Y-77702197D02*
X116107745Y-78065054D01*
X116107745Y-78065054D02*
X116289173Y-78246483D01*
X116289173Y-78246483D02*
X116470602Y-78337197D01*
X116470602Y-78337197D02*
X116833459Y-78337197D01*
X114384174Y-77067197D02*
X114384174Y-78337197D01*
X115200602Y-77067197D02*
X115200602Y-78065054D01*
X115200602Y-78065054D02*
X115109888Y-78246483D01*
X115109888Y-78246483D02*
X114928459Y-78337197D01*
X114928459Y-78337197D02*
X114656316Y-78337197D01*
X114656316Y-78337197D02*
X114474888Y-78246483D01*
X114474888Y-78246483D02*
X114384174Y-78155768D01*
X112660603Y-78337197D02*
X112660603Y-77339340D01*
X112660603Y-77339340D02*
X112751317Y-77157911D01*
X112751317Y-77157911D02*
X112932745Y-77067197D01*
X112932745Y-77067197D02*
X113295603Y-77067197D01*
X113295603Y-77067197D02*
X113477031Y-77157911D01*
X112660603Y-78246483D02*
X112842031Y-78337197D01*
X112842031Y-78337197D02*
X113295603Y-78337197D01*
X113295603Y-78337197D02*
X113477031Y-78246483D01*
X113477031Y-78246483D02*
X113567745Y-78065054D01*
X113567745Y-78065054D02*
X113567745Y-77883625D01*
X113567745Y-77883625D02*
X113477031Y-77702197D01*
X113477031Y-77702197D02*
X113295603Y-77611483D01*
X113295603Y-77611483D02*
X112842031Y-77611483D01*
X112842031Y-77611483D02*
X112660603Y-77520768D01*
X110937032Y-78337197D02*
X110937032Y-76432197D01*
X110937032Y-78246483D02*
X111118460Y-78337197D01*
X111118460Y-78337197D02*
X111481317Y-78337197D01*
X111481317Y-78337197D02*
X111662746Y-78246483D01*
X111662746Y-78246483D02*
X111753460Y-78155768D01*
X111753460Y-78155768D02*
X111844174Y-77974340D01*
X111844174Y-77974340D02*
X111844174Y-77430054D01*
X111844174Y-77430054D02*
X111753460Y-77248625D01*
X111753460Y-77248625D02*
X111662746Y-77157911D01*
X111662746Y-77157911D02*
X111481317Y-77067197D01*
X111481317Y-77067197D02*
X111118460Y-77067197D01*
X111118460Y-77067197D02*
X110937032Y-77157911D01*
X108669174Y-78246483D02*
X108397032Y-78337197D01*
X108397032Y-78337197D02*
X107943460Y-78337197D01*
X107943460Y-78337197D02*
X107762032Y-78246483D01*
X107762032Y-78246483D02*
X107671317Y-78155768D01*
X107671317Y-78155768D02*
X107580603Y-77974340D01*
X107580603Y-77974340D02*
X107580603Y-77792911D01*
X107580603Y-77792911D02*
X107671317Y-77611483D01*
X107671317Y-77611483D02*
X107762032Y-77520768D01*
X107762032Y-77520768D02*
X107943460Y-77430054D01*
X107943460Y-77430054D02*
X108306317Y-77339340D01*
X108306317Y-77339340D02*
X108487746Y-77248625D01*
X108487746Y-77248625D02*
X108578460Y-77157911D01*
X108578460Y-77157911D02*
X108669174Y-76976483D01*
X108669174Y-76976483D02*
X108669174Y-76795054D01*
X108669174Y-76795054D02*
X108578460Y-76613625D01*
X108578460Y-76613625D02*
X108487746Y-76522911D01*
X108487746Y-76522911D02*
X108306317Y-76432197D01*
X108306317Y-76432197D02*
X107852746Y-76432197D01*
X107852746Y-76432197D02*
X107580603Y-76522911D01*
X106764174Y-78337197D02*
X106764174Y-77067197D01*
X106764174Y-76432197D02*
X106854888Y-76522911D01*
X106854888Y-76522911D02*
X106764174Y-76613625D01*
X106764174Y-76613625D02*
X106673460Y-76522911D01*
X106673460Y-76522911D02*
X106764174Y-76432197D01*
X106764174Y-76432197D02*
X106764174Y-76613625D01*
X105857031Y-78337197D02*
X105857031Y-76432197D01*
X105857031Y-76432197D02*
X105131317Y-76432197D01*
X105131317Y-76432197D02*
X104949888Y-76522911D01*
X104949888Y-76522911D02*
X104859174Y-76613625D01*
X104859174Y-76613625D02*
X104768460Y-76795054D01*
X104768460Y-76795054D02*
X104768460Y-77067197D01*
X104768460Y-77067197D02*
X104859174Y-77248625D01*
X104859174Y-77248625D02*
X104949888Y-77339340D01*
X104949888Y-77339340D02*
X105131317Y-77430054D01*
X105131317Y-77430054D02*
X105857031Y-77430054D01*
X103952031Y-78337197D02*
X103952031Y-76432197D01*
X103952031Y-76432197D02*
X103317031Y-77792911D01*
X103317031Y-77792911D02*
X102682031Y-76432197D01*
X102682031Y-76432197D02*
X102682031Y-78337197D01*
X143503458Y-79680675D02*
X143412744Y-79589961D01*
X143412744Y-79589961D02*
X143231316Y-79499247D01*
X143231316Y-79499247D02*
X142777744Y-79499247D01*
X142777744Y-79499247D02*
X142596316Y-79589961D01*
X142596316Y-79589961D02*
X142505601Y-79680675D01*
X142505601Y-79680675D02*
X142414887Y-79862104D01*
X142414887Y-79862104D02*
X142414887Y-80043533D01*
X142414887Y-80043533D02*
X142505601Y-80315675D01*
X142505601Y-80315675D02*
X143594173Y-81404247D01*
X143594173Y-81404247D02*
X142414887Y-81404247D01*
X141235601Y-79499247D02*
X141054172Y-79499247D01*
X141054172Y-79499247D02*
X140872744Y-79589961D01*
X140872744Y-79589961D02*
X140782030Y-79680675D01*
X140782030Y-79680675D02*
X140691315Y-79862104D01*
X140691315Y-79862104D02*
X140600601Y-80224961D01*
X140600601Y-80224961D02*
X140600601Y-80678533D01*
X140600601Y-80678533D02*
X140691315Y-81041390D01*
X140691315Y-81041390D02*
X140782030Y-81222818D01*
X140782030Y-81222818D02*
X140872744Y-81313533D01*
X140872744Y-81313533D02*
X141054172Y-81404247D01*
X141054172Y-81404247D02*
X141235601Y-81404247D01*
X141235601Y-81404247D02*
X141417030Y-81313533D01*
X141417030Y-81313533D02*
X141507744Y-81222818D01*
X141507744Y-81222818D02*
X141598458Y-81041390D01*
X141598458Y-81041390D02*
X141689172Y-80678533D01*
X141689172Y-80678533D02*
X141689172Y-80224961D01*
X141689172Y-80224961D02*
X141598458Y-79862104D01*
X141598458Y-79862104D02*
X141507744Y-79680675D01*
X141507744Y-79680675D02*
X141417030Y-79589961D01*
X141417030Y-79589961D02*
X141235601Y-79499247D01*
X139874886Y-79680675D02*
X139784172Y-79589961D01*
X139784172Y-79589961D02*
X139602744Y-79499247D01*
X139602744Y-79499247D02*
X139149172Y-79499247D01*
X139149172Y-79499247D02*
X138967744Y-79589961D01*
X138967744Y-79589961D02*
X138877029Y-79680675D01*
X138877029Y-79680675D02*
X138786315Y-79862104D01*
X138786315Y-79862104D02*
X138786315Y-80043533D01*
X138786315Y-80043533D02*
X138877029Y-80315675D01*
X138877029Y-80315675D02*
X139965601Y-81404247D01*
X139965601Y-81404247D02*
X138786315Y-81404247D01*
X138151315Y-79499247D02*
X136972029Y-79499247D01*
X136972029Y-79499247D02*
X137607029Y-80224961D01*
X137607029Y-80224961D02*
X137334886Y-80224961D01*
X137334886Y-80224961D02*
X137153458Y-80315675D01*
X137153458Y-80315675D02*
X137062743Y-80406390D01*
X137062743Y-80406390D02*
X136972029Y-80587818D01*
X136972029Y-80587818D02*
X136972029Y-81041390D01*
X136972029Y-81041390D02*
X137062743Y-81222818D01*
X137062743Y-81222818D02*
X137153458Y-81313533D01*
X137153458Y-81313533D02*
X137334886Y-81404247D01*
X137334886Y-81404247D02*
X137879172Y-81404247D01*
X137879172Y-81404247D02*
X138060600Y-81313533D01*
X138060600Y-81313533D02*
X138151315Y-81222818D01*
X136155600Y-80678533D02*
X134704172Y-80678533D01*
X133434172Y-79499247D02*
X133252743Y-79499247D01*
X133252743Y-79499247D02*
X133071315Y-79589961D01*
X133071315Y-79589961D02*
X132980601Y-79680675D01*
X132980601Y-79680675D02*
X132889886Y-79862104D01*
X132889886Y-79862104D02*
X132799172Y-80224961D01*
X132799172Y-80224961D02*
X132799172Y-80678533D01*
X132799172Y-80678533D02*
X132889886Y-81041390D01*
X132889886Y-81041390D02*
X132980601Y-81222818D01*
X132980601Y-81222818D02*
X133071315Y-81313533D01*
X133071315Y-81313533D02*
X133252743Y-81404247D01*
X133252743Y-81404247D02*
X133434172Y-81404247D01*
X133434172Y-81404247D02*
X133615601Y-81313533D01*
X133615601Y-81313533D02*
X133706315Y-81222818D01*
X133706315Y-81222818D02*
X133797029Y-81041390D01*
X133797029Y-81041390D02*
X133887743Y-80678533D01*
X133887743Y-80678533D02*
X133887743Y-80224961D01*
X133887743Y-80224961D02*
X133797029Y-79862104D01*
X133797029Y-79862104D02*
X133706315Y-79680675D01*
X133706315Y-79680675D02*
X133615601Y-79589961D01*
X133615601Y-79589961D02*
X133434172Y-79499247D01*
X131166315Y-79499247D02*
X131529172Y-79499247D01*
X131529172Y-79499247D02*
X131710600Y-79589961D01*
X131710600Y-79589961D02*
X131801315Y-79680675D01*
X131801315Y-79680675D02*
X131982743Y-79952818D01*
X131982743Y-79952818D02*
X132073457Y-80315675D01*
X132073457Y-80315675D02*
X132073457Y-81041390D01*
X132073457Y-81041390D02*
X131982743Y-81222818D01*
X131982743Y-81222818D02*
X131892029Y-81313533D01*
X131892029Y-81313533D02*
X131710600Y-81404247D01*
X131710600Y-81404247D02*
X131347743Y-81404247D01*
X131347743Y-81404247D02*
X131166315Y-81313533D01*
X131166315Y-81313533D02*
X131075600Y-81222818D01*
X131075600Y-81222818D02*
X130984886Y-81041390D01*
X130984886Y-81041390D02*
X130984886Y-80587818D01*
X130984886Y-80587818D02*
X131075600Y-80406390D01*
X131075600Y-80406390D02*
X131166315Y-80315675D01*
X131166315Y-80315675D02*
X131347743Y-80224961D01*
X131347743Y-80224961D02*
X131710600Y-80224961D01*
X131710600Y-80224961D02*
X131892029Y-80315675D01*
X131892029Y-80315675D02*
X131982743Y-80406390D01*
X131982743Y-80406390D02*
X132073457Y-80587818D01*
X126177028Y-81404247D02*
X126812028Y-80497104D01*
X127265599Y-81404247D02*
X127265599Y-79499247D01*
X127265599Y-79499247D02*
X126539885Y-79499247D01*
X126539885Y-79499247D02*
X126358456Y-79589961D01*
X126358456Y-79589961D02*
X126267742Y-79680675D01*
X126267742Y-79680675D02*
X126177028Y-79862104D01*
X126177028Y-79862104D02*
X126177028Y-80134247D01*
X126177028Y-80134247D02*
X126267742Y-80315675D01*
X126267742Y-80315675D02*
X126358456Y-80406390D01*
X126358456Y-80406390D02*
X126539885Y-80497104D01*
X126539885Y-80497104D02*
X127265599Y-80497104D01*
X124634885Y-81313533D02*
X124816313Y-81404247D01*
X124816313Y-81404247D02*
X125179171Y-81404247D01*
X125179171Y-81404247D02*
X125360599Y-81313533D01*
X125360599Y-81313533D02*
X125451313Y-81132104D01*
X125451313Y-81132104D02*
X125451313Y-80406390D01*
X125451313Y-80406390D02*
X125360599Y-80224961D01*
X125360599Y-80224961D02*
X125179171Y-80134247D01*
X125179171Y-80134247D02*
X124816313Y-80134247D01*
X124816313Y-80134247D02*
X124634885Y-80224961D01*
X124634885Y-80224961D02*
X124544171Y-80406390D01*
X124544171Y-80406390D02*
X124544171Y-80587818D01*
X124544171Y-80587818D02*
X125451313Y-80769247D01*
X123909171Y-80134247D02*
X123455599Y-81404247D01*
X123455599Y-81404247D02*
X123002028Y-80134247D01*
X121006313Y-79499247D02*
X119827027Y-79499247D01*
X119827027Y-79499247D02*
X120462027Y-80224961D01*
X120462027Y-80224961D02*
X120189884Y-80224961D01*
X120189884Y-80224961D02*
X120008456Y-80315675D01*
X120008456Y-80315675D02*
X119917741Y-80406390D01*
X119917741Y-80406390D02*
X119827027Y-80587818D01*
X119827027Y-80587818D02*
X119827027Y-81041390D01*
X119827027Y-81041390D02*
X119917741Y-81222818D01*
X119917741Y-81222818D02*
X120008456Y-81313533D01*
X120008456Y-81313533D02*
X120189884Y-81404247D01*
X120189884Y-81404247D02*
X120734170Y-81404247D01*
X120734170Y-81404247D02*
X120915598Y-81313533D01*
X120915598Y-81313533D02*
X121006313Y-81222818D01*
X119010598Y-81222818D02*
X118919884Y-81313533D01*
X118919884Y-81313533D02*
X119010598Y-81404247D01*
X119010598Y-81404247D02*
X119101312Y-81313533D01*
X119101312Y-81313533D02*
X119010598Y-81222818D01*
X119010598Y-81222818D02*
X119010598Y-81404247D01*
X117105598Y-81404247D02*
X118194169Y-81404247D01*
X117649884Y-81404247D02*
X117649884Y-79499247D01*
X117649884Y-79499247D02*
X117831312Y-79771390D01*
X117831312Y-79771390D02*
X118012741Y-79952818D01*
X118012741Y-79952818D02*
X118194169Y-80043533D01*
X142687030Y-84380583D02*
X142868458Y-84471297D01*
X142868458Y-84471297D02*
X143231316Y-84471297D01*
X143231316Y-84471297D02*
X143412744Y-84380583D01*
X143412744Y-84380583D02*
X143503458Y-84199154D01*
X143503458Y-84199154D02*
X143503458Y-83473440D01*
X143503458Y-83473440D02*
X143412744Y-83292011D01*
X143412744Y-83292011D02*
X143231316Y-83201297D01*
X143231316Y-83201297D02*
X142868458Y-83201297D01*
X142868458Y-83201297D02*
X142687030Y-83292011D01*
X142687030Y-83292011D02*
X142596316Y-83473440D01*
X142596316Y-83473440D02*
X142596316Y-83654868D01*
X142596316Y-83654868D02*
X143503458Y-83836297D01*
X140963459Y-84471297D02*
X140963459Y-82566297D01*
X140963459Y-84380583D02*
X141144887Y-84471297D01*
X141144887Y-84471297D02*
X141507744Y-84471297D01*
X141507744Y-84471297D02*
X141689173Y-84380583D01*
X141689173Y-84380583D02*
X141779887Y-84289868D01*
X141779887Y-84289868D02*
X141870601Y-84108440D01*
X141870601Y-84108440D02*
X141870601Y-83564154D01*
X141870601Y-83564154D02*
X141779887Y-83382725D01*
X141779887Y-83382725D02*
X141689173Y-83292011D01*
X141689173Y-83292011D02*
X141507744Y-83201297D01*
X141507744Y-83201297D02*
X141144887Y-83201297D01*
X141144887Y-83201297D02*
X140963459Y-83292011D01*
X140328459Y-83201297D02*
X139602745Y-83201297D01*
X140056316Y-84471297D02*
X140056316Y-82838440D01*
X140056316Y-82838440D02*
X139965602Y-82657011D01*
X139965602Y-82657011D02*
X139784173Y-82566297D01*
X139784173Y-82566297D02*
X139602745Y-82566297D01*
X138967745Y-84289868D02*
X138877031Y-84380583D01*
X138877031Y-84380583D02*
X138967745Y-84471297D01*
X138967745Y-84471297D02*
X139058459Y-84380583D01*
X139058459Y-84380583D02*
X138967745Y-84289868D01*
X138967745Y-84289868D02*
X138967745Y-84471297D01*
X138060602Y-84471297D02*
X138060602Y-82566297D01*
X138060602Y-83292011D02*
X137879174Y-83201297D01*
X137879174Y-83201297D02*
X137516316Y-83201297D01*
X137516316Y-83201297D02*
X137334888Y-83292011D01*
X137334888Y-83292011D02*
X137244174Y-83382725D01*
X137244174Y-83382725D02*
X137153459Y-83564154D01*
X137153459Y-83564154D02*
X137153459Y-84108440D01*
X137153459Y-84108440D02*
X137244174Y-84289868D01*
X137244174Y-84289868D02*
X137334888Y-84380583D01*
X137334888Y-84380583D02*
X137516316Y-84471297D01*
X137516316Y-84471297D02*
X137879174Y-84471297D01*
X137879174Y-84471297D02*
X138060602Y-84380583D01*
X135520603Y-83201297D02*
X135520603Y-84471297D01*
X136337031Y-83201297D02*
X136337031Y-84199154D01*
X136337031Y-84199154D02*
X136246317Y-84380583D01*
X136246317Y-84380583D02*
X136064888Y-84471297D01*
X136064888Y-84471297D02*
X135792745Y-84471297D01*
X135792745Y-84471297D02*
X135611317Y-84380583D01*
X135611317Y-84380583D02*
X135520603Y-84289868D01*
X134613460Y-84289868D02*
X134522746Y-84380583D01*
X134522746Y-84380583D02*
X134613460Y-84471297D01*
X134613460Y-84471297D02*
X134704174Y-84380583D01*
X134704174Y-84380583D02*
X134613460Y-84289868D01*
X134613460Y-84289868D02*
X134613460Y-84471297D01*
X132980603Y-84380583D02*
X133162031Y-84471297D01*
X133162031Y-84471297D02*
X133524889Y-84471297D01*
X133524889Y-84471297D02*
X133706317Y-84380583D01*
X133706317Y-84380583D02*
X133797031Y-84199154D01*
X133797031Y-84199154D02*
X133797031Y-83473440D01*
X133797031Y-83473440D02*
X133706317Y-83292011D01*
X133706317Y-83292011D02*
X133524889Y-83201297D01*
X133524889Y-83201297D02*
X133162031Y-83201297D01*
X133162031Y-83201297D02*
X132980603Y-83292011D01*
X132980603Y-83292011D02*
X132889889Y-83473440D01*
X132889889Y-83473440D02*
X132889889Y-83654868D01*
X132889889Y-83654868D02*
X133797031Y-83836297D01*
X131257032Y-84471297D02*
X131257032Y-82566297D01*
X131257032Y-84380583D02*
X131438460Y-84471297D01*
X131438460Y-84471297D02*
X131801317Y-84471297D01*
X131801317Y-84471297D02*
X131982746Y-84380583D01*
X131982746Y-84380583D02*
X132073460Y-84289868D01*
X132073460Y-84289868D02*
X132164174Y-84108440D01*
X132164174Y-84108440D02*
X132164174Y-83564154D01*
X132164174Y-83564154D02*
X132073460Y-83382725D01*
X132073460Y-83382725D02*
X131982746Y-83292011D01*
X131982746Y-83292011D02*
X131801317Y-83201297D01*
X131801317Y-83201297D02*
X131438460Y-83201297D01*
X131438460Y-83201297D02*
X131257032Y-83292011D01*
X129533461Y-83201297D02*
X129533461Y-84471297D01*
X130349889Y-83201297D02*
X130349889Y-84199154D01*
X130349889Y-84199154D02*
X130259175Y-84380583D01*
X130259175Y-84380583D02*
X130077746Y-84471297D01*
X130077746Y-84471297D02*
X129805603Y-84471297D01*
X129805603Y-84471297D02*
X129624175Y-84380583D01*
X129624175Y-84380583D02*
X129533461Y-84289868D01*
D10*
X113802438Y-106238095D02*
X113754819Y-106142857D01*
X113754819Y-106142857D02*
X113754819Y-106000000D01*
X113754819Y-106000000D02*
X113802438Y-105857143D01*
X113802438Y-105857143D02*
X113897676Y-105761905D01*
X113897676Y-105761905D02*
X113992914Y-105714286D01*
X113992914Y-105714286D02*
X114183390Y-105666667D01*
X114183390Y-105666667D02*
X114326247Y-105666667D01*
X114326247Y-105666667D02*
X114516723Y-105714286D01*
X114516723Y-105714286D02*
X114611961Y-105761905D01*
X114611961Y-105761905D02*
X114707200Y-105857143D01*
X114707200Y-105857143D02*
X114754819Y-106000000D01*
X114754819Y-106000000D02*
X114754819Y-106095238D01*
X114754819Y-106095238D02*
X114707200Y-106238095D01*
X114707200Y-106238095D02*
X114659580Y-106285714D01*
X114659580Y-106285714D02*
X114326247Y-106285714D01*
X114326247Y-106285714D02*
X114326247Y-106095238D01*
X114754819Y-106714286D02*
X113754819Y-106714286D01*
X113754819Y-106714286D02*
X114754819Y-107285714D01*
X114754819Y-107285714D02*
X113754819Y-107285714D01*
X114754819Y-107761905D02*
X113754819Y-107761905D01*
X113754819Y-107761905D02*
X113754819Y-108000000D01*
X113754819Y-108000000D02*
X113802438Y-108142857D01*
X113802438Y-108142857D02*
X113897676Y-108238095D01*
X113897676Y-108238095D02*
X113992914Y-108285714D01*
X113992914Y-108285714D02*
X114183390Y-108333333D01*
X114183390Y-108333333D02*
X114326247Y-108333333D01*
X114326247Y-108333333D02*
X114516723Y-108285714D01*
X114516723Y-108285714D02*
X114611961Y-108238095D01*
X114611961Y-108238095D02*
X114707200Y-108142857D01*
X114707200Y-108142857D02*
X114754819Y-108000000D01*
X114754819Y-108000000D02*
X114754819Y-107761905D01*
X68162438Y-53565588D02*
X68114819Y-53470350D01*
X68114819Y-53470350D02*
X68114819Y-53327493D01*
X68114819Y-53327493D02*
X68162438Y-53184636D01*
X68162438Y-53184636D02*
X68257676Y-53089398D01*
X68257676Y-53089398D02*
X68352914Y-53041779D01*
X68352914Y-53041779D02*
X68543390Y-52994160D01*
X68543390Y-52994160D02*
X68686247Y-52994160D01*
X68686247Y-52994160D02*
X68876723Y-53041779D01*
X68876723Y-53041779D02*
X68971961Y-53089398D01*
X68971961Y-53089398D02*
X69067200Y-53184636D01*
X69067200Y-53184636D02*
X69114819Y-53327493D01*
X69114819Y-53327493D02*
X69114819Y-53422731D01*
X69114819Y-53422731D02*
X69067200Y-53565588D01*
X69067200Y-53565588D02*
X69019580Y-53613207D01*
X69019580Y-53613207D02*
X68686247Y-53613207D01*
X68686247Y-53613207D02*
X68686247Y-53422731D01*
%TO.C,J5*%
X109914819Y-113341666D02*
X110629104Y-113341666D01*
X110629104Y-113341666D02*
X110771961Y-113294047D01*
X110771961Y-113294047D02*
X110867200Y-113198809D01*
X110867200Y-113198809D02*
X110914819Y-113055952D01*
X110914819Y-113055952D02*
X110914819Y-112960714D01*
X109914819Y-114294047D02*
X109914819Y-113817857D01*
X109914819Y-113817857D02*
X110391009Y-113770238D01*
X110391009Y-113770238D02*
X110343390Y-113817857D01*
X110343390Y-113817857D02*
X110295771Y-113913095D01*
X110295771Y-113913095D02*
X110295771Y-114151190D01*
X110295771Y-114151190D02*
X110343390Y-114246428D01*
X110343390Y-114246428D02*
X110391009Y-114294047D01*
X110391009Y-114294047D02*
X110486247Y-114341666D01*
X110486247Y-114341666D02*
X110724342Y-114341666D01*
X110724342Y-114341666D02*
X110819580Y-114294047D01*
X110819580Y-114294047D02*
X110867200Y-114246428D01*
X110867200Y-114246428D02*
X110914819Y-114151190D01*
X110914819Y-114151190D02*
X110914819Y-113913095D01*
X110914819Y-113913095D02*
X110867200Y-113817857D01*
X110867200Y-113817857D02*
X110819580Y-113770238D01*
%TO.C,J1*%
X121374819Y-143176666D02*
X122089104Y-143176666D01*
X122089104Y-143176666D02*
X122231961Y-143129047D01*
X122231961Y-143129047D02*
X122327200Y-143033809D01*
X122327200Y-143033809D02*
X122374819Y-142890952D01*
X122374819Y-142890952D02*
X122374819Y-142795714D01*
X122374819Y-144176666D02*
X122374819Y-143605238D01*
X122374819Y-143890952D02*
X121374819Y-143890952D01*
X121374819Y-143890952D02*
X121517676Y-143795714D01*
X121517676Y-143795714D02*
X121612914Y-143700476D01*
X121612914Y-143700476D02*
X121660533Y-143605238D01*
%TO.C,C4*%
X79044580Y-63625833D02*
X79092200Y-63578214D01*
X79092200Y-63578214D02*
X79139819Y-63435357D01*
X79139819Y-63435357D02*
X79139819Y-63340119D01*
X79139819Y-63340119D02*
X79092200Y-63197262D01*
X79092200Y-63197262D02*
X78996961Y-63102024D01*
X78996961Y-63102024D02*
X78901723Y-63054405D01*
X78901723Y-63054405D02*
X78711247Y-63006786D01*
X78711247Y-63006786D02*
X78568390Y-63006786D01*
X78568390Y-63006786D02*
X78377914Y-63054405D01*
X78377914Y-63054405D02*
X78282676Y-63102024D01*
X78282676Y-63102024D02*
X78187438Y-63197262D01*
X78187438Y-63197262D02*
X78139819Y-63340119D01*
X78139819Y-63340119D02*
X78139819Y-63435357D01*
X78139819Y-63435357D02*
X78187438Y-63578214D01*
X78187438Y-63578214D02*
X78235057Y-63625833D01*
X78473152Y-64482976D02*
X79139819Y-64482976D01*
X78092200Y-64244881D02*
X78806485Y-64006786D01*
X78806485Y-64006786D02*
X78806485Y-64625833D01*
%TO.C,J3*%
X121374819Y-56181666D02*
X122089104Y-56181666D01*
X122089104Y-56181666D02*
X122231961Y-56134047D01*
X122231961Y-56134047D02*
X122327200Y-56038809D01*
X122327200Y-56038809D02*
X122374819Y-55895952D01*
X122374819Y-55895952D02*
X122374819Y-55800714D01*
X121374819Y-56562619D02*
X121374819Y-57181666D01*
X121374819Y-57181666D02*
X121755771Y-56848333D01*
X121755771Y-56848333D02*
X121755771Y-56991190D01*
X121755771Y-56991190D02*
X121803390Y-57086428D01*
X121803390Y-57086428D02*
X121851009Y-57134047D01*
X121851009Y-57134047D02*
X121946247Y-57181666D01*
X121946247Y-57181666D02*
X122184342Y-57181666D01*
X122184342Y-57181666D02*
X122279580Y-57134047D01*
X122279580Y-57134047D02*
X122327200Y-57086428D01*
X122327200Y-57086428D02*
X122374819Y-56991190D01*
X122374819Y-56991190D02*
X122374819Y-56705476D01*
X122374819Y-56705476D02*
X122327200Y-56610238D01*
X122327200Y-56610238D02*
X122279580Y-56562619D01*
%TO.C,J4*%
X64859819Y-56181666D02*
X65574104Y-56181666D01*
X65574104Y-56181666D02*
X65716961Y-56134047D01*
X65716961Y-56134047D02*
X65812200Y-56038809D01*
X65812200Y-56038809D02*
X65859819Y-55895952D01*
X65859819Y-55895952D02*
X65859819Y-55800714D01*
X65193152Y-57086428D02*
X65859819Y-57086428D01*
X64812200Y-56848333D02*
X65526485Y-56610238D01*
X65526485Y-56610238D02*
X65526485Y-57229285D01*
%TO.C,C3*%
X136194580Y-63333333D02*
X136242200Y-63285714D01*
X136242200Y-63285714D02*
X136289819Y-63142857D01*
X136289819Y-63142857D02*
X136289819Y-63047619D01*
X136289819Y-63047619D02*
X136242200Y-62904762D01*
X136242200Y-62904762D02*
X136146961Y-62809524D01*
X136146961Y-62809524D02*
X136051723Y-62761905D01*
X136051723Y-62761905D02*
X135861247Y-62714286D01*
X135861247Y-62714286D02*
X135718390Y-62714286D01*
X135718390Y-62714286D02*
X135527914Y-62761905D01*
X135527914Y-62761905D02*
X135432676Y-62809524D01*
X135432676Y-62809524D02*
X135337438Y-62904762D01*
X135337438Y-62904762D02*
X135289819Y-63047619D01*
X135289819Y-63047619D02*
X135289819Y-63142857D01*
X135289819Y-63142857D02*
X135337438Y-63285714D01*
X135337438Y-63285714D02*
X135385057Y-63333333D01*
X135289819Y-63666667D02*
X135289819Y-64285714D01*
X135289819Y-64285714D02*
X135670771Y-63952381D01*
X135670771Y-63952381D02*
X135670771Y-64095238D01*
X135670771Y-64095238D02*
X135718390Y-64190476D01*
X135718390Y-64190476D02*
X135766009Y-64238095D01*
X135766009Y-64238095D02*
X135861247Y-64285714D01*
X135861247Y-64285714D02*
X136099342Y-64285714D01*
X136099342Y-64285714D02*
X136194580Y-64238095D01*
X136194580Y-64238095D02*
X136242200Y-64190476D01*
X136242200Y-64190476D02*
X136289819Y-64095238D01*
X136289819Y-64095238D02*
X136289819Y-63809524D01*
X136289819Y-63809524D02*
X136242200Y-63714286D01*
X136242200Y-63714286D02*
X136194580Y-63666667D01*
%TO.C,J2*%
X64224819Y-143131666D02*
X64939104Y-143131666D01*
X64939104Y-143131666D02*
X65081961Y-143084047D01*
X65081961Y-143084047D02*
X65177200Y-142988809D01*
X65177200Y-142988809D02*
X65224819Y-142845952D01*
X65224819Y-142845952D02*
X65224819Y-142750714D01*
X64320057Y-143560238D02*
X64272438Y-143607857D01*
X64272438Y-143607857D02*
X64224819Y-143703095D01*
X64224819Y-143703095D02*
X64224819Y-143941190D01*
X64224819Y-143941190D02*
X64272438Y-144036428D01*
X64272438Y-144036428D02*
X64320057Y-144084047D01*
X64320057Y-144084047D02*
X64415295Y-144131666D01*
X64415295Y-144131666D02*
X64510533Y-144131666D01*
X64510533Y-144131666D02*
X64653390Y-144084047D01*
X64653390Y-144084047D02*
X65224819Y-143512619D01*
X65224819Y-143512619D02*
X65224819Y-144131666D01*
%TO.C,C1*%
X136194580Y-135723333D02*
X136242200Y-135675714D01*
X136242200Y-135675714D02*
X136289819Y-135532857D01*
X136289819Y-135532857D02*
X136289819Y-135437619D01*
X136289819Y-135437619D02*
X136242200Y-135294762D01*
X136242200Y-135294762D02*
X136146961Y-135199524D01*
X136146961Y-135199524D02*
X136051723Y-135151905D01*
X136051723Y-135151905D02*
X135861247Y-135104286D01*
X135861247Y-135104286D02*
X135718390Y-135104286D01*
X135718390Y-135104286D02*
X135527914Y-135151905D01*
X135527914Y-135151905D02*
X135432676Y-135199524D01*
X135432676Y-135199524D02*
X135337438Y-135294762D01*
X135337438Y-135294762D02*
X135289819Y-135437619D01*
X135289819Y-135437619D02*
X135289819Y-135532857D01*
X135289819Y-135532857D02*
X135337438Y-135675714D01*
X135337438Y-135675714D02*
X135385057Y-135723333D01*
X136289819Y-136675714D02*
X136289819Y-136104286D01*
X136289819Y-136390000D02*
X135289819Y-136390000D01*
X135289819Y-136390000D02*
X135432676Y-136294762D01*
X135432676Y-136294762D02*
X135527914Y-136199524D01*
X135527914Y-136199524D02*
X135575533Y-136104286D01*
%TO.C,C2*%
X80314580Y-136358333D02*
X80362200Y-136310714D01*
X80362200Y-136310714D02*
X80409819Y-136167857D01*
X80409819Y-136167857D02*
X80409819Y-136072619D01*
X80409819Y-136072619D02*
X80362200Y-135929762D01*
X80362200Y-135929762D02*
X80266961Y-135834524D01*
X80266961Y-135834524D02*
X80171723Y-135786905D01*
X80171723Y-135786905D02*
X79981247Y-135739286D01*
X79981247Y-135739286D02*
X79838390Y-135739286D01*
X79838390Y-135739286D02*
X79647914Y-135786905D01*
X79647914Y-135786905D02*
X79552676Y-135834524D01*
X79552676Y-135834524D02*
X79457438Y-135929762D01*
X79457438Y-135929762D02*
X79409819Y-136072619D01*
X79409819Y-136072619D02*
X79409819Y-136167857D01*
X79409819Y-136167857D02*
X79457438Y-136310714D01*
X79457438Y-136310714D02*
X79505057Y-136358333D01*
X79505057Y-136739286D02*
X79457438Y-136786905D01*
X79457438Y-136786905D02*
X79409819Y-136882143D01*
X79409819Y-136882143D02*
X79409819Y-137120238D01*
X79409819Y-137120238D02*
X79457438Y-137215476D01*
X79457438Y-137215476D02*
X79505057Y-137263095D01*
X79505057Y-137263095D02*
X79600295Y-137310714D01*
X79600295Y-137310714D02*
X79695533Y-137310714D01*
X79695533Y-137310714D02*
X79838390Y-137263095D01*
X79838390Y-137263095D02*
X80409819Y-136691667D01*
X80409819Y-136691667D02*
X80409819Y-137310714D01*
%TO.C,R3*%
X124279819Y-63333333D02*
X123803628Y-63000000D01*
X124279819Y-62761905D02*
X123279819Y-62761905D01*
X123279819Y-62761905D02*
X123279819Y-63142857D01*
X123279819Y-63142857D02*
X123327438Y-63238095D01*
X123327438Y-63238095D02*
X123375057Y-63285714D01*
X123375057Y-63285714D02*
X123470295Y-63333333D01*
X123470295Y-63333333D02*
X123613152Y-63333333D01*
X123613152Y-63333333D02*
X123708390Y-63285714D01*
X123708390Y-63285714D02*
X123756009Y-63238095D01*
X123756009Y-63238095D02*
X123803628Y-63142857D01*
X123803628Y-63142857D02*
X123803628Y-62761905D01*
X123279819Y-63666667D02*
X123279819Y-64285714D01*
X123279819Y-64285714D02*
X123660771Y-63952381D01*
X123660771Y-63952381D02*
X123660771Y-64095238D01*
X123660771Y-64095238D02*
X123708390Y-64190476D01*
X123708390Y-64190476D02*
X123756009Y-64238095D01*
X123756009Y-64238095D02*
X123851247Y-64285714D01*
X123851247Y-64285714D02*
X124089342Y-64285714D01*
X124089342Y-64285714D02*
X124184580Y-64238095D01*
X124184580Y-64238095D02*
X124232200Y-64190476D01*
X124232200Y-64190476D02*
X124279819Y-64095238D01*
X124279819Y-64095238D02*
X124279819Y-63809524D01*
X124279819Y-63809524D02*
X124232200Y-63714286D01*
X124232200Y-63714286D02*
X124184580Y-63666667D01*
%TO.C,U1*%
X118861904Y-123354819D02*
X118861904Y-124164342D01*
X118861904Y-124164342D02*
X118814285Y-124259580D01*
X118814285Y-124259580D02*
X118766666Y-124307200D01*
X118766666Y-124307200D02*
X118671428Y-124354819D01*
X118671428Y-124354819D02*
X118480952Y-124354819D01*
X118480952Y-124354819D02*
X118385714Y-124307200D01*
X118385714Y-124307200D02*
X118338095Y-124259580D01*
X118338095Y-124259580D02*
X118290476Y-124164342D01*
X118290476Y-124164342D02*
X118290476Y-123354819D01*
X117290476Y-124354819D02*
X117861904Y-124354819D01*
X117576190Y-124354819D02*
X117576190Y-123354819D01*
X117576190Y-123354819D02*
X117671428Y-123497676D01*
X117671428Y-123497676D02*
X117766666Y-123592914D01*
X117766666Y-123592914D02*
X117861904Y-123640533D01*
%TO.C,C5*%
X117466666Y-120374580D02*
X117514285Y-120422200D01*
X117514285Y-120422200D02*
X117657142Y-120469819D01*
X117657142Y-120469819D02*
X117752380Y-120469819D01*
X117752380Y-120469819D02*
X117895237Y-120422200D01*
X117895237Y-120422200D02*
X117990475Y-120326961D01*
X117990475Y-120326961D02*
X118038094Y-120231723D01*
X118038094Y-120231723D02*
X118085713Y-120041247D01*
X118085713Y-120041247D02*
X118085713Y-119898390D01*
X118085713Y-119898390D02*
X118038094Y-119707914D01*
X118038094Y-119707914D02*
X117990475Y-119612676D01*
X117990475Y-119612676D02*
X117895237Y-119517438D01*
X117895237Y-119517438D02*
X117752380Y-119469819D01*
X117752380Y-119469819D02*
X117657142Y-119469819D01*
X117657142Y-119469819D02*
X117514285Y-119517438D01*
X117514285Y-119517438D02*
X117466666Y-119565057D01*
X116561904Y-119469819D02*
X117038094Y-119469819D01*
X117038094Y-119469819D02*
X117085713Y-119946009D01*
X117085713Y-119946009D02*
X117038094Y-119898390D01*
X117038094Y-119898390D02*
X116942856Y-119850771D01*
X116942856Y-119850771D02*
X116704761Y-119850771D01*
X116704761Y-119850771D02*
X116609523Y-119898390D01*
X116609523Y-119898390D02*
X116561904Y-119946009D01*
X116561904Y-119946009D02*
X116514285Y-120041247D01*
X116514285Y-120041247D02*
X116514285Y-120279342D01*
X116514285Y-120279342D02*
X116561904Y-120374580D01*
X116561904Y-120374580D02*
X116609523Y-120422200D01*
X116609523Y-120422200D02*
X116704761Y-120469819D01*
X116704761Y-120469819D02*
X116942856Y-120469819D01*
X116942856Y-120469819D02*
X117038094Y-120422200D01*
X117038094Y-120422200D02*
X117085713Y-120374580D01*
%TO.C,R4*%
X66855180Y-63485066D02*
X67331371Y-63818399D01*
X66855180Y-64056494D02*
X67855180Y-64056494D01*
X67855180Y-64056494D02*
X67855180Y-63675542D01*
X67855180Y-63675542D02*
X67807561Y-63580304D01*
X67807561Y-63580304D02*
X67759942Y-63532685D01*
X67759942Y-63532685D02*
X67664704Y-63485066D01*
X67664704Y-63485066D02*
X67521847Y-63485066D01*
X67521847Y-63485066D02*
X67426609Y-63532685D01*
X67426609Y-63532685D02*
X67378990Y-63580304D01*
X67378990Y-63580304D02*
X67331371Y-63675542D01*
X67331371Y-63675542D02*
X67331371Y-64056494D01*
X67521847Y-62627923D02*
X66855180Y-62627923D01*
X67902800Y-62866018D02*
X67188514Y-63104113D01*
X67188514Y-63104113D02*
X67188514Y-62485066D01*
%TO.C,R2*%
X67764819Y-136358333D02*
X67288628Y-136025000D01*
X67764819Y-135786905D02*
X66764819Y-135786905D01*
X66764819Y-135786905D02*
X66764819Y-136167857D01*
X66764819Y-136167857D02*
X66812438Y-136263095D01*
X66812438Y-136263095D02*
X66860057Y-136310714D01*
X66860057Y-136310714D02*
X66955295Y-136358333D01*
X66955295Y-136358333D02*
X67098152Y-136358333D01*
X67098152Y-136358333D02*
X67193390Y-136310714D01*
X67193390Y-136310714D02*
X67241009Y-136263095D01*
X67241009Y-136263095D02*
X67288628Y-136167857D01*
X67288628Y-136167857D02*
X67288628Y-135786905D01*
X66860057Y-136739286D02*
X66812438Y-136786905D01*
X66812438Y-136786905D02*
X66764819Y-136882143D01*
X66764819Y-136882143D02*
X66764819Y-137120238D01*
X66764819Y-137120238D02*
X66812438Y-137215476D01*
X66812438Y-137215476D02*
X66860057Y-137263095D01*
X66860057Y-137263095D02*
X66955295Y-137310714D01*
X66955295Y-137310714D02*
X67050533Y-137310714D01*
X67050533Y-137310714D02*
X67193390Y-137263095D01*
X67193390Y-137263095D02*
X67764819Y-136691667D01*
X67764819Y-136691667D02*
X67764819Y-137310714D01*
%TO.C,R1*%
X124914819Y-135723333D02*
X124438628Y-135390000D01*
X124914819Y-135151905D02*
X123914819Y-135151905D01*
X123914819Y-135151905D02*
X123914819Y-135532857D01*
X123914819Y-135532857D02*
X123962438Y-135628095D01*
X123962438Y-135628095D02*
X124010057Y-135675714D01*
X124010057Y-135675714D02*
X124105295Y-135723333D01*
X124105295Y-135723333D02*
X124248152Y-135723333D01*
X124248152Y-135723333D02*
X124343390Y-135675714D01*
X124343390Y-135675714D02*
X124391009Y-135628095D01*
X124391009Y-135628095D02*
X124438628Y-135532857D01*
X124438628Y-135532857D02*
X124438628Y-135151905D01*
X124914819Y-136675714D02*
X124914819Y-136104286D01*
X124914819Y-136390000D02*
X123914819Y-136390000D01*
X123914819Y-136390000D02*
X124057676Y-136294762D01*
X124057676Y-136294762D02*
X124152914Y-136199524D01*
X124152914Y-136199524D02*
X124200533Y-136104286D01*
D12*
%TO.C,J1*%
X128270000Y-142180000D02*
X126940000Y-142180000D01*
X132095000Y-142225000D02*
X132095000Y-144885000D01*
X126955000Y-142225000D02*
X132095000Y-142225000D01*
X126955000Y-142225000D02*
X126955000Y-144885000D01*
X122945000Y-142235000D02*
X122970000Y-146310000D01*
X126955000Y-144885000D02*
X132095000Y-144885000D01*
%TO.C,C4*%
X75925000Y-64503752D02*
X75925000Y-63081248D01*
X77745000Y-64503752D02*
X77745000Y-63081248D01*
%TO.C,J3*%
X128270000Y-55185000D02*
X126940000Y-55185000D01*
X132095000Y-55230000D02*
X132095000Y-57890000D01*
X126955000Y-55230000D02*
X132095000Y-55230000D01*
X126955000Y-55230000D02*
X126955000Y-57890000D01*
X122945000Y-55240000D02*
X122970000Y-59315000D01*
X126955000Y-57890000D02*
X132095000Y-57890000D01*
%TO.C,J4*%
X71800000Y-55140000D02*
X70470000Y-55140000D01*
X75625000Y-55185000D02*
X75625000Y-57845000D01*
X70485000Y-55185000D02*
X75625000Y-55185000D01*
X70485000Y-55185000D02*
X70485000Y-57845000D01*
X66475000Y-55195000D02*
X66500000Y-59270000D01*
X70485000Y-57845000D02*
X75625000Y-57845000D01*
%TO.C,C3*%
X133075000Y-64211252D02*
X133075000Y-62788748D01*
X134895000Y-64211252D02*
X134895000Y-62788748D01*
%TO.C,J2*%
X71800000Y-142135000D02*
X70470000Y-142135000D01*
X75625000Y-142180000D02*
X75625000Y-144840000D01*
X70485000Y-142180000D02*
X75625000Y-142180000D01*
X70485000Y-142180000D02*
X70485000Y-144840000D01*
X66475000Y-142190000D02*
X66500000Y-146265000D01*
X70485000Y-144840000D02*
X75625000Y-144840000D01*
%TO.C,C1*%
X133075000Y-136601252D02*
X133075000Y-135178748D01*
X134895000Y-136601252D02*
X134895000Y-135178748D01*
%TO.C,C2*%
X77195000Y-137236252D02*
X77195000Y-135813748D01*
X79015000Y-137236252D02*
X79015000Y-135813748D01*
D13*
%TO.C,R3*%
X124827000Y-62745787D02*
X124827000Y-64254213D01*
X122823000Y-64254213D02*
X122823000Y-62745787D01*
D12*
%TO.C,U1*%
X118100000Y-129860000D02*
X120050000Y-129860000D01*
X118100000Y-129860000D02*
X116150000Y-129860000D01*
X118100000Y-124740000D02*
X121550000Y-124740000D01*
X118100000Y-124740000D02*
X116150000Y-124740000D01*
%TO.C,C5*%
X116588748Y-120990000D02*
X118011252Y-120990000D01*
X116588748Y-122810000D02*
X118011252Y-122810000D01*
D13*
%TO.C,R4*%
X66308000Y-64072613D02*
X66308000Y-62564187D01*
X68312000Y-62564187D02*
X68312000Y-64072613D01*
%TO.C,R2*%
X68312000Y-135770787D02*
X68312000Y-137279213D01*
X66308000Y-137279213D02*
X66308000Y-135770787D01*
%TO.C,R1*%
X125462000Y-135135787D02*
X125462000Y-136644213D01*
X123458000Y-136644213D02*
X123458000Y-135135787D01*
%TD*%
M02*
