%TF.GenerationSoftware,KiCad,Pcbnew,7.0.5-0*%
%TF.CreationDate,2023-11-28T16:07:23-05:00*%
%TF.ProjectId,quad_sipm,71756164-5f73-4697-906d-2e6b69636164,rev?*%
%TF.SameCoordinates,Original*%
%TF.FileFunction,Legend,Bot*%
%TF.FilePolarity,Positive*%
%FSLAX46Y46*%
G04 Gerber Fmt 4.6, Leading zero omitted, Abs format (unit mm)*
G04 Created by KiCad (PCBNEW 7.0.5-0) date 2023-11-28 16:07:23*
%MOMM*%
%LPD*%
G01*
G04 APERTURE LIST*
%ADD10C,0.150000*%
%ADD11C,0.203200*%
%ADD12C,0.100000*%
%ADD13C,0.120000*%
G04 APERTURE END LIST*
D10*
X124597438Y-53601904D02*
X124549819Y-53506666D01*
X124549819Y-53506666D02*
X124549819Y-53363809D01*
X124549819Y-53363809D02*
X124597438Y-53220952D01*
X124597438Y-53220952D02*
X124692676Y-53125714D01*
X124692676Y-53125714D02*
X124787914Y-53078095D01*
X124787914Y-53078095D02*
X124978390Y-53030476D01*
X124978390Y-53030476D02*
X125121247Y-53030476D01*
X125121247Y-53030476D02*
X125311723Y-53078095D01*
X125311723Y-53078095D02*
X125406961Y-53125714D01*
X125406961Y-53125714D02*
X125502200Y-53220952D01*
X125502200Y-53220952D02*
X125549819Y-53363809D01*
X125549819Y-53363809D02*
X125549819Y-53459047D01*
X125549819Y-53459047D02*
X125502200Y-53601904D01*
X125502200Y-53601904D02*
X125454580Y-53649523D01*
X125454580Y-53649523D02*
X125121247Y-53649523D01*
X125121247Y-53649523D02*
X125121247Y-53459047D01*
X131899819Y-53078095D02*
X130899819Y-53078095D01*
X131899819Y-53649523D02*
X131328390Y-53220952D01*
X130899819Y-53649523D02*
X131471247Y-53078095D01*
X128439104Y-53101905D02*
X128439104Y-53578095D01*
X128724819Y-53006667D02*
X127724819Y-53340000D01*
X127724819Y-53340000D02*
X128724819Y-53673333D01*
X68717438Y-146983220D02*
X68669819Y-146887982D01*
X68669819Y-146887982D02*
X68669819Y-146745125D01*
X68669819Y-146745125D02*
X68717438Y-146602268D01*
X68717438Y-146602268D02*
X68812676Y-146507030D01*
X68812676Y-146507030D02*
X68907914Y-146459411D01*
X68907914Y-146459411D02*
X69098390Y-146411792D01*
X69098390Y-146411792D02*
X69241247Y-146411792D01*
X69241247Y-146411792D02*
X69431723Y-146459411D01*
X69431723Y-146459411D02*
X69526961Y-146507030D01*
X69526961Y-146507030D02*
X69622200Y-146602268D01*
X69622200Y-146602268D02*
X69669819Y-146745125D01*
X69669819Y-146745125D02*
X69669819Y-146840363D01*
X69669819Y-146840363D02*
X69622200Y-146983220D01*
X69622200Y-146983220D02*
X69574580Y-147030839D01*
X69574580Y-147030839D02*
X69241247Y-147030839D01*
X69241247Y-147030839D02*
X69241247Y-146840363D01*
X71924104Y-146554649D02*
X71924104Y-147030839D01*
X72209819Y-146459411D02*
X71209819Y-146792744D01*
X71209819Y-146792744D02*
X72209819Y-147126077D01*
X75384819Y-53078095D02*
X74384819Y-53078095D01*
X75384819Y-53649523D02*
X74813390Y-53220952D01*
X74384819Y-53649523D02*
X74956247Y-53078095D01*
X71924104Y-53101905D02*
X71924104Y-53578095D01*
X72209819Y-53006667D02*
X71209819Y-53340000D01*
X71209819Y-53340000D02*
X72209819Y-53673333D01*
X74749819Y-146423095D02*
X73749819Y-146423095D01*
X74749819Y-146994523D02*
X74178390Y-146565952D01*
X73749819Y-146994523D02*
X74321247Y-146423095D01*
X128439104Y-146446905D02*
X128439104Y-146923095D01*
X128724819Y-146351667D02*
X127724819Y-146685000D01*
X127724819Y-146685000D02*
X128724819Y-147018333D01*
X125232438Y-146983220D02*
X125184819Y-146887982D01*
X125184819Y-146887982D02*
X125184819Y-146745125D01*
X125184819Y-146745125D02*
X125232438Y-146602268D01*
X125232438Y-146602268D02*
X125327676Y-146507030D01*
X125327676Y-146507030D02*
X125422914Y-146459411D01*
X125422914Y-146459411D02*
X125613390Y-146411792D01*
X125613390Y-146411792D02*
X125756247Y-146411792D01*
X125756247Y-146411792D02*
X125946723Y-146459411D01*
X125946723Y-146459411D02*
X126041961Y-146507030D01*
X126041961Y-146507030D02*
X126137200Y-146602268D01*
X126137200Y-146602268D02*
X126184819Y-146745125D01*
X126184819Y-146745125D02*
X126184819Y-146840363D01*
X126184819Y-146840363D02*
X126137200Y-146983220D01*
X126137200Y-146983220D02*
X126089580Y-147030839D01*
X126089580Y-147030839D02*
X125756247Y-147030839D01*
X125756247Y-147030839D02*
X125756247Y-146840363D01*
X131899819Y-146423095D02*
X130899819Y-146423095D01*
X131899819Y-146994523D02*
X131328390Y-146565952D01*
X130899819Y-146994523D02*
X131471247Y-146423095D01*
D11*
X146157744Y-86810410D02*
X145900601Y-86891362D01*
X145900601Y-86891362D02*
X145814887Y-86972314D01*
X145814887Y-86972314D02*
X145729173Y-87134219D01*
X145729173Y-87134219D02*
X145729173Y-87377076D01*
X145729173Y-87377076D02*
X145814887Y-87538981D01*
X145814887Y-87538981D02*
X145900601Y-87619934D01*
X145900601Y-87619934D02*
X146072030Y-87700886D01*
X146072030Y-87700886D02*
X146757744Y-87700886D01*
X146757744Y-87700886D02*
X146757744Y-86000886D01*
X146757744Y-86000886D02*
X146157744Y-86000886D01*
X146157744Y-86000886D02*
X145986316Y-86081838D01*
X145986316Y-86081838D02*
X145900601Y-86162791D01*
X145900601Y-86162791D02*
X145814887Y-86324695D01*
X145814887Y-86324695D02*
X145814887Y-86486600D01*
X145814887Y-86486600D02*
X145900601Y-86648505D01*
X145900601Y-86648505D02*
X145986316Y-86729457D01*
X145986316Y-86729457D02*
X146157744Y-86810410D01*
X146157744Y-86810410D02*
X146757744Y-86810410D01*
X144957744Y-86000886D02*
X144957744Y-87377076D01*
X144957744Y-87377076D02*
X144872030Y-87538981D01*
X144872030Y-87538981D02*
X144786316Y-87619934D01*
X144786316Y-87619934D02*
X144614887Y-87700886D01*
X144614887Y-87700886D02*
X144272030Y-87700886D01*
X144272030Y-87700886D02*
X144100601Y-87619934D01*
X144100601Y-87619934D02*
X144014887Y-87538981D01*
X144014887Y-87538981D02*
X143929173Y-87377076D01*
X143929173Y-87377076D02*
X143929173Y-86000886D01*
X141700601Y-87700886D02*
X141700601Y-86000886D01*
X141700601Y-86000886D02*
X141272030Y-86000886D01*
X141272030Y-86000886D02*
X141014887Y-86081838D01*
X141014887Y-86081838D02*
X140843458Y-86243743D01*
X140843458Y-86243743D02*
X140757744Y-86405648D01*
X140757744Y-86405648D02*
X140672030Y-86729457D01*
X140672030Y-86729457D02*
X140672030Y-86972314D01*
X140672030Y-86972314D02*
X140757744Y-87296124D01*
X140757744Y-87296124D02*
X140843458Y-87458029D01*
X140843458Y-87458029D02*
X141014887Y-87619934D01*
X141014887Y-87619934D02*
X141272030Y-87700886D01*
X141272030Y-87700886D02*
X141700601Y-87700886D01*
X139129173Y-87700886D02*
X139129173Y-86810410D01*
X139129173Y-86810410D02*
X139214887Y-86648505D01*
X139214887Y-86648505D02*
X139386315Y-86567553D01*
X139386315Y-86567553D02*
X139729173Y-86567553D01*
X139729173Y-86567553D02*
X139900601Y-86648505D01*
X139129173Y-87619934D02*
X139300601Y-87700886D01*
X139300601Y-87700886D02*
X139729173Y-87700886D01*
X139729173Y-87700886D02*
X139900601Y-87619934D01*
X139900601Y-87619934D02*
X139986315Y-87458029D01*
X139986315Y-87458029D02*
X139986315Y-87296124D01*
X139986315Y-87296124D02*
X139900601Y-87134219D01*
X139900601Y-87134219D02*
X139729173Y-87053267D01*
X139729173Y-87053267D02*
X139300601Y-87053267D01*
X139300601Y-87053267D02*
X139129173Y-86972314D01*
X138272030Y-87700886D02*
X138272030Y-86567553D01*
X138272030Y-86891362D02*
X138186316Y-86729457D01*
X138186316Y-86729457D02*
X138100602Y-86648505D01*
X138100602Y-86648505D02*
X137929173Y-86567553D01*
X137929173Y-86567553D02*
X137757744Y-86567553D01*
X137157744Y-87700886D02*
X137157744Y-86000886D01*
X136986316Y-87053267D02*
X136472030Y-87700886D01*
X136472030Y-86567553D02*
X137157744Y-87215172D01*
X134500601Y-87862791D02*
X134672030Y-87781838D01*
X134672030Y-87781838D02*
X134843458Y-87619934D01*
X134843458Y-87619934D02*
X135100601Y-87377076D01*
X135100601Y-87377076D02*
X135272030Y-87296124D01*
X135272030Y-87296124D02*
X135443458Y-87296124D01*
X135357744Y-87700886D02*
X135529173Y-87619934D01*
X135529173Y-87619934D02*
X135700601Y-87458029D01*
X135700601Y-87458029D02*
X135786315Y-87134219D01*
X135786315Y-87134219D02*
X135786315Y-86567553D01*
X135786315Y-86567553D02*
X135700601Y-86243743D01*
X135700601Y-86243743D02*
X135529173Y-86081838D01*
X135529173Y-86081838D02*
X135357744Y-86000886D01*
X135357744Y-86000886D02*
X135014887Y-86000886D01*
X135014887Y-86000886D02*
X134843458Y-86081838D01*
X134843458Y-86081838D02*
X134672030Y-86243743D01*
X134672030Y-86243743D02*
X134586315Y-86567553D01*
X134586315Y-86567553D02*
X134586315Y-87134219D01*
X134586315Y-87134219D02*
X134672030Y-87458029D01*
X134672030Y-87458029D02*
X134843458Y-87619934D01*
X134843458Y-87619934D02*
X135014887Y-87700886D01*
X135014887Y-87700886D02*
X135357744Y-87700886D01*
X133043459Y-86567553D02*
X133043459Y-87700886D01*
X133814887Y-86567553D02*
X133814887Y-87458029D01*
X133814887Y-87458029D02*
X133729173Y-87619934D01*
X133729173Y-87619934D02*
X133557744Y-87700886D01*
X133557744Y-87700886D02*
X133300601Y-87700886D01*
X133300601Y-87700886D02*
X133129173Y-87619934D01*
X133129173Y-87619934D02*
X133043459Y-87538981D01*
X131500602Y-87619934D02*
X131672030Y-87700886D01*
X131672030Y-87700886D02*
X132014888Y-87700886D01*
X132014888Y-87700886D02*
X132186316Y-87619934D01*
X132186316Y-87619934D02*
X132272030Y-87458029D01*
X132272030Y-87458029D02*
X132272030Y-86810410D01*
X132272030Y-86810410D02*
X132186316Y-86648505D01*
X132186316Y-86648505D02*
X132014888Y-86567553D01*
X132014888Y-86567553D02*
X131672030Y-86567553D01*
X131672030Y-86567553D02*
X131500602Y-86648505D01*
X131500602Y-86648505D02*
X131414888Y-86810410D01*
X131414888Y-86810410D02*
X131414888Y-86972314D01*
X131414888Y-86972314D02*
X132272030Y-87134219D01*
X130729173Y-87619934D02*
X130557745Y-87700886D01*
X130557745Y-87700886D02*
X130214888Y-87700886D01*
X130214888Y-87700886D02*
X130043459Y-87619934D01*
X130043459Y-87619934D02*
X129957745Y-87458029D01*
X129957745Y-87458029D02*
X129957745Y-87377076D01*
X129957745Y-87377076D02*
X130043459Y-87215172D01*
X130043459Y-87215172D02*
X130214888Y-87134219D01*
X130214888Y-87134219D02*
X130472031Y-87134219D01*
X130472031Y-87134219D02*
X130643459Y-87053267D01*
X130643459Y-87053267D02*
X130729173Y-86891362D01*
X130729173Y-86891362D02*
X130729173Y-86810410D01*
X130729173Y-86810410D02*
X130643459Y-86648505D01*
X130643459Y-86648505D02*
X130472031Y-86567553D01*
X130472031Y-86567553D02*
X130214888Y-86567553D01*
X130214888Y-86567553D02*
X130043459Y-86648505D01*
X129443459Y-86567553D02*
X128757745Y-86567553D01*
X129186316Y-86000886D02*
X129186316Y-87458029D01*
X129186316Y-87458029D02*
X129100602Y-87619934D01*
X129100602Y-87619934D02*
X128929173Y-87700886D01*
X128929173Y-87700886D02*
X128757745Y-87700886D01*
X146757744Y-89547410D02*
X146157744Y-89547410D01*
X145900601Y-90437886D02*
X146757744Y-90437886D01*
X146757744Y-90437886D02*
X146757744Y-88737886D01*
X146757744Y-88737886D02*
X145900601Y-88737886D01*
X145129173Y-90437886D02*
X145129173Y-88737886D01*
X145129173Y-88737886D02*
X144529173Y-89952172D01*
X144529173Y-89952172D02*
X143929173Y-88737886D01*
X143929173Y-88737886D02*
X143929173Y-90437886D01*
X142043459Y-90275981D02*
X142129173Y-90356934D01*
X142129173Y-90356934D02*
X142386316Y-90437886D01*
X142386316Y-90437886D02*
X142557744Y-90437886D01*
X142557744Y-90437886D02*
X142814887Y-90356934D01*
X142814887Y-90356934D02*
X142986316Y-90195029D01*
X142986316Y-90195029D02*
X143072030Y-90033124D01*
X143072030Y-90033124D02*
X143157744Y-89709314D01*
X143157744Y-89709314D02*
X143157744Y-89466457D01*
X143157744Y-89466457D02*
X143072030Y-89142648D01*
X143072030Y-89142648D02*
X142986316Y-88980743D01*
X142986316Y-88980743D02*
X142814887Y-88818838D01*
X142814887Y-88818838D02*
X142557744Y-88737886D01*
X142557744Y-88737886D02*
X142386316Y-88737886D01*
X142386316Y-88737886D02*
X142129173Y-88818838D01*
X142129173Y-88818838D02*
X142043459Y-88899791D01*
X141357744Y-89952172D02*
X140500602Y-89952172D01*
X141529173Y-90437886D02*
X140929173Y-88737886D01*
X140929173Y-88737886D02*
X140329173Y-90437886D01*
X138872030Y-90437886D02*
X139729173Y-90437886D01*
X139729173Y-90437886D02*
X139729173Y-88737886D01*
X135700601Y-90599791D02*
X135872030Y-90518838D01*
X135872030Y-90518838D02*
X136043458Y-90356934D01*
X136043458Y-90356934D02*
X136300601Y-90114076D01*
X136300601Y-90114076D02*
X136472030Y-90033124D01*
X136472030Y-90033124D02*
X136643458Y-90033124D01*
X136557744Y-90437886D02*
X136729173Y-90356934D01*
X136729173Y-90356934D02*
X136900601Y-90195029D01*
X136900601Y-90195029D02*
X136986315Y-89871219D01*
X136986315Y-89871219D02*
X136986315Y-89304553D01*
X136986315Y-89304553D02*
X136900601Y-88980743D01*
X136900601Y-88980743D02*
X136729173Y-88818838D01*
X136729173Y-88818838D02*
X136557744Y-88737886D01*
X136557744Y-88737886D02*
X136214887Y-88737886D01*
X136214887Y-88737886D02*
X136043458Y-88818838D01*
X136043458Y-88818838D02*
X135872030Y-88980743D01*
X135872030Y-88980743D02*
X135786315Y-89304553D01*
X135786315Y-89304553D02*
X135786315Y-89871219D01*
X135786315Y-89871219D02*
X135872030Y-90195029D01*
X135872030Y-90195029D02*
X136043458Y-90356934D01*
X136043458Y-90356934D02*
X136214887Y-90437886D01*
X136214887Y-90437886D02*
X136557744Y-90437886D01*
X134243459Y-89304553D02*
X134243459Y-90437886D01*
X135014887Y-89304553D02*
X135014887Y-90195029D01*
X135014887Y-90195029D02*
X134929173Y-90356934D01*
X134929173Y-90356934D02*
X134757744Y-90437886D01*
X134757744Y-90437886D02*
X134500601Y-90437886D01*
X134500601Y-90437886D02*
X134329173Y-90356934D01*
X134329173Y-90356934D02*
X134243459Y-90275981D01*
X132614888Y-90437886D02*
X132614888Y-89547410D01*
X132614888Y-89547410D02*
X132700602Y-89385505D01*
X132700602Y-89385505D02*
X132872030Y-89304553D01*
X132872030Y-89304553D02*
X133214888Y-89304553D01*
X133214888Y-89304553D02*
X133386316Y-89385505D01*
X132614888Y-90356934D02*
X132786316Y-90437886D01*
X132786316Y-90437886D02*
X133214888Y-90437886D01*
X133214888Y-90437886D02*
X133386316Y-90356934D01*
X133386316Y-90356934D02*
X133472030Y-90195029D01*
X133472030Y-90195029D02*
X133472030Y-90033124D01*
X133472030Y-90033124D02*
X133386316Y-89871219D01*
X133386316Y-89871219D02*
X133214888Y-89790267D01*
X133214888Y-89790267D02*
X132786316Y-89790267D01*
X132786316Y-89790267D02*
X132614888Y-89709314D01*
X130986317Y-90437886D02*
X130986317Y-88737886D01*
X130986317Y-90356934D02*
X131157745Y-90437886D01*
X131157745Y-90437886D02*
X131500602Y-90437886D01*
X131500602Y-90437886D02*
X131672031Y-90356934D01*
X131672031Y-90356934D02*
X131757745Y-90275981D01*
X131757745Y-90275981D02*
X131843459Y-90114076D01*
X131843459Y-90114076D02*
X131843459Y-89628362D01*
X131843459Y-89628362D02*
X131757745Y-89466457D01*
X131757745Y-89466457D02*
X131672031Y-89385505D01*
X131672031Y-89385505D02*
X131500602Y-89304553D01*
X131500602Y-89304553D02*
X131157745Y-89304553D01*
X131157745Y-89304553D02*
X130986317Y-89385505D01*
X128843459Y-90356934D02*
X128586317Y-90437886D01*
X128586317Y-90437886D02*
X128157745Y-90437886D01*
X128157745Y-90437886D02*
X127986317Y-90356934D01*
X127986317Y-90356934D02*
X127900602Y-90275981D01*
X127900602Y-90275981D02*
X127814888Y-90114076D01*
X127814888Y-90114076D02*
X127814888Y-89952172D01*
X127814888Y-89952172D02*
X127900602Y-89790267D01*
X127900602Y-89790267D02*
X127986317Y-89709314D01*
X127986317Y-89709314D02*
X128157745Y-89628362D01*
X128157745Y-89628362D02*
X128500602Y-89547410D01*
X128500602Y-89547410D02*
X128672031Y-89466457D01*
X128672031Y-89466457D02*
X128757745Y-89385505D01*
X128757745Y-89385505D02*
X128843459Y-89223600D01*
X128843459Y-89223600D02*
X128843459Y-89061695D01*
X128843459Y-89061695D02*
X128757745Y-88899791D01*
X128757745Y-88899791D02*
X128672031Y-88818838D01*
X128672031Y-88818838D02*
X128500602Y-88737886D01*
X128500602Y-88737886D02*
X128072031Y-88737886D01*
X128072031Y-88737886D02*
X127814888Y-88818838D01*
X127043459Y-90437886D02*
X127043459Y-89304553D01*
X127043459Y-88737886D02*
X127129173Y-88818838D01*
X127129173Y-88818838D02*
X127043459Y-88899791D01*
X127043459Y-88899791D02*
X126957745Y-88818838D01*
X126957745Y-88818838D02*
X127043459Y-88737886D01*
X127043459Y-88737886D02*
X127043459Y-88899791D01*
X126186316Y-90437886D02*
X126186316Y-88737886D01*
X126186316Y-88737886D02*
X125500602Y-88737886D01*
X125500602Y-88737886D02*
X125329173Y-88818838D01*
X125329173Y-88818838D02*
X125243459Y-88899791D01*
X125243459Y-88899791D02*
X125157745Y-89061695D01*
X125157745Y-89061695D02*
X125157745Y-89304553D01*
X125157745Y-89304553D02*
X125243459Y-89466457D01*
X125243459Y-89466457D02*
X125329173Y-89547410D01*
X125329173Y-89547410D02*
X125500602Y-89628362D01*
X125500602Y-89628362D02*
X126186316Y-89628362D01*
X124386316Y-90437886D02*
X124386316Y-88737886D01*
X124386316Y-88737886D02*
X123786316Y-89952172D01*
X123786316Y-89952172D02*
X123186316Y-88737886D01*
X123186316Y-88737886D02*
X123186316Y-90437886D01*
X120957744Y-90437886D02*
X120957744Y-88737886D01*
X120957744Y-88737886D02*
X120357744Y-89952172D01*
X120357744Y-89952172D02*
X119757744Y-88737886D01*
X119757744Y-88737886D02*
X119757744Y-90437886D01*
X118643458Y-90437886D02*
X118814887Y-90356934D01*
X118814887Y-90356934D02*
X118900601Y-90275981D01*
X118900601Y-90275981D02*
X118986315Y-90114076D01*
X118986315Y-90114076D02*
X118986315Y-89628362D01*
X118986315Y-89628362D02*
X118900601Y-89466457D01*
X118900601Y-89466457D02*
X118814887Y-89385505D01*
X118814887Y-89385505D02*
X118643458Y-89304553D01*
X118643458Y-89304553D02*
X118386315Y-89304553D01*
X118386315Y-89304553D02*
X118214887Y-89385505D01*
X118214887Y-89385505D02*
X118129173Y-89466457D01*
X118129173Y-89466457D02*
X118043458Y-89628362D01*
X118043458Y-89628362D02*
X118043458Y-90114076D01*
X118043458Y-90114076D02*
X118129173Y-90275981D01*
X118129173Y-90275981D02*
X118214887Y-90356934D01*
X118214887Y-90356934D02*
X118386315Y-90437886D01*
X118386315Y-90437886D02*
X118643458Y-90437886D01*
X117529173Y-89304553D02*
X116843459Y-89304553D01*
X117272030Y-88737886D02*
X117272030Y-90195029D01*
X117272030Y-90195029D02*
X117186316Y-90356934D01*
X117186316Y-90356934D02*
X117014887Y-90437886D01*
X117014887Y-90437886D02*
X116843459Y-90437886D01*
X116243459Y-90437886D02*
X116243459Y-88737886D01*
X115472031Y-90437886D02*
X115472031Y-89547410D01*
X115472031Y-89547410D02*
X115557745Y-89385505D01*
X115557745Y-89385505D02*
X115729173Y-89304553D01*
X115729173Y-89304553D02*
X115986316Y-89304553D01*
X115986316Y-89304553D02*
X116157745Y-89385505D01*
X116157745Y-89385505D02*
X116243459Y-89466457D01*
X113929174Y-90356934D02*
X114100602Y-90437886D01*
X114100602Y-90437886D02*
X114443460Y-90437886D01*
X114443460Y-90437886D02*
X114614888Y-90356934D01*
X114614888Y-90356934D02*
X114700602Y-90195029D01*
X114700602Y-90195029D02*
X114700602Y-89547410D01*
X114700602Y-89547410D02*
X114614888Y-89385505D01*
X114614888Y-89385505D02*
X114443460Y-89304553D01*
X114443460Y-89304553D02*
X114100602Y-89304553D01*
X114100602Y-89304553D02*
X113929174Y-89385505D01*
X113929174Y-89385505D02*
X113843460Y-89547410D01*
X113843460Y-89547410D02*
X113843460Y-89709314D01*
X113843460Y-89709314D02*
X114700602Y-89871219D01*
X113072031Y-90437886D02*
X113072031Y-89304553D01*
X113072031Y-89628362D02*
X112986317Y-89466457D01*
X112986317Y-89466457D02*
X112900603Y-89385505D01*
X112900603Y-89385505D02*
X112729174Y-89304553D01*
X112729174Y-89304553D02*
X112557745Y-89304553D01*
X111957745Y-90437886D02*
X111957745Y-88737886D01*
X111957745Y-89385505D02*
X111786317Y-89304553D01*
X111786317Y-89304553D02*
X111443459Y-89304553D01*
X111443459Y-89304553D02*
X111272031Y-89385505D01*
X111272031Y-89385505D02*
X111186317Y-89466457D01*
X111186317Y-89466457D02*
X111100602Y-89628362D01*
X111100602Y-89628362D02*
X111100602Y-90114076D01*
X111100602Y-90114076D02*
X111186317Y-90275981D01*
X111186317Y-90275981D02*
X111272031Y-90356934D01*
X111272031Y-90356934D02*
X111443459Y-90437886D01*
X111443459Y-90437886D02*
X111786317Y-90437886D01*
X111786317Y-90437886D02*
X111957745Y-90356934D01*
X110072031Y-90437886D02*
X110243460Y-90356934D01*
X110243460Y-90356934D02*
X110329174Y-90275981D01*
X110329174Y-90275981D02*
X110414888Y-90114076D01*
X110414888Y-90114076D02*
X110414888Y-89628362D01*
X110414888Y-89628362D02*
X110329174Y-89466457D01*
X110329174Y-89466457D02*
X110243460Y-89385505D01*
X110243460Y-89385505D02*
X110072031Y-89304553D01*
X110072031Y-89304553D02*
X109814888Y-89304553D01*
X109814888Y-89304553D02*
X109643460Y-89385505D01*
X109643460Y-89385505D02*
X109557746Y-89466457D01*
X109557746Y-89466457D02*
X109472031Y-89628362D01*
X109472031Y-89628362D02*
X109472031Y-90114076D01*
X109472031Y-90114076D02*
X109557746Y-90275981D01*
X109557746Y-90275981D02*
X109643460Y-90356934D01*
X109643460Y-90356934D02*
X109814888Y-90437886D01*
X109814888Y-90437886D02*
X110072031Y-90437886D01*
X107929175Y-90437886D02*
X107929175Y-89547410D01*
X107929175Y-89547410D02*
X108014889Y-89385505D01*
X108014889Y-89385505D02*
X108186317Y-89304553D01*
X108186317Y-89304553D02*
X108529175Y-89304553D01*
X108529175Y-89304553D02*
X108700603Y-89385505D01*
X107929175Y-90356934D02*
X108100603Y-90437886D01*
X108100603Y-90437886D02*
X108529175Y-90437886D01*
X108529175Y-90437886D02*
X108700603Y-90356934D01*
X108700603Y-90356934D02*
X108786317Y-90195029D01*
X108786317Y-90195029D02*
X108786317Y-90033124D01*
X108786317Y-90033124D02*
X108700603Y-89871219D01*
X108700603Y-89871219D02*
X108529175Y-89790267D01*
X108529175Y-89790267D02*
X108100603Y-89790267D01*
X108100603Y-89790267D02*
X107929175Y-89709314D01*
X107072032Y-90437886D02*
X107072032Y-89304553D01*
X107072032Y-89628362D02*
X106986318Y-89466457D01*
X106986318Y-89466457D02*
X106900604Y-89385505D01*
X106900604Y-89385505D02*
X106729175Y-89304553D01*
X106729175Y-89304553D02*
X106557746Y-89304553D01*
X105186318Y-90437886D02*
X105186318Y-88737886D01*
X105186318Y-90356934D02*
X105357746Y-90437886D01*
X105357746Y-90437886D02*
X105700603Y-90437886D01*
X105700603Y-90437886D02*
X105872032Y-90356934D01*
X105872032Y-90356934D02*
X105957746Y-90275981D01*
X105957746Y-90275981D02*
X106043460Y-90114076D01*
X106043460Y-90114076D02*
X106043460Y-89628362D01*
X106043460Y-89628362D02*
X105957746Y-89466457D01*
X105957746Y-89466457D02*
X105872032Y-89385505D01*
X105872032Y-89385505D02*
X105700603Y-89304553D01*
X105700603Y-89304553D02*
X105357746Y-89304553D01*
X105357746Y-89304553D02*
X105186318Y-89385505D01*
X146843458Y-91636791D02*
X146757744Y-91555838D01*
X146757744Y-91555838D02*
X146586316Y-91474886D01*
X146586316Y-91474886D02*
X146157744Y-91474886D01*
X146157744Y-91474886D02*
X145986316Y-91555838D01*
X145986316Y-91555838D02*
X145900601Y-91636791D01*
X145900601Y-91636791D02*
X145814887Y-91798695D01*
X145814887Y-91798695D02*
X145814887Y-91960600D01*
X145814887Y-91960600D02*
X145900601Y-92203457D01*
X145900601Y-92203457D02*
X146929173Y-93174886D01*
X146929173Y-93174886D02*
X145814887Y-93174886D01*
X144700601Y-91474886D02*
X144529172Y-91474886D01*
X144529172Y-91474886D02*
X144357744Y-91555838D01*
X144357744Y-91555838D02*
X144272030Y-91636791D01*
X144272030Y-91636791D02*
X144186315Y-91798695D01*
X144186315Y-91798695D02*
X144100601Y-92122505D01*
X144100601Y-92122505D02*
X144100601Y-92527267D01*
X144100601Y-92527267D02*
X144186315Y-92851076D01*
X144186315Y-92851076D02*
X144272030Y-93012981D01*
X144272030Y-93012981D02*
X144357744Y-93093934D01*
X144357744Y-93093934D02*
X144529172Y-93174886D01*
X144529172Y-93174886D02*
X144700601Y-93174886D01*
X144700601Y-93174886D02*
X144872030Y-93093934D01*
X144872030Y-93093934D02*
X144957744Y-93012981D01*
X144957744Y-93012981D02*
X145043458Y-92851076D01*
X145043458Y-92851076D02*
X145129172Y-92527267D01*
X145129172Y-92527267D02*
X145129172Y-92122505D01*
X145129172Y-92122505D02*
X145043458Y-91798695D01*
X145043458Y-91798695D02*
X144957744Y-91636791D01*
X144957744Y-91636791D02*
X144872030Y-91555838D01*
X144872030Y-91555838D02*
X144700601Y-91474886D01*
X143414886Y-91636791D02*
X143329172Y-91555838D01*
X143329172Y-91555838D02*
X143157744Y-91474886D01*
X143157744Y-91474886D02*
X142729172Y-91474886D01*
X142729172Y-91474886D02*
X142557744Y-91555838D01*
X142557744Y-91555838D02*
X142472029Y-91636791D01*
X142472029Y-91636791D02*
X142386315Y-91798695D01*
X142386315Y-91798695D02*
X142386315Y-91960600D01*
X142386315Y-91960600D02*
X142472029Y-92203457D01*
X142472029Y-92203457D02*
X143500601Y-93174886D01*
X143500601Y-93174886D02*
X142386315Y-93174886D01*
X141786315Y-91474886D02*
X140672029Y-91474886D01*
X140672029Y-91474886D02*
X141272029Y-92122505D01*
X141272029Y-92122505D02*
X141014886Y-92122505D01*
X141014886Y-92122505D02*
X140843458Y-92203457D01*
X140843458Y-92203457D02*
X140757743Y-92284410D01*
X140757743Y-92284410D02*
X140672029Y-92446314D01*
X140672029Y-92446314D02*
X140672029Y-92851076D01*
X140672029Y-92851076D02*
X140757743Y-93012981D01*
X140757743Y-93012981D02*
X140843458Y-93093934D01*
X140843458Y-93093934D02*
X141014886Y-93174886D01*
X141014886Y-93174886D02*
X141529172Y-93174886D01*
X141529172Y-93174886D02*
X141700600Y-93093934D01*
X141700600Y-93093934D02*
X141786315Y-93012981D01*
X139900600Y-92527267D02*
X138529172Y-92527267D01*
X137329172Y-91474886D02*
X137157743Y-91474886D01*
X137157743Y-91474886D02*
X136986315Y-91555838D01*
X136986315Y-91555838D02*
X136900601Y-91636791D01*
X136900601Y-91636791D02*
X136814886Y-91798695D01*
X136814886Y-91798695D02*
X136729172Y-92122505D01*
X136729172Y-92122505D02*
X136729172Y-92527267D01*
X136729172Y-92527267D02*
X136814886Y-92851076D01*
X136814886Y-92851076D02*
X136900601Y-93012981D01*
X136900601Y-93012981D02*
X136986315Y-93093934D01*
X136986315Y-93093934D02*
X137157743Y-93174886D01*
X137157743Y-93174886D02*
X137329172Y-93174886D01*
X137329172Y-93174886D02*
X137500601Y-93093934D01*
X137500601Y-93093934D02*
X137586315Y-93012981D01*
X137586315Y-93012981D02*
X137672029Y-92851076D01*
X137672029Y-92851076D02*
X137757743Y-92527267D01*
X137757743Y-92527267D02*
X137757743Y-92122505D01*
X137757743Y-92122505D02*
X137672029Y-91798695D01*
X137672029Y-91798695D02*
X137586315Y-91636791D01*
X137586315Y-91636791D02*
X137500601Y-91555838D01*
X137500601Y-91555838D02*
X137329172Y-91474886D01*
X135700600Y-92203457D02*
X135872029Y-92122505D01*
X135872029Y-92122505D02*
X135957743Y-92041553D01*
X135957743Y-92041553D02*
X136043457Y-91879648D01*
X136043457Y-91879648D02*
X136043457Y-91798695D01*
X136043457Y-91798695D02*
X135957743Y-91636791D01*
X135957743Y-91636791D02*
X135872029Y-91555838D01*
X135872029Y-91555838D02*
X135700600Y-91474886D01*
X135700600Y-91474886D02*
X135357743Y-91474886D01*
X135357743Y-91474886D02*
X135186315Y-91555838D01*
X135186315Y-91555838D02*
X135100600Y-91636791D01*
X135100600Y-91636791D02*
X135014886Y-91798695D01*
X135014886Y-91798695D02*
X135014886Y-91879648D01*
X135014886Y-91879648D02*
X135100600Y-92041553D01*
X135100600Y-92041553D02*
X135186315Y-92122505D01*
X135186315Y-92122505D02*
X135357743Y-92203457D01*
X135357743Y-92203457D02*
X135700600Y-92203457D01*
X135700600Y-92203457D02*
X135872029Y-92284410D01*
X135872029Y-92284410D02*
X135957743Y-92365362D01*
X135957743Y-92365362D02*
X136043457Y-92527267D01*
X136043457Y-92527267D02*
X136043457Y-92851076D01*
X136043457Y-92851076D02*
X135957743Y-93012981D01*
X135957743Y-93012981D02*
X135872029Y-93093934D01*
X135872029Y-93093934D02*
X135700600Y-93174886D01*
X135700600Y-93174886D02*
X135357743Y-93174886D01*
X135357743Y-93174886D02*
X135186315Y-93093934D01*
X135186315Y-93093934D02*
X135100600Y-93012981D01*
X135100600Y-93012981D02*
X135014886Y-92851076D01*
X135014886Y-92851076D02*
X135014886Y-92527267D01*
X135014886Y-92527267D02*
X135100600Y-92365362D01*
X135100600Y-92365362D02*
X135186315Y-92284410D01*
X135186315Y-92284410D02*
X135357743Y-92203457D01*
X130472028Y-93174886D02*
X131072028Y-92365362D01*
X131500599Y-93174886D02*
X131500599Y-91474886D01*
X131500599Y-91474886D02*
X130814885Y-91474886D01*
X130814885Y-91474886D02*
X130643456Y-91555838D01*
X130643456Y-91555838D02*
X130557742Y-91636791D01*
X130557742Y-91636791D02*
X130472028Y-91798695D01*
X130472028Y-91798695D02*
X130472028Y-92041553D01*
X130472028Y-92041553D02*
X130557742Y-92203457D01*
X130557742Y-92203457D02*
X130643456Y-92284410D01*
X130643456Y-92284410D02*
X130814885Y-92365362D01*
X130814885Y-92365362D02*
X131500599Y-92365362D01*
X129014885Y-93093934D02*
X129186313Y-93174886D01*
X129186313Y-93174886D02*
X129529171Y-93174886D01*
X129529171Y-93174886D02*
X129700599Y-93093934D01*
X129700599Y-93093934D02*
X129786313Y-92932029D01*
X129786313Y-92932029D02*
X129786313Y-92284410D01*
X129786313Y-92284410D02*
X129700599Y-92122505D01*
X129700599Y-92122505D02*
X129529171Y-92041553D01*
X129529171Y-92041553D02*
X129186313Y-92041553D01*
X129186313Y-92041553D02*
X129014885Y-92122505D01*
X129014885Y-92122505D02*
X128929171Y-92284410D01*
X128929171Y-92284410D02*
X128929171Y-92446314D01*
X128929171Y-92446314D02*
X129786313Y-92608219D01*
X128329171Y-92041553D02*
X127900599Y-93174886D01*
X127900599Y-93174886D02*
X127472028Y-92041553D01*
X124643456Y-91474886D02*
X124986313Y-91474886D01*
X124986313Y-91474886D02*
X125157741Y-91555838D01*
X125157741Y-91555838D02*
X125243456Y-91636791D01*
X125243456Y-91636791D02*
X125414884Y-91879648D01*
X125414884Y-91879648D02*
X125500598Y-92203457D01*
X125500598Y-92203457D02*
X125500598Y-92851076D01*
X125500598Y-92851076D02*
X125414884Y-93012981D01*
X125414884Y-93012981D02*
X125329170Y-93093934D01*
X125329170Y-93093934D02*
X125157741Y-93174886D01*
X125157741Y-93174886D02*
X124814884Y-93174886D01*
X124814884Y-93174886D02*
X124643456Y-93093934D01*
X124643456Y-93093934D02*
X124557741Y-93012981D01*
X124557741Y-93012981D02*
X124472027Y-92851076D01*
X124472027Y-92851076D02*
X124472027Y-92446314D01*
X124472027Y-92446314D02*
X124557741Y-92284410D01*
X124557741Y-92284410D02*
X124643456Y-92203457D01*
X124643456Y-92203457D02*
X124814884Y-92122505D01*
X124814884Y-92122505D02*
X125157741Y-92122505D01*
X125157741Y-92122505D02*
X125329170Y-92203457D01*
X125329170Y-92203457D02*
X125414884Y-92284410D01*
X125414884Y-92284410D02*
X125500598Y-92446314D01*
X123700598Y-93012981D02*
X123614884Y-93093934D01*
X123614884Y-93093934D02*
X123700598Y-93174886D01*
X123700598Y-93174886D02*
X123786312Y-93093934D01*
X123786312Y-93093934D02*
X123700598Y-93012981D01*
X123700598Y-93012981D02*
X123700598Y-93174886D01*
X121900598Y-93174886D02*
X122929169Y-93174886D01*
X122414884Y-93174886D02*
X122414884Y-91474886D01*
X122414884Y-91474886D02*
X122586312Y-91717743D01*
X122586312Y-91717743D02*
X122757741Y-91879648D01*
X122757741Y-91879648D02*
X122929169Y-91960600D01*
D10*
X68162438Y-53565588D02*
X68114819Y-53470350D01*
X68114819Y-53470350D02*
X68114819Y-53327493D01*
X68114819Y-53327493D02*
X68162438Y-53184636D01*
X68162438Y-53184636D02*
X68257676Y-53089398D01*
X68257676Y-53089398D02*
X68352914Y-53041779D01*
X68352914Y-53041779D02*
X68543390Y-52994160D01*
X68543390Y-52994160D02*
X68686247Y-52994160D01*
X68686247Y-52994160D02*
X68876723Y-53041779D01*
X68876723Y-53041779D02*
X68971961Y-53089398D01*
X68971961Y-53089398D02*
X69067200Y-53184636D01*
X69067200Y-53184636D02*
X69114819Y-53327493D01*
X69114819Y-53327493D02*
X69114819Y-53422731D01*
X69114819Y-53422731D02*
X69067200Y-53565588D01*
X69067200Y-53565588D02*
X69019580Y-53613207D01*
X69019580Y-53613207D02*
X68686247Y-53613207D01*
X68686247Y-53613207D02*
X68686247Y-53422731D01*
%TO.C,J1*%
X121374819Y-143176666D02*
X122089104Y-143176666D01*
X122089104Y-143176666D02*
X122231961Y-143129047D01*
X122231961Y-143129047D02*
X122327200Y-143033809D01*
X122327200Y-143033809D02*
X122374819Y-142890952D01*
X122374819Y-142890952D02*
X122374819Y-142795714D01*
X122374819Y-144176666D02*
X122374819Y-143605238D01*
X122374819Y-143890952D02*
X121374819Y-143890952D01*
X121374819Y-143890952D02*
X121517676Y-143795714D01*
X121517676Y-143795714D02*
X121612914Y-143700476D01*
X121612914Y-143700476D02*
X121660533Y-143605238D01*
%TO.C,C4*%
X77001666Y-61827580D02*
X77049285Y-61875200D01*
X77049285Y-61875200D02*
X77192142Y-61922819D01*
X77192142Y-61922819D02*
X77287380Y-61922819D01*
X77287380Y-61922819D02*
X77430237Y-61875200D01*
X77430237Y-61875200D02*
X77525475Y-61779961D01*
X77525475Y-61779961D02*
X77573094Y-61684723D01*
X77573094Y-61684723D02*
X77620713Y-61494247D01*
X77620713Y-61494247D02*
X77620713Y-61351390D01*
X77620713Y-61351390D02*
X77573094Y-61160914D01*
X77573094Y-61160914D02*
X77525475Y-61065676D01*
X77525475Y-61065676D02*
X77430237Y-60970438D01*
X77430237Y-60970438D02*
X77287380Y-60922819D01*
X77287380Y-60922819D02*
X77192142Y-60922819D01*
X77192142Y-60922819D02*
X77049285Y-60970438D01*
X77049285Y-60970438D02*
X77001666Y-61018057D01*
X76144523Y-61256152D02*
X76144523Y-61922819D01*
X76382618Y-60875200D02*
X76620713Y-61589485D01*
X76620713Y-61589485D02*
X76001666Y-61589485D01*
%TO.C,J3*%
X121374819Y-56181666D02*
X122089104Y-56181666D01*
X122089104Y-56181666D02*
X122231961Y-56134047D01*
X122231961Y-56134047D02*
X122327200Y-56038809D01*
X122327200Y-56038809D02*
X122374819Y-55895952D01*
X122374819Y-55895952D02*
X122374819Y-55800714D01*
X121374819Y-56562619D02*
X121374819Y-57181666D01*
X121374819Y-57181666D02*
X121755771Y-56848333D01*
X121755771Y-56848333D02*
X121755771Y-56991190D01*
X121755771Y-56991190D02*
X121803390Y-57086428D01*
X121803390Y-57086428D02*
X121851009Y-57134047D01*
X121851009Y-57134047D02*
X121946247Y-57181666D01*
X121946247Y-57181666D02*
X122184342Y-57181666D01*
X122184342Y-57181666D02*
X122279580Y-57134047D01*
X122279580Y-57134047D02*
X122327200Y-57086428D01*
X122327200Y-57086428D02*
X122374819Y-56991190D01*
X122374819Y-56991190D02*
X122374819Y-56705476D01*
X122374819Y-56705476D02*
X122327200Y-56610238D01*
X122327200Y-56610238D02*
X122279580Y-56562619D01*
%TO.C,J4*%
X64859819Y-56181666D02*
X65574104Y-56181666D01*
X65574104Y-56181666D02*
X65716961Y-56134047D01*
X65716961Y-56134047D02*
X65812200Y-56038809D01*
X65812200Y-56038809D02*
X65859819Y-55895952D01*
X65859819Y-55895952D02*
X65859819Y-55800714D01*
X65193152Y-57086428D02*
X65859819Y-57086428D01*
X64812200Y-56848333D02*
X65526485Y-56610238D01*
X65526485Y-56610238D02*
X65526485Y-57229285D01*
%TO.C,C3*%
X133770666Y-61319580D02*
X133818285Y-61367200D01*
X133818285Y-61367200D02*
X133961142Y-61414819D01*
X133961142Y-61414819D02*
X134056380Y-61414819D01*
X134056380Y-61414819D02*
X134199237Y-61367200D01*
X134199237Y-61367200D02*
X134294475Y-61271961D01*
X134294475Y-61271961D02*
X134342094Y-61176723D01*
X134342094Y-61176723D02*
X134389713Y-60986247D01*
X134389713Y-60986247D02*
X134389713Y-60843390D01*
X134389713Y-60843390D02*
X134342094Y-60652914D01*
X134342094Y-60652914D02*
X134294475Y-60557676D01*
X134294475Y-60557676D02*
X134199237Y-60462438D01*
X134199237Y-60462438D02*
X134056380Y-60414819D01*
X134056380Y-60414819D02*
X133961142Y-60414819D01*
X133961142Y-60414819D02*
X133818285Y-60462438D01*
X133818285Y-60462438D02*
X133770666Y-60510057D01*
X133437332Y-60414819D02*
X132818285Y-60414819D01*
X132818285Y-60414819D02*
X133151618Y-60795771D01*
X133151618Y-60795771D02*
X133008761Y-60795771D01*
X133008761Y-60795771D02*
X132913523Y-60843390D01*
X132913523Y-60843390D02*
X132865904Y-60891009D01*
X132865904Y-60891009D02*
X132818285Y-60986247D01*
X132818285Y-60986247D02*
X132818285Y-61224342D01*
X132818285Y-61224342D02*
X132865904Y-61319580D01*
X132865904Y-61319580D02*
X132913523Y-61367200D01*
X132913523Y-61367200D02*
X133008761Y-61414819D01*
X133008761Y-61414819D02*
X133294475Y-61414819D01*
X133294475Y-61414819D02*
X133389713Y-61367200D01*
X133389713Y-61367200D02*
X133437332Y-61319580D01*
%TO.C,J2*%
X64224819Y-143131666D02*
X64939104Y-143131666D01*
X64939104Y-143131666D02*
X65081961Y-143084047D01*
X65081961Y-143084047D02*
X65177200Y-142988809D01*
X65177200Y-142988809D02*
X65224819Y-142845952D01*
X65224819Y-142845952D02*
X65224819Y-142750714D01*
X64320057Y-143560238D02*
X64272438Y-143607857D01*
X64272438Y-143607857D02*
X64224819Y-143703095D01*
X64224819Y-143703095D02*
X64224819Y-143941190D01*
X64224819Y-143941190D02*
X64272438Y-144036428D01*
X64272438Y-144036428D02*
X64320057Y-144084047D01*
X64320057Y-144084047D02*
X64415295Y-144131666D01*
X64415295Y-144131666D02*
X64510533Y-144131666D01*
X64510533Y-144131666D02*
X64653390Y-144084047D01*
X64653390Y-144084047D02*
X65224819Y-143512619D01*
X65224819Y-143512619D02*
X65224819Y-144131666D01*
%TO.C,C1*%
X132246666Y-131931580D02*
X132294285Y-131979200D01*
X132294285Y-131979200D02*
X132437142Y-132026819D01*
X132437142Y-132026819D02*
X132532380Y-132026819D01*
X132532380Y-132026819D02*
X132675237Y-131979200D01*
X132675237Y-131979200D02*
X132770475Y-131883961D01*
X132770475Y-131883961D02*
X132818094Y-131788723D01*
X132818094Y-131788723D02*
X132865713Y-131598247D01*
X132865713Y-131598247D02*
X132865713Y-131455390D01*
X132865713Y-131455390D02*
X132818094Y-131264914D01*
X132818094Y-131264914D02*
X132770475Y-131169676D01*
X132770475Y-131169676D02*
X132675237Y-131074438D01*
X132675237Y-131074438D02*
X132532380Y-131026819D01*
X132532380Y-131026819D02*
X132437142Y-131026819D01*
X132437142Y-131026819D02*
X132294285Y-131074438D01*
X132294285Y-131074438D02*
X132246666Y-131122057D01*
X131294285Y-132026819D02*
X131865713Y-132026819D01*
X131579999Y-132026819D02*
X131579999Y-131026819D01*
X131579999Y-131026819D02*
X131675237Y-131169676D01*
X131675237Y-131169676D02*
X131770475Y-131264914D01*
X131770475Y-131264914D02*
X131865713Y-131312533D01*
%TO.C,C2*%
X75858666Y-132947580D02*
X75906285Y-132995200D01*
X75906285Y-132995200D02*
X76049142Y-133042819D01*
X76049142Y-133042819D02*
X76144380Y-133042819D01*
X76144380Y-133042819D02*
X76287237Y-132995200D01*
X76287237Y-132995200D02*
X76382475Y-132899961D01*
X76382475Y-132899961D02*
X76430094Y-132804723D01*
X76430094Y-132804723D02*
X76477713Y-132614247D01*
X76477713Y-132614247D02*
X76477713Y-132471390D01*
X76477713Y-132471390D02*
X76430094Y-132280914D01*
X76430094Y-132280914D02*
X76382475Y-132185676D01*
X76382475Y-132185676D02*
X76287237Y-132090438D01*
X76287237Y-132090438D02*
X76144380Y-132042819D01*
X76144380Y-132042819D02*
X76049142Y-132042819D01*
X76049142Y-132042819D02*
X75906285Y-132090438D01*
X75906285Y-132090438D02*
X75858666Y-132138057D01*
X75477713Y-132138057D02*
X75430094Y-132090438D01*
X75430094Y-132090438D02*
X75334856Y-132042819D01*
X75334856Y-132042819D02*
X75096761Y-132042819D01*
X75096761Y-132042819D02*
X75001523Y-132090438D01*
X75001523Y-132090438D02*
X74953904Y-132138057D01*
X74953904Y-132138057D02*
X74906285Y-132233295D01*
X74906285Y-132233295D02*
X74906285Y-132328533D01*
X74906285Y-132328533D02*
X74953904Y-132471390D01*
X74953904Y-132471390D02*
X75525332Y-133042819D01*
X75525332Y-133042819D02*
X74906285Y-133042819D01*
D12*
%TO.C,U4*%
X65058580Y-65531904D02*
X64249057Y-65531904D01*
X64249057Y-65531904D02*
X64153819Y-65484285D01*
X64153819Y-65484285D02*
X64106200Y-65436666D01*
X64106200Y-65436666D02*
X64058580Y-65341428D01*
X64058580Y-65341428D02*
X64058580Y-65150952D01*
X64058580Y-65150952D02*
X64106200Y-65055714D01*
X64106200Y-65055714D02*
X64153819Y-65008095D01*
X64153819Y-65008095D02*
X64249057Y-64960476D01*
X64249057Y-64960476D02*
X65058580Y-64960476D01*
X64725247Y-64055714D02*
X64058580Y-64055714D01*
X65106200Y-64293809D02*
X64391914Y-64531904D01*
X64391914Y-64531904D02*
X64391914Y-63912857D01*
%TO.C,U1*%
X70583080Y-136537604D02*
X69773557Y-136537604D01*
X69773557Y-136537604D02*
X69678319Y-136489985D01*
X69678319Y-136489985D02*
X69630700Y-136442366D01*
X69630700Y-136442366D02*
X69583080Y-136347128D01*
X69583080Y-136347128D02*
X69583080Y-136156652D01*
X69583080Y-136156652D02*
X69630700Y-136061414D01*
X69630700Y-136061414D02*
X69678319Y-136013795D01*
X69678319Y-136013795D02*
X69773557Y-135966176D01*
X69773557Y-135966176D02*
X70583080Y-135966176D01*
X69583080Y-134966176D02*
X69583080Y-135537604D01*
X69583080Y-135251890D02*
X70583080Y-135251890D01*
X70583080Y-135251890D02*
X70440223Y-135347128D01*
X70440223Y-135347128D02*
X70344985Y-135442366D01*
X70344985Y-135442366D02*
X70297366Y-135537604D01*
%TO.C,U2*%
X127733080Y-136029604D02*
X126923557Y-136029604D01*
X126923557Y-136029604D02*
X126828319Y-135981985D01*
X126828319Y-135981985D02*
X126780700Y-135934366D01*
X126780700Y-135934366D02*
X126733080Y-135839128D01*
X126733080Y-135839128D02*
X126733080Y-135648652D01*
X126733080Y-135648652D02*
X126780700Y-135553414D01*
X126780700Y-135553414D02*
X126828319Y-135505795D01*
X126828319Y-135505795D02*
X126923557Y-135458176D01*
X126923557Y-135458176D02*
X127733080Y-135458176D01*
X127637842Y-135029604D02*
X127685461Y-134981985D01*
X127685461Y-134981985D02*
X127733080Y-134886747D01*
X127733080Y-134886747D02*
X127733080Y-134648652D01*
X127733080Y-134648652D02*
X127685461Y-134553414D01*
X127685461Y-134553414D02*
X127637842Y-134505795D01*
X127637842Y-134505795D02*
X127542604Y-134458176D01*
X127542604Y-134458176D02*
X127447366Y-134458176D01*
X127447366Y-134458176D02*
X127304509Y-134505795D01*
X127304509Y-134505795D02*
X126733080Y-135077223D01*
X126733080Y-135077223D02*
X126733080Y-134458176D01*
%TO.C,U3*%
X122462580Y-64769904D02*
X121653057Y-64769904D01*
X121653057Y-64769904D02*
X121557819Y-64722285D01*
X121557819Y-64722285D02*
X121510200Y-64674666D01*
X121510200Y-64674666D02*
X121462580Y-64579428D01*
X121462580Y-64579428D02*
X121462580Y-64388952D01*
X121462580Y-64388952D02*
X121510200Y-64293714D01*
X121510200Y-64293714D02*
X121557819Y-64246095D01*
X121557819Y-64246095D02*
X121653057Y-64198476D01*
X121653057Y-64198476D02*
X122462580Y-64198476D01*
X122462580Y-63817523D02*
X122462580Y-63198476D01*
X122462580Y-63198476D02*
X122081628Y-63531809D01*
X122081628Y-63531809D02*
X122081628Y-63388952D01*
X122081628Y-63388952D02*
X122034009Y-63293714D01*
X122034009Y-63293714D02*
X121986390Y-63246095D01*
X121986390Y-63246095D02*
X121891152Y-63198476D01*
X121891152Y-63198476D02*
X121653057Y-63198476D01*
X121653057Y-63198476D02*
X121557819Y-63246095D01*
X121557819Y-63246095D02*
X121510200Y-63293714D01*
X121510200Y-63293714D02*
X121462580Y-63388952D01*
X121462580Y-63388952D02*
X121462580Y-63674666D01*
X121462580Y-63674666D02*
X121510200Y-63769904D01*
X121510200Y-63769904D02*
X121557819Y-63817523D01*
D13*
%TO.C,J1*%
X128270000Y-142180000D02*
X126940000Y-142180000D01*
X126955000Y-142225000D02*
X132095000Y-142225000D01*
X126955000Y-142225000D02*
X126955000Y-144885000D01*
X132095000Y-142225000D02*
X132095000Y-144885000D01*
X122945000Y-142235000D02*
X122970000Y-146310000D01*
X126955000Y-144885000D02*
X132095000Y-144885000D01*
%TO.C,C4*%
X77546252Y-64702500D02*
X76123748Y-64702500D01*
X77546252Y-62882500D02*
X76123748Y-62882500D01*
%TO.C,J3*%
X128270000Y-55185000D02*
X126940000Y-55185000D01*
X126955000Y-55230000D02*
X132095000Y-55230000D01*
X126955000Y-55230000D02*
X126955000Y-57890000D01*
X132095000Y-55230000D02*
X132095000Y-57890000D01*
X122945000Y-55240000D02*
X122970000Y-59315000D01*
X126955000Y-57890000D02*
X132095000Y-57890000D01*
%TO.C,J4*%
X71800000Y-55140000D02*
X70470000Y-55140000D01*
X70485000Y-55185000D02*
X75625000Y-55185000D01*
X70485000Y-55185000D02*
X70485000Y-57845000D01*
X75625000Y-55185000D02*
X75625000Y-57845000D01*
X66475000Y-55195000D02*
X66500000Y-59270000D01*
X70485000Y-57845000D02*
X75625000Y-57845000D01*
%TO.C,C3*%
X133718752Y-64410000D02*
X132296248Y-64410000D01*
X133718752Y-62590000D02*
X132296248Y-62590000D01*
%TO.C,J2*%
X71800000Y-142135000D02*
X70470000Y-142135000D01*
X70485000Y-142180000D02*
X75625000Y-142180000D01*
X70485000Y-142180000D02*
X70485000Y-144840000D01*
X75625000Y-142180000D02*
X75625000Y-144840000D01*
X66475000Y-142190000D02*
X66500000Y-146265000D01*
X70485000Y-144840000D02*
X75625000Y-144840000D01*
%TO.C,C1*%
X133337752Y-136800000D02*
X131915248Y-136800000D01*
X133337752Y-134980000D02*
X131915248Y-134980000D01*
%TO.C,C2*%
X76911252Y-137435000D02*
X75488748Y-137435000D01*
X76911252Y-135615000D02*
X75488748Y-135615000D01*
D12*
%TO.C,U4*%
X67254800Y-67767200D02*
X67254800Y-67868800D01*
X68220000Y-67564000D02*
X68728000Y-67564000D01*
X69794800Y-66395600D02*
X69794800Y-65633600D01*
X69794800Y-64465200D02*
X69794800Y-63652400D01*
X68220000Y-62484000D02*
X68728000Y-62484000D01*
X67254800Y-62280800D02*
X67254800Y-62179200D01*
%TO.C,U1*%
X65595500Y-138620500D02*
X65595500Y-138722100D01*
X66560700Y-138417300D02*
X67068700Y-138417300D01*
X68135500Y-137248900D02*
X68135500Y-136486900D01*
X68135500Y-135318500D02*
X68135500Y-134505700D01*
X66560700Y-133337300D02*
X67068700Y-133337300D01*
X65595500Y-133134100D02*
X65595500Y-133032500D01*
%TO.C,U2*%
X122491500Y-132626100D02*
X122491500Y-132524500D01*
X123456700Y-132829300D02*
X123964700Y-132829300D01*
X125031500Y-134810500D02*
X125031500Y-133997700D01*
X125031500Y-136740900D02*
X125031500Y-135978900D01*
X123456700Y-137909300D02*
X123964700Y-137909300D01*
X122491500Y-138112500D02*
X122491500Y-138214100D01*
%TO.C,U3*%
X123825000Y-67005200D02*
X123825000Y-67106800D01*
X124790200Y-66802000D02*
X125298200Y-66802000D01*
X126365000Y-65633600D02*
X126365000Y-64871600D01*
X126365000Y-63703200D02*
X126365000Y-62890400D01*
X124790200Y-61722000D02*
X125298200Y-61722000D01*
X123825000Y-61518800D02*
X123825000Y-61417200D01*
%TD*%
M02*
