%TF.GenerationSoftware,KiCad,Pcbnew,7.0.5-0*%
%TF.CreationDate,2023-11-28T16:07:23-05:00*%
%TF.ProjectId,quad_sipm,71756164-5f73-4697-906d-2e6b69636164,rev?*%
%TF.SameCoordinates,Original*%
%TF.FileFunction,Copper,L2,Bot*%
%TF.FilePolarity,Positive*%
%FSLAX46Y46*%
G04 Gerber Fmt 4.6, Leading zero omitted, Abs format (unit mm)*
G04 Created by KiCad (PCBNEW 7.0.5-0) date 2023-11-28 16:07:23*
%MOMM*%
%LPD*%
G01*
G04 APERTURE LIST*
G04 Aperture macros list*
%AMRoundRect*
0 Rectangle with rounded corners*
0 $1 Rounding radius*
0 $2 $3 $4 $5 $6 $7 $8 $9 X,Y pos of 4 corners*
0 Add a 4 corners polygon primitive as box body*
4,1,4,$2,$3,$4,$5,$6,$7,$8,$9,$2,$3,0*
0 Add four circle primitives for the rounded corners*
1,1,$1+$1,$2,$3*
1,1,$1+$1,$4,$5*
1,1,$1+$1,$6,$7*
1,1,$1+$1,$8,$9*
0 Add four rect primitives between the rounded corners*
20,1,$1+$1,$2,$3,$4,$5,0*
20,1,$1+$1,$4,$5,$6,$7,0*
20,1,$1+$1,$6,$7,$8,$9,0*
20,1,$1+$1,$8,$9,$2,$3,0*%
%AMFreePoly0*
4,1,5,0.508000,-1.498600,-0.508000,-1.498600,-0.508000,1.498600,0.508000,1.498600,0.508000,-1.498600,0.508000,-1.498600,$1*%
G04 Aperture macros list end*
%TA.AperFunction,ComponentPad*%
%ADD10C,16.800000*%
%TD*%
%TA.AperFunction,ComponentPad*%
%ADD11C,12.000000*%
%TD*%
%TA.AperFunction,ComponentPad*%
%ADD12R,1.700000X1.700000*%
%TD*%
%TA.AperFunction,ComponentPad*%
%ADD13O,1.700000X1.700000*%
%TD*%
%TA.AperFunction,SMDPad,CuDef*%
%ADD14RoundRect,0.250000X0.412500X0.650000X-0.412500X0.650000X-0.412500X-0.650000X0.412500X-0.650000X0*%
%TD*%
%TA.AperFunction,SMDPad,CuDef*%
%ADD15R,1.108800X1.625600*%
%TD*%
%TA.AperFunction,SMDPad,CuDef*%
%ADD16R,1.117600X1.727200*%
%TD*%
%TA.AperFunction,SMDPad,CuDef*%
%ADD17R,1.143000X5.207000*%
%TD*%
%TA.AperFunction,SMDPad,CuDef*%
%ADD18FreePoly0,90.000000*%
%TD*%
%TA.AperFunction,ViaPad*%
%ADD19C,0.800000*%
%TD*%
%TA.AperFunction,Conductor*%
%ADD20C,0.635000*%
%TD*%
%TA.AperFunction,Conductor*%
%ADD21C,0.250000*%
%TD*%
G04 APERTURE END LIST*
D10*
%TO.P,H2,1*%
%TO.N,N/C*%
X100000000Y-100000000D03*
%TD*%
D11*
%TO.P,H3,1*%
%TO.N,N/C*%
X100000000Y-137000000D03*
%TD*%
%TO.P,H4,1*%
%TO.N,N/C*%
X137000000Y-100000000D03*
%TD*%
%TO.P,H5,1*%
%TO.N,N/C*%
X63000000Y-100000000D03*
%TD*%
%TO.P,H1,1*%
%TO.N,N/C*%
X100000000Y-63000000D03*
%TD*%
D12*
%TO.P,J7,1,Pin_1*%
%TO.N,unconnected-(J7-Pin_1-Pad1)*%
X139146000Y-83820000D03*
D13*
%TO.P,J7,2,Pin_2*%
%TO.N,Net-(J3-Pin_3)*%
X139146000Y-81280000D03*
%TO.P,J7,3,Pin_3*%
%TO.N,unconnected-(J7-Pin_3-Pad3)*%
X139146000Y-78740000D03*
%TO.P,J7,4,Pin_4*%
%TO.N,Net-(J7-Pin_2-Pad12)*%
X139146000Y-76200000D03*
%TO.P,J7,5,Pin_5*%
%TO.N,unconnected-(J7-Pin_5-Pad5)*%
X139146000Y-73660000D03*
%TO.P,J7,6,Pin_6*%
%TO.N,unconnected-(J7-Pin_6-Pad6)*%
X139146000Y-71120000D03*
%TO.P,J7,7,Pin_7*%
%TO.N,Net-(J3-Pin_3)*%
X139146000Y-68580000D03*
%TO.P,J7,8,Pin_8*%
%TO.N,unconnected-(J7-Pin_8-Pad8)*%
X139146000Y-66040000D03*
%TO.P,J7,9,Pin_9*%
%TO.N,Net-(J7-Pin_2-Pad12)*%
X139146000Y-63500000D03*
%TO.P,J7,10,Pin_10*%
%TO.N,unconnected-(J7-Pin_10-Pad10)*%
X139146000Y-60960000D03*
D12*
%TO.P,J7,11,Pin_1*%
%TO.N,unconnected-(J7-Pin_1-Pad11)*%
X116286000Y-83820000D03*
D13*
%TO.P,J7,12,Pin_2*%
%TO.N,Net-(J7-Pin_2-Pad12)*%
X116286000Y-81280000D03*
%TO.P,J7,13,Pin_3*%
%TO.N,unconnected-(J7-Pin_3-Pad13)*%
X116286000Y-78740000D03*
%TO.P,J7,14,Pin_4*%
%TO.N,Net-(J3-Pin_3)*%
X116286000Y-76200000D03*
%TO.P,J7,15,Pin_5*%
%TO.N,unconnected-(J7-Pin_5-Pad15)*%
X116286000Y-73660000D03*
%TO.P,J7,16,Pin_6*%
%TO.N,unconnected-(J7-Pin_6-Pad16)*%
X116286000Y-71120000D03*
%TO.P,J7,17,Pin_7*%
%TO.N,Net-(J7-Pin_2-Pad12)*%
X116286000Y-68580000D03*
%TO.P,J7,18,Pin_8*%
%TO.N,unconnected-(J7-Pin_8-Pad18)*%
X116286000Y-66040000D03*
%TO.P,J7,19,Pin_9*%
%TO.N,Net-(J3-Pin_3)*%
X116286000Y-63500000D03*
%TO.P,J7,20,Pin_10*%
%TO.N,unconnected-(J7-Pin_10-Pad20)*%
X116286000Y-60960000D03*
%TD*%
D12*
%TO.P,J8,1,Pin_1*%
%TO.N,unconnected-(J8-Pin_1-Pad1)*%
X83774000Y-83820000D03*
D13*
%TO.P,J8,2,Pin_2*%
%TO.N,Net-(J4-Pin_3)*%
X83774000Y-81280000D03*
%TO.P,J8,3,Pin_3*%
%TO.N,unconnected-(J8-Pin_3-Pad3)*%
X83774000Y-78740000D03*
%TO.P,J8,4,Pin_4*%
%TO.N,Net-(J8-Pin_2-Pad12)*%
X83774000Y-76200000D03*
%TO.P,J8,5,Pin_5*%
%TO.N,unconnected-(J8-Pin_5-Pad5)*%
X83774000Y-73660000D03*
%TO.P,J8,6,Pin_6*%
%TO.N,unconnected-(J8-Pin_6-Pad6)*%
X83774000Y-71120000D03*
%TO.P,J8,7,Pin_7*%
%TO.N,Net-(J4-Pin_3)*%
X83774000Y-68580000D03*
%TO.P,J8,8,Pin_8*%
%TO.N,unconnected-(J8-Pin_8-Pad8)*%
X83774000Y-66040000D03*
%TO.P,J8,9,Pin_9*%
%TO.N,Net-(J8-Pin_2-Pad12)*%
X83774000Y-63500000D03*
%TO.P,J8,10,Pin_10*%
%TO.N,unconnected-(J8-Pin_10-Pad10)*%
X83774000Y-60960000D03*
D12*
%TO.P,J8,11,Pin_1*%
%TO.N,unconnected-(J8-Pin_1-Pad11)*%
X60914000Y-83820000D03*
D13*
%TO.P,J8,12,Pin_2*%
%TO.N,Net-(J8-Pin_2-Pad12)*%
X60914000Y-81280000D03*
%TO.P,J8,13,Pin_3*%
%TO.N,unconnected-(J8-Pin_3-Pad13)*%
X60914000Y-78740000D03*
%TO.P,J8,14,Pin_4*%
%TO.N,Net-(J4-Pin_3)*%
X60914000Y-76200000D03*
%TO.P,J8,15,Pin_5*%
%TO.N,unconnected-(J8-Pin_5-Pad15)*%
X60914000Y-73660000D03*
%TO.P,J8,16,Pin_6*%
%TO.N,unconnected-(J8-Pin_6-Pad16)*%
X60914000Y-71120000D03*
%TO.P,J8,17,Pin_7*%
%TO.N,Net-(J8-Pin_2-Pad12)*%
X60914000Y-68580000D03*
%TO.P,J8,18,Pin_8*%
%TO.N,unconnected-(J8-Pin_8-Pad18)*%
X60914000Y-66040000D03*
%TO.P,J8,19,Pin_9*%
%TO.N,Net-(J4-Pin_3)*%
X60914000Y-63500000D03*
%TO.P,J8,20,Pin_10*%
%TO.N,unconnected-(J8-Pin_10-Pad20)*%
X60914000Y-60960000D03*
%TD*%
%TO.P,J6,20,Pin_10*%
%TO.N,unconnected-(J6-Pin_10-Pad20)*%
X60914000Y-116332000D03*
%TO.P,J6,19,Pin_9*%
%TO.N,Net-(J2-Pin_3)*%
X60914000Y-118872000D03*
%TO.P,J6,18,Pin_8*%
%TO.N,unconnected-(J6-Pin_8-Pad18)*%
X60914000Y-121412000D03*
%TO.P,J6,17,Pin_7*%
%TO.N,Net-(J6-Pin_2-Pad12)*%
X60914000Y-123952000D03*
%TO.P,J6,16,Pin_6*%
%TO.N,unconnected-(J6-Pin_6-Pad16)*%
X60914000Y-126492000D03*
%TO.P,J6,15,Pin_5*%
%TO.N,unconnected-(J6-Pin_5-Pad15)*%
X60914000Y-129032000D03*
%TO.P,J6,14,Pin_4*%
%TO.N,Net-(J2-Pin_3)*%
X60914000Y-131572000D03*
%TO.P,J6,13,Pin_3*%
%TO.N,unconnected-(J6-Pin_3-Pad13)*%
X60914000Y-134112000D03*
%TO.P,J6,12,Pin_2*%
%TO.N,Net-(J6-Pin_2-Pad12)*%
X60914000Y-136652000D03*
D12*
%TO.P,J6,11,Pin_1*%
%TO.N,unconnected-(J6-Pin_1-Pad11)*%
X60914000Y-139192000D03*
D13*
%TO.P,J6,10,Pin_10*%
%TO.N,unconnected-(J6-Pin_10-Pad10)*%
X83774000Y-116332000D03*
%TO.P,J6,9,Pin_9*%
%TO.N,Net-(J6-Pin_2-Pad12)*%
X83774000Y-118872000D03*
%TO.P,J6,8,Pin_8*%
%TO.N,unconnected-(J6-Pin_8-Pad8)*%
X83774000Y-121412000D03*
%TO.P,J6,7,Pin_7*%
%TO.N,Net-(J2-Pin_3)*%
X83774000Y-123952000D03*
%TO.P,J6,6,Pin_6*%
%TO.N,unconnected-(J6-Pin_6-Pad6)*%
X83774000Y-126492000D03*
%TO.P,J6,5,Pin_5*%
%TO.N,unconnected-(J6-Pin_5-Pad5)*%
X83774000Y-129032000D03*
%TO.P,J6,4,Pin_4*%
%TO.N,Net-(J6-Pin_2-Pad12)*%
X83774000Y-131572000D03*
%TO.P,J6,3,Pin_3*%
%TO.N,unconnected-(J6-Pin_3-Pad3)*%
X83774000Y-134112000D03*
%TO.P,J6,2,Pin_2*%
%TO.N,Net-(J2-Pin_3)*%
X83774000Y-136652000D03*
D12*
%TO.P,J6,1,Pin_1*%
%TO.N,unconnected-(J6-Pin_1-Pad1)*%
X83774000Y-139192000D03*
%TD*%
%TO.P,J5,1,Pin_1*%
%TO.N,unconnected-(J5-Pin_1-Pad1)*%
X139146000Y-139192000D03*
D13*
%TO.P,J5,2,Pin_2*%
%TO.N,Net-(J1-Pin_3)*%
X139146000Y-136652000D03*
%TO.P,J5,3,Pin_3*%
%TO.N,unconnected-(J5-Pin_3-Pad3)*%
X139146000Y-134112000D03*
%TO.P,J5,4,Pin_4*%
%TO.N,Net-(J5-Pin_2-Pad12)*%
X139146000Y-131572000D03*
%TO.P,J5,5,Pin_5*%
%TO.N,unconnected-(J5-Pin_5-Pad5)*%
X139146000Y-129032000D03*
%TO.P,J5,6,Pin_6*%
%TO.N,unconnected-(J5-Pin_6-Pad6)*%
X139146000Y-126492000D03*
%TO.P,J5,7,Pin_7*%
%TO.N,Net-(J1-Pin_3)*%
X139146000Y-123952000D03*
%TO.P,J5,8,Pin_8*%
%TO.N,unconnected-(J5-Pin_8-Pad8)*%
X139146000Y-121412000D03*
%TO.P,J5,9,Pin_9*%
%TO.N,Net-(J5-Pin_2-Pad12)*%
X139146000Y-118872000D03*
%TO.P,J5,10,Pin_10*%
%TO.N,unconnected-(J5-Pin_10-Pad10)*%
X139146000Y-116332000D03*
D12*
%TO.P,J5,11,Pin_1*%
%TO.N,unconnected-(J5-Pin_1-Pad11)*%
X116286000Y-139192000D03*
D13*
%TO.P,J5,12,Pin_2*%
%TO.N,Net-(J5-Pin_2-Pad12)*%
X116286000Y-136652000D03*
%TO.P,J5,13,Pin_3*%
%TO.N,unconnected-(J5-Pin_3-Pad13)*%
X116286000Y-134112000D03*
%TO.P,J5,14,Pin_4*%
%TO.N,Net-(J1-Pin_3)*%
X116286000Y-131572000D03*
%TO.P,J5,15,Pin_5*%
%TO.N,unconnected-(J5-Pin_5-Pad15)*%
X116286000Y-129032000D03*
%TO.P,J5,16,Pin_6*%
%TO.N,unconnected-(J5-Pin_6-Pad16)*%
X116286000Y-126492000D03*
%TO.P,J5,17,Pin_7*%
%TO.N,Net-(J5-Pin_2-Pad12)*%
X116286000Y-123952000D03*
%TO.P,J5,18,Pin_8*%
%TO.N,unconnected-(J5-Pin_8-Pad18)*%
X116286000Y-121412000D03*
%TO.P,J5,19,Pin_9*%
%TO.N,Net-(J1-Pin_3)*%
X116286000Y-118872000D03*
%TO.P,J5,20,Pin_10*%
%TO.N,unconnected-(J5-Pin_10-Pad20)*%
X116286000Y-116332000D03*
%TD*%
D12*
%TO.P,J1,1,Pin_1*%
%TO.N,Net-(J1-Pin_1)*%
X125685000Y-143555000D03*
D13*
%TO.P,J1,2,Pin_2*%
%TO.N,Net-(J1-Pin_2)*%
X128225000Y-143555000D03*
%TO.P,J1,3,Pin_3*%
%TO.N,Net-(J1-Pin_3)*%
X130765000Y-143555000D03*
%TD*%
D14*
%TO.P,C4,1*%
%TO.N,Net-(J4-Pin_1)*%
X78397500Y-63792500D03*
%TO.P,C4,2*%
%TO.N,Net-(J4-Pin_3)*%
X75272500Y-63792500D03*
%TD*%
D12*
%TO.P,J3,1,Pin_1*%
%TO.N,Net-(J3-Pin_1)*%
X125685000Y-56560000D03*
D13*
%TO.P,J3,2,Pin_2*%
%TO.N,Net-(J3-Pin_2)*%
X128225000Y-56560000D03*
%TO.P,J3,3,Pin_3*%
%TO.N,Net-(J3-Pin_3)*%
X130765000Y-56560000D03*
%TD*%
D12*
%TO.P,J4,1,Pin_1*%
%TO.N,Net-(J4-Pin_1)*%
X69215000Y-56515000D03*
D13*
%TO.P,J4,2,Pin_2*%
%TO.N,Net-(J4-Pin_2)*%
X71755000Y-56515000D03*
%TO.P,J4,3,Pin_3*%
%TO.N,Net-(J4-Pin_3)*%
X74295000Y-56515000D03*
%TD*%
D14*
%TO.P,C3,1*%
%TO.N,Net-(J3-Pin_1)*%
X134570000Y-63500000D03*
%TO.P,C3,2*%
%TO.N,Net-(J3-Pin_3)*%
X131445000Y-63500000D03*
%TD*%
D12*
%TO.P,J2,1,Pin_1*%
%TO.N,Net-(J2-Pin_1)*%
X69215000Y-143510000D03*
D13*
%TO.P,J2,2,Pin_2*%
%TO.N,Net-(J2-Pin_2)*%
X71755000Y-143510000D03*
%TO.P,J2,3,Pin_3*%
%TO.N,Net-(J2-Pin_3)*%
X74295000Y-143510000D03*
%TD*%
D14*
%TO.P,C1,1*%
%TO.N,Net-(J1-Pin_1)*%
X134189000Y-135890000D03*
%TO.P,C1,2*%
%TO.N,Net-(J1-Pin_3)*%
X131064000Y-135890000D03*
%TD*%
%TO.P,C2,1*%
%TO.N,Net-(J2-Pin_1)*%
X77762500Y-136525000D03*
%TO.P,C2,2*%
%TO.N,Net-(J2-Pin_3)*%
X74637500Y-136525000D03*
%TD*%
D15*
%TO.P,U4,1*%
%TO.N,Net-(J8-Pin_2-Pad12)*%
X69342000Y-67310000D03*
D16*
%TO.P,U4,2*%
%TO.N,Net-(J4-Pin_2)*%
X69337600Y-62738000D03*
D17*
%TO.P,U4,3,G*%
%TO.N,Net-(J4-Pin_1)*%
X67445300Y-65036700D03*
D18*
X68397800Y-65024000D03*
%TD*%
D15*
%TO.P,U1,1*%
%TO.N,Net-(J2-Pin_2)*%
X67682700Y-138163300D03*
D16*
%TO.P,U1,2*%
%TO.N,Net-(J6-Pin_2-Pad12)*%
X67678300Y-133591300D03*
D17*
%TO.P,U1,3,G*%
%TO.N,Net-(J2-Pin_1)*%
X65786000Y-135890000D03*
D18*
X66738500Y-135877300D03*
%TD*%
%TO.P,U2,3,G*%
%TO.N,Net-(J1-Pin_1)*%
X123634500Y-135369300D03*
D17*
X122682000Y-135382000D03*
D16*
%TO.P,U2,2*%
%TO.N,Net-(J5-Pin_2-Pad12)*%
X124574300Y-133083300D03*
D15*
%TO.P,U2,1*%
%TO.N,Net-(J1-Pin_2)*%
X124578700Y-137655300D03*
%TD*%
%TO.P,U3,1*%
%TO.N,Net-(J7-Pin_2-Pad12)*%
X125912200Y-66548000D03*
D16*
%TO.P,U3,2*%
%TO.N,Net-(J3-Pin_2)*%
X125907800Y-61976000D03*
D17*
%TO.P,U3,3,G*%
%TO.N,Net-(J3-Pin_1)*%
X124015500Y-64274700D03*
D18*
X124968000Y-64262000D03*
%TD*%
D19*
%TO.N,Net-(J1-Pin_3)*%
X131064000Y-133858000D03*
%TO.N,Net-(J2-Pin_3)*%
X74676000Y-134620000D03*
%TO.N,Net-(J3-Pin_3)*%
X131572000Y-66040000D03*
%TO.N,Net-(J4-Pin_3)*%
X75438000Y-66040000D03*
%TD*%
D20*
%TO.N,Net-(J2-Pin_2)*%
X71755000Y-143510000D02*
X71755000Y-142235600D01*
X71755000Y-142235600D02*
X67682700Y-138163300D01*
%TO.N,Net-(J5-Pin_2-Pad12)*%
X116286000Y-123952000D02*
X123421000Y-131087000D01*
X116286000Y-136652000D02*
X121851000Y-131087000D01*
X123421000Y-131087000D02*
X124531800Y-132197800D01*
X121851000Y-131087000D02*
X123421000Y-131087000D01*
%TO.N,Net-(J6-Pin_2-Pad12)*%
X60914000Y-136652000D02*
X65994000Y-131572000D01*
X65994000Y-131572000D02*
X67635800Y-131572000D01*
X67635800Y-131572000D02*
X67889800Y-131826000D01*
%TO.N,Net-(J5-Pin_2-Pad12)*%
X126238000Y-130556000D02*
X125095000Y-131699000D01*
X139146000Y-118872000D02*
X137922000Y-118872000D01*
X137922000Y-118872000D02*
X125095000Y-131699000D01*
X125095000Y-131699000D02*
X124531800Y-132262200D01*
X138130000Y-130556000D02*
X126238000Y-130556000D01*
X139146000Y-131572000D02*
X138130000Y-130556000D01*
X124531800Y-132262200D02*
X124531800Y-132588000D01*
X124531800Y-132197800D02*
X124531800Y-132588000D01*
%TO.N,Net-(J1-Pin_3)*%
X131064000Y-133858000D02*
X131064000Y-135890000D01*
%TO.N,Net-(J6-Pin_2-Pad12)*%
X67889800Y-130927800D02*
X67889800Y-131826000D01*
X83774000Y-118872000D02*
X80843800Y-118872000D01*
X67889800Y-131826000D02*
X67889800Y-133096000D01*
X80843800Y-118872000D02*
X67889800Y-131826000D01*
X83774000Y-131572000D02*
X69413800Y-131572000D01*
X69413800Y-131572000D02*
X67889800Y-133096000D01*
X60914000Y-123952000D02*
X67889800Y-130927800D01*
%TO.N,Net-(J2-Pin_3)*%
X74676000Y-136486500D02*
X74637500Y-136525000D01*
X74676000Y-134620000D02*
X74676000Y-136486500D01*
%TO.N,Net-(J7-Pin_2-Pad12)*%
X139146000Y-76200000D02*
X135564200Y-76200000D01*
X135564200Y-76200000D02*
X125912200Y-66548000D01*
X116286000Y-81280000D02*
X125912200Y-71653800D01*
X125912200Y-71653800D02*
X125912200Y-66548000D01*
X116286000Y-68580000D02*
X123880200Y-68580000D01*
X123880200Y-68580000D02*
X125912200Y-66548000D01*
X139146000Y-63500000D02*
X135688500Y-66957500D01*
X135688500Y-66957500D02*
X126321700Y-66957500D01*
X126321700Y-66957500D02*
X125912200Y-66548000D01*
%TO.N,Net-(J3-Pin_3)*%
X131572000Y-66040000D02*
X131572000Y-63627000D01*
X131572000Y-63627000D02*
X131445000Y-63500000D01*
%TO.N,Net-(J8-Pin_2-Pad12)*%
X83774000Y-76200000D02*
X78232000Y-76200000D01*
X78232000Y-76200000D02*
X69342000Y-67310000D01*
X60914000Y-81280000D02*
X69342000Y-72852000D01*
X69342000Y-72852000D02*
X69342000Y-67310000D01*
X60914000Y-68580000D02*
X68072000Y-68580000D01*
X68072000Y-68580000D02*
X69342000Y-67310000D01*
X83774000Y-63500000D02*
X79964000Y-67310000D01*
X79964000Y-67310000D02*
X69342000Y-67310000D01*
%TO.N,Net-(J4-Pin_3)*%
X75438000Y-66040000D02*
X75438000Y-63958000D01*
X75438000Y-63958000D02*
X75272500Y-63792500D01*
%TO.N,Net-(J3-Pin_2)*%
X125907800Y-58877200D02*
X128225000Y-56560000D01*
X125907800Y-61976000D02*
X125907800Y-58877200D01*
%TO.N,Net-(J4-Pin_2)*%
X71755000Y-58801000D02*
X71755000Y-56515000D01*
X69337600Y-62738000D02*
X69337600Y-61218400D01*
X69337600Y-61218400D02*
X71755000Y-58801000D01*
%TO.N,Net-(J1-Pin_2)*%
X128225000Y-140848800D02*
X124536200Y-137160000D01*
X128225000Y-143555000D02*
X128225000Y-140848800D01*
%TO.N,Net-(J1-Pin_3)*%
X130765000Y-136189000D02*
X131064000Y-135890000D01*
X130765000Y-143555000D02*
X130765000Y-136189000D01*
%TO.N,Net-(J2-Pin_3)*%
X74295000Y-136867500D02*
X74295000Y-143510000D01*
X74637500Y-136525000D02*
X74295000Y-136867500D01*
D21*
X83312000Y-123952000D02*
X83774000Y-123952000D01*
D20*
%TO.N,Net-(J3-Pin_3)*%
X130765000Y-62820000D02*
X131445000Y-63500000D01*
X130765000Y-56560000D02*
X130765000Y-62820000D01*
%TO.N,Net-(J4-Pin_3)*%
X74295000Y-56515000D02*
X74295000Y-62815000D01*
X74295000Y-62815000D02*
X75272500Y-63792500D01*
%TD*%
%TA.AperFunction,Conductor*%
%TO.N,Net-(J3-Pin_1)*%
G36*
X148942121Y-51020002D02*
G01*
X148988614Y-51073658D01*
X149000000Y-51126000D01*
X149000000Y-98874000D01*
X148979998Y-98942121D01*
X148926342Y-98988614D01*
X148874000Y-99000000D01*
X144056178Y-99000000D01*
X143988057Y-98979998D01*
X143941564Y-98926342D01*
X143932375Y-98897425D01*
X143897659Y-98713953D01*
X143845369Y-98437589D01*
X143709468Y-97930403D01*
X143580392Y-97561525D01*
X143536049Y-97434799D01*
X143536048Y-97434798D01*
X143536046Y-97434791D01*
X143326072Y-96953524D01*
X143326069Y-96953519D01*
X143326062Y-96953503D01*
X143171250Y-96660588D01*
X143080719Y-96489295D01*
X143080709Y-96489279D01*
X142801366Y-96044706D01*
X142801354Y-96044689D01*
X142489561Y-95622224D01*
X142489548Y-95622208D01*
X142147067Y-95224239D01*
X142147058Y-95224228D01*
X142147045Y-95224215D01*
X142147034Y-95224203D01*
X141775796Y-94852965D01*
X141775784Y-94852954D01*
X141775772Y-94852942D01*
X141674361Y-94765671D01*
X141377791Y-94510451D01*
X141377775Y-94510438D01*
X140955310Y-94198645D01*
X140955293Y-94198633D01*
X140510720Y-93919290D01*
X140510712Y-93919285D01*
X140510705Y-93919281D01*
X140465089Y-93895172D01*
X140046496Y-93673937D01*
X140046470Y-93673925D01*
X139862513Y-93593666D01*
X139565209Y-93463954D01*
X139565202Y-93463951D01*
X139565200Y-93463950D01*
X139069605Y-93290534D01*
X138562412Y-93154631D01*
X138046487Y-93057013D01*
X137524711Y-92998222D01*
X137000000Y-92978590D01*
X136475288Y-92998222D01*
X135953512Y-93057013D01*
X135437587Y-93154631D01*
X134930394Y-93290534D01*
X134434799Y-93463950D01*
X134434796Y-93463952D01*
X133953529Y-93673925D01*
X133953503Y-93673937D01*
X133489300Y-93919278D01*
X133489279Y-93919290D01*
X133044706Y-94198633D01*
X133044689Y-94198645D01*
X132622224Y-94510438D01*
X132622208Y-94510451D01*
X132224239Y-94852932D01*
X132224203Y-94852965D01*
X131852965Y-95224203D01*
X131852932Y-95224239D01*
X131510451Y-95622208D01*
X131510438Y-95622224D01*
X131198645Y-96044689D01*
X131198633Y-96044706D01*
X130919290Y-96489279D01*
X130919278Y-96489300D01*
X130673937Y-96953503D01*
X130673925Y-96953529D01*
X130463952Y-97434796D01*
X130463950Y-97434799D01*
X130290534Y-97930394D01*
X130154631Y-98437587D01*
X130067625Y-98897425D01*
X130035308Y-98960639D01*
X129973944Y-98996347D01*
X129943822Y-99000000D01*
X109477770Y-99000000D01*
X109409649Y-98979998D01*
X109363156Y-98926342D01*
X109352377Y-98886350D01*
X109340942Y-98770251D01*
X109340941Y-98770249D01*
X109340941Y-98770242D01*
X109240512Y-98161948D01*
X109186523Y-97930403D01*
X109100512Y-97561520D01*
X108921547Y-96971555D01*
X108921545Y-96971547D01*
X108740040Y-96489300D01*
X108704372Y-96394531D01*
X108449926Y-95832958D01*
X108159296Y-95289228D01*
X107833728Y-94765671D01*
X107474613Y-94264527D01*
X107083492Y-93787944D01*
X106662038Y-93337962D01*
X106212056Y-92916508D01*
X105735473Y-92525387D01*
X105234329Y-92166272D01*
X104710772Y-91840704D01*
X104710771Y-91840703D01*
X104167054Y-91550080D01*
X104167037Y-91550071D01*
X103754548Y-91363174D01*
X103605469Y-91295628D01*
X103605464Y-91295626D01*
X103028452Y-91078454D01*
X103028444Y-91078452D01*
X102438479Y-90899487D01*
X101838066Y-90759490D01*
X101229760Y-90659059D01*
X101113649Y-90647622D01*
X101047817Y-90621039D01*
X101006807Y-90563084D01*
X101000000Y-90522229D01*
X101000000Y-81280000D01*
X114414732Y-81280000D01*
X114433779Y-81546312D01*
X114490529Y-81807188D01*
X114490529Y-81807189D01*
X114583832Y-82057346D01*
X114583837Y-82057357D01*
X114657426Y-82192128D01*
X114672517Y-82261502D01*
X114647705Y-82328022D01*
X114644239Y-82332444D01*
X114586722Y-82402529D01*
X114586721Y-82402531D01*
X114492334Y-82579116D01*
X114492332Y-82579122D01*
X114434206Y-82770736D01*
X114434206Y-82770739D01*
X114419500Y-82920057D01*
X114419500Y-84719942D01*
X114434206Y-84869260D01*
X114434206Y-84869263D01*
X114492332Y-85060877D01*
X114492334Y-85060883D01*
X114586720Y-85237466D01*
X114586722Y-85237469D01*
X114713748Y-85392252D01*
X114868531Y-85519278D01*
X115045120Y-85613667D01*
X115236731Y-85671792D01*
X115236736Y-85671792D01*
X115236738Y-85671793D01*
X115346069Y-85682560D01*
X115386066Y-85686500D01*
X115386075Y-85686500D01*
X117185925Y-85686500D01*
X117185934Y-85686500D01*
X117283179Y-85676922D01*
X117335260Y-85671793D01*
X117335263Y-85671793D01*
X117335264Y-85671792D01*
X117335269Y-85671792D01*
X117526880Y-85613667D01*
X117703469Y-85519278D01*
X117858252Y-85392252D01*
X117985278Y-85237469D01*
X118079667Y-85060880D01*
X118137792Y-84869269D01*
X118152500Y-84719934D01*
X118152500Y-82920066D01*
X118137793Y-82770739D01*
X118137793Y-82770736D01*
X118137792Y-82770733D01*
X118137792Y-82770731D01*
X118079667Y-82579120D01*
X117985278Y-82402531D01*
X117927759Y-82332444D01*
X117900007Y-82267097D01*
X117911989Y-82197119D01*
X117914572Y-82192128D01*
X117988165Y-82057353D01*
X118081468Y-81807197D01*
X118138221Y-81546309D01*
X118152736Y-81343344D01*
X118177546Y-81276826D01*
X118189313Y-81263246D01*
X126896668Y-72555893D01*
X126940028Y-72512533D01*
X126940920Y-72510393D01*
X126969972Y-72468901D01*
X126973300Y-72464564D01*
X127009124Y-72421873D01*
X127036995Y-72373597D01*
X127039922Y-72369002D01*
X127071891Y-72323348D01*
X127095446Y-72272831D01*
X127097964Y-72267995D01*
X127125834Y-72219726D01*
X127144899Y-72167340D01*
X127146986Y-72162304D01*
X127170539Y-72111798D01*
X127184957Y-72057984D01*
X127186610Y-72052743D01*
X127205665Y-72000393D01*
X127205666Y-72000388D01*
X127205668Y-72000383D01*
X127215345Y-71945494D01*
X127216527Y-71940162D01*
X127230952Y-71886332D01*
X127235807Y-71830828D01*
X127236525Y-71825377D01*
X127246200Y-71770508D01*
X127246200Y-70072751D01*
X127266202Y-70004630D01*
X127319858Y-69958137D01*
X127390132Y-69948033D01*
X127454712Y-69977527D01*
X127461295Y-69983656D01*
X134538393Y-77060754D01*
X134703446Y-77225807D01*
X134727510Y-77242656D01*
X134749084Y-77257763D01*
X134753447Y-77261111D01*
X134796125Y-77296923D01*
X134796128Y-77296925D01*
X134830107Y-77316541D01*
X134844384Y-77324784D01*
X134849006Y-77327728D01*
X134894652Y-77359691D01*
X134945143Y-77383235D01*
X134950017Y-77385772D01*
X134998273Y-77413633D01*
X135050630Y-77432689D01*
X135055690Y-77434784D01*
X135095182Y-77453200D01*
X135106197Y-77458337D01*
X135106198Y-77458337D01*
X135106202Y-77458339D01*
X135149150Y-77469846D01*
X135160023Y-77472760D01*
X135165269Y-77474414D01*
X135217616Y-77493467D01*
X135217620Y-77493467D01*
X135217621Y-77493468D01*
X135225420Y-77494843D01*
X135272497Y-77503143D01*
X135277839Y-77504328D01*
X135331668Y-77518752D01*
X135378475Y-77522846D01*
X135387180Y-77523608D01*
X135392619Y-77524324D01*
X135426996Y-77530386D01*
X135447489Y-77534000D01*
X135447490Y-77534000D01*
X135505953Y-77534000D01*
X137465917Y-77534000D01*
X137534038Y-77554002D01*
X137580531Y-77607658D01*
X137590635Y-77677932D01*
X137573419Y-77724078D01*
X137573946Y-77724366D01*
X137571946Y-77728027D01*
X137571908Y-77728131D01*
X137571789Y-77728315D01*
X137443834Y-77962647D01*
X137350529Y-78212810D01*
X137350529Y-78212811D01*
X137293779Y-78473687D01*
X137274732Y-78739999D01*
X137293779Y-79006312D01*
X137350529Y-79267188D01*
X137350529Y-79267189D01*
X137443834Y-79517352D01*
X137443835Y-79517353D01*
X137571789Y-79751684D01*
X137637657Y-79839673D01*
X137708636Y-79934491D01*
X137733447Y-80001012D01*
X137718355Y-80070386D01*
X137708636Y-80085509D01*
X137571789Y-80268316D01*
X137443834Y-80502647D01*
X137350529Y-80752810D01*
X137350529Y-80752811D01*
X137293779Y-81013687D01*
X137274732Y-81280000D01*
X137293779Y-81546312D01*
X137350529Y-81807188D01*
X137350529Y-81807189D01*
X137443832Y-82057346D01*
X137443837Y-82057357D01*
X137517426Y-82192128D01*
X137532517Y-82261502D01*
X137507705Y-82328022D01*
X137504239Y-82332444D01*
X137446722Y-82402529D01*
X137446721Y-82402531D01*
X137352334Y-82579116D01*
X137352332Y-82579122D01*
X137294206Y-82770736D01*
X137294206Y-82770739D01*
X137279500Y-82920057D01*
X137279500Y-84719942D01*
X137294206Y-84869260D01*
X137294206Y-84869263D01*
X137352332Y-85060877D01*
X137352334Y-85060883D01*
X137446720Y-85237466D01*
X137446722Y-85237469D01*
X137573748Y-85392252D01*
X137728531Y-85519278D01*
X137905120Y-85613667D01*
X138096731Y-85671792D01*
X138096736Y-85671792D01*
X138096738Y-85671793D01*
X138206069Y-85682560D01*
X138246066Y-85686500D01*
X138246075Y-85686500D01*
X140045925Y-85686500D01*
X140045934Y-85686500D01*
X140143179Y-85676922D01*
X140195260Y-85671793D01*
X140195263Y-85671793D01*
X140195264Y-85671792D01*
X140195269Y-85671792D01*
X140386880Y-85613667D01*
X140563469Y-85519278D01*
X140718252Y-85392252D01*
X140845278Y-85237469D01*
X140939667Y-85060880D01*
X140997792Y-84869269D01*
X141012500Y-84719934D01*
X141012500Y-82920066D01*
X140997793Y-82770739D01*
X140997793Y-82770736D01*
X140997792Y-82770733D01*
X140997792Y-82770731D01*
X140939667Y-82579120D01*
X140845278Y-82402531D01*
X140787759Y-82332444D01*
X140760007Y-82267097D01*
X140771989Y-82197119D01*
X140774572Y-82192128D01*
X140848165Y-82057353D01*
X140941468Y-81807197D01*
X140998221Y-81546309D01*
X141017268Y-81280000D01*
X140998221Y-81013691D01*
X140941468Y-80752803D01*
X140848165Y-80502647D01*
X140720211Y-80268316D01*
X140583362Y-80085508D01*
X140558552Y-80018989D01*
X140573643Y-79949615D01*
X140583363Y-79934491D01*
X140720211Y-79751684D01*
X140848165Y-79517353D01*
X140941468Y-79267197D01*
X140998221Y-79006309D01*
X141017268Y-78740000D01*
X140998221Y-78473691D01*
X140941468Y-78212803D01*
X140848165Y-77962647D01*
X140720211Y-77728316D01*
X140583362Y-77545508D01*
X140558552Y-77478989D01*
X140573643Y-77409615D01*
X140583363Y-77394491D01*
X140609414Y-77359691D01*
X140720211Y-77211684D01*
X140848165Y-76977353D01*
X140941468Y-76727197D01*
X140998221Y-76466309D01*
X141017268Y-76200000D01*
X140998221Y-75933691D01*
X140941468Y-75672803D01*
X140848165Y-75422647D01*
X140720211Y-75188316D01*
X140583362Y-75005508D01*
X140558552Y-74938989D01*
X140573643Y-74869615D01*
X140583363Y-74854491D01*
X140602374Y-74829095D01*
X140720211Y-74671684D01*
X140848165Y-74437353D01*
X140941468Y-74187197D01*
X140998221Y-73926309D01*
X141017268Y-73660000D01*
X140998221Y-73393691D01*
X140941468Y-73132803D01*
X140848165Y-72882647D01*
X140720211Y-72648316D01*
X140583362Y-72465508D01*
X140558552Y-72398989D01*
X140573643Y-72329615D01*
X140583363Y-72314491D01*
X140618177Y-72267985D01*
X140720211Y-72131684D01*
X140848165Y-71897353D01*
X140941468Y-71647197D01*
X140998221Y-71386309D01*
X141017268Y-71120000D01*
X140998221Y-70853691D01*
X140941468Y-70592803D01*
X140848165Y-70342647D01*
X140720211Y-70108316D01*
X140583362Y-69925508D01*
X140558552Y-69858989D01*
X140573643Y-69789615D01*
X140583363Y-69774491D01*
X140624328Y-69719768D01*
X140720211Y-69591684D01*
X140848165Y-69357353D01*
X140941468Y-69107197D01*
X140998221Y-68846309D01*
X141017268Y-68580000D01*
X140998221Y-68313691D01*
X140976935Y-68215840D01*
X140941470Y-68052811D01*
X140941470Y-68052810D01*
X140941468Y-68052806D01*
X140941468Y-68052803D01*
X140848165Y-67802647D01*
X140720211Y-67568316D01*
X140583362Y-67385508D01*
X140558552Y-67318989D01*
X140573643Y-67249615D01*
X140583363Y-67234491D01*
X140642238Y-67155843D01*
X140720211Y-67051684D01*
X140848165Y-66817353D01*
X140941468Y-66567197D01*
X140998221Y-66306309D01*
X141017268Y-66040000D01*
X140998221Y-65773691D01*
X140952867Y-65565203D01*
X140941470Y-65512811D01*
X140941470Y-65512810D01*
X140941468Y-65512806D01*
X140941468Y-65512803D01*
X140848165Y-65262647D01*
X140720211Y-65028316D01*
X140613616Y-64885922D01*
X140583363Y-64845508D01*
X140558552Y-64778988D01*
X140573644Y-64709613D01*
X140583357Y-64694498D01*
X140720211Y-64511684D01*
X140848165Y-64277353D01*
X140941468Y-64027197D01*
X140998221Y-63766309D01*
X141017268Y-63500000D01*
X140998221Y-63233691D01*
X140955838Y-63038860D01*
X140941470Y-62972811D01*
X140941470Y-62972810D01*
X140941468Y-62972806D01*
X140941468Y-62972803D01*
X140848165Y-62722647D01*
X140720211Y-62488316D01*
X140583362Y-62305508D01*
X140558552Y-62238989D01*
X140573643Y-62169615D01*
X140583363Y-62154491D01*
X140720211Y-61971684D01*
X140848165Y-61737353D01*
X140941468Y-61487197D01*
X140998221Y-61226309D01*
X141017268Y-60960000D01*
X140998221Y-60693691D01*
X140953805Y-60489513D01*
X140941470Y-60432811D01*
X140941470Y-60432810D01*
X140941468Y-60432806D01*
X140941468Y-60432803D01*
X140848165Y-60182647D01*
X140720211Y-59948316D01*
X140560210Y-59734580D01*
X140371420Y-59545790D01*
X140371417Y-59545788D01*
X140371414Y-59545785D01*
X140216422Y-59429760D01*
X140157684Y-59385789D01*
X140029728Y-59315920D01*
X139923352Y-59257834D01*
X139673189Y-59164529D01*
X139412311Y-59107779D01*
X139412313Y-59107779D01*
X139146000Y-59088732D01*
X138879687Y-59107779D01*
X138618811Y-59164529D01*
X138618810Y-59164529D01*
X138368647Y-59257834D01*
X138134316Y-59385789D01*
X137920585Y-59545785D01*
X137920576Y-59545793D01*
X137731793Y-59734576D01*
X137731785Y-59734585D01*
X137571789Y-59948316D01*
X137443834Y-60182647D01*
X137350529Y-60432810D01*
X137350529Y-60432811D01*
X137293779Y-60693687D01*
X137274732Y-60959999D01*
X137293779Y-61226312D01*
X137350529Y-61487188D01*
X137350529Y-61487189D01*
X137443834Y-61737352D01*
X137443835Y-61737353D01*
X137571789Y-61971684D01*
X137607382Y-62019230D01*
X137708636Y-62154491D01*
X137733447Y-62221012D01*
X137718355Y-62290386D01*
X137708636Y-62305509D01*
X137571789Y-62488316D01*
X137443834Y-62722647D01*
X137350529Y-62972810D01*
X137350529Y-62972811D01*
X137293779Y-63233685D01*
X137293778Y-63233691D01*
X137279262Y-63436653D01*
X137254451Y-63503173D01*
X137242678Y-63516759D01*
X135172844Y-65586595D01*
X135110532Y-65620620D01*
X135083749Y-65623500D01*
X133032000Y-65623500D01*
X132963879Y-65603498D01*
X132917386Y-65549842D01*
X132906000Y-65497500D01*
X132905999Y-64899903D01*
X132926001Y-64831782D01*
X132928427Y-64828148D01*
X132937827Y-64814580D01*
X132963479Y-64777554D01*
X132966911Y-64770000D01*
X133028384Y-64634661D01*
X133057760Y-64569989D01*
X133082806Y-64470589D01*
X133118845Y-64409423D01*
X133182234Y-64377449D01*
X133252847Y-64384822D01*
X133308264Y-64429200D01*
X133323958Y-64462893D01*
X133324363Y-64462738D01*
X133326595Y-64468555D01*
X133326690Y-64468757D01*
X133326728Y-64468899D01*
X133411187Y-64634658D01*
X133411188Y-64634661D01*
X133528263Y-64779236D01*
X133672838Y-64896311D01*
X133672841Y-64896312D01*
X133838597Y-64980769D01*
X134018289Y-65028917D01*
X134095561Y-65035000D01*
X134316000Y-65035000D01*
X134316000Y-63754000D01*
X134824000Y-63754000D01*
X134824000Y-65035000D01*
X135044439Y-65035000D01*
X135121710Y-65028917D01*
X135301402Y-64980769D01*
X135467158Y-64896312D01*
X135467161Y-64896311D01*
X135611736Y-64779236D01*
X135728811Y-64634661D01*
X135728812Y-64634658D01*
X135813269Y-64468902D01*
X135861417Y-64289210D01*
X135867500Y-64211938D01*
X135867500Y-63754000D01*
X134824000Y-63754000D01*
X134316000Y-63754000D01*
X134316000Y-61965000D01*
X134824000Y-61965000D01*
X134824000Y-63246000D01*
X135867500Y-63246000D01*
X135867500Y-62788061D01*
X135861417Y-62710789D01*
X135813269Y-62531097D01*
X135728812Y-62365341D01*
X135728811Y-62365338D01*
X135611736Y-62220763D01*
X135467161Y-62103688D01*
X135467158Y-62103687D01*
X135301402Y-62019230D01*
X135121710Y-61971082D01*
X135044439Y-61965000D01*
X134824000Y-61965000D01*
X134316000Y-61965000D01*
X134095561Y-61965000D01*
X134018289Y-61971082D01*
X133838597Y-62019230D01*
X133672841Y-62103687D01*
X133672838Y-62103688D01*
X133528263Y-62220763D01*
X133411188Y-62365338D01*
X133411187Y-62365341D01*
X133326728Y-62531100D01*
X133326689Y-62531247D01*
X133326642Y-62531322D01*
X133324363Y-62537262D01*
X133323276Y-62536844D01*
X133289730Y-62591865D01*
X133225866Y-62622879D01*
X133155372Y-62614442D01*
X133100631Y-62569232D01*
X133082805Y-62529407D01*
X133072451Y-62488316D01*
X133057760Y-62430011D01*
X132963479Y-62222446D01*
X132833652Y-62035050D01*
X132833650Y-62035048D01*
X132833642Y-62035039D01*
X132672460Y-61873857D01*
X132672451Y-61873849D01*
X132672450Y-61873848D01*
X132485054Y-61744021D01*
X132277489Y-61649740D01*
X132194211Y-61628755D01*
X132133043Y-61592715D01*
X132101070Y-61529325D01*
X132099000Y-61506585D01*
X132099000Y-57917816D01*
X132119001Y-57849699D01*
X132135898Y-57828730D01*
X132179210Y-57785420D01*
X132339211Y-57571684D01*
X132467165Y-57337353D01*
X132560468Y-57087197D01*
X132617221Y-56826309D01*
X132636268Y-56560000D01*
X132617221Y-56293691D01*
X132568043Y-56067625D01*
X132560470Y-56032811D01*
X132560470Y-56032810D01*
X132560468Y-56032806D01*
X132560468Y-56032803D01*
X132467165Y-55782647D01*
X132339211Y-55548316D01*
X132179210Y-55334580D01*
X131990420Y-55145790D01*
X131990417Y-55145788D01*
X131990414Y-55145785D01*
X131895856Y-55075000D01*
X131776684Y-54985789D01*
X131648728Y-54915920D01*
X131542352Y-54857834D01*
X131292189Y-54764529D01*
X131031311Y-54707779D01*
X131031313Y-54707779D01*
X130818261Y-54692541D01*
X130765000Y-54688732D01*
X130764999Y-54688732D01*
X130498687Y-54707779D01*
X130237811Y-54764529D01*
X130237810Y-54764529D01*
X129987647Y-54857834D01*
X129753316Y-54985789D01*
X129570509Y-55122636D01*
X129503988Y-55147447D01*
X129434614Y-55132355D01*
X129419491Y-55122636D01*
X129324673Y-55051657D01*
X129236684Y-54985789D01*
X129108728Y-54915920D01*
X129002352Y-54857834D01*
X128752189Y-54764529D01*
X128491311Y-54707779D01*
X128491313Y-54707779D01*
X128278261Y-54692541D01*
X128225000Y-54688732D01*
X128224999Y-54688732D01*
X127958687Y-54707779D01*
X127697811Y-54764529D01*
X127697810Y-54764529D01*
X127447647Y-54857834D01*
X127213316Y-54985789D01*
X126999580Y-55145790D01*
X126998700Y-55146553D01*
X126998345Y-55146715D01*
X126995978Y-55148487D01*
X126995592Y-55147971D01*
X126934116Y-55176039D01*
X126863843Y-55165927D01*
X126852059Y-55159772D01*
X126789197Y-55122595D01*
X126635130Y-55077834D01*
X126635117Y-55077832D01*
X126599136Y-55075000D01*
X125939000Y-55075000D01*
X125939000Y-56126325D01*
X125827315Y-56075320D01*
X125720763Y-56060000D01*
X125649237Y-56060000D01*
X125542685Y-56075320D01*
X125431000Y-56126325D01*
X125431000Y-55075000D01*
X124770864Y-55075000D01*
X124734882Y-55077832D01*
X124734869Y-55077834D01*
X124580802Y-55122595D01*
X124442714Y-55204261D01*
X124442707Y-55204266D01*
X124329266Y-55317707D01*
X124329261Y-55317714D01*
X124247595Y-55455802D01*
X124202834Y-55609869D01*
X124202832Y-55609882D01*
X124200000Y-55645863D01*
X124200000Y-56306000D01*
X125253884Y-56306000D01*
X125225507Y-56350156D01*
X125185000Y-56488111D01*
X125185000Y-56631889D01*
X125225507Y-56769844D01*
X125253884Y-56814000D01*
X124200000Y-56814000D01*
X124200000Y-57474136D01*
X124202832Y-57510117D01*
X124202834Y-57510130D01*
X124247595Y-57664197D01*
X124329261Y-57802285D01*
X124329266Y-57802292D01*
X124442707Y-57915733D01*
X124442714Y-57915738D01*
X124580802Y-57997404D01*
X124673713Y-58024397D01*
X124733548Y-58062610D01*
X124763226Y-58127106D01*
X124753323Y-58197409D01*
X124748568Y-58206665D01*
X124724565Y-58258139D01*
X124722028Y-58263013D01*
X124694165Y-58311274D01*
X124675108Y-58363633D01*
X124673004Y-58368711D01*
X124649460Y-58419200D01*
X124649459Y-58419203D01*
X124635040Y-58473018D01*
X124633388Y-58478259D01*
X124614333Y-58530616D01*
X124604657Y-58585484D01*
X124603467Y-58590849D01*
X124589047Y-58644666D01*
X124584191Y-58700171D01*
X124583474Y-58705620D01*
X124573800Y-58760489D01*
X124573800Y-58818953D01*
X124573799Y-60409581D01*
X124553797Y-60477702D01*
X124545200Y-60489512D01*
X124499726Y-60544924D01*
X124499721Y-60544931D01*
X124405334Y-60721516D01*
X124405332Y-60721522D01*
X124347207Y-60913133D01*
X124346281Y-60922547D01*
X124319700Y-60988380D01*
X124305522Y-60998413D01*
X124306404Y-60999295D01*
X124269500Y-61036198D01*
X124269500Y-64402700D01*
X124249498Y-64470821D01*
X124195842Y-64517314D01*
X124143500Y-64528700D01*
X122809000Y-64528700D01*
X122809000Y-66942336D01*
X122811832Y-66978317D01*
X122811834Y-66978330D01*
X122842781Y-67084847D01*
X122842578Y-67155843D01*
X122804025Y-67215459D01*
X122739360Y-67244768D01*
X122721784Y-67246000D01*
X117966083Y-67246000D01*
X117897962Y-67225998D01*
X117851469Y-67172342D01*
X117841365Y-67102068D01*
X117858580Y-67055921D01*
X117858054Y-67055634D01*
X117860053Y-67051972D01*
X117860092Y-67051869D01*
X117860204Y-67051693D01*
X117860211Y-67051684D01*
X117988165Y-66817353D01*
X118081468Y-66567197D01*
X118138221Y-66306309D01*
X118157268Y-66040000D01*
X118138221Y-65773691D01*
X118092867Y-65565203D01*
X118081470Y-65512811D01*
X118081470Y-65512810D01*
X118081468Y-65512806D01*
X118081468Y-65512803D01*
X117988165Y-65262647D01*
X117860211Y-65028316D01*
X117723362Y-64845508D01*
X117698552Y-64778989D01*
X117713643Y-64709615D01*
X117723363Y-64694491D01*
X117768151Y-64634661D01*
X117860211Y-64511684D01*
X117988165Y-64277353D01*
X118081468Y-64027197D01*
X118082881Y-64020700D01*
X122809000Y-64020700D01*
X123761500Y-64020700D01*
X123761500Y-61036200D01*
X123379864Y-61036200D01*
X123343882Y-61039032D01*
X123343869Y-61039034D01*
X123189802Y-61083795D01*
X123051714Y-61165461D01*
X123051707Y-61165466D01*
X122938266Y-61278907D01*
X122938261Y-61278914D01*
X122856595Y-61417002D01*
X122811834Y-61571069D01*
X122811832Y-61571082D01*
X122809000Y-61607063D01*
X122809000Y-64020700D01*
X118082881Y-64020700D01*
X118138221Y-63766309D01*
X118157268Y-63500000D01*
X118138221Y-63233691D01*
X118095838Y-63038860D01*
X118081470Y-62972811D01*
X118081470Y-62972810D01*
X118081468Y-62972806D01*
X118081468Y-62972803D01*
X117988165Y-62722647D01*
X117860211Y-62488316D01*
X117723362Y-62305508D01*
X117698552Y-62238989D01*
X117713643Y-62169615D01*
X117723363Y-62154491D01*
X117860211Y-61971684D01*
X117988165Y-61737353D01*
X118081468Y-61487197D01*
X118138221Y-61226309D01*
X118157268Y-60960000D01*
X118138221Y-60693691D01*
X118093805Y-60489513D01*
X118081470Y-60432811D01*
X118081470Y-60432810D01*
X118081468Y-60432806D01*
X118081468Y-60432803D01*
X117988165Y-60182647D01*
X117860211Y-59948316D01*
X117700210Y-59734580D01*
X117511420Y-59545790D01*
X117511417Y-59545788D01*
X117511414Y-59545785D01*
X117356422Y-59429760D01*
X117297684Y-59385789D01*
X117169729Y-59315920D01*
X117063352Y-59257834D01*
X116813189Y-59164529D01*
X116552311Y-59107779D01*
X116552313Y-59107779D01*
X116339261Y-59092541D01*
X116286000Y-59088732D01*
X116285999Y-59088732D01*
X116019687Y-59107779D01*
X115758811Y-59164529D01*
X115758810Y-59164529D01*
X115508647Y-59257834D01*
X115274316Y-59385789D01*
X115060585Y-59545785D01*
X115060576Y-59545793D01*
X114871793Y-59734576D01*
X114871785Y-59734585D01*
X114711789Y-59948316D01*
X114583834Y-60182647D01*
X114490529Y-60432810D01*
X114490529Y-60432811D01*
X114433779Y-60693687D01*
X114414732Y-60960000D01*
X114433779Y-61226312D01*
X114490529Y-61487188D01*
X114490529Y-61487189D01*
X114583834Y-61737352D01*
X114583835Y-61737353D01*
X114711789Y-61971684D01*
X114747382Y-62019230D01*
X114848636Y-62154491D01*
X114873447Y-62221012D01*
X114858355Y-62290386D01*
X114848636Y-62305509D01*
X114711789Y-62488316D01*
X114583834Y-62722647D01*
X114490529Y-62972810D01*
X114490529Y-62972811D01*
X114433779Y-63233687D01*
X114414732Y-63499999D01*
X114433779Y-63766312D01*
X114490529Y-64027188D01*
X114490529Y-64027189D01*
X114583834Y-64277352D01*
X114583835Y-64277353D01*
X114711789Y-64511684D01*
X114803849Y-64634661D01*
X114848636Y-64694490D01*
X114873447Y-64761010D01*
X114858356Y-64830384D01*
X114848637Y-64845507D01*
X114711788Y-65028317D01*
X114583834Y-65262647D01*
X114490529Y-65512810D01*
X114490529Y-65512811D01*
X114433779Y-65773687D01*
X114414732Y-66039999D01*
X114433779Y-66306312D01*
X114490529Y-66567188D01*
X114490529Y-66567189D01*
X114583834Y-66817352D01*
X114583835Y-66817353D01*
X114711789Y-67051684D01*
X114736615Y-67084847D01*
X114848636Y-67234491D01*
X114873447Y-67301012D01*
X114858355Y-67370386D01*
X114848636Y-67385509D01*
X114711789Y-67568316D01*
X114583834Y-67802647D01*
X114490529Y-68052810D01*
X114490529Y-68052811D01*
X114433779Y-68313687D01*
X114414732Y-68580000D01*
X114433779Y-68846312D01*
X114490529Y-69107188D01*
X114490529Y-69107189D01*
X114583834Y-69357352D01*
X114583835Y-69357353D01*
X114711789Y-69591684D01*
X114777657Y-69679673D01*
X114848636Y-69774491D01*
X114873447Y-69841012D01*
X114858355Y-69910386D01*
X114848636Y-69925509D01*
X114711789Y-70108316D01*
X114583834Y-70342647D01*
X114490529Y-70592810D01*
X114490529Y-70592811D01*
X114433779Y-70853687D01*
X114414732Y-71120000D01*
X114433779Y-71386312D01*
X114490529Y-71647188D01*
X114490529Y-71647189D01*
X114583834Y-71897352D01*
X114640089Y-72000375D01*
X114711789Y-72131684D01*
X114777657Y-72219673D01*
X114848636Y-72314491D01*
X114873447Y-72381012D01*
X114858355Y-72450386D01*
X114848636Y-72465509D01*
X114711789Y-72648316D01*
X114583834Y-72882647D01*
X114490529Y-73132810D01*
X114490529Y-73132811D01*
X114433779Y-73393687D01*
X114414732Y-73659999D01*
X114433779Y-73926312D01*
X114490529Y-74187188D01*
X114490529Y-74187189D01*
X114583834Y-74437352D01*
X114583835Y-74437353D01*
X114711789Y-74671684D01*
X114829626Y-74829095D01*
X114848636Y-74854490D01*
X114873447Y-74921010D01*
X114858356Y-74990384D01*
X114848637Y-75005507D01*
X114711788Y-75188317D01*
X114583834Y-75422647D01*
X114490529Y-75672810D01*
X114490529Y-75672811D01*
X114433779Y-75933687D01*
X114414732Y-76200000D01*
X114433779Y-76466312D01*
X114490529Y-76727188D01*
X114490529Y-76727189D01*
X114583834Y-76977352D01*
X114583835Y-76977353D01*
X114711789Y-77211684D01*
X114747464Y-77259340D01*
X114848636Y-77394491D01*
X114873447Y-77461012D01*
X114858355Y-77530386D01*
X114848636Y-77545509D01*
X114711789Y-77728316D01*
X114583834Y-77962647D01*
X114490529Y-78212810D01*
X114490529Y-78212811D01*
X114433779Y-78473687D01*
X114414732Y-78739999D01*
X114433779Y-79006312D01*
X114490529Y-79267188D01*
X114490529Y-79267189D01*
X114583834Y-79517352D01*
X114583835Y-79517353D01*
X114711789Y-79751684D01*
X114777657Y-79839673D01*
X114848636Y-79934491D01*
X114873447Y-80001012D01*
X114858355Y-80070386D01*
X114848636Y-80085509D01*
X114711789Y-80268316D01*
X114583834Y-80502647D01*
X114490529Y-80752810D01*
X114490529Y-80752811D01*
X114433779Y-81013687D01*
X114414732Y-81280000D01*
X101000000Y-81280000D01*
X101000000Y-70056178D01*
X101020002Y-69988057D01*
X101073658Y-69941564D01*
X101102575Y-69932375D01*
X101275270Y-69899699D01*
X101562411Y-69845369D01*
X102069597Y-69709468D01*
X102565209Y-69536046D01*
X103046476Y-69326072D01*
X103046487Y-69326065D01*
X103046496Y-69326062D01*
X103198527Y-69245710D01*
X103510705Y-69080719D01*
X103955301Y-68801361D01*
X104377778Y-68489559D01*
X104775772Y-68147058D01*
X105147058Y-67775772D01*
X105489559Y-67377778D01*
X105801361Y-66955301D01*
X106080719Y-66510705D01*
X106245710Y-66198527D01*
X106326062Y-66046496D01*
X106326065Y-66046487D01*
X106326072Y-66046476D01*
X106536046Y-65565209D01*
X106709468Y-65069597D01*
X106845369Y-64562411D01*
X106942987Y-64046487D01*
X107001777Y-63524711D01*
X107021410Y-63000000D01*
X107001777Y-62475289D01*
X106942987Y-61953513D01*
X106845369Y-61437589D01*
X106709468Y-60930403D01*
X106703424Y-60913131D01*
X106536049Y-60434799D01*
X106536048Y-60434798D01*
X106536046Y-60434791D01*
X106326072Y-59953524D01*
X106326069Y-59953519D01*
X106326062Y-59953503D01*
X106110579Y-59545793D01*
X106080719Y-59489295D01*
X105876657Y-59164532D01*
X105801366Y-59044706D01*
X105801354Y-59044689D01*
X105489561Y-58622224D01*
X105489548Y-58622208D01*
X105178386Y-58260632D01*
X105147058Y-58224228D01*
X105147045Y-58224215D01*
X105147034Y-58224203D01*
X104775796Y-57852965D01*
X104775784Y-57852954D01*
X104775772Y-57852942D01*
X104689864Y-57779012D01*
X104377791Y-57510451D01*
X104377775Y-57510438D01*
X103955310Y-57198645D01*
X103955293Y-57198633D01*
X103510720Y-56919290D01*
X103510712Y-56919285D01*
X103510705Y-56919281D01*
X103456813Y-56890798D01*
X103046496Y-56673937D01*
X103046470Y-56673925D01*
X102747595Y-56543528D01*
X102565209Y-56463954D01*
X102565202Y-56463951D01*
X102565200Y-56463950D01*
X102069605Y-56290534D01*
X101562412Y-56154631D01*
X101102575Y-56067625D01*
X101039361Y-56035308D01*
X101003653Y-55973944D01*
X101000000Y-55943822D01*
X101000000Y-51126000D01*
X101020002Y-51057879D01*
X101073658Y-51011386D01*
X101126000Y-51000000D01*
X148874000Y-51000000D01*
X148942121Y-51020002D01*
G37*
%TD.AperFunction*%
%TD*%
%TA.AperFunction,Conductor*%
%TO.N,Net-(J4-Pin_1)*%
G36*
X98942121Y-51020002D02*
G01*
X98988614Y-51073658D01*
X99000000Y-51126000D01*
X99000000Y-55943822D01*
X98979998Y-56011943D01*
X98926342Y-56058436D01*
X98897425Y-56067625D01*
X98437587Y-56154631D01*
X97930394Y-56290534D01*
X97434799Y-56463950D01*
X97434796Y-56463952D01*
X96953529Y-56673925D01*
X96953503Y-56673937D01*
X96489300Y-56919278D01*
X96489279Y-56919290D01*
X96044706Y-57198633D01*
X96044689Y-57198645D01*
X95622224Y-57510438D01*
X95622208Y-57510451D01*
X95224239Y-57852932D01*
X95224203Y-57852965D01*
X94852965Y-58224203D01*
X94852932Y-58224239D01*
X94510451Y-58622208D01*
X94510438Y-58622224D01*
X94198645Y-59044689D01*
X94198633Y-59044706D01*
X93919290Y-59489279D01*
X93919278Y-59489300D01*
X93673937Y-59953503D01*
X93673925Y-59953529D01*
X93569623Y-60192594D01*
X93464822Y-60432803D01*
X93463952Y-60434796D01*
X93463950Y-60434799D01*
X93290534Y-60930394D01*
X93154631Y-61437587D01*
X93057013Y-61953512D01*
X92998222Y-62475288D01*
X92978590Y-62999999D01*
X92998222Y-63524711D01*
X93057013Y-64046487D01*
X93154631Y-64562412D01*
X93290534Y-65069605D01*
X93463950Y-65565200D01*
X93463951Y-65565202D01*
X93463954Y-65565209D01*
X93555462Y-65774948D01*
X93673925Y-66046470D01*
X93673937Y-66046496D01*
X93919278Y-66510699D01*
X93919290Y-66510720D01*
X94198633Y-66955293D01*
X94198645Y-66955310D01*
X94510438Y-67377775D01*
X94510451Y-67377791D01*
X94779012Y-67689864D01*
X94852942Y-67775772D01*
X94852954Y-67775784D01*
X94852965Y-67775796D01*
X95224203Y-68147034D01*
X95224215Y-68147045D01*
X95224228Y-68147058D01*
X95346780Y-68252522D01*
X95622208Y-68489548D01*
X95622224Y-68489561D01*
X96044689Y-68801354D01*
X96044706Y-68801366D01*
X96489279Y-69080709D01*
X96489295Y-69080719D01*
X96660588Y-69171250D01*
X96953503Y-69326062D01*
X96953519Y-69326069D01*
X96953524Y-69326072D01*
X97434791Y-69536046D01*
X97434798Y-69536048D01*
X97434799Y-69536049D01*
X97593795Y-69591684D01*
X97930403Y-69709468D01*
X98437589Y-69845369D01*
X98697676Y-69894580D01*
X98897425Y-69932375D01*
X98960639Y-69964692D01*
X98996347Y-70026056D01*
X99000000Y-70056178D01*
X99000000Y-90522229D01*
X98979998Y-90590350D01*
X98926342Y-90636843D01*
X98886351Y-90647622D01*
X98770239Y-90659059D01*
X98161933Y-90759490D01*
X97561520Y-90899487D01*
X96971555Y-91078452D01*
X96971547Y-91078454D01*
X96394535Y-91295626D01*
X95832962Y-91550071D01*
X95832945Y-91550080D01*
X95289227Y-91840704D01*
X94765671Y-92166272D01*
X94765667Y-92166274D01*
X94264529Y-92525385D01*
X94264528Y-92525386D01*
X93787943Y-92916509D01*
X93337962Y-93337962D01*
X92916509Y-93787943D01*
X92525386Y-94264528D01*
X92525385Y-94264529D01*
X92166274Y-94765667D01*
X92166272Y-94765671D01*
X91840704Y-95289227D01*
X91550080Y-95832945D01*
X91550071Y-95832962D01*
X91295626Y-96394535D01*
X91078454Y-96971547D01*
X91078452Y-96971555D01*
X90899487Y-97561520D01*
X90759490Y-98161933D01*
X90659060Y-98770235D01*
X90659057Y-98770251D01*
X90647623Y-98886350D01*
X90621040Y-98952183D01*
X90563086Y-98993192D01*
X90522230Y-99000000D01*
X70056178Y-99000000D01*
X69988057Y-98979998D01*
X69941564Y-98926342D01*
X69932375Y-98897425D01*
X69897659Y-98713953D01*
X69845369Y-98437589D01*
X69709468Y-97930403D01*
X69580392Y-97561525D01*
X69536049Y-97434799D01*
X69536048Y-97434798D01*
X69536046Y-97434791D01*
X69326072Y-96953524D01*
X69326069Y-96953519D01*
X69326062Y-96953503D01*
X69171250Y-96660588D01*
X69080719Y-96489295D01*
X69080709Y-96489279D01*
X68801366Y-96044706D01*
X68801354Y-96044689D01*
X68489561Y-95622224D01*
X68489548Y-95622208D01*
X68147067Y-95224239D01*
X68147058Y-95224228D01*
X68147045Y-95224215D01*
X68147034Y-95224203D01*
X67775796Y-94852965D01*
X67775784Y-94852954D01*
X67775772Y-94852942D01*
X67674361Y-94765671D01*
X67377791Y-94510451D01*
X67377775Y-94510438D01*
X66955310Y-94198645D01*
X66955293Y-94198633D01*
X66510720Y-93919290D01*
X66510712Y-93919285D01*
X66510705Y-93919281D01*
X66465089Y-93895172D01*
X66046496Y-93673937D01*
X66046470Y-93673925D01*
X65862513Y-93593666D01*
X65565209Y-93463954D01*
X65565202Y-93463951D01*
X65565200Y-93463950D01*
X65069605Y-93290534D01*
X64562412Y-93154631D01*
X64046487Y-93057013D01*
X63524711Y-92998222D01*
X63018923Y-92979298D01*
X63000000Y-92978590D01*
X62999999Y-92978590D01*
X62475288Y-92998222D01*
X61953512Y-93057013D01*
X61437587Y-93154631D01*
X60930394Y-93290534D01*
X60434799Y-93463950D01*
X60434796Y-93463952D01*
X59953529Y-93673925D01*
X59953503Y-93673937D01*
X59489300Y-93919278D01*
X59489279Y-93919290D01*
X59044706Y-94198633D01*
X59044689Y-94198645D01*
X58622224Y-94510438D01*
X58622208Y-94510451D01*
X58224239Y-94852932D01*
X58224203Y-94852965D01*
X57852965Y-95224203D01*
X57852932Y-95224239D01*
X57510451Y-95622208D01*
X57510438Y-95622224D01*
X57198645Y-96044689D01*
X57198633Y-96044706D01*
X56919290Y-96489279D01*
X56919278Y-96489300D01*
X56673937Y-96953503D01*
X56673925Y-96953529D01*
X56463952Y-97434796D01*
X56463950Y-97434799D01*
X56290534Y-97930394D01*
X56154631Y-98437587D01*
X56067625Y-98897425D01*
X56035308Y-98960639D01*
X55973944Y-98996347D01*
X55943822Y-99000000D01*
X51126000Y-99000000D01*
X51057879Y-98979998D01*
X51011386Y-98926342D01*
X51000000Y-98874000D01*
X51000000Y-81280000D01*
X59042732Y-81280000D01*
X59061779Y-81546312D01*
X59118529Y-81807188D01*
X59118529Y-81807189D01*
X59211832Y-82057346D01*
X59211837Y-82057357D01*
X59285426Y-82192128D01*
X59300517Y-82261502D01*
X59275705Y-82328022D01*
X59272239Y-82332444D01*
X59214722Y-82402529D01*
X59214721Y-82402531D01*
X59120334Y-82579116D01*
X59120332Y-82579122D01*
X59062206Y-82770736D01*
X59062206Y-82770739D01*
X59047500Y-82920057D01*
X59047500Y-84719942D01*
X59062206Y-84869260D01*
X59062206Y-84869263D01*
X59120332Y-85060877D01*
X59120334Y-85060883D01*
X59214720Y-85237466D01*
X59214722Y-85237469D01*
X59341748Y-85392252D01*
X59496531Y-85519278D01*
X59673120Y-85613667D01*
X59864731Y-85671792D01*
X59864736Y-85671792D01*
X59864738Y-85671793D01*
X59974069Y-85682560D01*
X60014066Y-85686500D01*
X60014075Y-85686500D01*
X61813925Y-85686500D01*
X61813934Y-85686500D01*
X61911179Y-85676922D01*
X61963260Y-85671793D01*
X61963263Y-85671793D01*
X61963264Y-85671792D01*
X61963269Y-85671792D01*
X62154880Y-85613667D01*
X62331469Y-85519278D01*
X62486252Y-85392252D01*
X62613278Y-85237469D01*
X62707667Y-85060880D01*
X62765792Y-84869269D01*
X62780500Y-84719934D01*
X62780500Y-82920066D01*
X62765793Y-82770739D01*
X62765793Y-82770736D01*
X62765792Y-82770733D01*
X62765792Y-82770731D01*
X62707667Y-82579120D01*
X62613278Y-82402531D01*
X62555759Y-82332444D01*
X62528007Y-82267097D01*
X62539989Y-82197119D01*
X62542572Y-82192128D01*
X62616165Y-82057353D01*
X62709468Y-81807197D01*
X62766221Y-81546309D01*
X62780736Y-81343344D01*
X62805546Y-81276826D01*
X62817313Y-81263246D01*
X70326467Y-73754094D01*
X70326467Y-73754093D01*
X70344180Y-73736381D01*
X70344183Y-73736376D01*
X70367807Y-73712754D01*
X70399775Y-73667097D01*
X70403089Y-73662778D01*
X70438924Y-73620073D01*
X70466795Y-73571797D01*
X70469722Y-73567202D01*
X70501691Y-73521548D01*
X70525246Y-73471031D01*
X70527764Y-73466195D01*
X70555634Y-73417926D01*
X70574692Y-73365561D01*
X70576784Y-73360508D01*
X70600339Y-73309998D01*
X70614763Y-73256161D01*
X70616412Y-73250935D01*
X70635465Y-73198589D01*
X70635468Y-73198577D01*
X70645145Y-73143692D01*
X70646324Y-73138374D01*
X70660752Y-73084532D01*
X70665609Y-73029014D01*
X70666324Y-73023582D01*
X70676000Y-72968710D01*
X70676000Y-72735290D01*
X70676000Y-70834750D01*
X70696002Y-70766630D01*
X70749658Y-70720137D01*
X70819932Y-70710033D01*
X70884512Y-70739527D01*
X70891095Y-70745656D01*
X77206193Y-77060754D01*
X77371246Y-77225807D01*
X77371250Y-77225810D01*
X77371254Y-77225813D01*
X77416881Y-77257761D01*
X77421243Y-77261108D01*
X77463927Y-77296924D01*
X77512203Y-77324797D01*
X77516804Y-77327728D01*
X77562452Y-77359691D01*
X77612939Y-77383233D01*
X77617812Y-77385770D01*
X77666068Y-77413631D01*
X77666070Y-77413631D01*
X77666074Y-77413634D01*
X77698457Y-77425420D01*
X77718434Y-77432691D01*
X77723515Y-77434796D01*
X77774002Y-77458339D01*
X77817523Y-77470000D01*
X77827816Y-77472758D01*
X77833062Y-77474412D01*
X77885417Y-77493468D01*
X77885421Y-77493468D01*
X77885422Y-77493469D01*
X77893197Y-77494839D01*
X77940304Y-77503145D01*
X77945646Y-77504330D01*
X77999468Y-77518752D01*
X78052622Y-77523401D01*
X78054968Y-77523607D01*
X78060420Y-77524325D01*
X78100673Y-77531422D01*
X78115290Y-77534000D01*
X78173753Y-77534000D01*
X82093917Y-77534000D01*
X82162038Y-77554002D01*
X82208531Y-77607658D01*
X82218635Y-77677932D01*
X82201419Y-77724078D01*
X82201946Y-77724366D01*
X82199946Y-77728027D01*
X82199908Y-77728131D01*
X82199789Y-77728315D01*
X82071834Y-77962647D01*
X81978529Y-78212810D01*
X81978529Y-78212811D01*
X81921779Y-78473687D01*
X81902732Y-78739999D01*
X81921779Y-79006312D01*
X81978529Y-79267188D01*
X81978529Y-79267189D01*
X82071834Y-79517352D01*
X82071835Y-79517353D01*
X82199789Y-79751684D01*
X82265657Y-79839673D01*
X82336636Y-79934491D01*
X82361447Y-80001012D01*
X82346355Y-80070386D01*
X82336636Y-80085509D01*
X82199789Y-80268316D01*
X82071834Y-80502647D01*
X81978529Y-80752810D01*
X81978529Y-80752811D01*
X81921779Y-81013687D01*
X81902732Y-81280000D01*
X81921779Y-81546312D01*
X81978529Y-81807188D01*
X81978529Y-81807189D01*
X82071832Y-82057346D01*
X82071837Y-82057357D01*
X82145426Y-82192128D01*
X82160517Y-82261502D01*
X82135705Y-82328022D01*
X82132239Y-82332444D01*
X82074722Y-82402529D01*
X82074721Y-82402531D01*
X81980334Y-82579116D01*
X81980332Y-82579122D01*
X81922206Y-82770736D01*
X81922206Y-82770739D01*
X81907500Y-82920057D01*
X81907500Y-84719942D01*
X81922206Y-84869260D01*
X81922206Y-84869263D01*
X81980332Y-85060877D01*
X81980334Y-85060883D01*
X82074720Y-85237466D01*
X82074722Y-85237469D01*
X82201748Y-85392252D01*
X82356531Y-85519278D01*
X82533120Y-85613667D01*
X82724731Y-85671792D01*
X82724736Y-85671792D01*
X82724738Y-85671793D01*
X82834069Y-85682560D01*
X82874066Y-85686500D01*
X82874075Y-85686500D01*
X84673925Y-85686500D01*
X84673934Y-85686500D01*
X84771179Y-85676922D01*
X84823260Y-85671793D01*
X84823263Y-85671793D01*
X84823264Y-85671792D01*
X84823269Y-85671792D01*
X85014880Y-85613667D01*
X85191469Y-85519278D01*
X85346252Y-85392252D01*
X85473278Y-85237469D01*
X85567667Y-85060880D01*
X85625792Y-84869269D01*
X85640500Y-84719934D01*
X85640500Y-82920066D01*
X85625793Y-82770739D01*
X85625793Y-82770736D01*
X85625792Y-82770733D01*
X85625792Y-82770731D01*
X85567667Y-82579120D01*
X85473278Y-82402531D01*
X85415759Y-82332444D01*
X85388007Y-82267097D01*
X85399989Y-82197119D01*
X85402572Y-82192128D01*
X85476165Y-82057353D01*
X85569468Y-81807197D01*
X85626221Y-81546309D01*
X85645268Y-81280000D01*
X85626221Y-81013691D01*
X85569468Y-80752803D01*
X85476165Y-80502647D01*
X85348211Y-80268316D01*
X85211362Y-80085508D01*
X85186552Y-80018989D01*
X85201643Y-79949615D01*
X85211363Y-79934491D01*
X85348211Y-79751684D01*
X85476165Y-79517353D01*
X85569468Y-79267197D01*
X85626221Y-79006309D01*
X85645268Y-78740000D01*
X85626221Y-78473691D01*
X85569468Y-78212803D01*
X85476165Y-77962647D01*
X85348211Y-77728316D01*
X85211362Y-77545508D01*
X85186552Y-77478989D01*
X85201643Y-77409615D01*
X85211363Y-77394491D01*
X85348211Y-77211684D01*
X85476165Y-76977353D01*
X85569468Y-76727197D01*
X85626221Y-76466309D01*
X85645268Y-76200000D01*
X85626221Y-75933691D01*
X85569468Y-75672803D01*
X85476165Y-75422647D01*
X85348211Y-75188316D01*
X85260220Y-75070774D01*
X85211363Y-75005508D01*
X85186552Y-74938988D01*
X85201644Y-74869613D01*
X85211357Y-74854498D01*
X85348211Y-74671684D01*
X85476165Y-74437353D01*
X85569468Y-74187197D01*
X85626221Y-73926309D01*
X85645268Y-73660000D01*
X85626221Y-73393691D01*
X85569468Y-73132803D01*
X85476165Y-72882647D01*
X85348211Y-72648316D01*
X85211362Y-72465508D01*
X85186552Y-72398989D01*
X85201643Y-72329615D01*
X85211363Y-72314491D01*
X85222631Y-72299439D01*
X85348211Y-72131684D01*
X85476165Y-71897353D01*
X85569468Y-71647197D01*
X85626221Y-71386309D01*
X85645268Y-71120000D01*
X85626221Y-70853691D01*
X85569468Y-70592803D01*
X85476165Y-70342647D01*
X85348211Y-70108316D01*
X85217721Y-69934002D01*
X85211363Y-69925508D01*
X85186552Y-69858988D01*
X85201644Y-69789613D01*
X85211357Y-69774498D01*
X85348211Y-69591684D01*
X85476165Y-69357353D01*
X85569468Y-69107197D01*
X85626221Y-68846309D01*
X85645268Y-68580000D01*
X85626221Y-68313691D01*
X85589967Y-68147034D01*
X85569470Y-68052811D01*
X85569470Y-68052810D01*
X85569468Y-68052806D01*
X85569468Y-68052803D01*
X85476165Y-67802647D01*
X85348211Y-67568316D01*
X85211362Y-67385508D01*
X85186552Y-67318989D01*
X85201643Y-67249615D01*
X85211363Y-67234491D01*
X85257887Y-67172342D01*
X85348211Y-67051684D01*
X85476165Y-66817353D01*
X85569468Y-66567197D01*
X85626221Y-66306309D01*
X85645268Y-66040000D01*
X85626221Y-65773691D01*
X85605072Y-65676471D01*
X85569470Y-65512811D01*
X85569470Y-65512810D01*
X85569468Y-65512806D01*
X85569468Y-65512803D01*
X85476165Y-65262647D01*
X85348211Y-65028316D01*
X85211362Y-64845507D01*
X85186552Y-64778989D01*
X85201643Y-64709615D01*
X85211363Y-64694491D01*
X85211364Y-64694490D01*
X85348211Y-64511684D01*
X85476165Y-64277353D01*
X85569468Y-64027197D01*
X85626221Y-63766309D01*
X85645268Y-63500000D01*
X85626221Y-63233691D01*
X85597431Y-63101348D01*
X85569470Y-62972811D01*
X85569470Y-62972810D01*
X85569468Y-62972806D01*
X85569468Y-62972803D01*
X85476165Y-62722647D01*
X85348211Y-62488316D01*
X85232004Y-62333082D01*
X85211363Y-62305508D01*
X85186552Y-62238988D01*
X85201644Y-62169613D01*
X85211357Y-62154498D01*
X85348211Y-61971684D01*
X85476165Y-61737353D01*
X85569468Y-61487197D01*
X85626221Y-61226309D01*
X85645268Y-60960000D01*
X85626221Y-60693691D01*
X85569902Y-60434796D01*
X85569470Y-60432811D01*
X85569470Y-60432810D01*
X85569468Y-60432806D01*
X85569468Y-60432803D01*
X85476165Y-60182647D01*
X85348211Y-59948316D01*
X85188210Y-59734580D01*
X84999420Y-59545790D01*
X84999417Y-59545788D01*
X84999414Y-59545785D01*
X84912963Y-59481069D01*
X84785684Y-59385789D01*
X84657728Y-59315920D01*
X84551352Y-59257834D01*
X84301189Y-59164529D01*
X84040311Y-59107779D01*
X84040313Y-59107779D01*
X83827261Y-59092541D01*
X83774000Y-59088732D01*
X83773999Y-59088732D01*
X83507687Y-59107779D01*
X83246811Y-59164529D01*
X83246810Y-59164529D01*
X82996647Y-59257834D01*
X82762316Y-59385789D01*
X82548585Y-59545785D01*
X82548576Y-59545793D01*
X82359793Y-59734576D01*
X82359785Y-59734585D01*
X82199789Y-59948316D01*
X82071834Y-60182647D01*
X81978529Y-60432810D01*
X81978529Y-60432811D01*
X81921779Y-60693687D01*
X81902732Y-60960000D01*
X81921779Y-61226312D01*
X81978529Y-61487188D01*
X81978529Y-61487189D01*
X82071834Y-61737352D01*
X82084908Y-61761295D01*
X82199789Y-61971684D01*
X82251609Y-62040907D01*
X82336636Y-62154490D01*
X82361447Y-62221010D01*
X82346356Y-62290384D01*
X82336637Y-62305507D01*
X82199788Y-62488317D01*
X82071834Y-62722647D01*
X81978529Y-62972810D01*
X81978529Y-62972811D01*
X81921779Y-63233685D01*
X81921778Y-63233691D01*
X81907262Y-63436653D01*
X81882451Y-63503173D01*
X81870678Y-63516759D01*
X79448344Y-65939095D01*
X79386032Y-65973120D01*
X79359249Y-65976000D01*
X76970043Y-65976000D01*
X76901922Y-65955998D01*
X76855429Y-65902342D01*
X76844473Y-65860408D01*
X76839970Y-65806053D01*
X76782342Y-65578487D01*
X76782337Y-65578475D01*
X76780650Y-65573560D01*
X76781394Y-65573304D01*
X76772000Y-65528490D01*
X76772000Y-65136758D01*
X76788417Y-65074568D01*
X76790976Y-65070058D01*
X76790979Y-65070054D01*
X76809938Y-65028316D01*
X76855884Y-64927161D01*
X76885260Y-64862489D01*
X76910306Y-64763089D01*
X76946345Y-64701923D01*
X77009734Y-64669949D01*
X77080347Y-64677322D01*
X77135764Y-64721700D01*
X77151458Y-64755393D01*
X77151863Y-64755238D01*
X77154095Y-64761055D01*
X77154190Y-64761257D01*
X77154228Y-64761399D01*
X77238687Y-64927158D01*
X77238688Y-64927161D01*
X77355763Y-65071736D01*
X77500338Y-65188811D01*
X77500341Y-65188812D01*
X77666097Y-65273269D01*
X77845789Y-65321417D01*
X77923061Y-65327500D01*
X78143500Y-65327500D01*
X78143500Y-64046500D01*
X78651500Y-64046500D01*
X78651500Y-65327500D01*
X78871939Y-65327500D01*
X78949210Y-65321417D01*
X79128902Y-65273269D01*
X79294658Y-65188812D01*
X79294661Y-65188811D01*
X79439236Y-65071736D01*
X79556311Y-64927161D01*
X79556312Y-64927158D01*
X79640769Y-64761402D01*
X79688917Y-64581710D01*
X79695000Y-64504438D01*
X79695000Y-64046500D01*
X78651500Y-64046500D01*
X78143500Y-64046500D01*
X78143500Y-62257500D01*
X78651500Y-62257500D01*
X78651500Y-63538500D01*
X79695000Y-63538500D01*
X79695000Y-63080561D01*
X79688917Y-63003289D01*
X79640769Y-62823597D01*
X79556312Y-62657841D01*
X79556311Y-62657838D01*
X79439236Y-62513263D01*
X79294661Y-62396188D01*
X79294658Y-62396187D01*
X79128902Y-62311730D01*
X78949210Y-62263582D01*
X78871939Y-62257500D01*
X78651500Y-62257500D01*
X78143500Y-62257500D01*
X77923061Y-62257500D01*
X77845789Y-62263582D01*
X77666097Y-62311730D01*
X77500341Y-62396187D01*
X77500338Y-62396188D01*
X77355763Y-62513263D01*
X77238688Y-62657838D01*
X77238687Y-62657841D01*
X77154228Y-62823600D01*
X77154189Y-62823747D01*
X77154142Y-62823822D01*
X77151863Y-62829762D01*
X77150776Y-62829344D01*
X77117230Y-62884365D01*
X77053366Y-62915379D01*
X76982872Y-62906942D01*
X76928131Y-62861732D01*
X76910305Y-62821907D01*
X76885261Y-62722516D01*
X76885260Y-62722511D01*
X76790979Y-62514946D01*
X76661152Y-62327550D01*
X76661150Y-62327548D01*
X76661142Y-62327539D01*
X76499960Y-62166357D01*
X76499951Y-62166349D01*
X76482835Y-62154491D01*
X76312554Y-62036521D01*
X76312552Y-62036520D01*
X76312549Y-62036518D01*
X76104994Y-61942242D01*
X76104991Y-61942241D01*
X76104989Y-61942240D01*
X75883925Y-61886537D01*
X75750042Y-61876000D01*
X75750039Y-61876000D01*
X75747574Y-61875806D01*
X75747622Y-61875185D01*
X75682757Y-61853330D01*
X75638414Y-61797885D01*
X75629000Y-61750097D01*
X75629000Y-57872820D01*
X75649002Y-57804699D01*
X75665906Y-57783724D01*
X75681086Y-57768542D01*
X75709210Y-57740420D01*
X75869211Y-57526684D01*
X75997165Y-57292353D01*
X76090468Y-57042197D01*
X76147221Y-56781309D01*
X76166268Y-56515000D01*
X76147221Y-56248691D01*
X76107832Y-56067625D01*
X76090470Y-55987811D01*
X76090470Y-55987810D01*
X76090468Y-55987806D01*
X76090468Y-55987803D01*
X75997165Y-55737647D01*
X75869211Y-55503316D01*
X75709210Y-55289580D01*
X75520420Y-55100790D01*
X75520417Y-55100788D01*
X75520414Y-55100785D01*
X75425856Y-55030000D01*
X75306684Y-54940789D01*
X75178729Y-54870920D01*
X75072352Y-54812834D01*
X74822189Y-54719529D01*
X74561311Y-54662779D01*
X74561313Y-54662779D01*
X74295000Y-54643732D01*
X74028687Y-54662779D01*
X73767811Y-54719529D01*
X73767810Y-54719529D01*
X73517647Y-54812834D01*
X73283316Y-54940789D01*
X73100509Y-55077636D01*
X73033988Y-55102447D01*
X72964614Y-55087355D01*
X72949491Y-55077636D01*
X72854673Y-55006657D01*
X72766684Y-54940789D01*
X72638728Y-54870920D01*
X72532352Y-54812834D01*
X72282189Y-54719529D01*
X72021311Y-54662779D01*
X72021313Y-54662779D01*
X71755000Y-54643732D01*
X71488687Y-54662779D01*
X71227811Y-54719529D01*
X71227810Y-54719529D01*
X70977647Y-54812834D01*
X70743316Y-54940789D01*
X70529580Y-55100790D01*
X70528700Y-55101553D01*
X70528345Y-55101715D01*
X70525978Y-55103487D01*
X70525592Y-55102971D01*
X70464116Y-55131039D01*
X70393843Y-55120927D01*
X70382059Y-55114772D01*
X70319197Y-55077595D01*
X70165130Y-55032834D01*
X70165117Y-55032832D01*
X70129136Y-55030000D01*
X69469000Y-55030000D01*
X69469000Y-56081325D01*
X69357315Y-56030320D01*
X69250763Y-56015000D01*
X69179237Y-56015000D01*
X69072685Y-56030320D01*
X68961000Y-56081325D01*
X68961000Y-55030000D01*
X68300864Y-55030000D01*
X68264882Y-55032832D01*
X68264869Y-55032834D01*
X68110802Y-55077595D01*
X67972714Y-55159261D01*
X67972707Y-55159266D01*
X67859266Y-55272707D01*
X67859261Y-55272714D01*
X67777595Y-55410802D01*
X67732834Y-55564869D01*
X67732832Y-55564882D01*
X67730000Y-55600863D01*
X67730000Y-56261000D01*
X68783884Y-56261000D01*
X68755507Y-56305156D01*
X68715000Y-56443111D01*
X68715000Y-56586889D01*
X68755507Y-56724844D01*
X68783884Y-56769000D01*
X67730000Y-56769000D01*
X67730000Y-57429136D01*
X67732832Y-57465117D01*
X67732834Y-57465130D01*
X67777595Y-57619197D01*
X67859261Y-57757285D01*
X67859266Y-57757292D01*
X67972707Y-57870733D01*
X67972714Y-57870738D01*
X68110802Y-57952404D01*
X68264869Y-57997165D01*
X68264882Y-57997167D01*
X68300863Y-57999999D01*
X68300865Y-58000000D01*
X68961000Y-58000000D01*
X68961000Y-56948674D01*
X69072685Y-56999680D01*
X69179237Y-57015000D01*
X69250763Y-57015000D01*
X69357315Y-56999680D01*
X69469000Y-56948674D01*
X69469000Y-58000000D01*
X70129135Y-58000000D01*
X70129136Y-57999999D01*
X70165117Y-57997167D01*
X70165127Y-57997165D01*
X70259846Y-57969647D01*
X70330843Y-57969850D01*
X70390459Y-58008403D01*
X70419768Y-58073068D01*
X70421000Y-58090644D01*
X70421000Y-58196248D01*
X70400998Y-58264369D01*
X70384094Y-58285343D01*
X68476846Y-60192593D01*
X68394320Y-60275118D01*
X68311795Y-60357643D01*
X68311791Y-60357647D01*
X68279837Y-60403282D01*
X68276491Y-60407643D01*
X68240676Y-60450326D01*
X68212815Y-60498581D01*
X68209862Y-60503217D01*
X68177909Y-60548850D01*
X68154365Y-60599339D01*
X68151828Y-60604213D01*
X68123965Y-60652474D01*
X68104908Y-60704833D01*
X68102804Y-60709911D01*
X68079260Y-60760400D01*
X68079259Y-60760403D01*
X68064840Y-60814218D01*
X68063188Y-60819459D01*
X68044133Y-60871816D01*
X68034457Y-60926684D01*
X68033267Y-60932049D01*
X68018847Y-60985866D01*
X68013991Y-61041371D01*
X68013274Y-61046820D01*
X68003600Y-61101689D01*
X68003600Y-61171581D01*
X67983598Y-61239702D01*
X67975001Y-61251513D01*
X67929522Y-61306929D01*
X67929521Y-61306931D01*
X67835134Y-61483516D01*
X67835132Y-61483522D01*
X67777007Y-61675133D01*
X67776081Y-61684547D01*
X67749500Y-61750380D01*
X67735322Y-61760413D01*
X67736204Y-61761295D01*
X67699300Y-61798199D01*
X67699300Y-65164700D01*
X67679298Y-65232821D01*
X67625642Y-65279314D01*
X67573300Y-65290700D01*
X66238800Y-65290700D01*
X66238800Y-67120000D01*
X66218798Y-67188121D01*
X66165142Y-67234614D01*
X66112800Y-67246000D01*
X62594083Y-67246000D01*
X62525962Y-67225998D01*
X62479469Y-67172342D01*
X62469365Y-67102068D01*
X62486580Y-67055921D01*
X62486054Y-67055634D01*
X62488053Y-67051972D01*
X62488092Y-67051869D01*
X62488204Y-67051693D01*
X62488211Y-67051684D01*
X62616165Y-66817353D01*
X62709468Y-66567197D01*
X62766221Y-66306309D01*
X62785268Y-66040000D01*
X62766221Y-65773691D01*
X62745072Y-65676471D01*
X62709470Y-65512811D01*
X62709470Y-65512810D01*
X62709468Y-65512806D01*
X62709468Y-65512803D01*
X62616165Y-65262647D01*
X62488211Y-65028316D01*
X62351362Y-64845507D01*
X62327936Y-64782700D01*
X66238800Y-64782700D01*
X67191300Y-64782700D01*
X67191300Y-61798200D01*
X66809664Y-61798200D01*
X66773682Y-61801032D01*
X66773669Y-61801034D01*
X66619602Y-61845795D01*
X66481514Y-61927461D01*
X66481507Y-61927466D01*
X66368066Y-62040907D01*
X66368061Y-62040914D01*
X66286395Y-62179002D01*
X66241634Y-62333069D01*
X66241632Y-62333082D01*
X66238800Y-62369063D01*
X66238800Y-64782700D01*
X62327936Y-64782700D01*
X62326552Y-64778989D01*
X62341643Y-64709615D01*
X62351363Y-64694491D01*
X62351364Y-64694490D01*
X62488211Y-64511684D01*
X62616165Y-64277353D01*
X62709468Y-64027197D01*
X62766221Y-63766309D01*
X62785268Y-63500000D01*
X62766221Y-63233691D01*
X62737431Y-63101348D01*
X62709470Y-62972811D01*
X62709470Y-62972810D01*
X62709468Y-62972806D01*
X62709468Y-62972803D01*
X62616165Y-62722647D01*
X62488211Y-62488316D01*
X62372004Y-62333082D01*
X62351363Y-62305508D01*
X62326552Y-62238988D01*
X62341644Y-62169613D01*
X62351357Y-62154498D01*
X62488211Y-61971684D01*
X62616165Y-61737353D01*
X62709468Y-61487197D01*
X62766221Y-61226309D01*
X62785268Y-60960000D01*
X62766221Y-60693691D01*
X62709902Y-60434796D01*
X62709470Y-60432811D01*
X62709470Y-60432810D01*
X62709468Y-60432806D01*
X62709468Y-60432803D01*
X62616165Y-60182647D01*
X62488211Y-59948316D01*
X62328210Y-59734580D01*
X62139420Y-59545790D01*
X62139417Y-59545788D01*
X62139414Y-59545785D01*
X62052963Y-59481069D01*
X61925684Y-59385789D01*
X61797728Y-59315920D01*
X61691352Y-59257834D01*
X61441189Y-59164529D01*
X61180311Y-59107779D01*
X61180313Y-59107779D01*
X60914000Y-59088732D01*
X60647687Y-59107779D01*
X60386811Y-59164529D01*
X60386810Y-59164529D01*
X60136647Y-59257834D01*
X59902316Y-59385789D01*
X59688585Y-59545785D01*
X59688576Y-59545793D01*
X59499793Y-59734576D01*
X59499785Y-59734585D01*
X59339789Y-59948316D01*
X59211834Y-60182647D01*
X59118529Y-60432810D01*
X59118529Y-60432811D01*
X59061779Y-60693687D01*
X59042732Y-60959999D01*
X59061779Y-61226312D01*
X59118529Y-61487188D01*
X59118529Y-61487189D01*
X59211834Y-61737352D01*
X59224908Y-61761295D01*
X59339789Y-61971684D01*
X59391609Y-62040907D01*
X59476636Y-62154491D01*
X59501447Y-62221012D01*
X59486355Y-62290386D01*
X59476636Y-62305509D01*
X59339789Y-62488316D01*
X59211834Y-62722647D01*
X59118529Y-62972810D01*
X59118529Y-62972811D01*
X59061779Y-63233687D01*
X59042732Y-63499999D01*
X59061779Y-63766312D01*
X59118529Y-64027188D01*
X59118529Y-64027189D01*
X59211834Y-64277352D01*
X59211835Y-64277353D01*
X59339789Y-64511684D01*
X59377763Y-64562411D01*
X59476636Y-64694490D01*
X59501447Y-64761010D01*
X59486356Y-64830384D01*
X59476637Y-64845507D01*
X59339788Y-65028317D01*
X59211834Y-65262647D01*
X59118529Y-65512810D01*
X59118529Y-65512811D01*
X59061779Y-65773687D01*
X59042732Y-66039999D01*
X59061779Y-66306312D01*
X59118529Y-66567188D01*
X59118529Y-66567189D01*
X59211834Y-66817352D01*
X59211835Y-66817353D01*
X59339789Y-67051684D01*
X59377506Y-67102068D01*
X59476636Y-67234491D01*
X59501447Y-67301012D01*
X59486355Y-67370386D01*
X59476636Y-67385509D01*
X59339789Y-67568316D01*
X59211834Y-67802647D01*
X59118529Y-68052810D01*
X59118529Y-68052811D01*
X59061779Y-68313687D01*
X59042732Y-68580000D01*
X59061779Y-68846312D01*
X59118529Y-69107188D01*
X59118529Y-69107189D01*
X59211834Y-69357352D01*
X59211835Y-69357353D01*
X59339789Y-69591684D01*
X59405657Y-69679673D01*
X59476636Y-69774491D01*
X59501447Y-69841012D01*
X59486355Y-69910386D01*
X59476636Y-69925509D01*
X59339789Y-70108316D01*
X59211834Y-70342647D01*
X59118529Y-70592810D01*
X59118529Y-70592811D01*
X59061779Y-70853687D01*
X59042732Y-71120000D01*
X59061779Y-71386312D01*
X59118529Y-71647188D01*
X59118529Y-71647189D01*
X59211834Y-71897352D01*
X59211835Y-71897353D01*
X59339789Y-72131684D01*
X59405657Y-72219673D01*
X59476636Y-72314491D01*
X59501447Y-72381012D01*
X59486355Y-72450386D01*
X59476636Y-72465509D01*
X59339789Y-72648316D01*
X59211834Y-72882647D01*
X59118529Y-73132810D01*
X59118529Y-73132811D01*
X59061779Y-73393687D01*
X59042732Y-73660000D01*
X59061779Y-73926312D01*
X59118529Y-74187188D01*
X59118529Y-74187189D01*
X59211834Y-74437352D01*
X59211835Y-74437353D01*
X59339789Y-74671684D01*
X59457626Y-74829095D01*
X59476636Y-74854490D01*
X59501447Y-74921010D01*
X59486356Y-74990384D01*
X59476637Y-75005507D01*
X59339788Y-75188317D01*
X59211834Y-75422647D01*
X59118529Y-75672810D01*
X59118529Y-75672811D01*
X59061779Y-75933687D01*
X59042732Y-76199999D01*
X59061779Y-76466312D01*
X59118529Y-76727188D01*
X59118529Y-76727189D01*
X59211834Y-76977352D01*
X59211835Y-76977353D01*
X59339789Y-77211684D01*
X59403596Y-77296920D01*
X59476636Y-77394491D01*
X59501447Y-77461012D01*
X59486355Y-77530386D01*
X59476636Y-77545509D01*
X59339789Y-77728316D01*
X59211834Y-77962647D01*
X59118529Y-78212810D01*
X59118529Y-78212811D01*
X59061779Y-78473687D01*
X59042732Y-78739999D01*
X59061779Y-79006312D01*
X59118529Y-79267188D01*
X59118529Y-79267189D01*
X59211834Y-79517352D01*
X59211835Y-79517353D01*
X59339789Y-79751684D01*
X59405657Y-79839673D01*
X59476636Y-79934491D01*
X59501447Y-80001012D01*
X59486355Y-80070386D01*
X59476636Y-80085509D01*
X59339789Y-80268316D01*
X59211834Y-80502647D01*
X59118529Y-80752810D01*
X59118529Y-80752811D01*
X59061779Y-81013687D01*
X59042732Y-81280000D01*
X51000000Y-81280000D01*
X51000000Y-51126000D01*
X51020002Y-51057879D01*
X51073658Y-51011386D01*
X51126000Y-51000000D01*
X98874000Y-51000000D01*
X98942121Y-51020002D01*
G37*
%TD.AperFunction*%
%TD*%
%TA.AperFunction,Conductor*%
%TO.N,Net-(J1-Pin_1)*%
G36*
X130011943Y-101020002D02*
G01*
X130058436Y-101073658D01*
X130067625Y-101102575D01*
X130154631Y-101562412D01*
X130290534Y-102069605D01*
X130463950Y-102565200D01*
X130463951Y-102565202D01*
X130463954Y-102565209D01*
X130593666Y-102862513D01*
X130673925Y-103046470D01*
X130673937Y-103046496D01*
X130919278Y-103510699D01*
X130919290Y-103510720D01*
X131198633Y-103955293D01*
X131198645Y-103955310D01*
X131510438Y-104377775D01*
X131510451Y-104377791D01*
X131779012Y-104689864D01*
X131852942Y-104775772D01*
X131852954Y-104775784D01*
X131852965Y-104775796D01*
X132224203Y-105147034D01*
X132224215Y-105147045D01*
X132224228Y-105147058D01*
X132325638Y-105234328D01*
X132622208Y-105489548D01*
X132622224Y-105489561D01*
X133044689Y-105801354D01*
X133044706Y-105801366D01*
X133489279Y-106080709D01*
X133489295Y-106080719D01*
X133660588Y-106171250D01*
X133953503Y-106326062D01*
X133953519Y-106326069D01*
X133953524Y-106326072D01*
X134434791Y-106536046D01*
X134434798Y-106536048D01*
X134434799Y-106536049D01*
X134930394Y-106709465D01*
X134930403Y-106709468D01*
X135437589Y-106845369D01*
X135953513Y-106942987D01*
X136416498Y-106995152D01*
X136475288Y-107001777D01*
X136494920Y-107002511D01*
X137000000Y-107021410D01*
X137524711Y-107001777D01*
X138046487Y-106942987D01*
X138562411Y-106845369D01*
X139069597Y-106709468D01*
X139565209Y-106536046D01*
X140046476Y-106326072D01*
X140046487Y-106326065D01*
X140046496Y-106326062D01*
X140262204Y-106212056D01*
X140510705Y-106080719D01*
X140955301Y-105801361D01*
X141377778Y-105489559D01*
X141775772Y-105147058D01*
X142147058Y-104775772D01*
X142489559Y-104377778D01*
X142801361Y-103955301D01*
X143080719Y-103510705D01*
X143245710Y-103198527D01*
X143326062Y-103046496D01*
X143326065Y-103046487D01*
X143326072Y-103046476D01*
X143536046Y-102565209D01*
X143709468Y-102069597D01*
X143845369Y-101562411D01*
X143908312Y-101229748D01*
X143932375Y-101102575D01*
X143964692Y-101039361D01*
X144026056Y-101003653D01*
X144056178Y-101000000D01*
X148874000Y-101000000D01*
X148942121Y-101020002D01*
X148988614Y-101073658D01*
X149000000Y-101126000D01*
X149000000Y-148874000D01*
X148979998Y-148942121D01*
X148926342Y-148988614D01*
X148874000Y-149000000D01*
X101126000Y-149000000D01*
X101057879Y-148979998D01*
X101011386Y-148926342D01*
X101000000Y-148874000D01*
X101000000Y-144056178D01*
X101020002Y-143988057D01*
X101073658Y-143941564D01*
X101102575Y-143932375D01*
X101257671Y-143903028D01*
X101562411Y-143845369D01*
X102069597Y-143709468D01*
X102565209Y-143536046D01*
X103046476Y-143326072D01*
X103046487Y-143326065D01*
X103046496Y-143326062D01*
X103239223Y-143224202D01*
X103510705Y-143080719D01*
X103955301Y-142801361D01*
X104377778Y-142489559D01*
X104775772Y-142147058D01*
X105147058Y-141775772D01*
X105489559Y-141377778D01*
X105801361Y-140955301D01*
X106080719Y-140510705D01*
X106255898Y-140179252D01*
X106326062Y-140046496D01*
X106326065Y-140046487D01*
X106326072Y-140046476D01*
X106536046Y-139565209D01*
X106709468Y-139069597D01*
X106845369Y-138562411D01*
X106942987Y-138046487D01*
X107001777Y-137524711D01*
X107021410Y-137000000D01*
X107008389Y-136651999D01*
X114414732Y-136651999D01*
X114433779Y-136918312D01*
X114490529Y-137179188D01*
X114490529Y-137179189D01*
X114583832Y-137429346D01*
X114583837Y-137429357D01*
X114657426Y-137564128D01*
X114672517Y-137633502D01*
X114647705Y-137700022D01*
X114644239Y-137704444D01*
X114586722Y-137774529D01*
X114586721Y-137774531D01*
X114492334Y-137951116D01*
X114492332Y-137951122D01*
X114434206Y-138142736D01*
X114434206Y-138142739D01*
X114419500Y-138292057D01*
X114419500Y-140091942D01*
X114434206Y-140241260D01*
X114434206Y-140241263D01*
X114492332Y-140432877D01*
X114492334Y-140432883D01*
X114533928Y-140510699D01*
X114586722Y-140609469D01*
X114713748Y-140764252D01*
X114868531Y-140891278D01*
X115045120Y-140985667D01*
X115236731Y-141043792D01*
X115236736Y-141043792D01*
X115236738Y-141043793D01*
X115346069Y-141054560D01*
X115386066Y-141058500D01*
X115386075Y-141058500D01*
X117185925Y-141058500D01*
X117185934Y-141058500D01*
X117283179Y-141048922D01*
X117335260Y-141043793D01*
X117335263Y-141043793D01*
X117335264Y-141043792D01*
X117335269Y-141043792D01*
X117526880Y-140985667D01*
X117703469Y-140891278D01*
X117858252Y-140764252D01*
X117985278Y-140609469D01*
X118079667Y-140432880D01*
X118137792Y-140241269D01*
X118152500Y-140091934D01*
X118152500Y-138292066D01*
X118137793Y-138142739D01*
X118137793Y-138142736D01*
X118137792Y-138142733D01*
X118137792Y-138142731D01*
X118079667Y-137951120D01*
X117985278Y-137774531D01*
X117927759Y-137704444D01*
X117900007Y-137639097D01*
X117911989Y-137569119D01*
X117914572Y-137564128D01*
X117988165Y-137429353D01*
X118081468Y-137179197D01*
X118138221Y-136918309D01*
X118152736Y-136715344D01*
X118177546Y-136648826D01*
X118189313Y-136635246D01*
X119188559Y-135636000D01*
X121475500Y-135636000D01*
X121475500Y-138049636D01*
X121478332Y-138085617D01*
X121478334Y-138085630D01*
X121523095Y-138239697D01*
X121604761Y-138377785D01*
X121604766Y-138377792D01*
X121718207Y-138491233D01*
X121718214Y-138491238D01*
X121856302Y-138572904D01*
X122010369Y-138617665D01*
X122010382Y-138617667D01*
X122046363Y-138620499D01*
X122046365Y-138620500D01*
X122428000Y-138620500D01*
X122428000Y-135636000D01*
X121475500Y-135636000D01*
X119188559Y-135636000D01*
X121260410Y-133564150D01*
X121322716Y-133530128D01*
X121393531Y-133535193D01*
X121450367Y-133577740D01*
X121475178Y-133644260D01*
X121475499Y-133653249D01*
X121475500Y-135128000D01*
X122810000Y-135128000D01*
X122878121Y-135148002D01*
X122924614Y-135201658D01*
X122936000Y-135254000D01*
X122936000Y-138620501D01*
X122944793Y-138629294D01*
X122982964Y-138640502D01*
X123029457Y-138694158D01*
X123035414Y-138709915D01*
X123071184Y-138827831D01*
X123080631Y-138858974D01*
X123080634Y-138858983D01*
X123175020Y-139035566D01*
X123175022Y-139035569D01*
X123302048Y-139190352D01*
X123456831Y-139317378D01*
X123633420Y-139411767D01*
X123825031Y-139469892D01*
X123825036Y-139469892D01*
X123825038Y-139469893D01*
X123934369Y-139480660D01*
X123974366Y-139484600D01*
X124922049Y-139484600D01*
X124990170Y-139504602D01*
X125011144Y-139521505D01*
X126854095Y-141364456D01*
X126888121Y-141426768D01*
X126891000Y-141453551D01*
X126891000Y-141979355D01*
X126870998Y-142047476D01*
X126817342Y-142093969D01*
X126747068Y-142104073D01*
X126729847Y-142100352D01*
X126635131Y-142072834D01*
X126635117Y-142072832D01*
X126599136Y-142070000D01*
X125939000Y-142070000D01*
X125939000Y-143121325D01*
X125827315Y-143070320D01*
X125720763Y-143055000D01*
X125649237Y-143055000D01*
X125542685Y-143070320D01*
X125431000Y-143121325D01*
X125431000Y-142070000D01*
X124770864Y-142070000D01*
X124734882Y-142072832D01*
X124734869Y-142072834D01*
X124580802Y-142117595D01*
X124442714Y-142199261D01*
X124442707Y-142199266D01*
X124329266Y-142312707D01*
X124329261Y-142312714D01*
X124247595Y-142450802D01*
X124202834Y-142604869D01*
X124202832Y-142604882D01*
X124200000Y-142640863D01*
X124200000Y-143301000D01*
X125253884Y-143301000D01*
X125225507Y-143345156D01*
X125185000Y-143483111D01*
X125185000Y-143626889D01*
X125225507Y-143764844D01*
X125253884Y-143809000D01*
X124200000Y-143809000D01*
X124200000Y-144469136D01*
X124202832Y-144505117D01*
X124202834Y-144505130D01*
X124247595Y-144659197D01*
X124329261Y-144797285D01*
X124329266Y-144797292D01*
X124442707Y-144910733D01*
X124442714Y-144910738D01*
X124580802Y-144992404D01*
X124734869Y-145037165D01*
X124734882Y-145037167D01*
X124770863Y-145039999D01*
X124770865Y-145040000D01*
X125431000Y-145040000D01*
X125431000Y-143988674D01*
X125542685Y-144039680D01*
X125649237Y-144055000D01*
X125720763Y-144055000D01*
X125827315Y-144039680D01*
X125939000Y-143988674D01*
X125939000Y-145040000D01*
X126599135Y-145040000D01*
X126599136Y-145039999D01*
X126635117Y-145037167D01*
X126635130Y-145037165D01*
X126789195Y-144992404D01*
X126852058Y-144955227D01*
X126920874Y-144937767D01*
X126988205Y-144960283D01*
X126998723Y-144968467D01*
X126999575Y-144969205D01*
X126999580Y-144969210D01*
X127213316Y-145129211D01*
X127447647Y-145257165D01*
X127697803Y-145350468D01*
X127697806Y-145350468D01*
X127697810Y-145350470D01*
X127848788Y-145383313D01*
X127958691Y-145407221D01*
X128225000Y-145426268D01*
X128491309Y-145407221D01*
X128752188Y-145350470D01*
X128752189Y-145350470D01*
X128752190Y-145350469D01*
X128752197Y-145350468D01*
X129002353Y-145257165D01*
X129236684Y-145129211D01*
X129419491Y-144992362D01*
X129486011Y-144967552D01*
X129555385Y-144982643D01*
X129570507Y-144992361D01*
X129753316Y-145129211D01*
X129987647Y-145257165D01*
X130237803Y-145350468D01*
X130237806Y-145350468D01*
X130237810Y-145350470D01*
X130388788Y-145383313D01*
X130498691Y-145407221D01*
X130765000Y-145426268D01*
X131031309Y-145407221D01*
X131292188Y-145350470D01*
X131292189Y-145350470D01*
X131292190Y-145350469D01*
X131292197Y-145350468D01*
X131542353Y-145257165D01*
X131776684Y-145129211D01*
X131990420Y-144969210D01*
X132179210Y-144780420D01*
X132339211Y-144566684D01*
X132467165Y-144332353D01*
X132560468Y-144082197D01*
X132617221Y-143821309D01*
X132636268Y-143555000D01*
X132617221Y-143288691D01*
X132569717Y-143070320D01*
X132560470Y-143027811D01*
X132560470Y-143027810D01*
X132560468Y-143027806D01*
X132560468Y-143027803D01*
X132467165Y-142777647D01*
X132339211Y-142543316D01*
X132179210Y-142329580D01*
X132135905Y-142286275D01*
X132101879Y-142223963D01*
X132099000Y-142197180D01*
X132099000Y-137715472D01*
X132119002Y-137647351D01*
X132153242Y-137611901D01*
X132291450Y-137516152D01*
X132452652Y-137354950D01*
X132582479Y-137167554D01*
X132676760Y-136959989D01*
X132701806Y-136860589D01*
X132737845Y-136799423D01*
X132801234Y-136767449D01*
X132871847Y-136774822D01*
X132927264Y-136819200D01*
X132942958Y-136852893D01*
X132943363Y-136852738D01*
X132945595Y-136858555D01*
X132945690Y-136858757D01*
X132945728Y-136858899D01*
X133030187Y-137024658D01*
X133030188Y-137024661D01*
X133147263Y-137169236D01*
X133291838Y-137286311D01*
X133291841Y-137286312D01*
X133457597Y-137370769D01*
X133637289Y-137418917D01*
X133714561Y-137425000D01*
X133935000Y-137425000D01*
X133935000Y-136144000D01*
X134443000Y-136144000D01*
X134443000Y-137425000D01*
X134663439Y-137425000D01*
X134740710Y-137418917D01*
X134920402Y-137370769D01*
X135086158Y-137286312D01*
X135086161Y-137286311D01*
X135230736Y-137169236D01*
X135347811Y-137024661D01*
X135347812Y-137024658D01*
X135432269Y-136858902D01*
X135480417Y-136679210D01*
X135486500Y-136601938D01*
X135486500Y-136144000D01*
X134443000Y-136144000D01*
X133935000Y-136144000D01*
X133935000Y-134355000D01*
X134443000Y-134355000D01*
X134443000Y-135636000D01*
X135486500Y-135636000D01*
X135486500Y-135178061D01*
X135480417Y-135100789D01*
X135432269Y-134921097D01*
X135347812Y-134755341D01*
X135347811Y-134755338D01*
X135230736Y-134610763D01*
X135086161Y-134493688D01*
X135086158Y-134493687D01*
X134920402Y-134409230D01*
X134740710Y-134361082D01*
X134663439Y-134355000D01*
X134443000Y-134355000D01*
X133935000Y-134355000D01*
X133714561Y-134355000D01*
X133637289Y-134361082D01*
X133457597Y-134409230D01*
X133291841Y-134493687D01*
X133291838Y-134493688D01*
X133147263Y-134610763D01*
X133030188Y-134755338D01*
X133030187Y-134755341D01*
X132945728Y-134921100D01*
X132945689Y-134921247D01*
X132945642Y-134921322D01*
X132943363Y-134927262D01*
X132942276Y-134926844D01*
X132908730Y-134981865D01*
X132844866Y-135012879D01*
X132774372Y-135004442D01*
X132719631Y-134959232D01*
X132701805Y-134919407D01*
X132694232Y-134889353D01*
X132676760Y-134820011D01*
X132582479Y-134612446D01*
X132452652Y-134425050D01*
X132452650Y-134425048D01*
X132452642Y-134425039D01*
X132446595Y-134418992D01*
X132412569Y-134356680D01*
X132413546Y-134298966D01*
X132465967Y-134091959D01*
X132465969Y-134091950D01*
X132465970Y-134091947D01*
X132485355Y-133858000D01*
X132465970Y-133624053D01*
X132465969Y-133624049D01*
X132465968Y-133624043D01*
X132408342Y-133396487D01*
X132408340Y-133396483D01*
X132314044Y-133181510D01*
X132185651Y-132984989D01*
X132185650Y-132984988D01*
X132185649Y-132984986D01*
X132026658Y-132812275D01*
X131841407Y-132668089D01*
X131841406Y-132668088D01*
X131634951Y-132556360D01*
X131634949Y-132556359D01*
X131412926Y-132480139D01*
X131412917Y-132480137D01*
X131366877Y-132472454D01*
X131181375Y-132441500D01*
X130946625Y-132441500D01*
X130792077Y-132467289D01*
X130715082Y-132480137D01*
X130715073Y-132480139D01*
X130493050Y-132556359D01*
X130493048Y-132556360D01*
X130286593Y-132668088D01*
X130286592Y-132668089D01*
X130101339Y-132812277D01*
X129942348Y-132984989D01*
X129813955Y-133181510D01*
X129719659Y-133396483D01*
X129719657Y-133396487D01*
X129662031Y-133624043D01*
X129662030Y-133624049D01*
X129642645Y-133857999D01*
X129662030Y-134091950D01*
X129662032Y-134091959D01*
X129714454Y-134298965D01*
X129711787Y-134369911D01*
X129681410Y-134418987D01*
X129675349Y-134425048D01*
X129545518Y-134612450D01*
X129451242Y-134820005D01*
X129451239Y-134820014D01*
X129402642Y-135012879D01*
X129395537Y-135041075D01*
X129385000Y-135174958D01*
X129385000Y-136605042D01*
X129395537Y-136738925D01*
X129426194Y-136860592D01*
X129427181Y-136864507D01*
X129431000Y-136895294D01*
X129431000Y-139864048D01*
X129410998Y-139932169D01*
X129357342Y-139978662D01*
X129287068Y-139988766D01*
X129222488Y-139959272D01*
X129215905Y-139953144D01*
X129194930Y-139932169D01*
X129085754Y-139822993D01*
X126962783Y-137700022D01*
X126186505Y-136923743D01*
X126152479Y-136861431D01*
X126149600Y-136834648D01*
X126149600Y-136792575D01*
X126149599Y-136792557D01*
X126134893Y-136643239D01*
X126134893Y-136643236D01*
X126134892Y-136643233D01*
X126134892Y-136643231D01*
X126076767Y-136451620D01*
X125982378Y-136275031D01*
X125855352Y-136120248D01*
X125806854Y-136080447D01*
X125766886Y-136021771D01*
X125761782Y-135967254D01*
X125773146Y-135877310D01*
X125773147Y-135877297D01*
X125773147Y-134861325D01*
X125773146Y-134861282D01*
X125771883Y-134821109D01*
X125771340Y-134816185D01*
X125772773Y-134816026D01*
X125779025Y-134751816D01*
X125815977Y-134701465D01*
X125855352Y-134669152D01*
X125982378Y-134514369D01*
X126076767Y-134337780D01*
X126134892Y-134146169D01*
X126149600Y-133996834D01*
X126149600Y-132583149D01*
X126169602Y-132515029D01*
X126186496Y-132494064D01*
X126753658Y-131926902D01*
X126815968Y-131892879D01*
X126842751Y-131890000D01*
X137203487Y-131890000D01*
X137271608Y-131910002D01*
X137318101Y-131963658D01*
X137326606Y-131989211D01*
X137350530Y-132099188D01*
X137350532Y-132099197D01*
X137443834Y-132349352D01*
X137443835Y-132349353D01*
X137571789Y-132583684D01*
X137634974Y-132668089D01*
X137708636Y-132766490D01*
X137733447Y-132833010D01*
X137718356Y-132902384D01*
X137708637Y-132917507D01*
X137571788Y-133100317D01*
X137443834Y-133334647D01*
X137350529Y-133584810D01*
X137350529Y-133584811D01*
X137293779Y-133845687D01*
X137274732Y-134112000D01*
X137293779Y-134378312D01*
X137350529Y-134639188D01*
X137350529Y-134639189D01*
X137443834Y-134889352D01*
X137494350Y-134981865D01*
X137571789Y-135123684D01*
X137610175Y-135174961D01*
X137708636Y-135306491D01*
X137733447Y-135373012D01*
X137718355Y-135442386D01*
X137708636Y-135457509D01*
X137571789Y-135640316D01*
X137443834Y-135874647D01*
X137350529Y-136124810D01*
X137350529Y-136124811D01*
X137293779Y-136385687D01*
X137274732Y-136651999D01*
X137293779Y-136918312D01*
X137350529Y-137179188D01*
X137350529Y-137179189D01*
X137443832Y-137429346D01*
X137443837Y-137429357D01*
X137517426Y-137564128D01*
X137532517Y-137633502D01*
X137507705Y-137700022D01*
X137504239Y-137704444D01*
X137446722Y-137774529D01*
X137446721Y-137774531D01*
X137352334Y-137951116D01*
X137352332Y-137951122D01*
X137294206Y-138142736D01*
X137294206Y-138142739D01*
X137279500Y-138292057D01*
X137279500Y-140091942D01*
X137294206Y-140241260D01*
X137294206Y-140241263D01*
X137352332Y-140432877D01*
X137352334Y-140432883D01*
X137393928Y-140510699D01*
X137446722Y-140609469D01*
X137573748Y-140764252D01*
X137728531Y-140891278D01*
X137905120Y-140985667D01*
X138096731Y-141043792D01*
X138096736Y-141043792D01*
X138096738Y-141043793D01*
X138206069Y-141054560D01*
X138246066Y-141058500D01*
X138246075Y-141058500D01*
X140045925Y-141058500D01*
X140045934Y-141058500D01*
X140143179Y-141048922D01*
X140195260Y-141043793D01*
X140195263Y-141043793D01*
X140195264Y-141043792D01*
X140195269Y-141043792D01*
X140386880Y-140985667D01*
X140563469Y-140891278D01*
X140718252Y-140764252D01*
X140845278Y-140609469D01*
X140939667Y-140432880D01*
X140997792Y-140241269D01*
X141012500Y-140091934D01*
X141012500Y-138292066D01*
X140997793Y-138142739D01*
X140997793Y-138142736D01*
X140997792Y-138142733D01*
X140997792Y-138142731D01*
X140939667Y-137951120D01*
X140845278Y-137774531D01*
X140787759Y-137704444D01*
X140760007Y-137639097D01*
X140771989Y-137569119D01*
X140774572Y-137564128D01*
X140848165Y-137429353D01*
X140941468Y-137179197D01*
X140998221Y-136918309D01*
X141017268Y-136652000D01*
X140998221Y-136385691D01*
X140941468Y-136124803D01*
X140848165Y-135874647D01*
X140720211Y-135640316D01*
X140583362Y-135457508D01*
X140558552Y-135390989D01*
X140573643Y-135321615D01*
X140583363Y-135306491D01*
X140720211Y-135123684D01*
X140848165Y-134889353D01*
X140941468Y-134639197D01*
X140998221Y-134378309D01*
X141017268Y-134112000D01*
X140998221Y-133845691D01*
X140954402Y-133644260D01*
X140941470Y-133584811D01*
X140941470Y-133584810D01*
X140941468Y-133584806D01*
X140941468Y-133584803D01*
X140848165Y-133334647D01*
X140720211Y-133100316D01*
X140583362Y-132917508D01*
X140558552Y-132850989D01*
X140573643Y-132781615D01*
X140583363Y-132766491D01*
X140583364Y-132766490D01*
X140720211Y-132583684D01*
X140848165Y-132349353D01*
X140941468Y-132099197D01*
X140998221Y-131838309D01*
X141017268Y-131572000D01*
X140998221Y-131305691D01*
X140941468Y-131044803D01*
X140848165Y-130794647D01*
X140720211Y-130560316D01*
X140593533Y-130391094D01*
X140583363Y-130377508D01*
X140558552Y-130310988D01*
X140573644Y-130241613D01*
X140583357Y-130226498D01*
X140720211Y-130043684D01*
X140848165Y-129809353D01*
X140941468Y-129559197D01*
X140998221Y-129298309D01*
X141017268Y-129032000D01*
X140998221Y-128765691D01*
X140941468Y-128504803D01*
X140848165Y-128254647D01*
X140720211Y-128020316D01*
X140632220Y-127902774D01*
X140583363Y-127837508D01*
X140558552Y-127770988D01*
X140573644Y-127701613D01*
X140583357Y-127686498D01*
X140720211Y-127503684D01*
X140848165Y-127269353D01*
X140941468Y-127019197D01*
X140998221Y-126758309D01*
X141017268Y-126492000D01*
X140998221Y-126225691D01*
X140941468Y-125964803D01*
X140848165Y-125714647D01*
X140720211Y-125480316D01*
X140583362Y-125297507D01*
X140558552Y-125230989D01*
X140573643Y-125161615D01*
X140583363Y-125146491D01*
X140583364Y-125146490D01*
X140720211Y-124963684D01*
X140848165Y-124729353D01*
X140941468Y-124479197D01*
X140998221Y-124218309D01*
X141017268Y-123952000D01*
X140998221Y-123685691D01*
X140941468Y-123424803D01*
X140848165Y-123174647D01*
X140720211Y-122940316D01*
X140583362Y-122757508D01*
X140558552Y-122690989D01*
X140573643Y-122621615D01*
X140583363Y-122606491D01*
X140583364Y-122606490D01*
X140720211Y-122423684D01*
X140848165Y-122189353D01*
X140941468Y-121939197D01*
X140998221Y-121678309D01*
X141017268Y-121412000D01*
X140998221Y-121145691D01*
X140941468Y-120884803D01*
X140848165Y-120634647D01*
X140720211Y-120400316D01*
X140583362Y-120217508D01*
X140558552Y-120150989D01*
X140573643Y-120081615D01*
X140583363Y-120066491D01*
X140720211Y-119883684D01*
X140848165Y-119649353D01*
X140941468Y-119399197D01*
X140998221Y-119138309D01*
X141017268Y-118872000D01*
X140998221Y-118605691D01*
X140941468Y-118344803D01*
X140848165Y-118094647D01*
X140720211Y-117860316D01*
X140583362Y-117677507D01*
X140558552Y-117610989D01*
X140573643Y-117541615D01*
X140583363Y-117526491D01*
X140583364Y-117526490D01*
X140720211Y-117343684D01*
X140848165Y-117109353D01*
X140941468Y-116859197D01*
X140998221Y-116598309D01*
X141017268Y-116332000D01*
X140998221Y-116065691D01*
X140941468Y-115804803D01*
X140848165Y-115554647D01*
X140720211Y-115320316D01*
X140560210Y-115106580D01*
X140371420Y-114917790D01*
X140371417Y-114917788D01*
X140371414Y-114917785D01*
X140284963Y-114853069D01*
X140157684Y-114757789D01*
X140029728Y-114687920D01*
X139923352Y-114629834D01*
X139673189Y-114536529D01*
X139412311Y-114479779D01*
X139412313Y-114479779D01*
X139199261Y-114464541D01*
X139146000Y-114460732D01*
X139145999Y-114460732D01*
X138879687Y-114479779D01*
X138618811Y-114536529D01*
X138618810Y-114536529D01*
X138368647Y-114629834D01*
X138134316Y-114757789D01*
X137920585Y-114917785D01*
X137920576Y-114917793D01*
X137731793Y-115106576D01*
X137731785Y-115106585D01*
X137571789Y-115320316D01*
X137443834Y-115554647D01*
X137350529Y-115804810D01*
X137350529Y-115804811D01*
X137293779Y-116065687D01*
X137274732Y-116332000D01*
X137293779Y-116598312D01*
X137350529Y-116859188D01*
X137350529Y-116859189D01*
X137443834Y-117109352D01*
X137443835Y-117109353D01*
X137571789Y-117343684D01*
X137602096Y-117384170D01*
X137609020Y-117393419D01*
X137633831Y-117459940D01*
X137618739Y-117529314D01*
X137568537Y-117579516D01*
X137551245Y-117587330D01*
X137523060Y-117597588D01*
X137517820Y-117599239D01*
X137507520Y-117602000D01*
X137464004Y-117613660D01*
X137463998Y-117613662D01*
X137413507Y-117637206D01*
X137408430Y-117639309D01*
X137369364Y-117653529D01*
X137356073Y-117658367D01*
X137314140Y-117682576D01*
X137307817Y-117686227D01*
X137302942Y-117688764D01*
X137252447Y-117712311D01*
X137206813Y-117744264D01*
X137202177Y-117747218D01*
X137153931Y-117775073D01*
X137153921Y-117775080D01*
X137111243Y-117810891D01*
X137106882Y-117814237D01*
X137061249Y-117846190D01*
X137061245Y-117846193D01*
X136983001Y-117924434D01*
X136983000Y-117924437D01*
X125299008Y-129608427D01*
X125299000Y-129608438D01*
X124653095Y-130254343D01*
X124590783Y-130288369D01*
X124519968Y-130283304D01*
X124474905Y-130254344D01*
X124433465Y-130212904D01*
X124323094Y-130102533D01*
X124301598Y-130081037D01*
X124280104Y-130059542D01*
X124280074Y-130059514D01*
X118189320Y-123968760D01*
X118155294Y-123906448D01*
X118152737Y-123888660D01*
X118138221Y-123685691D01*
X118081468Y-123424803D01*
X117988165Y-123174647D01*
X117860211Y-122940316D01*
X117772220Y-122822774D01*
X117723363Y-122757508D01*
X117698552Y-122690988D01*
X117713644Y-122621613D01*
X117723357Y-122606498D01*
X117860211Y-122423684D01*
X117988165Y-122189353D01*
X118081468Y-121939197D01*
X118138221Y-121678309D01*
X118157268Y-121412000D01*
X118138221Y-121145691D01*
X118081468Y-120884803D01*
X117988165Y-120634647D01*
X117860211Y-120400316D01*
X117723362Y-120217508D01*
X117698552Y-120150989D01*
X117713643Y-120081615D01*
X117723363Y-120066491D01*
X117860211Y-119883684D01*
X117988165Y-119649353D01*
X118081468Y-119399197D01*
X118138221Y-119138309D01*
X118157268Y-118872000D01*
X118138221Y-118605691D01*
X118081468Y-118344803D01*
X117988165Y-118094647D01*
X117860211Y-117860316D01*
X117723362Y-117677507D01*
X117698552Y-117610989D01*
X117713643Y-117541615D01*
X117723363Y-117526491D01*
X117723364Y-117526490D01*
X117860211Y-117343684D01*
X117988165Y-117109353D01*
X118081468Y-116859197D01*
X118138221Y-116598309D01*
X118157268Y-116332000D01*
X118138221Y-116065691D01*
X118081468Y-115804803D01*
X117988165Y-115554647D01*
X117860211Y-115320316D01*
X117700210Y-115106580D01*
X117511420Y-114917790D01*
X117511417Y-114917788D01*
X117511414Y-114917785D01*
X117424963Y-114853069D01*
X117297684Y-114757789D01*
X117169728Y-114687920D01*
X117063352Y-114629834D01*
X116813189Y-114536529D01*
X116552311Y-114479779D01*
X116552313Y-114479779D01*
X116286000Y-114460732D01*
X116019687Y-114479779D01*
X115758811Y-114536529D01*
X115758810Y-114536529D01*
X115508647Y-114629834D01*
X115274316Y-114757789D01*
X115060585Y-114917785D01*
X115060576Y-114917793D01*
X114871793Y-115106576D01*
X114871785Y-115106585D01*
X114711789Y-115320316D01*
X114583834Y-115554647D01*
X114490529Y-115804810D01*
X114490529Y-115804811D01*
X114433779Y-116065687D01*
X114414732Y-116332000D01*
X114433779Y-116598312D01*
X114490529Y-116859188D01*
X114490529Y-116859189D01*
X114583834Y-117109352D01*
X114583835Y-117109353D01*
X114711789Y-117343684D01*
X114838782Y-117513327D01*
X114848636Y-117526490D01*
X114873447Y-117593010D01*
X114858356Y-117662384D01*
X114848637Y-117677507D01*
X114711788Y-117860317D01*
X114583834Y-118094647D01*
X114490529Y-118344810D01*
X114490529Y-118344811D01*
X114433779Y-118605687D01*
X114414732Y-118871999D01*
X114433779Y-119138312D01*
X114490529Y-119399188D01*
X114490529Y-119399189D01*
X114583834Y-119649352D01*
X114583835Y-119649353D01*
X114711789Y-119883684D01*
X114777657Y-119971673D01*
X114848636Y-120066491D01*
X114873447Y-120133012D01*
X114858355Y-120202386D01*
X114848636Y-120217509D01*
X114711789Y-120400316D01*
X114583834Y-120634647D01*
X114490529Y-120884810D01*
X114490529Y-120884811D01*
X114433779Y-121145687D01*
X114414732Y-121412000D01*
X114433779Y-121678312D01*
X114490529Y-121939188D01*
X114490529Y-121939189D01*
X114583834Y-122189352D01*
X114583835Y-122189353D01*
X114711789Y-122423684D01*
X114777657Y-122511673D01*
X114848636Y-122606491D01*
X114873447Y-122673012D01*
X114858355Y-122742386D01*
X114848636Y-122757509D01*
X114711789Y-122940316D01*
X114583834Y-123174647D01*
X114490529Y-123424810D01*
X114490529Y-123424811D01*
X114433779Y-123685687D01*
X114414732Y-123951999D01*
X114433779Y-124218312D01*
X114490529Y-124479188D01*
X114490529Y-124479189D01*
X114583834Y-124729352D01*
X114583835Y-124729353D01*
X114711789Y-124963684D01*
X114838782Y-125133327D01*
X114848636Y-125146490D01*
X114873447Y-125213010D01*
X114858356Y-125282384D01*
X114848637Y-125297507D01*
X114711788Y-125480317D01*
X114583834Y-125714647D01*
X114490529Y-125964810D01*
X114490529Y-125964811D01*
X114433779Y-126225687D01*
X114414732Y-126491999D01*
X114433779Y-126758312D01*
X114490529Y-127019188D01*
X114490529Y-127019189D01*
X114583834Y-127269352D01*
X114583835Y-127269353D01*
X114711789Y-127503684D01*
X114749839Y-127554513D01*
X114848636Y-127686491D01*
X114873447Y-127753012D01*
X114858355Y-127822386D01*
X114848636Y-127837509D01*
X114711789Y-128020316D01*
X114583834Y-128254647D01*
X114490529Y-128504810D01*
X114490529Y-128504811D01*
X114433779Y-128765687D01*
X114414732Y-129032000D01*
X114433779Y-129298312D01*
X114490529Y-129559188D01*
X114490529Y-129559189D01*
X114583834Y-129809352D01*
X114583835Y-129809353D01*
X114711789Y-130043684D01*
X114755843Y-130102533D01*
X114848636Y-130226490D01*
X114873447Y-130293010D01*
X114858356Y-130362384D01*
X114848637Y-130377507D01*
X114711788Y-130560317D01*
X114583834Y-130794647D01*
X114490529Y-131044810D01*
X114490529Y-131044811D01*
X114433779Y-131305687D01*
X114414732Y-131571999D01*
X114433779Y-131838312D01*
X114490529Y-132099188D01*
X114490529Y-132099189D01*
X114583834Y-132349352D01*
X114583835Y-132349353D01*
X114711789Y-132583684D01*
X114774974Y-132668089D01*
X114848636Y-132766490D01*
X114873447Y-132833010D01*
X114858356Y-132902384D01*
X114848637Y-132917507D01*
X114711788Y-133100317D01*
X114583834Y-133334647D01*
X114490529Y-133584810D01*
X114490529Y-133584811D01*
X114433779Y-133845687D01*
X114414732Y-134112000D01*
X114433779Y-134378312D01*
X114490529Y-134639188D01*
X114490529Y-134639189D01*
X114583834Y-134889352D01*
X114634350Y-134981865D01*
X114711789Y-135123684D01*
X114750175Y-135174961D01*
X114848636Y-135306491D01*
X114873447Y-135373012D01*
X114858355Y-135442386D01*
X114848636Y-135457509D01*
X114711789Y-135640316D01*
X114583834Y-135874647D01*
X114490529Y-136124810D01*
X114490529Y-136124811D01*
X114433779Y-136385687D01*
X114414732Y-136651999D01*
X107008389Y-136651999D01*
X107001777Y-136475289D01*
X106942987Y-135953513D01*
X106845369Y-135437589D01*
X106709468Y-134930403D01*
X106708223Y-134926844D01*
X106536049Y-134434799D01*
X106536048Y-134434798D01*
X106536046Y-134434791D01*
X106326072Y-133953524D01*
X106326069Y-133953519D01*
X106326062Y-133953503D01*
X106171250Y-133660588D01*
X106080719Y-133489295D01*
X106022404Y-133396487D01*
X105801366Y-133044706D01*
X105801354Y-133044689D01*
X105489561Y-132622224D01*
X105489548Y-132622208D01*
X105147067Y-132224239D01*
X105147058Y-132224228D01*
X105147045Y-132224215D01*
X105147034Y-132224203D01*
X104775796Y-131852965D01*
X104775784Y-131852954D01*
X104775772Y-131852942D01*
X104689864Y-131779012D01*
X104377791Y-131510451D01*
X104377775Y-131510438D01*
X103955310Y-131198645D01*
X103955293Y-131198633D01*
X103510720Y-130919290D01*
X103510712Y-130919285D01*
X103510705Y-130919281D01*
X103465089Y-130895172D01*
X103046496Y-130673937D01*
X103046470Y-130673925D01*
X102786076Y-130560317D01*
X102565209Y-130463954D01*
X102565202Y-130463951D01*
X102565200Y-130463950D01*
X102069605Y-130290534D01*
X101562412Y-130154631D01*
X101102575Y-130067625D01*
X101039361Y-130035308D01*
X101003653Y-129973944D01*
X101000000Y-129943822D01*
X101000000Y-109477769D01*
X101020002Y-109409648D01*
X101073658Y-109363155D01*
X101113647Y-109352377D01*
X101229758Y-109340941D01*
X101838052Y-109240512D01*
X101838062Y-109240509D01*
X101838066Y-109240509D01*
X102438479Y-109100512D01*
X102585970Y-109055770D01*
X103028456Y-108921544D01*
X103605469Y-108704372D01*
X104167042Y-108449926D01*
X104710772Y-108159296D01*
X105234329Y-107833728D01*
X105735473Y-107474613D01*
X106212056Y-107083492D01*
X106662038Y-106662038D01*
X107083492Y-106212056D01*
X107474613Y-105735473D01*
X107833728Y-105234329D01*
X108159296Y-104710772D01*
X108449926Y-104167042D01*
X108704372Y-103605469D01*
X108921544Y-103028456D01*
X109100513Y-102438475D01*
X109128931Y-102316592D01*
X109240509Y-101838066D01*
X109240509Y-101838062D01*
X109240512Y-101838052D01*
X109340941Y-101229758D01*
X109340942Y-101229748D01*
X109352377Y-101113650D01*
X109378960Y-101047817D01*
X109436914Y-101006808D01*
X109477770Y-101000000D01*
X129943822Y-101000000D01*
X130011943Y-101020002D01*
G37*
%TD.AperFunction*%
%TD*%
%TA.AperFunction,Conductor*%
%TO.N,Net-(J2-Pin_1)*%
G36*
X56011943Y-101020002D02*
G01*
X56058436Y-101073658D01*
X56067625Y-101102575D01*
X56154631Y-101562412D01*
X56290534Y-102069605D01*
X56463950Y-102565200D01*
X56463951Y-102565202D01*
X56463954Y-102565209D01*
X56593666Y-102862513D01*
X56673925Y-103046470D01*
X56673937Y-103046496D01*
X56919278Y-103510699D01*
X56919290Y-103510720D01*
X57198633Y-103955293D01*
X57198645Y-103955310D01*
X57510438Y-104377775D01*
X57510451Y-104377791D01*
X57779012Y-104689864D01*
X57852942Y-104775772D01*
X57852954Y-104775784D01*
X57852965Y-104775796D01*
X58224203Y-105147034D01*
X58224215Y-105147045D01*
X58224228Y-105147058D01*
X58325638Y-105234328D01*
X58622208Y-105489548D01*
X58622224Y-105489561D01*
X59044689Y-105801354D01*
X59044706Y-105801366D01*
X59489279Y-106080709D01*
X59489295Y-106080719D01*
X59660588Y-106171250D01*
X59953503Y-106326062D01*
X59953519Y-106326069D01*
X59953524Y-106326072D01*
X60434791Y-106536046D01*
X60434798Y-106536048D01*
X60434799Y-106536049D01*
X60930394Y-106709465D01*
X60930403Y-106709468D01*
X61437589Y-106845369D01*
X61953513Y-106942987D01*
X62416497Y-106995152D01*
X62475288Y-107001777D01*
X62494920Y-107002511D01*
X63000000Y-107021410D01*
X63524711Y-107001777D01*
X64046487Y-106942987D01*
X64562411Y-106845369D01*
X65069597Y-106709468D01*
X65565209Y-106536046D01*
X66046476Y-106326072D01*
X66046487Y-106326065D01*
X66046496Y-106326062D01*
X66262204Y-106212056D01*
X66510705Y-106080719D01*
X66955301Y-105801361D01*
X67377778Y-105489559D01*
X67775772Y-105147058D01*
X68147058Y-104775772D01*
X68489559Y-104377778D01*
X68801361Y-103955301D01*
X69080719Y-103510705D01*
X69245710Y-103198527D01*
X69326062Y-103046496D01*
X69326065Y-103046487D01*
X69326072Y-103046476D01*
X69536046Y-102565209D01*
X69709468Y-102069597D01*
X69845369Y-101562411D01*
X69908312Y-101229748D01*
X69932375Y-101102575D01*
X69964692Y-101039361D01*
X70026056Y-101003653D01*
X70056178Y-101000000D01*
X90522230Y-101000000D01*
X90590351Y-101020002D01*
X90636844Y-101073658D01*
X90647623Y-101113650D01*
X90659057Y-101229748D01*
X90659060Y-101229764D01*
X90759490Y-101838066D01*
X90899487Y-102438479D01*
X91078452Y-103028444D01*
X91078454Y-103028452D01*
X91295626Y-103605464D01*
X91550071Y-104167037D01*
X91550074Y-104167042D01*
X91840704Y-104710772D01*
X92166272Y-105234329D01*
X92525387Y-105735473D01*
X92916508Y-106212056D01*
X93337962Y-106662038D01*
X93787944Y-107083492D01*
X94264527Y-107474613D01*
X94765671Y-107833728D01*
X95289228Y-108159296D01*
X95832958Y-108449926D01*
X96394531Y-108704372D01*
X96971544Y-108921544D01*
X97204359Y-108992167D01*
X97561520Y-109100512D01*
X98161933Y-109240509D01*
X98161940Y-109240510D01*
X98161948Y-109240512D01*
X98770242Y-109340941D01*
X98886351Y-109352376D01*
X98952182Y-109378958D01*
X98993192Y-109436912D01*
X99000000Y-109477769D01*
X99000000Y-129943822D01*
X98979998Y-130011943D01*
X98926342Y-130058436D01*
X98897425Y-130067625D01*
X98437587Y-130154631D01*
X97930394Y-130290534D01*
X97434799Y-130463950D01*
X97434796Y-130463952D01*
X96953529Y-130673925D01*
X96953503Y-130673937D01*
X96489300Y-130919278D01*
X96489279Y-130919290D01*
X96044706Y-131198633D01*
X96044689Y-131198645D01*
X95622224Y-131510438D01*
X95622208Y-131510451D01*
X95224239Y-131852932D01*
X95224203Y-131852965D01*
X94852965Y-132224203D01*
X94852932Y-132224239D01*
X94510451Y-132622208D01*
X94510438Y-132622224D01*
X94198645Y-133044689D01*
X94198633Y-133044706D01*
X93919290Y-133489279D01*
X93919278Y-133489300D01*
X93673937Y-133953503D01*
X93673925Y-133953529D01*
X93502056Y-134347459D01*
X93485223Y-134386043D01*
X93463952Y-134434796D01*
X93463950Y-134434799D01*
X93290534Y-134930394D01*
X93154631Y-135437587D01*
X93057013Y-135953512D01*
X92998222Y-136475288D01*
X92978590Y-137000000D01*
X92998222Y-137524711D01*
X93057013Y-138046487D01*
X93154631Y-138562412D01*
X93290534Y-139069605D01*
X93463950Y-139565200D01*
X93463951Y-139565202D01*
X93463954Y-139565209D01*
X93522043Y-139698351D01*
X93673925Y-140046470D01*
X93673937Y-140046496D01*
X93919278Y-140510699D01*
X93919290Y-140510720D01*
X94198633Y-140955293D01*
X94198645Y-140955310D01*
X94510438Y-141377775D01*
X94510451Y-141377791D01*
X94718059Y-141619035D01*
X94852942Y-141775772D01*
X94852954Y-141775784D01*
X94852965Y-141775796D01*
X95224203Y-142147034D01*
X95224215Y-142147045D01*
X95224228Y-142147058D01*
X95290826Y-142204370D01*
X95622208Y-142489548D01*
X95622224Y-142489561D01*
X96044689Y-142801354D01*
X96044706Y-142801366D01*
X96333475Y-142982811D01*
X96489295Y-143080719D01*
X96660588Y-143171250D01*
X96953503Y-143326062D01*
X96953519Y-143326069D01*
X96953524Y-143326072D01*
X97434791Y-143536046D01*
X97434798Y-143536048D01*
X97434799Y-143536049D01*
X97930394Y-143709465D01*
X97930403Y-143709468D01*
X98437589Y-143845369D01*
X98713953Y-143897659D01*
X98897425Y-143932375D01*
X98960639Y-143964692D01*
X98996347Y-144026056D01*
X99000000Y-144056178D01*
X99000000Y-148874000D01*
X98979998Y-148942121D01*
X98926342Y-148988614D01*
X98874000Y-149000000D01*
X51126000Y-149000000D01*
X51057879Y-148979998D01*
X51011386Y-148926342D01*
X51000000Y-148874000D01*
X51000000Y-136652000D01*
X59042732Y-136652000D01*
X59061779Y-136918312D01*
X59118529Y-137179188D01*
X59118529Y-137179189D01*
X59211832Y-137429346D01*
X59211837Y-137429357D01*
X59285426Y-137564128D01*
X59300517Y-137633502D01*
X59275705Y-137700022D01*
X59272239Y-137704444D01*
X59214722Y-137774529D01*
X59214721Y-137774531D01*
X59120334Y-137951116D01*
X59120332Y-137951122D01*
X59062206Y-138142736D01*
X59062206Y-138142739D01*
X59047500Y-138292057D01*
X59047500Y-140091942D01*
X59062206Y-140241260D01*
X59062206Y-140241263D01*
X59120332Y-140432877D01*
X59120334Y-140432883D01*
X59161928Y-140510699D01*
X59214722Y-140609469D01*
X59341748Y-140764252D01*
X59496531Y-140891278D01*
X59673120Y-140985667D01*
X59864731Y-141043792D01*
X59864736Y-141043792D01*
X59864738Y-141043793D01*
X59974069Y-141054560D01*
X60014066Y-141058500D01*
X60014075Y-141058500D01*
X61813925Y-141058500D01*
X61813934Y-141058500D01*
X61911179Y-141048922D01*
X61963260Y-141043793D01*
X61963263Y-141043793D01*
X61963264Y-141043792D01*
X61963269Y-141043792D01*
X62154880Y-140985667D01*
X62331469Y-140891278D01*
X62486252Y-140764252D01*
X62613278Y-140609469D01*
X62707667Y-140432880D01*
X62765792Y-140241269D01*
X62780500Y-140091934D01*
X62780500Y-138292066D01*
X62766622Y-138151154D01*
X62765793Y-138142739D01*
X62765793Y-138142736D01*
X62765792Y-138142733D01*
X62765792Y-138142731D01*
X62707667Y-137951120D01*
X62613278Y-137774531D01*
X62555759Y-137704444D01*
X62528007Y-137639097D01*
X62539989Y-137569119D01*
X62542572Y-137564128D01*
X62616165Y-137429353D01*
X62709468Y-137179197D01*
X62766221Y-136918309D01*
X62780736Y-136715344D01*
X62805546Y-136648826D01*
X62817313Y-136635246D01*
X63308559Y-136144000D01*
X64579500Y-136144000D01*
X64579500Y-138557636D01*
X64582332Y-138593617D01*
X64582334Y-138593630D01*
X64627095Y-138747697D01*
X64708761Y-138885785D01*
X64708766Y-138885792D01*
X64822207Y-138999233D01*
X64822214Y-138999238D01*
X64960302Y-139080904D01*
X65114369Y-139125665D01*
X65114382Y-139125667D01*
X65150363Y-139128499D01*
X65150365Y-139128500D01*
X65532000Y-139128500D01*
X65532000Y-136144000D01*
X64579500Y-136144000D01*
X63308559Y-136144000D01*
X64364407Y-135088153D01*
X64426716Y-135054129D01*
X64497531Y-135059194D01*
X64554367Y-135101741D01*
X64579178Y-135168261D01*
X64579499Y-135177250D01*
X64579500Y-135636000D01*
X65914000Y-135636000D01*
X65982121Y-135656002D01*
X66028614Y-135709658D01*
X66040000Y-135762000D01*
X66040000Y-139128501D01*
X66048793Y-139137294D01*
X66086964Y-139148502D01*
X66133457Y-139202158D01*
X66139414Y-139217915D01*
X66175184Y-139335831D01*
X66184631Y-139366974D01*
X66184634Y-139366983D01*
X66279020Y-139543566D01*
X66279022Y-139543569D01*
X66406048Y-139698352D01*
X66560831Y-139825378D01*
X66737420Y-139919767D01*
X66929031Y-139977892D01*
X66929036Y-139977892D01*
X66929038Y-139977893D01*
X67038369Y-139988660D01*
X67078366Y-139992600D01*
X67573249Y-139992600D01*
X67641370Y-140012602D01*
X67662344Y-140029505D01*
X69474324Y-141841485D01*
X69508350Y-141903797D01*
X69503285Y-141974612D01*
X69474324Y-142019675D01*
X69469000Y-142024999D01*
X69469000Y-143076325D01*
X69357315Y-143025320D01*
X69250763Y-143010000D01*
X69179237Y-143010000D01*
X69072685Y-143025320D01*
X68961000Y-143076325D01*
X68961000Y-142025000D01*
X68300864Y-142025000D01*
X68264882Y-142027832D01*
X68264869Y-142027834D01*
X68110802Y-142072595D01*
X67972714Y-142154261D01*
X67972707Y-142154266D01*
X67859266Y-142267707D01*
X67859261Y-142267714D01*
X67777595Y-142405802D01*
X67732834Y-142559869D01*
X67732832Y-142559882D01*
X67730000Y-142595863D01*
X67730000Y-143256000D01*
X68783884Y-143256000D01*
X68755507Y-143300156D01*
X68715000Y-143438111D01*
X68715000Y-143581889D01*
X68755507Y-143719844D01*
X68783884Y-143764000D01*
X67730000Y-143764000D01*
X67730000Y-144424136D01*
X67732832Y-144460117D01*
X67732834Y-144460130D01*
X67777595Y-144614197D01*
X67859261Y-144752285D01*
X67859266Y-144752292D01*
X67972707Y-144865733D01*
X67972714Y-144865738D01*
X68110802Y-144947404D01*
X68264869Y-144992165D01*
X68264882Y-144992167D01*
X68300863Y-144994999D01*
X68300865Y-144995000D01*
X68961000Y-144995000D01*
X68961000Y-143943674D01*
X69072685Y-143994680D01*
X69179237Y-144010000D01*
X69250763Y-144010000D01*
X69357315Y-143994680D01*
X69469000Y-143943674D01*
X69469000Y-144995000D01*
X70129135Y-144995000D01*
X70129136Y-144994999D01*
X70165117Y-144992167D01*
X70165130Y-144992165D01*
X70319195Y-144947404D01*
X70382058Y-144910227D01*
X70450874Y-144892767D01*
X70518205Y-144915283D01*
X70528723Y-144923467D01*
X70529575Y-144924205D01*
X70529580Y-144924210D01*
X70743316Y-145084211D01*
X70977647Y-145212165D01*
X71227803Y-145305468D01*
X71227806Y-145305468D01*
X71227810Y-145305470D01*
X71378788Y-145338313D01*
X71488691Y-145362221D01*
X71755000Y-145381268D01*
X72021309Y-145362221D01*
X72282188Y-145305470D01*
X72282189Y-145305470D01*
X72282190Y-145305469D01*
X72282197Y-145305468D01*
X72532353Y-145212165D01*
X72766684Y-145084211D01*
X72949491Y-144947362D01*
X73016011Y-144922552D01*
X73085385Y-144937643D01*
X73100507Y-144947361D01*
X73283316Y-145084211D01*
X73517647Y-145212165D01*
X73767803Y-145305468D01*
X73767806Y-145305468D01*
X73767810Y-145305470D01*
X73918788Y-145338313D01*
X74028691Y-145362221D01*
X74295000Y-145381268D01*
X74561309Y-145362221D01*
X74822188Y-145305470D01*
X74822189Y-145305470D01*
X74822190Y-145305469D01*
X74822197Y-145305468D01*
X75072353Y-145212165D01*
X75306684Y-145084211D01*
X75520420Y-144924210D01*
X75709210Y-144735420D01*
X75869211Y-144521684D01*
X75997165Y-144287353D01*
X76090468Y-144037197D01*
X76147221Y-143776309D01*
X76166268Y-143510000D01*
X76147221Y-143243691D01*
X76111769Y-143080721D01*
X76090470Y-142982811D01*
X76090470Y-142982810D01*
X76090468Y-142982806D01*
X76090468Y-142982803D01*
X75997165Y-142732647D01*
X75869211Y-142498316D01*
X75709210Y-142284580D01*
X75665905Y-142241274D01*
X75631879Y-142178963D01*
X75629000Y-142152180D01*
X75629000Y-138380608D01*
X75649002Y-138312487D01*
X75683244Y-138277036D01*
X75864950Y-138151152D01*
X76026152Y-137989950D01*
X76155979Y-137802554D01*
X76250260Y-137594989D01*
X76275306Y-137495589D01*
X76311345Y-137434423D01*
X76374734Y-137402449D01*
X76445347Y-137409822D01*
X76500764Y-137454200D01*
X76516458Y-137487893D01*
X76516863Y-137487738D01*
X76519095Y-137493555D01*
X76519190Y-137493757D01*
X76519228Y-137493899D01*
X76603687Y-137659658D01*
X76603688Y-137659661D01*
X76720763Y-137804236D01*
X76865338Y-137921311D01*
X76865341Y-137921312D01*
X77031097Y-138005769D01*
X77210789Y-138053917D01*
X77288061Y-138060000D01*
X77508500Y-138060000D01*
X77508500Y-136779000D01*
X78016500Y-136779000D01*
X78016500Y-138060000D01*
X78236939Y-138060000D01*
X78314210Y-138053917D01*
X78493902Y-138005769D01*
X78659658Y-137921312D01*
X78659661Y-137921311D01*
X78804236Y-137804236D01*
X78921311Y-137659661D01*
X78921312Y-137659658D01*
X79005769Y-137493902D01*
X79053917Y-137314210D01*
X79060000Y-137236938D01*
X79060000Y-136779000D01*
X78016500Y-136779000D01*
X77508500Y-136779000D01*
X77508500Y-134990000D01*
X78016500Y-134990000D01*
X78016500Y-136271000D01*
X79060000Y-136271000D01*
X79060000Y-135813061D01*
X79053917Y-135735789D01*
X79005769Y-135556097D01*
X78921312Y-135390341D01*
X78921311Y-135390338D01*
X78804236Y-135245763D01*
X78659661Y-135128688D01*
X78659658Y-135128687D01*
X78493902Y-135044230D01*
X78314210Y-134996082D01*
X78236939Y-134990000D01*
X78016500Y-134990000D01*
X77508500Y-134990000D01*
X77288061Y-134990000D01*
X77210789Y-134996082D01*
X77031097Y-135044230D01*
X76865341Y-135128687D01*
X76865338Y-135128688D01*
X76720763Y-135245763D01*
X76603688Y-135390338D01*
X76603687Y-135390341D01*
X76519228Y-135556100D01*
X76519189Y-135556247D01*
X76519142Y-135556322D01*
X76516863Y-135562262D01*
X76515776Y-135561844D01*
X76482230Y-135616865D01*
X76418366Y-135647879D01*
X76347872Y-135639442D01*
X76293131Y-135594232D01*
X76275305Y-135554407D01*
X76254389Y-135471400D01*
X76250260Y-135455011D01*
X76155979Y-135247446D01*
X76058518Y-135106768D01*
X76036168Y-135039384D01*
X76039947Y-135004091D01*
X76077970Y-134853947D01*
X76097355Y-134620000D01*
X76077970Y-134386053D01*
X76077969Y-134386049D01*
X76077968Y-134386043D01*
X76020342Y-134158487D01*
X76020340Y-134158483D01*
X75926044Y-133943510D01*
X75797651Y-133746989D01*
X75797650Y-133746988D01*
X75797649Y-133746986D01*
X75638658Y-133574275D01*
X75453407Y-133430089D01*
X75453406Y-133430088D01*
X75246951Y-133318360D01*
X75246949Y-133318359D01*
X75024926Y-133242139D01*
X75024917Y-133242137D01*
X74978877Y-133234454D01*
X74793375Y-133203500D01*
X74558625Y-133203500D01*
X74404077Y-133229289D01*
X74327082Y-133242137D01*
X74327073Y-133242139D01*
X74105050Y-133318359D01*
X74105048Y-133318360D01*
X73898593Y-133430088D01*
X73898592Y-133430089D01*
X73713339Y-133574277D01*
X73554348Y-133746989D01*
X73425955Y-133943510D01*
X73331659Y-134158483D01*
X73331657Y-134158487D01*
X73274031Y-134386043D01*
X73274030Y-134386049D01*
X73254645Y-134620000D01*
X73274030Y-134853950D01*
X73274031Y-134853951D01*
X73293012Y-134928909D01*
X73290344Y-134999856D01*
X73259968Y-135048929D01*
X73248849Y-135060048D01*
X73119018Y-135247450D01*
X73024742Y-135455005D01*
X73024739Y-135455014D01*
X72976142Y-135647879D01*
X72969037Y-135676075D01*
X72966394Y-135709658D01*
X72958499Y-135809961D01*
X72958500Y-137240041D01*
X72960806Y-137269343D01*
X72961000Y-137274288D01*
X72961000Y-141250849D01*
X72940998Y-141318970D01*
X72887342Y-141365463D01*
X72817068Y-141375567D01*
X72752488Y-141346073D01*
X72745905Y-141339944D01*
X69290505Y-137884544D01*
X69256479Y-137822232D01*
X69253600Y-137795449D01*
X69253600Y-137300575D01*
X69253599Y-137300557D01*
X69238893Y-137151239D01*
X69238893Y-137151236D01*
X69238892Y-137151233D01*
X69238892Y-137151231D01*
X69180767Y-136959620D01*
X69086378Y-136783031D01*
X68959352Y-136628248D01*
X68910854Y-136588447D01*
X68870886Y-136529771D01*
X68865782Y-136475254D01*
X68877146Y-136385310D01*
X68877147Y-136385297D01*
X68877147Y-135369325D01*
X68877146Y-135369282D01*
X68875883Y-135329109D01*
X68875340Y-135324185D01*
X68876773Y-135324026D01*
X68883025Y-135259816D01*
X68919977Y-135209465D01*
X68959352Y-135177152D01*
X69086378Y-135022369D01*
X69180767Y-134845780D01*
X69238892Y-134654169D01*
X69240368Y-134639188D01*
X69253599Y-134504842D01*
X69253600Y-134504834D01*
X69253600Y-133670951D01*
X69273602Y-133602830D01*
X69290505Y-133581855D01*
X69929457Y-132942904D01*
X69991769Y-132908879D01*
X70018552Y-132906000D01*
X82093917Y-132906000D01*
X82162038Y-132926002D01*
X82208531Y-132979658D01*
X82218635Y-133049932D01*
X82201419Y-133096078D01*
X82201946Y-133096366D01*
X82199946Y-133100027D01*
X82199908Y-133100131D01*
X82199789Y-133100315D01*
X82071834Y-133334647D01*
X81978529Y-133584810D01*
X81978529Y-133584811D01*
X81921779Y-133845687D01*
X81902732Y-134112000D01*
X81921779Y-134378312D01*
X81978529Y-134639188D01*
X81978529Y-134639189D01*
X82071834Y-134889352D01*
X82071835Y-134889353D01*
X82199789Y-135123684D01*
X82239888Y-135177250D01*
X82336636Y-135306491D01*
X82361447Y-135373012D01*
X82346355Y-135442386D01*
X82336636Y-135457509D01*
X82199789Y-135640316D01*
X82071834Y-135874647D01*
X81978529Y-136124810D01*
X81978529Y-136124811D01*
X81921779Y-136385687D01*
X81902732Y-136651999D01*
X81921779Y-136918312D01*
X81978529Y-137179188D01*
X81978529Y-137179189D01*
X82071832Y-137429346D01*
X82071837Y-137429357D01*
X82145426Y-137564128D01*
X82160517Y-137633502D01*
X82135705Y-137700022D01*
X82132239Y-137704444D01*
X82074722Y-137774529D01*
X82074721Y-137774531D01*
X81980334Y-137951116D01*
X81980332Y-137951122D01*
X81922206Y-138142736D01*
X81922206Y-138142739D01*
X81907500Y-138292057D01*
X81907500Y-140091942D01*
X81922206Y-140241260D01*
X81922206Y-140241263D01*
X81980332Y-140432877D01*
X81980334Y-140432883D01*
X82021928Y-140510699D01*
X82074722Y-140609469D01*
X82201748Y-140764252D01*
X82356531Y-140891278D01*
X82533120Y-140985667D01*
X82724731Y-141043792D01*
X82724736Y-141043792D01*
X82724738Y-141043793D01*
X82834069Y-141054560D01*
X82874066Y-141058500D01*
X82874075Y-141058500D01*
X84673925Y-141058500D01*
X84673934Y-141058500D01*
X84771179Y-141048922D01*
X84823260Y-141043793D01*
X84823263Y-141043793D01*
X84823264Y-141043792D01*
X84823269Y-141043792D01*
X85014880Y-140985667D01*
X85191469Y-140891278D01*
X85346252Y-140764252D01*
X85473278Y-140609469D01*
X85567667Y-140432880D01*
X85625792Y-140241269D01*
X85640500Y-140091934D01*
X85640500Y-138292066D01*
X85626622Y-138151154D01*
X85625793Y-138142739D01*
X85625793Y-138142736D01*
X85625792Y-138142733D01*
X85625792Y-138142731D01*
X85567667Y-137951120D01*
X85473278Y-137774531D01*
X85415759Y-137704444D01*
X85388007Y-137639097D01*
X85399989Y-137569119D01*
X85402572Y-137564128D01*
X85476165Y-137429353D01*
X85569468Y-137179197D01*
X85626221Y-136918309D01*
X85645268Y-136652000D01*
X85626221Y-136385691D01*
X85569468Y-136124803D01*
X85476165Y-135874647D01*
X85348211Y-135640316D01*
X85211362Y-135457508D01*
X85186552Y-135390989D01*
X85201643Y-135321615D01*
X85211363Y-135306491D01*
X85348211Y-135123684D01*
X85476165Y-134889353D01*
X85569468Y-134639197D01*
X85626221Y-134378309D01*
X85645268Y-134112000D01*
X85626221Y-133845691D01*
X85604749Y-133746986D01*
X85569470Y-133584811D01*
X85569470Y-133584810D01*
X85569468Y-133584806D01*
X85569468Y-133584803D01*
X85476165Y-133334647D01*
X85348211Y-133100316D01*
X85211362Y-132917507D01*
X85186552Y-132850989D01*
X85201643Y-132781615D01*
X85211363Y-132766491D01*
X85211364Y-132766490D01*
X85348211Y-132583684D01*
X85476165Y-132349353D01*
X85569468Y-132099197D01*
X85626221Y-131838309D01*
X85645268Y-131572000D01*
X85626221Y-131305691D01*
X85569468Y-131044803D01*
X85476165Y-130794647D01*
X85348211Y-130560316D01*
X85218919Y-130387602D01*
X85211363Y-130377508D01*
X85186552Y-130310988D01*
X85201644Y-130241613D01*
X85211357Y-130226498D01*
X85348211Y-130043684D01*
X85476165Y-129809353D01*
X85569468Y-129559197D01*
X85626221Y-129298309D01*
X85645268Y-129032000D01*
X85626221Y-128765691D01*
X85569468Y-128504803D01*
X85476165Y-128254647D01*
X85348211Y-128020316D01*
X85260220Y-127902774D01*
X85211363Y-127837508D01*
X85186552Y-127770988D01*
X85201644Y-127701613D01*
X85211362Y-127686492D01*
X85348211Y-127503684D01*
X85476165Y-127269353D01*
X85569468Y-127019197D01*
X85626221Y-126758309D01*
X85645268Y-126492000D01*
X85626221Y-126225691D01*
X85569468Y-125964803D01*
X85476165Y-125714647D01*
X85348211Y-125480316D01*
X85211362Y-125297508D01*
X85186552Y-125230989D01*
X85201643Y-125161615D01*
X85211363Y-125146491D01*
X85348211Y-124963684D01*
X85476165Y-124729353D01*
X85569468Y-124479197D01*
X85626221Y-124218309D01*
X85645268Y-123952000D01*
X85626221Y-123685691D01*
X85569468Y-123424803D01*
X85476165Y-123174647D01*
X85348211Y-122940316D01*
X85211362Y-122757507D01*
X85186552Y-122690989D01*
X85201643Y-122621615D01*
X85211363Y-122606491D01*
X85211364Y-122606490D01*
X85348211Y-122423684D01*
X85476165Y-122189353D01*
X85569468Y-121939197D01*
X85626221Y-121678309D01*
X85645268Y-121412000D01*
X85626221Y-121145691D01*
X85569468Y-120884803D01*
X85476165Y-120634647D01*
X85348211Y-120400316D01*
X85211362Y-120217508D01*
X85186552Y-120150989D01*
X85201643Y-120081615D01*
X85211363Y-120066491D01*
X85348211Y-119883684D01*
X85476165Y-119649353D01*
X85569468Y-119399197D01*
X85626221Y-119138309D01*
X85645268Y-118872000D01*
X85626221Y-118605691D01*
X85569468Y-118344803D01*
X85476165Y-118094647D01*
X85348211Y-117860316D01*
X85211362Y-117677508D01*
X85186552Y-117610989D01*
X85201643Y-117541615D01*
X85211363Y-117526491D01*
X85211364Y-117526490D01*
X85348211Y-117343684D01*
X85476165Y-117109353D01*
X85569468Y-116859197D01*
X85626221Y-116598309D01*
X85645268Y-116332000D01*
X85626221Y-116065691D01*
X85569468Y-115804803D01*
X85476165Y-115554647D01*
X85348211Y-115320316D01*
X85188210Y-115106580D01*
X84999420Y-114917790D01*
X84999417Y-114917788D01*
X84999414Y-114917785D01*
X84912963Y-114853069D01*
X84785684Y-114757789D01*
X84657728Y-114687920D01*
X84551352Y-114629834D01*
X84301189Y-114536529D01*
X84040311Y-114479779D01*
X84040313Y-114479779D01*
X83827261Y-114464541D01*
X83774000Y-114460732D01*
X83773999Y-114460732D01*
X83507687Y-114479779D01*
X83246811Y-114536529D01*
X83246810Y-114536529D01*
X82996647Y-114629834D01*
X82762316Y-114757789D01*
X82548585Y-114917785D01*
X82548576Y-114917793D01*
X82359793Y-115106576D01*
X82359785Y-115106585D01*
X82199789Y-115320316D01*
X82071834Y-115554647D01*
X81978529Y-115804810D01*
X81978529Y-115804811D01*
X81921779Y-116065687D01*
X81902732Y-116332000D01*
X81921779Y-116598312D01*
X81978529Y-116859188D01*
X81978529Y-116859189D01*
X82071834Y-117109352D01*
X82199789Y-117343684D01*
X82199908Y-117343869D01*
X82199928Y-117343939D01*
X82201946Y-117347634D01*
X82201142Y-117348072D01*
X82219917Y-117411987D01*
X82199922Y-117480110D01*
X82146271Y-117526608D01*
X82093917Y-117538000D01*
X80960510Y-117538000D01*
X80727090Y-117538000D01*
X80711843Y-117540688D01*
X80672228Y-117547673D01*
X80666777Y-117548391D01*
X80611272Y-117553247D01*
X80611259Y-117553249D01*
X80557448Y-117567667D01*
X80552083Y-117568857D01*
X80497214Y-117578533D01*
X80444859Y-117597588D01*
X80439616Y-117599241D01*
X80385804Y-117613660D01*
X80385798Y-117613662D01*
X80335307Y-117637206D01*
X80330230Y-117639309D01*
X80291164Y-117653529D01*
X80277873Y-117658367D01*
X80235940Y-117682576D01*
X80229617Y-117686227D01*
X80224742Y-117688764D01*
X80174247Y-117712311D01*
X80128613Y-117744264D01*
X80123977Y-117747218D01*
X80075731Y-117775073D01*
X80075721Y-117775080D01*
X80033043Y-117810891D01*
X80028682Y-117814237D01*
X79983047Y-117846191D01*
X79983038Y-117846199D01*
X79955483Y-117873755D01*
X79941706Y-117887533D01*
X77945556Y-119883683D01*
X68427994Y-129401243D01*
X68365682Y-129435269D01*
X68294867Y-129430204D01*
X68249804Y-129401243D01*
X62817320Y-123968759D01*
X62783294Y-123906447D01*
X62780736Y-123888652D01*
X62766221Y-123685691D01*
X62709468Y-123424803D01*
X62616165Y-123174647D01*
X62488211Y-122940316D01*
X62351362Y-122757507D01*
X62326552Y-122690989D01*
X62341643Y-122621615D01*
X62351363Y-122606491D01*
X62351364Y-122606490D01*
X62488211Y-122423684D01*
X62616165Y-122189353D01*
X62709468Y-121939197D01*
X62766221Y-121678309D01*
X62785268Y-121412000D01*
X62766221Y-121145691D01*
X62709468Y-120884803D01*
X62616165Y-120634647D01*
X62488211Y-120400316D01*
X62351362Y-120217508D01*
X62326552Y-120150989D01*
X62341643Y-120081615D01*
X62351363Y-120066491D01*
X62488211Y-119883684D01*
X62616165Y-119649353D01*
X62709468Y-119399197D01*
X62766221Y-119138309D01*
X62785268Y-118872000D01*
X62766221Y-118605691D01*
X62709468Y-118344803D01*
X62616165Y-118094647D01*
X62488211Y-117860316D01*
X62359789Y-117688764D01*
X62351363Y-117677508D01*
X62326552Y-117610988D01*
X62341644Y-117541613D01*
X62351357Y-117526498D01*
X62488211Y-117343684D01*
X62616165Y-117109353D01*
X62709468Y-116859197D01*
X62766221Y-116598309D01*
X62785268Y-116332000D01*
X62766221Y-116065691D01*
X62709468Y-115804803D01*
X62616165Y-115554647D01*
X62488211Y-115320316D01*
X62328210Y-115106580D01*
X62139420Y-114917790D01*
X62139417Y-114917788D01*
X62139414Y-114917785D01*
X62052963Y-114853069D01*
X61925684Y-114757789D01*
X61797728Y-114687920D01*
X61691352Y-114629834D01*
X61441189Y-114536529D01*
X61180311Y-114479779D01*
X61180313Y-114479779D01*
X60914000Y-114460732D01*
X60647687Y-114479779D01*
X60386811Y-114536529D01*
X60386810Y-114536529D01*
X60136647Y-114629834D01*
X59902316Y-114757789D01*
X59688585Y-114917785D01*
X59688576Y-114917793D01*
X59499793Y-115106576D01*
X59499785Y-115106585D01*
X59339789Y-115320316D01*
X59211834Y-115554647D01*
X59118529Y-115804810D01*
X59118529Y-115804811D01*
X59061779Y-116065687D01*
X59042732Y-116332000D01*
X59061779Y-116598312D01*
X59118529Y-116859188D01*
X59118529Y-116859189D01*
X59211834Y-117109352D01*
X59211835Y-117109353D01*
X59339789Y-117343684D01*
X59466782Y-117513327D01*
X59476636Y-117526490D01*
X59501447Y-117593010D01*
X59486356Y-117662384D01*
X59476637Y-117677507D01*
X59339788Y-117860317D01*
X59211834Y-118094647D01*
X59118529Y-118344810D01*
X59118529Y-118344811D01*
X59061779Y-118605687D01*
X59042732Y-118872000D01*
X59061779Y-119138312D01*
X59118529Y-119399188D01*
X59118529Y-119399189D01*
X59211834Y-119649352D01*
X59211835Y-119649353D01*
X59339789Y-119883684D01*
X59405657Y-119971673D01*
X59476636Y-120066491D01*
X59501447Y-120133012D01*
X59486355Y-120202386D01*
X59476636Y-120217509D01*
X59339789Y-120400316D01*
X59211834Y-120634647D01*
X59118529Y-120884810D01*
X59118529Y-120884811D01*
X59061779Y-121145687D01*
X59042732Y-121411999D01*
X59061779Y-121678312D01*
X59118529Y-121939188D01*
X59118529Y-121939189D01*
X59211834Y-122189352D01*
X59211835Y-122189353D01*
X59339789Y-122423684D01*
X59466782Y-122593327D01*
X59476636Y-122606490D01*
X59501447Y-122673010D01*
X59486356Y-122742384D01*
X59476637Y-122757507D01*
X59339788Y-122940317D01*
X59211834Y-123174647D01*
X59118529Y-123424810D01*
X59118529Y-123424811D01*
X59061779Y-123685687D01*
X59042732Y-123952000D01*
X59061779Y-124218312D01*
X59118529Y-124479188D01*
X59118529Y-124479189D01*
X59211834Y-124729352D01*
X59211835Y-124729353D01*
X59339789Y-124963684D01*
X59405657Y-125051673D01*
X59476636Y-125146491D01*
X59501447Y-125213012D01*
X59486355Y-125282386D01*
X59476636Y-125297509D01*
X59339789Y-125480316D01*
X59211834Y-125714647D01*
X59118529Y-125964810D01*
X59118529Y-125964811D01*
X59061779Y-126225687D01*
X59042732Y-126491999D01*
X59061779Y-126758312D01*
X59118529Y-127019188D01*
X59118529Y-127019189D01*
X59211834Y-127269352D01*
X59211835Y-127269353D01*
X59339789Y-127503684D01*
X59377839Y-127554513D01*
X59476636Y-127686491D01*
X59501447Y-127753012D01*
X59486355Y-127822386D01*
X59476636Y-127837509D01*
X59339789Y-128020316D01*
X59211834Y-128254647D01*
X59118529Y-128504810D01*
X59118529Y-128504811D01*
X59061779Y-128765687D01*
X59042732Y-129032000D01*
X59061779Y-129298312D01*
X59118529Y-129559188D01*
X59118529Y-129559189D01*
X59211834Y-129809352D01*
X59211835Y-129809353D01*
X59339789Y-130043684D01*
X59466782Y-130213327D01*
X59476636Y-130226490D01*
X59501447Y-130293010D01*
X59486356Y-130362384D01*
X59476637Y-130377507D01*
X59339788Y-130560317D01*
X59211834Y-130794647D01*
X59118529Y-131044810D01*
X59118529Y-131044811D01*
X59061779Y-131305687D01*
X59042732Y-131572000D01*
X59061779Y-131838312D01*
X59118529Y-132099188D01*
X59118529Y-132099189D01*
X59211834Y-132349352D01*
X59211835Y-132349353D01*
X59339789Y-132583684D01*
X59368640Y-132622224D01*
X59476636Y-132766490D01*
X59501447Y-132833010D01*
X59486356Y-132902384D01*
X59476637Y-132917507D01*
X59339788Y-133100317D01*
X59211834Y-133334647D01*
X59118529Y-133584810D01*
X59118529Y-133584811D01*
X59061779Y-133845687D01*
X59042732Y-134111999D01*
X59061779Y-134378312D01*
X59118529Y-134639188D01*
X59118529Y-134639189D01*
X59211834Y-134889352D01*
X59211835Y-134889353D01*
X59339789Y-135123684D01*
X59379888Y-135177250D01*
X59476636Y-135306491D01*
X59501447Y-135373012D01*
X59486355Y-135442386D01*
X59476636Y-135457509D01*
X59339789Y-135640316D01*
X59211834Y-135874647D01*
X59118529Y-136124810D01*
X59118529Y-136124811D01*
X59061779Y-136385687D01*
X59042732Y-136652000D01*
X51000000Y-136652000D01*
X51000000Y-101126000D01*
X51020002Y-101057879D01*
X51073658Y-101011386D01*
X51126000Y-101000000D01*
X55943822Y-101000000D01*
X56011943Y-101020002D01*
G37*
%TD.AperFunction*%
%TD*%
M02*
